<?xml version="1.0" encoding="UTF-8" standalone="no"?>
<!DOCTYPE svg PUBLIC "-//W3C//DTD SVG 1.1//EN"
 "http://www.w3.org/Graphics/SVG/1.1/DTD/svg11.dtd">
<!-- Generated by graphviz version 2.46.1 (20210215.1649)
 -->
<!-- Title: include/services/assets/AssetService.h Pages: 1 -->
<svg width="2010pt" height="229pt"
 viewBox="0.00 0.00 2010.00 229.00" xmlns="http://www.w3.org/2000/svg" xmlns:xlink="http://www.w3.org/1999/xlink">
<g id="graph0" class="graph" transform="scale(1 1) rotate(0) translate(4 225)">
<title>include/services/assets/AssetService.h</title>
<polygon fill="white" stroke="transparent" points="-4,4 -4,-225 2006,-225 2006,4 -4,4"/>
<!-- Node1 -->
<g id="node1" class="node">
<title>Node1</title>
<g id="a_node1"><a xlink:title="Implementation of AssetService.">
<polygon fill="#bfbfbf" stroke="black" points="602,-190.5 602,-220.5 721,-220.5 721,-190.5 602,-190.5"/>
<text text-anchor="start" x="610" y="-208.5" font-family="Helvetica,sans-Serif" font-size="10.00">include/services/assets</text>
<text text-anchor="middle" x="661.5" y="-197.5" font-family="Helvetica,sans-Serif" font-size="10.00">/AssetService.h</text>
</a>
</g>
</g>
<!-- Node2 -->
<g id="node2" class="node">
<title>Node2</title>
<g id="a_node2"><a xlink:href="AssetService_8cpp_source.html" target="_top" xlink:title=" ">
<polygon fill="white" stroke="black" points="196.5,-67.5 196.5,-97.5 298.5,-97.5 298.5,-67.5 196.5,-67.5"/>
<text text-anchor="start" x="204.5" y="-85.5" font-family="Helvetica,sans-Serif" font-size="10.00">src/services/assets</text>
<text text-anchor="middle" x="247.5" y="-74.5" font-family="Helvetica,sans-Serif" font-size="10.00">/AssetService.cpp</text>
</a>
</g>
</g>
<!-- Node1&#45;&gt;Node2 -->
<g id="edge1" class="edge">
<title>Node1&#45;&gt;Node2</title>
<path fill="none" stroke="midnightblue" d="M603.5,-187.55C521.17,-163.49 371.96,-119.87 295.49,-97.53"/>
<polygon fill="midnightblue" stroke="midnightblue" points="602.62,-190.94 613.2,-190.38 604.58,-184.22 602.62,-190.94"/>
</g>
<!-- Node3 -->
<g id="node3" class="node">
<title>Node3</title>
<g id="a_node3"><a xlink:href="Services_8h.html" target="_top" xlink:title="Implementation of core Services class.">
<polygon fill="white" stroke="black" points="938.5,-134.5 938.5,-153.5 1074.5,-153.5 1074.5,-134.5 938.5,-134.5"/>
<text text-anchor="middle" x="1006.5" y="-141.5" font-family="Helvetica,sans-Serif" font-size="10.00">include/services/Services.h</text>
</a>
</g>
</g>
<!-- Node1&#45;&gt;Node3 -->
<g id="edge2" class="edge">
<title>Node1&#45;&gt;Node3</title>
<path fill="none" stroke="midnightblue" d="M731.25,-192.47C798.26,-180.91 897.8,-163.75 957.02,-153.53"/>
<polygon fill="midnightblue" stroke="midnightblue" points="730.46,-189.06 721.2,-194.2 731.65,-195.95 730.46,-189.06"/>
</g>
<!-- Node3&#45;&gt;Node2 -->
<g id="edge13" class="edge">
<title>Node3&#45;&gt;Node2</title>
<path fill="none" stroke="midnightblue" d="M927.99,-141.86C798.94,-139.1 534.19,-129.72 312.5,-98 308.04,-97.36 303.42,-96.58 298.81,-95.72"/>
<polygon fill="midnightblue" stroke="midnightblue" points="928.1,-145.36 938.17,-142.07 928.24,-138.36 928.1,-145.36"/>
</g>
<!-- Node4 -->
<g id="node4" class="node">
<title>Node4</title>
<g id="a_node4"><a xlink:href="Font_8cpp.html" target="_top" xlink:title="Implementation of Font.">
<polygon fill="white" stroke="black" points="1636,-73 1636,-92 1739,-92 1739,-73 1636,-73"/>
<text text-anchor="middle" x="1687.5" y="-80" font-family="Helvetica,sans-Serif" font-size="10.00">src/assets/Font.cpp</text>
</a>
</g>
</g>
<!-- Node3&#45;&gt;Node4 -->
<g id="edge3" class="edge">
<title>Node3&#45;&gt;Node4</title>
<path fill="none" stroke="midnightblue" d="M1084.97,-141.45C1203.24,-138.19 1433.95,-128.19 1627.5,-98 1637.03,-96.51 1647.27,-94.28 1656.55,-92.01"/>
<polygon fill="midnightblue" stroke="midnightblue" points="1084.82,-137.95 1074.92,-141.72 1085.01,-144.95 1084.82,-137.95"/>
</g>
<!-- Node5 -->
<g id="node5" class="node">
<title>Node5</title>
<g id="a_node5"><a xlink:href="Texture_8cpp.html" target="_top" xlink:title="Implementation of Texture.">
<polygon fill="white" stroke="black" points="1757.5,-73 1757.5,-92 1873.5,-92 1873.5,-73 1757.5,-73"/>
<text text-anchor="middle" x="1815.5" y="-80" font-family="Helvetica,sans-Serif" font-size="10.00">src/assets/Texture.cpp</text>
</a>
</g>
</g>
<!-- Node3&#45;&gt;Node5 -->
<g id="edge4" class="edge">
<title>Node3&#45;&gt;Node5</title>
<path fill="none" stroke="midnightblue" d="M1084.92,-142.17C1220.71,-139.85 1508.17,-131.1 1748.5,-98 1759.11,-96.54 1770.54,-94.31 1780.91,-92.04"/>
<polygon fill="midnightblue" stroke="midnightblue" points="1084.56,-138.67 1074.62,-142.34 1084.67,-145.67 1084.56,-138.67"/>
</g>
<!-- Node6 -->
<g id="node6" class="node">
<title>Node6</title>
<g id="a_node6"><a xlink:href="ParticleEmitter_8cpp.html" target="_top" xlink:title="Implementation of a particle emitter. and configured.">
<polygon fill="white" stroke="black" points="1420,-6 1420,-25 1569,-25 1569,-6 1420,-6"/>
<text text-anchor="middle" x="1494.5" y="-13" font-family="Helvetica,sans-Serif" font-size="10.00">src/entities/ParticleEmitter.cpp</text>
</a>
</g>
</g>
<!-- Node3&#45;&gt;Node6 -->
<g id="edge5" class="edge">
<title>Node3&#45;&gt;Node6</title>
<path fill="none" stroke="midnightblue" d="M1084.56,-141.87C1294.14,-138.47 1855.23,-126.7 1882.5,-98 1891.99,-88.01 1891.59,-77.35 1882.5,-67 1872.26,-55.34 1678.91,-34.59 1569.11,-23.67"/>
<polygon fill="midnightblue" stroke="midnightblue" points="1084.49,-138.37 1074.55,-142.03 1084.6,-145.37 1084.49,-138.37"/>
</g>
<!-- Node7 -->
<g id="node7" class="node">
<title>Node7</title>
<g id="a_node7"><a xlink:href="Button_8cpp.html" target="_top" xlink:title="Implementation of Button.">
<polygon fill="white" stroke="black" points="1676,-6 1676,-25 1801,-25 1801,-6 1676,-6"/>
<text text-anchor="middle" x="1738.5" y="-13" font-family="Helvetica,sans-Serif" font-size="10.00">src/entities/ui/Button.cpp</text>
</a>
</g>
</g>
<!-- Node3&#45;&gt;Node7 -->
<g id="edge6" class="edge">
<title>Node3&#45;&gt;Node7</title>
<path fill="none" stroke="midnightblue" d="M1084.94,-141.95C1297.69,-138.71 1871.64,-127.3 1899.5,-98 1935.98,-59.63 1854.13,-36.4 1794.29,-25.05"/>
<polygon fill="midnightblue" stroke="midnightblue" points="1084.73,-138.45 1074.78,-142.1 1084.83,-145.45 1084.73,-138.45"/>
</g>
<!-- Node8 -->
<g id="node8" class="node">
<title>Node8</title>
<g id="a_node8"><a xlink:href="Checkbox_8cpp.html" target="_top" xlink:title="Implementation of UI Checkbox.">
<polygon fill="white" stroke="black" points="1863,-6 1863,-25 2002,-25 2002,-6 1863,-6"/>
<text text-anchor="middle" x="1932.5" y="-13" font-family="Helvetica,sans-Serif" font-size="10.00">src/entities/ui/Checkbox.cpp</text>
</a>
</g>
</g>
<!-- Node3&#45;&gt;Node8 -->
<g id="edge7" class="edge">
<title>Node3&#45;&gt;Node8</title>
<path fill="none" stroke="midnightblue" d="M1085.1,-141.75C1300.52,-137.96 1886.42,-125.21 1917.5,-98 1938.61,-79.52 1936.26,-41.91 1933.95,-25.03"/>
<polygon fill="midnightblue" stroke="midnightblue" points="1084.76,-138.25 1074.82,-141.92 1084.88,-145.25 1084.76,-138.25"/>
</g>
<!-- Node9 -->
<g id="node9" class="node">
<title>Node9</title>
<g id="a_node9"><a xlink:href="Inputbox_8cpp.html" target="_top" xlink:title="Implementation of UI Inputbox.">
<polygon fill="white" stroke="black" points="0,-6 0,-25 133,-25 133,-6 0,-6"/>
<text text-anchor="middle" x="66.5" y="-13" font-family="Helvetica,sans-Serif" font-size="10.00">src/entities/ui/Inputbox.cpp</text>
</a>
</g>
</g>
<!-- Node3&#45;&gt;Node9 -->
<g id="edge8" class="edge">
<title>Node3&#45;&gt;Node9</title>
<path fill="none" stroke="midnightblue" d="M928.4,-140.67C764.03,-135.35 393.18,-120.95 340.5,-98 322.05,-89.96 325.35,-76.3 307.5,-67 298.76,-62.44 177.44,-38.22 110.35,-25.05"/>
<polygon fill="midnightblue" stroke="midnightblue" points="928.34,-144.17 938.44,-141 928.56,-137.18 928.34,-144.17"/>
</g>
<!-- Node10 -->
<g id="node10" class="node">
<title>Node10</title>
<g id="a_node10"><a xlink:href="MessageBox_8cpp.html" target="_top" xlink:title="Implementation of MessageBox.">
<polygon fill="white" stroke="black" points="602.5,-73 602.5,-92 754.5,-92 754.5,-73 602.5,-73"/>
<text text-anchor="middle" x="678.5" y="-80" font-family="Helvetica,sans-Serif" font-size="10.00">src/entities/ui/MessageBox.cpp</text>
</a>
</g>
</g>
<!-- Node3&#45;&gt;Node10 -->
<g id="edge9" class="edge">
<title>Node3&#45;&gt;Node10</title>
<path fill="none" stroke="midnightblue" d="M949.65,-132.69C886.16,-121.17 784.55,-102.74 725.41,-92.01"/>
<polygon fill="midnightblue" stroke="midnightblue" points="949.04,-136.13 959.51,-134.48 950.29,-129.25 949.04,-136.13"/>
</g>
<!-- Node11 -->
<g id="node11" class="node">
<title>Node11</title>
<g id="a_node11"><a xlink:href="UIElement_8cpp.html" target="_top" xlink:title="Implementation of UIElement.">
<polygon fill="white" stroke="black" points="151.5,-6 151.5,-25 293.5,-25 293.5,-6 151.5,-6"/>
<text text-anchor="middle" x="222.5" y="-13" font-family="Helvetica,sans-Serif" font-size="10.00">src/entities/ui/UIElement.cpp</text>
</a>
</g>
</g>
<!-- Node3&#45;&gt;Node11 -->
<g id="edge10" class="edge">
<title>Node3&#45;&gt;Node11</title>
<path fill="none" stroke="midnightblue" d="M928.18,-142.21C784.7,-139.97 485.44,-131.31 387.5,-98 363.81,-89.94 362.53,-78.86 340.5,-67 308.71,-49.89 269.9,-34.21 245.69,-25.01"/>
<polygon fill="midnightblue" stroke="midnightblue" points="928.19,-145.71 938.24,-142.37 928.29,-138.72 928.19,-145.71"/>
</g>
<!-- Node12 -->
<g id="node12" class="node">
<title>Node12</title>
<g id="a_node12"><a xlink:href="Game_8cpp.html" target="_top" xlink:title="Implementation of Game.">
<polygon fill="white" stroke="black" points="773,-73 773,-92 850,-92 850,-73 773,-73"/>
<text text-anchor="middle" x="811.5" y="-80" font-family="Helvetica,sans-Serif" font-size="10.00">src/Game.cpp</text>
</a>
</g>
</g>
<!-- Node3&#45;&gt;Node12 -->
<g id="edge11" class="edge">
<title>Node3&#45;&gt;Node12</title>
<path fill="none" stroke="midnightblue" d="M968.9,-131.53C931.01,-119.96 873.39,-102.38 839.39,-92.01"/>
<polygon fill="midnightblue" stroke="midnightblue" points="967.98,-134.9 978.56,-134.48 970.02,-128.21 967.98,-134.9"/>
</g>
<!-- Node13 -->
<g id="node13" class="node">
<title>Node13</title>
<g id="a_node13"><a xlink:href="Primitives_8cpp.html" target="_top" xlink:title="Implementation of Primitives namespace helpers.">
<polygon fill="white" stroke="black" points="868.5,-73 868.5,-92 1008.5,-92 1008.5,-73 868.5,-73"/>
<text text-anchor="middle" x="938.5" y="-80" font-family="Helvetica,sans-Serif" font-size="10.00">src/primitives/Primitives.cpp</text>
</a>
</g>
</g>
<!-- Node3&#45;&gt;Node13 -->
<g id="edge12" class="edge">
<title>Node3&#45;&gt;Node13</title>
<path fill="none" stroke="midnightblue" d="M988.96,-127.65C975.99,-116.31 958.82,-101.28 948.22,-92.01"/>
<polygon fill="midnightblue" stroke="midnightblue" points="986.93,-130.52 996.76,-134.48 991.54,-125.26 986.93,-130.52"/>
</g>
<!-- Node14 -->
<g id="node14" class="node">
<title>Node14</title>
<g id="a_node14"><a xlink:href="AudioService_8cpp.html" target="_top" xlink:title="Implementation of AudioService.">
<polygon fill="white" stroke="black" points="1026.5,-67.5 1026.5,-97.5 1122.5,-97.5 1122.5,-67.5 1026.5,-67.5"/>
<text text-anchor="start" x="1034.5" y="-85.5" font-family="Helvetica,sans-Serif" font-size="10.00">src/services/audio</text>
<text text-anchor="middle" x="1074.5" y="-74.5" font-family="Helvetica,sans-Serif" font-size="10.00">/AudioService.cpp</text>
</a>
</g>
</g>
<!-- Node3&#45;&gt;Node14 -->
<g id="edge14" class="edge">
<title>Node3&#45;&gt;Node14</title>
<path fill="none" stroke="midnightblue" d="M1024.05,-127.65C1034.68,-118.35 1048.13,-106.57 1058.47,-97.52"/>
<polygon fill="midnightblue" stroke="midnightblue" points="1021.46,-125.26 1016.24,-134.48 1026.07,-130.52 1021.46,-125.26"/>
</g>
<!-- Node15 -->
<g id="node15" class="node">
<title>Node15</title>
<g id="a_node15"><a xlink:href="ConfigService_8cpp.html" target="_top" xlink:title="Implementation of default Config Service.">
<polygon fill="white" stroke="black" points="1140.5,-67.5 1140.5,-97.5 1238.5,-97.5 1238.5,-67.5 1140.5,-67.5"/>
<text text-anchor="start" x="1148.5" y="-85.5" font-family="Helvetica,sans-Serif" font-size="10.00">src/services/config</text>
<text text-anchor="middle" x="1189.5" y="-74.5" font-family="Helvetica,sans-Serif" font-size="10.00">/ConfigService.cpp</text>
</a>
</g>
</g>
<!-- Node3&#45;&gt;Node15 -->
<g id="edge15" class="edge">
<title>Node3&#45;&gt;Node15</title>
<path fill="none" stroke="midnightblue" d="M1042.31,-131.36C1072.13,-121.66 1114.68,-107.83 1146.37,-97.52"/>
<polygon fill="midnightblue" stroke="midnightblue" points="1041.15,-128.05 1032.72,-134.48 1043.31,-134.71 1041.15,-128.05"/>
</g>
<!-- Node16 -->
<g id="node16" class="node">
<title>Node16</title>
<g id="a_node16"><a xlink:href="DisplayService_8cpp.html" target="_top" xlink:title="Implementation of DisplayService.">
<polygon fill="white" stroke="black" points="312,-0.5 312,-30.5 415,-30.5 415,-0.5 312,-0.5"/>
<text text-anchor="start" x="320" y="-18.5" font-family="Helvetica,sans-Serif" font-size="10.00">src/services/display</text>
<text text-anchor="middle" x="363.5" y="-7.5" font-family="Helvetica,sans-Serif" font-size="10.00">/DisplayService.cpp</text>
</a>
</g>
</g>
<!-- Node3&#45;&gt;Node16 -->
<g id="edge16" class="edge">
<title>Node3&#45;&gt;Node16</title>
<path fill="none" stroke="midnightblue" d="M928.28,-140.61C779.25,-135.54 465.57,-122.12 422.5,-98 395.52,-82.89 377.65,-49.71 369.18,-30.68"/>
<polygon fill="midnightblue" stroke="midnightblue" points="928.17,-144.11 938.28,-140.95 928.41,-137.12 928.17,-144.11"/>
</g>
<!-- Node17 -->
<g id="node17" class="node">
<title>Node17</title>
<g id="a_node17"><a xlink:href="EventQueue_8cpp.html" target="_top" xlink:title="Implementation of EventQueue.">
<polygon fill="white" stroke="black" points="1256.5,-67.5 1256.5,-97.5 1358.5,-97.5 1358.5,-67.5 1256.5,-67.5"/>
<text text-anchor="start" x="1264.5" y="-85.5" font-family="Helvetica,sans-Serif" font-size="10.00">src/services/events</text>
<text text-anchor="middle" x="1307.5" y="-74.5" font-family="Helvetica,sans-Serif" font-size="10.00">/EventQueue.cpp</text>
</a>
</g>
</g>
<!-- Node3&#45;&gt;Node17 -->
<g id="edge17" class="edge">
<title>Node3&#45;&gt;Node17</title>
<path fill="none" stroke="midnightblue" d="M1066.59,-132.68C1115.45,-124.08 1186.11,-111.14 1247.5,-98 1250.43,-97.37 1253.44,-96.71 1256.48,-96.02"/>
<polygon fill="midnightblue" stroke="midnightblue" points="1065.75,-129.28 1056.5,-134.45 1066.96,-136.17 1065.75,-129.28"/>
</g>
<!-- Node18 -->
<g id="node18" class="node">
<title>Node18</title>
<g id="a_node18"><a xlink:href="InputService_8cpp.html" target="_top" xlink:title="Implementation of InputService. Handles mouse, keyboard and joystick.">
<polygon fill="white" stroke="black" points="1376.5,-67.5 1376.5,-97.5 1470.5,-97.5 1470.5,-67.5 1376.5,-67.5"/>
<text text-anchor="start" x="1384.5" y="-85.5" font-family="Helvetica,sans-Serif" font-size="10.00">src/services/input</text>
<text text-anchor="middle" x="1423.5" y="-74.5" font-family="Helvetica,sans-Serif" font-size="10.00">/InputService.cpp</text>
</a>
</g>
</g>
<!-- Node3&#45;&gt;Node18 -->
<g id="edge18" class="edge">
<title>Node3&#45;&gt;Node18</title>
<path fill="none" stroke="midnightblue" d="M1084.87,-136.18C1158.3,-129.1 1270.92,-116.44 1367.5,-98 1370.36,-97.45 1373.29,-96.85 1376.24,-96.2"/>
<polygon fill="midnightblue" stroke="midnightblue" points="1084.4,-132.71 1074.78,-137.14 1085.06,-139.68 1084.4,-132.71"/>
</g>
<!-- Node19 -->
<g id="node19" class="node">
<title>Node19</title>
<g id="a_node19"><a xlink:href="SceneService_8cpp.html" target="_top" xlink:title="Implementation of SceneService.">
<polygon fill="white" stroke="black" points="1125,-0.5 1125,-30.5 1224,-30.5 1224,-0.5 1125,-0.5"/>
<text text-anchor="start" x="1133" y="-18.5" font-family="Helvetica,sans-Serif" font-size="10.00">src/services/scene</text>
<text text-anchor="middle" x="1174.5" y="-7.5" font-family="Helvetica,sans-Serif" font-size="10.00">/SceneService.cpp</text>
</a>
</g>
</g>
<!-- Node3&#45;&gt;Node19 -->
<g id="edge19" class="edge">
<title>Node3&#45;&gt;Node19</title>
<path fill="none" stroke="midnightblue" d="M928.43,-140.02C814.93,-134.87 615.41,-122.43 593.5,-98 584.3,-87.74 584.1,-77.07 593.5,-67 633.25,-24.42 1058.97,-40.1 1116.5,-31 1119.27,-30.56 1122.1,-30.06 1124.94,-29.5"/>
<polygon fill="midnightblue" stroke="midnightblue" points="928.32,-143.52 938.46,-140.46 928.63,-136.52 928.32,-143.52"/>
</g>
<!-- Node20 -->
<g id="node20" class="node">
<title>Node20</title>
<g id="a_node20"><a xlink:href="Services_8cpp_source.html" target="_top" xlink:title=" ">
<polygon fill="white" stroke="black" points="1489,-73 1489,-92 1618,-92 1618,-73 1489,-73"/>
<text text-anchor="middle" x="1553.5" y="-80" font-family="Helvetica,sans-Serif" font-size="10.00">src/services/Services.cpp</text>
</a>
</g>
</g>
<!-- Node3&#45;&gt;Node20 -->
<g id="edge20" class="edge">
<title>Node3&#45;&gt;Node20</title>
<path fill="none" stroke="midnightblue" d="M1084.5,-137.95C1178.5,-131.31 1341.07,-118.1 1479.5,-98 1490.64,-96.38 1502.65,-94.22 1513.68,-92.05"/>
<polygon fill="midnightblue" stroke="midnightblue" points="1084.24,-134.46 1074.51,-138.65 1084.72,-141.44 1084.24,-134.46"/>
</g>
<!-- Node21 -->
<g id="node21" class="node">
<title>Node21</title>
<g id="a_node21"><a xlink:href="Scene_8h.html" target="_top" xlink:title="Parent scene class. Children can be added to scene manager.">
<polygon fill="white" stroke="black" points="431,-73 431,-92 546,-92 546,-73 431,-73"/>
<text text-anchor="middle" x="488.5" y="-80" font-family="Helvetica,sans-Serif" font-size="10.00">include/scene/Scene.h</text>
</a>
</g>
</g>
<!-- Node3&#45;&gt;Node21 -->
<g id="edge21" class="edge">
<title>Node3&#45;&gt;Node21</title>
<path fill="none" stroke="midnightblue" d="M928.19,-137.44C838.9,-130.56 688.69,-117.33 560.5,-98 549.66,-96.37 537.97,-94.19 527.24,-92.03"/>
<polygon fill="midnightblue" stroke="midnightblue" points="928,-140.93 938.24,-138.21 928.53,-133.95 928,-140.93"/>
</g>
<!-- Node21&#45;&gt;Node6 -->
<g id="edge24" class="edge">
<title>Node21&#45;&gt;Node6</title>
<path fill="none" stroke="midnightblue" d="M554.25,-71.59C567.24,-69.86 580.78,-68.23 593.5,-67 603.75,-66.01 1205.62,-32.54 1419.82,-20.65"/>
<polygon fill="midnightblue" stroke="midnightblue" points="553.42,-68.17 543.98,-72.98 554.36,-75.1 553.42,-68.17"/>
</g>
<!-- Node21&#45;&gt;Node7 -->
<g id="edge26" class="edge">
<title>Node21&#45;&gt;Node7</title>
<path fill="none" stroke="midnightblue" d="M552.73,-71.59C566.17,-69.8 580.28,-68.15 593.5,-67 1029.92,-28.99 1141.31,-58.78 1578.5,-31 1610.65,-28.96 1646.36,-25.81 1675.87,-22.96"/>
<polygon fill="midnightblue" stroke="midnightblue" points="552.04,-68.15 542.61,-72.97 552.99,-75.08 552.04,-68.15"/>
</g>
<!-- Node21&#45;&gt;Node8 -->
<g id="edge27" class="edge">
<title>Node21&#45;&gt;Node8</title>
<path fill="none" stroke="midnightblue" d="M552.28,-71.57C565.86,-69.78 580.13,-68.12 593.5,-67 1132.74,-21.92 1270.85,-70.97 1810.5,-31 1829.86,-29.57 1850.87,-27.32 1869.91,-25.02"/>
<polygon fill="midnightblue" stroke="midnightblue" points="551.5,-68.15 542.06,-72.97 552.44,-75.08 551.5,-68.15"/>
</g>
<!-- Node21&#45;&gt;Node9 -->
<g id="edge29" class="edge">
<title>Node21&#45;&gt;Node9</title>
<path fill="none" stroke="midnightblue" d="M420.84,-72.51C350.99,-63.03 238.93,-47.23 142.5,-31 131.77,-29.19 120.22,-27.08 109.45,-25.03"/>
<polygon fill="midnightblue" stroke="midnightblue" points="420.45,-75.99 430.83,-73.87 421.39,-69.06 420.45,-75.99"/>
</g>
<!-- Node21&#45;&gt;Node11 -->
<g id="edge30" class="edge">
<title>Node21&#45;&gt;Node11</title>
<path fill="none" stroke="midnightblue" d="M443.42,-70.48C390.95,-57.66 305.41,-36.76 257.63,-25.08"/>
<polygon fill="midnightblue" stroke="midnightblue" points="442.91,-73.96 453.45,-72.94 444.57,-67.16 442.91,-73.96"/>
</g>
<!-- Node21&#45;&gt;Node16 -->
<g id="edge32" class="edge">
<title>Node21&#45;&gt;Node16</title>
<path fill="none" stroke="midnightblue" d="M462.91,-68.19C441.89,-57.26 412.17,-41.81 390.71,-30.65"/>
<polygon fill="midnightblue" stroke="midnightblue" points="461.41,-71.36 471.9,-72.87 464.64,-65.15 461.41,-71.36"/>
</g>
<!-- Node21&#45;&gt;Node19 -->
<g id="edge33" class="edge">
<title>Node21&#45;&gt;Node19</title>
<path fill="none" stroke="midnightblue" d="M536.15,-70.97C544.24,-69.45 552.59,-68.05 560.5,-67 805.98,-34.48 871.83,-69.18 1116.5,-31 1119.27,-30.57 1122.1,-30.07 1124.95,-29.51"/>
<polygon fill="midnightblue" stroke="midnightblue" points="535.22,-67.59 526.08,-72.94 536.57,-74.45 535.22,-67.59"/>
</g>
<!-- Node22 -->
<g id="node22" class="node">
<title>Node22</title>
<g id="a_node22"><a xlink:href="GameObject_8cpp_source.html" target="_top" xlink:title=" ">
<polygon fill="white" stroke="black" points="829.5,-6 829.5,-25 969.5,-25 969.5,-6 829.5,-6"/>
<text text-anchor="middle" x="899.5" y="-13" font-family="Helvetica,sans-Serif" font-size="10.00">src/entities/GameObject.cpp</text>
</a>
</g>
</g>
<!-- Node21&#45;&gt;Node22 -->
<g id="edge22" class="edge">
<title>Node21&#45;&gt;Node22</title>
<path fill="none" stroke="midnightblue" d="M538.63,-70.99C545.96,-69.58 553.41,-68.2 560.5,-67 675.51,-47.48 705.32,-49.53 820.5,-31 831.65,-29.21 843.66,-27.09 854.86,-25.05"/>
<polygon fill="midnightblue" stroke="midnightblue" points="537.92,-67.57 528.78,-72.94 539.27,-74.44 537.92,-67.57"/>
</g>
<!-- Node23 -->
<g id="node23" class="node">
<title>Node23</title>
<g id="a_node23"><a xlink:href="Particle_8cpp.html" target="_top" xlink:title="Implementation of Particle.">
<polygon fill="white" stroke="black" points="988,-6 988,-25 1107,-25 1107,-6 988,-6"/>
<text text-anchor="middle" x="1047.5" y="-13" font-family="Helvetica,sans-Serif" font-size="10.00">src/entities/Particle.cpp</text>
</a>
</g>
</g>
<!-- Node21&#45;&gt;Node23 -->
<g id="edge23" class="edge">
<title>Node21&#45;&gt;Node23</title>
<path fill="none" stroke="midnightblue" d="M536.72,-71.01C544.64,-69.51 552.78,-68.11 560.5,-67 745.08,-40.55 794.03,-58.22 978.5,-31 989.16,-29.43 1000.64,-27.22 1011.12,-25.01"/>
<polygon fill="midnightblue" stroke="midnightblue" points="535.99,-67.59 526.85,-72.94 537.33,-74.46 535.99,-67.59"/>
</g>
<!-- Node24 -->
<g id="node24" class="node">
<title>Node24</title>
<g id="a_node24"><a xlink:href="Sprite_8cpp.html" target="_top" xlink:title="Implementation of Sprite.">
<polygon fill="white" stroke="black" points="433,-6 433,-25 544,-25 544,-6 433,-6"/>
<text text-anchor="middle" x="488.5" y="-13" font-family="Helvetica,sans-Serif" font-size="10.00">src/entities/Sprite.cpp</text>
</a>
</g>
</g>
<!-- Node21&#45;&gt;Node24 -->
<g id="edge25" class="edge">
<title>Node21&#45;&gt;Node24</title>
<path fill="none" stroke="midnightblue" d="M488.5,-62.54C488.5,-50.17 488.5,-34.62 488.5,-25.13"/>
<polygon fill="midnightblue" stroke="midnightblue" points="485,-62.73 488.5,-72.73 492,-62.73 485,-62.73"/>
</g>
<!-- Node25 -->
<g id="node25" class="node">
<title>Node25</title>
<g id="a_node25"><a xlink:href="Image_8cpp.html" target="_top" xlink:title="Texturable ui element.">
<polygon fill="white" stroke="black" points="562,-6 562,-25 685,-25 685,-6 562,-6"/>
<text text-anchor="middle" x="623.5" y="-13" font-family="Helvetica,sans-Serif" font-size="10.00">src/entities/ui/Image.cpp</text>
</a>
</g>
</g>
<!-- Node21&#45;&gt;Node25 -->
<g id="edge28" class="edge">
<title>Node21&#45;&gt;Node25</title>
<path fill="none" stroke="midnightblue" d="M515.62,-68.44C542.36,-55.57 582.47,-36.26 605.5,-25.17"/>
<polygon fill="midnightblue" stroke="midnightblue" points="513.92,-65.38 506.43,-72.87 516.96,-71.68 513.92,-65.38"/>
</g>
<!-- Node26 -->
<g id="node26" class="node">
<title>Node26</title>
<g id="a_node26"><a xlink:href="Scene_8cpp.html" target="_top" xlink:title="Implementation of Scene class.">
<polygon fill="white" stroke="black" points="703.5,-6 703.5,-25 811.5,-25 811.5,-6 703.5,-6"/>
<text text-anchor="middle" x="757.5" y="-13" font-family="Helvetica,sans-Serif" font-size="10.00">src/scene/Scene.cpp</text>
</a>
</g>
</g>
<!-- Node21&#45;&gt;Node26 -->
<g id="edge31" class="edge">
<title>Node21&#45;&gt;Node26</title>
<path fill="none" stroke="midnightblue" d="M533.76,-70.56C586.79,-57.75 673.55,-36.78 721.98,-25.08"/>
<polygon fill="midnightblue" stroke="midnightblue" points="532.84,-67.18 523.94,-72.94 534.49,-73.99 532.84,-67.18"/>
</g>
</g>
</svg>
