<?xml version="1.0" encoding="UTF-8" standalone="no"?>
<!DOCTYPE svg PUBLIC "-//W3C//DTD SVG 1.1//EN"
 "http://www.w3.org/Graphics/SVG/1.1/DTD/svg11.dtd">
<!-- Generated by graphviz version 2.46.1 (20210215.1649)
 -->
<!-- Title: include/services/assets/AssetService.h Pages: 1 -->
<svg width="570pt" height="207pt"
 viewBox="0.00 0.00 569.50 207.00" xmlns="http://www.w3.org/2000/svg" xmlns:xlink="http://www.w3.org/1999/xlink">
<g id="graph0" class="graph" transform="scale(1 1) rotate(0) translate(4 203)">
<title>include/services/assets/AssetService.h</title>
<polygon fill="white" stroke="transparent" points="-4,4 -4,-203 565.5,-203 565.5,4 -4,4"/>
<!-- Node1 -->
<g id="node1" class="node">
<title>Node1</title>
<g id="a_node1"><a xlink:title="Implementation of AssetService.">
<polygon fill="#bfbfbf" stroke="black" points="213.5,-168.5 213.5,-198.5 332.5,-198.5 332.5,-168.5 213.5,-168.5"/>
<text text-anchor="start" x="221.5" y="-186.5" font-family="Helvetica,sans-Serif" font-size="10.00">include/services/assets</text>
<text text-anchor="middle" x="273" y="-175.5" font-family="Helvetica,sans-Serif" font-size="10.00">/AssetService.h</text>
</a>
</g>
</g>
<!-- Node2 -->
<g id="node2" class="node">
<title>Node2</title>
<g id="a_node2"><a xlink:title=" ">
<polygon fill="white" stroke="#bfbfbf" points="18.5,-112.5 18.5,-131.5 53.5,-131.5 53.5,-112.5 18.5,-112.5"/>
<text text-anchor="middle" x="36" y="-119.5" font-family="Helvetica,sans-Serif" font-size="10.00">map</text>
</a>
</g>
</g>
<!-- Node1&#45;&gt;Node2 -->
<g id="edge1" class="edge">
<title>Node1&#45;&gt;Node2</title>
<path fill="none" stroke="midnightblue" d="M213.47,-169.89C173.3,-161.01 118.96,-148.27 63.23,-132.16"/>
<polygon fill="midnightblue" stroke="midnightblue" points="64.13,-128.78 53.55,-129.34 62.16,-135.5 64.13,-128.78"/>
</g>
<!-- Node3 -->
<g id="node3" class="node">
<title>Node3</title>
<g id="a_node3"><a xlink:title=" ">
<polygon fill="white" stroke="#bfbfbf" points="292.5,-56.5 292.5,-75.5 333.5,-75.5 333.5,-56.5 292.5,-56.5"/>
<text text-anchor="middle" x="313" y="-63.5" font-family="Helvetica,sans-Serif" font-size="10.00">string</text>
</a>
</g>
</g>
<!-- Node1&#45;&gt;Node3 -->
<g id="edge2" class="edge">
<title>Node1&#45;&gt;Node3</title>
<path fill="none" stroke="midnightblue" d="M279.49,-168.08C283.88,-158.07 289.64,-144.36 294,-132 299.5,-116.41 304.69,-98.33 308.25,-85.21"/>
<polygon fill="midnightblue" stroke="midnightblue" points="311.64,-86.07 310.83,-75.51 304.88,-84.27 311.64,-86.07"/>
</g>
<!-- Node4 -->
<g id="node4" class="node">
<title>Node4</title>
<g id="a_node4"><a xlink:href="Font_8h.html" target="_top" xlink:title="Easy interface to interact with SDL fonts.">
<polygon fill="white" stroke="black" points="71.5,-112.5 71.5,-131.5 162.5,-131.5 162.5,-112.5 71.5,-112.5"/>
<text text-anchor="middle" x="117" y="-119.5" font-family="Helvetica,sans-Serif" font-size="10.00">../../assets/Font.h</text>
</a>
</g>
</g>
<!-- Node1&#45;&gt;Node4 -->
<g id="edge3" class="edge">
<title>Node1&#45;&gt;Node4</title>
<path fill="none" stroke="midnightblue" d="M236.03,-168.4C209.62,-158.33 174.44,-144.91 149.19,-135.28"/>
<polygon fill="midnightblue" stroke="midnightblue" points="150.29,-131.95 139.7,-131.66 147.8,-138.49 150.29,-131.95"/>
</g>
<!-- Node8 -->
<g id="node8" class="node">
<title>Node8</title>
<g id="a_node8"><a xlink:href="Sound_8h.html" target="_top" xlink:title="Implementation of Sound.">
<polygon fill="white" stroke="black" points="341.5,-112.5 341.5,-131.5 440.5,-131.5 440.5,-112.5 341.5,-112.5"/>
<text text-anchor="middle" x="391" y="-119.5" font-family="Helvetica,sans-Serif" font-size="10.00">../../assets/Sound.h</text>
</a>
</g>
</g>
<!-- Node1&#45;&gt;Node8 -->
<g id="edge8" class="edge">
<title>Node1&#45;&gt;Node8</title>
<path fill="none" stroke="midnightblue" d="M300.96,-168.4C320.32,-158.64 345.91,-145.74 364.86,-136.18"/>
<polygon fill="midnightblue" stroke="midnightblue" points="366.48,-139.29 373.83,-131.66 363.33,-133.04 366.48,-139.29"/>
</g>
<!-- Node10 -->
<g id="node10" class="node">
<title>Node10</title>
<g id="a_node10"><a xlink:href="Stream_8h.html" target="_top" xlink:title="Wrapper for sdl stream including ability to store stream pointer. Use for single instance sounds like...">
<polygon fill="white" stroke="black" points="458.5,-112.5 458.5,-131.5 561.5,-131.5 561.5,-112.5 458.5,-112.5"/>
<text text-anchor="middle" x="510" y="-119.5" font-family="Helvetica,sans-Serif" font-size="10.00">../../assets/Stream.h</text>
</a>
</g>
</g>
<!-- Node1&#45;&gt;Node10 -->
<g id="edge11" class="edge">
<title>Node1&#45;&gt;Node10</title>
<path fill="none" stroke="midnightblue" d="M328.87,-168.47C370.82,-157.94 427.49,-143.72 466.19,-134"/>
<polygon fill="midnightblue" stroke="midnightblue" points="467.27,-137.34 476.12,-131.51 465.57,-130.55 467.27,-137.34"/>
</g>
<!-- Node11 -->
<g id="node11" class="node">
<title>Node11</title>
<g id="a_node11"><a xlink:href="Texture_8h.html" target="_top" xlink:title="Easy interface to interact with sdl bitmaps.">
<polygon fill="white" stroke="black" points="181,-112.5 181,-131.5 285,-131.5 285,-112.5 181,-112.5"/>
<text text-anchor="middle" x="233" y="-119.5" font-family="Helvetica,sans-Serif" font-size="10.00">../../assets/Texture.h</text>
</a>
</g>
</g>
<!-- Node1&#45;&gt;Node11 -->
<g id="edge14" class="edge">
<title>Node1&#45;&gt;Node11</title>
<path fill="none" stroke="midnightblue" d="M263.52,-168.4C257.83,-159.93 250.55,-149.1 244.52,-140.14"/>
<polygon fill="midnightblue" stroke="midnightblue" points="247.3,-138 238.82,-131.66 241.49,-141.91 247.3,-138"/>
</g>
<!-- Node4&#45;&gt;Node3 -->
<g id="edge5" class="edge">
<title>Node4&#45;&gt;Node3</title>
<path fill="none" stroke="midnightblue" d="M148.06,-112.44C184.8,-102.32 245.59,-85.57 282.22,-75.48"/>
<polygon fill="midnightblue" stroke="midnightblue" points="283.6,-78.73 292.31,-72.7 281.74,-71.98 283.6,-78.73"/>
</g>
<!-- Node5 -->
<g id="node5" class="node">
<title>Node5</title>
<g id="a_node5"><a xlink:title=" ">
<polygon fill="white" stroke="#bfbfbf" points="0,-56.5 0,-75.5 86,-75.5 86,-56.5 0,-56.5"/>
<text text-anchor="middle" x="43" y="-63.5" font-family="Helvetica,sans-Serif" font-size="10.00">SDL2/SDL_ttf.h</text>
</a>
</g>
</g>
<!-- Node4&#45;&gt;Node5 -->
<g id="edge4" class="edge">
<title>Node4&#45;&gt;Node5</title>
<path fill="none" stroke="midnightblue" d="M105.11,-112.32C93.85,-104.11 76.71,-91.6 63.29,-81.81"/>
<polygon fill="midnightblue" stroke="midnightblue" points="65.25,-78.9 55.11,-75.83 61.12,-84.56 65.25,-78.9"/>
</g>
<!-- Node6 -->
<g id="node6" class="node">
<title>Node6</title>
<g id="a_node6"><a xlink:href="Color_8h.html" target="_top" xlink:title="Helpers for creating colors without accessing SDL api directly.">
<polygon fill="white" stroke="black" points="104,-56.5 104,-75.5 182,-75.5 182,-56.5 104,-56.5"/>
<text text-anchor="middle" x="143" y="-63.5" font-family="Helvetica,sans-Serif" font-size="10.00">../color/Color.h</text>
</a>
</g>
</g>
<!-- Node4&#45;&gt;Node6 -->
<g id="edge6" class="edge">
<title>Node4&#45;&gt;Node6</title>
<path fill="none" stroke="midnightblue" d="M121.29,-112.08C124.85,-104.69 130.02,-93.95 134.42,-84.81"/>
<polygon fill="midnightblue" stroke="midnightblue" points="137.6,-86.28 138.79,-75.75 131.29,-83.24 137.6,-86.28"/>
</g>
<!-- Node7 -->
<g id="node7" class="node">
<title>Node7</title>
<g id="a_node7"><a xlink:title=" ">
<polygon fill="white" stroke="#bfbfbf" points="74,-0.5 74,-19.5 212,-19.5 212,-0.5 74,-0.5"/>
<text text-anchor="middle" x="143" y="-7.5" font-family="Helvetica,sans-Serif" font-size="10.00">SDL2/SDL2_gfxPrimitives.h</text>
</a>
</g>
</g>
<!-- Node6&#45;&gt;Node7 -->
<g id="edge7" class="edge">
<title>Node6&#45;&gt;Node7</title>
<path fill="none" stroke="midnightblue" d="M143,-56.08C143,-49.01 143,-38.86 143,-29.99"/>
<polygon fill="midnightblue" stroke="midnightblue" points="146.5,-29.75 143,-19.75 139.5,-29.75 146.5,-29.75"/>
</g>
<!-- Node8&#45;&gt;Node3 -->
<g id="edge10" class="edge">
<title>Node8&#45;&gt;Node3</title>
<path fill="none" stroke="midnightblue" d="M378.47,-112.32C366.41,-103.98 347.97,-91.21 333.73,-81.35"/>
<polygon fill="midnightblue" stroke="midnightblue" points="335.72,-78.47 325.5,-75.65 331.73,-84.22 335.72,-78.47"/>
</g>
<!-- Node9 -->
<g id="node9" class="node">
<title>Node9</title>
<g id="a_node9"><a xlink:title=" ">
<polygon fill="white" stroke="#bfbfbf" points="406,-56.5 406,-75.5 506,-75.5 506,-56.5 406,-56.5"/>
<text text-anchor="middle" x="456" y="-63.5" font-family="Helvetica,sans-Serif" font-size="10.00">SDL2/SDL_mixer.h</text>
</a>
</g>
</g>
<!-- Node8&#45;&gt;Node9 -->
<g id="edge9" class="edge">
<title>Node8&#45;&gt;Node9</title>
<path fill="none" stroke="midnightblue" d="M401.44,-112.32C411.15,-104.26 425.82,-92.08 437.5,-82.37"/>
<polygon fill="midnightblue" stroke="midnightblue" points="439.91,-84.92 445.37,-75.83 435.44,-79.53 439.91,-84.92"/>
</g>
<!-- Node10&#45;&gt;Node3 -->
<g id="edge13" class="edge">
<title>Node10&#45;&gt;Node3</title>
<path fill="none" stroke="midnightblue" d="M478.78,-112.44C441.6,-102.25 379.9,-85.34 343.17,-75.27"/>
<polygon fill="midnightblue" stroke="midnightblue" points="344.09,-71.89 333.52,-72.62 342.24,-78.64 344.09,-71.89"/>
</g>
<!-- Node10&#45;&gt;Node9 -->
<g id="edge12" class="edge">
<title>Node10&#45;&gt;Node9</title>
<path fill="none" stroke="midnightblue" d="M501.08,-112.08C493.22,-104.22 481.57,-92.57 472.08,-83.08"/>
<polygon fill="midnightblue" stroke="midnightblue" points="474.3,-80.35 464.75,-75.75 469.35,-85.3 474.3,-80.35"/>
</g>
<!-- Node11&#45;&gt;Node3 -->
<g id="edge16" class="edge">
<title>Node11&#45;&gt;Node3</title>
<path fill="none" stroke="midnightblue" d="M245.85,-112.32C258.22,-103.98 277.13,-91.21 291.74,-81.35"/>
<polygon fill="midnightblue" stroke="midnightblue" points="293.85,-84.15 300.18,-75.65 289.93,-78.35 293.85,-84.15"/>
</g>
<!-- Node11&#45;&gt;Node6 -->
<g id="edge17" class="edge">
<title>Node11&#45;&gt;Node6</title>
<path fill="none" stroke="midnightblue" d="M218.54,-112.32C204.5,-103.9 182.95,-90.97 166.46,-81.07"/>
<polygon fill="midnightblue" stroke="midnightblue" points="167.8,-77.8 157.42,-75.65 164.2,-83.8 167.8,-77.8"/>
</g>
<!-- Node12 -->
<g id="node12" class="node">
<title>Node12</title>
<g id="a_node12"><a xlink:title=" ">
<polygon fill="white" stroke="#bfbfbf" points="200.5,-56.5 200.5,-75.5 271.5,-75.5 271.5,-56.5 200.5,-56.5"/>
<text text-anchor="middle" x="236" y="-63.5" font-family="Helvetica,sans-Serif" font-size="10.00">SDL2/SDL.h</text>
</a>
</g>
</g>
<!-- Node11&#45;&gt;Node12 -->
<g id="edge15" class="edge">
<title>Node11&#45;&gt;Node12</title>
<path fill="none" stroke="midnightblue" d="M233.5,-112.08C233.89,-105.01 234.45,-94.86 234.95,-85.99"/>
<polygon fill="midnightblue" stroke="midnightblue" points="238.45,-85.93 235.51,-75.75 231.46,-85.54 238.45,-85.93"/>
</g>
</g>
</svg>
