<?xml version="1.0" encoding="UTF-8" standalone="no"?>
<!DOCTYPE svg PUBLIC "-//W3C//DTD SVG 1.1//EN"
 "http://www.w3.org/Graphics/SVG/1.1/DTD/svg11.dtd">
<!-- Generated by graphviz version 2.46.1 (20210215.1649)
 -->
<!-- Title: include/services/audio/AudioService.h Pages: 1 -->
<svg width="240pt" height="151pt"
 viewBox="0.00 0.00 239.85 151.00" xmlns="http://www.w3.org/2000/svg" xmlns:xlink="http://www.w3.org/1999/xlink">
<g id="graph0" class="graph" transform="scale(1 1) rotate(0) translate(4 147)">
<title>include/services/audio/AudioService.h</title>
<polygon fill="white" stroke="transparent" points="-4,4 -4,-147 235.85,-147 235.85,4 -4,4"/>
<!-- Node1 -->
<g id="node1" class="node">
<title>Node1</title>
<g id="a_node1"><a xlink:title="Default audio service, can actually play audio.">
<polygon fill="#bfbfbf" stroke="black" points="6.85,-112.5 6.85,-142.5 119.85,-142.5 119.85,-112.5 6.85,-112.5"/>
<text text-anchor="start" x="14.85" y="-130.5" font-family="Helvetica,sans-Serif" font-size="10.00">include/services/audio</text>
<text text-anchor="middle" x="63.35" y="-119.5" font-family="Helvetica,sans-Serif" font-size="10.00">/AudioService.h</text>
</a>
</g>
</g>
<!-- Node2 -->
<g id="node2" class="node">
<title>Node2</title>
<g id="a_node2"><a xlink:title=" ">
<polygon fill="white" stroke="#bfbfbf" points="42.85,-0.5 42.85,-19.5 83.85,-19.5 83.85,-0.5 42.85,-0.5"/>
<text text-anchor="middle" x="63.35" y="-7.5" font-family="Helvetica,sans-Serif" font-size="10.00">string</text>
</a>
</g>
</g>
<!-- Node1&#45;&gt;Node2 -->
<g id="edge1" class="edge">
<title>Node1&#45;&gt;Node2</title>
<path fill="none" stroke="midnightblue" d="M37.09,-112.39C16.24,-99.15 -7.72,-78.14 3.35,-56 10.07,-42.54 22.95,-32.07 35.06,-24.62"/>
<polygon fill="midnightblue" stroke="midnightblue" points="37.08,-27.5 44.05,-19.52 33.62,-21.41 37.08,-27.5"/>
</g>
<!-- Node3 -->
<g id="node3" class="node">
<title>Node3</title>
<g id="a_node3"><a xlink:href="Sound_8h.html" target="_top" xlink:title="Implementation of Sound.">
<polygon fill="white" stroke="black" points="132.85,-56.5 132.85,-75.5 231.85,-75.5 231.85,-56.5 132.85,-56.5"/>
<text text-anchor="middle" x="182.35" y="-63.5" font-family="Helvetica,sans-Serif" font-size="10.00">../../assets/Sound.h</text>
</a>
</g>
</g>
<!-- Node1&#45;&gt;Node3 -->
<g id="edge2" class="edge">
<title>Node1&#45;&gt;Node3</title>
<path fill="none" stroke="midnightblue" d="M91.55,-112.4C111.07,-102.64 136.87,-89.74 155.98,-80.18"/>
<polygon fill="midnightblue" stroke="midnightblue" points="157.65,-83.26 165.03,-75.66 154.52,-77 157.65,-83.26"/>
</g>
<!-- Node5 -->
<g id="node5" class="node">
<title>Node5</title>
<g id="a_node5"><a xlink:href="Stream_8h.html" target="_top" xlink:title="Wrapper for sdl stream including ability to store stream pointer. Use for single instance sounds like...">
<polygon fill="white" stroke="black" points="11.85,-56.5 11.85,-75.5 114.85,-75.5 114.85,-56.5 11.85,-56.5"/>
<text text-anchor="middle" x="63.35" y="-63.5" font-family="Helvetica,sans-Serif" font-size="10.00">../../assets/Stream.h</text>
</a>
</g>
</g>
<!-- Node1&#45;&gt;Node5 -->
<g id="edge5" class="edge">
<title>Node1&#45;&gt;Node5</title>
<path fill="none" stroke="midnightblue" d="M63.35,-112.4C63.35,-104.47 63.35,-94.46 63.35,-85.86"/>
<polygon fill="midnightblue" stroke="midnightblue" points="66.85,-85.66 63.35,-75.66 59.85,-85.66 66.85,-85.66"/>
</g>
<!-- Node3&#45;&gt;Node2 -->
<g id="edge4" class="edge">
<title>Node3&#45;&gt;Node2</title>
<path fill="none" stroke="midnightblue" d="M163.49,-56.44C144.08,-47.64 113.62,-33.81 91.38,-23.72"/>
<polygon fill="midnightblue" stroke="midnightblue" points="92.67,-20.46 82.11,-19.52 89.77,-26.84 92.67,-20.46"/>
</g>
<!-- Node4 -->
<g id="node4" class="node">
<title>Node4</title>
<g id="a_node4"><a xlink:title=" ">
<polygon fill="white" stroke="#bfbfbf" points="117.35,-0.5 117.35,-19.5 217.35,-19.5 217.35,-0.5 117.35,-0.5"/>
<text text-anchor="middle" x="167.35" y="-7.5" font-family="Helvetica,sans-Serif" font-size="10.00">SDL2/SDL_mixer.h</text>
</a>
</g>
</g>
<!-- Node3&#45;&gt;Node4 -->
<g id="edge3" class="edge">
<title>Node3&#45;&gt;Node4</title>
<path fill="none" stroke="midnightblue" d="M179.87,-56.08C177.86,-48.85 174.96,-38.41 172.46,-29.4"/>
<polygon fill="midnightblue" stroke="midnightblue" points="175.82,-28.45 169.78,-19.75 169.08,-30.32 175.82,-28.45"/>
</g>
<!-- Node5&#45;&gt;Node2 -->
<g id="edge7" class="edge">
<title>Node5&#45;&gt;Node2</title>
<path fill="none" stroke="midnightblue" d="M63.35,-56.08C63.35,-49.01 63.35,-38.86 63.35,-29.99"/>
<polygon fill="midnightblue" stroke="midnightblue" points="66.85,-29.75 63.35,-19.75 59.85,-29.75 66.85,-29.75"/>
</g>
<!-- Node5&#45;&gt;Node4 -->
<g id="edge6" class="edge">
<title>Node5&#45;&gt;Node4</title>
<path fill="none" stroke="midnightblue" d="M80.05,-56.32C96.66,-47.7 122.35,-34.36 141.57,-24.39"/>
<polygon fill="midnightblue" stroke="midnightblue" points="143.42,-27.37 150.68,-19.65 140.19,-21.16 143.42,-27.37"/>
</g>
</g>
</svg>
