<?xml version="1.0" encoding="UTF-8" standalone="no"?>
<!DOCTYPE svg PUBLIC "-//W3C//DTD SVG 1.1//EN"
 "http://www.w3.org/Graphics/SVG/1.1/DTD/svg11.dtd">
<!-- Generated by graphviz version 2.46.1 (20210215.1649)
 -->
<!-- Title: src/services/audio/AudioService.cpp Pages: 1 -->
<svg width="1650pt" height="319pt"
 viewBox="0.00 0.00 1649.50 319.00" xmlns="http://www.w3.org/2000/svg" xmlns:xlink="http://www.w3.org/1999/xlink">
<g id="graph0" class="graph" transform="scale(1 1) rotate(0) translate(4 315)">
<title>src/services/audio/AudioService.cpp</title>
<polygon fill="white" stroke="transparent" points="-4,4 -4,-315 1645.5,-315 1645.5,4 -4,4"/>
<!-- Node1 -->
<g id="node1" class="node">
<title>Node1</title>
<g id="a_node1"><a xlink:title="Implementation of AudioService.">
<polygon fill="#bfbfbf" stroke="black" points="544.5,-280.5 544.5,-310.5 640.5,-310.5 640.5,-280.5 544.5,-280.5"/>
<text text-anchor="start" x="552.5" y="-298.5" font-family="Helvetica,sans-Serif" font-size="10.00">src/services/audio</text>
<text text-anchor="middle" x="592.5" y="-287.5" font-family="Helvetica,sans-Serif" font-size="10.00">/AudioService.cpp</text>
</a>
</g>
</g>
<!-- Node2 -->
<g id="node2" class="node">
<title>Node2</title>
<g id="a_node2"><a xlink:href="AudioService_8h.html" target="_top" xlink:title="Default audio service, can actually play audio.">
<polygon fill="white" stroke="black" points="223.5,-168.5 223.5,-187.5 371.5,-187.5 371.5,-168.5 223.5,-168.5"/>
<text text-anchor="middle" x="297.5" y="-175.5" font-family="Helvetica,sans-Serif" font-size="10.00">services/audio/AudioService.h</text>
</a>
</g>
</g>
<!-- Node1&#45;&gt;Node2 -->
<g id="edge1" class="edge">
<title>Node1&#45;&gt;Node2</title>
<path fill="none" stroke="midnightblue" d="M556.62,-280.45C498.37,-257.64 384.17,-212.93 328.92,-191.3"/>
<polygon fill="midnightblue" stroke="midnightblue" points="329.91,-187.93 319.32,-187.54 327.35,-194.45 329.91,-187.93"/>
</g>
<!-- Node7 -->
<g id="node7" class="node">
<title>Node7</title>
<g id="a_node7"><a xlink:href="Services_8h.html" target="_top" xlink:title="Implementation of core Services class.">
<polygon fill="white" stroke="black" points="768.5,-224.5 768.5,-243.5 870.5,-243.5 870.5,-224.5 768.5,-224.5"/>
<text text-anchor="middle" x="819.5" y="-231.5" font-family="Helvetica,sans-Serif" font-size="10.00">services/Services.h</text>
</a>
</g>
</g>
<!-- Node1&#45;&gt;Node7 -->
<g id="edge9" class="edge">
<title>Node1&#45;&gt;Node7</title>
<path fill="none" stroke="midnightblue" d="M640.64,-281.88C681.02,-271.3 738.14,-256.32 776.89,-246.17"/>
<polygon fill="midnightblue" stroke="midnightblue" points="778.02,-249.49 786.81,-243.57 776.25,-242.72 778.02,-249.49"/>
</g>
<!-- Node3 -->
<g id="node3" class="node">
<title>Node3</title>
<g id="a_node3"><a xlink:title=" ">
<polygon fill="white" stroke="#bfbfbf" points="659,-56.5 659,-75.5 700,-75.5 700,-56.5 659,-56.5"/>
<text text-anchor="middle" x="679.5" y="-63.5" font-family="Helvetica,sans-Serif" font-size="10.00">string</text>
</a>
</g>
</g>
<!-- Node2&#45;&gt;Node3 -->
<g id="edge2" class="edge">
<title>Node2&#45;&gt;Node3</title>
<path fill="none" stroke="midnightblue" d="M305.22,-168.09C318.29,-153.65 346.31,-125.41 376.5,-112 469.42,-70.73 592.54,-66 648.93,-66.26"/>
<polygon fill="midnightblue" stroke="midnightblue" points="648.94,-69.76 658.98,-66.36 649.01,-62.76 648.94,-69.76"/>
</g>
<!-- Node4 -->
<g id="node4" class="node">
<title>Node4</title>
<g id="a_node4"><a xlink:href="Sound_8h.html" target="_top" xlink:title="Implementation of Sound.">
<polygon fill="white" stroke="black" points="0,-112.5 0,-131.5 99,-131.5 99,-112.5 0,-112.5"/>
<text text-anchor="middle" x="49.5" y="-119.5" font-family="Helvetica,sans-Serif" font-size="10.00">../../assets/Sound.h</text>
</a>
</g>
</g>
<!-- Node2&#45;&gt;Node4 -->
<g id="edge3" class="edge">
<title>Node2&#45;&gt;Node4</title>
<path fill="none" stroke="midnightblue" d="M258.2,-168.44C214.94,-159.02 145.33,-143.87 98.53,-133.68"/>
<polygon fill="midnightblue" stroke="midnightblue" points="99.13,-130.22 88.61,-131.52 97.64,-137.06 99.13,-130.22"/>
</g>
<!-- Node6 -->
<g id="node6" class="node">
<title>Node6</title>
<g id="a_node6"><a xlink:href="Stream_8h.html" target="_top" xlink:title="Wrapper for sdl stream including ability to store stream pointer. Use for single instance sounds like...">
<polygon fill="white" stroke="black" points="117,-112.5 117,-131.5 220,-131.5 220,-112.5 117,-112.5"/>
<text text-anchor="middle" x="168.5" y="-119.5" font-family="Helvetica,sans-Serif" font-size="10.00">../../assets/Stream.h</text>
</a>
</g>
</g>
<!-- Node2&#45;&gt;Node6 -->
<g id="edge6" class="edge">
<title>Node2&#45;&gt;Node6</title>
<path fill="none" stroke="midnightblue" d="M277.06,-168.44C255.83,-159.56 222.4,-145.56 198.25,-135.45"/>
<polygon fill="midnightblue" stroke="midnightblue" points="199.42,-132.15 188.84,-131.52 196.72,-138.61 199.42,-132.15"/>
</g>
<!-- Node4&#45;&gt;Node3 -->
<g id="edge5" class="edge">
<title>Node4&#45;&gt;Node3</title>
<path fill="none" stroke="midnightblue" d="M99.14,-113.05C101.97,-112.67 104.77,-112.32 107.5,-112 313.63,-87.93 563.1,-73.23 648.84,-68.6"/>
<polygon fill="midnightblue" stroke="midnightblue" points="649.13,-72.09 658.93,-68.06 648.75,-65.1 649.13,-72.09"/>
</g>
<!-- Node5 -->
<g id="node5" class="node">
<title>Node5</title>
<g id="a_node5"><a xlink:title=" ">
<polygon fill="white" stroke="#bfbfbf" points="59.5,-56.5 59.5,-75.5 159.5,-75.5 159.5,-56.5 59.5,-56.5"/>
<text text-anchor="middle" x="109.5" y="-63.5" font-family="Helvetica,sans-Serif" font-size="10.00">SDL2/SDL_mixer.h</text>
</a>
</g>
</g>
<!-- Node4&#45;&gt;Node5 -->
<g id="edge4" class="edge">
<title>Node4&#45;&gt;Node5</title>
<path fill="none" stroke="midnightblue" d="M59.14,-112.32C68.01,-104.34 81.37,-92.31 92.11,-82.65"/>
<polygon fill="midnightblue" stroke="midnightblue" points="94.59,-85.13 99.68,-75.83 89.91,-79.92 94.59,-85.13"/>
</g>
<!-- Node6&#45;&gt;Node3 -->
<g id="edge8" class="edge">
<title>Node6&#45;&gt;Node3</title>
<path fill="none" stroke="midnightblue" d="M220.19,-113.08C223,-112.7 225.78,-112.34 228.5,-112 385.95,-92.35 575.18,-75.74 648.44,-69.57"/>
<polygon fill="midnightblue" stroke="midnightblue" points="649.11,-73.02 658.78,-68.7 648.52,-66.05 649.11,-73.02"/>
</g>
<!-- Node6&#45;&gt;Node5 -->
<g id="edge7" class="edge">
<title>Node6&#45;&gt;Node5</title>
<path fill="none" stroke="midnightblue" d="M159.02,-112.32C150.3,-104.34 137.16,-92.31 126.6,-82.65"/>
<polygon fill="midnightblue" stroke="midnightblue" points="128.89,-80 119.15,-75.83 124.17,-85.17 128.89,-80"/>
</g>
<!-- Node7&#45;&gt;Node2 -->
<g id="edge25" class="edge">
<title>Node7&#45;&gt;Node2</title>
<path fill="none" stroke="midnightblue" d="M768.46,-227.87C688.44,-219.8 528.29,-203.56 381.79,-188.13"/>
<polygon fill="midnightblue" stroke="midnightblue" points="382.02,-184.64 371.71,-187.07 381.29,-191.6 382.02,-184.64"/>
</g>
<!-- Node8 -->
<g id="node8" class="node">
<title>Node8</title>
<g id="a_node8"><a xlink:title=" ">
<polygon fill="white" stroke="#bfbfbf" points="1358,-168.5 1358,-187.5 1409,-187.5 1409,-168.5 1358,-168.5"/>
<text text-anchor="middle" x="1383.5" y="-175.5" font-family="Helvetica,sans-Serif" font-size="10.00">memory</text>
</a>
</g>
</g>
<!-- Node7&#45;&gt;Node8 -->
<g id="edge10" class="edge">
<title>Node7&#45;&gt;Node8</title>
<path fill="none" stroke="midnightblue" d="M870.67,-231.61C963.96,-228.44 1167.94,-218.55 1348.07,-187.97"/>
<polygon fill="midnightblue" stroke="midnightblue" points="1348.73,-191.41 1357.99,-186.26 1347.54,-184.51 1348.73,-191.41"/>
</g>
<!-- Node9 -->
<g id="node9" class="node">
<title>Node9</title>
<g id="a_node9"><a xlink:href="AssetService_8h.html" target="_top" xlink:title="Implementation of AssetService.">
<polygon fill="white" stroke="black" points="390,-168.5 390,-187.5 505,-187.5 505,-168.5 390,-168.5"/>
<text text-anchor="middle" x="447.5" y="-175.5" font-family="Helvetica,sans-Serif" font-size="10.00">assets/AssetService.h</text>
</a>
</g>
</g>
<!-- Node7&#45;&gt;Node9 -->
<g id="edge11" class="edge">
<title>Node7&#45;&gt;Node9</title>
<path fill="none" stroke="midnightblue" d="M768.17,-225.55C702.3,-215.99 587.88,-199.38 515.01,-188.8"/>
<polygon fill="midnightblue" stroke="midnightblue" points="515.42,-185.32 505.02,-187.35 514.41,-192.25 515.42,-185.32"/>
</g>
<!-- Node17 -->
<g id="node17" class="node">
<title>Node17</title>
<g id="a_node17"><a xlink:href="ConfigService_8h.html" target="_top" xlink:title="Header for default Config Service.">
<polygon fill="white" stroke="black" points="534,-168.5 534,-187.5 647,-187.5 647,-168.5 534,-168.5"/>
<text text-anchor="middle" x="590.5" y="-175.5" font-family="Helvetica,sans-Serif" font-size="10.00">config/ConfigService.h</text>
</a>
</g>
</g>
<!-- Node7&#45;&gt;Node17 -->
<g id="edge26" class="edge">
<title>Node7&#45;&gt;Node17</title>
<path fill="none" stroke="midnightblue" d="M783.21,-224.44C743.52,-215.08 679.79,-200.06 636.59,-189.87"/>
<polygon fill="midnightblue" stroke="midnightblue" points="637.15,-186.41 626.62,-187.52 635.55,-193.22 637.15,-186.41"/>
</g>
<!-- Node19 -->
<g id="node19" class="node">
<title>Node19</title>
<g id="a_node19"><a xlink:href="DisplayService_8h.html" target="_top" xlink:title="Service that encapsulates SDL display related functionality.">
<polygon fill="white" stroke="black" points="836.5,-168.5 836.5,-187.5 958.5,-187.5 958.5,-168.5 836.5,-168.5"/>
<text text-anchor="middle" x="897.5" y="-175.5" font-family="Helvetica,sans-Serif" font-size="10.00">display/DisplayService.h</text>
</a>
</g>
</g>
<!-- Node7&#45;&gt;Node19 -->
<g id="edge30" class="edge">
<title>Node7&#45;&gt;Node19</title>
<path fill="none" stroke="midnightblue" d="M832.03,-224.32C844.09,-215.98 862.53,-203.21 876.77,-193.35"/>
<polygon fill="midnightblue" stroke="midnightblue" points="878.77,-196.22 885,-187.65 874.78,-190.47 878.77,-196.22"/>
</g>
<!-- Node22 -->
<g id="node22" class="node">
<title>Node22</title>
<g id="a_node22"><a xlink:href="EventQueue_8h.html" target="_top" xlink:title="Handles SDL_Events from main SDL_Queue. Can be hooked into by other services and notified when change...">
<polygon fill="white" stroke="black" points="1108.5,-168.5 1108.5,-187.5 1218.5,-187.5 1218.5,-168.5 1108.5,-168.5"/>
<text text-anchor="middle" x="1163.5" y="-175.5" font-family="Helvetica,sans-Serif" font-size="10.00">events/EventQueue.h</text>
</a>
</g>
</g>
<!-- Node7&#45;&gt;Node22 -->
<g id="edge37" class="edge">
<title>Node7&#45;&gt;Node22</title>
<path fill="none" stroke="midnightblue" d="M870.63,-224.97C931.51,-215.42 1033.26,-199.45 1099.36,-189.07"/>
<polygon fill="midnightblue" stroke="midnightblue" points="1099.91,-192.52 1109.25,-187.52 1098.83,-185.61 1099.91,-192.52"/>
</g>
<!-- Node24 -->
<g id="node24" class="node">
<title>Node24</title>
<g id="a_node24"><a xlink:href="InputService_8h.html" target="_top" xlink:title="General Purpose input listener. Handles Mouse, Keyboard, Joystick.">
<polygon fill="white" stroke="black" points="1237,-168.5 1237,-187.5 1340,-187.5 1340,-168.5 1237,-168.5"/>
<text text-anchor="middle" x="1288.5" y="-175.5" font-family="Helvetica,sans-Serif" font-size="10.00">input/InputService.h</text>
</a>
</g>
</g>
<!-- Node7&#45;&gt;Node24 -->
<g id="edge41" class="edge">
<title>Node7&#45;&gt;Node24</title>
<path fill="none" stroke="midnightblue" d="M870.78,-227.95C946.28,-220.39 1092.06,-205.27 1226.84,-188.04"/>
<polygon fill="midnightblue" stroke="midnightblue" points="1227.46,-191.49 1236.93,-186.74 1226.57,-184.55 1227.46,-191.49"/>
</g>
<!-- Node32 -->
<g id="node32" class="node">
<title>Node32</title>
<g id="a_node32"><a xlink:href="DebugLoggingService_8h.html" target="_top" xlink:title="Logging service that does the logging. Used for development.">
<polygon fill="white" stroke="black" points="665,-168.5 665,-187.5 818,-187.5 818,-168.5 665,-168.5"/>
<text text-anchor="middle" x="741.5" y="-175.5" font-family="Helvetica,sans-Serif" font-size="10.00">logging/DebugLoggingService.h</text>
</a>
</g>
</g>
<!-- Node7&#45;&gt;Node32 -->
<g id="edge54" class="edge">
<title>Node7&#45;&gt;Node32</title>
<path fill="none" stroke="midnightblue" d="M806.97,-224.32C794.91,-215.98 776.47,-203.21 762.23,-193.35"/>
<polygon fill="midnightblue" stroke="midnightblue" points="764.22,-190.47 754,-187.65 760.23,-196.22 764.22,-190.47"/>
</g>
<!-- Node34 -->
<g id="node34" class="node">
<title>Node34</title>
<g id="a_node34"><a xlink:href="SceneService_8h.html" target="_top" xlink:title="Service in charge of managing scenes.">
<polygon fill="white" stroke="black" points="976.5,-168.5 976.5,-187.5 1090.5,-187.5 1090.5,-168.5 976.5,-168.5"/>
<text text-anchor="middle" x="1033.5" y="-175.5" font-family="Helvetica,sans-Serif" font-size="10.00">scene/SceneService.h</text>
</a>
</g>
</g>
<!-- Node7&#45;&gt;Node34 -->
<g id="edge58" class="edge">
<title>Node7&#45;&gt;Node34</title>
<path fill="none" stroke="midnightblue" d="M853.41,-224.44C890.35,-215.12 949.55,-200.18 989.92,-190"/>
<polygon fill="midnightblue" stroke="midnightblue" points="990.91,-193.36 999.75,-187.52 989.2,-186.57 990.91,-193.36"/>
</g>
<!-- Node9&#45;&gt;Node3 -->
<g id="edge13" class="edge">
<title>Node9&#45;&gt;Node3</title>
<path fill="none" stroke="midnightblue" d="M457.2,-168.23C472.85,-154.51 505.08,-127.88 536.5,-112 573.28,-93.42 619.27,-80.61 649,-73.54"/>
<polygon fill="midnightblue" stroke="midnightblue" points="649.84,-76.94 658.8,-71.28 648.27,-70.11 649.84,-76.94"/>
</g>
<!-- Node9&#45;&gt;Node4 -->
<g id="edge19" class="edge">
<title>Node9&#45;&gt;Node4</title>
<path fill="none" stroke="midnightblue" d="M389.76,-169.23C386.63,-168.82 383.52,-168.4 380.5,-168 262.38,-152.28 230.32,-149.52 109.2,-132.22"/>
<polygon fill="midnightblue" stroke="midnightblue" points="109.56,-128.74 99.16,-130.78 108.57,-135.67 109.56,-128.74"/>
</g>
<!-- Node9&#45;&gt;Node6 -->
<g id="edge20" class="edge">
<title>Node9&#45;&gt;Node6</title>
<path fill="none" stroke="midnightblue" d="M403.29,-168.44C354.21,-158.94 274.99,-143.61 222.34,-133.42"/>
<polygon fill="midnightblue" stroke="midnightblue" points="222.98,-129.98 212.5,-131.52 221.65,-136.85 222.98,-129.98"/>
</g>
<!-- Node10 -->
<g id="node10" class="node">
<title>Node10</title>
<g id="a_node10"><a xlink:title=" ">
<polygon fill="white" stroke="#bfbfbf" points="546,-112.5 546,-131.5 581,-131.5 581,-112.5 546,-112.5"/>
<text text-anchor="middle" x="563.5" y="-119.5" font-family="Helvetica,sans-Serif" font-size="10.00">map</text>
</a>
</g>
</g>
<!-- Node9&#45;&gt;Node10 -->
<g id="edge12" class="edge">
<title>Node9&#45;&gt;Node10</title>
<path fill="none" stroke="midnightblue" d="M465.88,-168.44C484.94,-159.57 514.93,-145.61 536.64,-135.5"/>
<polygon fill="midnightblue" stroke="midnightblue" points="538.38,-138.56 545.96,-131.16 535.42,-132.21 538.38,-138.56"/>
</g>
<!-- Node11 -->
<g id="node11" class="node">
<title>Node11</title>
<g id="a_node11"><a xlink:href="Font_8h.html" target="_top" xlink:title="Easy interface to interact with SDL fonts.">
<polygon fill="white" stroke="black" points="238,-112.5 238,-131.5 329,-131.5 329,-112.5 238,-112.5"/>
<text text-anchor="middle" x="283.5" y="-119.5" font-family="Helvetica,sans-Serif" font-size="10.00">../../assets/Font.h</text>
</a>
</g>
</g>
<!-- Node9&#45;&gt;Node11 -->
<g id="edge14" class="edge">
<title>Node9&#45;&gt;Node11</title>
<path fill="none" stroke="midnightblue" d="M421.51,-168.44C393.8,-159.32 349.75,-144.81 318.88,-134.65"/>
<polygon fill="midnightblue" stroke="midnightblue" points="319.96,-131.32 309.36,-131.52 317.77,-137.97 319.96,-131.32"/>
</g>
<!-- Node15 -->
<g id="node15" class="node">
<title>Node15</title>
<g id="a_node15"><a xlink:href="Texture_8h.html" target="_top" xlink:title="Easy interface to interact with sdl bitmaps.">
<polygon fill="white" stroke="black" points="385.5,-112.5 385.5,-131.5 489.5,-131.5 489.5,-112.5 385.5,-112.5"/>
<text text-anchor="middle" x="437.5" y="-119.5" font-family="Helvetica,sans-Serif" font-size="10.00">../../assets/Texture.h</text>
</a>
</g>
</g>
<!-- Node9&#45;&gt;Node15 -->
<g id="edge21" class="edge">
<title>Node9&#45;&gt;Node15</title>
<path fill="none" stroke="midnightblue" d="M445.85,-168.08C444.52,-160.93 442.62,-150.64 440.96,-141.69"/>
<polygon fill="midnightblue" stroke="midnightblue" points="444.38,-140.95 439.12,-131.75 437.5,-142.22 444.38,-140.95"/>
</g>
<!-- Node11&#45;&gt;Node3 -->
<g id="edge16" class="edge">
<title>Node11&#45;&gt;Node3</title>
<path fill="none" stroke="midnightblue" d="M329.03,-114.09C333.91,-113.38 338.81,-112.67 343.5,-112 455.68,-96.08 589.16,-78.65 648.46,-70.99"/>
<polygon fill="midnightblue" stroke="midnightblue" points="649.17,-74.43 658.64,-69.68 648.28,-67.49 649.17,-74.43"/>
</g>
<!-- Node12 -->
<g id="node12" class="node">
<title>Node12</title>
<g id="a_node12"><a xlink:title=" ">
<polygon fill="white" stroke="#bfbfbf" points="240.5,-56.5 240.5,-75.5 326.5,-75.5 326.5,-56.5 240.5,-56.5"/>
<text text-anchor="middle" x="283.5" y="-63.5" font-family="Helvetica,sans-Serif" font-size="10.00">SDL2/SDL_ttf.h</text>
</a>
</g>
</g>
<!-- Node11&#45;&gt;Node12 -->
<g id="edge15" class="edge">
<title>Node11&#45;&gt;Node12</title>
<path fill="none" stroke="midnightblue" d="M283.5,-112.08C283.5,-105.01 283.5,-94.86 283.5,-85.99"/>
<polygon fill="midnightblue" stroke="midnightblue" points="287,-85.75 283.5,-75.75 280,-85.75 287,-85.75"/>
</g>
<!-- Node13 -->
<g id="node13" class="node">
<title>Node13</title>
<g id="a_node13"><a xlink:href="Color_8h.html" target="_top" xlink:title="Helpers for creating colors without accessing SDL api directly.">
<polygon fill="white" stroke="black" points="398.5,-56.5 398.5,-75.5 476.5,-75.5 476.5,-56.5 398.5,-56.5"/>
<text text-anchor="middle" x="437.5" y="-63.5" font-family="Helvetica,sans-Serif" font-size="10.00">../color/Color.h</text>
</a>
</g>
</g>
<!-- Node11&#45;&gt;Node13 -->
<g id="edge17" class="edge">
<title>Node11&#45;&gt;Node13</title>
<path fill="none" stroke="midnightblue" d="M307.9,-112.44C333.7,-103.4 374.58,-89.06 403.52,-78.92"/>
<polygon fill="midnightblue" stroke="midnightblue" points="404.93,-82.13 413.21,-75.52 402.62,-75.52 404.93,-82.13"/>
</g>
<!-- Node14 -->
<g id="node14" class="node">
<title>Node14</title>
<g id="a_node14"><a xlink:title=" ">
<polygon fill="white" stroke="#bfbfbf" points="368.5,-0.5 368.5,-19.5 506.5,-19.5 506.5,-0.5 368.5,-0.5"/>
<text text-anchor="middle" x="437.5" y="-7.5" font-family="Helvetica,sans-Serif" font-size="10.00">SDL2/SDL2_gfxPrimitives.h</text>
</a>
</g>
</g>
<!-- Node13&#45;&gt;Node14 -->
<g id="edge18" class="edge">
<title>Node13&#45;&gt;Node14</title>
<path fill="none" stroke="midnightblue" d="M437.5,-56.08C437.5,-49.01 437.5,-38.86 437.5,-29.99"/>
<polygon fill="midnightblue" stroke="midnightblue" points="441,-29.75 437.5,-19.75 434,-29.75 441,-29.75"/>
</g>
<!-- Node15&#45;&gt;Node3 -->
<g id="edge23" class="edge">
<title>Node15&#45;&gt;Node3</title>
<path fill="none" stroke="midnightblue" d="M475.85,-112.44C523.84,-101.73 605.08,-83.61 649.04,-73.8"/>
<polygon fill="midnightblue" stroke="midnightblue" points="649.87,-77.2 658.86,-71.6 648.34,-70.37 649.87,-77.2"/>
</g>
<!-- Node15&#45;&gt;Node13 -->
<g id="edge24" class="edge">
<title>Node15&#45;&gt;Node13</title>
<path fill="none" stroke="midnightblue" d="M437.5,-112.08C437.5,-105.01 437.5,-94.86 437.5,-85.99"/>
<polygon fill="midnightblue" stroke="midnightblue" points="441,-85.75 437.5,-75.75 434,-85.75 441,-85.75"/>
</g>
<!-- Node16 -->
<g id="node16" class="node">
<title>Node16</title>
<g id="a_node16"><a xlink:title=" ">
<polygon fill="white" stroke="#bfbfbf" points="906,-56.5 906,-75.5 977,-75.5 977,-56.5 906,-56.5"/>
<text text-anchor="middle" x="941.5" y="-63.5" font-family="Helvetica,sans-Serif" font-size="10.00">SDL2/SDL.h</text>
</a>
</g>
</g>
<!-- Node15&#45;&gt;Node16 -->
<g id="edge22" class="edge">
<title>Node15&#45;&gt;Node16</title>
<path fill="none" stroke="midnightblue" d="M489.54,-115.42C588.45,-104.83 802.05,-81.94 895.81,-71.9"/>
<polygon fill="midnightblue" stroke="midnightblue" points="896.26,-75.37 905.83,-70.82 895.52,-68.41 896.26,-75.37"/>
</g>
<!-- Node17&#45;&gt;Node3 -->
<g id="edge29" class="edge">
<title>Node17&#45;&gt;Node3</title>
<path fill="none" stroke="midnightblue" d="M611.49,-168.42C627.17,-160.99 647.96,-148.78 660.5,-132 670.51,-118.61 675.26,-100.04 677.51,-86.18"/>
<polygon fill="midnightblue" stroke="midnightblue" points="681.03,-86.23 678.87,-75.86 674.09,-85.32 681.03,-86.23"/>
</g>
<!-- Node17&#45;&gt;Node10 -->
<g id="edge27" class="edge">
<title>Node17&#45;&gt;Node10</title>
<path fill="none" stroke="midnightblue" d="M586.04,-168.08C582.35,-160.69 576.98,-149.95 572.41,-140.81"/>
<polygon fill="midnightblue" stroke="midnightblue" points="575.48,-139.13 567.88,-131.75 569.22,-142.26 575.48,-139.13"/>
</g>
<!-- Node18 -->
<g id="node18" class="node">
<title>Node18</title>
<g id="a_node18"><a xlink:title=" ">
<polygon fill="white" stroke="#bfbfbf" points="599.5,-112.5 599.5,-131.5 651.5,-131.5 651.5,-112.5 599.5,-112.5"/>
<text text-anchor="middle" x="625.5" y="-119.5" font-family="Helvetica,sans-Serif" font-size="10.00">sstream</text>
</a>
</g>
</g>
<!-- Node17&#45;&gt;Node18 -->
<g id="edge28" class="edge">
<title>Node17&#45;&gt;Node18</title>
<path fill="none" stroke="midnightblue" d="M596.28,-168.08C601.17,-160.53 608.33,-149.49 614.33,-140.23"/>
<polygon fill="midnightblue" stroke="midnightblue" points="617.33,-142.05 619.83,-131.75 611.45,-138.24 617.33,-142.05"/>
</g>
<!-- Node19&#45;&gt;Node3 -->
<g id="edge32" class="edge">
<title>Node19&#45;&gt;Node3</title>
<path fill="none" stroke="midnightblue" d="M895.31,-168.35C891.28,-154.3 881.35,-126.6 862.5,-112 817.6,-77.23 749.45,-68.92 710.23,-67.18"/>
<polygon fill="midnightblue" stroke="midnightblue" points="710.32,-63.68 700.21,-66.85 710.09,-70.67 710.32,-63.68"/>
</g>
<!-- Node19&#45;&gt;Node13 -->
<g id="edge33" class="edge">
<title>Node19&#45;&gt;Node13</title>
<path fill="none" stroke="midnightblue" d="M866.53,-168.38C807,-151.83 680.68,-116.8 660.5,-112 601.02,-97.86 531.94,-84.37 486.61,-75.91"/>
<polygon fill="midnightblue" stroke="midnightblue" points="487.22,-72.46 476.75,-74.08 485.95,-79.34 487.22,-72.46"/>
</g>
<!-- Node19&#45;&gt;Node16 -->
<g id="edge31" class="edge">
<title>Node19&#45;&gt;Node16</title>
<path fill="none" stroke="midnightblue" d="M901.5,-168.44C905.66,-159.44 912.29,-144.83 917.5,-132 923.8,-116.5 930.34,-98.66 934.99,-85.6"/>
<polygon fill="midnightblue" stroke="midnightblue" points="938.39,-86.5 938.42,-75.9 931.79,-84.16 938.39,-86.5"/>
</g>
<!-- Node20 -->
<g id="node20" class="node">
<title>Node20</title>
<g id="a_node20"><a xlink:href="Service_8h.html" target="_top" xlink:title="Service subscriber that can listen for events.">
<polygon fill="white" stroke="black" points="1070,-112.5 1070,-131.5 1135,-131.5 1135,-112.5 1070,-112.5"/>
<text text-anchor="middle" x="1102.5" y="-119.5" font-family="Helvetica,sans-Serif" font-size="10.00">../Service.h</text>
</a>
</g>
</g>
<!-- Node19&#45;&gt;Node20 -->
<g id="edge34" class="edge">
<title>Node19&#45;&gt;Node20</title>
<path fill="none" stroke="midnightblue" d="M929.98,-168.44C965.22,-159.16 1021.6,-144.31 1060.26,-134.13"/>
<polygon fill="midnightblue" stroke="midnightblue" points="1061.39,-137.45 1070.17,-131.52 1059.61,-130.68 1061.39,-137.45"/>
</g>
<!-- Node20&#45;&gt;Node3 -->
<g id="edge36" class="edge">
<title>Node20&#45;&gt;Node3</title>
<path fill="none" stroke="midnightblue" d="M1070,-113.72C1066.8,-113.1 1063.59,-112.51 1060.5,-112 931.03,-90.53 775.16,-75.45 710.23,-69.65"/>
<polygon fill="midnightblue" stroke="midnightblue" points="710.52,-66.16 700.25,-68.76 709.9,-73.13 710.52,-66.16"/>
</g>
<!-- Node21 -->
<g id="node21" class="node">
<title>Node21</title>
<g id="a_node21"><a xlink:title=" ">
<polygon fill="white" stroke="#bfbfbf" points="1201.5,-56.5 1201.5,-75.5 1307.5,-75.5 1307.5,-56.5 1201.5,-56.5"/>
<text text-anchor="middle" x="1254.5" y="-63.5" font-family="Helvetica,sans-Serif" font-size="10.00">SDL2/SDL_events.h</text>
</a>
</g>
</g>
<!-- Node20&#45;&gt;Node21 -->
<g id="edge35" class="edge">
<title>Node20&#45;&gt;Node21</title>
<path fill="none" stroke="midnightblue" d="M1126.58,-112.44C1152.04,-103.4 1192.39,-89.06 1220.96,-78.92"/>
<polygon fill="midnightblue" stroke="midnightblue" points="1222.28,-82.16 1230.53,-75.52 1219.93,-75.57 1222.28,-82.16"/>
</g>
<!-- Node22&#45;&gt;Node16 -->
<g id="edge38" class="edge">
<title>Node22&#45;&gt;Node16</title>
<path fill="none" stroke="midnightblue" d="M1163.6,-168.43C1163.26,-154.48 1160.47,-126.94 1144.5,-112 1122.14,-91.07 1040.23,-78.12 987.54,-71.76"/>
<polygon fill="midnightblue" stroke="midnightblue" points="987.76,-68.26 977.42,-70.58 986.95,-75.21 987.76,-68.26"/>
</g>
<!-- Node22&#45;&gt;Node20 -->
<g id="edge40" class="edge">
<title>Node22&#45;&gt;Node20</title>
<path fill="none" stroke="midnightblue" d="M1153.7,-168.32C1144.68,-160.34 1131.09,-148.31 1120.18,-138.65"/>
<polygon fill="midnightblue" stroke="midnightblue" points="1122.29,-135.84 1112.48,-131.83 1117.65,-141.08 1122.29,-135.84"/>
</g>
<!-- Node23 -->
<g id="node23" class="node">
<title>Node23</title>
<g id="a_node23"><a xlink:title=" ">
<polygon fill="white" stroke="#bfbfbf" points="1007.5,-112.5 1007.5,-131.5 1051.5,-131.5 1051.5,-112.5 1007.5,-112.5"/>
<text text-anchor="middle" x="1029.5" y="-119.5" font-family="Helvetica,sans-Serif" font-size="10.00">vector</text>
</a>
</g>
</g>
<!-- Node22&#45;&gt;Node23 -->
<g id="edge39" class="edge">
<title>Node22&#45;&gt;Node23</title>
<path fill="none" stroke="midnightblue" d="M1142.27,-168.44C1120.12,-159.52 1085.18,-145.44 1060.06,-135.32"/>
<polygon fill="midnightblue" stroke="midnightblue" points="1061.22,-132.01 1050.63,-131.52 1058.6,-138.5 1061.22,-132.01"/>
</g>
<!-- Node24&#45;&gt;Node3 -->
<g id="edge44" class="edge">
<title>Node24&#45;&gt;Node3</title>
<path fill="none" stroke="midnightblue" d="M1273.96,-168.49C1248.63,-154.1 1194.33,-125.27 1144.5,-112 1061.94,-90.02 800.32,-73.74 710.29,-68.66"/>
<polygon fill="midnightblue" stroke="midnightblue" points="710.36,-65.16 700.18,-68.1 709.97,-72.15 710.36,-65.16"/>
</g>
<!-- Node24&#45;&gt;Node20 -->
<g id="edge45" class="edge">
<title>Node24&#45;&gt;Node20</title>
<path fill="none" stroke="midnightblue" d="M1259.03,-168.44C1227.33,-159.24 1176.77,-144.56 1141.73,-134.39"/>
<polygon fill="midnightblue" stroke="midnightblue" points="1142.41,-130.94 1131.83,-131.52 1140.46,-137.67 1142.41,-130.94"/>
</g>
<!-- Node24&#45;&gt;Node21 -->
<g id="edge42" class="edge">
<title>Node24&#45;&gt;Node21</title>
<path fill="none" stroke="midnightblue" d="M1291.2,-168.27C1294.67,-155.48 1299.49,-131.11 1292.5,-112 1288.44,-100.91 1280.31,-90.67 1272.61,-82.76"/>
<polygon fill="midnightblue" stroke="midnightblue" points="1274.86,-80.07 1265.21,-75.7 1270.03,-85.14 1274.86,-80.07"/>
</g>
<!-- Node25 -->
<g id="node25" class="node">
<title>Node25</title>
<g id="a_node25"><a xlink:title=" ">
<polygon fill="white" stroke="#bfbfbf" points="1229.5,-112.5 1229.5,-131.5 1283.5,-131.5 1283.5,-112.5 1229.5,-112.5"/>
<text text-anchor="middle" x="1256.5" y="-119.5" font-family="Helvetica,sans-Serif" font-size="10.00">iostream</text>
</a>
</g>
</g>
<!-- Node24&#45;&gt;Node25 -->
<g id="edge43" class="edge">
<title>Node24&#45;&gt;Node25</title>
<path fill="none" stroke="midnightblue" d="M1283.22,-168.08C1278.79,-160.61 1272.34,-149.72 1266.88,-140.52"/>
<polygon fill="midnightblue" stroke="midnightblue" points="1269.79,-138.57 1261.69,-131.75 1263.77,-142.14 1269.79,-138.57"/>
</g>
<!-- Node26 -->
<g id="node26" class="node">
<title>Node26</title>
<g id="a_node26"><a xlink:href="JoystickState_8h.html" target="_top" xlink:title="Container for storing Joystick state.">
<polygon fill="white" stroke="black" points="1435,-112.5 1435,-131.5 1518,-131.5 1518,-112.5 1435,-112.5"/>
<text text-anchor="middle" x="1476.5" y="-119.5" font-family="Helvetica,sans-Serif" font-size="10.00">JoystickState.h</text>
</a>
</g>
</g>
<!-- Node24&#45;&gt;Node26 -->
<g id="edge46" class="edge">
<title>Node24&#45;&gt;Node26</title>
<path fill="none" stroke="midnightblue" d="M1318.29,-168.44C1350.33,-159.24 1401.43,-144.56 1436.85,-134.39"/>
<polygon fill="midnightblue" stroke="midnightblue" points="1438.21,-137.64 1446.85,-131.52 1436.27,-130.91 1438.21,-137.64"/>
</g>
<!-- Node28 -->
<g id="node28" class="node">
<title>Node28</title>
<g id="a_node28"><a xlink:href="KeyboardState_8h.html" target="_top" xlink:title="Container for storing Keyboard state.">
<polygon fill="white" stroke="black" points="1545.5,-112.5 1545.5,-131.5 1633.5,-131.5 1633.5,-112.5 1545.5,-112.5"/>
<text text-anchor="middle" x="1589.5" y="-119.5" font-family="Helvetica,sans-Serif" font-size="10.00">KeyboardState.h</text>
</a>
</g>
</g>
<!-- Node24&#45;&gt;Node28 -->
<g id="edge49" class="edge">
<title>Node24&#45;&gt;Node28</title>
<path fill="none" stroke="midnightblue" d="M1336.19,-168.44C1390.46,-158.71 1478.88,-142.85 1535.6,-132.67"/>
<polygon fill="midnightblue" stroke="midnightblue" points="1536.23,-136.11 1545.46,-130.9 1535,-129.22 1536.23,-136.11"/>
</g>
<!-- Node30 -->
<g id="node30" class="node">
<title>Node30</title>
<g id="a_node30"><a xlink:href="MouseState_8h.html" target="_top" xlink:title="Container for storing Mouse state.">
<polygon fill="white" stroke="black" points="1340,-112.5 1340,-131.5 1417,-131.5 1417,-112.5 1340,-112.5"/>
<text text-anchor="middle" x="1378.5" y="-119.5" font-family="Helvetica,sans-Serif" font-size="10.00">MouseState.h</text>
</a>
</g>
</g>
<!-- Node24&#45;&gt;Node30 -->
<g id="edge51" class="edge">
<title>Node24&#45;&gt;Node30</title>
<path fill="none" stroke="midnightblue" d="M1302.96,-168.32C1317,-159.9 1338.55,-146.97 1355.04,-137.07"/>
<polygon fill="midnightblue" stroke="midnightblue" points="1357.3,-139.8 1364.08,-131.65 1353.7,-133.8 1357.3,-139.8"/>
</g>
<!-- Node26&#45;&gt;Node21 -->
<g id="edge47" class="edge">
<title>Node26&#45;&gt;Node21</title>
<path fill="none" stroke="midnightblue" d="M1441.32,-112.44C1402.92,-103.1 1341.32,-88.12 1299.44,-77.93"/>
<polygon fill="midnightblue" stroke="midnightblue" points="1300.06,-74.48 1289.51,-75.52 1298.4,-81.28 1300.06,-74.48"/>
</g>
<!-- Node27 -->
<g id="node27" class="node">
<title>Node27</title>
<g id="a_node27"><a xlink:href="JoystickCodes_8h.html" target="_top" xlink:title="Defines for codes used for joystick.">
<polygon fill="white" stroke="black" points="1449.5,-56.5 1449.5,-75.5 1537.5,-75.5 1537.5,-56.5 1449.5,-56.5"/>
<text text-anchor="middle" x="1493.5" y="-63.5" font-family="Helvetica,sans-Serif" font-size="10.00">JoystickCodes.h</text>
</a>
</g>
</g>
<!-- Node26&#45;&gt;Node27 -->
<g id="edge48" class="edge">
<title>Node26&#45;&gt;Node27</title>
<path fill="none" stroke="midnightblue" d="M1479.31,-112.08C1481.58,-104.85 1484.87,-94.41 1487.71,-85.4"/>
<polygon fill="midnightblue" stroke="midnightblue" points="1491.08,-86.34 1490.75,-75.75 1484.4,-84.24 1491.08,-86.34"/>
</g>
<!-- Node29 -->
<g id="node29" class="node">
<title>Node29</title>
<g id="a_node29"><a xlink:href="KeyboardKeys_8h.html" target="_top" xlink:title="Defenitions of keys that can be used by input manager.">
<polygon fill="white" stroke="black" points="1555.5,-56.5 1555.5,-75.5 1641.5,-75.5 1641.5,-56.5 1555.5,-56.5"/>
<text text-anchor="middle" x="1598.5" y="-63.5" font-family="Helvetica,sans-Serif" font-size="10.00">KeyboardKeys.h</text>
</a>
</g>
</g>
<!-- Node28&#45;&gt;Node29 -->
<g id="edge50" class="edge">
<title>Node28&#45;&gt;Node29</title>
<path fill="none" stroke="midnightblue" d="M1590.99,-112.08C1592.18,-104.93 1593.89,-94.64 1595.38,-85.69"/>
<polygon fill="midnightblue" stroke="midnightblue" points="1598.85,-86.19 1597.04,-75.75 1591.95,-85.04 1598.85,-86.19"/>
</g>
<!-- Node30&#45;&gt;Node21 -->
<g id="edge52" class="edge">
<title>Node30&#45;&gt;Node21</title>
<path fill="none" stroke="midnightblue" d="M1358.85,-112.44C1338.54,-103.6 1306.6,-89.69 1283.4,-79.59"/>
<polygon fill="midnightblue" stroke="midnightblue" points="1284.62,-76.3 1274.06,-75.52 1281.83,-82.72 1284.62,-76.3"/>
</g>
<!-- Node31 -->
<g id="node31" class="node">
<title>Node31</title>
<g id="a_node31"><a xlink:title=" ">
<polygon fill="white" stroke="#bfbfbf" points="1325.5,-56.5 1325.5,-75.5 1431.5,-75.5 1431.5,-56.5 1325.5,-56.5"/>
<text text-anchor="middle" x="1378.5" y="-63.5" font-family="Helvetica,sans-Serif" font-size="10.00">SDL2/SDL_mouse.h</text>
</a>
</g>
</g>
<!-- Node30&#45;&gt;Node31 -->
<g id="edge53" class="edge">
<title>Node30&#45;&gt;Node31</title>
<path fill="none" stroke="midnightblue" d="M1378.5,-112.08C1378.5,-105.01 1378.5,-94.86 1378.5,-85.99"/>
<polygon fill="midnightblue" stroke="midnightblue" points="1382,-85.75 1378.5,-75.75 1375,-85.75 1382,-85.75"/>
</g>
<!-- Node32&#45;&gt;Node3 -->
<g id="edge55" class="edge">
<title>Node32&#45;&gt;Node3</title>
<path fill="none" stroke="midnightblue" d="M781.42,-168.48C819.37,-158.51 867.75,-139.74 846.5,-112 830.01,-90.48 753.67,-76.92 710.13,-70.81"/>
<polygon fill="midnightblue" stroke="midnightblue" points="710.46,-67.32 700.08,-69.45 709.52,-74.26 710.46,-67.32"/>
</g>
<!-- Node33 -->
<g id="node33" class="node">
<title>Node33</title>
<g id="a_node33"><a xlink:href="LoggingService_8h.html" target="_top" xlink:title="Default logging service. Does nothing. Use in production.">
<polygon fill="white" stroke="black" points="745.5,-112.5 745.5,-131.5 837.5,-131.5 837.5,-112.5 745.5,-112.5"/>
<text text-anchor="middle" x="791.5" y="-119.5" font-family="Helvetica,sans-Serif" font-size="10.00">LoggingService.h</text>
</a>
</g>
</g>
<!-- Node32&#45;&gt;Node33 -->
<g id="edge56" class="edge">
<title>Node32&#45;&gt;Node33</title>
<path fill="none" stroke="midnightblue" d="M749.76,-168.08C756.96,-160.3 767.61,-148.8 776.35,-139.37"/>
<polygon fill="midnightblue" stroke="midnightblue" points="779.17,-141.47 783.4,-131.75 774.03,-136.71 779.17,-141.47"/>
</g>
<!-- Node33&#45;&gt;Node3 -->
<g id="edge57" class="edge">
<title>Node33&#45;&gt;Node3</title>
<path fill="none" stroke="midnightblue" d="M773.51,-112.32C755.46,-103.62 727.45,-90.12 706.7,-80.11"/>
<polygon fill="midnightblue" stroke="midnightblue" points="707.98,-76.84 697.45,-75.65 704.94,-83.15 707.98,-76.84"/>
</g>
<!-- Node34&#45;&gt;Node3 -->
<g id="edge59" class="edge">
<title>Node34&#45;&gt;Node3</title>
<path fill="none" stroke="midnightblue" d="M1016.93,-168.49C989.86,-154.88 934.16,-128.11 884.5,-112 824.05,-92.39 750.81,-78.61 710.27,-71.82"/>
<polygon fill="midnightblue" stroke="midnightblue" points="710.66,-68.34 700.22,-70.17 709.52,-75.25 710.66,-68.34"/>
</g>
<!-- Node34&#45;&gt;Node20 -->
<g id="edge61" class="edge">
<title>Node34&#45;&gt;Node20</title>
<path fill="none" stroke="midnightblue" d="M1044.59,-168.32C1054.99,-160.18 1070.76,-147.84 1083.22,-138.09"/>
<polygon fill="midnightblue" stroke="midnightblue" points="1085.49,-140.75 1091.21,-131.83 1081.18,-135.24 1085.49,-140.75"/>
</g>
<!-- Node34&#45;&gt;Node23 -->
<g id="edge60" class="edge">
<title>Node34&#45;&gt;Node23</title>
<path fill="none" stroke="midnightblue" d="M1032.84,-168.08C1032.32,-161.01 1031.56,-150.86 1030.91,-141.99"/>
<polygon fill="midnightblue" stroke="midnightblue" points="1034.38,-141.47 1030.15,-131.75 1027.4,-141.98 1034.38,-141.47"/>
</g>
</g>
</svg>
