<?xml version="1.0" encoding="UTF-8" standalone="no"?>
<!DOCTYPE svg PUBLIC "-//W3C//DTD SVG 1.1//EN"
 "http://www.w3.org/Graphics/SVG/1.1/DTD/svg11.dtd">
<!-- Generated by graphviz version 2.46.1 (20210215.1649)
 -->
<!-- Title: src/entities/ui/Button.cpp Pages: 1 -->
<svg width="2134pt" height="364pt"
 viewBox="0.00 0.00 2134.00 364.00" xmlns="http://www.w3.org/2000/svg" xmlns:xlink="http://www.w3.org/1999/xlink">
<g id="graph0" class="graph" transform="scale(1 1) rotate(0) translate(4 360)">
<title>src/entities/ui/Button.cpp</title>
<polygon fill="white" stroke="transparent" points="-4,4 -4,-360 2130,-360 2130,4 -4,4"/>
<!-- Node1 -->
<g id="node1" class="node">
<title>Node1</title>
<g id="a_node1"><a xlink:title="Implementation of Button.">
<polygon fill="#bfbfbf" stroke="black" points="1371.5,-336.5 1371.5,-355.5 1496.5,-355.5 1496.5,-336.5 1371.5,-336.5"/>
<text text-anchor="middle" x="1434" y="-343.5" font-family="Helvetica,sans-Serif" font-size="10.00">src/entities/ui/Button.cpp</text>
</a>
</g>
</g>
<!-- Node2 -->
<g id="node2" class="node">
<title>Node2</title>
<g id="a_node2"><a xlink:href="Button_8h.html" target="_top" xlink:title="A ui elemenent that accepts a click callback.">
<polygon fill="white" stroke="black" points="990,-224.5 990,-243.5 1088,-243.5 1088,-224.5 990,-224.5"/>
<text text-anchor="middle" x="1039" y="-231.5" font-family="Helvetica,sans-Serif" font-size="10.00">entities/ui/Button.h</text>
</a>
</g>
</g>
<!-- Node1&#45;&gt;Node2 -->
<g id="edge1" class="edge">
<title>Node1&#45;&gt;Node2</title>
<path fill="none" stroke="midnightblue" d="M1403.33,-336.46C1332.82,-316.82 1159.12,-268.45 1079.75,-246.35"/>
<polygon fill="midnightblue" stroke="midnightblue" points="1080.22,-242.85 1069.65,-243.53 1078.34,-249.59 1080.22,-242.85"/>
</g>
<!-- Node8 -->
<g id="node8" class="node">
<title>Node8</title>
<g id="a_node8"><a xlink:href="Color_8h.html" target="_top" xlink:title="Helpers for creating colors without accessing SDL api directly.">
<polygon fill="white" stroke="black" points="1785,-56.5 1785,-75.5 1863,-75.5 1863,-56.5 1785,-56.5"/>
<text text-anchor="middle" x="1824" y="-63.5" font-family="Helvetica,sans-Serif" font-size="10.00">../color/Color.h</text>
</a>
</g>
</g>
<!-- Node1&#45;&gt;Node8 -->
<g id="edge19" class="edge">
<title>Node1&#45;&gt;Node8</title>
<path fill="none" stroke="midnightblue" d="M1496.63,-341.59C1666.97,-331.5 2126,-298.41 2126,-235 2126,-235 2126,-235 2126,-177 2126,-142.61 2112.69,-130.97 2084,-112 2066.68,-100.55 1943.45,-82.74 1873.03,-73.33"/>
<polygon fill="midnightblue" stroke="midnightblue" points="1873.42,-69.85 1863.05,-72 1872.5,-76.79 1873.42,-69.85"/>
</g>
<!-- Node14 -->
<g id="node14" class="node">
<title>Node14</title>
<g id="a_node14"><a xlink:href="Primitives_8h.html" target="_top" xlink:title="Wrapper for SDL_GFX primitive types. Allows drawing without knowing about SDL.">
<polygon fill="white" stroke="black" points="1716.5,-280.5 1716.5,-299.5 1829.5,-299.5 1829.5,-280.5 1716.5,-280.5"/>
<text text-anchor="middle" x="1773" y="-287.5" font-family="Helvetica,sans-Serif" font-size="10.00">primitives/Primitives.h</text>
</a>
</g>
</g>
<!-- Node1&#45;&gt;Node14 -->
<g id="edge20" class="edge">
<title>Node1&#45;&gt;Node14</title>
<path fill="none" stroke="midnightblue" d="M1487.72,-336.44C1547.97,-326.85 1645.61,-311.29 1709.57,-301.1"/>
<polygon fill="midnightblue" stroke="midnightblue" points="1710.21,-304.55 1719.54,-299.52 1709.11,-297.63 1710.21,-304.55"/>
</g>
<!-- Node15 -->
<g id="node15" class="node">
<title>Node15</title>
<g id="a_node15"><a xlink:href="Scene_8h.html" target="_top" xlink:title="Parent scene class. Children can be added to scene manager.">
<polygon fill="white" stroke="black" points="1393.5,-280.5 1393.5,-299.5 1474.5,-299.5 1474.5,-280.5 1393.5,-280.5"/>
<text text-anchor="middle" x="1434" y="-287.5" font-family="Helvetica,sans-Serif" font-size="10.00">scene/Scene.h</text>
</a>
</g>
</g>
<!-- Node1&#45;&gt;Node15 -->
<g id="edge22" class="edge">
<title>Node1&#45;&gt;Node15</title>
<path fill="none" stroke="midnightblue" d="M1434,-336.08C1434,-329.01 1434,-318.86 1434,-309.99"/>
<polygon fill="midnightblue" stroke="midnightblue" points="1437.5,-309.75 1434,-299.75 1430.5,-309.75 1437.5,-309.75"/>
</g>
<!-- Node21 -->
<g id="node21" class="node">
<title>Node21</title>
<g id="a_node21"><a xlink:href="Services_8h.html" target="_top" xlink:title="Implementation of core Services class.">
<polygon fill="white" stroke="black" points="1252,-224.5 1252,-243.5 1362,-243.5 1362,-224.5 1252,-224.5"/>
<text text-anchor="middle" x="1307" y="-231.5" font-family="Helvetica,sans-Serif" font-size="10.00">../services/Services.h</text>
</a>
</g>
</g>
<!-- Node1&#45;&gt;Node21 -->
<g id="edge85" class="edge">
<title>Node1&#45;&gt;Node21</title>
<path fill="none" stroke="midnightblue" d="M1424.03,-336.37C1402.61,-317.81 1351.93,-273.91 1324.82,-250.44"/>
<polygon fill="midnightblue" stroke="midnightblue" points="1326.77,-247.49 1316.92,-243.59 1322.19,-252.78 1326.77,-247.49"/>
</g>
<!-- Node3 -->
<g id="node3" class="node">
<title>Node3</title>
<g id="a_node3"><a xlink:href="UIElement_8h.html" target="_top" xlink:title="Parent class of many other UIElement subclasses. Handles most things that all UIElements may need.">
<polygon fill="white" stroke="black" points="858,-168.5 858,-187.5 928,-187.5 928,-168.5 858,-168.5"/>
<text text-anchor="middle" x="893" y="-175.5" font-family="Helvetica,sans-Serif" font-size="10.00">UIElement.h</text>
</a>
</g>
</g>
<!-- Node2&#45;&gt;Node3 -->
<g id="edge2" class="edge">
<title>Node2&#45;&gt;Node3</title>
<path fill="none" stroke="midnightblue" d="M1015.87,-224.44C991.52,-215.44 952.99,-201.19 925.58,-191.05"/>
<polygon fill="midnightblue" stroke="midnightblue" points="926.62,-187.7 916.03,-187.52 924.19,-194.27 926.62,-187.7"/>
</g>
<!-- Node5 -->
<g id="node5" class="node">
<title>Node5</title>
<g id="a_node5"><a xlink:title=" ">
<polygon fill="white" stroke="#bfbfbf" points="1225.5,-56.5 1225.5,-75.5 1266.5,-75.5 1266.5,-56.5 1225.5,-56.5"/>
<text text-anchor="middle" x="1246" y="-63.5" font-family="Helvetica,sans-Serif" font-size="10.00">string</text>
</a>
</g>
</g>
<!-- Node2&#45;&gt;Node5 -->
<g id="edge14" class="edge">
<title>Node2&#45;&gt;Node5</title>
<path fill="none" stroke="midnightblue" d="M989.7,-228.19C939.37,-222.14 866.24,-209.8 849,-188 843.49,-181.03 845.56,-176.2 849,-168 862.74,-135.25 874.08,-127.58 906,-112 960.2,-85.54 1141.56,-72.78 1214.87,-68.6"/>
<polygon fill="midnightblue" stroke="midnightblue" points="1215.48,-72.08 1225.27,-68.03 1215.09,-65.09 1215.48,-72.08"/>
</g>
<!-- Node13 -->
<g id="node13" class="node">
<title>Node13</title>
<g id="a_node13"><a xlink:href="Texture_8h.html" target="_top" xlink:title="Easy interface to interact with sdl bitmaps.">
<polygon fill="white" stroke="black" points="1401,-112.5 1401,-131.5 1505,-131.5 1505,-112.5 1401,-112.5"/>
<text text-anchor="middle" x="1453" y="-119.5" font-family="Helvetica,sans-Serif" font-size="10.00">../../assets/Texture.h</text>
</a>
</g>
</g>
<!-- Node2&#45;&gt;Node13 -->
<g id="edge15" class="edge">
<title>Node2&#45;&gt;Node13</title>
<path fill="none" stroke="midnightblue" d="M1088.08,-230.01C1169.41,-224.49 1328.17,-211.08 1379,-188 1403.7,-176.79 1426.2,-154.51 1439.75,-139.19"/>
<polygon fill="midnightblue" stroke="midnightblue" points="1442.47,-141.39 1446.31,-131.51 1437.15,-136.84 1442.47,-141.39"/>
</g>
<!-- Node4 -->
<g id="node4" class="node">
<title>Node4</title>
<g id="a_node4"><a xlink:title=" ">
<polygon fill="white" stroke="#bfbfbf" points="915.5,-112.5 915.5,-131.5 974.5,-131.5 974.5,-112.5 915.5,-112.5"/>
<text text-anchor="middle" x="945" y="-119.5" font-family="Helvetica,sans-Serif" font-size="10.00">functional</text>
</a>
</g>
</g>
<!-- Node3&#45;&gt;Node4 -->
<g id="edge3" class="edge">
<title>Node3&#45;&gt;Node4</title>
<path fill="none" stroke="midnightblue" d="M901.59,-168.08C909.16,-160.22 920.38,-148.57 929.51,-139.08"/>
<polygon fill="midnightblue" stroke="midnightblue" points="932.16,-141.38 936.57,-131.75 927.12,-136.53 932.16,-141.38"/>
</g>
<!-- Node3&#45;&gt;Node5 -->
<g id="edge4" class="edge">
<title>Node3&#45;&gt;Node5</title>
<path fill="none" stroke="midnightblue" d="M912.87,-168.48C944.31,-155.2 1007.66,-129.31 1063,-112 1115.86,-95.46 1178.84,-81.12 1215.43,-73.3"/>
<polygon fill="midnightblue" stroke="midnightblue" points="1216.4,-76.67 1225.46,-71.18 1214.95,-69.82 1216.4,-76.67"/>
</g>
<!-- Node6 -->
<g id="node6" class="node">
<title>Node6</title>
<g id="a_node6"><a xlink:href="Font_8h.html" target="_top" xlink:title="Easy interface to interact with SDL fonts.">
<polygon fill="white" stroke="black" points="1691.5,-112.5 1691.5,-131.5 1782.5,-131.5 1782.5,-112.5 1691.5,-112.5"/>
<text text-anchor="middle" x="1737" y="-119.5" font-family="Helvetica,sans-Serif" font-size="10.00">../../assets/Font.h</text>
</a>
</g>
</g>
<!-- Node3&#45;&gt;Node6 -->
<g id="edge5" class="edge">
<title>Node3&#45;&gt;Node6</title>
<path fill="none" stroke="midnightblue" d="M928.47,-169.28C931.34,-168.79 934.22,-168.36 937,-168 1231.89,-130.11 1308.23,-150.11 1605,-132 1630.06,-130.47 1657.79,-128.61 1681.34,-126.97"/>
<polygon fill="midnightblue" stroke="midnightblue" points="1681.77,-130.45 1691.5,-126.26 1681.28,-123.47 1681.77,-130.45"/>
</g>
<!-- Node10 -->
<g id="node10" class="node">
<title>Node10</title>
<g id="a_node10"><a xlink:href="GameObject_8h.html" target="_top" xlink:title="Implementation of GameObject class.">
<polygon fill="white" stroke="black" points="735,-112.5 735,-131.5 821,-131.5 821,-112.5 735,-112.5"/>
<text text-anchor="middle" x="778" y="-119.5" font-family="Helvetica,sans-Serif" font-size="10.00">../GameObject.h</text>
</a>
</g>
</g>
<!-- Node3&#45;&gt;Node10 -->
<g id="edge10" class="edge">
<title>Node3&#45;&gt;Node10</title>
<path fill="none" stroke="midnightblue" d="M874.78,-168.44C856.1,-159.68 826.84,-145.94 805.38,-135.86"/>
<polygon fill="midnightblue" stroke="midnightblue" points="806.68,-132.6 796.14,-131.52 803.7,-138.93 806.68,-132.6"/>
</g>
<!-- Node6&#45;&gt;Node5 -->
<g id="edge7" class="edge">
<title>Node6&#45;&gt;Node5</title>
<path fill="none" stroke="midnightblue" d="M1691.49,-113.95C1686.61,-113.26 1681.7,-112.6 1677,-112 1527.21,-92.96 1347.39,-76.11 1276.68,-69.73"/>
<polygon fill="midnightblue" stroke="midnightblue" points="1276.95,-66.24 1266.67,-68.83 1276.32,-73.21 1276.95,-66.24"/>
</g>
<!-- Node7 -->
<g id="node7" class="node">
<title>Node7</title>
<g id="a_node7"><a xlink:title=" ">
<polygon fill="white" stroke="#bfbfbf" points="1681,-56.5 1681,-75.5 1767,-75.5 1767,-56.5 1681,-56.5"/>
<text text-anchor="middle" x="1724" y="-63.5" font-family="Helvetica,sans-Serif" font-size="10.00">SDL2/SDL_ttf.h</text>
</a>
</g>
</g>
<!-- Node6&#45;&gt;Node7 -->
<g id="edge6" class="edge">
<title>Node6&#45;&gt;Node7</title>
<path fill="none" stroke="midnightblue" d="M1734.85,-112.08C1733.13,-104.93 1730.65,-94.64 1728.5,-85.69"/>
<polygon fill="midnightblue" stroke="midnightblue" points="1731.85,-84.65 1726.11,-75.75 1725.04,-86.29 1731.85,-84.65"/>
</g>
<!-- Node6&#45;&gt;Node8 -->
<g id="edge8" class="edge">
<title>Node6&#45;&gt;Node8</title>
<path fill="none" stroke="midnightblue" d="M1750.98,-112.32C1764.55,-103.9 1785.38,-90.97 1801.32,-81.07"/>
<polygon fill="midnightblue" stroke="midnightblue" points="1803.41,-83.9 1810.06,-75.65 1799.71,-77.95 1803.41,-83.9"/>
</g>
<!-- Node9 -->
<g id="node9" class="node">
<title>Node9</title>
<g id="a_node9"><a xlink:title=" ">
<polygon fill="white" stroke="#bfbfbf" points="1755,-0.5 1755,-19.5 1893,-19.5 1893,-0.5 1755,-0.5"/>
<text text-anchor="middle" x="1824" y="-7.5" font-family="Helvetica,sans-Serif" font-size="10.00">SDL2/SDL2_gfxPrimitives.h</text>
</a>
</g>
</g>
<!-- Node8&#45;&gt;Node9 -->
<g id="edge9" class="edge">
<title>Node8&#45;&gt;Node9</title>
<path fill="none" stroke="midnightblue" d="M1824,-56.08C1824,-49.01 1824,-38.86 1824,-29.99"/>
<polygon fill="midnightblue" stroke="midnightblue" points="1827.5,-29.75 1824,-19.75 1820.5,-29.75 1827.5,-29.75"/>
</g>
<!-- Node10&#45;&gt;Node5 -->
<g id="edge12" class="edge">
<title>Node10&#45;&gt;Node5</title>
<path fill="none" stroke="midnightblue" d="M821.23,-113.95C825.87,-113.26 830.53,-112.6 835,-112 976.82,-93.05 1146.98,-76.33 1215.35,-69.85"/>
<polygon fill="midnightblue" stroke="midnightblue" points="1215.8,-73.33 1225.43,-68.9 1215.15,-66.36 1215.8,-73.33"/>
</g>
<!-- Node11 -->
<g id="node11" class="node">
<title>Node11</title>
<g id="a_node11"><a xlink:title=" ">
<polygon fill="white" stroke="#bfbfbf" points="792.5,-56.5 792.5,-75.5 863.5,-75.5 863.5,-56.5 792.5,-56.5"/>
<text text-anchor="middle" x="828" y="-63.5" font-family="Helvetica,sans-Serif" font-size="10.00">SDL2/SDL.h</text>
</a>
</g>
</g>
<!-- Node10&#45;&gt;Node11 -->
<g id="edge11" class="edge">
<title>Node10&#45;&gt;Node11</title>
<path fill="none" stroke="midnightblue" d="M786.26,-112.08C793.46,-104.3 804.11,-92.8 812.85,-83.37"/>
<polygon fill="midnightblue" stroke="midnightblue" points="815.67,-85.47 819.9,-75.75 810.53,-80.71 815.67,-85.47"/>
</g>
<!-- Node12 -->
<g id="node12" class="node">
<title>Node12</title>
<g id="a_node12"><a xlink:title=" ">
<polygon fill="white" stroke="#bfbfbf" points="634,-56.5 634,-75.5 678,-75.5 678,-56.5 634,-56.5"/>
<text text-anchor="middle" x="656" y="-63.5" font-family="Helvetica,sans-Serif" font-size="10.00">vector</text>
</a>
</g>
</g>
<!-- Node10&#45;&gt;Node12 -->
<g id="edge13" class="edge">
<title>Node10&#45;&gt;Node12</title>
<path fill="none" stroke="midnightblue" d="M758.67,-112.44C738.68,-103.6 707.26,-89.69 684.44,-79.59"/>
<polygon fill="midnightblue" stroke="midnightblue" points="685.8,-76.36 675.24,-75.52 682.97,-82.76 685.8,-76.36"/>
</g>
<!-- Node13&#45;&gt;Node5 -->
<g id="edge17" class="edge">
<title>Node13&#45;&gt;Node5</title>
<path fill="none" stroke="midnightblue" d="M1420.2,-112.44C1380.81,-102.17 1315.25,-85.07 1276.78,-75.03"/>
<polygon fill="midnightblue" stroke="midnightblue" points="1277.26,-71.54 1266.7,-72.4 1275.49,-78.31 1277.26,-71.54"/>
</g>
<!-- Node13&#45;&gt;Node8 -->
<g id="edge18" class="edge">
<title>Node13&#45;&gt;Node8</title>
<path fill="none" stroke="midnightblue" d="M1505.14,-114.5C1567.03,-106.62 1673.58,-92.51 1774.89,-76.12"/>
<polygon fill="midnightblue" stroke="midnightblue" points="1775.69,-79.53 1784.99,-74.47 1774.56,-72.62 1775.69,-79.53"/>
</g>
<!-- Node13&#45;&gt;Node11 -->
<g id="edge16" class="edge">
<title>Node13&#45;&gt;Node11</title>
<path fill="none" stroke="midnightblue" d="M1400.85,-116.21C1385.74,-114.83 1369.21,-113.34 1354,-112 1176.42,-96.33 965.04,-78.5 873.73,-70.83"/>
<polygon fill="midnightblue" stroke="midnightblue" points="873.98,-67.34 863.72,-69.99 873.39,-74.31 873.98,-67.34"/>
</g>
<!-- Node14&#45;&gt;Node8 -->
<g id="edge21" class="edge">
<title>Node14&#45;&gt;Node8</title>
<path fill="none" stroke="midnightblue" d="M1816.84,-280.45C1884.69,-264.58 2013.04,-223.51 2068,-132 2072.58,-124.38 2073.69,-118.83 2068,-112 2055.65,-97.16 1940.91,-81.03 1873.26,-72.7"/>
<polygon fill="midnightblue" stroke="midnightblue" points="1873.59,-69.22 1863.24,-71.48 1872.74,-76.16 1873.59,-69.22"/>
</g>
<!-- Node15&#45;&gt;Node5 -->
<g id="edge25" class="edge">
<title>Node15&#45;&gt;Node5</title>
<path fill="none" stroke="midnightblue" d="M1474.67,-283.87C1519.53,-277.28 1587.46,-264.22 1603,-244 1623.58,-217.22 1619.33,-197.57 1603,-168 1597.35,-157.77 1524.92,-116.16 1514,-112 1431.89,-80.72 1327.4,-71.13 1276.55,-68.23"/>
<polygon fill="midnightblue" stroke="midnightblue" points="1276.72,-64.74 1266.55,-67.71 1276.35,-71.73 1276.72,-64.74"/>
</g>
<!-- Node15&#45;&gt;Node10 -->
<g id="edge31" class="edge">
<title>Node15&#45;&gt;Node10</title>
<path fill="none" stroke="midnightblue" d="M1393.36,-288.8C1313.27,-287.57 1129.89,-280.59 981,-244 916.32,-228.1 897.41,-224.95 842,-188 821.92,-174.61 803.07,-154.13 791.1,-139.75"/>
<polygon fill="midnightblue" stroke="midnightblue" points="793.6,-137.27 784.59,-131.7 788.16,-141.67 793.6,-137.27"/>
</g>
<!-- Node15&#45;&gt;Node12 -->
<g id="edge27" class="edge">
<title>Node15&#45;&gt;Node12</title>
<path fill="none" stroke="midnightblue" d="M1393.25,-287.72C1222.61,-281.92 571.57,-255.51 513,-188 472.56,-141.38 570.65,-97.39 624.12,-77.75"/>
<polygon fill="midnightblue" stroke="midnightblue" points="625.62,-80.93 633.85,-74.26 623.25,-74.34 625.62,-80.93"/>
</g>
<!-- Node16 -->
<g id="node16" class="node">
<title>Node16</title>
<g id="a_node16"><a xlink:title=" ">
<polygon fill="white" stroke="#bfbfbf" points="1561.5,-112.5 1561.5,-131.5 1596.5,-131.5 1596.5,-112.5 1561.5,-112.5"/>
<text text-anchor="middle" x="1579" y="-119.5" font-family="Helvetica,sans-Serif" font-size="10.00">map</text>
</a>
</g>
</g>
<!-- Node15&#45;&gt;Node16 -->
<g id="edge23" class="edge">
<title>Node15&#45;&gt;Node16</title>
<path fill="none" stroke="midnightblue" d="M1474.8,-285.86C1528.12,-280.82 1617.06,-268.84 1637,-244 1658.14,-217.66 1651.86,-198.33 1637,-168 1630.34,-154.41 1617.38,-143.75 1605.4,-136.22"/>
<polygon fill="midnightblue" stroke="midnightblue" points="1606.95,-133.07 1596.55,-131.07 1603.44,-139.12 1606.95,-133.07"/>
</g>
<!-- Node17 -->
<g id="node17" class="node">
<title>Node17</title>
<g id="a_node17"><a xlink:title=" ">
<polygon fill="white" stroke="#bfbfbf" points="1427.5,-168.5 1427.5,-187.5 1478.5,-187.5 1478.5,-168.5 1427.5,-168.5"/>
<text text-anchor="middle" x="1453" y="-175.5" font-family="Helvetica,sans-Serif" font-size="10.00">memory</text>
</a>
</g>
</g>
<!-- Node15&#45;&gt;Node17 -->
<g id="edge24" class="edge">
<title>Node15&#45;&gt;Node17</title>
<path fill="none" stroke="midnightblue" d="M1426.19,-280.12C1416.14,-267.57 1400.88,-243.93 1409,-224 1413.8,-212.23 1423.33,-201.86 1432.29,-194.05"/>
<polygon fill="midnightblue" stroke="midnightblue" points="1434.65,-196.64 1440.22,-187.63 1430.25,-191.2 1434.65,-196.64"/>
</g>
<!-- Node18 -->
<g id="node18" class="node">
<title>Node18</title>
<g id="a_node18"><a xlink:title=" ">
<polygon fill="white" stroke="#bfbfbf" points="1555.5,-224.5 1555.5,-243.5 1594.5,-243.5 1594.5,-224.5 1555.5,-224.5"/>
<text text-anchor="middle" x="1575" y="-231.5" font-family="Helvetica,sans-Serif" font-size="10.00">utility</text>
</a>
</g>
</g>
<!-- Node15&#45;&gt;Node18 -->
<g id="edge26" class="edge">
<title>Node15&#45;&gt;Node18</title>
<path fill="none" stroke="midnightblue" d="M1456.34,-280.44C1480.58,-271.16 1519.36,-256.31 1545.95,-246.13"/>
<polygon fill="midnightblue" stroke="midnightblue" points="1547.4,-249.32 1555.49,-242.47 1544.9,-242.78 1547.4,-249.32"/>
</g>
<!-- Node19 -->
<g id="node19" class="node">
<title>Node19</title>
<g id="a_node19"><a xlink:href="Exceptions_8h.html" target="_top" xlink:title="Interally used exceptions. These can be handled properly in the main game class.">
<polygon fill="white" stroke="black" points="1418.5,-224.5 1418.5,-243.5 1537.5,-243.5 1537.5,-224.5 1418.5,-224.5"/>
<text text-anchor="middle" x="1478" y="-231.5" font-family="Helvetica,sans-Serif" font-size="10.00">../common/Exceptions.h</text>
</a>
</g>
</g>
<!-- Node15&#45;&gt;Node19 -->
<g id="edge28" class="edge">
<title>Node15&#45;&gt;Node19</title>
<path fill="none" stroke="midnightblue" d="M1441.27,-280.08C1447.54,-272.38 1456.79,-261.03 1464.43,-251.65"/>
<polygon fill="midnightblue" stroke="midnightblue" points="1467.27,-253.71 1470.87,-243.75 1461.84,-249.29 1467.27,-253.71"/>
</g>
<!-- Node15&#45;&gt;Node21 -->
<g id="edge32" class="edge">
<title>Node15&#45;&gt;Node21</title>
<path fill="none" stroke="midnightblue" d="M1413.88,-280.44C1392.98,-271.56 1360.07,-257.56 1336.28,-247.45"/>
<polygon fill="midnightblue" stroke="midnightblue" points="1337.6,-244.21 1327.03,-243.52 1334.86,-250.65 1337.6,-244.21"/>
</g>
<!-- Node19&#45;&gt;Node5 -->
<g id="edge30" class="edge">
<title>Node19&#45;&gt;Node5</title>
<path fill="none" stroke="midnightblue" d="M1482.77,-224.12C1489.26,-210.72 1498.78,-185.06 1487,-168 1461.35,-130.84 1433.17,-150.55 1392,-132 1374.6,-124.16 1371.27,-120.12 1354,-112 1328.02,-99.78 1297.8,-87.34 1275.95,-78.64"/>
<polygon fill="midnightblue" stroke="midnightblue" points="1277.13,-75.34 1266.54,-74.92 1274.56,-81.85 1277.13,-75.34"/>
</g>
<!-- Node20 -->
<g id="node20" class="node">
<title>Node20</title>
<g id="a_node20"><a xlink:title=" ">
<polygon fill="white" stroke="#bfbfbf" points="1535.5,-168.5 1535.5,-187.5 1594.5,-187.5 1594.5,-168.5 1535.5,-168.5"/>
<text text-anchor="middle" x="1565" y="-175.5" font-family="Helvetica,sans-Serif" font-size="10.00">stdexcept</text>
</a>
</g>
</g>
<!-- Node19&#45;&gt;Node20 -->
<g id="edge29" class="edge">
<title>Node19&#45;&gt;Node20</title>
<path fill="none" stroke="midnightblue" d="M1491.98,-224.32C1505.55,-215.9 1526.38,-202.97 1542.32,-193.07"/>
<polygon fill="midnightblue" stroke="midnightblue" points="1544.41,-195.9 1551.06,-187.65 1540.71,-189.95 1544.41,-195.9"/>
</g>
<!-- Node21&#45;&gt;Node17 -->
<g id="edge33" class="edge">
<title>Node21&#45;&gt;Node17</title>
<path fill="none" stroke="midnightblue" d="M1330.13,-224.44C1354.48,-215.44 1393.01,-201.19 1420.42,-191.05"/>
<polygon fill="midnightblue" stroke="midnightblue" points="1421.81,-194.27 1429.97,-187.52 1419.38,-187.7 1421.81,-194.27"/>
</g>
<!-- Node22 -->
<g id="node22" class="node">
<title>Node22</title>
<g id="a_node22"><a xlink:href="AssetService_8h.html" target="_top" xlink:title="Implementation of AssetService.">
<polygon fill="white" stroke="black" points="1689.5,-168.5 1689.5,-187.5 1804.5,-187.5 1804.5,-168.5 1689.5,-168.5"/>
<text text-anchor="middle" x="1747" y="-175.5" font-family="Helvetica,sans-Serif" font-size="10.00">assets/AssetService.h</text>
</a>
</g>
</g>
<!-- Node21&#45;&gt;Node22 -->
<g id="edge34" class="edge">
<title>Node21&#45;&gt;Node22</title>
<path fill="none" stroke="midnightblue" d="M1362.28,-226.22C1442.76,-216.34 1592.06,-198.02 1679.11,-187.33"/>
<polygon fill="midnightblue" stroke="midnightblue" points="1679.65,-190.79 1689.15,-186.1 1678.8,-183.84 1679.65,-190.79"/>
</g>
<!-- Node26 -->
<g id="node26" class="node">
<title>Node26</title>
<g id="a_node26"><a xlink:href="AudioService_8h.html" target="_top" xlink:title="Default audio service, can actually play audio.">
<polygon fill="white" stroke="black" points="1830,-168.5 1830,-187.5 1938,-187.5 1938,-168.5 1830,-168.5"/>
<text text-anchor="middle" x="1884" y="-175.5" font-family="Helvetica,sans-Serif" font-size="10.00">audio/AudioService.h</text>
</a>
</g>
</g>
<!-- Node21&#45;&gt;Node26 -->
<g id="edge45" class="edge">
<title>Node21&#45;&gt;Node26</title>
<path fill="none" stroke="midnightblue" d="M1362.13,-228.12C1490.99,-216.72 1801.89,-189.2 1813,-188 1815.21,-187.76 1817.45,-187.51 1819.72,-187.26"/>
<polygon fill="midnightblue" stroke="midnightblue" points="1820.23,-190.72 1829.75,-186.09 1819.42,-183.77 1820.23,-190.72"/>
</g>
<!-- Node27 -->
<g id="node27" class="node">
<title>Node27</title>
<g id="a_node27"><a xlink:href="ConfigService_8h.html" target="_top" xlink:title="Header for default Config Service.">
<polygon fill="white" stroke="black" points="1257.5,-168.5 1257.5,-187.5 1370.5,-187.5 1370.5,-168.5 1257.5,-168.5"/>
<text text-anchor="middle" x="1314" y="-175.5" font-family="Helvetica,sans-Serif" font-size="10.00">config/ConfigService.h</text>
</a>
</g>
</g>
<!-- Node21&#45;&gt;Node27 -->
<g id="edge49" class="edge">
<title>Node21&#45;&gt;Node27</title>
<path fill="none" stroke="midnightblue" d="M1308.16,-224.08C1309.08,-216.93 1310.42,-206.64 1311.58,-197.69"/>
<polygon fill="midnightblue" stroke="midnightblue" points="1315.05,-198.12 1312.87,-187.75 1308.11,-197.22 1315.05,-198.12"/>
</g>
<!-- Node29 -->
<g id="node29" class="node">
<title>Node29</title>
<g id="a_node29"><a xlink:href="DisplayService_8h.html" target="_top" xlink:title="Service that encapsulates SDL display related functionality.">
<polygon fill="white" stroke="black" points="946,-168.5 946,-187.5 1068,-187.5 1068,-168.5 946,-168.5"/>
<text text-anchor="middle" x="1007" y="-175.5" font-family="Helvetica,sans-Serif" font-size="10.00">display/DisplayService.h</text>
</a>
</g>
</g>
<!-- Node21&#45;&gt;Node29 -->
<g id="edge53" class="edge">
<title>Node21&#45;&gt;Node29</title>
<path fill="none" stroke="midnightblue" d="M1259.46,-224.44C1206.47,-214.9 1120.8,-199.48 1064.18,-189.29"/>
<polygon fill="midnightblue" stroke="midnightblue" points="1064.78,-185.84 1054.31,-187.52 1063.54,-192.73 1064.78,-185.84"/>
</g>
<!-- Node32 -->
<g id="node32" class="node">
<title>Node32</title>
<g id="a_node32"><a xlink:href="EventQueue_8h.html" target="_top" xlink:title="Handles SDL_Events from main SDL_Queue. Can be hooked into by other services and notified when change...">
<polygon fill="white" stroke="black" points="522,-168.5 522,-187.5 632,-187.5 632,-168.5 522,-168.5"/>
<text text-anchor="middle" x="577" y="-175.5" font-family="Helvetica,sans-Serif" font-size="10.00">events/EventQueue.h</text>
</a>
</g>
</g>
<!-- Node21&#45;&gt;Node32 -->
<g id="edge60" class="edge">
<title>Node21&#45;&gt;Node32</title>
<path fill="none" stroke="midnightblue" d="M1251.63,-230.61C1138.92,-225.46 874.55,-211.88 642.12,-188.04"/>
<polygon fill="midnightblue" stroke="midnightblue" points="642.43,-184.56 632.13,-187.01 641.71,-191.52 642.43,-184.56"/>
</g>
<!-- Node33 -->
<g id="node33" class="node">
<title>Node33</title>
<g id="a_node33"><a xlink:href="InputService_8h.html" target="_top" xlink:title="General Purpose input listener. Handles Mouse, Keyboard, Joystick.">
<polygon fill="white" stroke="black" points="307.5,-168.5 307.5,-187.5 410.5,-187.5 410.5,-168.5 307.5,-168.5"/>
<text text-anchor="middle" x="359" y="-175.5" font-family="Helvetica,sans-Serif" font-size="10.00">input/InputService.h</text>
</a>
</g>
</g>
<!-- Node21&#45;&gt;Node33 -->
<g id="edge64" class="edge">
<title>Node21&#45;&gt;Node33</title>
<path fill="none" stroke="midnightblue" d="M1251.65,-229.9C1122.35,-222.64 790.4,-203.97 513,-188 482.64,-186.25 448.91,-184.28 420.78,-182.64"/>
<polygon fill="midnightblue" stroke="midnightblue" points="420.87,-179.13 410.68,-182.04 420.46,-186.12 420.87,-179.13"/>
</g>
<!-- Node41 -->
<g id="node41" class="node">
<title>Node41</title>
<g id="a_node41"><a xlink:href="DebugLoggingService_8h.html" target="_top" xlink:title="Logging service that does the logging. Used for development.">
<polygon fill="white" stroke="black" points="1086.5,-168.5 1086.5,-187.5 1239.5,-187.5 1239.5,-168.5 1086.5,-168.5"/>
<text text-anchor="middle" x="1163" y="-175.5" font-family="Helvetica,sans-Serif" font-size="10.00">logging/DebugLoggingService.h</text>
</a>
</g>
</g>
<!-- Node21&#45;&gt;Node41 -->
<g id="edge77" class="edge">
<title>Node21&#45;&gt;Node41</title>
<path fill="none" stroke="midnightblue" d="M1284.18,-224.44C1260.17,-215.44 1222.17,-201.19 1195.13,-191.05"/>
<polygon fill="midnightblue" stroke="midnightblue" points="1196.3,-187.75 1185.71,-187.52 1193.84,-194.3 1196.3,-187.75"/>
</g>
<!-- Node43 -->
<g id="node43" class="node">
<title>Node43</title>
<g id="a_node43"><a xlink:href="SceneService_8h.html" target="_top" xlink:title="Service in charge of managing scenes.">
<polygon fill="white" stroke="black" points="650,-168.5 650,-187.5 764,-187.5 764,-168.5 650,-168.5"/>
<text text-anchor="middle" x="707" y="-175.5" font-family="Helvetica,sans-Serif" font-size="10.00">scene/SceneService.h</text>
</a>
</g>
</g>
<!-- Node21&#45;&gt;Node43 -->
<g id="edge81" class="edge">
<title>Node21&#45;&gt;Node43</title>
<path fill="none" stroke="midnightblue" d="M1251.9,-228.04C1141.55,-218.11 893.81,-195.81 774.18,-185.05"/>
<polygon fill="midnightblue" stroke="midnightblue" points="774.32,-181.55 764.05,-184.13 773.7,-188.52 774.32,-181.55"/>
</g>
<!-- Node22&#45;&gt;Node5 -->
<g id="edge36" class="edge">
<title>Node22&#45;&gt;Node5</title>
<path fill="none" stroke="midnightblue" d="M1728.27,-168.4C1689.88,-150.79 1605.8,-112.23 1605,-112 1486.77,-78.39 1339.53,-69.87 1276.71,-67.72"/>
<polygon fill="midnightblue" stroke="midnightblue" points="1276.78,-64.22 1266.68,-67.41 1276.56,-71.22 1276.78,-64.22"/>
</g>
<!-- Node22&#45;&gt;Node6 -->
<g id="edge37" class="edge">
<title>Node22&#45;&gt;Node6</title>
<path fill="none" stroke="midnightblue" d="M1745.35,-168.08C1744.02,-160.93 1742.12,-150.64 1740.46,-141.69"/>
<polygon fill="midnightblue" stroke="midnightblue" points="1743.88,-140.95 1738.62,-131.75 1737,-142.22 1743.88,-140.95"/>
</g>
<!-- Node22&#45;&gt;Node13 -->
<g id="edge44" class="edge">
<title>Node22&#45;&gt;Node13</title>
<path fill="none" stroke="midnightblue" d="M1700.41,-168.44C1648.59,-158.92 1564.87,-143.55 1509.38,-133.36"/>
<polygon fill="midnightblue" stroke="midnightblue" points="1509.84,-129.88 1499.37,-131.52 1508.57,-136.77 1509.84,-129.88"/>
</g>
<!-- Node22&#45;&gt;Node16 -->
<g id="edge35" class="edge">
<title>Node22&#45;&gt;Node16</title>
<path fill="none" stroke="midnightblue" d="M1720.38,-168.44C1689.29,-158.45 1638.12,-142 1606.61,-131.87"/>
<polygon fill="midnightblue" stroke="midnightblue" points="1607.33,-128.43 1596.73,-128.7 1605.18,-135.09 1607.33,-128.43"/>
</g>
<!-- Node23 -->
<g id="node23" class="node">
<title>Node23</title>
<g id="a_node23"><a xlink:href="Sound_8h.html" target="_top" xlink:title="Implementation of Sound.">
<polygon fill="white" stroke="black" points="1960.5,-112.5 1960.5,-131.5 2059.5,-131.5 2059.5,-112.5 1960.5,-112.5"/>
<text text-anchor="middle" x="2010" y="-119.5" font-family="Helvetica,sans-Serif" font-size="10.00">../../assets/Sound.h</text>
</a>
</g>
</g>
<!-- Node22&#45;&gt;Node23 -->
<g id="edge38" class="edge">
<title>Node22&#45;&gt;Node23</title>
<path fill="none" stroke="midnightblue" d="M1788.67,-168.44C1834.75,-158.98 1909,-143.74 1958.63,-133.55"/>
<polygon fill="midnightblue" stroke="midnightblue" points="1959.43,-136.96 1968.52,-131.52 1958.02,-130.1 1959.43,-136.96"/>
</g>
<!-- Node25 -->
<g id="node25" class="node">
<title>Node25</title>
<g id="a_node25"><a xlink:href="Stream_8h.html" target="_top" xlink:title="Wrapper for sdl stream including ability to store stream pointer. Use for single instance sounds like...">
<polygon fill="white" stroke="black" points="1839.5,-112.5 1839.5,-131.5 1942.5,-131.5 1942.5,-112.5 1839.5,-112.5"/>
<text text-anchor="middle" x="1891" y="-119.5" font-family="Helvetica,sans-Serif" font-size="10.00">../../assets/Stream.h</text>
</a>
</g>
</g>
<!-- Node22&#45;&gt;Node25 -->
<g id="edge41" class="edge">
<title>Node22&#45;&gt;Node25</title>
<path fill="none" stroke="midnightblue" d="M1769.82,-168.44C1793.83,-159.44 1831.83,-145.19 1858.87,-135.05"/>
<polygon fill="midnightblue" stroke="midnightblue" points="1860.16,-138.3 1868.29,-131.52 1857.7,-131.75 1860.16,-138.3"/>
</g>
<!-- Node23&#45;&gt;Node5 -->
<g id="edge40" class="edge">
<title>Node23&#45;&gt;Node5</title>
<path fill="none" stroke="midnightblue" d="M1960.47,-113.12C1957.27,-112.71 1954.09,-112.33 1951,-112 1690.96,-83.92 1374.94,-71.4 1276.65,-68"/>
<polygon fill="midnightblue" stroke="midnightblue" points="1276.64,-64.49 1266.53,-67.65 1276.41,-71.49 1276.64,-64.49"/>
</g>
<!-- Node24 -->
<g id="node24" class="node">
<title>Node24</title>
<g id="a_node24"><a xlink:title=" ">
<polygon fill="white" stroke="#bfbfbf" points="1927,-56.5 1927,-75.5 2027,-75.5 2027,-56.5 1927,-56.5"/>
<text text-anchor="middle" x="1977" y="-63.5" font-family="Helvetica,sans-Serif" font-size="10.00">SDL2/SDL_mixer.h</text>
</a>
</g>
</g>
<!-- Node23&#45;&gt;Node24 -->
<g id="edge39" class="edge">
<title>Node23&#45;&gt;Node24</title>
<path fill="none" stroke="midnightblue" d="M2004.55,-112.08C1999.99,-104.61 1993.33,-93.72 1987.71,-84.52"/>
<polygon fill="midnightblue" stroke="midnightblue" points="1990.55,-82.46 1982.35,-75.75 1984.58,-86.11 1990.55,-82.46"/>
</g>
<!-- Node25&#45;&gt;Node5 -->
<g id="edge43" class="edge">
<title>Node25&#45;&gt;Node5</title>
<path fill="none" stroke="midnightblue" d="M1839.36,-116.28C1823.82,-114.88 1806.72,-113.36 1791,-112 1595.27,-95.11 1359.87,-76.12 1276.82,-69.46"/>
<polygon fill="midnightblue" stroke="midnightblue" points="1277.04,-65.97 1266.79,-68.66 1276.48,-72.95 1277.04,-65.97"/>
</g>
<!-- Node25&#45;&gt;Node24 -->
<g id="edge42" class="edge">
<title>Node25&#45;&gt;Node24</title>
<path fill="none" stroke="midnightblue" d="M1904.82,-112.32C1918.23,-103.9 1938.82,-90.97 1954.59,-81.07"/>
<polygon fill="midnightblue" stroke="midnightblue" points="1956.61,-83.94 1963.22,-75.65 1952.89,-78.01 1956.61,-83.94"/>
</g>
<!-- Node26&#45;&gt;Node5 -->
<g id="edge46" class="edge">
<title>Node26&#45;&gt;Node5</title>
<path fill="none" stroke="midnightblue" d="M1829.88,-168.51C1788.65,-161.19 1730.84,-149.08 1682,-132 1662.86,-125.31 1660.46,-117.67 1641,-112 1509.5,-73.67 1344.51,-67.72 1276.97,-66.99"/>
<polygon fill="midnightblue" stroke="midnightblue" points="1276.65,-63.49 1266.62,-66.91 1276.6,-70.49 1276.65,-63.49"/>
</g>
<!-- Node26&#45;&gt;Node23 -->
<g id="edge47" class="edge">
<title>Node26&#45;&gt;Node23</title>
<path fill="none" stroke="midnightblue" d="M1903.97,-168.44C1924.61,-159.6 1957.06,-145.69 1980.63,-135.59"/>
<polygon fill="midnightblue" stroke="midnightblue" points="1982.32,-138.67 1990.13,-131.52 1979.56,-132.24 1982.32,-138.67"/>
</g>
<!-- Node26&#45;&gt;Node25 -->
<g id="edge48" class="edge">
<title>Node26&#45;&gt;Node25</title>
<path fill="none" stroke="midnightblue" d="M1885.16,-168.08C1886.08,-160.93 1887.42,-150.64 1888.58,-141.69"/>
<polygon fill="midnightblue" stroke="midnightblue" points="1892.05,-142.12 1889.87,-131.75 1885.11,-141.22 1892.05,-142.12"/>
</g>
<!-- Node27&#45;&gt;Node5 -->
<g id="edge52" class="edge">
<title>Node27&#45;&gt;Node5</title>
<path fill="none" stroke="midnightblue" d="M1308.1,-168.47C1301.93,-159.49 1292.06,-144.9 1284,-132 1274.06,-116.1 1263.33,-97.61 1255.82,-84.43"/>
<polygon fill="midnightblue" stroke="midnightblue" points="1258.74,-82.48 1250.76,-75.51 1252.65,-85.93 1258.74,-82.48"/>
</g>
<!-- Node27&#45;&gt;Node16 -->
<g id="edge50" class="edge">
<title>Node27&#45;&gt;Node16</title>
<path fill="none" stroke="midnightblue" d="M1355.99,-168.44C1410.69,-157.3 1504.81,-138.12 1551.33,-128.64"/>
<polygon fill="midnightblue" stroke="midnightblue" points="1552.19,-132.04 1561.29,-126.61 1550.79,-125.18 1552.19,-132.04"/>
</g>
<!-- Node28 -->
<g id="node28" class="node">
<title>Node28</title>
<g id="a_node28"><a xlink:title=" ">
<polygon fill="white" stroke="#bfbfbf" points="1293,-112.5 1293,-131.5 1345,-131.5 1345,-112.5 1293,-112.5"/>
<text text-anchor="middle" x="1319" y="-119.5" font-family="Helvetica,sans-Serif" font-size="10.00">sstream</text>
</a>
</g>
</g>
<!-- Node27&#45;&gt;Node28 -->
<g id="edge51" class="edge">
<title>Node27&#45;&gt;Node28</title>
<path fill="none" stroke="midnightblue" d="M1314.83,-168.08C1315.48,-161.01 1316.42,-150.86 1317.24,-141.99"/>
<polygon fill="midnightblue" stroke="midnightblue" points="1320.75,-142.03 1318.19,-131.75 1313.78,-141.39 1320.75,-142.03"/>
</g>
<!-- Node29&#45;&gt;Node5 -->
<g id="edge55" class="edge">
<title>Node29&#45;&gt;Node5</title>
<path fill="none" stroke="midnightblue" d="M1016.68,-168.44C1032.6,-154.75 1065.78,-127.87 1098,-112 1136.36,-93.1 1184.26,-80.31 1214.99,-73.33"/>
<polygon fill="midnightblue" stroke="midnightblue" points="1216.08,-76.67 1225.1,-71.1 1214.58,-69.84 1216.08,-76.67"/>
</g>
<!-- Node29&#45;&gt;Node8 -->
<g id="edge56" class="edge">
<title>Node29&#45;&gt;Node8</title>
<path fill="none" stroke="midnightblue" d="M1068.05,-168.87C1071.08,-168.55 1074.07,-168.26 1077,-168 1156.12,-160.93 1724.37,-175.25 1791,-132 1807.06,-121.58 1815.66,-100.77 1820.01,-85.5"/>
<polygon fill="midnightblue" stroke="midnightblue" points="1823.46,-86.13 1822.48,-75.58 1816.67,-84.44 1823.46,-86.13"/>
</g>
<!-- Node29&#45;&gt;Node11 -->
<g id="edge54" class="edge">
<title>Node29&#45;&gt;Node11</title>
<path fill="none" stroke="midnightblue" d="M1006.27,-168.5C1004.62,-154.65 999.37,-127.25 983,-112 953.36,-84.4 907.77,-73.62 873.7,-69.47"/>
<polygon fill="midnightblue" stroke="midnightblue" points="873.84,-65.96 863.53,-68.38 873.1,-72.92 873.84,-65.96"/>
</g>
<!-- Node30 -->
<g id="node30" class="node">
<title>Node30</title>
<g id="a_node30"><a xlink:href="Service_8h.html" target="_top" xlink:title="Service subscriber that can listen for events.">
<polygon fill="white" stroke="black" points="613.5,-112.5 613.5,-131.5 678.5,-131.5 678.5,-112.5 613.5,-112.5"/>
<text text-anchor="middle" x="646" y="-119.5" font-family="Helvetica,sans-Serif" font-size="10.00">../Service.h</text>
</a>
</g>
</g>
<!-- Node29&#45;&gt;Node30 -->
<g id="edge57" class="edge">
<title>Node29&#45;&gt;Node30</title>
<path fill="none" stroke="midnightblue" d="M949.8,-168.44C877.29,-157.6 753.94,-139.15 688.96,-129.43"/>
<polygon fill="midnightblue" stroke="midnightblue" points="689.08,-125.91 678.67,-127.89 688.05,-132.83 689.08,-125.91"/>
</g>
<!-- Node30&#45;&gt;Node5 -->
<g id="edge59" class="edge">
<title>Node30&#45;&gt;Node5</title>
<path fill="none" stroke="midnightblue" d="M678.68,-117.13C693.16,-115.47 710.42,-113.55 726,-112 911.16,-93.58 1133.84,-75.76 1214.72,-69.42"/>
<polygon fill="midnightblue" stroke="midnightblue" points="1215.48,-72.88 1225.18,-68.61 1214.93,-65.9 1215.48,-72.88"/>
</g>
<!-- Node31 -->
<g id="node31" class="node">
<title>Node31</title>
<g id="a_node31"><a xlink:title=" ">
<polygon fill="white" stroke="#bfbfbf" points="106,-56.5 106,-75.5 212,-75.5 212,-56.5 106,-56.5"/>
<text text-anchor="middle" x="159" y="-63.5" font-family="Helvetica,sans-Serif" font-size="10.00">SDL2/SDL_events.h</text>
</a>
</g>
</g>
<!-- Node30&#45;&gt;Node31 -->
<g id="edge58" class="edge">
<title>Node30&#45;&gt;Node31</title>
<path fill="none" stroke="midnightblue" d="M613.43,-117.98C543.7,-111.44 374.61,-95.06 222.1,-76.1"/>
<polygon fill="midnightblue" stroke="midnightblue" points="222.44,-72.61 212.08,-74.84 221.57,-79.56 222.44,-72.61"/>
</g>
<!-- Node32&#45;&gt;Node11 -->
<g id="edge61" class="edge">
<title>Node32&#45;&gt;Node11</title>
<path fill="none" stroke="midnightblue" d="M578.01,-168.31C580.14,-154.2 586.44,-126.43 604,-112 630.69,-90.08 724.74,-77.15 782.14,-71.13"/>
<polygon fill="midnightblue" stroke="midnightblue" points="782.82,-74.58 792.41,-70.09 782.11,-67.62 782.82,-74.58"/>
</g>
<!-- Node32&#45;&gt;Node12 -->
<g id="edge62" class="edge">
<title>Node32&#45;&gt;Node12</title>
<path fill="none" stroke="midnightblue" d="M573.12,-168.28C567.88,-155.07 560.36,-129.67 571,-112 582.51,-92.88 605.19,-81.45 624.22,-74.9"/>
<polygon fill="midnightblue" stroke="midnightblue" points="625.27,-78.24 633.76,-71.91 623.17,-71.56 625.27,-78.24"/>
</g>
<!-- Node32&#45;&gt;Node30 -->
<g id="edge63" class="edge">
<title>Node32&#45;&gt;Node30</title>
<path fill="none" stroke="midnightblue" d="M588.09,-168.32C598.49,-160.18 614.26,-147.84 626.72,-138.09"/>
<polygon fill="midnightblue" stroke="midnightblue" points="628.99,-140.75 634.71,-131.83 624.68,-135.24 628.99,-140.75"/>
</g>
<!-- Node33&#45;&gt;Node5 -->
<g id="edge67" class="edge">
<title>Node33&#45;&gt;Node5</title>
<path fill="none" stroke="midnightblue" d="M384.75,-168.43C429.01,-154.11 522.6,-125.52 604,-112 836.72,-73.33 1122.27,-67.84 1215.21,-67.1"/>
<polygon fill="midnightblue" stroke="midnightblue" points="1215.35,-70.6 1225.32,-67.03 1215.3,-63.6 1215.35,-70.6"/>
</g>
<!-- Node33&#45;&gt;Node30 -->
<g id="edge68" class="edge">
<title>Node33&#45;&gt;Node30</title>
<path fill="none" stroke="midnightblue" d="M404.48,-168.44C459.01,-158.18 549.71,-141.12 603.08,-131.08"/>
<polygon fill="midnightblue" stroke="midnightblue" points="604.05,-134.45 613.23,-129.16 602.76,-127.57 604.05,-134.45"/>
</g>
<!-- Node33&#45;&gt;Node31 -->
<g id="edge65" class="edge">
<title>Node33&#45;&gt;Node31</title>
<path fill="none" stroke="midnightblue" d="M307.4,-169.98C260.67,-162.62 196.39,-149.66 178,-132 165.55,-120.05 161.13,-100.44 159.63,-85.88"/>
<polygon fill="midnightblue" stroke="midnightblue" points="163.1,-85.27 158.95,-75.52 156.11,-85.73 163.1,-85.27"/>
</g>
<!-- Node34 -->
<g id="node34" class="node">
<title>Node34</title>
<g id="a_node34"><a xlink:title=" ">
<polygon fill="white" stroke="#bfbfbf" points="389,-112.5 389,-131.5 443,-131.5 443,-112.5 389,-112.5"/>
<text text-anchor="middle" x="416" y="-119.5" font-family="Helvetica,sans-Serif" font-size="10.00">iostream</text>
</a>
</g>
</g>
<!-- Node33&#45;&gt;Node34 -->
<g id="edge66" class="edge">
<title>Node33&#45;&gt;Node34</title>
<path fill="none" stroke="midnightblue" d="M368.16,-168.32C376.5,-160.42 389.03,-148.55 399.18,-138.94"/>
<polygon fill="midnightblue" stroke="midnightblue" points="401.82,-141.25 406.68,-131.83 397.01,-136.17 401.82,-141.25"/>
</g>
<!-- Node35 -->
<g id="node35" class="node">
<title>Node35</title>
<g id="a_node35"><a xlink:href="JoystickState_8h.html" target="_top" xlink:title="Container for storing Joystick state.">
<polygon fill="white" stroke="black" points="47.5,-112.5 47.5,-131.5 130.5,-131.5 130.5,-112.5 47.5,-112.5"/>
<text text-anchor="middle" x="89" y="-119.5" font-family="Helvetica,sans-Serif" font-size="10.00">JoystickState.h</text>
</a>
</g>
</g>
<!-- Node33&#45;&gt;Node35 -->
<g id="edge69" class="edge">
<title>Node33&#45;&gt;Node35</title>
<path fill="none" stroke="midnightblue" d="M316.22,-168.44C268.54,-158.91 191.47,-143.49 140.52,-133.3"/>
<polygon fill="midnightblue" stroke="midnightblue" points="141.19,-129.87 130.69,-131.34 139.81,-136.73 141.19,-129.87"/>
</g>
<!-- Node37 -->
<g id="node37" class="node">
<title>Node37</title>
<g id="a_node37"><a xlink:href="KeyboardState_8h.html" target="_top" xlink:title="Container for storing Keyboard state.">
<polygon fill="white" stroke="black" points="283,-112.5 283,-131.5 371,-131.5 371,-112.5 283,-112.5"/>
<text text-anchor="middle" x="327" y="-119.5" font-family="Helvetica,sans-Serif" font-size="10.00">KeyboardState.h</text>
</a>
</g>
</g>
<!-- Node33&#45;&gt;Node37 -->
<g id="edge72" class="edge">
<title>Node33&#45;&gt;Node37</title>
<path fill="none" stroke="midnightblue" d="M353.72,-168.08C349.29,-160.61 342.84,-149.72 337.38,-140.52"/>
<polygon fill="midnightblue" stroke="midnightblue" points="340.29,-138.57 332.19,-131.75 334.27,-142.14 340.29,-138.57"/>
</g>
<!-- Node39 -->
<g id="node39" class="node">
<title>Node39</title>
<g id="a_node39"><a xlink:href="MouseState_8h.html" target="_top" xlink:title="Container for storing Mouse state.">
<polygon fill="white" stroke="black" points="187.5,-112.5 187.5,-131.5 264.5,-131.5 264.5,-112.5 187.5,-112.5"/>
<text text-anchor="middle" x="226" y="-119.5" font-family="Helvetica,sans-Serif" font-size="10.00">MouseState.h</text>
</a>
</g>
</g>
<!-- Node33&#45;&gt;Node39 -->
<g id="edge74" class="edge">
<title>Node33&#45;&gt;Node39</title>
<path fill="none" stroke="midnightblue" d="M337.93,-168.44C315.94,-159.52 281.27,-145.44 256.34,-135.32"/>
<polygon fill="midnightblue" stroke="midnightblue" points="257.56,-132.04 246.98,-131.52 254.92,-138.52 257.56,-132.04"/>
</g>
<!-- Node35&#45;&gt;Node31 -->
<g id="edge70" class="edge">
<title>Node35&#45;&gt;Node31</title>
<path fill="none" stroke="midnightblue" d="M100.25,-112.32C110.8,-104.18 126.8,-91.84 139.44,-82.09"/>
<polygon fill="midnightblue" stroke="midnightblue" points="141.77,-84.71 147.55,-75.83 137.49,-79.17 141.77,-84.71"/>
</g>
<!-- Node36 -->
<g id="node36" class="node">
<title>Node36</title>
<g id="a_node36"><a xlink:href="JoystickCodes_8h.html" target="_top" xlink:title="Defines for codes used for joystick.">
<polygon fill="white" stroke="black" points="0,-56.5 0,-75.5 88,-75.5 88,-56.5 0,-56.5"/>
<text text-anchor="middle" x="44" y="-63.5" font-family="Helvetica,sans-Serif" font-size="10.00">JoystickCodes.h</text>
</a>
</g>
</g>
<!-- Node35&#45;&gt;Node36 -->
<g id="edge71" class="edge">
<title>Node35&#45;&gt;Node36</title>
<path fill="none" stroke="midnightblue" d="M81.57,-112.08C75.15,-104.38 65.69,-93.03 57.88,-83.65"/>
<polygon fill="midnightblue" stroke="midnightblue" points="60.38,-81.19 51.29,-75.75 55.01,-85.67 60.38,-81.19"/>
</g>
<!-- Node38 -->
<g id="node38" class="node">
<title>Node38</title>
<g id="a_node38"><a xlink:href="KeyboardKeys_8h.html" target="_top" xlink:title="Defenitions of keys that can be used by input manager.">
<polygon fill="white" stroke="black" points="354,-56.5 354,-75.5 440,-75.5 440,-56.5 354,-56.5"/>
<text text-anchor="middle" x="397" y="-63.5" font-family="Helvetica,sans-Serif" font-size="10.00">KeyboardKeys.h</text>
</a>
</g>
</g>
<!-- Node37&#45;&gt;Node38 -->
<g id="edge73" class="edge">
<title>Node37&#45;&gt;Node38</title>
<path fill="none" stroke="midnightblue" d="M338.25,-112.32C348.8,-104.18 364.8,-91.84 377.44,-82.09"/>
<polygon fill="midnightblue" stroke="midnightblue" points="379.77,-84.71 385.55,-75.83 375.49,-79.17 379.77,-84.71"/>
</g>
<!-- Node39&#45;&gt;Node31 -->
<g id="edge75" class="edge">
<title>Node39&#45;&gt;Node31</title>
<path fill="none" stroke="midnightblue" d="M215.24,-112.32C205.23,-104.26 190.11,-92.08 178.07,-82.37"/>
<polygon fill="midnightblue" stroke="midnightblue" points="179.94,-79.38 169.96,-75.83 175.55,-84.83 179.94,-79.38"/>
</g>
<!-- Node40 -->
<g id="node40" class="node">
<title>Node40</title>
<g id="a_node40"><a xlink:title=" ">
<polygon fill="white" stroke="#bfbfbf" points="230,-56.5 230,-75.5 336,-75.5 336,-56.5 230,-56.5"/>
<text text-anchor="middle" x="283" y="-63.5" font-family="Helvetica,sans-Serif" font-size="10.00">SDL2/SDL_mouse.h</text>
</a>
</g>
</g>
<!-- Node39&#45;&gt;Node40 -->
<g id="edge76" class="edge">
<title>Node39&#45;&gt;Node40</title>
<path fill="none" stroke="midnightblue" d="M235.16,-112.32C243.5,-104.42 256.03,-92.55 266.18,-82.94"/>
<polygon fill="midnightblue" stroke="midnightblue" points="268.82,-85.25 273.68,-75.83 264.01,-80.17 268.82,-85.25"/>
</g>
<!-- Node41&#45;&gt;Node5 -->
<g id="edge78" class="edge">
<title>Node41&#45;&gt;Node5</title>
<path fill="none" stroke="midnightblue" d="M1173.05,-168.34C1182.69,-159.72 1197.34,-145.82 1208,-132 1219.45,-117.16 1230,-98.54 1237.06,-85.04"/>
<polygon fill="midnightblue" stroke="midnightblue" points="1240.32,-86.36 1241.74,-75.86 1234.08,-83.18 1240.32,-86.36"/>
</g>
<!-- Node42 -->
<g id="node42" class="node">
<title>Node42</title>
<g id="a_node42"><a xlink:href="LoggingService_8h.html" target="_top" xlink:title="Default logging service. Does nothing. Use in production.">
<polygon fill="white" stroke="black" points="1107,-112.5 1107,-131.5 1199,-131.5 1199,-112.5 1107,-112.5"/>
<text text-anchor="middle" x="1153" y="-119.5" font-family="Helvetica,sans-Serif" font-size="10.00">LoggingService.h</text>
</a>
</g>
</g>
<!-- Node41&#45;&gt;Node42 -->
<g id="edge79" class="edge">
<title>Node41&#45;&gt;Node42</title>
<path fill="none" stroke="midnightblue" d="M1161.35,-168.08C1160.02,-160.93 1158.12,-150.64 1156.46,-141.69"/>
<polygon fill="midnightblue" stroke="midnightblue" points="1159.88,-140.95 1154.62,-131.75 1153,-142.22 1159.88,-140.95"/>
</g>
<!-- Node42&#45;&gt;Node5 -->
<g id="edge80" class="edge">
<title>Node42&#45;&gt;Node5</title>
<path fill="none" stroke="midnightblue" d="M1167.94,-112.32C1182.59,-103.82 1205.13,-90.73 1222.24,-80.8"/>
<polygon fill="midnightblue" stroke="midnightblue" points="1224.2,-83.7 1231.1,-75.65 1220.69,-77.65 1224.2,-83.7"/>
</g>
<!-- Node43&#45;&gt;Node5 -->
<g id="edge82" class="edge">
<title>Node43&#45;&gt;Node5</title>
<path fill="none" stroke="midnightblue" d="M732.21,-168.48C757.24,-159.85 796.6,-145.85 830,-132 849.47,-123.93 852.73,-117.78 873,-112 996.34,-76.84 1150.25,-69.14 1215.02,-67.47"/>
<polygon fill="midnightblue" stroke="midnightblue" points="1215.42,-70.96 1225.34,-67.23 1215.26,-63.96 1215.42,-70.96"/>
</g>
<!-- Node43&#45;&gt;Node12 -->
<g id="edge83" class="edge">
<title>Node43&#45;&gt;Node12</title>
<path fill="none" stroke="midnightblue" d="M705.21,-168.27C702.39,-155.49 696.26,-131.13 687,-112 682.2,-102.09 675.39,-91.92 669.37,-83.76"/>
<polygon fill="midnightblue" stroke="midnightblue" points="672.13,-81.62 663.28,-75.8 666.57,-85.87 672.13,-81.62"/>
</g>
<!-- Node43&#45;&gt;Node30 -->
<g id="edge84" class="edge">
<title>Node43&#45;&gt;Node30</title>
<path fill="none" stroke="midnightblue" d="M697.2,-168.32C688.18,-160.34 674.59,-148.31 663.68,-138.65"/>
<polygon fill="midnightblue" stroke="midnightblue" points="665.79,-135.84 655.98,-131.83 661.15,-141.08 665.79,-135.84"/>
</g>
</g>
</svg>
