<?xml version="1.0" encoding="UTF-8" standalone="no"?>
<!DOCTYPE svg PUBLIC "-//W3C//DTD SVG 1.1//EN"
 "http://www.w3.org/Graphics/SVG/1.1/DTD/svg11.dtd">
<!-- Generated by graphviz version 2.46.1 (20210215.1649)
 -->
<!-- Title: include/entities/ui/Button.h Pages: 1 -->
<svg width="480pt" height="263pt"
 viewBox="0.00 0.00 479.50 263.00" xmlns="http://www.w3.org/2000/svg" xmlns:xlink="http://www.w3.org/1999/xlink">
<g id="graph0" class="graph" transform="scale(1 1) rotate(0) translate(4 259)">
<title>include/entities/ui/Button.h</title>
<polygon fill="white" stroke="transparent" points="-4,4 -4,-259 475.5,-259 475.5,4 -4,4"/>
<!-- Node1 -->
<g id="node1" class="node">
<title>Node1</title>
<g id="a_node1"><a xlink:title="A ui elemenent that accepts a click callback.">
<polygon fill="#bfbfbf" stroke="black" points="162.5,-224.5 162.5,-254.5 254.5,-254.5 254.5,-224.5 162.5,-224.5"/>
<text text-anchor="start" x="170.5" y="-242.5" font-family="Helvetica,sans-Serif" font-size="10.00">include/entities/ui</text>
<text text-anchor="middle" x="208.5" y="-231.5" font-family="Helvetica,sans-Serif" font-size="10.00">/Button.h</text>
</a>
</g>
</g>
<!-- Node2 -->
<g id="node2" class="node">
<title>Node2</title>
<g id="a_node2"><a xlink:href="UIElement_8h.html" target="_top" xlink:title="Parent class of many other UIElement subclasses. Handles most things that all UIElements may need.">
<polygon fill="white" stroke="black" points="173.5,-168.5 173.5,-187.5 243.5,-187.5 243.5,-168.5 173.5,-168.5"/>
<text text-anchor="middle" x="208.5" y="-175.5" font-family="Helvetica,sans-Serif" font-size="10.00">UIElement.h</text>
</a>
</g>
</g>
<!-- Node1&#45;&gt;Node2 -->
<g id="edge1" class="edge">
<title>Node1&#45;&gt;Node2</title>
<path fill="none" stroke="midnightblue" d="M208.5,-224.4C208.5,-216.47 208.5,-206.46 208.5,-197.86"/>
<polygon fill="midnightblue" stroke="midnightblue" points="212,-197.66 208.5,-187.66 205,-197.66 212,-197.66"/>
</g>
<!-- Node4 -->
<g id="node4" class="node">
<title>Node4</title>
<g id="a_node4"><a xlink:title=" ">
<polygon fill="white" stroke="#bfbfbf" points="215,-56.5 215,-75.5 256,-75.5 256,-56.5 215,-56.5"/>
<text text-anchor="middle" x="235.5" y="-63.5" font-family="Helvetica,sans-Serif" font-size="10.00">string</text>
</a>
</g>
</g>
<!-- Node1&#45;&gt;Node4 -->
<g id="edge13" class="edge">
<title>Node1&#45;&gt;Node4</title>
<path fill="none" stroke="midnightblue" d="M190.03,-224.12C161.71,-200.3 113.38,-151.35 138.5,-112 146.17,-99.98 179.56,-86.18 205.04,-77.07"/>
<polygon fill="midnightblue" stroke="midnightblue" points="206.41,-80.3 214.69,-73.7 204.1,-73.69 206.41,-80.3"/>
</g>
<!-- Node12 -->
<g id="node12" class="node">
<title>Node12</title>
<g id="a_node12"><a xlink:href="Texture_8h.html" target="_top" xlink:title="Easy interface to interact with sdl bitmaps.">
<polygon fill="white" stroke="black" points="263.5,-112.5 263.5,-131.5 367.5,-131.5 367.5,-112.5 263.5,-112.5"/>
<text text-anchor="middle" x="315.5" y="-119.5" font-family="Helvetica,sans-Serif" font-size="10.00">../../assets/Texture.h</text>
</a>
</g>
</g>
<!-- Node1&#45;&gt;Node12 -->
<g id="edge14" class="edge">
<title>Node1&#45;&gt;Node12</title>
<path fill="none" stroke="midnightblue" d="M221.62,-224.34C241.6,-202.77 279.54,-161.81 300.56,-139.13"/>
<polygon fill="midnightblue" stroke="midnightblue" points="303.24,-141.38 307.47,-131.67 298.1,-136.63 303.24,-141.38"/>
</g>
<!-- Node3 -->
<g id="node3" class="node">
<title>Node3</title>
<g id="a_node3"><a xlink:title=" ">
<polygon fill="white" stroke="#bfbfbf" points="148,-112.5 148,-131.5 207,-131.5 207,-112.5 148,-112.5"/>
<text text-anchor="middle" x="177.5" y="-119.5" font-family="Helvetica,sans-Serif" font-size="10.00">functional</text>
</a>
</g>
</g>
<!-- Node2&#45;&gt;Node3 -->
<g id="edge2" class="edge">
<title>Node2&#45;&gt;Node3</title>
<path fill="none" stroke="midnightblue" d="M203.38,-168.08C199.09,-160.61 192.84,-149.72 187.56,-140.52"/>
<polygon fill="midnightblue" stroke="midnightblue" points="190.54,-138.68 182.52,-131.75 184.47,-142.17 190.54,-138.68"/>
</g>
<!-- Node2&#45;&gt;Node4 -->
<g id="edge3" class="edge">
<title>Node2&#45;&gt;Node4</title>
<path fill="none" stroke="midnightblue" d="M210.62,-168.37C214.98,-150.62 225.03,-109.67 230.94,-85.6"/>
<polygon fill="midnightblue" stroke="midnightblue" points="234.41,-86.14 233.39,-75.59 227.61,-84.47 234.41,-86.14"/>
</g>
<!-- Node5 -->
<g id="node5" class="node">
<title>Node5</title>
<g id="a_node5"><a xlink:href="Font_8h.html" target="_top" xlink:title="Easy interface to interact with SDL fonts.">
<polygon fill="white" stroke="black" points="0,-112.5 0,-131.5 91,-131.5 91,-112.5 0,-112.5"/>
<text text-anchor="middle" x="45.5" y="-119.5" font-family="Helvetica,sans-Serif" font-size="10.00">../../assets/Font.h</text>
</a>
</g>
</g>
<!-- Node2&#45;&gt;Node5 -->
<g id="edge4" class="edge">
<title>Node2&#45;&gt;Node5</title>
<path fill="none" stroke="midnightblue" d="M182.67,-168.44C155.25,-159.36 111.72,-144.94 81.07,-134.78"/>
<polygon fill="midnightblue" stroke="midnightblue" points="81.8,-131.34 71.21,-131.52 79.6,-137.98 81.8,-131.34"/>
</g>
<!-- Node9 -->
<g id="node9" class="node">
<title>Node9</title>
<g id="a_node9"><a xlink:href="GameObject_8h.html" target="_top" xlink:title="Implementation of GameObject class.">
<polygon fill="white" stroke="black" points="385.5,-112.5 385.5,-131.5 471.5,-131.5 471.5,-112.5 385.5,-112.5"/>
<text text-anchor="middle" x="428.5" y="-119.5" font-family="Helvetica,sans-Serif" font-size="10.00">../GameObject.h</text>
</a>
</g>
</g>
<!-- Node2&#45;&gt;Node9 -->
<g id="edge9" class="edge">
<title>Node2&#45;&gt;Node9</title>
<path fill="none" stroke="midnightblue" d="M243.36,-168.44C281.42,-159.1 342.46,-144.12 383.96,-133.93"/>
<polygon fill="midnightblue" stroke="midnightblue" points="384.93,-137.3 393.8,-131.52 383.26,-130.5 384.93,-137.3"/>
</g>
<!-- Node5&#45;&gt;Node4 -->
<g id="edge6" class="edge">
<title>Node5&#45;&gt;Node4</title>
<path fill="none" stroke="midnightblue" d="M75.61,-112.44C111.03,-102.37 169.53,-85.75 205.09,-75.64"/>
<polygon fill="midnightblue" stroke="midnightblue" points="206.24,-78.95 214.9,-72.85 204.33,-72.22 206.24,-78.95"/>
</g>
<!-- Node6 -->
<g id="node6" class="node">
<title>Node6</title>
<g id="a_node6"><a xlink:title=" ">
<polygon fill="white" stroke="#bfbfbf" points="2.5,-56.5 2.5,-75.5 88.5,-75.5 88.5,-56.5 2.5,-56.5"/>
<text text-anchor="middle" x="45.5" y="-63.5" font-family="Helvetica,sans-Serif" font-size="10.00">SDL2/SDL_ttf.h</text>
</a>
</g>
</g>
<!-- Node5&#45;&gt;Node6 -->
<g id="edge5" class="edge">
<title>Node5&#45;&gt;Node6</title>
<path fill="none" stroke="midnightblue" d="M45.5,-112.08C45.5,-105.01 45.5,-94.86 45.5,-85.99"/>
<polygon fill="midnightblue" stroke="midnightblue" points="49,-85.75 45.5,-75.75 42,-85.75 49,-85.75"/>
</g>
<!-- Node7 -->
<g id="node7" class="node">
<title>Node7</title>
<g id="a_node7"><a xlink:href="Color_8h.html" target="_top" xlink:title="Helpers for creating colors without accessing SDL api directly.">
<polygon fill="white" stroke="black" points="112.5,-56.5 112.5,-75.5 190.5,-75.5 190.5,-56.5 112.5,-56.5"/>
<text text-anchor="middle" x="151.5" y="-63.5" font-family="Helvetica,sans-Serif" font-size="10.00">../color/Color.h</text>
</a>
</g>
</g>
<!-- Node5&#45;&gt;Node7 -->
<g id="edge7" class="edge">
<title>Node5&#45;&gt;Node7</title>
<path fill="none" stroke="midnightblue" d="M62.53,-112.32C79.53,-103.66 105.88,-90.24 125.49,-80.25"/>
<polygon fill="midnightblue" stroke="midnightblue" points="127.19,-83.31 134.51,-75.65 124.01,-77.08 127.19,-83.31"/>
</g>
<!-- Node8 -->
<g id="node8" class="node">
<title>Node8</title>
<g id="a_node8"><a xlink:title=" ">
<polygon fill="white" stroke="#bfbfbf" points="82.5,-0.5 82.5,-19.5 220.5,-19.5 220.5,-0.5 82.5,-0.5"/>
<text text-anchor="middle" x="151.5" y="-7.5" font-family="Helvetica,sans-Serif" font-size="10.00">SDL2/SDL2_gfxPrimitives.h</text>
</a>
</g>
</g>
<!-- Node7&#45;&gt;Node8 -->
<g id="edge8" class="edge">
<title>Node7&#45;&gt;Node8</title>
<path fill="none" stroke="midnightblue" d="M151.5,-56.08C151.5,-49.01 151.5,-38.86 151.5,-29.99"/>
<polygon fill="midnightblue" stroke="midnightblue" points="155,-29.75 151.5,-19.75 148,-29.75 155,-29.75"/>
</g>
<!-- Node9&#45;&gt;Node4 -->
<g id="edge11" class="edge">
<title>Node9&#45;&gt;Node4</title>
<path fill="none" stroke="midnightblue" d="M397.92,-112.44C361.83,-102.35 302.19,-85.66 266.1,-75.56"/>
<polygon fill="midnightblue" stroke="midnightblue" points="266.72,-72.1 256.15,-72.78 264.83,-78.84 266.72,-72.1"/>
</g>
<!-- Node10 -->
<g id="node10" class="node">
<title>Node10</title>
<g id="a_node10"><a xlink:title=" ">
<polygon fill="white" stroke="#bfbfbf" points="298,-56.5 298,-75.5 369,-75.5 369,-56.5 298,-56.5"/>
<text text-anchor="middle" x="333.5" y="-63.5" font-family="Helvetica,sans-Serif" font-size="10.00">SDL2/SDL.h</text>
</a>
</g>
</g>
<!-- Node9&#45;&gt;Node10 -->
<g id="edge10" class="edge">
<title>Node9&#45;&gt;Node10</title>
<path fill="none" stroke="midnightblue" d="M413.24,-112.32C398.28,-103.82 375.25,-90.73 357.77,-80.8"/>
<polygon fill="midnightblue" stroke="midnightblue" points="359.15,-77.55 348.73,-75.65 355.69,-83.64 359.15,-77.55"/>
</g>
<!-- Node11 -->
<g id="node11" class="node">
<title>Node11</title>
<g id="a_node11"><a xlink:title=" ">
<polygon fill="white" stroke="#bfbfbf" points="406.5,-56.5 406.5,-75.5 450.5,-75.5 450.5,-56.5 406.5,-56.5"/>
<text text-anchor="middle" x="428.5" y="-63.5" font-family="Helvetica,sans-Serif" font-size="10.00">vector</text>
</a>
</g>
</g>
<!-- Node9&#45;&gt;Node11 -->
<g id="edge12" class="edge">
<title>Node9&#45;&gt;Node11</title>
<path fill="none" stroke="midnightblue" d="M428.5,-112.08C428.5,-105.01 428.5,-94.86 428.5,-85.99"/>
<polygon fill="midnightblue" stroke="midnightblue" points="432,-85.75 428.5,-75.75 425,-85.75 432,-85.75"/>
</g>
<!-- Node12&#45;&gt;Node4 -->
<g id="edge16" class="edge">
<title>Node12&#45;&gt;Node4</title>
<path fill="none" stroke="midnightblue" d="M302.65,-112.32C290.28,-103.98 271.37,-91.21 256.76,-81.35"/>
<polygon fill="midnightblue" stroke="midnightblue" points="258.57,-78.35 248.32,-75.65 254.65,-84.15 258.57,-78.35"/>
</g>
<!-- Node12&#45;&gt;Node7 -->
<g id="edge17" class="edge">
<title>Node12&#45;&gt;Node7</title>
<path fill="none" stroke="midnightblue" d="M289.51,-112.44C261.8,-103.32 217.75,-88.81 186.88,-78.65"/>
<polygon fill="midnightblue" stroke="midnightblue" points="187.96,-75.32 177.36,-75.52 185.77,-81.97 187.96,-75.32"/>
</g>
<!-- Node12&#45;&gt;Node10 -->
<g id="edge15" class="edge">
<title>Node12&#45;&gt;Node10</title>
<path fill="none" stroke="midnightblue" d="M318.47,-112.08C320.88,-104.85 324.36,-94.41 327.37,-85.4"/>
<polygon fill="midnightblue" stroke="midnightblue" points="330.74,-86.34 330.58,-75.75 324.1,-84.13 330.74,-86.34"/>
</g>
</g>
</svg>
