<?xml version="1.0" encoding="UTF-8" standalone="no"?>
<!DOCTYPE svg PUBLIC "-//W3C//DTD SVG 1.1//EN"
 "http://www.w3.org/Graphics/SVG/1.1/DTD/svg11.dtd">
<!-- Generated by graphviz version 2.46.1 (20210215.1649)
 -->
<!-- Title: include/entities/ui/Checkbox.h Pages: 1 -->
<svg width="477pt" height="263pt"
 viewBox="0.00 0.00 476.50 263.00" xmlns="http://www.w3.org/2000/svg" xmlns:xlink="http://www.w3.org/1999/xlink">
<g id="graph0" class="graph" transform="scale(1 1) rotate(0) translate(4 259)">
<title>include/entities/ui/Checkbox.h</title>
<polygon fill="white" stroke="transparent" points="-4,4 -4,-259 472.5,-259 472.5,4 -4,4"/>
<!-- Node1 -->
<g id="node1" class="node">
<title>Node1</title>
<g id="a_node1"><a xlink:title="UI Checkbox.">
<polygon fill="#bfbfbf" stroke="black" points="182.5,-224.5 182.5,-254.5 274.5,-254.5 274.5,-224.5 182.5,-224.5"/>
<text text-anchor="start" x="190.5" y="-242.5" font-family="Helvetica,sans-Serif" font-size="10.00">include/entities/ui</text>
<text text-anchor="middle" x="228.5" y="-231.5" font-family="Helvetica,sans-Serif" font-size="10.00">/Checkbox.h</text>
</a>
</g>
</g>
<!-- Node2 -->
<g id="node2" class="node">
<title>Node2</title>
<g id="a_node2"><a xlink:href="UIElement_8h.html" target="_top" xlink:title="Parent class of many other UIElement subclasses. Handles most things that all UIElements may need.">
<polygon fill="white" stroke="black" points="162.5,-168.5 162.5,-187.5 232.5,-187.5 232.5,-168.5 162.5,-168.5"/>
<text text-anchor="middle" x="197.5" y="-175.5" font-family="Helvetica,sans-Serif" font-size="10.00">UIElement.h</text>
</a>
</g>
</g>
<!-- Node1&#45;&gt;Node2 -->
<g id="edge1" class="edge">
<title>Node1&#45;&gt;Node2</title>
<path fill="none" stroke="midnightblue" d="M221.15,-224.4C216.83,-216.11 211.33,-205.55 206.73,-196.71"/>
<polygon fill="midnightblue" stroke="midnightblue" points="209.74,-194.91 202.01,-187.66 203.53,-198.14 209.74,-194.91"/>
</g>
<!-- Node4 -->
<g id="node4" class="node">
<title>Node4</title>
<g id="a_node4"><a xlink:title=" ">
<polygon fill="white" stroke="#bfbfbf" points="210,-56.5 210,-75.5 251,-75.5 251,-56.5 210,-56.5"/>
<text text-anchor="middle" x="230.5" y="-63.5" font-family="Helvetica,sans-Serif" font-size="10.00">string</text>
</a>
</g>
</g>
<!-- Node1&#45;&gt;Node4 -->
<g id="edge13" class="edge">
<title>Node1&#45;&gt;Node4</title>
<path fill="none" stroke="midnightblue" d="M233.24,-224.1C236.28,-214.1 239.93,-200.39 241.5,-188 246.08,-151.85 239.47,-109.4 234.69,-85.6"/>
<polygon fill="midnightblue" stroke="midnightblue" points="238.05,-84.58 232.54,-75.53 231.2,-86.04 238.05,-84.58"/>
</g>
<!-- Node3 -->
<g id="node3" class="node">
<title>Node3</title>
<g id="a_node3"><a xlink:title=" ">
<polygon fill="white" stroke="#bfbfbf" points="135,-112.5 135,-131.5 194,-131.5 194,-112.5 135,-112.5"/>
<text text-anchor="middle" x="164.5" y="-119.5" font-family="Helvetica,sans-Serif" font-size="10.00">functional</text>
</a>
</g>
</g>
<!-- Node2&#45;&gt;Node3 -->
<g id="edge2" class="edge">
<title>Node2&#45;&gt;Node3</title>
<path fill="none" stroke="midnightblue" d="M192.05,-168.08C187.49,-160.61 180.83,-149.72 175.21,-140.52"/>
<polygon fill="midnightblue" stroke="midnightblue" points="178.05,-138.46 169.85,-131.75 172.08,-142.11 178.05,-138.46"/>
</g>
<!-- Node2&#45;&gt;Node4 -->
<g id="edge3" class="edge">
<title>Node2&#45;&gt;Node4</title>
<path fill="none" stroke="midnightblue" d="M200.09,-168.37C205.44,-150.54 217.81,-109.3 225.02,-85.27"/>
<polygon fill="midnightblue" stroke="midnightblue" points="228.4,-86.18 227.92,-75.59 221.7,-84.16 228.4,-86.18"/>
</g>
<!-- Node5 -->
<g id="node5" class="node">
<title>Node5</title>
<g id="a_node5"><a xlink:href="Font_8h.html" target="_top" xlink:title="Easy interface to interact with SDL fonts.">
<polygon fill="white" stroke="black" points="289,-112.5 289,-131.5 380,-131.5 380,-112.5 289,-112.5"/>
<text text-anchor="middle" x="334.5" y="-119.5" font-family="Helvetica,sans-Serif" font-size="10.00">../../assets/Font.h</text>
</a>
</g>
</g>
<!-- Node2&#45;&gt;Node5 -->
<g id="edge4" class="edge">
<title>Node2&#45;&gt;Node5</title>
<path fill="none" stroke="midnightblue" d="M219.21,-168.44C241.85,-159.52 277.57,-145.44 303.25,-135.32"/>
<polygon fill="midnightblue" stroke="midnightblue" points="304.87,-138.44 312.89,-131.52 302.31,-131.93 304.87,-138.44"/>
</g>
<!-- Node9 -->
<g id="node9" class="node">
<title>Node9</title>
<g id="a_node9"><a xlink:href="GameObject_8h.html" target="_top" xlink:title="Implementation of GameObject class.">
<polygon fill="white" stroke="black" points="30.5,-112.5 30.5,-131.5 116.5,-131.5 116.5,-112.5 30.5,-112.5"/>
<text text-anchor="middle" x="73.5" y="-119.5" font-family="Helvetica,sans-Serif" font-size="10.00">../GameObject.h</text>
</a>
</g>
</g>
<!-- Node2&#45;&gt;Node9 -->
<g id="edge9" class="edge">
<title>Node2&#45;&gt;Node9</title>
<path fill="none" stroke="midnightblue" d="M177.85,-168.44C157.54,-159.6 125.6,-145.69 102.4,-135.59"/>
<polygon fill="midnightblue" stroke="midnightblue" points="103.62,-132.3 93.06,-131.52 100.83,-138.72 103.62,-132.3"/>
</g>
<!-- Node5&#45;&gt;Node4 -->
<g id="edge6" class="edge">
<title>Node5&#45;&gt;Node4</title>
<path fill="none" stroke="midnightblue" d="M317.79,-112.32C301.19,-103.7 275.5,-90.36 256.28,-80.39"/>
<polygon fill="midnightblue" stroke="midnightblue" points="257.66,-77.16 247.17,-75.65 254.43,-83.37 257.66,-77.16"/>
</g>
<!-- Node6 -->
<g id="node6" class="node">
<title>Node6</title>
<g id="a_node6"><a xlink:title=" ">
<polygon fill="white" stroke="#bfbfbf" points="382.5,-56.5 382.5,-75.5 468.5,-75.5 468.5,-56.5 382.5,-56.5"/>
<text text-anchor="middle" x="425.5" y="-63.5" font-family="Helvetica,sans-Serif" font-size="10.00">SDL2/SDL_ttf.h</text>
</a>
</g>
</g>
<!-- Node5&#45;&gt;Node6 -->
<g id="edge5" class="edge">
<title>Node5&#45;&gt;Node6</title>
<path fill="none" stroke="midnightblue" d="M349.12,-112.32C363.45,-103.82 385.51,-90.73 402.25,-80.8"/>
<polygon fill="midnightblue" stroke="midnightblue" points="404.1,-83.77 410.92,-75.65 400.53,-77.75 404.1,-83.77"/>
</g>
<!-- Node7 -->
<g id="node7" class="node">
<title>Node7</title>
<g id="a_node7"><a xlink:href="Color_8h.html" target="_top" xlink:title="Helpers for creating colors without accessing SDL api directly.">
<polygon fill="white" stroke="black" points="286.5,-56.5 286.5,-75.5 364.5,-75.5 364.5,-56.5 286.5,-56.5"/>
<text text-anchor="middle" x="325.5" y="-63.5" font-family="Helvetica,sans-Serif" font-size="10.00">../color/Color.h</text>
</a>
</g>
</g>
<!-- Node5&#45;&gt;Node7 -->
<g id="edge7" class="edge">
<title>Node5&#45;&gt;Node7</title>
<path fill="none" stroke="midnightblue" d="M333.01,-112.08C331.82,-104.93 330.11,-94.64 328.62,-85.69"/>
<polygon fill="midnightblue" stroke="midnightblue" points="332.05,-85.04 326.96,-75.75 325.15,-86.19 332.05,-85.04"/>
</g>
<!-- Node8 -->
<g id="node8" class="node">
<title>Node8</title>
<g id="a_node8"><a xlink:title=" ">
<polygon fill="white" stroke="#bfbfbf" points="256.5,-0.5 256.5,-19.5 394.5,-19.5 394.5,-0.5 256.5,-0.5"/>
<text text-anchor="middle" x="325.5" y="-7.5" font-family="Helvetica,sans-Serif" font-size="10.00">SDL2/SDL2_gfxPrimitives.h</text>
</a>
</g>
</g>
<!-- Node7&#45;&gt;Node8 -->
<g id="edge8" class="edge">
<title>Node7&#45;&gt;Node8</title>
<path fill="none" stroke="midnightblue" d="M325.5,-56.08C325.5,-49.01 325.5,-38.86 325.5,-29.99"/>
<polygon fill="midnightblue" stroke="midnightblue" points="329,-29.75 325.5,-19.75 322,-29.75 329,-29.75"/>
</g>
<!-- Node9&#45;&gt;Node4 -->
<g id="edge11" class="edge">
<title>Node9&#45;&gt;Node4</title>
<path fill="none" stroke="midnightblue" d="M98.38,-112.44C125.91,-102.97 170.31,-87.7 199.94,-77.51"/>
<polygon fill="midnightblue" stroke="midnightblue" points="201.43,-80.7 209.75,-74.14 199.16,-74.08 201.43,-80.7"/>
</g>
<!-- Node10 -->
<g id="node10" class="node">
<title>Node10</title>
<g id="a_node10"><a xlink:title=" ">
<polygon fill="white" stroke="#bfbfbf" points="0,-56.5 0,-75.5 71,-75.5 71,-56.5 0,-56.5"/>
<text text-anchor="middle" x="35.5" y="-63.5" font-family="Helvetica,sans-Serif" font-size="10.00">SDL2/SDL.h</text>
</a>
</g>
</g>
<!-- Node9&#45;&gt;Node10 -->
<g id="edge10" class="edge">
<title>Node9&#45;&gt;Node10</title>
<path fill="none" stroke="midnightblue" d="M67.23,-112.08C61.86,-104.46 53.98,-93.26 47.42,-83.94"/>
<polygon fill="midnightblue" stroke="midnightblue" points="50.28,-81.91 41.66,-75.75 44.55,-85.94 50.28,-81.91"/>
</g>
<!-- Node11 -->
<g id="node11" class="node">
<title>Node11</title>
<g id="a_node11"><a xlink:title=" ">
<polygon fill="white" stroke="#bfbfbf" points="89.5,-56.5 89.5,-75.5 133.5,-75.5 133.5,-56.5 89.5,-56.5"/>
<text text-anchor="middle" x="111.5" y="-63.5" font-family="Helvetica,sans-Serif" font-size="10.00">vector</text>
</a>
</g>
</g>
<!-- Node9&#45;&gt;Node11 -->
<g id="edge12" class="edge">
<title>Node9&#45;&gt;Node11</title>
<path fill="none" stroke="midnightblue" d="M79.77,-112.08C85.14,-104.46 93.02,-93.26 99.58,-83.94"/>
<polygon fill="midnightblue" stroke="midnightblue" points="102.45,-85.94 105.34,-75.75 96.72,-81.91 102.45,-85.94"/>
</g>
</g>
</svg>
