<?xml version="1.0" encoding="UTF-8" standalone="no"?>
<!DOCTYPE svg PUBLIC "-//W3C//DTD SVG 1.1//EN"
 "http://www.w3.org/Graphics/SVG/1.1/DTD/svg11.dtd">
<!-- Generated by graphviz version 2.46.1 (20210215.1649)
 -->
<!-- Title: src/entities/ui/Checkbox.cpp Pages: 1 -->
<svg width="2061pt" height="364pt"
 viewBox="0.00 0.00 2061.00 364.00" xmlns="http://www.w3.org/2000/svg" xmlns:xlink="http://www.w3.org/1999/xlink">
<g id="graph0" class="graph" transform="scale(1 1) rotate(0) translate(4 360)">
<title>src/entities/ui/Checkbox.cpp</title>
<polygon fill="white" stroke="transparent" points="-4,4 -4,-360 2057,-360 2057,4 -4,4"/>
<!-- Node1 -->
<g id="node1" class="node">
<title>Node1</title>
<g id="a_node1"><a xlink:title="Implementation of UI Checkbox.">
<polygon fill="#bfbfbf" stroke="black" points="882.5,-336.5 882.5,-355.5 1021.5,-355.5 1021.5,-336.5 882.5,-336.5"/>
<text text-anchor="middle" x="952" y="-343.5" font-family="Helvetica,sans-Serif" font-size="10.00">src/entities/ui/Checkbox.cpp</text>
</a>
</g>
</g>
<!-- Node2 -->
<g id="node2" class="node">
<title>Node2</title>
<g id="a_node2"><a xlink:title=" ">
<polygon fill="white" stroke="#bfbfbf" points="291.5,-168.5 291.5,-187.5 350.5,-187.5 350.5,-168.5 291.5,-168.5"/>
<text text-anchor="middle" x="321" y="-175.5" font-family="Helvetica,sans-Serif" font-size="10.00">functional</text>
</a>
</g>
</g>
<!-- Node1&#45;&gt;Node2 -->
<g id="edge1" class="edge">
<title>Node1&#45;&gt;Node2</title>
<path fill="none" stroke="midnightblue" d="M882.24,-342.42C745.13,-336.89 450.28,-322.52 410,-300 368.22,-276.64 340.6,-224.58 328.31,-196.98"/>
<polygon fill="midnightblue" stroke="midnightblue" points="331.5,-195.53 324.35,-187.71 325.06,-198.28 331.5,-195.53"/>
</g>
<!-- Node3 -->
<g id="node3" class="node">
<title>Node3</title>
<g id="a_node3"><a xlink:href="Checkbox_8h.html" target="_top" xlink:title="UI Checkbox.">
<polygon fill="white" stroke="black" points="419,-280.5 419,-299.5 531,-299.5 531,-280.5 419,-280.5"/>
<text text-anchor="middle" x="475" y="-287.5" font-family="Helvetica,sans-Serif" font-size="10.00">entities/ui/Checkbox.h</text>
</a>
</g>
</g>
<!-- Node1&#45;&gt;Node3 -->
<g id="edge2" class="edge">
<title>Node1&#45;&gt;Node3</title>
<path fill="none" stroke="midnightblue" d="M882.38,-337.12C790.88,-326.76 631.27,-308.69 541.4,-298.52"/>
<polygon fill="midnightblue" stroke="midnightblue" points="541.65,-295.02 531.32,-297.38 540.87,-301.98 541.65,-295.02"/>
</g>
<!-- Node8 -->
<g id="node8" class="node">
<title>Node8</title>
<g id="a_node8"><a xlink:href="Color_8h.html" target="_top" xlink:title="Helpers for creating colors without accessing SDL api directly.">
<polygon fill="white" stroke="black" points="1712,-56.5 1712,-75.5 1790,-75.5 1790,-56.5 1712,-56.5"/>
<text text-anchor="middle" x="1751" y="-63.5" font-family="Helvetica,sans-Serif" font-size="10.00">../color/Color.h</text>
</a>
</g>
</g>
<!-- Node1&#45;&gt;Node8 -->
<g id="edge16" class="edge">
<title>Node1&#45;&gt;Node8</title>
<path fill="none" stroke="midnightblue" d="M1021.71,-345.38C1263.73,-345.77 2053,-339.09 2053,-235 2053,-235 2053,-235 2053,-177 2053,-142.61 2039.69,-130.97 2011,-112 1993.68,-100.55 1870.45,-82.74 1800.03,-73.33"/>
<polygon fill="midnightblue" stroke="midnightblue" points="1800.42,-69.85 1790.05,-72 1799.5,-76.79 1800.42,-69.85"/>
</g>
<!-- Node13 -->
<g id="node13" class="node">
<title>Node13</title>
<g id="a_node13"><a xlink:href="Primitives_8h.html" target="_top" xlink:title="Wrapper for SDL_GFX primitive types. Allows drawing without knowing about SDL.">
<polygon fill="white" stroke="black" points="1477.5,-280.5 1477.5,-299.5 1590.5,-299.5 1590.5,-280.5 1477.5,-280.5"/>
<text text-anchor="middle" x="1534" y="-287.5" font-family="Helvetica,sans-Serif" font-size="10.00">primitives/Primitives.h</text>
</a>
</g>
</g>
<!-- Node1&#45;&gt;Node13 -->
<g id="edge17" class="edge">
<title>Node1&#45;&gt;Node13</title>
<path fill="none" stroke="midnightblue" d="M1021.62,-338.54C1134.56,-328.06 1356.22,-307.49 1467.27,-297.19"/>
<polygon fill="midnightblue" stroke="midnightblue" points="1467.71,-300.67 1477.34,-296.26 1467.06,-293.7 1467.71,-300.67"/>
</g>
<!-- Node14 -->
<g id="node14" class="node">
<title>Node14</title>
<g id="a_node14"><a xlink:href="Scene_8h.html" target="_top" xlink:title="Parent scene class. Children can be added to scene manager.">
<polygon fill="white" stroke="black" points="777.5,-280.5 777.5,-299.5 858.5,-299.5 858.5,-280.5 777.5,-280.5"/>
<text text-anchor="middle" x="818" y="-287.5" font-family="Helvetica,sans-Serif" font-size="10.00">scene/Scene.h</text>
</a>
</g>
</g>
<!-- Node1&#45;&gt;Node14 -->
<g id="edge19" class="edge">
<title>Node1&#45;&gt;Node14</title>
<path fill="none" stroke="midnightblue" d="M930.77,-336.44C908.62,-327.52 873.68,-313.44 848.56,-303.32"/>
<polygon fill="midnightblue" stroke="midnightblue" points="849.72,-300.01 839.13,-299.52 847.1,-306.5 849.72,-300.01"/>
</g>
<!-- Node20 -->
<g id="node20" class="node">
<title>Node20</title>
<g id="a_node20"><a xlink:href="Services_8h.html" target="_top" xlink:title="Implementation of core Services class.">
<polygon fill="white" stroke="black" points="1026,-224.5 1026,-243.5 1136,-243.5 1136,-224.5 1026,-224.5"/>
<text text-anchor="middle" x="1081" y="-231.5" font-family="Helvetica,sans-Serif" font-size="10.00">../services/Services.h</text>
</a>
</g>
</g>
<!-- Node1&#45;&gt;Node20 -->
<g id="edge85" class="edge">
<title>Node1&#45;&gt;Node20</title>
<path fill="none" stroke="midnightblue" d="M962.12,-336.37C983.98,-317.73 1035.81,-273.53 1063.25,-250.13"/>
<polygon fill="midnightblue" stroke="midnightblue" points="1065.59,-252.74 1070.92,-243.59 1061.04,-247.42 1065.59,-252.74"/>
</g>
<!-- Node4 -->
<g id="node4" class="node">
<title>Node4</title>
<g id="a_node4"><a xlink:href="UIElement_8h.html" target="_top" xlink:title="Parent class of many other UIElement subclasses. Handles most things that all UIElements may need.">
<polygon fill="white" stroke="black" points="440,-224.5 440,-243.5 510,-243.5 510,-224.5 440,-224.5"/>
<text text-anchor="middle" x="475" y="-231.5" font-family="Helvetica,sans-Serif" font-size="10.00">UIElement.h</text>
</a>
</g>
</g>
<!-- Node3&#45;&gt;Node4 -->
<g id="edge3" class="edge">
<title>Node3&#45;&gt;Node4</title>
<path fill="none" stroke="midnightblue" d="M475,-280.08C475,-273.01 475,-262.86 475,-253.99"/>
<polygon fill="midnightblue" stroke="midnightblue" points="478.5,-253.75 475,-243.75 471.5,-253.75 478.5,-253.75"/>
</g>
<!-- Node5 -->
<g id="node5" class="node">
<title>Node5</title>
<g id="a_node5"><a xlink:title=" ">
<polygon fill="white" stroke="#bfbfbf" points="1020.5,-56.5 1020.5,-75.5 1061.5,-75.5 1061.5,-56.5 1020.5,-56.5"/>
<text text-anchor="middle" x="1041" y="-63.5" font-family="Helvetica,sans-Serif" font-size="10.00">string</text>
</a>
</g>
</g>
<!-- Node3&#45;&gt;Node5 -->
<g id="edge15" class="edge">
<title>Node3&#45;&gt;Node5</title>
<path fill="none" stroke="midnightblue" d="M428.06,-280.49C360.36,-265.87 247.06,-231.27 282,-168 287.65,-157.77 359.89,-115.61 371,-112 492.23,-72.58 895.29,-67.67 1010.19,-67.08"/>
<polygon fill="midnightblue" stroke="midnightblue" points="1010.4,-70.58 1020.39,-67.03 1010.37,-63.58 1010.4,-70.58"/>
</g>
<!-- Node4&#45;&gt;Node2 -->
<g id="edge4" class="edge">
<title>Node4&#45;&gt;Node2</title>
<path fill="none" stroke="midnightblue" d="M450.6,-224.44C424.8,-215.4 383.92,-201.06 354.98,-190.92"/>
<polygon fill="midnightblue" stroke="midnightblue" points="355.88,-187.52 345.29,-187.52 353.57,-194.13 355.88,-187.52"/>
</g>
<!-- Node4&#45;&gt;Node5 -->
<g id="edge5" class="edge">
<title>Node4&#45;&gt;Node5</title>
<path fill="none" stroke="midnightblue" d="M475.55,-224.46C477.52,-201.79 486.27,-139.88 524,-112 563.15,-83.07 904.61,-70.92 1010.09,-67.83"/>
<polygon fill="midnightblue" stroke="midnightblue" points="1010.49,-71.32 1020.38,-67.54 1010.29,-64.32 1010.49,-71.32"/>
</g>
<!-- Node6 -->
<g id="node6" class="node">
<title>Node6</title>
<g id="a_node6"><a xlink:href="Font_8h.html" target="_top" xlink:title="Easy interface to interact with SDL fonts.">
<polygon fill="white" stroke="black" points="1618.5,-112.5 1618.5,-131.5 1709.5,-131.5 1709.5,-112.5 1618.5,-112.5"/>
<text text-anchor="middle" x="1664" y="-119.5" font-family="Helvetica,sans-Serif" font-size="10.00">../../assets/Font.h</text>
</a>
</g>
</g>
<!-- Node4&#45;&gt;Node6 -->
<g id="edge6" class="edge">
<title>Node4&#45;&gt;Node6</title>
<path fill="none" stroke="midnightblue" d="M510.02,-230.27C536.17,-228.3 572.81,-225.7 605,-224 714.14,-218.22 1486.18,-227.73 1588,-188 1613.66,-177.99 1636.7,-155.43 1650.51,-139.71"/>
<polygon fill="midnightblue" stroke="midnightblue" points="1653.41,-141.71 1657.2,-131.81 1648.07,-137.18 1653.41,-141.71"/>
</g>
<!-- Node10 -->
<g id="node10" class="node">
<title>Node10</title>
<g id="a_node10"><a xlink:href="GameObject_8h.html" target="_top" xlink:title="Implementation of GameObject class.">
<polygon fill="white" stroke="black" points="566,-168.5 566,-187.5 652,-187.5 652,-168.5 566,-168.5"/>
<text text-anchor="middle" x="609" y="-175.5" font-family="Helvetica,sans-Serif" font-size="10.00">../GameObject.h</text>
</a>
</g>
</g>
<!-- Node4&#45;&gt;Node10 -->
<g id="edge11" class="edge">
<title>Node4&#45;&gt;Node10</title>
<path fill="none" stroke="midnightblue" d="M496.23,-224.44C518.38,-215.52 553.32,-201.44 578.44,-191.32"/>
<polygon fill="midnightblue" stroke="midnightblue" points="579.9,-194.5 587.87,-187.52 577.28,-188.01 579.9,-194.5"/>
</g>
<!-- Node6&#45;&gt;Node5 -->
<g id="edge8" class="edge">
<title>Node6&#45;&gt;Node5</title>
<path fill="none" stroke="midnightblue" d="M1618.42,-113.24C1615.24,-112.79 1612.07,-112.37 1609,-112 1404.64,-87.23 1157.2,-72.99 1071.75,-68.54"/>
<polygon fill="midnightblue" stroke="midnightblue" points="1071.86,-65.04 1061.69,-68.02 1071.5,-72.03 1071.86,-65.04"/>
</g>
<!-- Node7 -->
<g id="node7" class="node">
<title>Node7</title>
<g id="a_node7"><a xlink:title=" ">
<polygon fill="white" stroke="#bfbfbf" points="1608,-56.5 1608,-75.5 1694,-75.5 1694,-56.5 1608,-56.5"/>
<text text-anchor="middle" x="1651" y="-63.5" font-family="Helvetica,sans-Serif" font-size="10.00">SDL2/SDL_ttf.h</text>
</a>
</g>
</g>
<!-- Node6&#45;&gt;Node7 -->
<g id="edge7" class="edge">
<title>Node6&#45;&gt;Node7</title>
<path fill="none" stroke="midnightblue" d="M1661.85,-112.08C1660.13,-104.93 1657.65,-94.64 1655.5,-85.69"/>
<polygon fill="midnightblue" stroke="midnightblue" points="1658.85,-84.65 1653.11,-75.75 1652.04,-86.29 1658.85,-84.65"/>
</g>
<!-- Node6&#45;&gt;Node8 -->
<g id="edge9" class="edge">
<title>Node6&#45;&gt;Node8</title>
<path fill="none" stroke="midnightblue" d="M1677.98,-112.32C1691.55,-103.9 1712.38,-90.97 1728.32,-81.07"/>
<polygon fill="midnightblue" stroke="midnightblue" points="1730.41,-83.9 1737.06,-75.65 1726.71,-77.95 1730.41,-83.9"/>
</g>
<!-- Node9 -->
<g id="node9" class="node">
<title>Node9</title>
<g id="a_node9"><a xlink:title=" ">
<polygon fill="white" stroke="#bfbfbf" points="1682,-0.5 1682,-19.5 1820,-19.5 1820,-0.5 1682,-0.5"/>
<text text-anchor="middle" x="1751" y="-7.5" font-family="Helvetica,sans-Serif" font-size="10.00">SDL2/SDL2_gfxPrimitives.h</text>
</a>
</g>
</g>
<!-- Node8&#45;&gt;Node9 -->
<g id="edge10" class="edge">
<title>Node8&#45;&gt;Node9</title>
<path fill="none" stroke="midnightblue" d="M1751,-56.08C1751,-49.01 1751,-38.86 1751,-29.99"/>
<polygon fill="midnightblue" stroke="midnightblue" points="1754.5,-29.75 1751,-19.75 1747.5,-29.75 1754.5,-29.75"/>
</g>
<!-- Node10&#45;&gt;Node5 -->
<g id="edge13" class="edge">
<title>Node10&#45;&gt;Node5</title>
<path fill="none" stroke="midnightblue" d="M613.65,-168.46C622,-154.05 641.04,-125.16 666,-112 725.55,-80.6 930.84,-70.62 1009.75,-67.9"/>
<polygon fill="midnightblue" stroke="midnightblue" points="1010.14,-71.39 1020.02,-67.56 1009.91,-64.39 1010.14,-71.39"/>
</g>
<!-- Node11 -->
<g id="node11" class="node">
<title>Node11</title>
<g id="a_node11"><a xlink:title=" ">
<polygon fill="white" stroke="#bfbfbf" points="1210.5,-56.5 1210.5,-75.5 1281.5,-75.5 1281.5,-56.5 1210.5,-56.5"/>
<text text-anchor="middle" x="1246" y="-63.5" font-family="Helvetica,sans-Serif" font-size="10.00">SDL2/SDL.h</text>
</a>
</g>
</g>
<!-- Node10&#45;&gt;Node11 -->
<g id="edge12" class="edge">
<title>Node10&#45;&gt;Node11</title>
<path fill="none" stroke="midnightblue" d="M652.28,-172.7C764.54,-161.56 1056.52,-132.55 1059,-132 1116.37,-119.35 1180.5,-94.61 1216.78,-79.57"/>
<polygon fill="midnightblue" stroke="midnightblue" points="1218.38,-82.7 1226.25,-75.6 1215.67,-76.24 1218.38,-82.7"/>
</g>
<!-- Node12 -->
<g id="node12" class="node">
<title>Node12</title>
<g id="a_node12"><a xlink:title=" ">
<polygon fill="white" stroke="#bfbfbf" points="774,-112.5 774,-131.5 818,-131.5 818,-112.5 774,-112.5"/>
<text text-anchor="middle" x="796" y="-119.5" font-family="Helvetica,sans-Serif" font-size="10.00">vector</text>
</a>
</g>
</g>
<!-- Node10&#45;&gt;Node12 -->
<g id="edge14" class="edge">
<title>Node10&#45;&gt;Node12</title>
<path fill="none" stroke="midnightblue" d="M638.63,-168.44C672.84,-158.56 728.91,-142.37 764.07,-132.22"/>
<polygon fill="midnightblue" stroke="midnightblue" points="765.19,-135.54 773.83,-129.4 763.25,-128.81 765.19,-135.54"/>
</g>
<!-- Node13&#45;&gt;Node8 -->
<g id="edge18" class="edge">
<title>Node13&#45;&gt;Node8</title>
<path fill="none" stroke="midnightblue" d="M1586.58,-280.45C1699.69,-260.72 1958.92,-207.81 1996,-132 1999.91,-124.01 2001.69,-118.83 1996,-112 1983.58,-97.09 1868.08,-80.96 1800.19,-72.65"/>
<polygon fill="midnightblue" stroke="midnightblue" points="1800.48,-69.16 1790.13,-71.44 1799.64,-76.11 1800.48,-69.16"/>
</g>
<!-- Node14&#45;&gt;Node5 -->
<g id="edge22" class="edge">
<title>Node14&#45;&gt;Node5</title>
<path fill="none" stroke="midnightblue" d="M777.48,-286.74C693.35,-280.25 511.22,-255.94 557,-168 577.04,-129.5 596.39,-127.32 637,-112 705.4,-86.19 927.73,-72.68 1010.01,-68.47"/>
<polygon fill="midnightblue" stroke="midnightblue" points="1010.41,-71.95 1020.22,-67.96 1010.06,-64.96 1010.41,-71.95"/>
</g>
<!-- Node14&#45;&gt;Node10 -->
<g id="edge28" class="edge">
<title>Node14&#45;&gt;Node10</title>
<path fill="none" stroke="midnightblue" d="M777.1,-286.33C721.42,-281.74 626.24,-270.2 605,-244 594.56,-231.12 597.39,-211.67 601.72,-197.41"/>
<polygon fill="midnightblue" stroke="midnightblue" points="605.11,-198.29 605.12,-187.7 598.51,-195.98 605.11,-198.29"/>
</g>
<!-- Node14&#45;&gt;Node12 -->
<g id="edge24" class="edge">
<title>Node14&#45;&gt;Node12</title>
<path fill="none" stroke="midnightblue" d="M816.82,-280.08C813.35,-253.95 803.18,-177.21 798.46,-141.58"/>
<polygon fill="midnightblue" stroke="midnightblue" points="801.92,-141.02 797.14,-131.57 794.98,-141.94 801.92,-141.02"/>
</g>
<!-- Node15 -->
<g id="node15" class="node">
<title>Node15</title>
<g id="a_node15"><a xlink:title=" ">
<polygon fill="white" stroke="#bfbfbf" points="1366.5,-112.5 1366.5,-131.5 1401.5,-131.5 1401.5,-112.5 1366.5,-112.5"/>
<text text-anchor="middle" x="1384" y="-119.5" font-family="Helvetica,sans-Serif" font-size="10.00">map</text>
</a>
</g>
</g>
<!-- Node14&#45;&gt;Node15 -->
<g id="edge20" class="edge">
<title>Node14&#45;&gt;Node15</title>
<path fill="none" stroke="midnightblue" d="M858.55,-286.76C1010.42,-277.95 1539.32,-243.49 1588,-188 1593.86,-181.32 1593.64,-174.87 1588,-168 1538,-107.07 1489.65,-151.27 1411.41,-132.86"/>
<polygon fill="midnightblue" stroke="midnightblue" points="1412.29,-129.47 1401.72,-130.29 1410.49,-136.24 1412.29,-129.47"/>
</g>
<!-- Node16 -->
<g id="node16" class="node">
<title>Node16</title>
<g id="a_node16"><a xlink:title=" ">
<polygon fill="white" stroke="#bfbfbf" points="824.5,-168.5 824.5,-187.5 875.5,-187.5 875.5,-168.5 824.5,-168.5"/>
<text text-anchor="middle" x="850" y="-175.5" font-family="Helvetica,sans-Serif" font-size="10.00">memory</text>
</a>
</g>
</g>
<!-- Node14&#45;&gt;Node16 -->
<g id="edge21" class="edge">
<title>Node14&#45;&gt;Node16</title>
<path fill="none" stroke="midnightblue" d="M820.76,-280.4C823.65,-271.36 828.26,-256.72 832,-244 836.59,-228.38 841.51,-210.55 845.04,-197.52"/>
<polygon fill="midnightblue" stroke="midnightblue" points="848.42,-198.42 847.64,-187.86 841.66,-196.6 848.42,-198.42"/>
</g>
<!-- Node17 -->
<g id="node17" class="node">
<title>Node17</title>
<g id="a_node17"><a xlink:title=" ">
<polygon fill="white" stroke="#bfbfbf" points="750.5,-224.5 750.5,-243.5 789.5,-243.5 789.5,-224.5 750.5,-224.5"/>
<text text-anchor="middle" x="770" y="-231.5" font-family="Helvetica,sans-Serif" font-size="10.00">utility</text>
</a>
</g>
</g>
<!-- Node14&#45;&gt;Node17 -->
<g id="edge23" class="edge">
<title>Node14&#45;&gt;Node17</title>
<path fill="none" stroke="midnightblue" d="M810.07,-280.08C803.15,-272.3 792.93,-260.8 784.55,-251.37"/>
<polygon fill="midnightblue" stroke="midnightblue" points="787.04,-248.9 777.78,-243.75 781.81,-253.55 787.04,-248.9"/>
</g>
<!-- Node18 -->
<g id="node18" class="node">
<title>Node18</title>
<g id="a_node18"><a xlink:href="Exceptions_8h.html" target="_top" xlink:title="Interally used exceptions. These can be handled properly in the main game class.">
<polygon fill="white" stroke="black" points="613.5,-224.5 613.5,-243.5 732.5,-243.5 732.5,-224.5 613.5,-224.5"/>
<text text-anchor="middle" x="673" y="-231.5" font-family="Helvetica,sans-Serif" font-size="10.00">../common/Exceptions.h</text>
</a>
</g>
</g>
<!-- Node14&#45;&gt;Node18 -->
<g id="edge25" class="edge">
<title>Node14&#45;&gt;Node18</title>
<path fill="none" stroke="midnightblue" d="M795.02,-280.44C770.84,-271.44 732.58,-257.19 705.35,-247.05"/>
<polygon fill="midnightblue" stroke="midnightblue" points="706.46,-243.73 695.87,-243.52 704.02,-250.29 706.46,-243.73"/>
</g>
<!-- Node14&#45;&gt;Node20 -->
<g id="edge29" class="edge">
<title>Node14&#45;&gt;Node20</title>
<path fill="none" stroke="midnightblue" d="M858.52,-280.68C904.48,-271.24 979.55,-255.83 1029.6,-245.55"/>
<polygon fill="midnightblue" stroke="midnightblue" points="1030.48,-248.95 1039.57,-243.51 1029.07,-242.09 1030.48,-248.95"/>
</g>
<!-- Node18&#45;&gt;Node5 -->
<g id="edge27" class="edge">
<title>Node18&#45;&gt;Node5</title>
<path fill="none" stroke="midnightblue" d="M675.19,-224.36C678.81,-211.27 686.96,-186.01 700,-168 722.36,-137.11 730.44,-128.12 765,-112 847.53,-73.51 957.3,-67.26 1010.08,-66.68"/>
<polygon fill="midnightblue" stroke="midnightblue" points="1010.16,-70.18 1020.15,-66.63 1010.13,-63.18 1010.16,-70.18"/>
</g>
<!-- Node19 -->
<g id="node19" class="node">
<title>Node19</title>
<g id="a_node19"><a xlink:title=" ">
<polygon fill="white" stroke="#bfbfbf" points="708.5,-168.5 708.5,-187.5 767.5,-187.5 767.5,-168.5 708.5,-168.5"/>
<text text-anchor="middle" x="738" y="-175.5" font-family="Helvetica,sans-Serif" font-size="10.00">stdexcept</text>
</a>
</g>
</g>
<!-- Node18&#45;&gt;Node19 -->
<g id="edge26" class="edge">
<title>Node18&#45;&gt;Node19</title>
<path fill="none" stroke="midnightblue" d="M683.44,-224.32C693.15,-216.26 707.82,-204.08 719.5,-194.37"/>
<polygon fill="midnightblue" stroke="midnightblue" points="721.91,-196.92 727.37,-187.83 717.44,-191.53 721.91,-196.92"/>
</g>
<!-- Node20&#45;&gt;Node16 -->
<g id="edge30" class="edge">
<title>Node20&#45;&gt;Node16</title>
<path fill="none" stroke="midnightblue" d="M1042.62,-224.5C1005.07,-216.11 946,-202.73 885.34,-188.03"/>
<polygon fill="midnightblue" stroke="midnightblue" points="886.14,-184.63 875.59,-185.66 884.48,-191.43 886.14,-184.63"/>
</g>
<!-- Node21 -->
<g id="node21" class="node">
<title>Node21</title>
<g id="a_node21"><a xlink:href="AssetService_8h.html" target="_top" xlink:title="Implementation of AssetService.">
<polygon fill="white" stroke="black" points="1673.5,-168.5 1673.5,-187.5 1788.5,-187.5 1788.5,-168.5 1673.5,-168.5"/>
<text text-anchor="middle" x="1731" y="-175.5" font-family="Helvetica,sans-Serif" font-size="10.00">assets/AssetService.h</text>
</a>
</g>
</g>
<!-- Node20&#45;&gt;Node21 -->
<g id="edge31" class="edge">
<title>Node20&#45;&gt;Node21</title>
<path fill="none" stroke="midnightblue" d="M1136.07,-229.57C1238.94,-222.98 1467.24,-207.44 1659,-188 1660.3,-187.87 1661.62,-187.73 1662.95,-187.59"/>
<polygon fill="midnightblue" stroke="midnightblue" points="1663.7,-191.03 1673.26,-186.46 1662.94,-184.07 1663.7,-191.03"/>
</g>
<!-- Node26 -->
<g id="node26" class="node">
<title>Node26</title>
<g id="a_node26"><a xlink:href="AudioService_8h.html" target="_top" xlink:title="Default audio service, can actually play audio.">
<polygon fill="white" stroke="black" points="1807,-168.5 1807,-187.5 1915,-187.5 1915,-168.5 1807,-168.5"/>
<text text-anchor="middle" x="1861" y="-175.5" font-family="Helvetica,sans-Serif" font-size="10.00">audio/AudioService.h</text>
</a>
</g>
</g>
<!-- Node20&#45;&gt;Node26 -->
<g id="edge45" class="edge">
<title>Node20&#45;&gt;Node26</title>
<path fill="none" stroke="midnightblue" d="M1136.45,-231.02C1255.44,-226.44 1544.28,-213.59 1796.64,-188.06"/>
<polygon fill="midnightblue" stroke="midnightblue" points="1797.14,-191.53 1806.74,-187.03 1796.43,-184.56 1797.14,-191.53"/>
</g>
<!-- Node27 -->
<g id="node27" class="node">
<title>Node27</title>
<g id="a_node27"><a xlink:href="ConfigService_8h.html" target="_top" xlink:title="Header for default Config Service.">
<polygon fill="white" stroke="black" points="1325.5,-168.5 1325.5,-187.5 1438.5,-187.5 1438.5,-168.5 1325.5,-168.5"/>
<text text-anchor="middle" x="1382" y="-175.5" font-family="Helvetica,sans-Serif" font-size="10.00">config/ConfigService.h</text>
</a>
</g>
</g>
<!-- Node20&#45;&gt;Node27 -->
<g id="edge49" class="edge">
<title>Node20&#45;&gt;Node27</title>
<path fill="none" stroke="midnightblue" d="M1128.69,-224.44C1181.86,-214.9 1267.82,-199.48 1324.63,-189.29"/>
<polygon fill="midnightblue" stroke="midnightblue" points="1325.3,-192.73 1334.53,-187.52 1324.07,-185.84 1325.3,-192.73"/>
</g>
<!-- Node29 -->
<g id="node29" class="node">
<title>Node29</title>
<g id="a_node29"><a xlink:href="DisplayService_8h.html" target="_top" xlink:title="Service that encapsulates SDL display related functionality.">
<polygon fill="white" stroke="black" points="1457,-168.5 1457,-187.5 1579,-187.5 1579,-168.5 1457,-168.5"/>
<text text-anchor="middle" x="1518" y="-175.5" font-family="Helvetica,sans-Serif" font-size="10.00">display/DisplayService.h</text>
</a>
</g>
</g>
<!-- Node20&#45;&gt;Node29 -->
<g id="edge53" class="edge">
<title>Node20&#45;&gt;Node29</title>
<path fill="none" stroke="midnightblue" d="M1136.04,-226.35C1205.8,-217.91 1330.05,-202.79 1446.74,-188.15"/>
<polygon fill="midnightblue" stroke="midnightblue" points="1447.43,-191.59 1456.92,-186.87 1446.56,-184.65 1447.43,-191.59"/>
</g>
<!-- Node32 -->
<g id="node32" class="node">
<title>Node32</title>
<g id="a_node32"><a xlink:href="EventQueue_8h.html" target="_top" xlink:title="Handles SDL_Events from main SDL_Queue. Can be hooked into by other services and notified when change...">
<polygon fill="white" stroke="black" points="1026,-168.5 1026,-187.5 1136,-187.5 1136,-168.5 1026,-168.5"/>
<text text-anchor="middle" x="1081" y="-175.5" font-family="Helvetica,sans-Serif" font-size="10.00">events/EventQueue.h</text>
</a>
</g>
</g>
<!-- Node20&#45;&gt;Node32 -->
<g id="edge60" class="edge">
<title>Node20&#45;&gt;Node32</title>
<path fill="none" stroke="midnightblue" d="M1081,-224.08C1081,-217.01 1081,-206.86 1081,-197.99"/>
<polygon fill="midnightblue" stroke="midnightblue" points="1084.5,-197.75 1081,-187.75 1077.5,-197.75 1084.5,-197.75"/>
</g>
<!-- Node33 -->
<g id="node33" class="node">
<title>Node33</title>
<g id="a_node33"><a xlink:href="InputService_8h.html" target="_top" xlink:title="General Purpose input listener. Handles Mouse, Keyboard, Joystick.">
<polygon fill="white" stroke="black" points="368.5,-168.5 368.5,-187.5 471.5,-187.5 471.5,-168.5 368.5,-168.5"/>
<text text-anchor="middle" x="420" y="-175.5" font-family="Helvetica,sans-Serif" font-size="10.00">input/InputService.h</text>
</a>
</g>
</g>
<!-- Node20&#45;&gt;Node33 -->
<g id="edge64" class="edge">
<title>Node20&#45;&gt;Node33</title>
<path fill="none" stroke="midnightblue" d="M1025.78,-228.49C903.43,-218.49 610.22,-194.54 481.9,-184.06"/>
<polygon fill="midnightblue" stroke="midnightblue" points="482.1,-180.56 471.85,-183.24 481.53,-187.54 482.1,-180.56"/>
</g>
<!-- Node41 -->
<g id="node41" class="node">
<title>Node41</title>
<g id="a_node41"><a xlink:href="DebugLoggingService_8h.html" target="_top" xlink:title="Logging service that does the logging. Used for development.">
<polygon fill="white" stroke="black" points="1154.5,-168.5 1154.5,-187.5 1307.5,-187.5 1307.5,-168.5 1154.5,-168.5"/>
<text text-anchor="middle" x="1231" y="-175.5" font-family="Helvetica,sans-Serif" font-size="10.00">logging/DebugLoggingService.h</text>
</a>
</g>
</g>
<!-- Node20&#45;&gt;Node41 -->
<g id="edge77" class="edge">
<title>Node20&#45;&gt;Node41</title>
<path fill="none" stroke="midnightblue" d="M1104.77,-224.44C1129.89,-215.4 1169.71,-201.06 1197.9,-190.92"/>
<polygon fill="midnightblue" stroke="midnightblue" points="1199.12,-194.2 1207.34,-187.52 1196.75,-187.61 1199.12,-194.2"/>
</g>
<!-- Node43 -->
<g id="node43" class="node">
<title>Node43</title>
<g id="a_node43"><a xlink:href="SceneService_8h.html" target="_top" xlink:title="Service in charge of managing scenes.">
<polygon fill="white" stroke="black" points="894,-168.5 894,-187.5 1008,-187.5 1008,-168.5 894,-168.5"/>
<text text-anchor="middle" x="951" y="-175.5" font-family="Helvetica,sans-Serif" font-size="10.00">scene/SceneService.h</text>
</a>
</g>
</g>
<!-- Node20&#45;&gt;Node43 -->
<g id="edge81" class="edge">
<title>Node20&#45;&gt;Node43</title>
<path fill="none" stroke="midnightblue" d="M1060.4,-224.44C1039.01,-215.56 1005.32,-201.56 980.98,-191.45"/>
<polygon fill="midnightblue" stroke="midnightblue" points="982.08,-188.12 971.5,-187.52 979.39,-194.58 982.08,-188.12"/>
</g>
<!-- Node21&#45;&gt;Node5 -->
<g id="edge33" class="edge">
<title>Node21&#45;&gt;Node5</title>
<path fill="none" stroke="midnightblue" d="M1673.46,-172.29C1616.69,-166.57 1527.93,-154.72 1454,-132 1433.85,-125.81 1431.27,-117.79 1411,-112 1347.27,-93.8 1148.59,-75.91 1071.76,-69.49"/>
<polygon fill="midnightblue" stroke="midnightblue" points="1072.01,-66 1061.76,-68.66 1071.43,-72.98 1072.01,-66"/>
</g>
<!-- Node21&#45;&gt;Node6 -->
<g id="edge34" class="edge">
<title>Node21&#45;&gt;Node6</title>
<path fill="none" stroke="midnightblue" d="M1720.24,-168.32C1710.23,-160.26 1695.11,-148.08 1683.07,-138.37"/>
<polygon fill="midnightblue" stroke="midnightblue" points="1684.94,-135.38 1674.96,-131.83 1680.55,-140.83 1684.94,-135.38"/>
</g>
<!-- Node21&#45;&gt;Node15 -->
<g id="edge32" class="edge">
<title>Node21&#45;&gt;Node15</title>
<path fill="none" stroke="midnightblue" d="M1673.41,-171.09C1609.94,-164.04 1505.05,-150.8 1416,-132 1414.52,-131.69 1413,-131.34 1411.48,-130.98"/>
<polygon fill="midnightblue" stroke="midnightblue" points="1412.06,-127.51 1401.5,-128.37 1410.29,-134.29 1412.06,-127.51"/>
</g>
<!-- Node22 -->
<g id="node22" class="node">
<title>Node22</title>
<g id="a_node22"><a xlink:href="Sound_8h.html" target="_top" xlink:title="Implementation of Sound.">
<polygon fill="white" stroke="black" points="1766.5,-112.5 1766.5,-131.5 1865.5,-131.5 1865.5,-112.5 1766.5,-112.5"/>
<text text-anchor="middle" x="1816" y="-119.5" font-family="Helvetica,sans-Serif" font-size="10.00">../../assets/Sound.h</text>
</a>
</g>
</g>
<!-- Node21&#45;&gt;Node22 -->
<g id="edge35" class="edge">
<title>Node21&#45;&gt;Node22</title>
<path fill="none" stroke="midnightblue" d="M1744.66,-168.32C1757.92,-159.9 1778.27,-146.97 1793.85,-137.07"/>
<polygon fill="midnightblue" stroke="midnightblue" points="1795.81,-139.97 1802.38,-131.65 1792.06,-134.06 1795.81,-139.97"/>
</g>
<!-- Node24 -->
<g id="node24" class="node">
<title>Node24</title>
<g id="a_node24"><a xlink:href="Stream_8h.html" target="_top" xlink:title="Wrapper for sdl stream including ability to store stream pointer. Use for single instance sounds like...">
<polygon fill="white" stroke="black" points="1883.5,-112.5 1883.5,-131.5 1986.5,-131.5 1986.5,-112.5 1883.5,-112.5"/>
<text text-anchor="middle" x="1935" y="-119.5" font-family="Helvetica,sans-Serif" font-size="10.00">../../assets/Stream.h</text>
</a>
</g>
</g>
<!-- Node21&#45;&gt;Node24 -->
<g id="edge38" class="edge">
<title>Node21&#45;&gt;Node24</title>
<path fill="none" stroke="midnightblue" d="M1763.32,-168.44C1798.39,-159.16 1854.5,-144.31 1892.96,-134.13"/>
<polygon fill="midnightblue" stroke="midnightblue" points="1894.06,-137.46 1902.83,-131.52 1892.26,-130.69 1894.06,-137.46"/>
</g>
<!-- Node25 -->
<g id="node25" class="node">
<title>Node25</title>
<g id="a_node25"><a xlink:href="Texture_8h.html" target="_top" xlink:title="Easy interface to interact with sdl bitmaps.">
<polygon fill="white" stroke="black" points="1496,-112.5 1496,-131.5 1600,-131.5 1600,-112.5 1496,-112.5"/>
<text text-anchor="middle" x="1548" y="-119.5" font-family="Helvetica,sans-Serif" font-size="10.00">../../assets/Texture.h</text>
</a>
</g>
</g>
<!-- Node21&#45;&gt;Node25 -->
<g id="edge41" class="edge">
<title>Node21&#45;&gt;Node25</title>
<path fill="none" stroke="midnightblue" d="M1702,-168.44C1670.82,-159.24 1621.07,-144.56 1586.59,-134.39"/>
<polygon fill="midnightblue" stroke="midnightblue" points="1587.44,-130.99 1576.86,-131.52 1585.46,-137.7 1587.44,-130.99"/>
</g>
<!-- Node22&#45;&gt;Node5 -->
<g id="edge37" class="edge">
<title>Node22&#45;&gt;Node5</title>
<path fill="none" stroke="midnightblue" d="M1766.18,-116.12C1751.03,-114.71 1734.34,-113.22 1719,-112 1469.32,-92.13 1167.43,-74.27 1071.68,-68.75"/>
<polygon fill="midnightblue" stroke="midnightblue" points="1071.72,-65.25 1061.54,-68.17 1071.32,-72.23 1071.72,-65.25"/>
</g>
<!-- Node23 -->
<g id="node23" class="node">
<title>Node23</title>
<g id="a_node23"><a xlink:title=" ">
<polygon fill="white" stroke="#bfbfbf" points="1853,-56.5 1853,-75.5 1953,-75.5 1953,-56.5 1853,-56.5"/>
<text text-anchor="middle" x="1903" y="-63.5" font-family="Helvetica,sans-Serif" font-size="10.00">SDL2/SDL_mixer.h</text>
</a>
</g>
</g>
<!-- Node22&#45;&gt;Node23 -->
<g id="edge36" class="edge">
<title>Node22&#45;&gt;Node23</title>
<path fill="none" stroke="midnightblue" d="M1829.98,-112.32C1843.55,-103.9 1864.38,-90.97 1880.32,-81.07"/>
<polygon fill="midnightblue" stroke="midnightblue" points="1882.41,-83.9 1889.06,-75.65 1878.71,-77.95 1882.41,-83.9"/>
</g>
<!-- Node24&#45;&gt;Node5 -->
<g id="edge40" class="edge">
<title>Node24&#45;&gt;Node5</title>
<path fill="none" stroke="midnightblue" d="M1883.33,-112.93C1880.51,-112.59 1877.72,-112.28 1875,-112 1576.99,-81.75 1501.09,-92.36 1202,-76 1156.67,-73.52 1104.16,-70.57 1071.76,-68.74"/>
<polygon fill="midnightblue" stroke="midnightblue" points="1071.77,-65.24 1061.59,-68.17 1071.37,-72.23 1071.77,-65.24"/>
</g>
<!-- Node24&#45;&gt;Node23 -->
<g id="edge39" class="edge">
<title>Node24&#45;&gt;Node23</title>
<path fill="none" stroke="midnightblue" d="M1929.72,-112.08C1925.29,-104.61 1918.84,-93.72 1913.38,-84.52"/>
<polygon fill="midnightblue" stroke="midnightblue" points="1916.29,-82.57 1908.19,-75.75 1910.27,-86.14 1916.29,-82.57"/>
</g>
<!-- Node25&#45;&gt;Node5 -->
<g id="edge43" class="edge">
<title>Node25&#45;&gt;Node5</title>
<path fill="none" stroke="midnightblue" d="M1495.78,-113.71C1491.12,-113.11 1486.48,-112.53 1482,-112 1328.26,-93.68 1143.82,-76.36 1071.86,-69.79"/>
<polygon fill="midnightblue" stroke="midnightblue" points="1071.97,-66.28 1061.69,-68.86 1071.33,-73.25 1071.97,-66.28"/>
</g>
<!-- Node25&#45;&gt;Node8 -->
<g id="edge44" class="edge">
<title>Node25&#45;&gt;Node8</title>
<path fill="none" stroke="midnightblue" d="M1580.17,-112.44C1615.06,-103.16 1670.89,-88.31 1709.17,-78.13"/>
<polygon fill="midnightblue" stroke="midnightblue" points="1710.22,-81.47 1718.98,-75.52 1708.42,-74.7 1710.22,-81.47"/>
</g>
<!-- Node25&#45;&gt;Node11 -->
<g id="edge42" class="edge">
<title>Node25&#45;&gt;Node11</title>
<path fill="none" stroke="midnightblue" d="M1500.15,-112.44C1443,-102.22 1348.09,-85.25 1291.84,-75.2"/>
<polygon fill="midnightblue" stroke="midnightblue" points="1292.27,-71.72 1281.81,-73.4 1291.03,-78.61 1292.27,-71.72"/>
</g>
<!-- Node26&#45;&gt;Node5 -->
<g id="edge46" class="edge">
<title>Node26&#45;&gt;Node5</title>
<path fill="none" stroke="midnightblue" d="M1806.72,-169.15C1803.77,-168.75 1800.85,-168.37 1798,-168 1660,-150.16 1620.55,-171.06 1487,-132 1467.54,-126.31 1465.47,-117.65 1446,-112 1375.61,-91.59 1153.86,-74.74 1071.87,-69.06"/>
<polygon fill="midnightblue" stroke="midnightblue" points="1071.91,-65.55 1061.7,-68.36 1071.43,-72.54 1071.91,-65.55"/>
</g>
<!-- Node26&#45;&gt;Node22 -->
<g id="edge47" class="edge">
<title>Node26&#45;&gt;Node22</title>
<path fill="none" stroke="midnightblue" d="M1853.57,-168.08C1847.15,-160.38 1837.69,-149.03 1829.88,-139.65"/>
<polygon fill="midnightblue" stroke="midnightblue" points="1832.38,-137.19 1823.29,-131.75 1827.01,-141.67 1832.38,-137.19"/>
</g>
<!-- Node26&#45;&gt;Node24 -->
<g id="edge48" class="edge">
<title>Node26&#45;&gt;Node24</title>
<path fill="none" stroke="midnightblue" d="M1872.89,-168.32C1884.15,-160.11 1901.29,-147.6 1914.71,-137.81"/>
<polygon fill="midnightblue" stroke="midnightblue" points="1916.88,-140.56 1922.89,-131.83 1912.75,-134.9 1916.88,-140.56"/>
</g>
<!-- Node27&#45;&gt;Node5 -->
<g id="edge52" class="edge">
<title>Node27&#45;&gt;Node5</title>
<path fill="none" stroke="midnightblue" d="M1344.98,-168.48C1310.11,-160.17 1256.59,-146.67 1211,-132 1160.9,-115.88 1104.03,-93.22 1070.41,-79.36"/>
<polygon fill="midnightblue" stroke="midnightblue" points="1071.74,-76.12 1061.16,-75.52 1069.06,-82.58 1071.74,-76.12"/>
</g>
<!-- Node27&#45;&gt;Node15 -->
<g id="edge50" class="edge">
<title>Node27&#45;&gt;Node15</title>
<path fill="none" stroke="midnightblue" d="M1382.33,-168.08C1382.59,-161.01 1382.97,-150.86 1383.3,-141.99"/>
<polygon fill="midnightblue" stroke="midnightblue" points="1386.8,-141.87 1383.68,-131.75 1379.81,-141.61 1386.8,-141.87"/>
</g>
<!-- Node28 -->
<g id="node28" class="node">
<title>Node28</title>
<g id="a_node28"><a xlink:title=" ">
<polygon fill="white" stroke="#bfbfbf" points="1220,-112.5 1220,-131.5 1272,-131.5 1272,-112.5 1220,-112.5"/>
<text text-anchor="middle" x="1246" y="-119.5" font-family="Helvetica,sans-Serif" font-size="10.00">sstream</text>
</a>
</g>
</g>
<!-- Node27&#45;&gt;Node28 -->
<g id="edge51" class="edge">
<title>Node27&#45;&gt;Node28</title>
<path fill="none" stroke="midnightblue" d="M1360.45,-168.44C1337.97,-159.52 1302.51,-145.44 1277.02,-135.32"/>
<polygon fill="midnightblue" stroke="midnightblue" points="1278.03,-131.95 1267.45,-131.52 1275.45,-138.46 1278.03,-131.95"/>
</g>
<!-- Node29&#45;&gt;Node5 -->
<g id="edge55" class="edge">
<title>Node29&#45;&gt;Node5</title>
<path fill="none" stroke="midnightblue" d="M1456.57,-168.53C1415.52,-161.64 1360.85,-150.04 1315,-132 1298.69,-125.58 1297.42,-118.15 1281,-112 1208.82,-84.95 1118.09,-73.62 1071.58,-69.33"/>
<polygon fill="midnightblue" stroke="midnightblue" points="1071.82,-65.84 1061.55,-68.45 1071.21,-72.81 1071.82,-65.84"/>
</g>
<!-- Node29&#45;&gt;Node8 -->
<g id="edge56" class="edge">
<title>Node29&#45;&gt;Node8</title>
<path fill="none" stroke="midnightblue" d="M1579.26,-176.79C1622.43,-173.67 1679.38,-163.18 1719,-132 1733.65,-120.47 1742.06,-100.5 1746.55,-85.73"/>
<polygon fill="midnightblue" stroke="midnightblue" points="1750.04,-86.24 1749.25,-75.68 1743.28,-84.42 1750.04,-86.24"/>
</g>
<!-- Node29&#45;&gt;Node11 -->
<g id="edge54" class="edge">
<title>Node29&#45;&gt;Node11</title>
<path fill="none" stroke="midnightblue" d="M1476.93,-168.46C1444.03,-160.9 1397.07,-148.52 1358,-132 1324.66,-117.9 1288.96,-95.83 1267.05,-81.39"/>
<polygon fill="midnightblue" stroke="midnightblue" points="1268.81,-78.35 1258.55,-75.71 1264.92,-84.18 1268.81,-78.35"/>
</g>
<!-- Node30 -->
<g id="node30" class="node">
<title>Node30</title>
<g id="a_node30"><a xlink:href="Service_8h.html" target="_top" xlink:title="Service subscriber that can listen for events.">
<polygon fill="white" stroke="black" points="874.5,-112.5 874.5,-131.5 939.5,-131.5 939.5,-112.5 874.5,-112.5"/>
<text text-anchor="middle" x="907" y="-119.5" font-family="Helvetica,sans-Serif" font-size="10.00">../Service.h</text>
</a>
</g>
</g>
<!-- Node29&#45;&gt;Node30 -->
<g id="edge57" class="edge">
<title>Node29&#45;&gt;Node30</title>
<path fill="none" stroke="midnightblue" d="M1456.94,-168.95C1453.92,-168.61 1450.93,-168.29 1448,-168 1230,-146.14 1170.85,-162.86 949.9,-131.92"/>
<polygon fill="midnightblue" stroke="midnightblue" points="950.33,-128.45 939.94,-130.51 949.35,-135.38 950.33,-128.45"/>
</g>
<!-- Node30&#45;&gt;Node5 -->
<g id="edge59" class="edge">
<title>Node30&#45;&gt;Node5</title>
<path fill="none" stroke="midnightblue" d="M928.23,-112.44C950.51,-103.46 985.73,-89.27 1010.88,-79.14"/>
<polygon fill="midnightblue" stroke="midnightblue" points="1012.34,-82.32 1020.31,-75.34 1009.72,-75.83 1012.34,-82.32"/>
</g>
<!-- Node31 -->
<g id="node31" class="node">
<title>Node31</title>
<g id="a_node31"><a xlink:title=" ">
<polygon fill="white" stroke="#bfbfbf" points="210,-56.5 210,-75.5 316,-75.5 316,-56.5 210,-56.5"/>
<text text-anchor="middle" x="263" y="-63.5" font-family="Helvetica,sans-Serif" font-size="10.00">SDL2/SDL_events.h</text>
</a>
</g>
</g>
<!-- Node30&#45;&gt;Node31 -->
<g id="edge58" class="edge">
<title>Node30&#45;&gt;Node31</title>
<path fill="none" stroke="midnightblue" d="M874.34,-117.02C859.85,-115.34 842.59,-113.44 827,-112 607.52,-91.79 549.09,-99.84 326.12,-76.04"/>
<polygon fill="midnightblue" stroke="midnightblue" points="326.38,-72.55 316.07,-74.96 325.64,-79.51 326.38,-72.55"/>
</g>
<!-- Node32&#45;&gt;Node11 -->
<g id="edge61" class="edge">
<title>Node32&#45;&gt;Node11</title>
<path fill="none" stroke="midnightblue" d="M1093.95,-168.37C1122.26,-149.49 1189.92,-104.38 1224.64,-81.24"/>
<polygon fill="midnightblue" stroke="midnightblue" points="1226.73,-84.05 1233.11,-75.59 1222.85,-78.23 1226.73,-84.05"/>
</g>
<!-- Node32&#45;&gt;Node12 -->
<g id="edge62" class="edge">
<title>Node32&#45;&gt;Node12</title>
<path fill="none" stroke="midnightblue" d="M1035.84,-168.44C977.96,-157.48 879.04,-138.73 828.22,-129.1"/>
<polygon fill="midnightblue" stroke="midnightblue" points="828.61,-125.62 818.14,-127.19 827.31,-132.49 828.61,-125.62"/>
</g>
<!-- Node32&#45;&gt;Node30 -->
<g id="edge63" class="edge">
<title>Node32&#45;&gt;Node30</title>
<path fill="none" stroke="midnightblue" d="M1053.43,-168.44C1023.9,-159.28 976.88,-144.69 944.12,-134.52"/>
<polygon fill="midnightblue" stroke="midnightblue" points="945.03,-131.14 934.44,-131.52 942.96,-137.82 945.03,-131.14"/>
</g>
<!-- Node33&#45;&gt;Node5 -->
<g id="edge67" class="edge">
<title>Node33&#45;&gt;Node5</title>
<path fill="none" stroke="midnightblue" d="M425.68,-168.34C435.8,-153.74 458.51,-124.59 486,-112 580.45,-68.76 907.48,-66.41 1010.01,-66.76"/>
<polygon fill="midnightblue" stroke="midnightblue" points="1010.28,-70.27 1020.3,-66.81 1010.32,-63.27 1010.28,-70.27"/>
</g>
<!-- Node33&#45;&gt;Node30 -->
<g id="edge68" class="edge">
<title>Node33&#45;&gt;Node30</title>
<path fill="none" stroke="midnightblue" d="M471.72,-171.31C549.03,-162.81 699.3,-146.24 827,-132 839.03,-130.66 852.08,-129.19 864.08,-127.84"/>
<polygon fill="midnightblue" stroke="midnightblue" points="864.76,-131.29 874.31,-126.69 863.98,-124.33 864.76,-131.29"/>
</g>
<!-- Node33&#45;&gt;Node31 -->
<g id="edge65" class="edge">
<title>Node33&#45;&gt;Node31</title>
<path fill="none" stroke="midnightblue" d="M372.54,-168.45C321.19,-158.72 245.45,-142.78 237,-132 225.7,-117.58 236.72,-97.61 247.69,-83.62"/>
<polygon fill="midnightblue" stroke="midnightblue" points="250.53,-85.68 254.32,-75.79 245.19,-81.16 250.53,-85.68"/>
</g>
<!-- Node34 -->
<g id="node34" class="node">
<title>Node34</title>
<g id="a_node34"><a xlink:title=" ">
<polygon fill="white" stroke="#bfbfbf" points="380,-112.5 380,-131.5 434,-131.5 434,-112.5 380,-112.5"/>
<text text-anchor="middle" x="407" y="-119.5" font-family="Helvetica,sans-Serif" font-size="10.00">iostream</text>
</a>
</g>
</g>
<!-- Node33&#45;&gt;Node34 -->
<g id="edge66" class="edge">
<title>Node33&#45;&gt;Node34</title>
<path fill="none" stroke="midnightblue" d="M417.85,-168.08C416.13,-160.93 413.65,-150.64 411.5,-141.69"/>
<polygon fill="midnightblue" stroke="midnightblue" points="414.85,-140.65 409.11,-131.75 408.04,-142.29 414.85,-140.65"/>
</g>
<!-- Node35 -->
<g id="node35" class="node">
<title>Node35</title>
<g id="a_node35"><a xlink:href="JoystickState_8h.html" target="_top" xlink:title="Container for storing Joystick state.">
<polygon fill="white" stroke="black" points="106.5,-112.5 106.5,-131.5 189.5,-131.5 189.5,-112.5 106.5,-112.5"/>
<text text-anchor="middle" x="148" y="-119.5" font-family="Helvetica,sans-Serif" font-size="10.00">JoystickState.h</text>
</a>
</g>
</g>
<!-- Node33&#45;&gt;Node35 -->
<g id="edge69" class="edge">
<title>Node33&#45;&gt;Node35</title>
<path fill="none" stroke="midnightblue" d="M376.9,-168.44C328.73,-158.88 250.78,-143.4 199.45,-133.21"/>
<polygon fill="midnightblue" stroke="midnightblue" points="200.05,-129.77 189.56,-131.25 198.69,-136.63 200.05,-129.77"/>
</g>
<!-- Node37 -->
<g id="node37" class="node">
<title>Node37</title>
<g id="a_node37"><a xlink:href="KeyboardState_8h.html" target="_top" xlink:title="Container for storing Keyboard state.">
<polygon fill="white" stroke="black" points="0,-112.5 0,-131.5 88,-131.5 88,-112.5 0,-112.5"/>
<text text-anchor="middle" x="44" y="-119.5" font-family="Helvetica,sans-Serif" font-size="10.00">KeyboardState.h</text>
</a>
</g>
</g>
<!-- Node33&#45;&gt;Node37 -->
<g id="edge72" class="edge">
<title>Node33&#45;&gt;Node37</title>
<path fill="none" stroke="midnightblue" d="M368.42,-169.35C365.23,-168.89 362.07,-168.44 359,-168 245.82,-151.88 214.85,-149.94 98.27,-132.16"/>
<polygon fill="midnightblue" stroke="midnightblue" points="98.64,-128.67 88.23,-130.62 97.58,-135.59 98.64,-128.67"/>
</g>
<!-- Node39 -->
<g id="node39" class="node">
<title>Node39</title>
<g id="a_node39"><a xlink:href="MouseState_8h.html" target="_top" xlink:title="Container for storing Mouse state.">
<polygon fill="white" stroke="black" points="246.5,-112.5 246.5,-131.5 323.5,-131.5 323.5,-112.5 246.5,-112.5"/>
<text text-anchor="middle" x="285" y="-119.5" font-family="Helvetica,sans-Serif" font-size="10.00">MouseState.h</text>
</a>
</g>
</g>
<!-- Node33&#45;&gt;Node39 -->
<g id="edge74" class="edge">
<title>Node33&#45;&gt;Node39</title>
<path fill="none" stroke="midnightblue" d="M398.61,-168.44C376.29,-159.52 341.1,-145.44 315.79,-135.32"/>
<polygon fill="midnightblue" stroke="midnightblue" points="316.88,-131.98 306.29,-131.52 314.28,-138.48 316.88,-131.98"/>
</g>
<!-- Node35&#45;&gt;Node31 -->
<g id="edge70" class="edge">
<title>Node35&#45;&gt;Node31</title>
<path fill="none" stroke="midnightblue" d="M166.22,-112.44C184.9,-103.68 214.16,-89.94 235.62,-79.86"/>
<polygon fill="midnightblue" stroke="midnightblue" points="237.3,-82.93 244.86,-75.52 234.32,-76.6 237.3,-82.93"/>
</g>
<!-- Node36 -->
<g id="node36" class="node">
<title>Node36</title>
<g id="a_node36"><a xlink:href="JoystickCodes_8h.html" target="_top" xlink:title="Defines for codes used for joystick.">
<polygon fill="white" stroke="black" points="104,-56.5 104,-75.5 192,-75.5 192,-56.5 104,-56.5"/>
<text text-anchor="middle" x="148" y="-63.5" font-family="Helvetica,sans-Serif" font-size="10.00">JoystickCodes.h</text>
</a>
</g>
</g>
<!-- Node35&#45;&gt;Node36 -->
<g id="edge71" class="edge">
<title>Node35&#45;&gt;Node36</title>
<path fill="none" stroke="midnightblue" d="M148,-112.08C148,-105.01 148,-94.86 148,-85.99"/>
<polygon fill="midnightblue" stroke="midnightblue" points="151.5,-85.75 148,-75.75 144.5,-85.75 151.5,-85.75"/>
</g>
<!-- Node38 -->
<g id="node38" class="node">
<title>Node38</title>
<g id="a_node38"><a xlink:href="KeyboardKeys_8h.html" target="_top" xlink:title="Defenitions of keys that can be used by input manager.">
<polygon fill="white" stroke="black" points="0,-56.5 0,-75.5 86,-75.5 86,-56.5 0,-56.5"/>
<text text-anchor="middle" x="43" y="-63.5" font-family="Helvetica,sans-Serif" font-size="10.00">KeyboardKeys.h</text>
</a>
</g>
</g>
<!-- Node37&#45;&gt;Node38 -->
<g id="edge73" class="edge">
<title>Node37&#45;&gt;Node38</title>
<path fill="none" stroke="midnightblue" d="M43.83,-112.08C43.7,-105.01 43.52,-94.86 43.35,-85.99"/>
<polygon fill="midnightblue" stroke="midnightblue" points="46.85,-85.68 43.16,-75.75 39.85,-85.81 46.85,-85.68"/>
</g>
<!-- Node39&#45;&gt;Node31 -->
<g id="edge75" class="edge">
<title>Node39&#45;&gt;Node31</title>
<path fill="none" stroke="midnightblue" d="M281.37,-112.08C278.39,-104.77 274.07,-94.18 270.38,-85.1"/>
<polygon fill="midnightblue" stroke="midnightblue" points="273.58,-83.69 266.57,-75.75 267.1,-86.33 273.58,-83.69"/>
</g>
<!-- Node40 -->
<g id="node40" class="node">
<title>Node40</title>
<g id="a_node40"><a xlink:title=" ">
<polygon fill="white" stroke="#bfbfbf" points="334,-56.5 334,-75.5 440,-75.5 440,-56.5 334,-56.5"/>
<text text-anchor="middle" x="387" y="-63.5" font-family="Helvetica,sans-Serif" font-size="10.00">SDL2/SDL_mouse.h</text>
</a>
</g>
</g>
<!-- Node39&#45;&gt;Node40 -->
<g id="edge76" class="edge">
<title>Node39&#45;&gt;Node40</title>
<path fill="none" stroke="midnightblue" d="M301.39,-112.32C317.67,-103.7 342.87,-90.36 361.72,-80.39"/>
<polygon fill="midnightblue" stroke="midnightblue" points="363.45,-83.43 370.65,-75.65 360.18,-77.24 363.45,-83.43"/>
</g>
<!-- Node41&#45;&gt;Node5 -->
<g id="edge78" class="edge">
<title>Node41&#45;&gt;Node5</title>
<path fill="none" stroke="midnightblue" d="M1216.09,-168.37C1183.21,-149.33 1104.24,-103.62 1064.58,-80.65"/>
<polygon fill="midnightblue" stroke="midnightblue" points="1066.25,-77.57 1055.84,-75.59 1062.74,-83.63 1066.25,-77.57"/>
</g>
<!-- Node42 -->
<g id="node42" class="node">
<title>Node42</title>
<g id="a_node42"><a xlink:href="LoggingService_8h.html" target="_top" xlink:title="Default logging service. Does nothing. Use in production.">
<polygon fill="white" stroke="black" points="958,-112.5 958,-131.5 1050,-131.5 1050,-112.5 958,-112.5"/>
<text text-anchor="middle" x="1004" y="-119.5" font-family="Helvetica,sans-Serif" font-size="10.00">LoggingService.h</text>
</a>
</g>
</g>
<!-- Node41&#45;&gt;Node42 -->
<g id="edge79" class="edge">
<title>Node41&#45;&gt;Node42</title>
<path fill="none" stroke="midnightblue" d="M1195.03,-168.44C1155.68,-159.08 1092.51,-144.06 1049.69,-133.87"/>
<polygon fill="midnightblue" stroke="midnightblue" points="1050.34,-130.43 1039.8,-131.52 1048.72,-137.24 1050.34,-130.43"/>
</g>
<!-- Node42&#45;&gt;Node5 -->
<g id="edge80" class="edge">
<title>Node42&#45;&gt;Node5</title>
<path fill="none" stroke="midnightblue" d="M1010.11,-112.08C1015.28,-104.53 1022.85,-93.49 1029.19,-84.23"/>
<polygon fill="midnightblue" stroke="midnightblue" points="1032.24,-85.98 1035,-75.75 1026.46,-82.02 1032.24,-85.98"/>
</g>
<!-- Node43&#45;&gt;Node5 -->
<g id="edge82" class="edge">
<title>Node43&#45;&gt;Node5</title>
<path fill="none" stroke="midnightblue" d="M922.39,-168.47C890.74,-157.55 846.59,-137.03 866,-112 883.53,-89.39 964.9,-76.16 1010.25,-70.42"/>
<polygon fill="midnightblue" stroke="midnightblue" points="1010.91,-73.86 1020.42,-69.18 1010.07,-66.91 1010.91,-73.86"/>
</g>
<!-- Node43&#45;&gt;Node12 -->
<g id="edge83" class="edge">
<title>Node43&#45;&gt;Node12</title>
<path fill="none" stroke="midnightblue" d="M926.44,-168.44C899.87,-159.19 857.39,-144.39 828.17,-134.21"/>
<polygon fill="midnightblue" stroke="midnightblue" points="829.03,-130.8 818.43,-130.82 826.72,-137.41 829.03,-130.8"/>
</g>
<!-- Node43&#45;&gt;Node30 -->
<g id="edge84" class="edge">
<title>Node43&#45;&gt;Node30</title>
<path fill="none" stroke="midnightblue" d="M943.73,-168.08C937.46,-160.38 928.21,-149.03 920.57,-139.65"/>
<polygon fill="midnightblue" stroke="midnightblue" points="923.16,-137.29 914.13,-131.75 917.73,-141.71 923.16,-137.29"/>
</g>
</g>
</svg>
