<?xml version="1.0" encoding="UTF-8" standalone="no"?>
<!DOCTYPE svg PUBLIC "-//W3C//DTD SVG 1.1//EN"
 "http://www.w3.org/Graphics/SVG/1.1/DTD/svg11.dtd">
<!-- Generated by graphviz version 2.46.1 (20210215.1649)
 -->
<!-- Title: afk::GameObject Pages: 1 -->
<svg width="570pt" height="140pt"
 viewBox="0.00 0.00 569.50 140.00" xmlns="http://www.w3.org/2000/svg" xmlns:xlink="http://www.w3.org/1999/xlink">
<g id="graph0" class="graph" transform="scale(1 1) rotate(0) translate(4 136)">
<title>afk::GameObject</title>
<polygon fill="white" stroke="transparent" points="-4,4 -4,-136 565.5,-136 565.5,4 -4,4"/>
<!-- Node1 -->
<g id="node1" class="node">
<title>Node1</title>
<g id="a_node1"><a xlink:title="A collidable object! Parent class for many others.">
<polygon fill="#bfbfbf" stroke="black" points="101.5,-112.5 101.5,-131.5 190.5,-131.5 190.5,-112.5 101.5,-112.5"/>
<text text-anchor="middle" x="146" y="-119.5" font-family="Helvetica,sans-Serif" font-size="10.00">afk::GameObject</text>
</a>
</g>
</g>
<!-- Node2 -->
<g id="node2" class="node">
<title>Node2</title>
<g id="a_node2"><a xlink:href="classafk_1_1ParticleEmitter.html" target="_top" xlink:title="Particle Emitter.">
<polygon fill="white" stroke="black" points="0,-56.5 0,-75.5 98,-75.5 98,-56.5 0,-56.5"/>
<text text-anchor="middle" x="49" y="-63.5" font-family="Helvetica,sans-Serif" font-size="10.00">afk::ParticleEmitter</text>
</a>
</g>
</g>
<!-- Node1&#45;&gt;Node2 -->
<g id="edge1" class="edge">
<title>Node1&#45;&gt;Node2</title>
<path fill="none" stroke="midnightblue" d="M121.66,-107.45C103.76,-97.48 79.95,-84.23 64.55,-75.65"/>
<polygon fill="midnightblue" stroke="midnightblue" points="119.98,-110.52 130.42,-112.32 123.38,-104.4 119.98,-110.52"/>
</g>
<!-- Node3 -->
<g id="node3" class="node">
<title>Node3</title>
<g id="a_node3"><a xlink:href="classafk_1_1Sprite.html" target="_top" xlink:title="A simple texturable game object.">
<polygon fill="white" stroke="black" points="116,-56.5 116,-75.5 176,-75.5 176,-56.5 116,-56.5"/>
<text text-anchor="middle" x="146" y="-63.5" font-family="Helvetica,sans-Serif" font-size="10.00">afk::Sprite</text>
</a>
</g>
</g>
<!-- Node1&#45;&gt;Node3 -->
<g id="edge2" class="edge">
<title>Node1&#45;&gt;Node3</title>
<path fill="none" stroke="midnightblue" d="M146,-101.8C146,-92.91 146,-82.78 146,-75.75"/>
<polygon fill="midnightblue" stroke="midnightblue" points="142.5,-102.08 146,-112.08 149.5,-102.08 142.5,-102.08"/>
</g>
<!-- Node5 -->
<g id="node5" class="node">
<title>Node5</title>
<g id="a_node5"><a xlink:href="classafk_1_1UIElement.html" target="_top" xlink:title="Parent class for other UI elements such as buttons and labels.">
<polygon fill="white" stroke="black" points="280,-56.5 280,-75.5 360,-75.5 360,-56.5 280,-56.5"/>
<text text-anchor="middle" x="320" y="-63.5" font-family="Helvetica,sans-Serif" font-size="10.00">afk::UIElement</text>
</a>
</g>
</g>
<!-- Node1&#45;&gt;Node5 -->
<g id="edge4" class="edge">
<title>Node1&#45;&gt;Node5</title>
<path fill="none" stroke="midnightblue" d="M183.26,-109.44C216.07,-99.26 263.08,-84.66 292.56,-75.52"/>
<polygon fill="midnightblue" stroke="midnightblue" points="182.08,-106.14 173.57,-112.44 184.16,-112.82 182.08,-106.14"/>
</g>
<!-- Node4 -->
<g id="node4" class="node">
<title>Node4</title>
<g id="a_node4"><a xlink:href="classafk_1_1Particle.html" target="_top" xlink:title="Represents a single Particle.">
<polygon fill="white" stroke="black" points="70,-0.5 70,-19.5 138,-19.5 138,-0.5 70,-0.5"/>
<text text-anchor="middle" x="104" y="-7.5" font-family="Helvetica,sans-Serif" font-size="10.00">afk::Particle</text>
</a>
</g>
</g>
<!-- Node3&#45;&gt;Node4 -->
<g id="edge3" class="edge">
<title>Node3&#45;&gt;Node4</title>
<path fill="none" stroke="midnightblue" d="M132.89,-48.14C125.57,-38.74 116.76,-27.4 110.81,-19.75"/>
<polygon fill="midnightblue" stroke="midnightblue" points="130.16,-50.34 139.06,-56.08 135.69,-46.04 130.16,-50.34"/>
</g>
<!-- Node6 -->
<g id="node6" class="node">
<title>Node6</title>
<g id="a_node6"><a xlink:href="classafk_1_1Button.html" target="_top" xlink:title="Implementation of clickable UI Button.">
<polygon fill="white" stroke="black" points="156.5,-0.5 156.5,-19.5 219.5,-19.5 219.5,-0.5 156.5,-0.5"/>
<text text-anchor="middle" x="188" y="-7.5" font-family="Helvetica,sans-Serif" font-size="10.00">afk::Button</text>
</a>
</g>
</g>
<!-- Node5&#45;&gt;Node6 -->
<g id="edge5" class="edge">
<title>Node5&#45;&gt;Node6</title>
<path fill="none" stroke="midnightblue" d="M289.78,-52.64C265.01,-42.5 230.6,-28.43 208.82,-19.52"/>
<polygon fill="midnightblue" stroke="midnightblue" points="288.5,-55.9 299.08,-56.44 291.15,-49.42 288.5,-55.9"/>
</g>
<!-- Node7 -->
<g id="node7" class="node">
<title>Node7</title>
<g id="a_node7"><a xlink:href="classafk_1_1Checkbox.html" target="_top" xlink:title="Implementation of clickable UI Button.">
<polygon fill="white" stroke="black" points="237.5,-0.5 237.5,-19.5 314.5,-19.5 314.5,-0.5 237.5,-0.5"/>
<text text-anchor="middle" x="276" y="-7.5" font-family="Helvetica,sans-Serif" font-size="10.00">afk::Checkbox</text>
</a>
</g>
</g>
<!-- Node5&#45;&gt;Node7 -->
<g id="edge6" class="edge">
<title>Node5&#45;&gt;Node7</title>
<path fill="none" stroke="midnightblue" d="M306.27,-48.14C298.6,-38.74 289.37,-27.4 283.13,-19.75"/>
<polygon fill="midnightblue" stroke="midnightblue" points="303.7,-50.54 312.73,-56.08 309.13,-46.12 303.7,-50.54"/>
</g>
<!-- Node8 -->
<g id="node8" class="node">
<title>Node8</title>
<g id="a_node8"><a xlink:href="classafk_1_1Image.html" target="_top" xlink:title="A simple texturable game object.">
<polygon fill="white" stroke="black" points="333,-0.5 333,-19.5 395,-19.5 395,-0.5 333,-0.5"/>
<text text-anchor="middle" x="364" y="-7.5" font-family="Helvetica,sans-Serif" font-size="10.00">afk::Image</text>
</a>
</g>
</g>
<!-- Node5&#45;&gt;Node8 -->
<g id="edge7" class="edge">
<title>Node5&#45;&gt;Node8</title>
<path fill="none" stroke="midnightblue" d="M333.73,-48.14C341.4,-38.74 350.63,-27.4 356.87,-19.75"/>
<polygon fill="midnightblue" stroke="midnightblue" points="330.87,-46.12 327.27,-56.08 336.3,-50.54 330.87,-46.12"/>
</g>
<!-- Node9 -->
<g id="node9" class="node">
<title>Node9</title>
<g id="a_node9"><a xlink:href="classafk_1_1Inputbox.html" target="_top" xlink:title="Implementation of clickable UI Button.">
<polygon fill="white" stroke="black" points="413.5,-0.5 413.5,-19.5 484.5,-19.5 484.5,-0.5 413.5,-0.5"/>
<text text-anchor="middle" x="449" y="-7.5" font-family="Helvetica,sans-Serif" font-size="10.00">afk::Inputbox</text>
</a>
</g>
</g>
<!-- Node5&#45;&gt;Node9 -->
<g id="edge8" class="edge">
<title>Node5&#45;&gt;Node9</title>
<path fill="none" stroke="midnightblue" d="M349.85,-52.5C374.04,-42.38 407.46,-28.39 428.66,-19.52"/>
<polygon fill="midnightblue" stroke="midnightblue" points="348.31,-49.35 340.44,-56.44 351.02,-55.81 348.31,-49.35"/>
</g>
<!-- Node10 -->
<g id="node10" class="node">
<title>Node10</title>
<g id="a_node10"><a xlink:href="classafk_1_1Label.html" target="_top" xlink:title="Implementation of Label class.">
<polygon fill="white" stroke="black" points="502.5,-0.5 502.5,-19.5 561.5,-19.5 561.5,-0.5 502.5,-0.5"/>
<text text-anchor="middle" x="532" y="-7.5" font-family="Helvetica,sans-Serif" font-size="10.00">afk::Label</text>
</a>
</g>
</g>
<!-- Node5&#45;&gt;Node10 -->
<g id="edge9" class="edge">
<title>Node5&#45;&gt;Node10</title>
<path fill="none" stroke="midnightblue" d="M363.41,-53.94C404.86,-43.39 466.19,-27.76 502.33,-18.56"/>
<polygon fill="midnightblue" stroke="midnightblue" points="362.42,-50.58 353.59,-56.44 364.15,-57.37 362.42,-50.58"/>
</g>
</g>
</svg>
