<?xml version="1.0" encoding="UTF-8" standalone="no"?>
<!DOCTYPE svg PUBLIC "-//W3C//DTD SVG 1.1//EN"
 "http://www.w3.org/Graphics/SVG/1.1/DTD/svg11.dtd">
<!-- Generated by graphviz version 2.46.1 (20210215.1649)
 -->
<!-- Title: afk::SceneService Pages: 1 -->
<svg width="475pt" height="352pt"
 viewBox="0.00 0.00 475.00 352.00" xmlns="http://www.w3.org/2000/svg" xmlns:xlink="http://www.w3.org/1999/xlink">
<g id="graph0" class="graph" transform="scale(1 1) rotate(0) translate(4 348)">
<title>afk::SceneService</title>
<polygon fill="white" stroke="transparent" points="-4,4 -4,-348 471,-348 471,4 -4,4"/>
<!-- Node1 -->
<g id="node1" class="node">
<title>Node1</title>
<g id="a_node1"><a xlink:title="Manages scenes (updates)">
<polygon fill="#bfbfbf" stroke="black" points="206.5,-316.5 206.5,-335.5 301.5,-335.5 301.5,-316.5 206.5,-316.5"/>
<text text-anchor="middle" x="254" y="-323.5" font-family="Helvetica,sans-Serif" font-size="10.00">afk::SceneService</text>
</a>
</g>
</g>
<!-- Node2 -->
<g id="node2" class="node">
<title>Node2</title>
<g id="a_node2"><a xlink:href="classafk_1_1Scene.html" target="_top" xlink:title=" ">
<polygon fill="white" stroke="black" points="405,-207.5 405,-226.5 467,-226.5 467,-207.5 405,-207.5"/>
<text text-anchor="middle" x="436" y="-214.5" font-family="Helvetica,sans-Serif" font-size="10.00">afk::Scene</text>
</a>
</g>
</g>
<!-- Node1&#45;&gt;Node2 -->
<g id="edge3" class="edge">
<title>Node1&#45;&gt;Node2</title>
<path fill="none" stroke="#9a32cd" stroke-dasharray="5,2" d="M311.62,-333.78C336.66,-334.35 365.29,-330.77 387,-316 418.27,-294.72 429.88,-247.14 433.54,-226.67"/>
<polygon fill="#9a32cd" stroke="#9a32cd" points="311.65,-330.28 301.5,-333.33 311.34,-337.27 311.65,-330.28"/>
<text text-anchor="middle" x="355" y="-336" font-family="Helvetica,sans-Serif" font-size="10.00"> scene</text>
</g>
<!-- Node2&#45;&gt;Node1 -->
<g id="edge1" class="edge">
<title>Node2&#45;&gt;Node1</title>
<path fill="none" stroke="#9a32cd" stroke-dasharray="5,2" d="M424.37,-235.49C415.8,-248.93 402.64,-266.68 387,-278 378.38,-284.24 320.18,-304.27 284,-316.4"/>
<polygon fill="#9a32cd" stroke="#9a32cd" points="427.56,-236.98 429.76,-226.62 421.57,-233.35 427.56,-236.98"/>
<text text-anchor="middle" x="355" y="-305" font-family="Helvetica,sans-Serif" font-size="10.00"> current_scene</text>
</g>
<!-- Node3 -->
<g id="node3" class="node">
<title>Node3</title>
<g id="a_node3"><a xlink:href="classafk_1_1AudioService.html" target="_top" xlink:title="Implementation of audio service.">
<polygon fill="white" stroke="black" points="208,-266.5 208,-285.5 300,-285.5 300,-266.5 208,-266.5"/>
<text text-anchor="middle" x="254" y="-273.5" font-family="Helvetica,sans-Serif" font-size="10.00">afk::AudioService</text>
</a>
</g>
</g>
<!-- Node3&#45;&gt;Node2 -->
<g id="edge2" class="edge">
<title>Node3&#45;&gt;Node2</title>
<path fill="none" stroke="#9a32cd" stroke-dasharray="5,2" d="M310.27,-266.14C334.31,-260.95 362.52,-253.64 387,-244 398.74,-239.38 411.14,-232.34 420.39,-226.61"/>
<polygon fill="#9a32cd" stroke="#9a32cd" points="309.32,-262.76 300.24,-268.23 310.75,-269.61 309.32,-262.76"/>
<text text-anchor="middle" x="355" y="-266" font-family="Helvetica,sans-Serif" font-size="10.00"> audio</text>
</g>
<!-- Node4 -->
<g id="node4" class="node">
<title>Node4</title>
<g id="a_node4"><a xlink:href="classafk_1_1LoggingService.html" target="_top" xlink:title="Default logger class, can be overridden.">
<polygon fill="white" stroke="black" points="203,-228.5 203,-247.5 305,-247.5 305,-228.5 203,-228.5"/>
<text text-anchor="middle" x="254" y="-235.5" font-family="Helvetica,sans-Serif" font-size="10.00">afk::LoggingService</text>
</a>
</g>
</g>
<!-- Node4&#45;&gt;Node2 -->
<g id="edge4" class="edge">
<title>Node4&#45;&gt;Node2</title>
<path fill="none" stroke="#9a32cd" stroke-dasharray="5,2" d="M315.14,-230.98C345.27,-227.47 380.42,-223.37 404.84,-220.52"/>
<polygon fill="#9a32cd" stroke="#9a32cd" points="314.67,-227.52 305.14,-232.15 315.48,-234.47 314.67,-227.52"/>
<text text-anchor="middle" x="355" y="-232" font-family="Helvetica,sans-Serif" font-size="10.00"> logger</text>
</g>
<!-- Node5 -->
<g id="node5" class="node">
<title>Node5</title>
<g id="a_node5"><a xlink:href="classafk_1_1AssetService.html" target="_top" xlink:title="Hold and manages Sound, Texture, Stream and Font assets.">
<polygon fill="white" stroke="black" points="207.5,-190.5 207.5,-209.5 300.5,-209.5 300.5,-190.5 207.5,-190.5"/>
<text text-anchor="middle" x="254" y="-197.5" font-family="Helvetica,sans-Serif" font-size="10.00">afk::AssetService</text>
</a>
</g>
</g>
<!-- Node5&#45;&gt;Node2 -->
<g id="edge5" class="edge">
<title>Node5&#45;&gt;Node2</title>
<path fill="none" stroke="#9a32cd" stroke-dasharray="5,2" d="M310.95,-198.06C334.55,-198.07 362.23,-199.17 387,-203 393.52,-204.01 400.4,-205.65 406.85,-207.46"/>
<polygon fill="#9a32cd" stroke="#9a32cd" points="310.75,-194.56 300.77,-198.12 310.79,-201.56 310.75,-194.56"/>
<text text-anchor="middle" x="355" y="-206" font-family="Helvetica,sans-Serif" font-size="10.00"> assets</text>
</g>
<!-- Node6 -->
<g id="node6" class="node">
<title>Node6</title>
<g id="a_node6"><a xlink:href="classafk_1_1DisplayService.html" target="_top" xlink:title="Manages sdl display pointer and allows easy manipulation of configuration.">
<polygon fill="white" stroke="black" points="204.5,-152.5 204.5,-171.5 303.5,-171.5 303.5,-152.5 204.5,-152.5"/>
<text text-anchor="middle" x="254" y="-159.5" font-family="Helvetica,sans-Serif" font-size="10.00">afk::DisplayService</text>
</a>
</g>
</g>
<!-- Node6&#45;&gt;Node2 -->
<g id="edge6" class="edge">
<title>Node6&#45;&gt;Node2</title>
<path fill="none" stroke="#9a32cd" stroke-dasharray="5,2" d="M313.92,-165.56C337.32,-168.45 364.07,-173.65 387,-183 401.19,-188.78 415.23,-199.46 424.42,-207.31"/>
<polygon fill="#9a32cd" stroke="#9a32cd" points="314.1,-162.06 303.78,-164.42 313.32,-169.02 314.1,-162.06"/>
<text text-anchor="middle" x="355" y="-186" font-family="Helvetica,sans-Serif" font-size="10.00"> display</text>
</g>
<!-- Node7 -->
<g id="node7" class="node">
<title>Node7</title>
<g id="a_node7"><a xlink:href="structafk_1_1color_1_1Color.html" target="_top" xlink:title=" ">
<polygon fill="white" stroke="black" points="7.5,-152.5 7.5,-171.5 90.5,-171.5 90.5,-152.5 7.5,-152.5"/>
<text text-anchor="middle" x="49" y="-159.5" font-family="Helvetica,sans-Serif" font-size="10.00">afk::color::Color</text>
</a>
</g>
</g>
<!-- Node7&#45;&gt;Node6 -->
<g id="edge7" class="edge">
<title>Node7&#45;&gt;Node6</title>
<path fill="none" stroke="#9a32cd" stroke-dasharray="5,2" d="M100.96,-162C132.6,-162 173.03,-162 204.25,-162"/>
<polygon fill="#9a32cd" stroke="#9a32cd" points="100.59,-158.5 90.59,-162 100.59,-165.5 100.59,-158.5"/>
<text text-anchor="middle" x="150.5" y="-165" font-family="Helvetica,sans-Serif" font-size="10.00"> clear_color</text>
</g>
<!-- Node8 -->
<g id="node8" class="node">
<title>Node8</title>
<g id="a_node8"><a xlink:href="classafk_1_1ConfigService.html" target="_top" xlink:title="Class which can load and store setting key pair values in different formats.">
<polygon fill="white" stroke="black" points="206.5,-114.5 206.5,-133.5 301.5,-133.5 301.5,-114.5 206.5,-114.5"/>
<text text-anchor="middle" x="254" y="-121.5" font-family="Helvetica,sans-Serif" font-size="10.00">afk::ConfigService</text>
</a>
</g>
</g>
<!-- Node8&#45;&gt;Node2 -->
<g id="edge8" class="edge">
<title>Node8&#45;&gt;Node2</title>
<path fill="none" stroke="#9a32cd" stroke-dasharray="5,2" d="M311.78,-126.48C336.48,-129.76 364.79,-136.7 387,-151 408.68,-164.96 423.8,-192.43 430.72,-207.14"/>
<polygon fill="#9a32cd" stroke="#9a32cd" points="312.14,-122.99 301.8,-125.32 311.33,-129.95 312.14,-122.99"/>
<text text-anchor="middle" x="355" y="-154" font-family="Helvetica,sans-Serif" font-size="10.00"> config</text>
</g>
<!-- Node9 -->
<g id="node9" class="node">
<title>Node9</title>
<g id="a_node9"><a xlink:href="classafk_1_1InputService.html" target="_top" xlink:title="General Purpose input listener.">
<polygon fill="white" stroke="black" points="209.5,-76.5 209.5,-95.5 298.5,-95.5 298.5,-76.5 209.5,-76.5"/>
<text text-anchor="middle" x="254" y="-83.5" font-family="Helvetica,sans-Serif" font-size="10.00">afk::InputService</text>
</a>
</g>
</g>
<!-- Node9&#45;&gt;Node2 -->
<g id="edge9" class="edge">
<title>Node9&#45;&gt;Node2</title>
<path fill="none" stroke="#9a32cd" stroke-dasharray="5,2" d="M308.8,-86.03C334.81,-88.59 365.07,-95.62 387,-113 418.02,-137.58 429.82,-186.79 433.53,-207.48"/>
<polygon fill="#9a32cd" stroke="#9a32cd" points="308.94,-82.53 298.69,-85.23 308.39,-89.51 308.94,-82.53"/>
<text text-anchor="middle" x="355" y="-116" font-family="Helvetica,sans-Serif" font-size="10.00"> input</text>
</g>
<!-- Node10 -->
<g id="node10" class="node">
<title>Node10</title>
<g id="a_node10"><a xlink:href="classafk_1_1Service.html" target="_top" xlink:title="Service parent type, interface to allow listening for events.">
<polygon fill="white" stroke="black" points="15,-114.5 15,-133.5 83,-133.5 83,-114.5 15,-114.5"/>
<text text-anchor="middle" x="49" y="-121.5" font-family="Helvetica,sans-Serif" font-size="10.00">afk::Service</text>
</a>
</g>
</g>
<!-- Node10&#45;&gt;Node9 -->
<g id="edge10" class="edge">
<title>Node10&#45;&gt;Node9</title>
<path fill="none" stroke="midnightblue" d="M93.2,-117.19C119.75,-112.86 154.41,-106.98 185,-101 193.54,-99.33 202.66,-97.41 211.35,-95.52"/>
<polygon fill="midnightblue" stroke="midnightblue" points="92.41,-113.77 83.09,-118.82 93.52,-120.68 92.41,-113.77"/>
</g>
<!-- Node11 -->
<g id="node11" class="node">
<title>Node11</title>
<g id="a_node11"><a xlink:href="structafk_1_1KeyboardState.html" target="_top" xlink:title="Keyboard state.">
<polygon fill="white" stroke="black" points="0,-76.5 0,-95.5 98,-95.5 98,-76.5 0,-76.5"/>
<text text-anchor="middle" x="49" y="-83.5" font-family="Helvetica,sans-Serif" font-size="10.00">afk::KeyboardState</text>
</a>
</g>
</g>
<!-- Node11&#45;&gt;Node9 -->
<g id="edge11" class="edge">
<title>Node11&#45;&gt;Node9</title>
<path fill="none" stroke="#9a32cd" stroke-dasharray="5,2" d="M108.29,-86C140.51,-86 179.86,-86 209.39,-86"/>
<polygon fill="#9a32cd" stroke="#9a32cd" points="108.11,-82.5 98.11,-86 108.11,-89.5 108.11,-82.5"/>
<text text-anchor="middle" x="150.5" y="-89" font-family="Helvetica,sans-Serif" font-size="10.00"> keyboard_state</text>
</g>
<!-- Node12 -->
<g id="node12" class="node">
<title>Node12</title>
<g id="a_node12"><a xlink:href="structafk_1_1MouseState.html" target="_top" xlink:title="Mouse State.">
<polygon fill="white" stroke="black" points="5.5,-38.5 5.5,-57.5 92.5,-57.5 92.5,-38.5 5.5,-38.5"/>
<text text-anchor="middle" x="49" y="-45.5" font-family="Helvetica,sans-Serif" font-size="10.00">afk::MouseState</text>
</a>
</g>
</g>
<!-- Node12&#45;&gt;Node9 -->
<g id="edge12" class="edge">
<title>Node12&#45;&gt;Node9</title>
<path fill="none" stroke="#9a32cd" stroke-dasharray="5,2" d="M102.67,-56.37C127.67,-60.49 157.93,-65.71 185,-71 193.54,-72.67 202.66,-74.59 211.35,-76.48"/>
<polygon fill="#9a32cd" stroke="#9a32cd" points="103.09,-52.89 92.66,-54.73 101.96,-59.8 103.09,-52.89"/>
<text text-anchor="middle" x="150.5" y="-74" font-family="Helvetica,sans-Serif" font-size="10.00"> mouse_state</text>
</g>
<!-- Node13 -->
<g id="node13" class="node">
<title>Node13</title>
<g id="a_node13"><a xlink:href="structafk_1_1JoystickState.html" target="_top" xlink:title="Joystick state.">
<polygon fill="white" stroke="black" points="2,-0.5 2,-19.5 96,-19.5 96,-0.5 2,-0.5"/>
<text text-anchor="middle" x="49" y="-7.5" font-family="Helvetica,sans-Serif" font-size="10.00">afk::JoystickState</text>
</a>
</g>
</g>
<!-- Node13&#45;&gt;Node9 -->
<g id="edge13" class="edge">
<title>Node13&#45;&gt;Node9</title>
<path fill="none" stroke="#9a32cd" stroke-dasharray="5,2" d="M106.09,-20.09C130.85,-25.56 159.96,-33.41 185,-44 205.45,-52.65 226.9,-66.89 240.11,-76.36"/>
<polygon fill="#9a32cd" stroke="#9a32cd" points="106.64,-16.63 96.13,-17.96 105.18,-23.48 106.64,-16.63"/>
<text text-anchor="middle" x="150.5" y="-47" font-family="Helvetica,sans-Serif" font-size="10.00"> joystick_state</text>
</g>
</g>
</svg>
