<?xml version="1.0" encoding="UTF-8" standalone="no"?>
<!DOCTYPE svg PUBLIC "-//W3C//DTD SVG 1.1//EN"
 "http://www.w3.org/Graphics/SVG/1.1/DTD/svg11.dtd">
<!-- Generated by graphviz version 2.46.1 (20210215.1649)
 -->
<!-- Title: afk::Services Pages: 1 -->
<svg width="880pt" height="402pt"
 viewBox="0.00 0.00 880.00 401.58" xmlns="http://www.w3.org/2000/svg" xmlns:xlink="http://www.w3.org/1999/xlink">
<g id="graph0" class="graph" transform="scale(1 1) rotate(0) translate(4 397.58)">
<title>afk::Services</title>
<polygon fill="white" stroke="transparent" points="-4,4 -4,-397.58 876,-397.58 876,4 -4,4"/>
<!-- Node1 -->
<g id="node1" class="node">
<title>Node1</title>
<g id="a_node1"><a xlink:title="Core service locator for engine services.">
<polygon fill="#bfbfbf" stroke="black" points="799,-178.08 799,-197.08 872,-197.08 872,-178.08 799,-178.08"/>
<text text-anchor="middle" x="835.5" y="-185.08" font-family="Helvetica,sans-Serif" font-size="10.00">afk::Services</text>
</a>
</g>
</g>
<!-- Node2 -->
<g id="node2" class="node">
<title>Node2</title>
<g id="a_node2"><a xlink:href="classafk_1_1AudioService.html" target="_top" xlink:title="Implementation of audio service.">
<polygon fill="white" stroke="black" points="208,-247.08 208,-266.08 300,-266.08 300,-247.08 208,-247.08"/>
<text text-anchor="middle" x="254" y="-254.08" font-family="Helvetica,sans-Serif" font-size="10.00">afk::AudioService</text>
</a>
</g>
</g>
<!-- Node2&#45;&gt;Node1 -->
<g id="edge1" class="edge">
<title>Node2&#45;&gt;Node1</title>
<path fill="none" stroke="#9a32cd" stroke-dasharray="5,2" d="M284.6,-270.04C296.3,-274.67 310.04,-279.27 323,-281.58 337.44,-284.15 341.38,-282.73 356,-281.58 546.64,-266.65 599,-273.26 781,-214.58 794.27,-210.3 808.31,-203.11 818.67,-197.22"/>
<polygon fill="#9a32cd" stroke="#9a32cd" points="285.88,-266.78 275.31,-266.19 283.2,-273.25 285.88,-266.78"/>
<text text-anchor="middle" x="519" y="-276.58" font-family="Helvetica,sans-Serif" font-size="10.00"> audio_service</text>
</g>
<!-- Node4 -->
<g id="node4" class="node">
<title>Node4</title>
<g id="a_node4"><a xlink:href="classafk_1_1Scene.html" target="_top" xlink:title=" ">
<polygon fill="white" stroke="black" points="374,-212.08 374,-231.08 436,-231.08 436,-212.08 374,-212.08"/>
<text text-anchor="middle" x="405" y="-219.08" font-family="Helvetica,sans-Serif" font-size="10.00">afk::Scene</text>
</a>
</g>
</g>
<!-- Node2&#45;&gt;Node4 -->
<g id="edge4" class="edge">
<title>Node2&#45;&gt;Node4</title>
<path fill="none" stroke="#9a32cd" stroke-dasharray="5,2" d="M294.69,-244.16C303.93,-241.48 313.77,-238.79 323,-236.58 339.69,-232.59 358.53,-229.05 373.84,-226.41"/>
<polygon fill="#9a32cd" stroke="#9a32cd" points="293.54,-240.85 284.95,-247.05 295.53,-247.56 293.54,-240.85"/>
<text text-anchor="middle" x="339.5" y="-239.58" font-family="Helvetica,sans-Serif" font-size="10.00"> audio</text>
</g>
<!-- Node3 -->
<g id="node3" class="node">
<title>Node3</title>
<g id="a_node3"><a xlink:href="classafk_1_1SceneService.html" target="_top" xlink:title="Manages scenes (updates)">
<polygon fill="white" stroke="black" points="602,-197.08 602,-216.08 697,-216.08 697,-197.08 602,-197.08"/>
<text text-anchor="middle" x="649.5" y="-204.08" font-family="Helvetica,sans-Serif" font-size="10.00">afk::SceneService</text>
</a>
</g>
</g>
<!-- Node3&#45;&gt;Node1 -->
<g id="edge2" class="edge">
<title>Node3&#45;&gt;Node1</title>
<path fill="none" stroke="#9a32cd" stroke-dasharray="5,2" d="M707.67,-200.68C737.42,-197.61 772.87,-193.95 798.72,-191.28"/>
<polygon fill="#9a32cd" stroke="#9a32cd" points="706.99,-197.23 697.41,-201.74 707.71,-204.19 706.99,-197.23"/>
<text text-anchor="middle" x="748" y="-202.58" font-family="Helvetica,sans-Serif" font-size="10.00"> scene_service</text>
</g>
<!-- Node3&#45;&gt;Node4 -->
<g id="edge5" class="edge">
<title>Node3&#45;&gt;Node4</title>
<path fill="none" stroke="#9a32cd" stroke-dasharray="5,2" d="M591.59,-199.94C552.56,-196.78 499.76,-195.28 454,-203.58 444.72,-205.27 434.89,-208.64 426.57,-212.02"/>
<polygon fill="#9a32cd" stroke="#9a32cd" points="591.45,-203.44 601.71,-200.82 592.05,-196.46 591.45,-203.44"/>
<text text-anchor="middle" x="519" y="-206.58" font-family="Helvetica,sans-Serif" font-size="10.00"> scene</text>
</g>
<!-- Node4&#45;&gt;Node3 -->
<g id="edge3" class="edge">
<title>Node4&#45;&gt;Node3</title>
<path fill="none" stroke="#9a32cd" stroke-dasharray="5,2" d="M446.45,-221.89C482.58,-221.82 536.92,-220.88 584,-216.58 589.76,-216.06 595.78,-215.34 601.73,-214.54"/>
<polygon fill="#9a32cd" stroke="#9a32cd" points="446.31,-218.39 436.3,-221.89 446.3,-225.39 446.31,-218.39"/>
<text text-anchor="middle" x="519" y="-224.58" font-family="Helvetica,sans-Serif" font-size="10.00"> current_scene</text>
</g>
<!-- Node5 -->
<g id="node5" class="node">
<title>Node5</title>
<g id="a_node5"><a xlink:href="classafk_1_1LoggingService.html" target="_top" xlink:title="Default logger class, can be overridden.">
<polygon fill="white" stroke="black" points="203,-351.08 203,-370.08 305,-370.08 305,-351.08 203,-351.08"/>
<text text-anchor="middle" x="254" y="-358.08" font-family="Helvetica,sans-Serif" font-size="10.00">afk::LoggingService</text>
</a>
</g>
</g>
<!-- Node5&#45;&gt;Node4 -->
<g id="edge6" class="edge">
<title>Node5&#45;&gt;Node4</title>
<path fill="none" stroke="#9a32cd" stroke-dasharray="5,2" d="M283.53,-346.19C290.75,-342.12 298.34,-337.46 305,-332.58 346.44,-302.19 383.27,-251.98 397.62,-231.12"/>
<polygon fill="#9a32cd" stroke="#9a32cd" points="281.79,-343.15 274.67,-351 285.13,-349.3 281.79,-343.15"/>
<text text-anchor="middle" x="339.5" y="-319.58" font-family="Helvetica,sans-Serif" font-size="10.00"> logger</text>
</g>
<!-- Node16 -->
<g id="node16" class="node">
<title>Node16</title>
<g id="a_node16"><a xlink:href="classafk_1_1DebugLoggingService.html" target="_top" xlink:title="Actually logs messages.">
<polygon fill="white" stroke="black" points="454,-366.08 454,-385.08 584,-385.08 584,-366.08 454,-366.08"/>
<text text-anchor="middle" x="519" y="-373.08" font-family="Helvetica,sans-Serif" font-size="10.00">afk::DebugLoggingService</text>
</a>
</g>
</g>
<!-- Node5&#45;&gt;Node16 -->
<g id="edge21" class="edge">
<title>Node5&#45;&gt;Node16</title>
<path fill="none" stroke="midnightblue" d="M315.29,-364.02C356.64,-366.38 411.44,-369.5 453.64,-371.91"/>
<polygon fill="midnightblue" stroke="midnightblue" points="315.27,-360.51 305.09,-363.44 314.87,-367.5 315.27,-360.51"/>
</g>
<!-- Node6 -->
<g id="node6" class="node">
<title>Node6</title>
<g id="a_node6"><a xlink:href="classafk_1_1AssetService.html" target="_top" xlink:title="Hold and manages Sound, Texture, Stream and Font assets.">
<polygon fill="white" stroke="black" points="207.5,-304.08 207.5,-323.08 300.5,-323.08 300.5,-304.08 207.5,-304.08"/>
<text text-anchor="middle" x="254" y="-311.08" font-family="Helvetica,sans-Serif" font-size="10.00">afk::AssetService</text>
</a>
</g>
</g>
<!-- Node6&#45;&gt;Node1 -->
<g id="edge17" class="edge">
<title>Node6&#45;&gt;Node1</title>
<path fill="none" stroke="#9a32cd" stroke-dasharray="5,2" d="M310.86,-311.75C376.53,-309.04 488.66,-302.68 584,-288.58 634.88,-281.06 647.28,-276.75 697,-263.58 734.78,-253.57 747.2,-257.2 781,-237.58 799.47,-226.86 816.74,-208.68 826.43,-197.44"/>
<polygon fill="#9a32cd" stroke="#9a32cd" points="310.58,-308.26 300.73,-312.16 310.86,-315.25 310.58,-308.26"/>
<text text-anchor="middle" x="519" y="-305.58" font-family="Helvetica,sans-Serif" font-size="10.00"> asset_service</text>
</g>
<!-- Node6&#45;&gt;Node4 -->
<g id="edge7" class="edge">
<title>Node6&#45;&gt;Node4</title>
<path fill="none" stroke="#9a32cd" stroke-dasharray="5,2" d="M279.52,-298.44C310.45,-279.35 362.69,-247.09 388.55,-231.12"/>
<polygon fill="#9a32cd" stroke="#9a32cd" points="277.33,-295.68 270.66,-303.91 281.01,-301.63 277.33,-295.68"/>
<text text-anchor="middle" x="339.5" y="-272.58" font-family="Helvetica,sans-Serif" font-size="10.00"> assets</text>
</g>
<!-- Node7 -->
<g id="node7" class="node">
<title>Node7</title>
<g id="a_node7"><a xlink:href="classafk_1_1DisplayService.html" target="_top" xlink:title="Manages sdl display pointer and allows easy manipulation of configuration.">
<polygon fill="white" stroke="black" points="204.5,-186.08 204.5,-205.08 303.5,-205.08 303.5,-186.08 204.5,-186.08"/>
<text text-anchor="middle" x="254" y="-193.08" font-family="Helvetica,sans-Serif" font-size="10.00">afk::DisplayService</text>
</a>
</g>
</g>
<!-- Node7&#45;&gt;Node1 -->
<g id="edge18" class="edge">
<title>Node7&#45;&gt;Node1</title>
<path fill="none" stroke="#9a32cd" stroke-dasharray="5,2" d="M313.62,-190.37C353.23,-187.12 406.72,-183.24 454,-181.58 580.77,-177.13 731.42,-182.73 798.82,-185.81"/>
<polygon fill="#9a32cd" stroke="#9a32cd" points="313.29,-186.89 303.61,-191.2 313.87,-193.86 313.29,-186.89"/>
<text text-anchor="middle" x="519" y="-184.58" font-family="Helvetica,sans-Serif" font-size="10.00"> display_service</text>
</g>
<!-- Node7&#45;&gt;Node4 -->
<g id="edge8" class="edge">
<title>Node7&#45;&gt;Node4</title>
<path fill="none" stroke="#9a32cd" stroke-dasharray="5,2" d="M313.74,-196.59C327.71,-197.67 342.48,-199.52 356,-202.58 365.44,-204.72 375.46,-208.44 383.89,-212.02"/>
<polygon fill="#9a32cd" stroke="#9a32cd" points="313.94,-193.1 303.73,-195.94 313.48,-200.09 313.94,-193.1"/>
<text text-anchor="middle" x="339.5" y="-205.58" font-family="Helvetica,sans-Serif" font-size="10.00"> display</text>
</g>
<!-- Node8 -->
<g id="node8" class="node">
<title>Node8</title>
<g id="a_node8"><a xlink:href="structafk_1_1color_1_1Color.html" target="_top" xlink:title=" ">
<polygon fill="white" stroke="black" points="7.5,-186.08 7.5,-205.08 90.5,-205.08 90.5,-186.08 7.5,-186.08"/>
<text text-anchor="middle" x="49" y="-193.08" font-family="Helvetica,sans-Serif" font-size="10.00">afk::color::Color</text>
</a>
</g>
</g>
<!-- Node8&#45;&gt;Node7 -->
<g id="edge9" class="edge">
<title>Node8&#45;&gt;Node7</title>
<path fill="none" stroke="#9a32cd" stroke-dasharray="5,2" d="M100.96,-195.58C132.6,-195.58 173.03,-195.58 204.25,-195.58"/>
<polygon fill="#9a32cd" stroke="#9a32cd" points="100.59,-192.08 90.59,-195.58 100.59,-199.08 100.59,-192.08"/>
<text text-anchor="middle" x="150.5" y="-198.58" font-family="Helvetica,sans-Serif" font-size="10.00"> clear_color</text>
</g>
<!-- Node9 -->
<g id="node9" class="node">
<title>Node9</title>
<g id="a_node9"><a xlink:href="classafk_1_1ConfigService.html" target="_top" xlink:title="Class which can load and store setting key pair values in different formats.">
<polygon fill="white" stroke="black" points="206.5,-45.08 206.5,-64.08 301.5,-64.08 301.5,-45.08 206.5,-45.08"/>
<text text-anchor="middle" x="254" y="-52.08" font-family="Helvetica,sans-Serif" font-size="10.00">afk::ConfigService</text>
</a>
</g>
</g>
<!-- Node9&#45;&gt;Node1 -->
<g id="edge19" class="edge">
<title>Node9&#45;&gt;Node1</title>
<path fill="none" stroke="#9a32cd" stroke-dasharray="5,2" d="M292.62,-42.02C385.83,-13.45 630.8,45.77 781,-64.58 819.28,-92.71 830.53,-154.11 833.51,-177.9"/>
<polygon fill="#9a32cd" stroke="#9a32cd" points="291.54,-38.69 283.04,-45.02 293.63,-45.37 291.54,-38.69"/>
<text text-anchor="middle" x="519" y="-9.58" font-family="Helvetica,sans-Serif" font-size="10.00"> config_service</text>
</g>
<!-- Node9&#45;&gt;Node4 -->
<g id="edge10" class="edge">
<title>Node9&#45;&gt;Node4</title>
<path fill="none" stroke="#9a32cd" stroke-dasharray="5,2" d="M285.08,-69.2C291.93,-73.12 298.96,-77.65 305,-82.58 352.06,-120.97 387.24,-187.01 399.38,-211.8"/>
<polygon fill="#9a32cd" stroke="#9a32cd" points="286.43,-65.95 275.97,-64.25 283.09,-72.1 286.43,-65.95"/>
<text text-anchor="middle" x="339.5" y="-139.58" font-family="Helvetica,sans-Serif" font-size="10.00"> config</text>
</g>
<!-- Node10 -->
<g id="node10" class="node">
<title>Node10</title>
<g id="a_node10"><a xlink:href="classafk_1_1InputService.html" target="_top" xlink:title="General Purpose input listener.">
<polygon fill="white" stroke="black" points="209.5,-92.08 209.5,-111.08 298.5,-111.08 298.5,-92.08 209.5,-92.08"/>
<text text-anchor="middle" x="254" y="-99.08" font-family="Helvetica,sans-Serif" font-size="10.00">afk::InputService</text>
</a>
</g>
</g>
<!-- Node10&#45;&gt;Node1 -->
<g id="edge22" class="edge">
<title>Node10&#45;&gt;Node1</title>
<path fill="none" stroke="#9a32cd" stroke-dasharray="5,2" d="M309.09,-96.05C324.28,-95.27 340.8,-95.15 356,-96.58 523.54,-112.37 719.75,-158.6 798.81,-178.4"/>
<polygon fill="#9a32cd" stroke="#9a32cd" points="308.57,-92.57 298.81,-96.68 309.01,-99.56 308.57,-92.57"/>
<text text-anchor="middle" x="519" y="-133.58" font-family="Helvetica,sans-Serif" font-size="10.00"> input_service</text>
</g>
<!-- Node10&#45;&gt;Node4 -->
<g id="edge11" class="edge">
<title>Node10&#45;&gt;Node4</title>
<path fill="none" stroke="#9a32cd" stroke-dasharray="5,2" d="M275.19,-117.34C295.66,-133.37 328.2,-159 356,-181.58 368.63,-191.84 382.94,-203.81 392.62,-211.96"/>
<polygon fill="#9a32cd" stroke="#9a32cd" points="277.24,-114.49 267.2,-111.09 272.93,-120.01 277.24,-114.49"/>
<text text-anchor="middle" x="339.5" y="-184.58" font-family="Helvetica,sans-Serif" font-size="10.00"> input</text>
</g>
<!-- Node11 -->
<g id="node11" class="node">
<title>Node11</title>
<g id="a_node11"><a xlink:href="classafk_1_1Service.html" target="_top" xlink:title="Service parent type, interface to allow listening for events.">
<polygon fill="white" stroke="black" points="15,-98.08 15,-117.08 83,-117.08 83,-98.08 15,-98.08"/>
<text text-anchor="middle" x="49" y="-105.08" font-family="Helvetica,sans-Serif" font-size="10.00">afk::Service</text>
</a>
</g>
</g>
<!-- Node11&#45;&gt;Node10 -->
<g id="edge12" class="edge">
<title>Node11&#45;&gt;Node10</title>
<path fill="none" stroke="midnightblue" d="M93.22,-106.3C127.43,-105.29 174.98,-103.89 209.31,-102.87"/>
<polygon fill="midnightblue" stroke="midnightblue" points="92.96,-102.81 83.07,-106.6 93.17,-109.81 92.96,-102.81"/>
</g>
<!-- Node12 -->
<g id="node12" class="node">
<title>Node12</title>
<g id="a_node12"><a xlink:href="structafk_1_1KeyboardState.html" target="_top" xlink:title="Keyboard state.">
<polygon fill="white" stroke="black" points="0,-60.08 0,-79.08 98,-79.08 98,-60.08 0,-60.08"/>
<text text-anchor="middle" x="49" y="-67.08" font-family="Helvetica,sans-Serif" font-size="10.00">afk::KeyboardState</text>
</a>
</g>
</g>
<!-- Node12&#45;&gt;Node10 -->
<g id="edge13" class="edge">
<title>Node12&#45;&gt;Node10</title>
<path fill="none" stroke="#9a32cd" stroke-dasharray="5,2" d="M108.16,-77.13C132.01,-80.39 159.87,-84.41 185,-88.58 192.83,-89.88 201.14,-91.37 209.16,-92.87"/>
<polygon fill="#9a32cd" stroke="#9a32cd" points="108.58,-73.66 98.2,-75.78 107.64,-80.59 108.58,-73.66"/>
<text text-anchor="middle" x="150.5" y="-91.58" font-family="Helvetica,sans-Serif" font-size="10.00"> keyboard_state</text>
</g>
<!-- Node13 -->
<g id="node13" class="node">
<title>Node13</title>
<g id="a_node13"><a xlink:href="structafk_1_1MouseState.html" target="_top" xlink:title="Mouse State.">
<polygon fill="white" stroke="black" points="5.5,-22.08 5.5,-41.08 92.5,-41.08 92.5,-22.08 5.5,-22.08"/>
<text text-anchor="middle" x="49" y="-29.08" font-family="Helvetica,sans-Serif" font-size="10.00">afk::MouseState</text>
</a>
</g>
</g>
<!-- Node13&#45;&gt;Node10 -->
<g id="edge14" class="edge">
<title>Node13&#45;&gt;Node10</title>
<path fill="none" stroke="#9a32cd" stroke-dasharray="5,2" d="M102.4,-40.49C127.84,-45.69 158.55,-53.29 185,-63.58 185.68,-63.85 216.14,-80.91 236.06,-92.08"/>
<polygon fill="#9a32cd" stroke="#9a32cd" points="103.06,-37.05 92.57,-38.54 101.7,-43.91 103.06,-37.05"/>
<text text-anchor="middle" x="150.5" y="-66.58" font-family="Helvetica,sans-Serif" font-size="10.00"> mouse_state</text>
</g>
<!-- Node14 -->
<g id="node14" class="node">
<title>Node14</title>
<g id="a_node14"><a xlink:href="structafk_1_1JoystickState.html" target="_top" xlink:title="Joystick state.">
<polygon fill="white" stroke="black" points="2,-136.08 2,-155.08 96,-155.08 96,-136.08 2,-136.08"/>
<text text-anchor="middle" x="49" y="-143.08" font-family="Helvetica,sans-Serif" font-size="10.00">afk::JoystickState</text>
</a>
</g>
</g>
<!-- Node14&#45;&gt;Node10 -->
<g id="edge15" class="edge">
<title>Node14&#45;&gt;Node10</title>
<path fill="none" stroke="#9a32cd" stroke-dasharray="5,2" d="M106.16,-134.97C130.46,-130.22 159.19,-124.39 185,-118.58 195.09,-116.31 205.98,-113.68 216.02,-111.17"/>
<polygon fill="#9a32cd" stroke="#9a32cd" points="105.19,-131.59 96.04,-136.94 106.52,-138.46 105.19,-131.59"/>
<text text-anchor="middle" x="150.5" y="-134.58" font-family="Helvetica,sans-Serif" font-size="10.00"> joystick_state</text>
</g>
<!-- Node15 -->
<g id="node15" class="node">
<title>Node15</title>
<g id="a_node15"><a xlink:href="classafk_1_1EventQueue.html" target="_top" xlink:title="Houses event queue and works as.">
<polygon fill="white" stroke="black" points="605.5,-65.08 605.5,-84.08 693.5,-84.08 693.5,-65.08 605.5,-65.08"/>
<text text-anchor="middle" x="649.5" y="-72.08" font-family="Helvetica,sans-Serif" font-size="10.00">afk::EventQueue</text>
</a>
</g>
</g>
<!-- Node15&#45;&gt;Node1 -->
<g id="edge16" class="edge">
<title>Node15&#45;&gt;Node1</title>
<path fill="none" stroke="#9a32cd" stroke-dasharray="5,2" d="M703.77,-68.82C729.09,-68.7 758.63,-72.62 781,-87.58 813.41,-109.25 827.69,-157.22 832.5,-177.85"/>
<polygon fill="#9a32cd" stroke="#9a32cd" points="703.49,-65.33 693.58,-69.08 703.67,-72.33 703.49,-65.33"/>
<text text-anchor="middle" x="748" y="-90.58" font-family="Helvetica,sans-Serif" font-size="10.00"> event_service</text>
</g>
<!-- Node16&#45;&gt;Node1 -->
<g id="edge20" class="edge">
<title>Node16&#45;&gt;Node1</title>
<path fill="none" stroke="#9a32cd" stroke-dasharray="5,2" d="M594.26,-382.95C651.44,-384.52 729.22,-377.21 781,-334.58 824.61,-298.68 832.67,-224.07 834.16,-197.36"/>
<polygon fill="#9a32cd" stroke="#9a32cd" points="594.31,-379.45 584.19,-382.57 594.05,-386.44 594.31,-379.45"/>
<text text-anchor="middle" x="649.5" y="-385.58" font-family="Helvetica,sans-Serif" font-size="10.00"> logging_service</text>
</g>
</g>
</svg>
