<?xml version="1.0" encoding="UTF-8" standalone="no"?>
<!DOCTYPE svg PUBLIC "-//W3C//DTD SVG 1.1//EN"
 "http://www.w3.org/Graphics/SVG/1.1/DTD/svg11.dtd">
<!-- Generated by graphviz version 2.46.1 (20210215.1649)
 -->
<!-- Title: afk::UIElement Pages: 1 -->
<svg width="413pt" height="140pt"
 viewBox="0.00 0.00 413.00 140.00" xmlns="http://www.w3.org/2000/svg" xmlns:xlink="http://www.w3.org/1999/xlink">
<g id="graph0" class="graph" transform="scale(1 1) rotate(0) translate(4 136)">
<title>afk::UIElement</title>
<polygon fill="white" stroke="transparent" points="-4,4 -4,-136 409,-136 409,4 -4,4"/>
<!-- Node1 -->
<g id="node1" class="node">
<title>Node1</title>
<g id="a_node1"><a xlink:title="Parent class for other UI elements such as buttons and labels.">
<polygon fill="#bfbfbf" stroke="black" points="167.5,-56.5 167.5,-75.5 247.5,-75.5 247.5,-56.5 167.5,-56.5"/>
<text text-anchor="middle" x="207.5" y="-63.5" font-family="Helvetica,sans-Serif" font-size="10.00">afk::UIElement</text>
</a>
</g>
</g>
<!-- Node3 -->
<g id="node3" class="node">
<title>Node3</title>
<g id="a_node3"><a xlink:href="classafk_1_1Button.html" target="_top" xlink:title="Implementation of clickable UI Button.">
<polygon fill="white" stroke="black" points="0,-0.5 0,-19.5 63,-19.5 63,-0.5 0,-0.5"/>
<text text-anchor="middle" x="31.5" y="-7.5" font-family="Helvetica,sans-Serif" font-size="10.00">afk::Button</text>
</a>
</g>
</g>
<!-- Node1&#45;&gt;Node3 -->
<g id="edge2" class="edge">
<title>Node1&#45;&gt;Node3</title>
<path fill="none" stroke="midnightblue" d="M169.81,-53.44C136.63,-43.26 89.07,-28.66 59.26,-19.52"/>
<polygon fill="midnightblue" stroke="midnightblue" points="169.03,-56.86 179.61,-56.44 171.08,-50.16 169.03,-56.86"/>
</g>
<!-- Node4 -->
<g id="node4" class="node">
<title>Node4</title>
<g id="a_node4"><a xlink:href="classafk_1_1Checkbox.html" target="_top" xlink:title="Implementation of clickable UI Button.">
<polygon fill="white" stroke="black" points="81,-0.5 81,-19.5 158,-19.5 158,-0.5 81,-0.5"/>
<text text-anchor="middle" x="119.5" y="-7.5" font-family="Helvetica,sans-Serif" font-size="10.00">afk::Checkbox</text>
</a>
</g>
</g>
<!-- Node1&#45;&gt;Node4 -->
<g id="edge3" class="edge">
<title>Node1&#45;&gt;Node4</title>
<path fill="none" stroke="midnightblue" d="M184.52,-50.9C168.39,-41 147.32,-28.07 133.6,-19.65"/>
<polygon fill="midnightblue" stroke="midnightblue" points="183.01,-54.08 193.36,-56.32 186.67,-48.11 183.01,-54.08"/>
</g>
<!-- Node5 -->
<g id="node5" class="node">
<title>Node5</title>
<g id="a_node5"><a xlink:href="classafk_1_1Image.html" target="_top" xlink:title="A simple texturable game object.">
<polygon fill="white" stroke="black" points="176.5,-0.5 176.5,-19.5 238.5,-19.5 238.5,-0.5 176.5,-0.5"/>
<text text-anchor="middle" x="207.5" y="-7.5" font-family="Helvetica,sans-Serif" font-size="10.00">afk::Image</text>
</a>
</g>
</g>
<!-- Node1&#45;&gt;Node5 -->
<g id="edge4" class="edge">
<title>Node1&#45;&gt;Node5</title>
<path fill="none" stroke="midnightblue" d="M207.5,-45.8C207.5,-36.91 207.5,-26.78 207.5,-19.75"/>
<polygon fill="midnightblue" stroke="midnightblue" points="204,-46.08 207.5,-56.08 211,-46.08 204,-46.08"/>
</g>
<!-- Node6 -->
<g id="node6" class="node">
<title>Node6</title>
<g id="a_node6"><a xlink:href="classafk_1_1Inputbox.html" target="_top" xlink:title="Implementation of clickable UI Button.">
<polygon fill="white" stroke="black" points="257,-0.5 257,-19.5 328,-19.5 328,-0.5 257,-0.5"/>
<text text-anchor="middle" x="292.5" y="-7.5" font-family="Helvetica,sans-Serif" font-size="10.00">afk::Inputbox</text>
</a>
</g>
</g>
<!-- Node1&#45;&gt;Node6 -->
<g id="edge5" class="edge">
<title>Node1&#45;&gt;Node6</title>
<path fill="none" stroke="midnightblue" d="M229.69,-50.9C245.28,-41 265.63,-28.07 278.88,-19.65"/>
<polygon fill="midnightblue" stroke="midnightblue" points="227.72,-48.01 221.16,-56.32 231.47,-53.92 227.72,-48.01"/>
</g>
<!-- Node7 -->
<g id="node7" class="node">
<title>Node7</title>
<g id="a_node7"><a xlink:href="classafk_1_1Label.html" target="_top" xlink:title="Implementation of Label class.">
<polygon fill="white" stroke="black" points="346,-0.5 346,-19.5 405,-19.5 405,-0.5 346,-0.5"/>
<text text-anchor="middle" x="375.5" y="-7.5" font-family="Helvetica,sans-Serif" font-size="10.00">afk::Label</text>
</a>
</g>
</g>
<!-- Node1&#45;&gt;Node7 -->
<g id="edge6" class="edge">
<title>Node1&#45;&gt;Node7</title>
<path fill="none" stroke="midnightblue" d="M243.89,-53.3C275.54,-43.13 320.67,-28.62 349,-19.52"/>
<polygon fill="midnightblue" stroke="midnightblue" points="242.57,-50.05 234.12,-56.44 244.71,-56.72 242.57,-50.05"/>
</g>
<!-- Node2 -->
<g id="node2" class="node">
<title>Node2</title>
<g id="a_node2"><a xlink:href="classafk_1_1GameObject.html" target="_top" xlink:title="A collidable object! Parent class for many others.">
<polygon fill="white" stroke="black" points="163,-112.5 163,-131.5 252,-131.5 252,-112.5 163,-112.5"/>
<text text-anchor="middle" x="207.5" y="-119.5" font-family="Helvetica,sans-Serif" font-size="10.00">afk::GameObject</text>
</a>
</g>
</g>
<!-- Node2&#45;&gt;Node1 -->
<g id="edge1" class="edge">
<title>Node2&#45;&gt;Node1</title>
<path fill="none" stroke="midnightblue" d="M207.5,-101.8C207.5,-92.91 207.5,-82.78 207.5,-75.75"/>
<polygon fill="midnightblue" stroke="midnightblue" points="204,-102.08 207.5,-112.08 211,-102.08 204,-102.08"/>
</g>
</g>
</svg>
