<?xml version="1.0" encoding="UTF-8" standalone="no"?>
<!DOCTYPE svg PUBLIC "-//W3C//DTD SVG 1.1//EN"
 "http://www.w3.org/Graphics/SVG/1.1/DTD/svg11.dtd">
<!-- Generated by graphviz version 2.46.1 (20210215.1649)
 -->
<!-- Title: afk::InputService Pages: 1 -->
<svg width="410pt" height="95pt"
 viewBox="0.00 0.00 410.00 95.00" xmlns="http://www.w3.org/2000/svg" xmlns:xlink="http://www.w3.org/1999/xlink">
<g id="graph0" class="graph" transform="scale(1 1) rotate(0) translate(4 91)">
<title>afk::InputService</title>
<polygon fill="white" stroke="transparent" points="-4,4 -4,-91 406,-91 406,4 -4,4"/>
<!-- Node1 -->
<g id="node1" class="node">
<title>Node1</title>
<g id="a_node1"><a xlink:title="General Purpose input listener.">
<polygon fill="#bfbfbf" stroke="black" points="145.5,-0.5 145.5,-19.5 234.5,-19.5 234.5,-0.5 145.5,-0.5"/>
<text text-anchor="middle" x="190" y="-7.5" font-family="Helvetica,sans-Serif" font-size="10.00">afk::InputService</text>
</a>
</g>
</g>
<!-- Node2 -->
<g id="node2" class="node">
<title>Node2</title>
<g id="a_node2"><a xlink:href="classafk_1_1Service.html" target="_top" xlink:title="Service parent type, interface to allow listening for events.">
<polygon fill="white" stroke="black" points="0,-67.5 0,-86.5 68,-86.5 68,-67.5 0,-67.5"/>
<text text-anchor="middle" x="34" y="-74.5" font-family="Helvetica,sans-Serif" font-size="10.00">afk::Service</text>
</a>
</g>
</g>
<!-- Node2&#45;&gt;Node1 -->
<g id="edge1" class="edge">
<title>Node2&#45;&gt;Node1</title>
<path fill="none" stroke="midnightblue" d="M64.12,-63.45C95.01,-50.58 142.23,-30.9 169.2,-19.67"/>
<polygon fill="midnightblue" stroke="midnightblue" points="62.6,-60.29 54.72,-67.37 65.29,-66.75 62.6,-60.29"/>
</g>
<!-- Node3 -->
<g id="node3" class="node">
<title>Node3</title>
<g id="a_node3"><a xlink:href="structafk_1_1KeyboardState.html" target="_top" xlink:title="Keyboard state.">
<polygon fill="white" stroke="black" points="86,-67.5 86,-86.5 184,-86.5 184,-67.5 86,-67.5"/>
<text text-anchor="middle" x="135" y="-74.5" font-family="Helvetica,sans-Serif" font-size="10.00">afk::KeyboardState</text>
</a>
</g>
</g>
<!-- Node3&#45;&gt;Node1 -->
<g id="edge2" class="edge">
<title>Node3&#45;&gt;Node1</title>
<path fill="none" stroke="#9a32cd" stroke-dasharray="5,2" d="M142.66,-57.68C145.91,-51.09 150.09,-43.84 155,-38 161.03,-30.83 169.26,-24.37 176.22,-19.56"/>
<polygon fill="#9a32cd" stroke="#9a32cd" points="139.28,-56.66 138.35,-67.21 145.66,-59.54 139.28,-56.66"/>
<text text-anchor="middle" x="189.5" y="-41" font-family="Helvetica,sans-Serif" font-size="10.00"> keyboard_state</text>
</g>
<!-- Node4 -->
<g id="node4" class="node">
<title>Node4</title>
<g id="a_node4"><a xlink:href="structafk_1_1MouseState.html" target="_top" xlink:title="Mouse State.">
<polygon fill="white" stroke="black" points="202.5,-67.5 202.5,-86.5 289.5,-86.5 289.5,-67.5 202.5,-67.5"/>
<text text-anchor="middle" x="246" y="-74.5" font-family="Helvetica,sans-Serif" font-size="10.00">afk::MouseState</text>
</a>
</g>
</g>
<!-- Node4&#45;&gt;Node1 -->
<g id="edge3" class="edge">
<title>Node4&#45;&gt;Node1</title>
<path fill="none" stroke="#9a32cd" stroke-dasharray="5,2" d="M237.51,-58.22C233.86,-51.51 229.22,-44.05 224,-38 217.99,-31.04 209.99,-24.58 203.25,-19.73"/>
<polygon fill="#9a32cd" stroke="#9a32cd" points="234.45,-59.93 242.11,-67.26 240.69,-56.76 234.45,-59.93"/>
<text text-anchor="middle" x="260.5" y="-41" font-family="Helvetica,sans-Serif" font-size="10.00"> mouse_state</text>
</g>
<!-- Node5 -->
<g id="node5" class="node">
<title>Node5</title>
<g id="a_node5"><a xlink:href="structafk_1_1JoystickState.html" target="_top" xlink:title="Joystick state.">
<polygon fill="white" stroke="black" points="308,-67.5 308,-86.5 402,-86.5 402,-67.5 308,-67.5"/>
<text text-anchor="middle" x="355" y="-74.5" font-family="Helvetica,sans-Serif" font-size="10.00">afk::JoystickState</text>
</a>
</g>
</g>
<!-- Node5&#45;&gt;Node1 -->
<g id="edge4" class="edge">
<title>Node5&#45;&gt;Node1</title>
<path fill="none" stroke="#9a32cd" stroke-dasharray="5,2" d="M335.03,-61.4C323.51,-53.54 308.47,-44.21 294,-38 275.23,-29.94 253.49,-23.84 234.75,-19.49"/>
<polygon fill="#9a32cd" stroke="#9a32cd" points="333.24,-64.42 343.44,-67.3 337.26,-58.69 333.24,-64.42"/>
<text text-anchor="middle" x="346.5" y="-41" font-family="Helvetica,sans-Serif" font-size="10.00"> joystick_state</text>
</g>
</g>
</svg>
