<?xml version="1.0" encoding="UTF-8" standalone="no"?>
<!DOCTYPE svg PUBLIC "-//W3C//DTD SVG 1.1//EN"
 "http://www.w3.org/Graphics/SVG/1.1/DTD/svg11.dtd">
<!-- Generated by graphviz version 2.46.1 (20210215.1649)
 -->
<!-- Title: afk::Sprite Pages: 1 -->
<svg width="767pt" height="294pt"
 viewBox="0.00 0.00 767.00 294.00" xmlns="http://www.w3.org/2000/svg" xmlns:xlink="http://www.w3.org/1999/xlink">
<g id="graph0" class="graph" transform="scale(1 1) rotate(0) translate(4 290)">
<title>afk::Sprite</title>
<polygon fill="white" stroke="transparent" points="-4,4 -4,-290 763,-290 763,4 -4,4"/>
<!-- Node1 -->
<g id="node1" class="node">
<title>Node1</title>
<g id="a_node1"><a xlink:title="A simple texturable game object.">
<polygon fill="#bfbfbf" stroke="black" points="699,-144.5 699,-163.5 759,-163.5 759,-144.5 699,-144.5"/>
<text text-anchor="middle" x="729" y="-151.5" font-family="Helvetica,sans-Serif" font-size="10.00">afk::Sprite</text>
</a>
</g>
</g>
<!-- Node2 -->
<g id="node2" class="node">
<title>Node2</title>
<g id="a_node2"><a xlink:href="classafk_1_1GameObject.html" target="_top" xlink:title="A collidable object! Parent class for many others.">
<polygon fill="white" stroke="black" points="539,-207.5 539,-226.5 628,-226.5 628,-207.5 539,-207.5"/>
<text text-anchor="middle" x="583.5" y="-214.5" font-family="Helvetica,sans-Serif" font-size="10.00">afk::GameObject</text>
</a>
</g>
</g>
<!-- Node2&#45;&gt;Node1 -->
<g id="edge1" class="edge">
<title>Node2&#45;&gt;Node1</title>
<path fill="none" stroke="midnightblue" d="M618.08,-203.46C622.44,-201.65 626.83,-199.8 631,-198 657.49,-186.58 687.72,-172.74 707.29,-163.67"/>
<polygon fill="midnightblue" stroke="midnightblue" points="616.62,-200.27 608.71,-207.31 619.29,-206.74 616.62,-200.27"/>
</g>
<!-- Node3 -->
<g id="node3" class="node">
<title>Node3</title>
<g id="a_node3"><a xlink:href="classafk_1_1Scene.html" target="_top" xlink:title=" ">
<polygon fill="white" stroke="black" points="374,-173.5 374,-192.5 436,-192.5 436,-173.5 374,-173.5"/>
<text text-anchor="middle" x="405" y="-180.5" font-family="Helvetica,sans-Serif" font-size="10.00">afk::Scene</text>
</a>
</g>
</g>
<!-- Node3&#45;&gt;Node2 -->
<g id="edge2" class="edge">
<title>Node3&#45;&gt;Node2</title>
<path fill="none" stroke="#9a32cd" stroke-dasharray="5,2" d="M445.95,-193.23C448.67,-193.85 451.37,-194.45 454,-195 482.13,-200.92 513.97,-206.38 538.93,-210.38"/>
<polygon fill="#9a32cd" stroke="#9a32cd" points="446.67,-189.8 436.13,-190.9 445.06,-196.61 446.67,-189.8"/>
<text text-anchor="middle" x="486" y="-209" font-family="Helvetica,sans-Serif" font-size="10.00"> scene</text>
</g>
<!-- Node5 -->
<g id="node5" class="node">
<title>Node5</title>
<g id="a_node5"><a xlink:href="classafk_1_1SceneService.html" target="_top" xlink:title="Manages scenes (updates)">
<polygon fill="white" stroke="black" points="536,-169.5 536,-188.5 631,-188.5 631,-169.5 536,-169.5"/>
<text text-anchor="middle" x="583.5" y="-176.5" font-family="Helvetica,sans-Serif" font-size="10.00">afk::SceneService</text>
</a>
</g>
</g>
<!-- Node3&#45;&gt;Node5 -->
<g id="edge5" class="edge">
<title>Node3&#45;&gt;Node5</title>
<path fill="none" stroke="#9a32cd" stroke-dasharray="5,2" d="M446.49,-182.08C473.16,-181.48 508.17,-180.68 535.99,-180.05"/>
<polygon fill="#9a32cd" stroke="#9a32cd" points="446.26,-178.59 436.34,-182.31 446.42,-185.58 446.26,-178.59"/>
<text text-anchor="middle" x="486" y="-184" font-family="Helvetica,sans-Serif" font-size="10.00"> current_scene</text>
</g>
<!-- Node4 -->
<g id="node4" class="node">
<title>Node4</title>
<g id="a_node4"><a xlink:href="classafk_1_1AudioService.html" target="_top" xlink:title="Implementation of audio service.">
<polygon fill="white" stroke="black" points="208,-266.5 208,-285.5 300,-285.5 300,-266.5 208,-266.5"/>
<text text-anchor="middle" x="254" y="-273.5" font-family="Helvetica,sans-Serif" font-size="10.00">afk::AudioService</text>
</a>
</g>
</g>
<!-- Node4&#45;&gt;Node3 -->
<g id="edge3" class="edge">
<title>Node4&#45;&gt;Node3</title>
<path fill="none" stroke="#9a32cd" stroke-dasharray="5,2" d="M296.56,-263.02C315.7,-255.9 338.07,-245.87 356,-233 372.22,-221.35 387.59,-203.78 396.39,-192.87"/>
<polygon fill="#9a32cd" stroke="#9a32cd" points="295.13,-259.82 286.89,-266.48 297.49,-266.41 295.13,-259.82"/>
<text text-anchor="middle" x="339.5" y="-254" font-family="Helvetica,sans-Serif" font-size="10.00"> audio</text>
</g>
<!-- Node5&#45;&gt;Node3 -->
<g id="edge4" class="edge">
<title>Node5&#45;&gt;Node3</title>
<path fill="none" stroke="#9a32cd" stroke-dasharray="5,2" d="M548.14,-165.5C544.02,-163.72 539.89,-161.87 536,-160 527.75,-156.04 526.86,-152.3 518,-150 490.46,-142.86 481.16,-141.56 454,-150 439.32,-154.56 425.15,-165.34 416.06,-173.34"/>
<polygon fill="#9a32cd" stroke="#9a32cd" points="547.07,-168.85 557.65,-169.48 549.77,-162.39 547.07,-168.85"/>
<text text-anchor="middle" x="486" y="-153" font-family="Helvetica,sans-Serif" font-size="10.00"> scene</text>
</g>
<!-- Node6 -->
<g id="node6" class="node">
<title>Node6</title>
<g id="a_node6"><a xlink:href="classafk_1_1LoggingService.html" target="_top" xlink:title="Default logger class, can be overridden.">
<polygon fill="white" stroke="black" points="203,-228.5 203,-247.5 305,-247.5 305,-228.5 203,-228.5"/>
<text text-anchor="middle" x="254" y="-235.5" font-family="Helvetica,sans-Serif" font-size="10.00">afk::LoggingService</text>
</a>
</g>
</g>
<!-- Node6&#45;&gt;Node3 -->
<g id="edge6" class="edge">
<title>Node6&#45;&gt;Node3</title>
<path fill="none" stroke="#9a32cd" stroke-dasharray="5,2" d="M301.4,-225.51C318.75,-220.39 338.49,-214.01 356,-207 366.38,-202.85 377.58,-197.31 386.54,-192.61"/>
<polygon fill="#9a32cd" stroke="#9a32cd" points="300.13,-222.24 291.5,-228.38 302.08,-228.96 300.13,-222.24"/>
<text text-anchor="middle" x="339.5" y="-221" font-family="Helvetica,sans-Serif" font-size="10.00"> logger</text>
</g>
<!-- Node7 -->
<g id="node7" class="node">
<title>Node7</title>
<g id="a_node7"><a xlink:href="classafk_1_1AssetService.html" target="_top" xlink:title="Hold and manages Sound, Texture, Stream and Font assets.">
<polygon fill="white" stroke="black" points="207.5,-190.5 207.5,-209.5 300.5,-209.5 300.5,-190.5 207.5,-190.5"/>
<text text-anchor="middle" x="254" y="-197.5" font-family="Helvetica,sans-Serif" font-size="10.00">afk::AssetService</text>
</a>
</g>
</g>
<!-- Node7&#45;&gt;Node3 -->
<g id="edge7" class="edge">
<title>Node7&#45;&gt;Node3</title>
<path fill="none" stroke="#9a32cd" stroke-dasharray="5,2" d="M310.5,-193.67C331.95,-191.22 355.65,-188.52 373.82,-186.44"/>
<polygon fill="#9a32cd" stroke="#9a32cd" points="310.05,-190.2 300.51,-194.81 310.85,-197.15 310.05,-190.2"/>
<text text-anchor="middle" x="339.5" y="-195" font-family="Helvetica,sans-Serif" font-size="10.00"> assets</text>
</g>
<!-- Node8 -->
<g id="node8" class="node">
<title>Node8</title>
<g id="a_node8"><a xlink:href="classafk_1_1DisplayService.html" target="_top" xlink:title="Manages sdl display pointer and allows easy manipulation of configuration.">
<polygon fill="white" stroke="black" points="204.5,-152.5 204.5,-171.5 303.5,-171.5 303.5,-152.5 204.5,-152.5"/>
<text text-anchor="middle" x="254" y="-159.5" font-family="Helvetica,sans-Serif" font-size="10.00">afk::DisplayService</text>
</a>
</g>
</g>
<!-- Node8&#45;&gt;Node3 -->
<g id="edge8" class="edge">
<title>Node8&#45;&gt;Node3</title>
<path fill="none" stroke="#9a32cd" stroke-dasharray="5,2" d="M313.63,-167.41C327.55,-168.97 342.33,-170.84 356,-173 361.8,-173.92 367.96,-175.07 373.87,-176.26"/>
<polygon fill="#9a32cd" stroke="#9a32cd" points="313.99,-163.93 303.67,-166.34 313.24,-170.89 313.99,-163.93"/>
<text text-anchor="middle" x="339.5" y="-176" font-family="Helvetica,sans-Serif" font-size="10.00"> display</text>
</g>
<!-- Node9 -->
<g id="node9" class="node">
<title>Node9</title>
<g id="a_node9"><a xlink:href="structafk_1_1color_1_1Color.html" target="_top" xlink:title=" ">
<polygon fill="white" stroke="black" points="7.5,-152.5 7.5,-171.5 90.5,-171.5 90.5,-152.5 7.5,-152.5"/>
<text text-anchor="middle" x="49" y="-159.5" font-family="Helvetica,sans-Serif" font-size="10.00">afk::color::Color</text>
</a>
</g>
</g>
<!-- Node9&#45;&gt;Node8 -->
<g id="edge9" class="edge">
<title>Node9&#45;&gt;Node8</title>
<path fill="none" stroke="#9a32cd" stroke-dasharray="5,2" d="M100.96,-162C132.6,-162 173.03,-162 204.25,-162"/>
<polygon fill="#9a32cd" stroke="#9a32cd" points="100.59,-158.5 90.59,-162 100.59,-165.5 100.59,-158.5"/>
<text text-anchor="middle" x="150.5" y="-165" font-family="Helvetica,sans-Serif" font-size="10.00"> clear_color</text>
</g>
<!-- Node10 -->
<g id="node10" class="node">
<title>Node10</title>
<g id="a_node10"><a xlink:href="classafk_1_1ConfigService.html" target="_top" xlink:title="Class which can load and store setting key pair values in different formats.">
<polygon fill="white" stroke="black" points="206.5,-114.5 206.5,-133.5 301.5,-133.5 301.5,-114.5 206.5,-114.5"/>
<text text-anchor="middle" x="254" y="-121.5" font-family="Helvetica,sans-Serif" font-size="10.00">afk::ConfigService</text>
</a>
</g>
</g>
<!-- Node10&#45;&gt;Node3 -->
<g id="edge10" class="edge">
<title>Node10&#45;&gt;Node3</title>
<path fill="none" stroke="#9a32cd" stroke-dasharray="5,2" d="M308.29,-136.3C323.98,-140.72 340.96,-146.3 356,-153 368.39,-158.52 381.37,-166.81 390.7,-173.27"/>
<polygon fill="#9a32cd" stroke="#9a32cd" points="308.76,-132.81 298.2,-133.57 306.93,-139.56 308.76,-132.81"/>
<text text-anchor="middle" x="339.5" y="-156" font-family="Helvetica,sans-Serif" font-size="10.00"> config</text>
</g>
<!-- Node11 -->
<g id="node11" class="node">
<title>Node11</title>
<g id="a_node11"><a xlink:href="classafk_1_1InputService.html" target="_top" xlink:title="General Purpose input listener.">
<polygon fill="white" stroke="black" points="209.5,-76.5 209.5,-95.5 298.5,-95.5 298.5,-76.5 209.5,-76.5"/>
<text text-anchor="middle" x="254" y="-83.5" font-family="Helvetica,sans-Serif" font-size="10.00">afk::InputService</text>
</a>
</g>
</g>
<!-- Node11&#45;&gt;Node3 -->
<g id="edge11" class="edge">
<title>Node11&#45;&gt;Node3</title>
<path fill="none" stroke="#9a32cd" stroke-dasharray="5,2" d="M301.6,-98.91C319.65,-105.27 339.81,-114.18 356,-126 374.18,-139.28 389.82,-160.84 397.98,-173.29"/>
<polygon fill="#9a32cd" stroke="#9a32cd" points="302.43,-95.49 291.84,-95.63 300.2,-102.13 302.43,-95.49"/>
<text text-anchor="middle" x="339.5" y="-129" font-family="Helvetica,sans-Serif" font-size="10.00"> input</text>
</g>
<!-- Node12 -->
<g id="node12" class="node">
<title>Node12</title>
<g id="a_node12"><a xlink:href="classafk_1_1Service.html" target="_top" xlink:title="Service parent type, interface to allow listening for events.">
<polygon fill="white" stroke="black" points="15,-114.5 15,-133.5 83,-133.5 83,-114.5 15,-114.5"/>
<text text-anchor="middle" x="49" y="-121.5" font-family="Helvetica,sans-Serif" font-size="10.00">afk::Service</text>
</a>
</g>
</g>
<!-- Node12&#45;&gt;Node11 -->
<g id="edge12" class="edge">
<title>Node12&#45;&gt;Node11</title>
<path fill="none" stroke="midnightblue" d="M93.2,-117.19C119.75,-112.86 154.41,-106.98 185,-101 193.54,-99.33 202.66,-97.41 211.35,-95.52"/>
<polygon fill="midnightblue" stroke="midnightblue" points="92.41,-113.77 83.09,-118.82 93.52,-120.68 92.41,-113.77"/>
</g>
<!-- Node13 -->
<g id="node13" class="node">
<title>Node13</title>
<g id="a_node13"><a xlink:href="structafk_1_1KeyboardState.html" target="_top" xlink:title="Keyboard state.">
<polygon fill="white" stroke="black" points="0,-76.5 0,-95.5 98,-95.5 98,-76.5 0,-76.5"/>
<text text-anchor="middle" x="49" y="-83.5" font-family="Helvetica,sans-Serif" font-size="10.00">afk::KeyboardState</text>
</a>
</g>
</g>
<!-- Node13&#45;&gt;Node11 -->
<g id="edge13" class="edge">
<title>Node13&#45;&gt;Node11</title>
<path fill="none" stroke="#9a32cd" stroke-dasharray="5,2" d="M108.29,-86C140.51,-86 179.86,-86 209.39,-86"/>
<polygon fill="#9a32cd" stroke="#9a32cd" points="108.11,-82.5 98.11,-86 108.11,-89.5 108.11,-82.5"/>
<text text-anchor="middle" x="150.5" y="-89" font-family="Helvetica,sans-Serif" font-size="10.00"> keyboard_state</text>
</g>
<!-- Node14 -->
<g id="node14" class="node">
<title>Node14</title>
<g id="a_node14"><a xlink:href="structafk_1_1MouseState.html" target="_top" xlink:title="Mouse State.">
<polygon fill="white" stroke="black" points="5.5,-38.5 5.5,-57.5 92.5,-57.5 92.5,-38.5 5.5,-38.5"/>
<text text-anchor="middle" x="49" y="-45.5" font-family="Helvetica,sans-Serif" font-size="10.00">afk::MouseState</text>
</a>
</g>
</g>
<!-- Node14&#45;&gt;Node11 -->
<g id="edge14" class="edge">
<title>Node14&#45;&gt;Node11</title>
<path fill="none" stroke="#9a32cd" stroke-dasharray="5,2" d="M102.67,-56.37C127.67,-60.49 157.93,-65.71 185,-71 193.54,-72.67 202.66,-74.59 211.35,-76.48"/>
<polygon fill="#9a32cd" stroke="#9a32cd" points="103.09,-52.89 92.66,-54.73 101.96,-59.8 103.09,-52.89"/>
<text text-anchor="middle" x="150.5" y="-74" font-family="Helvetica,sans-Serif" font-size="10.00"> mouse_state</text>
</g>
<!-- Node15 -->
<g id="node15" class="node">
<title>Node15</title>
<g id="a_node15"><a xlink:href="structafk_1_1JoystickState.html" target="_top" xlink:title="Joystick state.">
<polygon fill="white" stroke="black" points="2,-0.5 2,-19.5 96,-19.5 96,-0.5 2,-0.5"/>
<text text-anchor="middle" x="49" y="-7.5" font-family="Helvetica,sans-Serif" font-size="10.00">afk::JoystickState</text>
</a>
</g>
</g>
<!-- Node15&#45;&gt;Node11 -->
<g id="edge15" class="edge">
<title>Node15&#45;&gt;Node11</title>
<path fill="none" stroke="#9a32cd" stroke-dasharray="5,2" d="M106.03,-20.71C130.78,-26.4 159.89,-34.44 185,-45 205.2,-53.5 226.54,-67.26 239.81,-76.46"/>
<polygon fill="#9a32cd" stroke="#9a32cd" points="106.6,-17.25 96.07,-18.49 105.07,-24.08 106.6,-17.25"/>
<text text-anchor="middle" x="150.5" y="-48" font-family="Helvetica,sans-Serif" font-size="10.00"> joystick_state</text>
</g>
<!-- Node16 -->
<g id="node16" class="node">
<title>Node16</title>
<g id="a_node16"><a xlink:href="classafk_1_1Texture.html" target="_top" xlink:title="Easy interface to interact with sdl bitmaps.">
<polygon fill="white" stroke="black" points="550,-131.5 550,-150.5 617,-150.5 617,-131.5 550,-131.5"/>
<text text-anchor="middle" x="583.5" y="-138.5" font-family="Helvetica,sans-Serif" font-size="10.00">afk::Texture</text>
</a>
</g>
</g>
<!-- Node16&#45;&gt;Node1 -->
<g id="edge16" class="edge">
<title>Node16&#45;&gt;Node1</title>
<path fill="none" stroke="#9a32cd" stroke-dasharray="5,2" d="M627.31,-144.88C650.44,-146.97 678.39,-149.51 698.97,-151.37"/>
<polygon fill="#9a32cd" stroke="#9a32cd" points="627.34,-141.37 617.06,-143.95 626.71,-148.34 627.34,-141.37"/>
<text text-anchor="middle" x="665" y="-152" font-family="Helvetica,sans-Serif" font-size="10.00"> texture</text>
</g>
</g>
</svg>
