<?xml version="1.0" encoding="UTF-8" standalone="no"?>
<!DOCTYPE svg PUBLIC "-//W3C//DTD SVG 1.1//EN"
 "http://www.w3.org/Graphics/SVG/1.1/DTD/svg11.dtd">
<!-- Generated by graphviz version 2.46.1 (20210215.1649)
 -->
<!-- Title: afk::Service Pages: 1 -->
<svg width="176pt" height="84pt"
 viewBox="0.00 0.00 176.00 84.00" xmlns="http://www.w3.org/2000/svg" xmlns:xlink="http://www.w3.org/1999/xlink">
<g id="graph0" class="graph" transform="scale(1 1) rotate(0) translate(4 80)">
<title>afk::Service</title>
<polygon fill="white" stroke="transparent" points="-4,4 -4,-80 172,-80 172,4 -4,4"/>
<!-- Node1 -->
<g id="node1" class="node">
<title>Node1</title>
<g id="a_node1"><a xlink:title="Service parent type, interface to allow listening for events.">
<polygon fill="#bfbfbf" stroke="black" points="42.5,-56.5 42.5,-75.5 110.5,-75.5 110.5,-56.5 42.5,-56.5"/>
<text text-anchor="middle" x="76.5" y="-63.5" font-family="Helvetica,sans-Serif" font-size="10.00">afk::Service</text>
</a>
</g>
</g>
<!-- Node2 -->
<g id="node2" class="node">
<title>Node2</title>
<g id="a_node2"><a xlink:href="classafk_1_1Game.html" target="_top" xlink:title="Core game class, manages scenes and sets up locator and sdl.">
<polygon fill="white" stroke="black" points="0,-0.5 0,-19.5 61,-19.5 61,-0.5 0,-0.5"/>
<text text-anchor="middle" x="30.5" y="-7.5" font-family="Helvetica,sans-Serif" font-size="10.00">afk::Game</text>
</a>
</g>
</g>
<!-- Node1&#45;&gt;Node2 -->
<g id="edge1" class="edge">
<title>Node1&#45;&gt;Node2</title>
<path fill="none" stroke="midnightblue" d="M62.39,-48.43C54.32,-38.97 44.54,-27.48 37.95,-19.75"/>
<polygon fill="midnightblue" stroke="midnightblue" points="59.75,-50.74 68.9,-56.08 65.08,-46.2 59.75,-50.74"/>
</g>
<!-- Node3 -->
<g id="node3" class="node">
<title>Node3</title>
<g id="a_node3"><a xlink:href="classafk_1_1InputService.html" target="_top" xlink:title="General Purpose input listener.">
<polygon fill="white" stroke="black" points="79,-0.5 79,-19.5 168,-19.5 168,-0.5 79,-0.5"/>
<text text-anchor="middle" x="123.5" y="-7.5" font-family="Helvetica,sans-Serif" font-size="10.00">afk::InputService</text>
</a>
</g>
</g>
<!-- Node1&#45;&gt;Node3 -->
<g id="edge2" class="edge">
<title>Node1&#45;&gt;Node3</title>
<path fill="none" stroke="midnightblue" d="M90.92,-48.43C99.16,-38.97 109.15,-27.48 115.88,-19.75"/>
<polygon fill="midnightblue" stroke="midnightblue" points="88.19,-46.24 84.26,-56.08 93.47,-50.84 88.19,-46.24"/>
</g>
</g>
</svg>
