<?xml version="1.0" encoding="UTF-8" standalone="no"?>
<!DOCTYPE svg PUBLIC "-//W3C//DTD SVG 1.1//EN"
 "http://www.w3.org/Graphics/SVG/1.1/DTD/svg11.dtd">
<!-- Generated by graphviz version 2.46.1 (20210215.1649)
 -->
<!-- Title: afk::Particle Pages: 1 -->
<svg width="872pt" height="303pt"
 viewBox="0.00 0.00 872.00 303.00" xmlns="http://www.w3.org/2000/svg" xmlns:xlink="http://www.w3.org/1999/xlink">
<g id="graph0" class="graph" transform="scale(1 1) rotate(0) translate(4 299)">
<title>afk::Particle</title>
<polygon fill="white" stroke="transparent" points="-4,4 -4,-299 868,-299 868,4 -4,4"/>
<!-- Node1 -->
<g id="node1" class="node">
<title>Node1</title>
<g id="a_node1"><a xlink:title="Represents a single Particle.">
<polygon fill="#bfbfbf" stroke="black" points="796,-2.5 796,-21.5 864,-21.5 864,-2.5 796,-2.5"/>
<text text-anchor="middle" x="830" y="-9.5" font-family="Helvetica,sans-Serif" font-size="10.00">afk::Particle</text>
</a>
</g>
</g>
<!-- Node2 -->
<g id="node2" class="node">
<title>Node2</title>
<g id="a_node2"><a xlink:href="classafk_1_1Sprite.html" target="_top" xlink:title="A simple texturable game object.">
<polygon fill="white" stroke="black" points="699,-50.5 699,-69.5 759,-69.5 759,-50.5 699,-50.5"/>
<text text-anchor="middle" x="729" y="-57.5" font-family="Helvetica,sans-Serif" font-size="10.00">afk::Sprite</text>
</a>
</g>
</g>
<!-- Node2&#45;&gt;Node1 -->
<g id="edge1" class="edge">
<title>Node2&#45;&gt;Node1</title>
<path fill="none" stroke="midnightblue" d="M759.09,-45.9C775.26,-38.05 794.97,-28.5 809.33,-21.54"/>
<polygon fill="midnightblue" stroke="midnightblue" points="757.51,-42.77 750.03,-50.29 760.56,-49.07 757.51,-42.77"/>
</g>
<!-- Node3 -->
<g id="node3" class="node">
<title>Node3</title>
<g id="a_node3"><a xlink:href="classafk_1_1GameObject.html" target="_top" xlink:title="A collidable object! Parent class for many others.">
<polygon fill="white" stroke="black" points="539,-50.5 539,-69.5 628,-69.5 628,-50.5 539,-50.5"/>
<text text-anchor="middle" x="583.5" y="-57.5" font-family="Helvetica,sans-Serif" font-size="10.00">afk::GameObject</text>
</a>
</g>
</g>
<!-- Node3&#45;&gt;Node2 -->
<g id="edge2" class="edge">
<title>Node3&#45;&gt;Node2</title>
<path fill="none" stroke="midnightblue" d="M638.52,-60C659.02,-60 681.59,-60 698.93,-60"/>
<polygon fill="midnightblue" stroke="midnightblue" points="638.33,-56.5 628.33,-60 638.33,-63.5 638.33,-56.5"/>
</g>
<!-- Node4 -->
<g id="node4" class="node">
<title>Node4</title>
<g id="a_node4"><a xlink:href="classafk_1_1Scene.html" target="_top" xlink:title=" ">
<polygon fill="white" stroke="black" points="374,-104.5 374,-123.5 436,-123.5 436,-104.5 374,-104.5"/>
<text text-anchor="middle" x="405" y="-111.5" font-family="Helvetica,sans-Serif" font-size="10.00">afk::Scene</text>
</a>
</g>
</g>
<!-- Node4&#45;&gt;Node3 -->
<g id="edge3" class="edge">
<title>Node4&#45;&gt;Node3</title>
<path fill="none" stroke="#9a32cd" stroke-dasharray="5,2" d="M422.34,-97.34C431,-89.55 442.26,-80.92 454,-76 480.75,-64.79 513.17,-60.82 538.75,-59.63"/>
<polygon fill="#9a32cd" stroke="#9a32cd" points="419.75,-94.98 414.91,-104.41 424.57,-100.06 419.75,-94.98"/>
<text text-anchor="middle" x="486" y="-79" font-family="Helvetica,sans-Serif" font-size="10.00"> scene</text>
</g>
<!-- Node6 -->
<g id="node6" class="node">
<title>Node6</title>
<g id="a_node6"><a xlink:href="classafk_1_1SceneService.html" target="_top" xlink:title="Manages scenes (updates)">
<polygon fill="white" stroke="black" points="536,-88.5 536,-107.5 631,-107.5 631,-88.5 536,-88.5"/>
<text text-anchor="middle" x="583.5" y="-95.5" font-family="Helvetica,sans-Serif" font-size="10.00">afk::SceneService</text>
</a>
</g>
</g>
<!-- Node4&#45;&gt;Node6 -->
<g id="edge6" class="edge">
<title>Node4&#45;&gt;Node6</title>
<path fill="none" stroke="#9a32cd" stroke-dasharray="5,2" d="M436.03,-100.87C441.88,-98.85 448.05,-97.08 454,-96 480.78,-91.14 511.22,-91.37 535.75,-92.94"/>
<polygon fill="#9a32cd" stroke="#9a32cd" points="434.69,-97.64 426.57,-104.44 437.16,-104.19 434.69,-97.64"/>
<text text-anchor="middle" x="486" y="-99" font-family="Helvetica,sans-Serif" font-size="10.00"> current_scene</text>
</g>
<!-- Node5 -->
<g id="node5" class="node">
<title>Node5</title>
<g id="a_node5"><a xlink:href="classafk_1_1AudioService.html" target="_top" xlink:title="Implementation of audio service.">
<polygon fill="white" stroke="black" points="208,-180.5 208,-199.5 300,-199.5 300,-180.5 208,-180.5"/>
<text text-anchor="middle" x="254" y="-187.5" font-family="Helvetica,sans-Serif" font-size="10.00">afk::AudioService</text>
</a>
</g>
</g>
<!-- Node5&#45;&gt;Node4 -->
<g id="edge4" class="edge">
<title>Node5&#45;&gt;Node4</title>
<path fill="none" stroke="#9a32cd" stroke-dasharray="5,2" d="M296.07,-177.23C314.91,-170.6 337.2,-161.65 356,-151 369.73,-143.22 383.85,-131.86 393.19,-123.78"/>
<polygon fill="#9a32cd" stroke="#9a32cd" points="294.89,-173.93 286.56,-180.48 297.16,-180.55 294.89,-173.93"/>
<text text-anchor="middle" x="339.5" y="-169" font-family="Helvetica,sans-Serif" font-size="10.00"> audio</text>
</g>
<!-- Node6&#45;&gt;Node4 -->
<g id="edge5" class="edge">
<title>Node6&#45;&gt;Node4</title>
<path fill="none" stroke="#9a32cd" stroke-dasharray="5,2" d="M525.68,-108.09C523.09,-108.42 520.52,-108.73 518,-109 490.33,-111.97 458.62,-113.18 436.02,-113.67"/>
<polygon fill="#9a32cd" stroke="#9a32cd" points="526.33,-111.53 535.74,-106.68 525.35,-104.6 526.33,-111.53"/>
<text text-anchor="middle" x="486" y="-116" font-family="Helvetica,sans-Serif" font-size="10.00"> scene</text>
</g>
<!-- Node7 -->
<g id="node7" class="node">
<title>Node7</title>
<g id="a_node7"><a xlink:href="classafk_1_1LoggingService.html" target="_top" xlink:title="Default logger class, can be overridden.">
<polygon fill="white" stroke="black" points="203,-142.5 203,-161.5 305,-161.5 305,-142.5 203,-142.5"/>
<text text-anchor="middle" x="254" y="-149.5" font-family="Helvetica,sans-Serif" font-size="10.00">afk::LoggingService</text>
</a>
</g>
</g>
<!-- Node7&#45;&gt;Node4 -->
<g id="edge7" class="edge">
<title>Node7&#45;&gt;Node4</title>
<path fill="none" stroke="#9a32cd" stroke-dasharray="5,2" d="M310.5,-140.19C325.34,-136.81 341.33,-132.96 356,-129 362.07,-127.36 368.52,-125.46 374.66,-123.57"/>
<polygon fill="#9a32cd" stroke="#9a32cd" points="309.43,-136.84 300.44,-142.45 310.96,-143.67 309.43,-136.84"/>
<text text-anchor="middle" x="339.5" y="-139" font-family="Helvetica,sans-Serif" font-size="10.00"> logger</text>
</g>
<!-- Node8 -->
<g id="node8" class="node">
<title>Node8</title>
<g id="a_node8"><a xlink:href="classafk_1_1AssetService.html" target="_top" xlink:title="Hold and manages Sound, Texture, Stream and Font assets.">
<polygon fill="white" stroke="black" points="207.5,-104.5 207.5,-123.5 300.5,-123.5 300.5,-104.5 207.5,-104.5"/>
<text text-anchor="middle" x="254" y="-111.5" font-family="Helvetica,sans-Serif" font-size="10.00">afk::AssetService</text>
</a>
</g>
</g>
<!-- Node8&#45;&gt;Node4 -->
<g id="edge8" class="edge">
<title>Node8&#45;&gt;Node4</title>
<path fill="none" stroke="#9a32cd" stroke-dasharray="5,2" d="M310.8,-114C332.17,-114 355.73,-114 373.82,-114"/>
<polygon fill="#9a32cd" stroke="#9a32cd" points="310.51,-110.5 300.51,-114 310.51,-117.5 310.51,-110.5"/>
<text text-anchor="middle" x="339.5" y="-117" font-family="Helvetica,sans-Serif" font-size="10.00"> assets</text>
</g>
<!-- Node9 -->
<g id="node9" class="node">
<title>Node9</title>
<g id="a_node9"><a xlink:href="classafk_1_1DisplayService.html" target="_top" xlink:title="Manages sdl display pointer and allows easy manipulation of configuration.">
<polygon fill="white" stroke="black" points="204.5,-66.5 204.5,-85.5 303.5,-85.5 303.5,-66.5 204.5,-66.5"/>
<text text-anchor="middle" x="254" y="-73.5" font-family="Helvetica,sans-Serif" font-size="10.00">afk::DisplayService</text>
</a>
</g>
</g>
<!-- Node9&#45;&gt;Node4 -->
<g id="edge9" class="edge">
<title>Node9&#45;&gt;Node4</title>
<path fill="none" stroke="#9a32cd" stroke-dasharray="5,2" d="M310.5,-87.81C325.34,-91.19 341.33,-95.04 356,-99 362.07,-100.64 368.52,-102.54 374.66,-104.43"/>
<polygon fill="#9a32cd" stroke="#9a32cd" points="310.96,-84.33 300.44,-85.55 309.43,-91.16 310.96,-84.33"/>
<text text-anchor="middle" x="339.5" y="-102" font-family="Helvetica,sans-Serif" font-size="10.00"> display</text>
</g>
<!-- Node10 -->
<g id="node10" class="node">
<title>Node10</title>
<g id="a_node10"><a xlink:href="structafk_1_1color_1_1Color.html" target="_top" xlink:title=" ">
<polygon fill="white" stroke="black" points="7.5,-18.5 7.5,-37.5 90.5,-37.5 90.5,-18.5 7.5,-18.5"/>
<text text-anchor="middle" x="49" y="-25.5" font-family="Helvetica,sans-Serif" font-size="10.00">afk::color::Color</text>
</a>
</g>
</g>
<!-- Node10&#45;&gt;Node1 -->
<g id="edge18" class="edge">
<title>Node10&#45;&gt;Node1</title>
<path fill="none" stroke="#9a32cd" stroke-dasharray="5,2" d="M100.59,-17.1C141.5,-9.24 200.69,0 253,0 253,0 253,0 730,0 751.99,0 776.52,-2.95 795.67,-5.93"/>
<polygon fill="#9a32cd" stroke="#9a32cd" points="99.74,-13.7 90.6,-19.06 101.09,-20.57 99.74,-13.7"/>
<text text-anchor="middle" x="486" y="-14" font-family="Helvetica,sans-Serif" font-size="10.00"> end_color</text>
<text text-anchor="middle" x="486" y="-3" font-family="Helvetica,sans-Serif" font-size="10.00">start_color</text>
</g>
<!-- Node10&#45;&gt;Node9 -->
<g id="edge10" class="edge">
<title>Node10&#45;&gt;Node9</title>
<path fill="none" stroke="#9a32cd" stroke-dasharray="5,2" d="M100.49,-39.94C135.05,-48.11 180.27,-58.8 212.48,-66.42"/>
<polygon fill="#9a32cd" stroke="#9a32cd" points="101.13,-36.49 90.59,-37.6 99.52,-43.31 101.13,-36.49"/>
<text text-anchor="middle" x="150.5" y="-63" font-family="Helvetica,sans-Serif" font-size="10.00"> clear_color</text>
</g>
<!-- Node11 -->
<g id="node11" class="node">
<title>Node11</title>
<g id="a_node11"><a xlink:href="classafk_1_1ConfigService.html" target="_top" xlink:title="Class which can load and store setting key pair values in different formats.">
<polygon fill="white" stroke="black" points="206.5,-28.5 206.5,-47.5 301.5,-47.5 301.5,-28.5 206.5,-28.5"/>
<text text-anchor="middle" x="254" y="-35.5" font-family="Helvetica,sans-Serif" font-size="10.00">afk::ConfigService</text>
</a>
</g>
</g>
<!-- Node11&#45;&gt;Node4 -->
<g id="edge11" class="edge">
<title>Node11&#45;&gt;Node4</title>
<path fill="none" stroke="#9a32cd" stroke-dasharray="5,2" d="M297.64,-50.76C316.16,-57.12 337.75,-65.68 356,-76 370.06,-83.95 384.35,-95.86 393.63,-104.22"/>
<polygon fill="#9a32cd" stroke="#9a32cd" points="298.58,-47.38 287.98,-47.54 296.36,-54.02 298.58,-47.38"/>
<text text-anchor="middle" x="339.5" y="-79" font-family="Helvetica,sans-Serif" font-size="10.00"> config</text>
</g>
<!-- Node12 -->
<g id="node12" class="node">
<title>Node12</title>
<g id="a_node12"><a xlink:href="classafk_1_1InputService.html" target="_top" xlink:title="General Purpose input listener.">
<polygon fill="white" stroke="black" points="209.5,-218.5 209.5,-237.5 298.5,-237.5 298.5,-218.5 209.5,-218.5"/>
<text text-anchor="middle" x="254" y="-225.5" font-family="Helvetica,sans-Serif" font-size="10.00">afk::InputService</text>
</a>
</g>
</g>
<!-- Node12&#45;&gt;Node4 -->
<g id="edge12" class="edge">
<title>Node12&#45;&gt;Node4</title>
<path fill="none" stroke="#9a32cd" stroke-dasharray="5,2" d="M296.92,-214.8C316.44,-207.16 339.04,-196.04 356,-181 375.27,-163.91 391.17,-137.73 398.91,-123.69"/>
<polygon fill="#9a32cd" stroke="#9a32cd" points="295.48,-211.6 287.33,-218.37 297.93,-218.16 295.48,-211.6"/>
<text text-anchor="middle" x="339.5" y="-205" font-family="Helvetica,sans-Serif" font-size="10.00"> input</text>
</g>
<!-- Node13 -->
<g id="node13" class="node">
<title>Node13</title>
<g id="a_node13"><a xlink:href="classafk_1_1Service.html" target="_top" xlink:title="Service parent type, interface to allow listening for events.">
<polygon fill="white" stroke="black" points="15,-199.5 15,-218.5 83,-218.5 83,-199.5 15,-199.5"/>
<text text-anchor="middle" x="49" y="-206.5" font-family="Helvetica,sans-Serif" font-size="10.00">afk::Service</text>
</a>
</g>
</g>
<!-- Node13&#45;&gt;Node12 -->
<g id="edge13" class="edge">
<title>Node13&#45;&gt;Node12</title>
<path fill="none" stroke="midnightblue" d="M93.22,-213.05C127.43,-216.25 174.98,-220.7 209.31,-223.91"/>
<polygon fill="midnightblue" stroke="midnightblue" points="93.35,-209.54 83.07,-212.09 92.7,-216.51 93.35,-209.54"/>
</g>
<!-- Node14 -->
<g id="node14" class="node">
<title>Node14</title>
<g id="a_node14"><a xlink:href="structafk_1_1KeyboardState.html" target="_top" xlink:title="Keyboard state.">
<polygon fill="white" stroke="black" points="0,-161.5 0,-180.5 98,-180.5 98,-161.5 0,-161.5"/>
<text text-anchor="middle" x="49" y="-168.5" font-family="Helvetica,sans-Serif" font-size="10.00">afk::KeyboardState</text>
</a>
</g>
</g>
<!-- Node14&#45;&gt;Node12 -->
<g id="edge14" class="edge">
<title>Node14&#45;&gt;Node12</title>
<path fill="none" stroke="#9a32cd" stroke-dasharray="5,2" d="M108.36,-180.21C132.47,-184.86 160.46,-191.38 185,-200 193.44,-202.96 194.81,-205.41 203,-209 210.48,-212.28 218.73,-215.55 226.33,-218.43"/>
<polygon fill="#9a32cd" stroke="#9a32cd" points="108.76,-176.72 98.29,-178.33 107.48,-183.6 108.76,-176.72"/>
<text text-anchor="middle" x="150.5" y="-203" font-family="Helvetica,sans-Serif" font-size="10.00"> keyboard_state</text>
</g>
<!-- Node15 -->
<g id="node15" class="node">
<title>Node15</title>
<g id="a_node15"><a xlink:href="structafk_1_1MouseState.html" target="_top" xlink:title="Mouse State.">
<polygon fill="white" stroke="black" points="5.5,-275.5 5.5,-294.5 92.5,-294.5 92.5,-275.5 5.5,-275.5"/>
<text text-anchor="middle" x="49" y="-282.5" font-family="Helvetica,sans-Serif" font-size="10.00">afk::MouseState</text>
</a>
</g>
</g>
<!-- Node15&#45;&gt;Node12 -->
<g id="edge15" class="edge">
<title>Node15&#45;&gt;Node12</title>
<path fill="none" stroke="#9a32cd" stroke-dasharray="5,2" d="M102.78,-275.3C127.93,-270.17 158.27,-263.22 185,-255 200.9,-250.11 218.34,-243.15 231.57,-237.53"/>
<polygon fill="#9a32cd" stroke="#9a32cd" points="101.83,-271.92 92.71,-277.32 103.2,-278.79 101.83,-271.92"/>
<text text-anchor="middle" x="150.5" y="-274" font-family="Helvetica,sans-Serif" font-size="10.00"> mouse_state</text>
</g>
<!-- Node16 -->
<g id="node16" class="node">
<title>Node16</title>
<g id="a_node16"><a xlink:href="structafk_1_1JoystickState.html" target="_top" xlink:title="Joystick state.">
<polygon fill="white" stroke="black" points="2,-237.5 2,-256.5 96,-256.5 96,-237.5 2,-237.5"/>
<text text-anchor="middle" x="49" y="-244.5" font-family="Helvetica,sans-Serif" font-size="10.00">afk::JoystickState</text>
</a>
</g>
</g>
<!-- Node16&#45;&gt;Node12 -->
<g id="edge16" class="edge">
<title>Node16&#45;&gt;Node12</title>
<path fill="none" stroke="#9a32cd" stroke-dasharray="5,2" d="M106.32,-241.73C138.82,-238.69 179.09,-234.92 209.21,-232.1"/>
<polygon fill="#9a32cd" stroke="#9a32cd" points="105.69,-238.27 96.06,-242.69 106.35,-245.24 105.69,-238.27"/>
<text text-anchor="middle" x="150.5" y="-243" font-family="Helvetica,sans-Serif" font-size="10.00"> joystick_state</text>
</g>
<!-- Node17 -->
<g id="node17" class="node">
<title>Node17</title>
<g id="a_node17"><a xlink:href="classafk_1_1Texture.html" target="_top" xlink:title="Easy interface to interact with sdl bitmaps.">
<polygon fill="white" stroke="black" points="550,-126.5 550,-145.5 617,-145.5 617,-126.5 550,-126.5"/>
<text text-anchor="middle" x="583.5" y="-133.5" font-family="Helvetica,sans-Serif" font-size="10.00">afk::Texture</text>
</a>
</g>
</g>
<!-- Node17&#45;&gt;Node2 -->
<g id="edge17" class="edge">
<title>Node17&#45;&gt;Node2</title>
<path fill="none" stroke="#9a32cd" stroke-dasharray="5,2" d="M619.19,-122.47C623.21,-120.71 627.22,-118.87 631,-117 661.11,-102.1 694.55,-81.49 713.25,-69.57"/>
<polygon fill="#9a32cd" stroke="#9a32cd" points="617.74,-119.28 609.89,-126.39 620.46,-125.73 617.74,-119.28"/>
<text text-anchor="middle" x="665" y="-110" font-family="Helvetica,sans-Serif" font-size="10.00"> texture</text>
</g>
</g>
</svg>
