<?xml version="1.0" encoding="UTF-8" standalone="no"?>
<!DOCTYPE svg PUBLIC "-//W3C//DTD SVG 1.1//EN"
 "http://www.w3.org/Graphics/SVG/1.1/DTD/svg11.dtd">
<!-- Generated by graphviz version 2.46.1 (20210215.1649)
 -->
<!-- Title: include/services/config/ConfigService.h Pages: 1 -->
<svg width="173pt" height="95pt"
 viewBox="0.00 0.00 173.00 95.00" xmlns="http://www.w3.org/2000/svg" xmlns:xlink="http://www.w3.org/1999/xlink">
<g id="graph0" class="graph" transform="scale(1 1) rotate(0) translate(4 91)">
<title>include/services/config/ConfigService.h</title>
<polygon fill="white" stroke="transparent" points="-4,4 -4,-91 169,-91 169,4 -4,4"/>
<!-- Node1 -->
<g id="node1" class="node">
<title>Node1</title>
<g id="a_node1"><a xlink:title="Header for default Config Service.">
<polygon fill="#bfbfbf" stroke="black" points="21.5,-56.5 21.5,-86.5 137.5,-86.5 137.5,-56.5 21.5,-56.5"/>
<text text-anchor="start" x="29.5" y="-74.5" font-family="Helvetica,sans-Serif" font-size="10.00">include/services/config</text>
<text text-anchor="middle" x="79.5" y="-63.5" font-family="Helvetica,sans-Serif" font-size="10.00">/ConfigService.h</text>
</a>
</g>
</g>
<!-- Node2 -->
<g id="node2" class="node">
<title>Node2</title>
<g id="a_node2"><a xlink:title=" ">
<polygon fill="white" stroke="#bfbfbf" points="0,-0.5 0,-19.5 35,-19.5 35,-0.5 0,-0.5"/>
<text text-anchor="middle" x="17.5" y="-7.5" font-family="Helvetica,sans-Serif" font-size="10.00">map</text>
</a>
</g>
</g>
<!-- Node1&#45;&gt;Node2 -->
<g id="edge1" class="edge">
<title>Node1&#45;&gt;Node2</title>
<path fill="none" stroke="midnightblue" d="M64.81,-56.4C55.52,-47.49 43.5,-35.95 33.9,-26.74"/>
<polygon fill="midnightblue" stroke="midnightblue" points="36.16,-24.06 26.52,-19.66 31.31,-29.11 36.16,-24.06"/>
</g>
<!-- Node3 -->
<g id="node3" class="node">
<title>Node3</title>
<g id="a_node3"><a xlink:title=" ">
<polygon fill="white" stroke="#bfbfbf" points="53.5,-0.5 53.5,-19.5 105.5,-19.5 105.5,-0.5 53.5,-0.5"/>
<text text-anchor="middle" x="79.5" y="-7.5" font-family="Helvetica,sans-Serif" font-size="10.00">sstream</text>
</a>
</g>
</g>
<!-- Node1&#45;&gt;Node3 -->
<g id="edge2" class="edge">
<title>Node1&#45;&gt;Node3</title>
<path fill="none" stroke="midnightblue" d="M79.5,-56.4C79.5,-48.47 79.5,-38.46 79.5,-29.86"/>
<polygon fill="midnightblue" stroke="midnightblue" points="83,-29.66 79.5,-19.66 76,-29.66 83,-29.66"/>
</g>
<!-- Node4 -->
<g id="node4" class="node">
<title>Node4</title>
<g id="a_node4"><a xlink:title=" ">
<polygon fill="white" stroke="#bfbfbf" points="124,-0.5 124,-19.5 165,-19.5 165,-0.5 124,-0.5"/>
<text text-anchor="middle" x="144.5" y="-7.5" font-family="Helvetica,sans-Serif" font-size="10.00">string</text>
</a>
</g>
</g>
<!-- Node1&#45;&gt;Node4 -->
<g id="edge3" class="edge">
<title>Node1&#45;&gt;Node4</title>
<path fill="none" stroke="midnightblue" d="M94.9,-56.4C104.74,-47.4 117.49,-35.72 127.61,-26.47"/>
<polygon fill="midnightblue" stroke="midnightblue" points="130.03,-28.99 135.04,-19.66 125.3,-23.83 130.03,-28.99"/>
</g>
</g>
</svg>
