<?xml version="1.0" encoding="UTF-8" standalone="no"?>
<!DOCTYPE svg PUBLIC "-//W3C//DTD SVG 1.1//EN"
 "http://www.w3.org/Graphics/SVG/1.1/DTD/svg11.dtd">
<!-- Generated by graphviz version 2.46.1 (20210215.1649)
 -->
<!-- Title: src/services/config/ConfigService.cpp Pages: 1 -->
<svg width="1795pt" height="319pt"
 viewBox="0.00 0.00 1795.00 319.00" xmlns="http://www.w3.org/2000/svg" xmlns:xlink="http://www.w3.org/1999/xlink">
<g id="graph0" class="graph" transform="scale(1 1) rotate(0) translate(4 315)">
<title>src/services/config/ConfigService.cpp</title>
<polygon fill="white" stroke="transparent" points="-4,4 -4,-315 1791,-315 1791,4 -4,4"/>
<!-- Node1 -->
<g id="node1" class="node">
<title>Node1</title>
<g id="a_node1"><a xlink:title="Implementation of default Config Service.">
<polygon fill="#bfbfbf" stroke="black" points="591,-280.5 591,-310.5 689,-310.5 689,-280.5 591,-280.5"/>
<text text-anchor="start" x="599" y="-298.5" font-family="Helvetica,sans-Serif" font-size="10.00">src/services/config</text>
<text text-anchor="middle" x="640" y="-287.5" font-family="Helvetica,sans-Serif" font-size="10.00">/ConfigService.cpp</text>
</a>
</g>
</g>
<!-- Node2 -->
<g id="node2" class="node">
<title>Node2</title>
<g id="a_node2"><a xlink:href="ConfigService_8h.html" target="_top" xlink:title="Header for default Config Service.">
<polygon fill="white" stroke="black" points="0,-168.5 0,-187.5 152,-187.5 152,-168.5 0,-168.5"/>
<text text-anchor="middle" x="76" y="-175.5" font-family="Helvetica,sans-Serif" font-size="10.00">services/config/ConfigService.h</text>
</a>
</g>
</g>
<!-- Node1&#45;&gt;Node2 -->
<g id="edge1" class="edge">
<title>Node1&#45;&gt;Node2</title>
<path fill="none" stroke="midnightblue" d="M590.94,-284.45C485.01,-262.76 235.75,-211.72 127.59,-189.56"/>
<polygon fill="midnightblue" stroke="midnightblue" points="128.07,-186.09 117.57,-187.51 126.67,-192.95 128.07,-186.09"/>
</g>
<!-- Node6 -->
<g id="node6" class="node">
<title>Node6</title>
<g id="a_node6"><a xlink:title=" ">
<polygon fill="white" stroke="#bfbfbf" points="709,-224.5 709,-243.5 765,-243.5 765,-224.5 709,-224.5"/>
<text text-anchor="middle" x="737" y="-231.5" font-family="Helvetica,sans-Serif" font-size="10.00">algorithm</text>
</a>
</g>
</g>
<!-- Node1&#45;&gt;Node6 -->
<g id="edge5" class="edge">
<title>Node1&#45;&gt;Node6</title>
<path fill="none" stroke="midnightblue" d="M662.99,-280.4C678.39,-270.95 698.59,-258.56 714,-249.11"/>
<polygon fill="midnightblue" stroke="midnightblue" points="716.19,-251.87 722.89,-243.66 712.53,-245.9 716.19,-251.87"/>
</g>
<!-- Node7 -->
<g id="node7" class="node">
<title>Node7</title>
<g id="a_node7"><a xlink:title=" ">
<polygon fill="white" stroke="#bfbfbf" points="783,-224.5 783,-243.5 833,-243.5 833,-224.5 783,-224.5"/>
<text text-anchor="middle" x="808" y="-231.5" font-family="Helvetica,sans-Serif" font-size="10.00">fstream</text>
</a>
</g>
</g>
<!-- Node1&#45;&gt;Node7 -->
<g id="edge6" class="edge">
<title>Node1&#45;&gt;Node7</title>
<path fill="none" stroke="midnightblue" d="M679.81,-280.4C708.5,-270.24 746.81,-256.67 774.06,-247.02"/>
<polygon fill="midnightblue" stroke="midnightblue" points="775.3,-250.3 783.55,-243.66 772.96,-243.7 775.3,-250.3"/>
</g>
<!-- Node8 -->
<g id="node8" class="node">
<title>Node8</title>
<g id="a_node8"><a xlink:href="str_8h.html" target="_top" xlink:title="Helpers which can manipulate or get data from strings.">
<polygon fill="white" stroke="black" points="495,-224.5 495,-243.5 571,-243.5 571,-224.5 495,-224.5"/>
<text text-anchor="middle" x="533" y="-231.5" font-family="Helvetica,sans-Serif" font-size="10.00">common/str.h</text>
</a>
</g>
</g>
<!-- Node1&#45;&gt;Node8 -->
<g id="edge7" class="edge">
<title>Node1&#45;&gt;Node8</title>
<path fill="none" stroke="midnightblue" d="M614.64,-280.4C597.33,-270.77 574.52,-258.09 557.42,-248.58"/>
<polygon fill="midnightblue" stroke="midnightblue" points="559.01,-245.46 548.57,-243.66 555.61,-251.58 559.01,-245.46"/>
</g>
<!-- Node12 -->
<g id="node12" class="node">
<title>Node12</title>
<g id="a_node12"><a xlink:href="Services_8h.html" target="_top" xlink:title="Implementation of core Services class.">
<polygon fill="white" stroke="black" points="589,-224.5 589,-243.5 691,-243.5 691,-224.5 589,-224.5"/>
<text text-anchor="middle" x="640" y="-231.5" font-family="Helvetica,sans-Serif" font-size="10.00">services/Services.h</text>
</a>
</g>
</g>
<!-- Node1&#45;&gt;Node12 -->
<g id="edge13" class="edge">
<title>Node1&#45;&gt;Node12</title>
<path fill="none" stroke="midnightblue" d="M640,-280.4C640,-272.47 640,-262.46 640,-253.86"/>
<polygon fill="midnightblue" stroke="midnightblue" points="643.5,-253.66 640,-243.66 636.5,-253.66 643.5,-253.66"/>
</g>
<!-- Node3 -->
<g id="node3" class="node">
<title>Node3</title>
<g id="a_node3"><a xlink:title=" ">
<polygon fill="white" stroke="#bfbfbf" points="116.5,-112.5 116.5,-131.5 151.5,-131.5 151.5,-112.5 116.5,-112.5"/>
<text text-anchor="middle" x="134" y="-119.5" font-family="Helvetica,sans-Serif" font-size="10.00">map</text>
</a>
</g>
</g>
<!-- Node2&#45;&gt;Node3 -->
<g id="edge2" class="edge">
<title>Node2&#45;&gt;Node3</title>
<path fill="none" stroke="midnightblue" d="M85.32,-168.32C93.89,-160.34 106.81,-148.31 117.19,-138.65"/>
<polygon fill="midnightblue" stroke="midnightblue" points="119.58,-141.21 124.51,-131.83 114.81,-136.09 119.58,-141.21"/>
</g>
<!-- Node4 -->
<g id="node4" class="node">
<title>Node4</title>
<g id="a_node4"><a xlink:title=" ">
<polygon fill="white" stroke="#bfbfbf" points="46,-112.5 46,-131.5 98,-131.5 98,-112.5 46,-112.5"/>
<text text-anchor="middle" x="72" y="-119.5" font-family="Helvetica,sans-Serif" font-size="10.00">sstream</text>
</a>
</g>
</g>
<!-- Node2&#45;&gt;Node4 -->
<g id="edge3" class="edge">
<title>Node2&#45;&gt;Node4</title>
<path fill="none" stroke="midnightblue" d="M75.34,-168.08C74.82,-161.01 74.06,-150.86 73.41,-141.99"/>
<polygon fill="midnightblue" stroke="midnightblue" points="76.88,-141.47 72.65,-131.75 69.9,-141.98 76.88,-141.47"/>
</g>
<!-- Node5 -->
<g id="node5" class="node">
<title>Node5</title>
<g id="a_node5"><a xlink:title=" ">
<polygon fill="white" stroke="#bfbfbf" points="550.5,-56.5 550.5,-75.5 591.5,-75.5 591.5,-56.5 550.5,-56.5"/>
<text text-anchor="middle" x="571" y="-63.5" font-family="Helvetica,sans-Serif" font-size="10.00">string</text>
</a>
</g>
</g>
<!-- Node2&#45;&gt;Node5 -->
<g id="edge4" class="edge">
<title>Node2&#45;&gt;Node5</title>
<path fill="none" stroke="midnightblue" d="M64.32,-168.48C47.63,-155.33 20.7,-129.73 37,-112 45.6,-102.65 428.37,-76.49 540.46,-69.02"/>
<polygon fill="midnightblue" stroke="midnightblue" points="540.7,-72.51 550.44,-68.35 540.23,-65.52 540.7,-72.51"/>
</g>
<!-- Node8&#45;&gt;Node5 -->
<g id="edge9" class="edge">
<title>Node8&#45;&gt;Node5</title>
<path fill="none" stroke="midnightblue" d="M494.91,-230.13C416.99,-223.89 245.25,-207.98 228,-188 218.2,-176.65 203.06,-141.05 229,-112 249.61,-88.91 459.94,-73.77 540.15,-68.79"/>
<polygon fill="midnightblue" stroke="midnightblue" points="540.37,-72.29 550.14,-68.19 539.94,-65.3 540.37,-72.29"/>
</g>
<!-- Node9 -->
<g id="node9" class="node">
<title>Node9</title>
<g id="a_node9"><a xlink:title=" ">
<polygon fill="white" stroke="#bfbfbf" points="586.5,-168.5 586.5,-187.5 637.5,-187.5 637.5,-168.5 586.5,-168.5"/>
<text text-anchor="middle" x="612" y="-175.5" font-family="Helvetica,sans-Serif" font-size="10.00">memory</text>
</a>
</g>
</g>
<!-- Node8&#45;&gt;Node9 -->
<g id="edge8" class="edge">
<title>Node8&#45;&gt;Node9</title>
<path fill="none" stroke="midnightblue" d="M545.69,-224.32C557.9,-215.98 576.58,-203.21 591,-193.35"/>
<polygon fill="midnightblue" stroke="midnightblue" points="593.06,-196.19 599.34,-187.65 589.11,-190.41 593.06,-196.19"/>
</g>
<!-- Node10 -->
<g id="node10" class="node">
<title>Node10</title>
<g id="a_node10"><a xlink:href="Exceptions_8h.html" target="_top" xlink:title="Interally used exceptions. These can be handled properly in the main game class.">
<polygon fill="white" stroke="black" points="497.5,-168.5 497.5,-187.5 568.5,-187.5 568.5,-168.5 497.5,-168.5"/>
<text text-anchor="middle" x="533" y="-175.5" font-family="Helvetica,sans-Serif" font-size="10.00">Exceptions.h</text>
</a>
</g>
</g>
<!-- Node8&#45;&gt;Node10 -->
<g id="edge10" class="edge">
<title>Node8&#45;&gt;Node10</title>
<path fill="none" stroke="midnightblue" d="M533,-224.08C533,-217.01 533,-206.86 533,-197.99"/>
<polygon fill="midnightblue" stroke="midnightblue" points="536.5,-197.75 533,-187.75 529.5,-197.75 536.5,-197.75"/>
</g>
<!-- Node10&#45;&gt;Node5 -->
<g id="edge12" class="edge">
<title>Node10&#45;&gt;Node5</title>
<path fill="none" stroke="midnightblue" d="M535.98,-168.37C542.14,-150.54 556.39,-109.3 564.69,-85.27"/>
<polygon fill="midnightblue" stroke="midnightblue" points="568.07,-86.19 568.03,-75.59 561.46,-83.9 568.07,-86.19"/>
</g>
<!-- Node11 -->
<g id="node11" class="node">
<title>Node11</title>
<g id="a_node11"><a xlink:title=" ">
<polygon fill="white" stroke="#bfbfbf" points="1017.5,-112.5 1017.5,-131.5 1076.5,-131.5 1076.5,-112.5 1017.5,-112.5"/>
<text text-anchor="middle" x="1047" y="-119.5" font-family="Helvetica,sans-Serif" font-size="10.00">stdexcept</text>
</a>
</g>
</g>
<!-- Node10&#45;&gt;Node11 -->
<g id="edge11" class="edge">
<title>Node10&#45;&gt;Node11</title>
<path fill="none" stroke="midnightblue" d="M568.96,-169.28C571.67,-168.81 574.38,-168.38 577,-168 764.02,-141.16 816.31,-160.98 1007.19,-131.88"/>
<polygon fill="midnightblue" stroke="midnightblue" points="1007.93,-135.31 1017.28,-130.32 1006.86,-128.4 1007.93,-135.31"/>
</g>
<!-- Node12&#45;&gt;Node2 -->
<g id="edge37" class="edge">
<title>Node12&#45;&gt;Node2</title>
<path fill="none" stroke="midnightblue" d="M588.96,-225.13C585.93,-224.73 582.93,-224.35 580,-224 433.69,-206.51 262.73,-192.62 162.24,-185.12"/>
<polygon fill="midnightblue" stroke="midnightblue" points="162.37,-181.62 152.14,-184.37 161.85,-188.6 162.37,-181.62"/>
</g>
<!-- Node12&#45;&gt;Node9 -->
<g id="edge14" class="edge">
<title>Node12&#45;&gt;Node9</title>
<path fill="none" stroke="midnightblue" d="M635.38,-224.08C631.54,-216.69 625.98,-205.95 621.24,-196.81"/>
<polygon fill="midnightblue" stroke="midnightblue" points="624.25,-195.02 616.54,-187.75 618.03,-198.24 624.25,-195.02"/>
</g>
<!-- Node13 -->
<g id="node13" class="node">
<title>Node13</title>
<g id="a_node13"><a xlink:href="AssetService_8h.html" target="_top" xlink:title="Implementation of AssetService.">
<polygon fill="white" stroke="black" points="237.5,-168.5 237.5,-187.5 352.5,-187.5 352.5,-168.5 237.5,-168.5"/>
<text text-anchor="middle" x="295" y="-175.5" font-family="Helvetica,sans-Serif" font-size="10.00">assets/AssetService.h</text>
</a>
</g>
</g>
<!-- Node12&#45;&gt;Node13 -->
<g id="edge15" class="edge">
<title>Node12&#45;&gt;Node13</title>
<path fill="none" stroke="midnightblue" d="M588.72,-224.97C527.66,-215.42 425.62,-199.45 359.33,-189.07"/>
<polygon fill="midnightblue" stroke="midnightblue" points="359.83,-185.6 349.41,-187.52 358.75,-192.52 359.83,-185.6"/>
</g>
<!-- Node23 -->
<g id="node23" class="node">
<title>Node23</title>
<g id="a_node23"><a xlink:href="AudioService_8h.html" target="_top" xlink:title="Default audio service, can actually play audio.">
<polygon fill="white" stroke="black" points="371,-168.5 371,-187.5 479,-187.5 479,-168.5 371,-168.5"/>
<text text-anchor="middle" x="425" y="-175.5" font-family="Helvetica,sans-Serif" font-size="10.00">audio/AudioService.h</text>
</a>
</g>
</g>
<!-- Node12&#45;&gt;Node23 -->
<g id="edge33" class="edge">
<title>Node12&#45;&gt;Node23</title>
<path fill="none" stroke="midnightblue" d="M605.93,-224.44C568.82,-215.12 509.34,-200.18 468.79,-190"/>
<polygon fill="midnightblue" stroke="midnightblue" points="469.46,-186.56 458.91,-187.52 467.75,-193.35 469.46,-186.56"/>
</g>
<!-- Node24 -->
<g id="node24" class="node">
<title>Node24</title>
<g id="a_node24"><a xlink:href="DisplayService_8h.html" target="_top" xlink:title="Service that encapsulates SDL display related functionality.">
<polygon fill="white" stroke="black" points="930,-168.5 930,-187.5 1052,-187.5 1052,-168.5 930,-168.5"/>
<text text-anchor="middle" x="991" y="-175.5" font-family="Helvetica,sans-Serif" font-size="10.00">display/DisplayService.h</text>
</a>
</g>
</g>
<!-- Node12&#45;&gt;Node24 -->
<g id="edge38" class="edge">
<title>Node12&#45;&gt;Node24</title>
<path fill="none" stroke="midnightblue" d="M691.04,-225.15C752.98,-215.62 857.54,-199.53 925.4,-189.09"/>
<polygon fill="midnightblue" stroke="midnightblue" points="926.2,-192.51 935.55,-187.53 925.14,-185.59 926.2,-192.51"/>
</g>
<!-- Node27 -->
<g id="node27" class="node">
<title>Node27</title>
<g id="a_node27"><a xlink:href="EventQueue_8h.html" target="_top" xlink:title="Handles SDL_Events from main SDL_Queue. Can be hooked into by other services and notified when change...">
<polygon fill="white" stroke="black" points="1235,-168.5 1235,-187.5 1345,-187.5 1345,-168.5 1235,-168.5"/>
<text text-anchor="middle" x="1290" y="-175.5" font-family="Helvetica,sans-Serif" font-size="10.00">events/EventQueue.h</text>
</a>
</g>
</g>
<!-- Node12&#45;&gt;Node27 -->
<g id="edge45" class="edge">
<title>Node12&#45;&gt;Node27</title>
<path fill="none" stroke="midnightblue" d="M691.03,-225.08C694.06,-224.69 697.07,-224.33 700,-224 918.35,-199.69 974.06,-206.15 1193,-188 1203.28,-187.15 1214.17,-186.19 1224.8,-185.23"/>
<polygon fill="midnightblue" stroke="midnightblue" points="1225.23,-188.7 1234.87,-184.3 1224.59,-181.73 1225.23,-188.7"/>
</g>
<!-- Node29 -->
<g id="node29" class="node">
<title>Node29</title>
<g id="a_node29"><a xlink:href="InputService_8h.html" target="_top" xlink:title="General Purpose input listener. Handles Mouse, Keyboard, Joystick.">
<polygon fill="white" stroke="black" points="1373.5,-168.5 1373.5,-187.5 1476.5,-187.5 1476.5,-168.5 1373.5,-168.5"/>
<text text-anchor="middle" x="1425" y="-175.5" font-family="Helvetica,sans-Serif" font-size="10.00">input/InputService.h</text>
</a>
</g>
</g>
<!-- Node12&#45;&gt;Node29 -->
<g id="edge49" class="edge">
<title>Node12&#45;&gt;Node29</title>
<path fill="none" stroke="midnightblue" d="M691.02,-225.01C694.06,-224.64 697.07,-224.3 700,-224 989.6,-194.38 1064.09,-214.32 1354,-188 1357.06,-187.72 1360.18,-187.41 1363.34,-187.09"/>
<polygon fill="midnightblue" stroke="midnightblue" points="1363.91,-190.54 1373.47,-185.97 1363.15,-183.59 1363.91,-190.54"/>
</g>
<!-- Node37 -->
<g id="node37" class="node">
<title>Node37</title>
<g id="a_node37"><a xlink:href="DebugLoggingService_8h.html" target="_top" xlink:title="Logging service that does the logging. Used for development.">
<polygon fill="white" stroke="black" points="655.5,-168.5 655.5,-187.5 808.5,-187.5 808.5,-168.5 655.5,-168.5"/>
<text text-anchor="middle" x="732" y="-175.5" font-family="Helvetica,sans-Serif" font-size="10.00">logging/DebugLoggingService.h</text>
</a>
</g>
</g>
<!-- Node12&#45;&gt;Node37 -->
<g id="edge62" class="edge">
<title>Node12&#45;&gt;Node37</title>
<path fill="none" stroke="midnightblue" d="M654.78,-224.32C669.27,-215.82 691.57,-202.73 708.49,-192.8"/>
<polygon fill="midnightblue" stroke="midnightblue" points="710.4,-195.74 717.26,-187.65 706.86,-189.7 710.4,-195.74"/>
</g>
<!-- Node39 -->
<g id="node39" class="node">
<title>Node39</title>
<g id="a_node39"><a xlink:href="SceneService_8h.html" target="_top" xlink:title="Service in charge of managing scenes.">
<polygon fill="white" stroke="black" points="1070,-168.5 1070,-187.5 1184,-187.5 1184,-168.5 1070,-168.5"/>
<text text-anchor="middle" x="1127" y="-175.5" font-family="Helvetica,sans-Serif" font-size="10.00">scene/SceneService.h</text>
</a>
</g>
</g>
<!-- Node12&#45;&gt;Node39 -->
<g id="edge66" class="edge">
<title>Node12&#45;&gt;Node39</title>
<path fill="none" stroke="midnightblue" d="M691.04,-225.17C694.07,-224.76 697.07,-224.37 700,-224 856.72,-204.44 899.14,-206.79 1059.55,-188.13"/>
<polygon fill="midnightblue" stroke="midnightblue" points="1060.25,-191.57 1069.78,-186.93 1059.44,-184.62 1060.25,-191.57"/>
</g>
<!-- Node13&#45;&gt;Node3 -->
<g id="edge16" class="edge">
<title>Node13&#45;&gt;Node3</title>
<path fill="none" stroke="midnightblue" d="M269.49,-168.44C240.01,-158.56 191.7,-142.35 161.43,-132.2"/>
<polygon fill="midnightblue" stroke="midnightblue" points="162.51,-128.87 151.91,-129.01 160.28,-135.51 162.51,-128.87"/>
</g>
<!-- Node13&#45;&gt;Node5 -->
<g id="edge17" class="edge">
<title>Node13&#45;&gt;Node5</title>
<path fill="none" stroke="midnightblue" d="M277.58,-168.43C254.64,-156.04 219.18,-132.38 237,-112 256.82,-89.33 460.66,-74.03 539.82,-68.9"/>
<polygon fill="midnightblue" stroke="midnightblue" points="540.37,-72.37 550.12,-68.24 539.92,-65.38 540.37,-72.37"/>
</g>
<!-- Node14 -->
<g id="node14" class="node">
<title>Node14</title>
<g id="a_node14"><a xlink:href="Font_8h.html" target="_top" xlink:title="Easy interface to interact with SDL fonts.">
<polygon fill="white" stroke="black" points="785.5,-112.5 785.5,-131.5 876.5,-131.5 876.5,-112.5 785.5,-112.5"/>
<text text-anchor="middle" x="831" y="-119.5" font-family="Helvetica,sans-Serif" font-size="10.00">../../assets/Font.h</text>
</a>
</g>
</g>
<!-- Node13&#45;&gt;Node14 -->
<g id="edge18" class="edge">
<title>Node13&#45;&gt;Node14</title>
<path fill="none" stroke="midnightblue" d="M352.73,-169.1C355.86,-168.72 358.97,-168.35 362,-168 511.1,-150.84 687.4,-135.16 775.32,-127.66"/>
<polygon fill="midnightblue" stroke="midnightblue" points="775.67,-131.14 785.34,-126.8 775.07,-124.16 775.67,-131.14"/>
</g>
<!-- Node18 -->
<g id="node18" class="node">
<title>Node18</title>
<g id="a_node18"><a xlink:href="Sound_8h.html" target="_top" xlink:title="Implementation of Sound.">
<polygon fill="white" stroke="black" points="246.5,-112.5 246.5,-131.5 345.5,-131.5 345.5,-112.5 246.5,-112.5"/>
<text text-anchor="middle" x="296" y="-119.5" font-family="Helvetica,sans-Serif" font-size="10.00">../../assets/Sound.h</text>
</a>
</g>
</g>
<!-- Node13&#45;&gt;Node18 -->
<g id="edge23" class="edge">
<title>Node13&#45;&gt;Node18</title>
<path fill="none" stroke="midnightblue" d="M295.17,-168.08C295.3,-161.01 295.48,-150.86 295.65,-141.99"/>
<polygon fill="midnightblue" stroke="midnightblue" points="299.15,-141.81 295.84,-131.75 292.15,-141.68 299.15,-141.81"/>
</g>
<!-- Node20 -->
<g id="node20" class="node">
<title>Node20</title>
<g id="a_node20"><a xlink:href="Stream_8h.html" target="_top" xlink:title="Wrapper for sdl stream including ability to store stream pointer. Use for single instance sounds like...">
<polygon fill="white" stroke="black" points="363.5,-112.5 363.5,-131.5 466.5,-131.5 466.5,-112.5 363.5,-112.5"/>
<text text-anchor="middle" x="415" y="-119.5" font-family="Helvetica,sans-Serif" font-size="10.00">../../assets/Stream.h</text>
</a>
</g>
</g>
<!-- Node13&#45;&gt;Node20 -->
<g id="edge26" class="edge">
<title>Node13&#45;&gt;Node20</title>
<path fill="none" stroke="midnightblue" d="M314.01,-168.44C333.59,-159.64 364.31,-145.81 386.73,-135.72"/>
<polygon fill="midnightblue" stroke="midnightblue" points="388.39,-138.81 396.07,-131.52 385.52,-132.43 388.39,-138.81"/>
</g>
<!-- Node21 -->
<g id="node21" class="node">
<title>Node21</title>
<g id="a_node21"><a xlink:href="Texture_8h.html" target="_top" xlink:title="Easy interface to interact with sdl bitmaps.">
<polygon fill="white" stroke="black" points="895,-112.5 895,-131.5 999,-131.5 999,-112.5 895,-112.5"/>
<text text-anchor="middle" x="947" y="-119.5" font-family="Helvetica,sans-Serif" font-size="10.00">../../assets/Texture.h</text>
</a>
</g>
</g>
<!-- Node13&#45;&gt;Node21 -->
<g id="edge29" class="edge">
<title>Node13&#45;&gt;Node21</title>
<path fill="none" stroke="midnightblue" d="M352.72,-169.01C355.85,-168.65 358.96,-168.31 362,-168 590.96,-144.78 652.19,-156.71 884.67,-132.06"/>
<polygon fill="midnightblue" stroke="midnightblue" points="885.22,-135.52 894.79,-130.98 884.47,-128.56 885.22,-135.52"/>
</g>
<!-- Node14&#45;&gt;Node5 -->
<g id="edge20" class="edge">
<title>Node14&#45;&gt;Node5</title>
<path fill="none" stroke="midnightblue" d="M789.8,-112.44C737.35,-101.55 647.96,-82.98 601.33,-73.3"/>
<polygon fill="midnightblue" stroke="midnightblue" points="602.02,-69.87 591.52,-71.26 600.6,-76.72 602.02,-69.87"/>
</g>
<!-- Node15 -->
<g id="node15" class="node">
<title>Node15</title>
<g id="a_node15"><a xlink:title=" ">
<polygon fill="white" stroke="#bfbfbf" points="788,-56.5 788,-75.5 874,-75.5 874,-56.5 788,-56.5"/>
<text text-anchor="middle" x="831" y="-63.5" font-family="Helvetica,sans-Serif" font-size="10.00">SDL2/SDL_ttf.h</text>
</a>
</g>
</g>
<!-- Node14&#45;&gt;Node15 -->
<g id="edge19" class="edge">
<title>Node14&#45;&gt;Node15</title>
<path fill="none" stroke="midnightblue" d="M831,-112.08C831,-105.01 831,-94.86 831,-85.99"/>
<polygon fill="midnightblue" stroke="midnightblue" points="834.5,-85.75 831,-75.75 827.5,-85.75 834.5,-85.75"/>
</g>
<!-- Node16 -->
<g id="node16" class="node">
<title>Node16</title>
<g id="a_node16"><a xlink:href="Color_8h.html" target="_top" xlink:title="Helpers for creating colors without accessing SDL api directly.">
<polygon fill="white" stroke="black" points="908,-56.5 908,-75.5 986,-75.5 986,-56.5 908,-56.5"/>
<text text-anchor="middle" x="947" y="-63.5" font-family="Helvetica,sans-Serif" font-size="10.00">../color/Color.h</text>
</a>
</g>
</g>
<!-- Node14&#45;&gt;Node16 -->
<g id="edge21" class="edge">
<title>Node14&#45;&gt;Node16</title>
<path fill="none" stroke="midnightblue" d="M849.38,-112.44C868.22,-103.68 897.73,-89.94 919.38,-79.86"/>
<polygon fill="midnightblue" stroke="midnightblue" points="921.12,-82.91 928.71,-75.52 918.16,-76.56 921.12,-82.91"/>
</g>
<!-- Node17 -->
<g id="node17" class="node">
<title>Node17</title>
<g id="a_node17"><a xlink:title=" ">
<polygon fill="white" stroke="#bfbfbf" points="878,-0.5 878,-19.5 1016,-19.5 1016,-0.5 878,-0.5"/>
<text text-anchor="middle" x="947" y="-7.5" font-family="Helvetica,sans-Serif" font-size="10.00">SDL2/SDL2_gfxPrimitives.h</text>
</a>
</g>
</g>
<!-- Node16&#45;&gt;Node17 -->
<g id="edge22" class="edge">
<title>Node16&#45;&gt;Node17</title>
<path fill="none" stroke="midnightblue" d="M947,-56.08C947,-49.01 947,-38.86 947,-29.99"/>
<polygon fill="midnightblue" stroke="midnightblue" points="950.5,-29.75 947,-19.75 943.5,-29.75 950.5,-29.75"/>
</g>
<!-- Node18&#45;&gt;Node5 -->
<g id="edge25" class="edge">
<title>Node18&#45;&gt;Node5</title>
<path fill="none" stroke="midnightblue" d="M339.57,-112.44C395.59,-101.44 491.44,-82.62 540.35,-73.02"/>
<polygon fill="midnightblue" stroke="midnightblue" points="541.18,-76.42 550.32,-71.06 539.83,-69.55 541.18,-76.42"/>
</g>
<!-- Node19 -->
<g id="node19" class="node">
<title>Node19</title>
<g id="a_node19"><a xlink:title=" ">
<polygon fill="white" stroke="#bfbfbf" points="306,-56.5 306,-75.5 406,-75.5 406,-56.5 306,-56.5"/>
<text text-anchor="middle" x="356" y="-63.5" font-family="Helvetica,sans-Serif" font-size="10.00">SDL2/SDL_mixer.h</text>
</a>
</g>
</g>
<!-- Node18&#45;&gt;Node19 -->
<g id="edge24" class="edge">
<title>Node18&#45;&gt;Node19</title>
<path fill="none" stroke="midnightblue" d="M305.64,-112.32C314.51,-104.34 327.87,-92.31 338.61,-82.65"/>
<polygon fill="midnightblue" stroke="midnightblue" points="341.09,-85.13 346.18,-75.83 336.41,-79.92 341.09,-85.13"/>
</g>
<!-- Node20&#45;&gt;Node5 -->
<g id="edge28" class="edge">
<title>Node20&#45;&gt;Node5</title>
<path fill="none" stroke="midnightblue" d="M439.72,-112.44C467.08,-102.97 511.19,-87.7 540.63,-77.51"/>
<polygon fill="midnightblue" stroke="midnightblue" points="542.08,-80.72 550.38,-74.14 539.79,-74.1 542.08,-80.72"/>
</g>
<!-- Node20&#45;&gt;Node19 -->
<g id="edge27" class="edge">
<title>Node20&#45;&gt;Node19</title>
<path fill="none" stroke="midnightblue" d="M405.52,-112.32C396.8,-104.34 383.66,-92.31 373.1,-82.65"/>
<polygon fill="midnightblue" stroke="midnightblue" points="375.39,-80 365.65,-75.83 370.67,-85.17 375.39,-80"/>
</g>
<!-- Node21&#45;&gt;Node5 -->
<g id="edge31" class="edge">
<title>Node21&#45;&gt;Node5</title>
<path fill="none" stroke="midnightblue" d="M894.76,-113.28C891.8,-112.84 888.86,-112.42 886,-112 781.74,-96.86 658.01,-79.3 601.67,-71.33"/>
<polygon fill="midnightblue" stroke="midnightblue" points="602.04,-67.85 591.64,-69.92 601.06,-74.78 602.04,-67.85"/>
</g>
<!-- Node21&#45;&gt;Node16 -->
<g id="edge32" class="edge">
<title>Node21&#45;&gt;Node16</title>
<path fill="none" stroke="midnightblue" d="M947,-112.08C947,-105.01 947,-94.86 947,-85.99"/>
<polygon fill="midnightblue" stroke="midnightblue" points="950.5,-85.75 947,-75.75 943.5,-85.75 950.5,-85.75"/>
</g>
<!-- Node22 -->
<g id="node22" class="node">
<title>Node22</title>
<g id="a_node22"><a xlink:title=" ">
<polygon fill="white" stroke="#bfbfbf" points="1228.5,-56.5 1228.5,-75.5 1299.5,-75.5 1299.5,-56.5 1228.5,-56.5"/>
<text text-anchor="middle" x="1264" y="-63.5" font-family="Helvetica,sans-Serif" font-size="10.00">SDL2/SDL.h</text>
</a>
</g>
</g>
<!-- Node21&#45;&gt;Node22 -->
<g id="edge30" class="edge">
<title>Node21&#45;&gt;Node22</title>
<path fill="none" stroke="midnightblue" d="M997.23,-112.44C1058,-102.09 1159.45,-84.81 1218.17,-74.81"/>
<polygon fill="midnightblue" stroke="midnightblue" points="1219,-78.22 1228.27,-73.09 1217.82,-71.32 1219,-78.22"/>
</g>
<!-- Node23&#45;&gt;Node5 -->
<g id="edge34" class="edge">
<title>Node23&#45;&gt;Node5</title>
<path fill="none" stroke="midnightblue" d="M436.46,-168.37C461.3,-149.65 520.36,-105.15 551.31,-81.83"/>
<polygon fill="midnightblue" stroke="midnightblue" points="553.72,-84.4 559.6,-75.59 549.5,-78.81 553.72,-84.4"/>
</g>
<!-- Node23&#45;&gt;Node18 -->
<g id="edge35" class="edge">
<title>Node23&#45;&gt;Node18</title>
<path fill="none" stroke="midnightblue" d="M404.56,-168.44C383.33,-159.56 349.9,-145.56 325.75,-135.45"/>
<polygon fill="midnightblue" stroke="midnightblue" points="326.92,-132.15 316.34,-131.52 324.22,-138.61 326.92,-132.15"/>
</g>
<!-- Node23&#45;&gt;Node20 -->
<g id="edge36" class="edge">
<title>Node23&#45;&gt;Node20</title>
<path fill="none" stroke="midnightblue" d="M423.35,-168.08C422.02,-160.93 420.12,-150.64 418.46,-141.69"/>
<polygon fill="midnightblue" stroke="midnightblue" points="421.88,-140.95 416.62,-131.75 415,-142.22 421.88,-140.95"/>
</g>
<!-- Node24&#45;&gt;Node5 -->
<g id="edge40" class="edge">
<title>Node24&#45;&gt;Node5</title>
<path fill="none" stroke="midnightblue" d="M929.81,-170.33C878.96,-163.74 805.14,-151.73 743,-132 722.91,-125.62 719.53,-119.93 700,-112 666.82,-98.54 627.91,-85.3 601.57,-76.71"/>
<polygon fill="midnightblue" stroke="midnightblue" points="602.38,-73.29 591.79,-73.54 600.23,-79.95 602.38,-73.29"/>
</g>
<!-- Node24&#45;&gt;Node16 -->
<g id="edge41" class="edge">
<title>Node24&#45;&gt;Node16</title>
<path fill="none" stroke="midnightblue" d="M1036.72,-168.45C1086.69,-158.64 1160.78,-142.56 1169,-132 1174.46,-124.99 1174.63,-118.88 1169,-112 1147.63,-85.86 1055.07,-74.54 996.42,-69.92"/>
<polygon fill="midnightblue" stroke="midnightblue" points="996.48,-66.42 986.25,-69.16 995.96,-73.4 996.48,-66.42"/>
</g>
<!-- Node24&#45;&gt;Node22 -->
<g id="edge39" class="edge">
<title>Node24&#45;&gt;Node22</title>
<path fill="none" stroke="midnightblue" d="M1039.2,-168.43C1087.99,-159.3 1159.73,-144.46 1185,-132 1210,-119.67 1234.04,-98.03 1248.9,-83.13"/>
<polygon fill="midnightblue" stroke="midnightblue" points="1251.71,-85.26 1256.16,-75.64 1246.68,-80.39 1251.71,-85.26"/>
</g>
<!-- Node25 -->
<g id="node25" class="node">
<title>Node25</title>
<g id="a_node25"><a xlink:href="Service_8h.html" target="_top" xlink:title="Service subscriber that can listen for events.">
<polygon fill="white" stroke="black" points="1094.5,-112.5 1094.5,-131.5 1159.5,-131.5 1159.5,-112.5 1094.5,-112.5"/>
<text text-anchor="middle" x="1127" y="-119.5" font-family="Helvetica,sans-Serif" font-size="10.00">../Service.h</text>
</a>
</g>
</g>
<!-- Node24&#45;&gt;Node25 -->
<g id="edge42" class="edge">
<title>Node24&#45;&gt;Node25</title>
<path fill="none" stroke="midnightblue" d="M1012.55,-168.44C1035.03,-159.52 1070.49,-145.44 1095.98,-135.32"/>
<polygon fill="midnightblue" stroke="midnightblue" points="1097.55,-138.46 1105.55,-131.52 1094.97,-131.95 1097.55,-138.46"/>
</g>
<!-- Node25&#45;&gt;Node5 -->
<g id="edge44" class="edge">
<title>Node25&#45;&gt;Node5</title>
<path fill="none" stroke="midnightblue" d="M1094.4,-113.45C1091.57,-112.91 1088.74,-112.42 1086,-112 903.82,-84.16 682.55,-72.03 602.12,-68.32"/>
<polygon fill="midnightblue" stroke="midnightblue" points="601.87,-64.8 591.72,-67.85 601.55,-71.8 601.87,-64.8"/>
</g>
<!-- Node26 -->
<g id="node26" class="node">
<title>Node26</title>
<g id="a_node26"><a xlink:title=" ">
<polygon fill="white" stroke="#bfbfbf" points="1332,-56.5 1332,-75.5 1438,-75.5 1438,-56.5 1332,-56.5"/>
<text text-anchor="middle" x="1385" y="-63.5" font-family="Helvetica,sans-Serif" font-size="10.00">SDL2/SDL_events.h</text>
</a>
</g>
</g>
<!-- Node25&#45;&gt;Node26 -->
<g id="edge43" class="edge">
<title>Node25&#45;&gt;Node26</title>
<path fill="none" stroke="midnightblue" d="M1159.68,-114.16C1203.66,-104.96 1282.35,-88.48 1334.12,-77.65"/>
<polygon fill="midnightblue" stroke="midnightblue" points="1335.03,-81.04 1344.1,-75.56 1333.59,-74.18 1335.03,-81.04"/>
</g>
<!-- Node27&#45;&gt;Node22 -->
<g id="edge46" class="edge">
<title>Node27&#45;&gt;Node22</title>
<path fill="none" stroke="midnightblue" d="M1306.62,-168.49C1327.25,-156.74 1358.19,-134.42 1345,-112 1336.08,-96.84 1320.01,-86.43 1304.52,-79.46"/>
<polygon fill="midnightblue" stroke="midnightblue" points="1305.6,-76.12 1295.02,-75.56 1302.94,-82.6 1305.6,-76.12"/>
</g>
<!-- Node27&#45;&gt;Node25 -->
<g id="edge48" class="edge">
<title>Node27&#45;&gt;Node25</title>
<path fill="none" stroke="midnightblue" d="M1264.17,-168.44C1236.75,-159.36 1193.22,-144.94 1162.57,-134.78"/>
<polygon fill="midnightblue" stroke="midnightblue" points="1163.3,-131.34 1152.71,-131.52 1161.1,-137.98 1163.3,-131.34"/>
</g>
<!-- Node28 -->
<g id="node28" class="node">
<title>Node28</title>
<g id="a_node28"><a xlink:title=" ">
<polygon fill="white" stroke="#bfbfbf" points="1292,-112.5 1292,-131.5 1336,-131.5 1336,-112.5 1292,-112.5"/>
<text text-anchor="middle" x="1314" y="-119.5" font-family="Helvetica,sans-Serif" font-size="10.00">vector</text>
</a>
</g>
</g>
<!-- Node27&#45;&gt;Node28 -->
<g id="edge47" class="edge">
<title>Node27&#45;&gt;Node28</title>
<path fill="none" stroke="midnightblue" d="M1293.96,-168.08C1297.21,-160.77 1301.92,-150.18 1305.95,-141.1"/>
<polygon fill="midnightblue" stroke="midnightblue" points="1309.25,-142.31 1310.11,-131.75 1302.85,-139.47 1309.25,-142.31"/>
</g>
<!-- Node29&#45;&gt;Node5 -->
<g id="edge52" class="edge">
<title>Node29&#45;&gt;Node5</title>
<path fill="none" stroke="midnightblue" d="M1397.68,-168.39C1351.22,-154.13 1253.63,-125.82 1169,-112 1057.86,-93.85 707.56,-74.24 601.64,-68.6"/>
<polygon fill="midnightblue" stroke="midnightblue" points="601.78,-65.1 591.61,-68.07 601.41,-72.09 601.78,-65.1"/>
</g>
<!-- Node29&#45;&gt;Node25 -->
<g id="edge53" class="edge">
<title>Node29&#45;&gt;Node25</title>
<path fill="none" stroke="midnightblue" d="M1376.38,-168.46C1325.8,-159.53 1244.3,-145.03 1174,-132 1172.54,-131.73 1171.06,-131.45 1169.57,-131.17"/>
<polygon fill="midnightblue" stroke="midnightblue" points="1170.08,-127.71 1159.61,-129.3 1168.78,-134.59 1170.08,-127.71"/>
</g>
<!-- Node29&#45;&gt;Node26 -->
<g id="edge50" class="edge">
<title>Node29&#45;&gt;Node26</title>
<path fill="none" stroke="midnightblue" d="M1421.86,-168.37C1415.38,-150.54 1400.38,-109.3 1391.64,-85.27"/>
<polygon fill="midnightblue" stroke="midnightblue" points="1394.83,-83.79 1388.12,-75.59 1388.25,-86.19 1394.83,-83.79"/>
</g>
<!-- Node30 -->
<g id="node30" class="node">
<title>Node30</title>
<g id="a_node30"><a xlink:title=" ">
<polygon fill="white" stroke="#bfbfbf" points="1627,-112.5 1627,-131.5 1681,-131.5 1681,-112.5 1627,-112.5"/>
<text text-anchor="middle" x="1654" y="-119.5" font-family="Helvetica,sans-Serif" font-size="10.00">iostream</text>
</a>
</g>
</g>
<!-- Node29&#45;&gt;Node30 -->
<g id="edge51" class="edge">
<title>Node29&#45;&gt;Node30</title>
<path fill="none" stroke="midnightblue" d="M1462.4,-168.46C1499.26,-160.01 1557.44,-146.56 1616.94,-132.23"/>
<polygon fill="midnightblue" stroke="midnightblue" points="1617.99,-135.58 1626.88,-129.83 1616.34,-128.77 1617.99,-135.58"/>
</g>
<!-- Node31 -->
<g id="node31" class="node">
<title>Node31</title>
<g id="a_node31"><a xlink:href="JoystickState_8h.html" target="_top" xlink:title="Container for storing Joystick state.">
<polygon fill="white" stroke="black" points="1430.5,-112.5 1430.5,-131.5 1513.5,-131.5 1513.5,-112.5 1430.5,-112.5"/>
<text text-anchor="middle" x="1472" y="-119.5" font-family="Helvetica,sans-Serif" font-size="10.00">JoystickState.h</text>
</a>
</g>
</g>
<!-- Node29&#45;&gt;Node31 -->
<g id="edge54" class="edge">
<title>Node29&#45;&gt;Node31</title>
<path fill="none" stroke="midnightblue" d="M1432.76,-168.08C1439.54,-160.3 1449.54,-148.8 1457.76,-139.37"/>
<polygon fill="midnightblue" stroke="midnightblue" points="1460.46,-141.59 1464.38,-131.75 1455.18,-137 1460.46,-141.59"/>
</g>
<!-- Node33 -->
<g id="node33" class="node">
<title>Node33</title>
<g id="a_node33"><a xlink:href="KeyboardState_8h.html" target="_top" xlink:title="Container for storing Keyboard state.">
<polygon fill="white" stroke="black" points="1699,-112.5 1699,-131.5 1787,-131.5 1787,-112.5 1699,-112.5"/>
<text text-anchor="middle" x="1743" y="-119.5" font-family="Helvetica,sans-Serif" font-size="10.00">KeyboardState.h</text>
</a>
</g>
</g>
<!-- Node29&#45;&gt;Node33 -->
<g id="edge57" class="edge">
<title>Node29&#45;&gt;Node33</title>
<path fill="none" stroke="midnightblue" d="M1475.39,-168.44C1533.66,-158.55 1629.22,-142.32 1688.99,-132.17"/>
<polygon fill="midnightblue" stroke="midnightblue" points="1689.72,-135.6 1698.99,-130.47 1688.55,-128.7 1689.72,-135.6"/>
</g>
<!-- Node35 -->
<g id="node35" class="node">
<title>Node35</title>
<g id="a_node35"><a xlink:href="MouseState_8h.html" target="_top" xlink:title="Container for storing Mouse state.">
<polygon fill="white" stroke="black" points="1531.5,-112.5 1531.5,-131.5 1608.5,-131.5 1608.5,-112.5 1531.5,-112.5"/>
<text text-anchor="middle" x="1570" y="-119.5" font-family="Helvetica,sans-Serif" font-size="10.00">MouseState.h</text>
</a>
</g>
</g>
<!-- Node29&#45;&gt;Node35 -->
<g id="edge59" class="edge">
<title>Node29&#45;&gt;Node35</title>
<path fill="none" stroke="midnightblue" d="M1447.98,-168.44C1472.16,-159.44 1510.42,-145.19 1537.65,-135.05"/>
<polygon fill="midnightblue" stroke="midnightblue" points="1538.98,-138.29 1547.13,-131.52 1536.54,-131.73 1538.98,-138.29"/>
</g>
<!-- Node31&#45;&gt;Node26 -->
<g id="edge55" class="edge">
<title>Node31&#45;&gt;Node26</title>
<path fill="none" stroke="midnightblue" d="M1458.02,-112.32C1444.45,-103.9 1423.62,-90.97 1407.68,-81.07"/>
<polygon fill="midnightblue" stroke="midnightblue" points="1409.29,-77.95 1398.94,-75.65 1405.59,-83.9 1409.29,-77.95"/>
</g>
<!-- Node32 -->
<g id="node32" class="node">
<title>Node32</title>
<g id="a_node32"><a xlink:href="JoystickCodes_8h.html" target="_top" xlink:title="Defines for codes used for joystick.">
<polygon fill="white" stroke="black" points="1456,-56.5 1456,-75.5 1544,-75.5 1544,-56.5 1456,-56.5"/>
<text text-anchor="middle" x="1500" y="-63.5" font-family="Helvetica,sans-Serif" font-size="10.00">JoystickCodes.h</text>
</a>
</g>
</g>
<!-- Node31&#45;&gt;Node32 -->
<g id="edge56" class="edge">
<title>Node31&#45;&gt;Node32</title>
<path fill="none" stroke="midnightblue" d="M1476.62,-112.08C1480.46,-104.69 1486.02,-93.95 1490.76,-84.81"/>
<polygon fill="midnightblue" stroke="midnightblue" points="1493.97,-86.24 1495.46,-75.75 1487.75,-83.02 1493.97,-86.24"/>
</g>
<!-- Node34 -->
<g id="node34" class="node">
<title>Node34</title>
<g id="a_node34"><a xlink:href="KeyboardKeys_8h.html" target="_top" xlink:title="Defenitions of keys that can be used by input manager.">
<polygon fill="white" stroke="black" points="1700,-56.5 1700,-75.5 1786,-75.5 1786,-56.5 1700,-56.5"/>
<text text-anchor="middle" x="1743" y="-63.5" font-family="Helvetica,sans-Serif" font-size="10.00">KeyboardKeys.h</text>
</a>
</g>
</g>
<!-- Node33&#45;&gt;Node34 -->
<g id="edge58" class="edge">
<title>Node33&#45;&gt;Node34</title>
<path fill="none" stroke="midnightblue" d="M1743,-112.08C1743,-105.01 1743,-94.86 1743,-85.99"/>
<polygon fill="midnightblue" stroke="midnightblue" points="1746.5,-85.75 1743,-75.75 1739.5,-85.75 1746.5,-85.75"/>
</g>
<!-- Node35&#45;&gt;Node26 -->
<g id="edge60" class="edge">
<title>Node35&#45;&gt;Node26</title>
<path fill="none" stroke="midnightblue" d="M1540.69,-112.44C1509.16,-103.24 1458.87,-88.56 1424.01,-78.39"/>
<polygon fill="midnightblue" stroke="midnightblue" points="1424.76,-74.96 1414.18,-75.52 1422.8,-81.68 1424.76,-74.96"/>
</g>
<!-- Node36 -->
<g id="node36" class="node">
<title>Node36</title>
<g id="a_node36"><a xlink:title=" ">
<polygon fill="white" stroke="#bfbfbf" points="1562,-56.5 1562,-75.5 1668,-75.5 1668,-56.5 1562,-56.5"/>
<text text-anchor="middle" x="1615" y="-63.5" font-family="Helvetica,sans-Serif" font-size="10.00">SDL2/SDL_mouse.h</text>
</a>
</g>
</g>
<!-- Node35&#45;&gt;Node36 -->
<g id="edge61" class="edge">
<title>Node35&#45;&gt;Node36</title>
<path fill="none" stroke="midnightblue" d="M1577.43,-112.08C1583.85,-104.38 1593.31,-93.03 1601.12,-83.65"/>
<polygon fill="midnightblue" stroke="midnightblue" points="1603.99,-85.67 1607.71,-75.75 1598.62,-81.19 1603.99,-85.67"/>
</g>
<!-- Node37&#45;&gt;Node5 -->
<g id="edge63" class="edge">
<title>Node37&#45;&gt;Node5</title>
<path fill="none" stroke="midnightblue" d="M660.79,-168.49C635.5,-162.16 608.71,-151.14 590,-132 578.07,-119.79 573.56,-100.53 571.89,-86.13"/>
<polygon fill="midnightblue" stroke="midnightblue" points="575.36,-85.55 571.07,-75.86 568.38,-86.11 575.36,-85.55"/>
</g>
<!-- Node38 -->
<g id="node38" class="node">
<title>Node38</title>
<g id="a_node38"><a xlink:href="LoggingService_8h.html" target="_top" xlink:title="Default logging service. Does nothing. Use in production.">
<polygon fill="white" stroke="black" points="599,-112.5 599,-131.5 691,-131.5 691,-112.5 599,-112.5"/>
<text text-anchor="middle" x="645" y="-119.5" font-family="Helvetica,sans-Serif" font-size="10.00">LoggingService.h</text>
</a>
</g>
</g>
<!-- Node37&#45;&gt;Node38 -->
<g id="edge64" class="edge">
<title>Node37&#45;&gt;Node38</title>
<path fill="none" stroke="midnightblue" d="M718.02,-168.32C704.45,-159.9 683.62,-146.97 667.68,-137.07"/>
<polygon fill="midnightblue" stroke="midnightblue" points="669.29,-133.95 658.94,-131.65 665.59,-139.9 669.29,-133.95"/>
</g>
<!-- Node38&#45;&gt;Node5 -->
<g id="edge65" class="edge">
<title>Node38&#45;&gt;Node5</title>
<path fill="none" stroke="midnightblue" d="M633.11,-112.32C621.85,-104.11 604.71,-91.6 591.29,-81.81"/>
<polygon fill="midnightblue" stroke="midnightblue" points="593.25,-78.9 583.11,-75.83 589.12,-84.56 593.25,-78.9"/>
</g>
<!-- Node39&#45;&gt;Node5 -->
<g id="edge67" class="edge">
<title>Node39&#45;&gt;Node5</title>
<path fill="none" stroke="midnightblue" d="M1069.77,-169.16C1066.8,-168.77 1063.87,-168.38 1061,-168 934.41,-151.37 898.17,-169.08 776,-132 756.98,-126.23 754.57,-119.09 736,-112 690.45,-94.6 635.44,-81 601.85,-73.49"/>
<polygon fill="midnightblue" stroke="midnightblue" points="602.25,-70 591.74,-71.27 600.75,-76.84 602.25,-70"/>
</g>
<!-- Node39&#45;&gt;Node25 -->
<g id="edge69" class="edge">
<title>Node39&#45;&gt;Node25</title>
<path fill="none" stroke="midnightblue" d="M1127,-168.08C1127,-161.01 1127,-150.86 1127,-141.99"/>
<polygon fill="midnightblue" stroke="midnightblue" points="1130.5,-141.75 1127,-131.75 1123.5,-141.75 1130.5,-141.75"/>
</g>
<!-- Node39&#45;&gt;Node28 -->
<g id="edge68" class="edge">
<title>Node39&#45;&gt;Node28</title>
<path fill="none" stroke="midnightblue" d="M1156.63,-168.44C1190.84,-158.56 1246.91,-142.37 1282.07,-132.22"/>
<polygon fill="midnightblue" stroke="midnightblue" points="1283.19,-135.54 1291.83,-129.4 1281.25,-128.81 1283.19,-135.54"/>
</g>
</g>
</svg>
