<?xml version="1.0" encoding="UTF-8" standalone="no"?>
<!DOCTYPE svg PUBLIC "-//W3C//DTD SVG 1.1//EN"
 "http://www.w3.org/Graphics/SVG/1.1/DTD/svg11.dtd">
<!-- Generated by graphviz version 2.46.1 (20210215.1649)
 -->
<!-- Title: include/services/config/ConfigService.h Pages: 1 -->
<svg width="2014pt" height="229pt"
 viewBox="0.00 0.00 2014.00 229.00" xmlns="http://www.w3.org/2000/svg" xmlns:xlink="http://www.w3.org/1999/xlink">
<g id="graph0" class="graph" transform="scale(1 1) rotate(0) translate(4 225)">
<title>include/services/config/ConfigService.h</title>
<polygon fill="white" stroke="transparent" points="-4,4 -4,-225 2010,-225 2010,4 -4,4"/>
<!-- Node1 -->
<g id="node1" class="node">
<title>Node1</title>
<g id="a_node1"><a xlink:title="Header for default Config Service.">
<polygon fill="#bfbfbf" stroke="black" points="605.5,-190.5 605.5,-220.5 721.5,-220.5 721.5,-190.5 605.5,-190.5"/>
<text text-anchor="start" x="613.5" y="-208.5" font-family="Helvetica,sans-Serif" font-size="10.00">include/services/config</text>
<text text-anchor="middle" x="663.5" y="-197.5" font-family="Helvetica,sans-Serif" font-size="10.00">/ConfigService.h</text>
</a>
</g>
</g>
<!-- Node2 -->
<g id="node2" class="node">
<title>Node2</title>
<g id="a_node2"><a xlink:href="ConfigService_8cpp.html" target="_top" xlink:title="Implementation of default Config Service.">
<polygon fill="white" stroke="black" points="200.5,-67.5 200.5,-97.5 298.5,-97.5 298.5,-67.5 200.5,-67.5"/>
<text text-anchor="start" x="208.5" y="-85.5" font-family="Helvetica,sans-Serif" font-size="10.00">src/services/config</text>
<text text-anchor="middle" x="249.5" y="-74.5" font-family="Helvetica,sans-Serif" font-size="10.00">/ConfigService.cpp</text>
</a>
</g>
</g>
<!-- Node1&#45;&gt;Node2 -->
<g id="edge1" class="edge">
<title>Node1&#45;&gt;Node2</title>
<path fill="none" stroke="midnightblue" d="M605.5,-187.55C523.17,-163.49 373.96,-119.87 297.49,-97.53"/>
<polygon fill="midnightblue" stroke="midnightblue" points="604.62,-190.94 615.2,-190.38 606.58,-184.22 604.62,-190.94"/>
</g>
<!-- Node3 -->
<g id="node3" class="node">
<title>Node3</title>
<g id="a_node3"><a xlink:href="Services_8h.html" target="_top" xlink:title="Implementation of core Services class.">
<polygon fill="white" stroke="black" points="939.5,-134.5 939.5,-153.5 1075.5,-153.5 1075.5,-134.5 939.5,-134.5"/>
<text text-anchor="middle" x="1007.5" y="-141.5" font-family="Helvetica,sans-Serif" font-size="10.00">include/services/Services.h</text>
</a>
</g>
</g>
<!-- Node1&#45;&gt;Node3 -->
<g id="edge2" class="edge">
<title>Node1&#45;&gt;Node3</title>
<path fill="none" stroke="midnightblue" d="M731.88,-192.67C798.77,-181.1 898.98,-163.77 958.35,-153.5"/>
<polygon fill="midnightblue" stroke="midnightblue" points="731.11,-189.25 721.85,-194.41 732.31,-196.15 731.11,-189.25"/>
</g>
<!-- Node3&#45;&gt;Node2 -->
<g id="edge15" class="edge">
<title>Node3&#45;&gt;Node2</title>
<path fill="none" stroke="midnightblue" d="M928.85,-142.04C799.58,-139.53 534.4,-130.5 312.5,-98 307.95,-97.33 303.24,-96.51 298.54,-95.59"/>
<polygon fill="midnightblue" stroke="midnightblue" points="928.99,-145.54 939.05,-142.23 929.12,-138.54 928.99,-145.54"/>
</g>
<!-- Node4 -->
<g id="node4" class="node">
<title>Node4</title>
<g id="a_node4"><a xlink:href="Font_8cpp.html" target="_top" xlink:title="Implementation of Font.">
<polygon fill="white" stroke="black" points="1640,-73 1640,-92 1743,-92 1743,-73 1640,-73"/>
<text text-anchor="middle" x="1691.5" y="-80" font-family="Helvetica,sans-Serif" font-size="10.00">src/assets/Font.cpp</text>
</a>
</g>
</g>
<!-- Node3&#45;&gt;Node4 -->
<g id="edge3" class="edge">
<title>Node3&#45;&gt;Node4</title>
<path fill="none" stroke="midnightblue" d="M1085.87,-141.49C1204.57,-138.28 1436.76,-128.34 1631.5,-98 1641.03,-96.52 1651.27,-94.28 1660.55,-92.01"/>
<polygon fill="midnightblue" stroke="midnightblue" points="1085.69,-138 1075.78,-141.76 1085.87,-144.99 1085.69,-138"/>
</g>
<!-- Node5 -->
<g id="node5" class="node">
<title>Node5</title>
<g id="a_node5"><a xlink:href="Texture_8cpp.html" target="_top" xlink:title="Implementation of Texture.">
<polygon fill="white" stroke="black" points="1761.5,-73 1761.5,-92 1877.5,-92 1877.5,-73 1761.5,-73"/>
<text text-anchor="middle" x="1819.5" y="-80" font-family="Helvetica,sans-Serif" font-size="10.00">src/assets/Texture.cpp</text>
</a>
</g>
</g>
<!-- Node3&#45;&gt;Node5 -->
<g id="edge4" class="edge">
<title>Node3&#45;&gt;Node5</title>
<path fill="none" stroke="midnightblue" d="M1085.97,-142.19C1222.2,-139.92 1511.04,-131.22 1752.5,-98 1763.11,-96.54 1774.54,-94.31 1784.91,-92.04"/>
<polygon fill="midnightblue" stroke="midnightblue" points="1085.58,-138.7 1075.64,-142.36 1085.69,-145.7 1085.58,-138.7"/>
</g>
<!-- Node6 -->
<g id="node6" class="node">
<title>Node6</title>
<g id="a_node6"><a xlink:href="ParticleEmitter_8cpp.html" target="_top" xlink:title="Implementation of a particle emitter. and configured.">
<polygon fill="white" stroke="black" points="1422,-6 1422,-25 1571,-25 1571,-6 1422,-6"/>
<text text-anchor="middle" x="1496.5" y="-13" font-family="Helvetica,sans-Serif" font-size="10.00">src/entities/ParticleEmitter.cpp</text>
</a>
</g>
</g>
<!-- Node3&#45;&gt;Node6 -->
<g id="edge5" class="edge">
<title>Node3&#45;&gt;Node6</title>
<path fill="none" stroke="midnightblue" d="M1085.83,-141.88C1296.13,-138.5 1859.14,-126.8 1886.5,-98 1895.99,-88.01 1895.6,-77.35 1886.5,-67 1876.19,-55.27 1681.33,-34.5 1571.04,-23.62"/>
<polygon fill="midnightblue" stroke="midnightblue" points="1085.72,-138.38 1075.78,-142.04 1085.84,-145.38 1085.72,-138.38"/>
</g>
<!-- Node7 -->
<g id="node7" class="node">
<title>Node7</title>
<g id="a_node7"><a xlink:href="Button_8cpp.html" target="_top" xlink:title="Implementation of Button.">
<polygon fill="white" stroke="black" points="1679,-6 1679,-25 1804,-25 1804,-6 1679,-6"/>
<text text-anchor="middle" x="1741.5" y="-13" font-family="Helvetica,sans-Serif" font-size="10.00">src/entities/ui/Button.cpp</text>
</a>
</g>
</g>
<!-- Node3&#45;&gt;Node7 -->
<g id="edge6" class="edge">
<title>Node3&#45;&gt;Node7</title>
<path fill="none" stroke="midnightblue" d="M1085.82,-141.96C1298.99,-138.76 1875.53,-127.41 1903.5,-98 1940.11,-59.5 1858.07,-36.34 1797.88,-25.03"/>
<polygon fill="midnightblue" stroke="midnightblue" points="1085.6,-138.47 1075.65,-142.11 1085.7,-145.47 1085.6,-138.47"/>
</g>
<!-- Node8 -->
<g id="node8" class="node">
<title>Node8</title>
<g id="a_node8"><a xlink:href="Checkbox_8cpp.html" target="_top" xlink:title="Implementation of UI Checkbox.">
<polygon fill="white" stroke="black" points="1867,-6 1867,-25 2006,-25 2006,-6 1867,-6"/>
<text text-anchor="middle" x="1936.5" y="-13" font-family="Helvetica,sans-Serif" font-size="10.00">src/entities/ui/Checkbox.cpp</text>
</a>
</g>
</g>
<!-- Node3&#45;&gt;Node8 -->
<g id="edge7" class="edge">
<title>Node3&#45;&gt;Node8</title>
<path fill="none" stroke="midnightblue" d="M1085.98,-141.76C1301.79,-138.01 1890.29,-125.31 1921.5,-98 1942.61,-79.52 1940.26,-41.91 1937.95,-25.03"/>
<polygon fill="midnightblue" stroke="midnightblue" points="1085.62,-138.27 1075.68,-141.94 1085.74,-145.27 1085.62,-138.27"/>
</g>
<!-- Node9 -->
<g id="node9" class="node">
<title>Node9</title>
<g id="a_node9"><a xlink:href="Inputbox_8cpp.html" target="_top" xlink:title="Implementation of UI Inputbox.">
<polygon fill="white" stroke="black" points="0,-6 0,-25 133,-25 133,-6 0,-6"/>
<text text-anchor="middle" x="66.5" y="-13" font-family="Helvetica,sans-Serif" font-size="10.00">src/entities/ui/Inputbox.cpp</text>
</a>
</g>
</g>
<!-- Node3&#45;&gt;Node9 -->
<g id="edge8" class="edge">
<title>Node3&#45;&gt;Node9</title>
<path fill="none" stroke="midnightblue" d="M929.28,-140.68C764.67,-135.36 393.26,-120.98 340.5,-98 322.05,-89.96 325.35,-76.3 307.5,-67 298.76,-62.44 177.44,-38.22 110.35,-25.05"/>
<polygon fill="midnightblue" stroke="midnightblue" points="929.23,-144.18 939.34,-141 929.46,-137.18 929.23,-144.18"/>
</g>
<!-- Node10 -->
<g id="node10" class="node">
<title>Node10</title>
<g id="a_node10"><a xlink:href="MessageBox_8cpp.html" target="_top" xlink:title="Implementation of MessageBox.">
<polygon fill="white" stroke="black" points="602.5,-73 602.5,-92 754.5,-92 754.5,-73 602.5,-73"/>
<text text-anchor="middle" x="678.5" y="-80" font-family="Helvetica,sans-Serif" font-size="10.00">src/entities/ui/MessageBox.cpp</text>
</a>
</g>
</g>
<!-- Node3&#45;&gt;Node10 -->
<g id="edge9" class="edge">
<title>Node3&#45;&gt;Node10</title>
<path fill="none" stroke="midnightblue" d="M950.48,-132.69C886.79,-121.17 784.88,-102.74 725.55,-92.01"/>
<polygon fill="midnightblue" stroke="midnightblue" points="949.9,-136.14 960.36,-134.48 951.14,-129.25 949.9,-136.14"/>
</g>
<!-- Node11 -->
<g id="node11" class="node">
<title>Node11</title>
<g id="a_node11"><a xlink:href="UIElement_8cpp.html" target="_top" xlink:title="Implementation of UIElement.">
<polygon fill="white" stroke="black" points="151.5,-6 151.5,-25 293.5,-25 293.5,-6 151.5,-6"/>
<text text-anchor="middle" x="222.5" y="-13" font-family="Helvetica,sans-Serif" font-size="10.00">src/entities/ui/UIElement.cpp</text>
</a>
</g>
</g>
<!-- Node3&#45;&gt;Node11 -->
<g id="edge10" class="edge">
<title>Node3&#45;&gt;Node11</title>
<path fill="none" stroke="midnightblue" d="M929.33,-142.23C785.73,-140 485.66,-131.38 387.5,-98 363.81,-89.94 362.53,-78.86 340.5,-67 308.71,-49.89 269.9,-34.21 245.69,-25.01"/>
<polygon fill="midnightblue" stroke="midnightblue" points="929.34,-145.73 939.39,-142.38 929.44,-138.73 929.34,-145.73"/>
</g>
<!-- Node12 -->
<g id="node12" class="node">
<title>Node12</title>
<g id="a_node12"><a xlink:href="Game_8cpp.html" target="_top" xlink:title="Implementation of Game.">
<polygon fill="white" stroke="black" points="773,-73 773,-92 850,-92 850,-73 773,-73"/>
<text text-anchor="middle" x="811.5" y="-80" font-family="Helvetica,sans-Serif" font-size="10.00">src/Game.cpp</text>
</a>
</g>
</g>
<!-- Node3&#45;&gt;Node12 -->
<g id="edge11" class="edge">
<title>Node3&#45;&gt;Node12</title>
<path fill="none" stroke="midnightblue" d="M969.71,-131.53C931.62,-119.96 873.71,-102.38 839.53,-92.01"/>
<polygon fill="midnightblue" stroke="midnightblue" points="968.83,-134.92 979.42,-134.48 970.87,-128.22 968.83,-134.92"/>
</g>
<!-- Node13 -->
<g id="node13" class="node">
<title>Node13</title>
<g id="a_node13"><a xlink:href="Primitives_8cpp.html" target="_top" xlink:title="Implementation of Primitives namespace helpers.">
<polygon fill="white" stroke="black" points="868.5,-73 868.5,-92 1008.5,-92 1008.5,-73 868.5,-73"/>
<text text-anchor="middle" x="938.5" y="-80" font-family="Helvetica,sans-Serif" font-size="10.00">src/primitives/Primitives.cpp</text>
</a>
</g>
</g>
<!-- Node3&#45;&gt;Node13 -->
<g id="edge12" class="edge">
<title>Node3&#45;&gt;Node13</title>
<path fill="none" stroke="midnightblue" d="M989.7,-127.65C976.54,-116.31 959.12,-101.28 948.37,-92.01"/>
<polygon fill="midnightblue" stroke="midnightblue" points="987.76,-130.6 997.61,-134.48 992.33,-125.29 987.76,-130.6"/>
</g>
<!-- Node14 -->
<g id="node14" class="node">
<title>Node14</title>
<g id="a_node14"><a xlink:href="AssetService_8cpp_source.html" target="_top" xlink:title=" ">
<polygon fill="white" stroke="black" points="1026.5,-67.5 1026.5,-97.5 1128.5,-97.5 1128.5,-67.5 1026.5,-67.5"/>
<text text-anchor="start" x="1034.5" y="-85.5" font-family="Helvetica,sans-Serif" font-size="10.00">src/services/assets</text>
<text text-anchor="middle" x="1077.5" y="-74.5" font-family="Helvetica,sans-Serif" font-size="10.00">/AssetService.cpp</text>
</a>
</g>
</g>
<!-- Node3&#45;&gt;Node14 -->
<g id="edge13" class="edge">
<title>Node3&#45;&gt;Node14</title>
<path fill="none" stroke="midnightblue" d="M1025.24,-127.92C1036.23,-118.58 1050.25,-106.66 1061,-97.52"/>
<polygon fill="midnightblue" stroke="midnightblue" points="1022.88,-125.33 1017.53,-134.48 1027.42,-130.67 1022.88,-125.33"/>
</g>
<!-- Node15 -->
<g id="node15" class="node">
<title>Node15</title>
<g id="a_node15"><a xlink:href="AudioService_8cpp.html" target="_top" xlink:title="Implementation of AudioService.">
<polygon fill="white" stroke="black" points="1146.5,-67.5 1146.5,-97.5 1242.5,-97.5 1242.5,-67.5 1146.5,-67.5"/>
<text text-anchor="start" x="1154.5" y="-85.5" font-family="Helvetica,sans-Serif" font-size="10.00">src/services/audio</text>
<text text-anchor="middle" x="1194.5" y="-74.5" font-family="Helvetica,sans-Serif" font-size="10.00">/AudioService.cpp</text>
</a>
</g>
</g>
<!-- Node3&#45;&gt;Node15 -->
<g id="edge14" class="edge">
<title>Node3&#45;&gt;Node15</title>
<path fill="none" stroke="midnightblue" d="M1044.09,-131.36C1074.56,-121.66 1118.05,-107.83 1150.43,-97.52"/>
<polygon fill="midnightblue" stroke="midnightblue" points="1042.76,-128.11 1034.29,-134.48 1044.88,-134.78 1042.76,-128.11"/>
</g>
<!-- Node16 -->
<g id="node16" class="node">
<title>Node16</title>
<g id="a_node16"><a xlink:href="DisplayService_8cpp.html" target="_top" xlink:title="Implementation of DisplayService.">
<polygon fill="white" stroke="black" points="312,-0.5 312,-30.5 415,-30.5 415,-0.5 312,-0.5"/>
<text text-anchor="start" x="320" y="-18.5" font-family="Helvetica,sans-Serif" font-size="10.00">src/services/display</text>
<text text-anchor="middle" x="363.5" y="-7.5" font-family="Helvetica,sans-Serif" font-size="10.00">/DisplayService.cpp</text>
</a>
</g>
</g>
<!-- Node3&#45;&gt;Node16 -->
<g id="edge16" class="edge">
<title>Node3&#45;&gt;Node16</title>
<path fill="none" stroke="midnightblue" d="M929.43,-140.63C780.26,-135.57 465.67,-122.17 422.5,-98 395.52,-82.89 377.65,-49.72 369.18,-30.68"/>
<polygon fill="midnightblue" stroke="midnightblue" points="929.33,-144.13 939.44,-140.97 929.56,-137.13 929.33,-144.13"/>
</g>
<!-- Node17 -->
<g id="node17" class="node">
<title>Node17</title>
<g id="a_node17"><a xlink:href="EventQueue_8cpp.html" target="_top" xlink:title="Implementation of EventQueue.">
<polygon fill="white" stroke="black" points="1260.5,-67.5 1260.5,-97.5 1362.5,-97.5 1362.5,-67.5 1260.5,-67.5"/>
<text text-anchor="start" x="1268.5" y="-85.5" font-family="Helvetica,sans-Serif" font-size="10.00">src/services/events</text>
<text text-anchor="middle" x="1311.5" y="-74.5" font-family="Helvetica,sans-Serif" font-size="10.00">/EventQueue.cpp</text>
</a>
</g>
</g>
<!-- Node3&#45;&gt;Node17 -->
<g id="edge17" class="edge">
<title>Node3&#45;&gt;Node17</title>
<path fill="none" stroke="midnightblue" d="M1068.03,-132.79C1117.51,-124.21 1189.22,-111.26 1251.5,-98 1254.43,-97.38 1257.45,-96.71 1260.48,-96.03"/>
<polygon fill="midnightblue" stroke="midnightblue" points="1067.39,-129.35 1058.13,-134.5 1068.58,-136.24 1067.39,-129.35"/>
</g>
<!-- Node18 -->
<g id="node18" class="node">
<title>Node18</title>
<g id="a_node18"><a xlink:href="InputService_8cpp.html" target="_top" xlink:title="Implementation of InputService. Handles mouse, keyboard and joystick.">
<polygon fill="white" stroke="black" points="1380.5,-67.5 1380.5,-97.5 1474.5,-97.5 1474.5,-67.5 1380.5,-67.5"/>
<text text-anchor="start" x="1388.5" y="-85.5" font-family="Helvetica,sans-Serif" font-size="10.00">src/services/input</text>
<text text-anchor="middle" x="1427.5" y="-74.5" font-family="Helvetica,sans-Serif" font-size="10.00">/InputService.cpp</text>
</a>
</g>
</g>
<!-- Node3&#45;&gt;Node18 -->
<g id="edge18" class="edge">
<title>Node3&#45;&gt;Node18</title>
<path fill="none" stroke="midnightblue" d="M1085.84,-136.29C1159.87,-129.25 1273.82,-116.6 1371.5,-98 1374.36,-97.46 1377.29,-96.85 1380.24,-96.2"/>
<polygon fill="midnightblue" stroke="midnightblue" points="1085.3,-132.83 1075.67,-137.25 1085.95,-139.8 1085.3,-132.83"/>
</g>
<!-- Node19 -->
<g id="node19" class="node">
<title>Node19</title>
<g id="a_node19"><a xlink:href="SceneService_8cpp.html" target="_top" xlink:title="Implementation of SceneService.">
<polygon fill="white" stroke="black" points="1125,-0.5 1125,-30.5 1224,-30.5 1224,-0.5 1125,-0.5"/>
<text text-anchor="start" x="1133" y="-18.5" font-family="Helvetica,sans-Serif" font-size="10.00">src/services/scene</text>
<text text-anchor="middle" x="1174.5" y="-7.5" font-family="Helvetica,sans-Serif" font-size="10.00">/SceneService.cpp</text>
</a>
</g>
</g>
<!-- Node3&#45;&gt;Node19 -->
<g id="edge19" class="edge">
<title>Node3&#45;&gt;Node19</title>
<path fill="none" stroke="midnightblue" d="M929.24,-140.03C815.46,-134.9 615.47,-122.49 593.5,-98 584.3,-87.74 584.1,-77.07 593.5,-67 633.25,-24.42 1058.97,-40.1 1116.5,-31 1119.27,-30.56 1122.1,-30.06 1124.94,-29.5"/>
<polygon fill="midnightblue" stroke="midnightblue" points="929.15,-143.53 939.3,-140.48 929.46,-136.54 929.15,-143.53"/>
</g>
<!-- Node20 -->
<g id="node20" class="node">
<title>Node20</title>
<g id="a_node20"><a xlink:href="Services_8cpp_source.html" target="_top" xlink:title=" ">
<polygon fill="white" stroke="black" points="1493,-73 1493,-92 1622,-92 1622,-73 1493,-73"/>
<text text-anchor="middle" x="1557.5" y="-80" font-family="Helvetica,sans-Serif" font-size="10.00">src/services/Services.cpp</text>
</a>
</g>
</g>
<!-- Node3&#45;&gt;Node20 -->
<g id="edge20" class="edge">
<title>Node3&#45;&gt;Node20</title>
<path fill="none" stroke="midnightblue" d="M1085.59,-138C1180.13,-131.41 1344,-118.21 1483.5,-98 1494.64,-96.39 1506.65,-94.22 1517.68,-92.05"/>
<polygon fill="midnightblue" stroke="midnightblue" points="1085.28,-134.52 1075.54,-138.7 1085.76,-141.5 1085.28,-134.52"/>
</g>
<!-- Node21 -->
<g id="node21" class="node">
<title>Node21</title>
<g id="a_node21"><a xlink:href="Scene_8h.html" target="_top" xlink:title="Parent scene class. Children can be added to scene manager.">
<polygon fill="white" stroke="black" points="431,-73 431,-92 546,-92 546,-73 431,-73"/>
<text text-anchor="middle" x="488.5" y="-80" font-family="Helvetica,sans-Serif" font-size="10.00">include/scene/Scene.h</text>
</a>
</g>
</g>
<!-- Node3&#45;&gt;Node21 -->
<g id="edge21" class="edge">
<title>Node3&#45;&gt;Node21</title>
<path fill="none" stroke="midnightblue" d="M929.4,-137.48C839.95,-130.61 689.16,-117.38 560.5,-98 549.66,-96.37 537.97,-94.19 527.24,-92.03"/>
<polygon fill="midnightblue" stroke="midnightblue" points="929.23,-140.98 939.46,-138.24 929.76,-134 929.23,-140.98"/>
</g>
<!-- Node21&#45;&gt;Node6 -->
<g id="edge24" class="edge">
<title>Node21&#45;&gt;Node6</title>
<path fill="none" stroke="midnightblue" d="M554.25,-71.58C567.24,-69.86 580.78,-68.23 593.5,-67 603.77,-66 1206.97,-32.54 1421.66,-20.65"/>
<polygon fill="midnightblue" stroke="midnightblue" points="553.42,-68.16 543.98,-72.98 554.36,-75.1 553.42,-68.16"/>
</g>
<!-- Node21&#45;&gt;Node7 -->
<g id="edge26" class="edge">
<title>Node21&#45;&gt;Node7</title>
<path fill="none" stroke="midnightblue" d="M552.73,-71.59C566.17,-69.8 580.28,-68.15 593.5,-67 1030.8,-28.93 1142.42,-58.7 1580.5,-31 1612.99,-28.95 1649.09,-25.78 1678.86,-22.92"/>
<polygon fill="midnightblue" stroke="midnightblue" points="552.04,-68.15 542.61,-72.97 552.99,-75.08 552.04,-68.15"/>
</g>
<!-- Node21&#45;&gt;Node8 -->
<g id="edge27" class="edge">
<title>Node21&#45;&gt;Node8</title>
<path fill="none" stroke="midnightblue" d="M552.28,-71.57C565.86,-69.77 580.13,-68.12 593.5,-67 1134.07,-21.83 1272.5,-70.79 1813.5,-31 1833.01,-29.56 1854.2,-27.32 1873.4,-25.02"/>
<polygon fill="midnightblue" stroke="midnightblue" points="551.5,-68.15 542.06,-72.97 552.44,-75.08 551.5,-68.15"/>
</g>
<!-- Node21&#45;&gt;Node9 -->
<g id="edge29" class="edge">
<title>Node21&#45;&gt;Node9</title>
<path fill="none" stroke="midnightblue" d="M420.84,-72.51C350.99,-63.03 238.93,-47.23 142.5,-31 131.77,-29.19 120.22,-27.08 109.45,-25.03"/>
<polygon fill="midnightblue" stroke="midnightblue" points="420.45,-75.99 430.83,-73.87 421.39,-69.06 420.45,-75.99"/>
</g>
<!-- Node21&#45;&gt;Node11 -->
<g id="edge30" class="edge">
<title>Node21&#45;&gt;Node11</title>
<path fill="none" stroke="midnightblue" d="M443.42,-70.48C390.95,-57.66 305.41,-36.76 257.63,-25.08"/>
<polygon fill="midnightblue" stroke="midnightblue" points="442.91,-73.96 453.45,-72.94 444.57,-67.16 442.91,-73.96"/>
</g>
<!-- Node21&#45;&gt;Node16 -->
<g id="edge32" class="edge">
<title>Node21&#45;&gt;Node16</title>
<path fill="none" stroke="midnightblue" d="M462.91,-68.19C441.89,-57.26 412.17,-41.81 390.71,-30.65"/>
<polygon fill="midnightblue" stroke="midnightblue" points="461.41,-71.36 471.9,-72.87 464.64,-65.15 461.41,-71.36"/>
</g>
<!-- Node21&#45;&gt;Node19 -->
<g id="edge33" class="edge">
<title>Node21&#45;&gt;Node19</title>
<path fill="none" stroke="midnightblue" d="M536.15,-70.97C544.24,-69.45 552.59,-68.05 560.5,-67 805.98,-34.48 871.83,-69.18 1116.5,-31 1119.27,-30.57 1122.1,-30.07 1124.95,-29.51"/>
<polygon fill="midnightblue" stroke="midnightblue" points="535.22,-67.59 526.08,-72.94 536.57,-74.45 535.22,-67.59"/>
</g>
<!-- Node22 -->
<g id="node22" class="node">
<title>Node22</title>
<g id="a_node22"><a xlink:href="GameObject_8cpp_source.html" target="_top" xlink:title=" ">
<polygon fill="white" stroke="black" points="829.5,-6 829.5,-25 969.5,-25 969.5,-6 829.5,-6"/>
<text text-anchor="middle" x="899.5" y="-13" font-family="Helvetica,sans-Serif" font-size="10.00">src/entities/GameObject.cpp</text>
</a>
</g>
</g>
<!-- Node21&#45;&gt;Node22 -->
<g id="edge22" class="edge">
<title>Node21&#45;&gt;Node22</title>
<path fill="none" stroke="midnightblue" d="M538.63,-70.99C545.96,-69.58 553.41,-68.2 560.5,-67 675.51,-47.48 705.32,-49.53 820.5,-31 831.65,-29.21 843.66,-27.09 854.86,-25.05"/>
<polygon fill="midnightblue" stroke="midnightblue" points="537.92,-67.57 528.78,-72.94 539.27,-74.44 537.92,-67.57"/>
</g>
<!-- Node23 -->
<g id="node23" class="node">
<title>Node23</title>
<g id="a_node23"><a xlink:href="Particle_8cpp.html" target="_top" xlink:title="Implementation of Particle.">
<polygon fill="white" stroke="black" points="988,-6 988,-25 1107,-25 1107,-6 988,-6"/>
<text text-anchor="middle" x="1047.5" y="-13" font-family="Helvetica,sans-Serif" font-size="10.00">src/entities/Particle.cpp</text>
</a>
</g>
</g>
<!-- Node21&#45;&gt;Node23 -->
<g id="edge23" class="edge">
<title>Node21&#45;&gt;Node23</title>
<path fill="none" stroke="midnightblue" d="M536.72,-71.01C544.64,-69.51 552.78,-68.11 560.5,-67 745.08,-40.55 794.03,-58.22 978.5,-31 989.16,-29.43 1000.64,-27.22 1011.12,-25.01"/>
<polygon fill="midnightblue" stroke="midnightblue" points="535.99,-67.59 526.85,-72.94 537.33,-74.46 535.99,-67.59"/>
</g>
<!-- Node24 -->
<g id="node24" class="node">
<title>Node24</title>
<g id="a_node24"><a xlink:href="Sprite_8cpp.html" target="_top" xlink:title="Implementation of Sprite.">
<polygon fill="white" stroke="black" points="433,-6 433,-25 544,-25 544,-6 433,-6"/>
<text text-anchor="middle" x="488.5" y="-13" font-family="Helvetica,sans-Serif" font-size="10.00">src/entities/Sprite.cpp</text>
</a>
</g>
</g>
<!-- Node21&#45;&gt;Node24 -->
<g id="edge25" class="edge">
<title>Node21&#45;&gt;Node24</title>
<path fill="none" stroke="midnightblue" d="M488.5,-62.54C488.5,-50.17 488.5,-34.62 488.5,-25.13"/>
<polygon fill="midnightblue" stroke="midnightblue" points="485,-62.73 488.5,-72.73 492,-62.73 485,-62.73"/>
</g>
<!-- Node25 -->
<g id="node25" class="node">
<title>Node25</title>
<g id="a_node25"><a xlink:href="Image_8cpp.html" target="_top" xlink:title="Texturable ui element.">
<polygon fill="white" stroke="black" points="562,-6 562,-25 685,-25 685,-6 562,-6"/>
<text text-anchor="middle" x="623.5" y="-13" font-family="Helvetica,sans-Serif" font-size="10.00">src/entities/ui/Image.cpp</text>
</a>
</g>
</g>
<!-- Node21&#45;&gt;Node25 -->
<g id="edge28" class="edge">
<title>Node21&#45;&gt;Node25</title>
<path fill="none" stroke="midnightblue" d="M515.62,-68.44C542.36,-55.57 582.47,-36.26 605.5,-25.17"/>
<polygon fill="midnightblue" stroke="midnightblue" points="513.92,-65.38 506.43,-72.87 516.96,-71.68 513.92,-65.38"/>
</g>
<!-- Node26 -->
<g id="node26" class="node">
<title>Node26</title>
<g id="a_node26"><a xlink:href="Scene_8cpp.html" target="_top" xlink:title="Implementation of Scene class.">
<polygon fill="white" stroke="black" points="703.5,-6 703.5,-25 811.5,-25 811.5,-6 703.5,-6"/>
<text text-anchor="middle" x="757.5" y="-13" font-family="Helvetica,sans-Serif" font-size="10.00">src/scene/Scene.cpp</text>
</a>
</g>
</g>
<!-- Node21&#45;&gt;Node26 -->
<g id="edge31" class="edge">
<title>Node21&#45;&gt;Node26</title>
<path fill="none" stroke="midnightblue" d="M533.76,-70.56C586.79,-57.75 673.55,-36.78 721.98,-25.08"/>
<polygon fill="midnightblue" stroke="midnightblue" points="532.84,-67.18 523.94,-72.94 534.49,-73.99 532.84,-67.18"/>
</g>
</g>
</svg>
