<?xml version="1.0" encoding="UTF-8" standalone="no"?>
<!DOCTYPE svg PUBLIC "-//W3C//DTD SVG 1.1//EN"
 "http://www.w3.org/Graphics/SVG/1.1/DTD/svg11.dtd">
<!-- Generated by graphviz version 2.46.1 (20210215.1649)
 -->
<!-- Title: include/services/logging/DebugLoggingService.h Pages: 1 -->
<svg width="2071pt" height="240pt"
 viewBox="0.00 0.00 2071.00 240.00" xmlns="http://www.w3.org/2000/svg" xmlns:xlink="http://www.w3.org/1999/xlink">
<g id="graph0" class="graph" transform="scale(1 1) rotate(0) translate(4 236)">
<title>include/services/logging/DebugLoggingService.h</title>
<polygon fill="white" stroke="transparent" points="-4,4 -4,-236 2067,-236 2067,4 -4,4"/>
<!-- Node1 -->
<g id="node1" class="node">
<title>Node1</title>
<g id="a_node1"><a xlink:title="Logging service that does the logging. Used for development.">
<polygon fill="#bfbfbf" stroke="black" points="761.5,-201.5 761.5,-231.5 883.5,-231.5 883.5,-201.5 761.5,-201.5"/>
<text text-anchor="start" x="769.5" y="-219.5" font-family="Helvetica,sans-Serif" font-size="10.00">include/services/logging</text>
<text text-anchor="middle" x="822.5" y="-208.5" font-family="Helvetica,sans-Serif" font-size="10.00">/DebugLoggingService.h</text>
</a>
</g>
</g>
<!-- Node2 -->
<g id="node2" class="node">
<title>Node2</title>
<g id="a_node2"><a xlink:href="DebugLoggingService_8cpp.html" target="_top" xlink:title="Implementation of DebugLoggingService.">
<polygon fill="white" stroke="black" points="680,-134.5 680,-164.5 813,-164.5 813,-134.5 680,-134.5"/>
<text text-anchor="start" x="688" y="-152.5" font-family="Helvetica,sans-Serif" font-size="10.00">src/services/logging</text>
<text text-anchor="middle" x="746.5" y="-141.5" font-family="Helvetica,sans-Serif" font-size="10.00">/DebugLoggingService.cpp</text>
</a>
</g>
</g>
<!-- Node1&#45;&gt;Node2 -->
<g id="edge1" class="edge">
<title>Node1&#45;&gt;Node2</title>
<path fill="none" stroke="midnightblue" d="M798.39,-194.88C786.84,-185.01 773.31,-173.43 762.96,-164.58"/>
<polygon fill="midnightblue" stroke="midnightblue" points="796.13,-197.56 806.01,-201.4 800.68,-192.24 796.13,-197.56"/>
</g>
<!-- Node3 -->
<g id="node3" class="node">
<title>Node3</title>
<g id="a_node3"><a xlink:href="Services_8h.html" target="_top" xlink:title="Implementation of core Services class.">
<polygon fill="white" stroke="black" points="831.5,-140 831.5,-159 967.5,-159 967.5,-140 831.5,-140"/>
<text text-anchor="middle" x="899.5" y="-147" font-family="Helvetica,sans-Serif" font-size="10.00">include/services/Services.h</text>
</a>
</g>
</g>
<!-- Node1&#45;&gt;Node3 -->
<g id="edge2" class="edge">
<title>Node1&#45;&gt;Node3</title>
<path fill="none" stroke="midnightblue" d="M847.17,-194.67C861.39,-182.67 878.51,-168.22 889.2,-159.19"/>
<polygon fill="midnightblue" stroke="midnightblue" points="844.59,-192.27 839.21,-201.4 849.11,-197.62 844.59,-192.27"/>
</g>
<!-- Node4 -->
<g id="node4" class="node">
<title>Node4</title>
<g id="a_node4"><a xlink:href="Font_8cpp.html" target="_top" xlink:title="Implementation of Font.">
<polygon fill="white" stroke="black" points="272,-73 272,-92 375,-92 375,-73 272,-73"/>
<text text-anchor="middle" x="323.5" y="-80" font-family="Helvetica,sans-Serif" font-size="10.00">src/assets/Font.cpp</text>
</a>
</g>
</g>
<!-- Node3&#45;&gt;Node4 -->
<g id="edge3" class="edge">
<title>Node3&#45;&gt;Node4</title>
<path fill="none" stroke="midnightblue" d="M848.48,-138.12C839.84,-136.58 830.93,-135.14 822.5,-134 628.93,-107.89 577.4,-128.67 384.5,-98 374.93,-96.48 364.64,-94.26 355.29,-92.02"/>
<polygon fill="midnightblue" stroke="midnightblue" points="848,-141.59 858.47,-139.95 849.26,-134.71 848,-141.59"/>
</g>
<!-- Node5 -->
<g id="node5" class="node">
<title>Node5</title>
<g id="a_node5"><a xlink:href="Texture_8cpp.html" target="_top" xlink:title="Implementation of Texture.">
<polygon fill="white" stroke="black" points="393.5,-73 393.5,-92 509.5,-92 509.5,-73 393.5,-73"/>
<text text-anchor="middle" x="451.5" y="-80" font-family="Helvetica,sans-Serif" font-size="10.00">src/assets/Texture.cpp</text>
</a>
</g>
</g>
<!-- Node3&#45;&gt;Node5 -->
<g id="edge4" class="edge">
<title>Node3&#45;&gt;Node5</title>
<path fill="none" stroke="midnightblue" d="M846.98,-138.13C838.8,-136.65 830.43,-135.22 822.5,-134 690.21,-113.6 655.65,-119.23 523.5,-98 512.92,-96.3 501.54,-94.16 491.01,-92.04"/>
<polygon fill="midnightblue" stroke="midnightblue" points="846.35,-141.57 856.82,-139.94 847.62,-134.69 846.35,-141.57"/>
</g>
<!-- Node6 -->
<g id="node6" class="node">
<title>Node6</title>
<g id="a_node6"><a xlink:href="ParticleEmitter_8cpp.html" target="_top" xlink:title="Implementation of a particle emitter. and configured.">
<polygon fill="white" stroke="black" points="0,-6 0,-25 149,-25 149,-6 0,-6"/>
<text text-anchor="middle" x="74.5" y="-13" font-family="Helvetica,sans-Serif" font-size="10.00">src/entities/ParticleEmitter.cpp</text>
</a>
</g>
</g>
<!-- Node3&#45;&gt;Node6 -->
<g id="edge5" class="edge">
<title>Node3&#45;&gt;Node6</title>
<path fill="none" stroke="midnightblue" d="M846.4,-138.11C838.41,-136.66 830.24,-135.24 822.5,-134 702.53,-114.75 661.27,-150.09 551.5,-98 533.32,-89.37 536.82,-75.33 518.5,-67 371.72,-0.26 317.25,-52.89 157.5,-31 145.18,-29.31 131.89,-27.15 119.64,-25.01"/>
<polygon fill="midnightblue" stroke="midnightblue" points="845.93,-141.59 856.4,-139.96 847.21,-134.7 845.93,-141.59"/>
</g>
<!-- Node7 -->
<g id="node7" class="node">
<title>Node7</title>
<g id="a_node7"><a xlink:href="Button_8cpp.html" target="_top" xlink:title="Implementation of Button.">
<polygon fill="white" stroke="black" points="167,-6 167,-25 292,-25 292,-6 167,-6"/>
<text text-anchor="middle" x="229.5" y="-13" font-family="Helvetica,sans-Serif" font-size="10.00">src/entities/ui/Button.cpp</text>
</a>
</g>
</g>
<!-- Node3&#45;&gt;Node7 -->
<g id="edge6" class="edge">
<title>Node3&#45;&gt;Node7</title>
<path fill="none" stroke="midnightblue" d="M845.53,-138.11C837.81,-136.69 829.96,-135.28 822.5,-134 719.22,-116.3 685.23,-140.61 589.5,-98 569.59,-89.14 571.46,-75.76 551.5,-67 448.3,-21.73 411.54,-50.28 300.5,-31 290.34,-29.23 279.4,-27.11 269.23,-25.04"/>
<polygon fill="midnightblue" stroke="midnightblue" points="845.1,-141.58 855.57,-139.97 846.38,-134.7 845.1,-141.58"/>
</g>
<!-- Node8 -->
<g id="node8" class="node">
<title>Node8</title>
<g id="a_node8"><a xlink:href="Checkbox_8cpp.html" target="_top" xlink:title="Implementation of UI Checkbox.">
<polygon fill="white" stroke="black" points="310,-6 310,-25 449,-25 449,-6 310,-6"/>
<text text-anchor="middle" x="379.5" y="-13" font-family="Helvetica,sans-Serif" font-size="10.00">src/entities/ui/Checkbox.cpp</text>
</a>
</g>
</g>
<!-- Node3&#45;&gt;Node8 -->
<g id="edge7" class="edge">
<title>Node3&#45;&gt;Node8</title>
<path fill="none" stroke="midnightblue" d="M844.18,-138.07C766.15,-123.37 633.11,-98.26 632.5,-98 610.85,-88.7 610.91,-76.83 589.5,-67 560.36,-53.63 476.45,-35.59 423.94,-25.08"/>
<polygon fill="midnightblue" stroke="midnightblue" points="843.86,-141.58 854.34,-139.99 845.16,-134.7 843.86,-141.58"/>
</g>
<!-- Node9 -->
<g id="node9" class="node">
<title>Node9</title>
<g id="a_node9"><a xlink:href="Inputbox_8cpp.html" target="_top" xlink:title="Implementation of UI Inputbox.">
<polygon fill="white" stroke="black" points="467,-6 467,-25 600,-25 600,-6 467,-6"/>
<text text-anchor="middle" x="533.5" y="-13" font-family="Helvetica,sans-Serif" font-size="10.00">src/entities/ui/Inputbox.cpp</text>
</a>
</g>
</g>
<!-- Node3&#45;&gt;Node9 -->
<g id="edge8" class="edge">
<title>Node3&#45;&gt;Node9</title>
<path fill="none" stroke="midnightblue" d="M849.23,-137.66C810.5,-128.7 755.91,-114.77 709.5,-98 648.7,-76.03 580.1,-41.17 549.6,-25.12"/>
<polygon fill="midnightblue" stroke="midnightblue" points="848.69,-141.12 859.21,-139.94 850.24,-134.3 848.69,-141.12"/>
</g>
<!-- Node10 -->
<g id="node10" class="node">
<title>Node10</title>
<g id="a_node10"><a xlink:href="MessageBox_8cpp.html" target="_top" xlink:title="Implementation of MessageBox.">
<polygon fill="white" stroke="black" points="927.5,-73 927.5,-92 1079.5,-92 1079.5,-73 927.5,-73"/>
<text text-anchor="middle" x="1003.5" y="-80" font-family="Helvetica,sans-Serif" font-size="10.00">src/entities/ui/MessageBox.cpp</text>
</a>
</g>
</g>
<!-- Node3&#45;&gt;Node10 -->
<g id="edge9" class="edge">
<title>Node3&#45;&gt;Node10</title>
<path fill="none" stroke="midnightblue" d="M922.27,-134.27C942.86,-121.4 972.49,-102.88 989.7,-92.13"/>
<polygon fill="midnightblue" stroke="midnightblue" points="920.15,-131.47 913.53,-139.73 923.86,-137.4 920.15,-131.47"/>
</g>
<!-- Node11 -->
<g id="node11" class="node">
<title>Node11</title>
<g id="a_node11"><a xlink:href="UIElement_8cpp.html" target="_top" xlink:title="Implementation of UIElement.">
<polygon fill="white" stroke="black" points="618.5,-6 618.5,-25 760.5,-25 760.5,-6 618.5,-6"/>
<text text-anchor="middle" x="689.5" y="-13" font-family="Helvetica,sans-Serif" font-size="10.00">src/entities/ui/UIElement.cpp</text>
</a>
</g>
</g>
<!-- Node3&#45;&gt;Node11 -->
<g id="edge10" class="edge">
<title>Node3&#45;&gt;Node11</title>
<path fill="none" stroke="midnightblue" d="M851.53,-137.6C810.49,-127.56 755.31,-112.12 737.5,-98 712.54,-78.21 697.84,-41.61 692.19,-25.04"/>
<polygon fill="midnightblue" stroke="midnightblue" points="850.82,-141.03 861.36,-139.97 852.46,-134.23 850.82,-141.03"/>
</g>
<!-- Node12 -->
<g id="node12" class="node">
<title>Node12</title>
<g id="a_node12"><a xlink:href="Game_8cpp.html" target="_top" xlink:title="Implementation of Game.">
<polygon fill="white" stroke="black" points="1098,-73 1098,-92 1175,-92 1175,-73 1098,-73"/>
<text text-anchor="middle" x="1136.5" y="-80" font-family="Helvetica,sans-Serif" font-size="10.00">src/Game.cpp</text>
</a>
</g>
</g>
<!-- Node3&#45;&gt;Node12 -->
<g id="edge11" class="edge">
<title>Node3&#45;&gt;Node12</title>
<path fill="none" stroke="midnightblue" d="M942.51,-137.43C980.89,-127.45 1038.57,-112.21 1088.5,-98 1095.11,-96.12 1102.22,-94.02 1108.88,-92.01"/>
<polygon fill="midnightblue" stroke="midnightblue" points="941.51,-134.07 932.71,-139.97 943.26,-140.85 941.51,-134.07"/>
</g>
<!-- Node13 -->
<g id="node13" class="node">
<title>Node13</title>
<g id="a_node13"><a xlink:href="Primitives_8cpp.html" target="_top" xlink:title="Implementation of Primitives namespace helpers.">
<polygon fill="white" stroke="black" points="1193.5,-73 1193.5,-92 1333.5,-92 1333.5,-73 1193.5,-73"/>
<text text-anchor="middle" x="1263.5" y="-80" font-family="Helvetica,sans-Serif" font-size="10.00">src/primitives/Primitives.cpp</text>
</a>
</g>
</g>
<!-- Node3&#45;&gt;Node13 -->
<g id="edge12" class="edge">
<title>Node3&#45;&gt;Node13</title>
<path fill="none" stroke="midnightblue" d="M958.2,-138.21C1015.83,-128.08 1106.24,-112.11 1184.5,-98 1195.07,-96.09 1206.42,-94.02 1217.14,-92.06"/>
<polygon fill="midnightblue" stroke="midnightblue" points="957.42,-134.79 948.18,-139.97 958.63,-141.68 957.42,-134.79"/>
</g>
<!-- Node14 -->
<g id="node14" class="node">
<title>Node14</title>
<g id="a_node14"><a xlink:href="AssetService_8cpp_source.html" target="_top" xlink:title=" ">
<polygon fill="white" stroke="black" points="1351.5,-67.5 1351.5,-97.5 1453.5,-97.5 1453.5,-67.5 1351.5,-67.5"/>
<text text-anchor="start" x="1359.5" y="-85.5" font-family="Helvetica,sans-Serif" font-size="10.00">src/services/assets</text>
<text text-anchor="middle" x="1402.5" y="-74.5" font-family="Helvetica,sans-Serif" font-size="10.00">/AssetService.cpp</text>
</a>
</g>
</g>
<!-- Node3&#45;&gt;Node14 -->
<g id="edge13" class="edge">
<title>Node3&#45;&gt;Node14</title>
<path fill="none" stroke="midnightblue" d="M977.8,-142.52C1066.66,-135.05 1215.71,-120.46 1342.5,-98 1345.35,-97.5 1348.26,-96.94 1351.2,-96.34"/>
<polygon fill="midnightblue" stroke="midnightblue" points="977.48,-139.03 967.8,-143.35 978.06,-146.01 977.48,-139.03"/>
</g>
<!-- Node15 -->
<g id="node15" class="node">
<title>Node15</title>
<g id="a_node15"><a xlink:href="AudioService_8cpp.html" target="_top" xlink:title="Implementation of AudioService.">
<polygon fill="white" stroke="black" points="1471.5,-67.5 1471.5,-97.5 1567.5,-97.5 1567.5,-67.5 1471.5,-67.5"/>
<text text-anchor="start" x="1479.5" y="-85.5" font-family="Helvetica,sans-Serif" font-size="10.00">src/services/audio</text>
<text text-anchor="middle" x="1519.5" y="-74.5" font-family="Helvetica,sans-Serif" font-size="10.00">/AudioService.cpp</text>
</a>
</g>
</g>
<!-- Node3&#45;&gt;Node15 -->
<g id="edge14" class="edge">
<title>Node3&#45;&gt;Node15</title>
<path fill="none" stroke="midnightblue" d="M977.82,-145.43C1087.04,-140.24 1291.01,-127.31 1462.5,-98 1465.42,-97.5 1468.41,-96.93 1471.41,-96.31"/>
<polygon fill="midnightblue" stroke="midnightblue" points="977.37,-141.94 967.55,-145.9 977.7,-148.94 977.37,-141.94"/>
</g>
<!-- Node16 -->
<g id="node16" class="node">
<title>Node16</title>
<g id="a_node16"><a xlink:href="ConfigService_8cpp.html" target="_top" xlink:title="Implementation of default Config Service.">
<polygon fill="white" stroke="black" points="1585.5,-67.5 1585.5,-97.5 1683.5,-97.5 1683.5,-67.5 1585.5,-67.5"/>
<text text-anchor="start" x="1593.5" y="-85.5" font-family="Helvetica,sans-Serif" font-size="10.00">src/services/config</text>
<text text-anchor="middle" x="1634.5" y="-74.5" font-family="Helvetica,sans-Serif" font-size="10.00">/ConfigService.cpp</text>
</a>
</g>
</g>
<!-- Node3&#45;&gt;Node16 -->
<g id="edge15" class="edge">
<title>Node3&#45;&gt;Node16</title>
<path fill="none" stroke="midnightblue" d="M978.06,-146.98C1104.76,-143.56 1361.74,-132.6 1576.5,-98 1579.37,-97.54 1582.3,-97 1585.26,-96.42"/>
<polygon fill="midnightblue" stroke="midnightblue" points="977.6,-143.49 967.69,-147.25 977.78,-150.49 977.6,-143.49"/>
</g>
<!-- Node17 -->
<g id="node17" class="node">
<title>Node17</title>
<g id="a_node17"><a xlink:href="DisplayService_8cpp.html" target="_top" xlink:title="Implementation of DisplayService.">
<polygon fill="white" stroke="black" points="779,-0.5 779,-30.5 882,-30.5 882,-0.5 779,-0.5"/>
<text text-anchor="start" x="787" y="-18.5" font-family="Helvetica,sans-Serif" font-size="10.00">src/services/display</text>
<text text-anchor="middle" x="830.5" y="-7.5" font-family="Helvetica,sans-Serif" font-size="10.00">/DisplayService.cpp</text>
</a>
</g>
</g>
<!-- Node3&#45;&gt;Node17 -->
<g id="edge16" class="edge">
<title>Node3&#45;&gt;Node17</title>
<path fill="none" stroke="midnightblue" d="M845.97,-137.65C807.12,-128.56 759.37,-114.46 747.5,-98 739.44,-86.83 740.75,-79.01 747.5,-67 756.84,-50.38 774.11,-38.6 790.48,-30.62"/>
<polygon fill="midnightblue" stroke="midnightblue" points="845.61,-141.16 856.14,-139.97 847.17,-134.33 845.61,-141.16"/>
</g>
<!-- Node18 -->
<g id="node18" class="node">
<title>Node18</title>
<g id="a_node18"><a xlink:href="EventQueue_8cpp.html" target="_top" xlink:title="Implementation of EventQueue.">
<polygon fill="white" stroke="black" points="1701.5,-67.5 1701.5,-97.5 1803.5,-97.5 1803.5,-67.5 1701.5,-67.5"/>
<text text-anchor="start" x="1709.5" y="-85.5" font-family="Helvetica,sans-Serif" font-size="10.00">src/services/events</text>
<text text-anchor="middle" x="1752.5" y="-74.5" font-family="Helvetica,sans-Serif" font-size="10.00">/EventQueue.cpp</text>
</a>
</g>
</g>
<!-- Node3&#45;&gt;Node18 -->
<g id="edge17" class="edge">
<title>Node3&#45;&gt;Node18</title>
<path fill="none" stroke="midnightblue" d="M977.96,-148C1120.87,-146.1 1432.85,-137.34 1692.5,-98 1695.36,-97.57 1698.29,-97.06 1701.23,-96.51"/>
<polygon fill="midnightblue" stroke="midnightblue" points="977.5,-144.51 967.55,-148.13 977.59,-151.51 977.5,-144.51"/>
</g>
<!-- Node19 -->
<g id="node19" class="node">
<title>Node19</title>
<g id="a_node19"><a xlink:href="InputService_8cpp.html" target="_top" xlink:title="Implementation of InputService. Handles mouse, keyboard and joystick.">
<polygon fill="white" stroke="black" points="1821.5,-67.5 1821.5,-97.5 1915.5,-97.5 1915.5,-67.5 1821.5,-67.5"/>
<text text-anchor="start" x="1829.5" y="-85.5" font-family="Helvetica,sans-Serif" font-size="10.00">src/services/input</text>
<text text-anchor="middle" x="1868.5" y="-74.5" font-family="Helvetica,sans-Serif" font-size="10.00">/InputService.cpp</text>
</a>
</g>
</g>
<!-- Node3&#45;&gt;Node19 -->
<g id="edge18" class="edge">
<title>Node3&#45;&gt;Node19</title>
<path fill="none" stroke="midnightblue" d="M977.69,-149.37C1136.18,-149.98 1506.28,-145.63 1812.5,-98 1815.38,-97.55 1818.32,-97.02 1821.28,-96.43"/>
<polygon fill="midnightblue" stroke="midnightblue" points="977.57,-145.87 967.56,-149.32 977.54,-152.87 977.57,-145.87"/>
</g>
<!-- Node20 -->
<g id="node20" class="node">
<title>Node20</title>
<g id="a_node20"><a xlink:href="SceneService_8cpp.html" target="_top" xlink:title="Implementation of SceneService.">
<polygon fill="white" stroke="black" points="1592,-0.5 1592,-30.5 1691,-30.5 1691,-0.5 1592,-0.5"/>
<text text-anchor="start" x="1600" y="-18.5" font-family="Helvetica,sans-Serif" font-size="10.00">src/services/scene</text>
<text text-anchor="middle" x="1641.5" y="-7.5" font-family="Helvetica,sans-Serif" font-size="10.00">/SceneService.cpp</text>
</a>
</g>
</g>
<!-- Node3&#45;&gt;Node20 -->
<g id="edge19" class="edge">
<title>Node3&#45;&gt;Node20</title>
<path fill="none" stroke="midnightblue" d="M898.01,-129.81C897.64,-110.83 900.44,-82.15 918.5,-67 975.11,-19.52 1509.42,-41.86 1582.5,-31 1585.53,-30.55 1588.62,-30.02 1591.74,-29.42"/>
<polygon fill="midnightblue" stroke="midnightblue" points="894.52,-130.11 898.52,-139.92 901.51,-129.76 894.52,-130.11"/>
</g>
<!-- Node21 -->
<g id="node21" class="node">
<title>Node21</title>
<g id="a_node21"><a xlink:href="Services_8cpp_source.html" target="_top" xlink:title=" ">
<polygon fill="white" stroke="black" points="1934,-73 1934,-92 2063,-92 2063,-73 1934,-73"/>
<text text-anchor="middle" x="1998.5" y="-80" font-family="Helvetica,sans-Serif" font-size="10.00">src/services/Services.cpp</text>
</a>
</g>
</g>
<!-- Node3&#45;&gt;Node21 -->
<g id="edge20" class="edge">
<title>Node3&#45;&gt;Node21</title>
<path fill="none" stroke="midnightblue" d="M977.77,-148.48C1149.72,-147.61 1573.1,-140.86 1924.5,-98 1936.33,-96.56 1949.09,-94.31 1960.64,-92.01"/>
<polygon fill="midnightblue" stroke="midnightblue" points="977.54,-144.98 967.55,-148.53 977.57,-151.98 977.54,-144.98"/>
</g>
<!-- Node22 -->
<g id="node22" class="node">
<title>Node22</title>
<g id="a_node22"><a xlink:href="Scene_8h.html" target="_top" xlink:title="Parent scene class. Children can be added to scene manager.">
<polygon fill="white" stroke="black" points="756,-73 756,-92 871,-92 871,-73 756,-73"/>
<text text-anchor="middle" x="813.5" y="-80" font-family="Helvetica,sans-Serif" font-size="10.00">include/scene/Scene.h</text>
</a>
</g>
</g>
<!-- Node3&#45;&gt;Node22 -->
<g id="edge21" class="edge">
<title>Node3&#45;&gt;Node22</title>
<path fill="none" stroke="midnightblue" d="M879.74,-133.57C862.77,-120.74 838.88,-102.69 824.91,-92.13"/>
<polygon fill="midnightblue" stroke="midnightblue" points="877.81,-136.5 887.9,-139.73 882.03,-130.91 877.81,-136.5"/>
</g>
<!-- Node22&#45;&gt;Node6 -->
<g id="edge24" class="edge">
<title>Node22&#45;&gt;Node6</title>
<path fill="none" stroke="midnightblue" d="M745.81,-77.12C601.98,-67.68 269.91,-45.11 157.5,-31 144.87,-29.41 131.24,-27.23 118.75,-25.04"/>
<polygon fill="midnightblue" stroke="midnightblue" points="745.63,-80.61 755.84,-77.78 746.09,-73.63 745.63,-80.61"/>
</g>
<!-- Node22&#45;&gt;Node7 -->
<g id="edge26" class="edge">
<title>Node22&#45;&gt;Node7</title>
<path fill="none" stroke="midnightblue" d="M745.84,-77.08C647.44,-70.14 459.25,-54.96 300.5,-31 289.8,-29.39 278.28,-27.22 267.69,-25.05"/>
<polygon fill="midnightblue" stroke="midnightblue" points="745.72,-80.58 755.94,-77.78 746.21,-73.59 745.72,-80.58"/>
</g>
<!-- Node22&#45;&gt;Node8 -->
<g id="edge27" class="edge">
<title>Node22&#45;&gt;Node8</title>
<path fill="none" stroke="midnightblue" d="M745.48,-72.73C673.74,-63.28 557.46,-47.37 457.5,-31 446.49,-29.2 434.64,-27.08 423.58,-25.04"/>
<polygon fill="midnightblue" stroke="midnightblue" points="745.36,-76.25 755.73,-74.08 746.27,-69.31 745.36,-76.25"/>
</g>
<!-- Node22&#45;&gt;Node9 -->
<g id="edge29" class="edge">
<title>Node22&#45;&gt;Node9</title>
<path fill="none" stroke="midnightblue" d="M766.74,-70.64C711.57,-57.84 620.99,-36.81 570.47,-25.08"/>
<polygon fill="midnightblue" stroke="midnightblue" points="766.07,-74.08 776.61,-72.94 767.66,-67.26 766.07,-74.08"/>
</g>
<!-- Node22&#45;&gt;Node11 -->
<g id="edge30" class="edge">
<title>Node22&#45;&gt;Node11</title>
<path fill="none" stroke="midnightblue" d="M787.94,-68.1C763.39,-55.23 727.01,-36.16 706.03,-25.17"/>
<polygon fill="midnightblue" stroke="midnightblue" points="786.55,-71.33 797.03,-72.87 789.8,-65.13 786.55,-71.33"/>
</g>
<!-- Node22&#45;&gt;Node17 -->
<g id="edge32" class="edge">
<title>Node22&#45;&gt;Node17</title>
<path fill="none" stroke="midnightblue" d="M818.41,-62.74C821.09,-52.49 824.35,-40 826.82,-30.59"/>
<polygon fill="midnightblue" stroke="midnightblue" points="814.94,-62.17 815.79,-72.73 821.71,-63.94 814.94,-62.17"/>
</g>
<!-- Node22&#45;&gt;Node20 -->
<g id="edge33" class="edge">
<title>Node22&#45;&gt;Node20</title>
<path fill="none" stroke="midnightblue" d="M860.32,-71.04C868.67,-69.47 877.32,-68.03 885.5,-67 1193.26,-28.28 1275.62,-76.22 1582.5,-31 1585.53,-30.55 1588.62,-30.02 1591.74,-29.43"/>
<polygon fill="midnightblue" stroke="midnightblue" points="859.46,-67.64 850.33,-73 860.81,-74.5 859.46,-67.64"/>
</g>
<!-- Node23 -->
<g id="node23" class="node">
<title>Node23</title>
<g id="a_node23"><a xlink:href="GameObject_8cpp_source.html" target="_top" xlink:title=" ">
<polygon fill="white" stroke="black" points="1433.5,-6 1433.5,-25 1573.5,-25 1573.5,-6 1433.5,-6"/>
<text text-anchor="middle" x="1503.5" y="-13" font-family="Helvetica,sans-Serif" font-size="10.00">src/entities/GameObject.cpp</text>
</a>
</g>
</g>
<!-- Node22&#45;&gt;Node23 -->
<g id="edge22" class="edge">
<title>Node22&#45;&gt;Node23</title>
<path fill="none" stroke="midnightblue" d="M861.15,-70.98C869.25,-69.46 877.59,-68.06 885.5,-67 1123.48,-35.23 1186.26,-60.72 1424.5,-31 1436.68,-29.48 1449.82,-27.29 1461.82,-25.08"/>
<polygon fill="midnightblue" stroke="midnightblue" points="860.22,-67.6 851.08,-72.96 861.57,-74.47 860.22,-67.6"/>
</g>
<!-- Node24 -->
<g id="node24" class="node">
<title>Node24</title>
<g id="a_node24"><a xlink:href="Particle_8cpp.html" target="_top" xlink:title="Implementation of Particle.">
<polygon fill="white" stroke="black" points="900,-6 900,-25 1019,-25 1019,-6 900,-6"/>
<text text-anchor="middle" x="959.5" y="-13" font-family="Helvetica,sans-Serif" font-size="10.00">src/entities/Particle.cpp</text>
</a>
</g>
</g>
<!-- Node22&#45;&gt;Node24 -->
<g id="edge23" class="edge">
<title>Node22&#45;&gt;Node24</title>
<path fill="none" stroke="midnightblue" d="M842.07,-68.78C870.98,-55.91 914.9,-36.35 940.03,-25.17"/>
<polygon fill="midnightblue" stroke="midnightblue" points="840.6,-65.6 832.89,-72.87 843.45,-72 840.6,-65.6"/>
</g>
<!-- Node25 -->
<g id="node25" class="node">
<title>Node25</title>
<g id="a_node25"><a xlink:href="Sprite_8cpp.html" target="_top" xlink:title="Implementation of Sprite.">
<polygon fill="white" stroke="black" points="1037,-6 1037,-25 1148,-25 1148,-6 1037,-6"/>
<text text-anchor="middle" x="1092.5" y="-13" font-family="Helvetica,sans-Serif" font-size="10.00">src/entities/Sprite.cpp</text>
</a>
</g>
</g>
<!-- Node22&#45;&gt;Node25 -->
<g id="edge25" class="edge">
<title>Node22&#45;&gt;Node25</title>
<path fill="none" stroke="midnightblue" d="M860.1,-70.64C915.07,-57.84 1005.33,-36.81 1055.66,-25.08"/>
<polygon fill="midnightblue" stroke="midnightblue" points="859.21,-67.26 850.26,-72.94 860.79,-74.08 859.21,-67.26"/>
</g>
<!-- Node26 -->
<g id="node26" class="node">
<title>Node26</title>
<g id="a_node26"><a xlink:href="Image_8cpp.html" target="_top" xlink:title="Texturable ui element.">
<polygon fill="white" stroke="black" points="1166,-6 1166,-25 1289,-25 1289,-6 1166,-6"/>
<text text-anchor="middle" x="1227.5" y="-13" font-family="Helvetica,sans-Serif" font-size="10.00">src/entities/ui/Image.cpp</text>
</a>
</g>
</g>
<!-- Node22&#45;&gt;Node26 -->
<g id="edge28" class="edge">
<title>Node22&#45;&gt;Node26</title>
<path fill="none" stroke="midnightblue" d="M863.36,-71.01C870.77,-69.58 878.32,-68.2 885.5,-67 1005.78,-46.95 1037.27,-51.38 1157.5,-31 1167.66,-29.28 1178.58,-27.15 1188.72,-25.06"/>
<polygon fill="midnightblue" stroke="midnightblue" points="862.54,-67.6 853.4,-72.97 863.89,-74.47 862.54,-67.6"/>
</g>
<!-- Node27 -->
<g id="node27" class="node">
<title>Node27</title>
<g id="a_node27"><a xlink:href="Scene_8cpp.html" target="_top" xlink:title="Implementation of Scene class.">
<polygon fill="white" stroke="black" points="1307.5,-6 1307.5,-25 1415.5,-25 1415.5,-6 1307.5,-6"/>
<text text-anchor="middle" x="1361.5" y="-13" font-family="Helvetica,sans-Serif" font-size="10.00">src/scene/Scene.cpp</text>
</a>
</g>
</g>
<!-- Node22&#45;&gt;Node27 -->
<g id="edge31" class="edge">
<title>Node22&#45;&gt;Node27</title>
<path fill="none" stroke="midnightblue" d="M861.72,-71.02C869.64,-69.52 877.78,-68.11 885.5,-67 1067.88,-40.77 1116.5,-59.73 1298.5,-31 1308.26,-29.46 1318.75,-27.27 1328.32,-25.05"/>
<polygon fill="midnightblue" stroke="midnightblue" points="860.99,-67.59 851.85,-72.95 862.34,-74.46 860.99,-67.59"/>
</g>
</g>
</svg>
