<?xml version="1.0" encoding="UTF-8" standalone="no"?>
<!DOCTYPE svg PUBLIC "-//W3C//DTD SVG 1.1//EN"
 "http://www.w3.org/Graphics/SVG/1.1/DTD/svg11.dtd">
<!-- Generated by graphviz version 2.46.1 (20210215.1649)
 -->
<!-- Title: src/services/logging/DebugLoggingService.cpp Pages: 1 -->
<svg width="232pt" height="218pt"
 viewBox="0.00 0.00 232.00 218.00" xmlns="http://www.w3.org/2000/svg" xmlns:xlink="http://www.w3.org/1999/xlink">
<g id="graph0" class="graph" transform="scale(1 1) rotate(0) translate(4 214)">
<title>src/services/logging/DebugLoggingService.cpp</title>
<polygon fill="white" stroke="transparent" points="-4,4 -4,-214 228,-214 228,4 -4,4"/>
<!-- Node1 -->
<g id="node1" class="node">
<title>Node1</title>
<g id="a_node1"><a xlink:title="Implementation of DebugLoggingService.">
<polygon fill="#bfbfbf" stroke="black" points="69.5,-179.5 69.5,-209.5 202.5,-209.5 202.5,-179.5 69.5,-179.5"/>
<text text-anchor="start" x="77.5" y="-197.5" font-family="Helvetica,sans-Serif" font-size="10.00">src/services/logging</text>
<text text-anchor="middle" x="136" y="-186.5" font-family="Helvetica,sans-Serif" font-size="10.00">/DebugLoggingService.cpp</text>
</a>
</g>
</g>
<!-- Node2 -->
<g id="node2" class="node">
<title>Node2</title>
<g id="a_node2"><a xlink:href="DebugLoggingService_8h.html" target="_top" xlink:title="Logging service that does the logging. Used for development.">
<polygon fill="white" stroke="black" points="0,-112.5 0,-142.5 152,-142.5 152,-112.5 0,-112.5"/>
<text text-anchor="start" x="8" y="-130.5" font-family="Helvetica,sans-Serif" font-size="10.00">services/logging/DebugLogging</text>
<text text-anchor="middle" x="76" y="-119.5" font-family="Helvetica,sans-Serif" font-size="10.00">Service.h</text>
</a>
</g>
</g>
<!-- Node1&#45;&gt;Node2 -->
<g id="edge1" class="edge">
<title>Node1&#45;&gt;Node2</title>
<path fill="none" stroke="midnightblue" d="M122.98,-179.4C115.04,-170.79 104.73,-159.63 95.8,-149.94"/>
<polygon fill="midnightblue" stroke="midnightblue" points="98.35,-147.55 88.99,-142.58 93.2,-152.3 98.35,-147.55"/>
</g>
<!-- Node5 -->
<g id="node5" class="node">
<title>Node5</title>
<g id="a_node5"><a xlink:title=" ">
<polygon fill="white" stroke="#bfbfbf" points="170,-118 170,-137 224,-137 224,-118 170,-118"/>
<text text-anchor="middle" x="197" y="-125" font-family="Helvetica,sans-Serif" font-size="10.00">iostream</text>
</a>
</g>
</g>
<!-- Node1&#45;&gt;Node5 -->
<g id="edge5" class="edge">
<title>Node1&#45;&gt;Node5</title>
<path fill="none" stroke="midnightblue" d="M149.24,-179.4C158.84,-169.16 171.85,-155.3 181.87,-144.62"/>
<polygon fill="midnightblue" stroke="midnightblue" points="184.55,-146.88 188.84,-137.19 179.45,-142.09 184.55,-146.88"/>
</g>
<!-- Node3 -->
<g id="node3" class="node">
<title>Node3</title>
<g id="a_node3"><a xlink:title=" ">
<polygon fill="white" stroke="#bfbfbf" points="55.5,-0.5 55.5,-19.5 96.5,-19.5 96.5,-0.5 55.5,-0.5"/>
<text text-anchor="middle" x="76" y="-7.5" font-family="Helvetica,sans-Serif" font-size="10.00">string</text>
</a>
</g>
</g>
<!-- Node2&#45;&gt;Node3 -->
<g id="edge2" class="edge">
<title>Node2&#45;&gt;Node3</title>
<path fill="none" stroke="midnightblue" d="M68.57,-112.3C62.07,-98.14 54.2,-75.72 58,-56 59.79,-46.7 63.48,-36.89 67.06,-28.8"/>
<polygon fill="midnightblue" stroke="midnightblue" points="70.27,-30.2 71.38,-19.66 63.94,-27.21 70.27,-30.2"/>
</g>
<!-- Node4 -->
<g id="node4" class="node">
<title>Node4</title>
<g id="a_node4"><a xlink:href="LoggingService_8h.html" target="_top" xlink:title="Default logging service. Does nothing. Use in production.">
<polygon fill="white" stroke="black" points="67,-56.5 67,-75.5 159,-75.5 159,-56.5 67,-56.5"/>
<text text-anchor="middle" x="113" y="-63.5" font-family="Helvetica,sans-Serif" font-size="10.00">LoggingService.h</text>
</a>
</g>
</g>
<!-- Node2&#45;&gt;Node4 -->
<g id="edge3" class="edge">
<title>Node2&#45;&gt;Node4</title>
<path fill="none" stroke="midnightblue" d="M84.77,-112.4C89.98,-104.02 96.63,-93.33 102.17,-84.42"/>
<polygon fill="midnightblue" stroke="midnightblue" points="105.31,-86 107.62,-75.66 99.36,-82.3 105.31,-86"/>
</g>
<!-- Node4&#45;&gt;Node3 -->
<g id="edge4" class="edge">
<title>Node4&#45;&gt;Node3</title>
<path fill="none" stroke="midnightblue" d="M106.89,-56.08C101.72,-48.53 94.15,-37.49 87.81,-28.23"/>
<polygon fill="midnightblue" stroke="midnightblue" points="90.54,-26.02 82,-19.75 84.76,-29.98 90.54,-26.02"/>
</g>
</g>
</svg>
