<?xml version="1.0" encoding="UTF-8" standalone="no"?>
<!DOCTYPE svg PUBLIC "-//W3C//DTD SVG 1.1//EN"
 "http://www.w3.org/Graphics/SVG/1.1/DTD/svg11.dtd">
<!-- Generated by graphviz version 2.46.1 (20210215.1649)
 -->
<!-- Title: include/entities Pages: 1 -->
<svg width="182pt" height="175pt"
 viewBox="0.00 0.00 182.00 175.00" xmlns="http://www.w3.org/2000/svg" xmlns:xlink="http://www.w3.org/1999/xlink">
<g id="graph0" class="graph" transform="scale(1 1) rotate(0) translate(4 171)">
<title>include/entities</title>
<polygon fill="white" stroke="transparent" points="-4,4 -4,-171 178,-171 178,4 -4,4"/>
<g id="clust1" class="cluster">
<title>clusterdir_d44c64559bbebec7f509842c48db8b23</title>
<g id="a_clust1"><a xlink:href="dir_d44c64559bbebec7f509842c48db8b23.html" target="_top" xlink:title="include">
<polygon fill="#ddddee" stroke="black" points="8,-8 8,-159 166,-159 166,-8 8,-8"/>
<text text-anchor="middle" x="87" y="-147" font-family="Helvetica,sans-Serif" font-size="10.00">include</text>
</a>
</g>
</g>
<g id="clust2" class="cluster">
<title>clusterdir_4563ce166fd24a17a0623db1f3455956</title>
<g id="a_clust2"><a xlink:href="dir_4563ce166fd24a17a0623db1f3455956.html" target="_top">
<polygon fill="#eeeeff" stroke="black" points="16,-80 16,-132 158,-132 158,-80 16,-80"/>
</a>
</g>
</g>
<!-- dir_301e8dae696844292dc8e7f8761dfb77 -->
<g id="node1" class="node">
<title>dir_301e8dae696844292dc8e7f8761dfb77</title>
<g id="a_node1"><a xlink:href="dir_301e8dae696844292dc8e7f8761dfb77.html" target="_top" xlink:title="assets">
<polygon fill="none" stroke="black" points="78,-52 24,-52 24,-16 78,-16 78,-52"/>
<text text-anchor="middle" x="51" y="-31.5" font-family="Helvetica,sans-Serif" font-size="10.00">assets</text>
</a>
</g>
</g>
<!-- dir_fd4d8f4611cba400d56daa73e6003af6 -->
<g id="node2" class="node">
<title>dir_fd4d8f4611cba400d56daa73e6003af6</title>
<g id="a_node2"><a xlink:href="dir_fd4d8f4611cba400d56daa73e6003af6.html" target="_top" xlink:title="primitives">
<polygon fill="none" stroke="black" points="155.5,-52 96.5,-52 96.5,-16 155.5,-16 155.5,-52"/>
<text text-anchor="middle" x="126" y="-31.5" font-family="Helvetica,sans-Serif" font-size="10.00">primitives</text>
</a>
</g>
</g>
<!-- dir_4563ce166fd24a17a0623db1f3455956 -->
<g id="node3" class="node">
<title>dir_4563ce166fd24a17a0623db1f3455956</title>
<text text-anchor="middle" x="123" y="-103.5" font-family="Helvetica,sans-Serif" font-size="10.00">entities</text>
</g>
<!-- dir_4563ce166fd24a17a0623db1f3455956&#45;&gt;dir_301e8dae696844292dc8e7f8761dfb77 -->
<g id="edge1" class="edge">
<title>dir_4563ce166fd24a17a0623db1f3455956&#45;&gt;dir_301e8dae696844292dc8e7f8761dfb77</title>
<path fill="none" stroke="black" d="M105.2,-87.7C96.4,-79.14 85.62,-68.66 76,-59.3"/>
<polygon fill="black" stroke="black" points="78.2,-56.57 68.59,-52.1 73.32,-61.58 78.2,-56.57"/>
<g id="a_edge1&#45;headlabel"><a xlink:href="dir_000004_000001.html" target="_top" xlink:title="4">
<text text-anchor="middle" x="82.76" y="-54.54" font-family="Helvetica,sans-Serif" font-size="10.00">4</text>
</a>
</g>
</g>
<!-- dir_4563ce166fd24a17a0623db1f3455956&#45;&gt;dir_fd4d8f4611cba400d56daa73e6003af6 -->
<g id="edge2" class="edge">
<title>dir_4563ce166fd24a17a0623db1f3455956&#45;&gt;dir_fd4d8f4611cba400d56daa73e6003af6</title>
<path fill="none" stroke="black" d="M123.74,-87.7C124.07,-79.98 124.47,-70.71 124.84,-62.11"/>
<polygon fill="black" stroke="black" points="128.34,-62.25 125.27,-52.1 121.34,-61.95 128.34,-62.25"/>
<g id="a_edge2&#45;headlabel"><a xlink:href="dir_000004_000006.html" target="_top" xlink:title="1">
<text text-anchor="middle" x="131.02" y="-63.46" font-family="Helvetica,sans-Serif" font-size="10.00">1</text>
</a>
</g>
</g>
<!-- dir_7ba16ed3a9feca660aaf6acfdbcb8da9 -->
<g id="node4" class="node">
<title>dir_7ba16ed3a9feca660aaf6acfdbcb8da9</title>
<g id="a_node4"><a xlink:href="dir_7ba16ed3a9feca660aaf6acfdbcb8da9.html" target="_top" xlink:title="ui">
<polygon fill="white" stroke="black" points="78,-124 24,-124 24,-88 78,-88 78,-124"/>
<text text-anchor="middle" x="51" y="-103.5" font-family="Helvetica,sans-Serif" font-size="10.00">ui</text>
</a>
</g>
</g>
<!-- dir_7ba16ed3a9feca660aaf6acfdbcb8da9&#45;&gt;dir_301e8dae696844292dc8e7f8761dfb77 -->
<g id="edge3" class="edge">
<title>dir_7ba16ed3a9feca660aaf6acfdbcb8da9&#45;&gt;dir_301e8dae696844292dc8e7f8761dfb77</title>
<path fill="none" stroke="black" d="M51,-87.7C51,-79.98 51,-70.71 51,-62.11"/>
<polygon fill="black" stroke="black" points="54.5,-62.1 51,-52.1 47.5,-62.1 54.5,-62.1"/>
<g id="a_edge3&#45;headlabel"><a xlink:href="dir_000005_000001.html" target="_top" xlink:title="3">
<text text-anchor="middle" x="57.34" y="-63.2" font-family="Helvetica,sans-Serif" font-size="10.00">3</text>
</a>
</g>
</g>
</g>
</svg>
