<?xml version="1.0" encoding="UTF-8" standalone="no"?>
<!DOCTYPE svg PUBLIC "-//W3C//DTD SVG 1.1//EN"
 "http://www.w3.org/Graphics/SVG/1.1/DTD/svg11.dtd">
<!-- Generated by graphviz version 2.46.1 (20210215.1649)
 -->
<!-- Title: src Pages: 1 -->
<svg width="676pt" height="132pt"
 viewBox="0.00 0.00 676.00 132.00" xmlns="http://www.w3.org/2000/svg" xmlns:xlink="http://www.w3.org/1999/xlink">
<g id="graph0" class="graph" transform="scale(1 1) rotate(0) translate(4 128)">
<title>src</title>
<polygon fill="white" stroke="transparent" points="-4,4 -4,-128 672,-128 672,4 -4,4"/>
<g id="clust1" class="cluster">
<title>clusterdir_68267d1309a1af8e8297ef4c3efbcdba</title>
<g id="a_clust1"><a xlink:href="dir_68267d1309a1af8e8297ef4c3efbcdba.html" target="_top">
<polygon fill="#eeeeff" stroke="black" points="8,-64 8,-116 660,-116 660,-64 8,-64"/>
</a>
</g>
</g>
<!-- dir_68267d1309a1af8e8297ef4c3efbcdba -->
<g id="node1" class="node">
<title>dir_68267d1309a1af8e8297ef4c3efbcdba</title>
<text text-anchor="middle" x="625" y="-87.5" font-family="Helvetica,sans-Serif" font-size="10.00">src</text>
</g>
<!-- dir_10713331a9c2c730d0277dc05e8141d6 -->
<g id="node2" class="node">
<title>dir_10713331a9c2c730d0277dc05e8141d6</title>
<g id="a_node2"><a xlink:href="dir_10713331a9c2c730d0277dc05e8141d6.html" target="_top" xlink:title="assets">
<polygon fill="white" stroke="black" points="580,-108 526,-108 526,-72 580,-72 580,-108"/>
<text text-anchor="middle" x="553" y="-87.5" font-family="Helvetica,sans-Serif" font-size="10.00">assets</text>
</a>
</g>
</g>
<!-- dir_d44c64559bbebec7f509842c48db8b23 -->
<g id="node10" class="node">
<title>dir_d44c64559bbebec7f509842c48db8b23</title>
<g id="a_node10"><a xlink:href="dir_d44c64559bbebec7f509842c48db8b23.html" target="_top" xlink:title="include">
<polygon fill="white" stroke="red" points="326,-36 272,-36 272,0 326,0 326,-36"/>
<text text-anchor="middle" x="299" y="-15.5" font-family="Helvetica,sans-Serif" font-size="10.00">include</text>
</a>
</g>
</g>
<!-- dir_10713331a9c2c730d0277dc05e8141d6&#45;&gt;dir_d44c64559bbebec7f509842c48db8b23 -->
<g id="edge3" class="edge">
<title>dir_10713331a9c2c730d0277dc05e8141d6&#45;&gt;dir_d44c64559bbebec7f509842c48db8b23</title>
<path fill="none" stroke="black" d="M531.36,-71.91C526.8,-68.92 521.89,-66.1 517,-64 456.83,-38.19 380.82,-26.83 336.29,-22.1"/>
<polygon fill="black" stroke="black" points="336.52,-18.61 326.22,-21.09 335.82,-25.57 336.52,-18.61"/>
<g id="a_edge3&#45;headlabel"><a xlink:href="dir_000019_000000.html" target="_top" xlink:title="12">
<text text-anchor="middle" x="340.38" y="-13.64" font-family="Helvetica,sans-Serif" font-size="10.00">12</text>
</a>
</g>
</g>
<!-- dir_82de54800d58acfdb8408b83e50623af -->
<g id="node3" class="node">
<title>dir_82de54800d58acfdb8408b83e50623af</title>
<g id="a_node3"><a xlink:href="dir_82de54800d58acfdb8408b83e50623af.html" target="_top" xlink:title="color">
<polygon fill="white" stroke="black" points="508,-108 454,-108 454,-72 508,-72 508,-108"/>
<text text-anchor="middle" x="481" y="-87.5" font-family="Helvetica,sans-Serif" font-size="10.00">color</text>
</a>
</g>
</g>
<!-- dir_82de54800d58acfdb8408b83e50623af&#45;&gt;dir_d44c64559bbebec7f509842c48db8b23 -->
<g id="edge1" class="edge">
<title>dir_82de54800d58acfdb8408b83e50623af&#45;&gt;dir_d44c64559bbebec7f509842c48db8b23</title>
<path fill="none" stroke="black" d="M458.41,-71.76C454.1,-68.92 449.52,-66.2 445,-64 409.69,-46.81 366.4,-34.46 336.16,-27.09"/>
<polygon fill="black" stroke="black" points="336.58,-23.59 326.04,-24.69 334.96,-30.4 336.58,-23.59"/>
<g id="a_edge1&#45;headlabel"><a xlink:href="dir_000020_000000.html" target="_top" xlink:title="1">
<text text-anchor="middle" x="340.73" y="-19.16" font-family="Helvetica,sans-Serif" font-size="10.00">1</text>
</a>
</g>
</g>
<!-- dir_fdedb0aba14d44ce9d99bc100e026e6a -->
<g id="node4" class="node">
<title>dir_fdedb0aba14d44ce9d99bc100e026e6a</title>
<g id="a_node4"><a xlink:href="dir_fdedb0aba14d44ce9d99bc100e026e6a.html" target="_top" xlink:title="common">
<polygon fill="white" stroke="black" points="436,-108 382,-108 382,-72 436,-72 436,-108"/>
<text text-anchor="middle" x="409" y="-87.5" font-family="Helvetica,sans-Serif" font-size="10.00">common</text>
</a>
</g>
</g>
<!-- dir_fdedb0aba14d44ce9d99bc100e026e6a&#45;&gt;dir_d44c64559bbebec7f509842c48db8b23 -->
<g id="edge8" class="edge">
<title>dir_fdedb0aba14d44ce9d99bc100e026e6a&#45;&gt;dir_d44c64559bbebec7f509842c48db8b23</title>
<path fill="none" stroke="black" d="M384.74,-71.85C380.84,-69.19 376.83,-66.49 373,-64 360.73,-56.02 347.09,-47.6 334.89,-40.23"/>
<polygon fill="black" stroke="black" points="336.68,-37.22 326.31,-35.07 333.08,-43.22 336.68,-37.22"/>
<g id="a_edge8&#45;headlabel"><a xlink:href="dir_000021_000000.html" target="_top" xlink:title="2">
<text text-anchor="middle" x="341.23" y="-34.14" font-family="Helvetica,sans-Serif" font-size="10.00">2</text>
</a>
</g>
</g>
<!-- dir_d691984d1d74be3b164cee16192654be -->
<g id="node5" class="node">
<title>dir_d691984d1d74be3b164cee16192654be</title>
<g id="a_node5"><a xlink:href="dir_d691984d1d74be3b164cee16192654be.html" target="_top" xlink:title="entities">
<polygon fill="white" stroke="red" points="364,-108 310,-108 310,-72 364,-72 364,-108"/>
<text text-anchor="middle" x="337" y="-87.5" font-family="Helvetica,sans-Serif" font-size="10.00">entities</text>
</a>
</g>
</g>
<!-- dir_d691984d1d74be3b164cee16192654be&#45;&gt;dir_d44c64559bbebec7f509842c48db8b23 -->
<g id="edge4" class="edge">
<title>dir_d691984d1d74be3b164cee16192654be&#45;&gt;dir_d44c64559bbebec7f509842c48db8b23</title>
<path fill="none" stroke="black" d="M327.61,-71.7C323.24,-63.64 317.94,-53.89 313.1,-44.98"/>
<polygon fill="black" stroke="black" points="316.13,-43.22 308.29,-36.1 309.98,-46.56 316.13,-43.22"/>
<g id="a_edge4&#45;headlabel"><a xlink:href="dir_000022_000000.html" target="_top" xlink:title="39">
<text text-anchor="middle" x="320.34" y="-42.53" font-family="Helvetica,sans-Serif" font-size="10.00">39</text>
</a>
</g>
</g>
<!-- dir_bbf56bce9985720f86fc476f3812db24 -->
<g id="node6" class="node">
<title>dir_bbf56bce9985720f86fc476f3812db24</title>
<g id="a_node6"><a xlink:href="dir_bbf56bce9985720f86fc476f3812db24.html" target="_top" xlink:title="primitives">
<polygon fill="white" stroke="black" points="291.5,-108 232.5,-108 232.5,-72 291.5,-72 291.5,-108"/>
<text text-anchor="middle" x="262" y="-87.5" font-family="Helvetica,sans-Serif" font-size="10.00">primitives</text>
</a>
</g>
</g>
<!-- dir_bbf56bce9985720f86fc476f3812db24&#45;&gt;dir_d44c64559bbebec7f509842c48db8b23 -->
<g id="edge6" class="edge">
<title>dir_bbf56bce9985720f86fc476f3812db24&#45;&gt;dir_d44c64559bbebec7f509842c48db8b23</title>
<path fill="none" stroke="black" d="M271.15,-71.7C275.4,-63.64 280.56,-53.89 285.27,-44.98"/>
<polygon fill="black" stroke="black" points="288.38,-46.58 289.96,-36.1 282.19,-43.31 288.38,-46.58"/>
<g id="a_edge6&#45;headlabel"><a xlink:href="dir_000024_000000.html" target="_top" xlink:title="2">
<text text-anchor="middle" x="289.21" y="-48.59" font-family="Helvetica,sans-Serif" font-size="10.00">2</text>
</a>
</g>
</g>
<!-- dir_dc7627fbbe08a8ed57b33ba8aaf634d0 -->
<g id="node7" class="node">
<title>dir_dc7627fbbe08a8ed57b33ba8aaf634d0</title>
<g id="a_node7"><a xlink:href="dir_dc7627fbbe08a8ed57b33ba8aaf634d0.html" target="_top" xlink:title="random">
<polygon fill="white" stroke="black" points="214,-108 160,-108 160,-72 214,-72 214,-108"/>
<text text-anchor="middle" x="187" y="-87.5" font-family="Helvetica,sans-Serif" font-size="10.00">random</text>
</a>
</g>
</g>
<!-- dir_dc7627fbbe08a8ed57b33ba8aaf634d0&#45;&gt;dir_d44c64559bbebec7f509842c48db8b23 -->
<g id="edge5" class="edge">
<title>dir_dc7627fbbe08a8ed57b33ba8aaf634d0&#45;&gt;dir_d44c64559bbebec7f509842c48db8b23</title>
<path fill="none" stroke="black" d="M211.96,-71.87C215.96,-69.2 220.08,-66.5 224,-64 236.57,-55.99 250.53,-47.5 262.96,-40.09"/>
<polygon fill="black" stroke="black" points="264.89,-43.01 271.71,-34.9 261.32,-36.99 264.89,-43.01"/>
<g id="a_edge5&#45;headlabel"><a xlink:href="dir_000025_000000.html" target="_top" xlink:title="1">
<text text-anchor="middle" x="263.25" y="-44.79" font-family="Helvetica,sans-Serif" font-size="10.00">1</text>
</a>
</g>
</g>
<!-- dir_35781f0e74aa8deac19fa31b37174dc2 -->
<g id="node8" class="node">
<title>dir_35781f0e74aa8deac19fa31b37174dc2</title>
<g id="a_node8"><a xlink:href="dir_35781f0e74aa8deac19fa31b37174dc2.html" target="_top" xlink:title="scene">
<polygon fill="white" stroke="black" points="142,-108 88,-108 88,-72 142,-72 142,-108"/>
<text text-anchor="middle" x="115" y="-87.5" font-family="Helvetica,sans-Serif" font-size="10.00">scene</text>
</a>
</g>
</g>
<!-- dir_35781f0e74aa8deac19fa31b37174dc2&#45;&gt;dir_d44c64559bbebec7f509842c48db8b23 -->
<g id="edge7" class="edge">
<title>dir_35781f0e74aa8deac19fa31b37174dc2&#45;&gt;dir_d44c64559bbebec7f509842c48db8b23</title>
<path fill="none" stroke="black" d="M137.59,-71.75C141.9,-68.91 146.48,-66.19 151,-64 187.05,-46.54 231.32,-34.15 262.01,-26.85"/>
<polygon fill="black" stroke="black" points="262.91,-30.23 271.86,-24.57 261.33,-23.41 262.91,-30.23"/>
<g id="a_edge7&#45;headlabel"><a xlink:href="dir_000026_000000.html" target="_top" xlink:title="3">
<text text-anchor="middle" x="260.05" y="-31.31" font-family="Helvetica,sans-Serif" font-size="10.00">3</text>
</a>
</g>
</g>
<!-- dir_1826a32a9d780ddbaf96ec88be56c4cd -->
<g id="node9" class="node">
<title>dir_1826a32a9d780ddbaf96ec88be56c4cd</title>
<g id="a_node9"><a xlink:href="dir_1826a32a9d780ddbaf96ec88be56c4cd.html" target="_top" xlink:title="services">
<polygon fill="white" stroke="red" points="70,-108 16,-108 16,-72 70,-72 70,-108"/>
<text text-anchor="middle" x="43" y="-87.5" font-family="Helvetica,sans-Serif" font-size="10.00">services</text>
</a>
</g>
</g>
<!-- dir_1826a32a9d780ddbaf96ec88be56c4cd&#45;&gt;dir_d44c64559bbebec7f509842c48db8b23 -->
<g id="edge2" class="edge">
<title>dir_1826a32a9d780ddbaf96ec88be56c4cd&#45;&gt;dir_d44c64559bbebec7f509842c48db8b23</title>
<path fill="none" stroke="black" d="M64.64,-71.9C69.19,-68.91 74.1,-66.1 79,-64 139.89,-37.94 216.84,-26.65 261.73,-22"/>
<polygon fill="black" stroke="black" points="262.27,-25.47 271.88,-21.01 261.59,-18.5 262.27,-25.47"/>
<g id="a_edge2&#45;headlabel"><a xlink:href="dir_000027_000000.html" target="_top" xlink:title="26">
<text text-anchor="middle" x="258.97" y="-26.14" font-family="Helvetica,sans-Serif" font-size="10.00">26</text>
</a>
</g>
</g>
</g>
</svg>
