<?xml version="1.0" encoding="UTF-8" standalone="no"?>
<!DOCTYPE svg PUBLIC "-//W3C//DTD SVG 1.1//EN"
 "http://www.w3.org/Graphics/SVG/1.1/DTD/svg11.dtd">
<!-- Generated by graphviz version 2.46.1 (20210215.1649)
 -->
<!-- Title: include Pages: 1 -->
<svg width="238pt" height="292pt"
 viewBox="0.00 0.00 238.00 292.00" xmlns="http://www.w3.org/2000/svg" xmlns:xlink="http://www.w3.org/1999/xlink">
<g id="graph0" class="graph" transform="scale(1 1) rotate(0) translate(4 288)">
<title>include</title>
<polygon fill="white" stroke="transparent" points="-4,4 -4,-288 234,-288 234,4 -4,4"/>
<g id="clust1" class="cluster">
<title>clusterdir_d44c64559bbebec7f509842c48db8b23</title>
<g id="a_clust1"><a xlink:href="dir_d44c64559bbebec7f509842c48db8b23.html" target="_top">
<polygon fill="#eeeeff" stroke="black" points="8,-8 8,-276 222,-276 222,-8 8,-8"/>
</a>
</g>
</g>
<!-- dir_d44c64559bbebec7f509842c48db8b23 -->
<g id="node1" class="node">
<title>dir_d44c64559bbebec7f509842c48db8b23</title>
<text text-anchor="middle" x="187" y="-247.5" font-family="Helvetica,sans-Serif" font-size="10.00">include</text>
</g>
<!-- dir_8e7f98560e81747745b578423924064a -->
<g id="node9" class="node">
<title>dir_8e7f98560e81747745b578423924064a</title>
<g id="a_node9"><a xlink:href="dir_8e7f98560e81747745b578423924064a.html" target="_top" xlink:title="services">
<polygon fill="white" stroke="red" points="214,-196 160,-196 160,-160 214,-160 214,-196"/>
<text text-anchor="middle" x="187" y="-175.5" font-family="Helvetica,sans-Serif" font-size="10.00">services</text>
</a>
</g>
</g>
<!-- dir_d44c64559bbebec7f509842c48db8b23&#45;&gt;dir_8e7f98560e81747745b578423924064a -->
<g id="edge7" class="edge">
<title>dir_d44c64559bbebec7f509842c48db8b23&#45;&gt;dir_8e7f98560e81747745b578423924064a</title>
<path fill="none" stroke="black" d="M187,-231.7C187,-223.98 187,-214.71 187,-206.11"/>
<polygon fill="black" stroke="black" points="190.5,-206.1 187,-196.1 183.5,-206.1 190.5,-206.1"/>
<g id="a_edge7&#45;headlabel"><a xlink:href="dir_000000_000009.html" target="_top" xlink:title="10">
<text text-anchor="middle" x="193.34" y="-207.2" font-family="Helvetica,sans-Serif" font-size="10.00">10</text>
</a>
</g>
</g>
<!-- dir_301e8dae696844292dc8e7f8761dfb77 -->
<g id="node2" class="node">
<title>dir_301e8dae696844292dc8e7f8761dfb77</title>
<g id="a_node2"><a xlink:href="dir_301e8dae696844292dc8e7f8761dfb77.html" target="_top" xlink:title="assets">
<polygon fill="white" stroke="black" points="163,-124 109,-124 109,-88 163,-88 163,-124"/>
<text text-anchor="middle" x="136" y="-103.5" font-family="Helvetica,sans-Serif" font-size="10.00">assets</text>
</a>
</g>
</g>
<!-- dir_88214b2f61c6f4a66e7a4a379a9c9fc9 -->
<g id="node3" class="node">
<title>dir_88214b2f61c6f4a66e7a4a379a9c9fc9</title>
<g id="a_node3"><a xlink:href="dir_88214b2f61c6f4a66e7a4a379a9c9fc9.html" target="_top" xlink:title="color">
<polygon fill="white" stroke="black" points="163,-52 109,-52 109,-16 163,-16 163,-52"/>
<text text-anchor="middle" x="136" y="-31.5" font-family="Helvetica,sans-Serif" font-size="10.00">color</text>
</a>
</g>
</g>
<!-- dir_301e8dae696844292dc8e7f8761dfb77&#45;&gt;dir_88214b2f61c6f4a66e7a4a379a9c9fc9 -->
<g id="edge8" class="edge">
<title>dir_301e8dae696844292dc8e7f8761dfb77&#45;&gt;dir_88214b2f61c6f4a66e7a4a379a9c9fc9</title>
<path fill="none" stroke="black" d="M136,-87.7C136,-79.98 136,-70.71 136,-62.11"/>
<polygon fill="black" stroke="black" points="139.5,-62.1 136,-52.1 132.5,-62.1 139.5,-62.1"/>
<g id="a_edge8&#45;headlabel"><a xlink:href="dir_000001_000002.html" target="_top" xlink:title="2">
<text text-anchor="middle" x="142.34" y="-63.2" font-family="Helvetica,sans-Serif" font-size="10.00">2</text>
</a>
</g>
</g>
<!-- dir_0966d06610f72609fd9aa4979c2b5a92 -->
<g id="node4" class="node">
<title>dir_0966d06610f72609fd9aa4979c2b5a92</title>
<g id="a_node4"><a xlink:href="dir_0966d06610f72609fd9aa4979c2b5a92.html" target="_top" xlink:title="common">
<polygon fill="white" stroke="black" points="142,-196 88,-196 88,-160 142,-160 142,-196"/>
<text text-anchor="middle" x="115" y="-175.5" font-family="Helvetica,sans-Serif" font-size="10.00">common</text>
</a>
</g>
</g>
<!-- dir_4563ce166fd24a17a0623db1f3455956 -->
<g id="node5" class="node">
<title>dir_4563ce166fd24a17a0623db1f3455956</title>
<g id="a_node5"><a xlink:href="dir_4563ce166fd24a17a0623db1f3455956.html" target="_top" xlink:title="entities">
<polygon fill="white" stroke="red" points="70,-196 16,-196 16,-160 70,-160 70,-196"/>
<text text-anchor="middle" x="43" y="-175.5" font-family="Helvetica,sans-Serif" font-size="10.00">entities</text>
</a>
</g>
</g>
<!-- dir_4563ce166fd24a17a0623db1f3455956&#45;&gt;dir_301e8dae696844292dc8e7f8761dfb77 -->
<g id="edge1" class="edge">
<title>dir_4563ce166fd24a17a0623db1f3455956&#45;&gt;dir_301e8dae696844292dc8e7f8761dfb77</title>
<path fill="none" stroke="black" d="M65.99,-159.7C77.81,-150.8 92.39,-139.82 105.18,-130.2"/>
<polygon fill="black" stroke="black" points="107.39,-132.91 113.28,-124.1 103.18,-127.32 107.39,-132.91"/>
<g id="a_edge1&#45;headlabel"><a xlink:href="dir_000004_000001.html" target="_top" xlink:title="4">
<text text-anchor="middle" x="106.23" y="-134.84" font-family="Helvetica,sans-Serif" font-size="10.00">4</text>
</a>
</g>
</g>
<!-- dir_fd4d8f4611cba400d56daa73e6003af6 -->
<g id="node6" class="node">
<title>dir_fd4d8f4611cba400d56daa73e6003af6</title>
<g id="a_node6"><a xlink:href="dir_fd4d8f4611cba400d56daa73e6003af6.html" target="_top" xlink:title="primitives">
<polygon fill="white" stroke="black" points="85.5,-124 26.5,-124 26.5,-88 85.5,-88 85.5,-124"/>
<text text-anchor="middle" x="56" y="-103.5" font-family="Helvetica,sans-Serif" font-size="10.00">primitives</text>
</a>
</g>
</g>
<!-- dir_4563ce166fd24a17a0623db1f3455956&#45;&gt;dir_fd4d8f4611cba400d56daa73e6003af6 -->
<g id="edge2" class="edge">
<title>dir_4563ce166fd24a17a0623db1f3455956&#45;&gt;dir_fd4d8f4611cba400d56daa73e6003af6</title>
<path fill="none" stroke="black" d="M46.21,-159.7C47.65,-151.98 49.37,-142.71 50.96,-134.11"/>
<polygon fill="black" stroke="black" points="54.44,-134.58 52.82,-124.1 47.56,-133.3 54.44,-134.58"/>
<g id="a_edge2&#45;headlabel"><a xlink:href="dir_000004_000006.html" target="_top" xlink:title="1">
<text text-anchor="middle" x="56.57" y="-136.13" font-family="Helvetica,sans-Serif" font-size="10.00">1</text>
</a>
</g>
</g>
<!-- dir_fd4d8f4611cba400d56daa73e6003af6&#45;&gt;dir_88214b2f61c6f4a66e7a4a379a9c9fc9 -->
<g id="edge6" class="edge">
<title>dir_fd4d8f4611cba400d56daa73e6003af6&#45;&gt;dir_88214b2f61c6f4a66e7a4a379a9c9fc9</title>
<path fill="none" stroke="black" d="M75.78,-87.7C85.75,-78.97 98.01,-68.24 108.86,-58.75"/>
<polygon fill="black" stroke="black" points="111.23,-61.32 116.45,-52.1 106.62,-56.06 111.23,-61.32"/>
<g id="a_edge6&#45;headlabel"><a xlink:href="dir_000006_000002.html" target="_top" xlink:title="1">
<text text-anchor="middle" x="110.4" y="-63.33" font-family="Helvetica,sans-Serif" font-size="10.00">1</text>
</a>
</g>
</g>
<!-- dir_081a228b1cfa69ae178332a28d6a95f4 -->
<g id="node7" class="node">
<title>dir_081a228b1cfa69ae178332a28d6a95f4</title>
<g id="a_node7"><a xlink:href="dir_081a228b1cfa69ae178332a28d6a95f4.html" target="_top" xlink:title="random">
<polygon fill="white" stroke="black" points="142,-268 88,-268 88,-232 142,-232 142,-268"/>
<text text-anchor="middle" x="115" y="-247.5" font-family="Helvetica,sans-Serif" font-size="10.00">random</text>
</a>
</g>
</g>
<!-- dir_cb6e897cb5cd097a761323417c742ef8 -->
<g id="node8" class="node">
<title>dir_cb6e897cb5cd097a761323417c742ef8</title>
<g id="a_node8"><a xlink:href="dir_cb6e897cb5cd097a761323417c742ef8.html" target="_top" xlink:title="scene">
<polygon fill="white" stroke="black" points="70,-268 16,-268 16,-232 70,-232 70,-268"/>
<text text-anchor="middle" x="43" y="-247.5" font-family="Helvetica,sans-Serif" font-size="10.00">scene</text>
</a>
</g>
</g>
<!-- dir_cb6e897cb5cd097a761323417c742ef8&#45;&gt;dir_0966d06610f72609fd9aa4979c2b5a92 -->
<g id="edge3" class="edge">
<title>dir_cb6e897cb5cd097a761323417c742ef8&#45;&gt;dir_0966d06610f72609fd9aa4979c2b5a92</title>
<path fill="none" stroke="black" d="M60.8,-231.7C69.6,-223.14 80.38,-212.66 90,-203.3"/>
<polygon fill="black" stroke="black" points="92.68,-205.58 97.41,-196.1 87.8,-200.57 92.68,-205.58"/>
<g id="a_edge3&#45;headlabel"><a xlink:href="dir_000008_000003.html" target="_top" xlink:title="1">
<text text-anchor="middle" x="92.08" y="-207.63" font-family="Helvetica,sans-Serif" font-size="10.00">1</text>
</a>
</g>
</g>
<!-- dir_cb6e897cb5cd097a761323417c742ef8&#45;&gt;dir_4563ce166fd24a17a0623db1f3455956 -->
<g id="edge4" class="edge">
<title>dir_cb6e897cb5cd097a761323417c742ef8&#45;&gt;dir_4563ce166fd24a17a0623db1f3455956</title>
<path fill="none" stroke="black" d="M43,-231.7C43,-223.98 43,-214.71 43,-206.11"/>
<polygon fill="black" stroke="black" points="46.5,-206.1 43,-196.1 39.5,-206.1 46.5,-206.1"/>
<g id="a_edge4&#45;headlabel"><a xlink:href="dir_000008_000004.html" target="_top" xlink:title="1">
<text text-anchor="middle" x="49.34" y="-207.2" font-family="Helvetica,sans-Serif" font-size="10.00">1</text>
</a>
</g>
</g>
<!-- dir_cb6e897cb5cd097a761323417c742ef8&#45;&gt;dir_8e7f98560e81747745b578423924064a -->
<g id="edge5" class="edge">
<title>dir_cb6e897cb5cd097a761323417c742ef8&#45;&gt;dir_8e7f98560e81747745b578423924064a</title>
<path fill="none" stroke="black" d="M70.09,-235.83C92.77,-224.81 125.36,-208.97 150.37,-196.81"/>
<polygon fill="black" stroke="black" points="152.08,-199.87 159.55,-192.35 149.02,-193.57 152.08,-199.87"/>
<g id="a_edge5&#45;headlabel"><a xlink:href="dir_000008_000009.html" target="_top" xlink:title="1">
<text text-anchor="middle" x="150.09" y="-201.49" font-family="Helvetica,sans-Serif" font-size="10.00">1</text>
</a>
</g>
</g>
<!-- dir_8e7f98560e81747745b578423924064a&#45;&gt;dir_301e8dae696844292dc8e7f8761dfb77 -->
<g id="edge9" class="edge">
<title>dir_8e7f98560e81747745b578423924064a&#45;&gt;dir_301e8dae696844292dc8e7f8761dfb77</title>
<path fill="none" stroke="black" d="M174.39,-159.7C168.4,-151.47 161.12,-141.48 154.52,-132.42"/>
<polygon fill="black" stroke="black" points="157.18,-130.13 148.46,-124.1 151.52,-134.25 157.18,-130.13"/>
<g id="a_edge9&#45;headlabel"><a xlink:href="dir_000009_000001.html" target="_top" xlink:title="6">
<text text-anchor="middle" x="161.59" y="-128.86" font-family="Helvetica,sans-Serif" font-size="10.00">6</text>
</a>
</g>
</g>
<!-- dir_8e7f98560e81747745b578423924064a&#45;&gt;dir_88214b2f61c6f4a66e7a4a379a9c9fc9 -->
<g id="edge10" class="edge">
<title>dir_8e7f98560e81747745b578423924064a&#45;&gt;dir_88214b2f61c6f4a66e7a4a379a9c9fc9</title>
<path fill="none" stroke="black" d="M186.27,-159.68C185,-141.3 181.52,-111.7 172,-88 168.12,-78.35 162.28,-68.67 156.41,-60.28"/>
<polygon fill="black" stroke="black" points="159.12,-58.05 150.38,-52.06 153.47,-62.19 159.12,-58.05"/>
<g id="a_edge10&#45;headlabel"><a xlink:href="dir_000009_000002.html" target="_top" xlink:title="1">
<text text-anchor="middle" x="163.53" y="-56.77" font-family="Helvetica,sans-Serif" font-size="10.00">1</text>
</a>
</g>
</g>
</g>
</svg>
