<?xml version="1.0" encoding="UTF-8" standalone="no"?>
<!DOCTYPE svg PUBLIC "-//W3C//DTD SVG 1.1//EN"
 "http://www.w3.org/Graphics/SVG/1.1/DTD/svg11.dtd">
<!-- Generated by graphviz version 2.46.1 (20210215.1649)
 -->
<!-- Title: include/scene Pages: 1 -->
<svg width="238pt" height="167pt"
 viewBox="0.00 0.00 238.00 167.00" xmlns="http://www.w3.org/2000/svg" xmlns:xlink="http://www.w3.org/1999/xlink">
<g id="graph0" class="graph" transform="scale(1 1) rotate(0) translate(4 163)">
<title>include/scene</title>
<polygon fill="white" stroke="transparent" points="-4,4 -4,-163 234,-163 234,4 -4,4"/>
<g id="clust1" class="cluster">
<title>clusterdir_d44c64559bbebec7f509842c48db8b23</title>
<g id="a_clust1"><a xlink:href="dir_d44c64559bbebec7f509842c48db8b23.html" target="_top" xlink:title="include">
<polygon fill="#ddddee" stroke="black" points="8,-8 8,-151 222,-151 222,-8 8,-8"/>
<text text-anchor="middle" x="115" y="-139" font-family="Helvetica,sans-Serif" font-size="10.00">include</text>
</a>
</g>
</g>
<!-- dir_0966d06610f72609fd9aa4979c2b5a92 -->
<g id="node1" class="node">
<title>dir_0966d06610f72609fd9aa4979c2b5a92</title>
<g id="a_node1"><a xlink:href="dir_0966d06610f72609fd9aa4979c2b5a92.html" target="_top" xlink:title="common">
<polygon fill="none" stroke="black" points="70,-52 16,-52 16,-16 70,-16 70,-52"/>
<text text-anchor="middle" x="43" y="-31.5" font-family="Helvetica,sans-Serif" font-size="10.00">common</text>
</a>
</g>
</g>
<!-- dir_4563ce166fd24a17a0623db1f3455956 -->
<g id="node2" class="node">
<title>dir_4563ce166fd24a17a0623db1f3455956</title>
<g id="a_node2"><a xlink:href="dir_4563ce166fd24a17a0623db1f3455956.html" target="_top" xlink:title="entities">
<polygon fill="white" stroke="red" points="142,-52 88,-52 88,-16 142,-16 142,-52"/>
<text text-anchor="middle" x="115" y="-31.5" font-family="Helvetica,sans-Serif" font-size="10.00">entities</text>
</a>
</g>
</g>
<!-- dir_8e7f98560e81747745b578423924064a -->
<g id="node3" class="node">
<title>dir_8e7f98560e81747745b578423924064a</title>
<g id="a_node3"><a xlink:href="dir_8e7f98560e81747745b578423924064a.html" target="_top" xlink:title="services">
<polygon fill="white" stroke="red" points="214,-52 160,-52 160,-16 214,-16 214,-52"/>
<text text-anchor="middle" x="187" y="-31.5" font-family="Helvetica,sans-Serif" font-size="10.00">services</text>
</a>
</g>
</g>
<!-- dir_cb6e897cb5cd097a761323417c742ef8 -->
<g id="node4" class="node">
<title>dir_cb6e897cb5cd097a761323417c742ef8</title>
<g id="a_node4"><a xlink:href="dir_cb6e897cb5cd097a761323417c742ef8.html" target="_top" xlink:title="scene">
<polygon fill="#eeeeff" stroke="black" points="142,-124 88,-124 88,-88 142,-88 142,-124"/>
<text text-anchor="middle" x="115" y="-103.5" font-family="Helvetica,sans-Serif" font-size="10.00">scene</text>
</a>
</g>
</g>
<!-- dir_cb6e897cb5cd097a761323417c742ef8&#45;&gt;dir_0966d06610f72609fd9aa4979c2b5a92 -->
<g id="edge1" class="edge">
<title>dir_cb6e897cb5cd097a761323417c742ef8&#45;&gt;dir_0966d06610f72609fd9aa4979c2b5a92</title>
<path fill="none" stroke="black" d="M97.2,-87.7C88.4,-79.14 77.62,-68.66 68,-59.3"/>
<polygon fill="black" stroke="black" points="70.2,-56.57 60.59,-52.1 65.32,-61.58 70.2,-56.57"/>
<g id="a_edge1&#45;headlabel"><a xlink:href="dir_000008_000003.html" target="_top" xlink:title="1">
<text text-anchor="middle" x="74.76" y="-54.54" font-family="Helvetica,sans-Serif" font-size="10.00">1</text>
</a>
</g>
</g>
<!-- dir_cb6e897cb5cd097a761323417c742ef8&#45;&gt;dir_4563ce166fd24a17a0623db1f3455956 -->
<g id="edge2" class="edge">
<title>dir_cb6e897cb5cd097a761323417c742ef8&#45;&gt;dir_4563ce166fd24a17a0623db1f3455956</title>
<path fill="none" stroke="black" d="M115,-87.7C115,-79.98 115,-70.71 115,-62.11"/>
<polygon fill="black" stroke="black" points="118.5,-62.1 115,-52.1 111.5,-62.1 118.5,-62.1"/>
<g id="a_edge2&#45;headlabel"><a xlink:href="dir_000008_000004.html" target="_top" xlink:title="1">
<text text-anchor="middle" x="121.34" y="-63.2" font-family="Helvetica,sans-Serif" font-size="10.00">1</text>
</a>
</g>
</g>
<!-- dir_cb6e897cb5cd097a761323417c742ef8&#45;&gt;dir_8e7f98560e81747745b578423924064a -->
<g id="edge3" class="edge">
<title>dir_cb6e897cb5cd097a761323417c742ef8&#45;&gt;dir_8e7f98560e81747745b578423924064a</title>
<path fill="none" stroke="black" d="M132.8,-87.7C141.6,-79.14 152.38,-68.66 162,-59.3"/>
<polygon fill="black" stroke="black" points="164.68,-61.58 169.41,-52.1 159.8,-56.57 164.68,-61.58"/>
<g id="a_edge3&#45;headlabel"><a xlink:href="dir_000008_000009.html" target="_top" xlink:title="1">
<text text-anchor="middle" x="164.08" y="-63.63" font-family="Helvetica,sans-Serif" font-size="10.00">1</text>
</a>
</g>
</g>
</g>
</svg>
