<?xml version="1.0" encoding="UTF-8" standalone="no"?>
<!DOCTYPE svg PUBLIC "-//W3C//DTD SVG 1.1//EN"
 "http://www.w3.org/Graphics/SVG/1.1/DTD/svg11.dtd">
<!-- Generated by graphviz version 2.46.1 (20210215.1649)
 -->
<!-- Title: include/services/assets Pages: 1 -->
<svg width="94pt" height="151pt"
 viewBox="0.00 0.00 94.00 151.00" xmlns="http://www.w3.org/2000/svg" xmlns:xlink="http://www.w3.org/1999/xlink">
<g id="graph0" class="graph" transform="scale(1 1) rotate(0) translate(4 147)">
<title>include/services/assets</title>
<polygon fill="white" stroke="transparent" points="-4,4 -4,-147 90,-147 90,4 -4,4"/>
<g id="clust1" class="cluster">
<title>clusterdir_8e7f98560e81747745b578423924064a</title>
<g id="a_clust1"><a xlink:href="dir_8e7f98560e81747745b578423924064a.html" target="_top" xlink:title="services">
<polygon fill="#ddddee" stroke="black" points="8,-64 8,-135 78,-135 78,-64 8,-64"/>
<text text-anchor="middle" x="43" y="-123" font-family="Helvetica,sans-Serif" font-size="10.00">services</text>
</a>
</g>
</g>
<!-- dir_7479bb38c7b8b4cc8dfbf3cdb79d0a31 -->
<g id="node1" class="node">
<title>dir_7479bb38c7b8b4cc8dfbf3cdb79d0a31</title>
<g id="a_node1"><a xlink:href="dir_7479bb38c7b8b4cc8dfbf3cdb79d0a31.html" target="_top" xlink:title="assets">
<polygon fill="#eeeeff" stroke="black" points="70,-108 16,-108 16,-72 70,-72 70,-108"/>
<text text-anchor="middle" x="43" y="-87.5" font-family="Helvetica,sans-Serif" font-size="10.00">assets</text>
</a>
</g>
</g>
<!-- dir_301e8dae696844292dc8e7f8761dfb77 -->
<g id="node2" class="node">
<title>dir_301e8dae696844292dc8e7f8761dfb77</title>
<g id="a_node2"><a xlink:href="dir_301e8dae696844292dc8e7f8761dfb77.html" target="_top" xlink:title="assets">
<polygon fill="none" stroke="black" points="70,-36 16,-36 16,0 70,0 70,-36"/>
<text text-anchor="middle" x="43" y="-15.5" font-family="Helvetica,sans-Serif" font-size="10.00">assets</text>
</a>
</g>
</g>
<!-- dir_7479bb38c7b8b4cc8dfbf3cdb79d0a31&#45;&gt;dir_301e8dae696844292dc8e7f8761dfb77 -->
<g id="edge1" class="edge">
<title>dir_7479bb38c7b8b4cc8dfbf3cdb79d0a31&#45;&gt;dir_301e8dae696844292dc8e7f8761dfb77</title>
<path fill="none" stroke="black" d="M43,-71.7C43,-63.98 43,-54.71 43,-46.11"/>
<polygon fill="black" stroke="black" points="46.5,-46.1 43,-36.1 39.5,-46.1 46.5,-46.1"/>
<g id="a_edge1&#45;headlabel"><a xlink:href="dir_000010_000001.html" target="_top" xlink:title="4">
<text text-anchor="middle" x="49.34" y="-47.2" font-family="Helvetica,sans-Serif" font-size="10.00">4</text>
</a>
</g>
</g>
</g>
</svg>
