<?xml version="1.0" encoding="UTF-8" standalone="no"?>
<!DOCTYPE svg PUBLIC "-//W3C//DTD SVG 1.1//EN"
 "http://www.w3.org/Graphics/SVG/1.1/DTD/svg11.dtd">
<!-- Generated by graphviz version 2.46.1 (20210215.1649)
 -->
<!-- Title: include/services Pages: 1 -->
<svg width="614pt" height="319pt"
 viewBox="0.00 0.00 614.00 319.00" xmlns="http://www.w3.org/2000/svg" xmlns:xlink="http://www.w3.org/1999/xlink">
<g id="graph0" class="graph" transform="scale(1 1) rotate(0) translate(4 315)">
<title>include/services</title>
<polygon fill="white" stroke="transparent" points="-4,4 -4,-315 610,-315 610,4 -4,4"/>
<g id="clust1" class="cluster">
<title>clusterdir_d44c64559bbebec7f509842c48db8b23</title>
<g id="a_clust1"><a xlink:href="dir_d44c64559bbebec7f509842c48db8b23.html" target="_top" xlink:title="include">
<polygon fill="#ddddee" stroke="black" points="8,-8 8,-303 598,-303 598,-8 8,-8"/>
<text text-anchor="middle" x="303" y="-291" font-family="Helvetica,sans-Serif" font-size="10.00">include</text>
</a>
</g>
</g>
<g id="clust2" class="cluster">
<title>clusterdir_8e7f98560e81747745b578423924064a</title>
<g id="a_clust2"><a xlink:href="dir_8e7f98560e81747745b578423924064a.html" target="_top">
<polygon fill="#eeeeff" stroke="black" points="16,-152 16,-276 590,-276 590,-152 16,-152"/>
</a>
</g>
</g>
<!-- dir_301e8dae696844292dc8e7f8761dfb77 -->
<g id="node1" class="node">
<title>dir_301e8dae696844292dc8e7f8761dfb77</title>
<g id="a_node1"><a xlink:href="dir_301e8dae696844292dc8e7f8761dfb77.html" target="_top" xlink:title="assets">
<polygon fill="none" stroke="black" points="150,-124 96,-124 96,-88 150,-88 150,-124"/>
<text text-anchor="middle" x="123" y="-103.5" font-family="Helvetica,sans-Serif" font-size="10.00">assets</text>
</a>
</g>
</g>
<!-- dir_88214b2f61c6f4a66e7a4a379a9c9fc9 -->
<g id="node2" class="node">
<title>dir_88214b2f61c6f4a66e7a4a379a9c9fc9</title>
<g id="a_node2"><a xlink:href="dir_88214b2f61c6f4a66e7a4a379a9c9fc9.html" target="_top" xlink:title="color">
<polygon fill="none" stroke="black" points="173,-52 119,-52 119,-16 173,-16 173,-52"/>
<text text-anchor="middle" x="146" y="-31.5" font-family="Helvetica,sans-Serif" font-size="10.00">color</text>
</a>
</g>
</g>
<!-- dir_301e8dae696844292dc8e7f8761dfb77&#45;&gt;dir_88214b2f61c6f4a66e7a4a379a9c9fc9 -->
<g id="edge3" class="edge">
<title>dir_301e8dae696844292dc8e7f8761dfb77&#45;&gt;dir_88214b2f61c6f4a66e7a4a379a9c9fc9</title>
<path fill="none" stroke="black" d="M128.69,-87.7C131.25,-79.9 134.33,-70.51 137.18,-61.83"/>
<polygon fill="black" stroke="black" points="140.58,-62.7 140.38,-52.1 133.93,-60.51 140.58,-62.7"/>
<g id="a_edge3&#45;headlabel"><a xlink:href="dir_000001_000002.html" target="_top" xlink:title="2">
<text text-anchor="middle" x="142.16" y="-64.5" font-family="Helvetica,sans-Serif" font-size="10.00">2</text>
</a>
</g>
</g>
<!-- dir_8e7f98560e81747745b578423924064a -->
<g id="node3" class="node">
<title>dir_8e7f98560e81747745b578423924064a</title>
<text text-anchor="middle" x="303" y="-247.5" font-family="Helvetica,sans-Serif" font-size="10.00">services</text>
</g>
<!-- dir_7479bb38c7b8b4cc8dfbf3cdb79d0a31 -->
<g id="node4" class="node">
<title>dir_7479bb38c7b8b4cc8dfbf3cdb79d0a31</title>
<g id="a_node4"><a xlink:href="dir_7479bb38c7b8b4cc8dfbf3cdb79d0a31.html" target="_top" xlink:title="assets">
<polygon fill="white" stroke="black" points="78,-196 24,-196 24,-160 78,-160 78,-196"/>
<text text-anchor="middle" x="51" y="-175.5" font-family="Helvetica,sans-Serif" font-size="10.00">assets</text>
</a>
</g>
</g>
<!-- dir_8e7f98560e81747745b578423924064a&#45;&gt;dir_7479bb38c7b8b4cc8dfbf3cdb79d0a31 -->
<g id="edge9" class="edge">
<title>dir_8e7f98560e81747745b578423924064a&#45;&gt;dir_7479bb38c7b8b4cc8dfbf3cdb79d0a31</title>
<path fill="none" stroke="black" d="M275.89,-244.16C236.24,-236.71 160.14,-220.93 87.97,-195.99"/>
<polygon fill="black" stroke="black" points="88.87,-192.6 78.28,-192.57 86.55,-199.2 88.87,-192.6"/>
<g id="a_edge9&#45;headlabel"><a xlink:href="dir_000009_000010.html" target="_top" xlink:title="1">
<text text-anchor="middle" x="93.21" y="-188.61" font-family="Helvetica,sans-Serif" font-size="10.00">1</text>
</a>
</g>
</g>
<!-- dir_5ae45571df62f2a29493d6bf0eb51ab6 -->
<g id="node5" class="node">
<title>dir_5ae45571df62f2a29493d6bf0eb51ab6</title>
<g id="a_node5"><a xlink:href="dir_5ae45571df62f2a29493d6bf0eb51ab6.html" target="_top" xlink:title="audio">
<polygon fill="white" stroke="black" points="150,-196 96,-196 96,-160 150,-160 150,-196"/>
<text text-anchor="middle" x="123" y="-175.5" font-family="Helvetica,sans-Serif" font-size="10.00">audio</text>
</a>
</g>
</g>
<!-- dir_8e7f98560e81747745b578423924064a&#45;&gt;dir_5ae45571df62f2a29493d6bf0eb51ab6 -->
<g id="edge6" class="edge">
<title>dir_8e7f98560e81747745b578423924064a&#45;&gt;dir_5ae45571df62f2a29493d6bf0eb51ab6</title>
<path fill="none" stroke="black" d="M275.92,-239.84C248.65,-230.43 205.23,-214.99 159.49,-196.04"/>
<polygon fill="black" stroke="black" points="160.59,-192.7 150.01,-192.07 157.89,-199.16 160.59,-192.7"/>
<g id="a_edge6&#45;headlabel"><a xlink:href="dir_000009_000011.html" target="_top" xlink:title="1">
<text text-anchor="middle" x="165" y="-188.97" font-family="Helvetica,sans-Serif" font-size="10.00">1</text>
</a>
</g>
</g>
<!-- dir_0f7025f19f690122b47c81d9f81d5ac5 -->
<g id="node6" class="node">
<title>dir_0f7025f19f690122b47c81d9f81d5ac5</title>
<g id="a_node6"><a xlink:href="dir_0f7025f19f690122b47c81d9f81d5ac5.html" target="_top" xlink:title="config">
<polygon fill="white" stroke="black" points="222,-196 168,-196 168,-160 222,-160 222,-196"/>
<text text-anchor="middle" x="195" y="-175.5" font-family="Helvetica,sans-Serif" font-size="10.00">config</text>
</a>
</g>
</g>
<!-- dir_8e7f98560e81747745b578423924064a&#45;&gt;dir_0f7025f19f690122b47c81d9f81d5ac5 -->
<g id="edge4" class="edge">
<title>dir_8e7f98560e81747745b578423924064a&#45;&gt;dir_0f7025f19f690122b47c81d9f81d5ac5</title>
<path fill="none" stroke="black" d="M276.58,-231.88C262.59,-222.81 245.22,-211.55 230.11,-201.76"/>
<polygon fill="black" stroke="black" points="231.82,-198.69 221.52,-196.19 228.01,-204.57 231.82,-198.69"/>
<g id="a_edge4&#45;headlabel"><a xlink:href="dir_000009_000012.html" target="_top" xlink:title="1">
<text text-anchor="middle" x="236.38" y="-195.76" font-family="Helvetica,sans-Serif" font-size="10.00">1</text>
</a>
</g>
</g>
<!-- dir_73f024940e446ecf5614eae8309993a0 -->
<g id="node7" class="node">
<title>dir_73f024940e446ecf5614eae8309993a0</title>
<g id="a_node7"><a xlink:href="dir_73f024940e446ecf5614eae8309993a0.html" target="_top" xlink:title="display">
<polygon fill="white" stroke="black" points="294,-196 240,-196 240,-160 294,-160 294,-196"/>
<text text-anchor="middle" x="267" y="-175.5" font-family="Helvetica,sans-Serif" font-size="10.00">display</text>
</a>
</g>
</g>
<!-- dir_8e7f98560e81747745b578423924064a&#45;&gt;dir_73f024940e446ecf5614eae8309993a0 -->
<g id="edge8" class="edge">
<title>dir_8e7f98560e81747745b578423924064a&#45;&gt;dir_73f024940e446ecf5614eae8309993a0</title>
<path fill="none" stroke="black" d="M294.1,-231.7C290,-223.73 285.05,-214.1 280.51,-205.26"/>
<polygon fill="black" stroke="black" points="283.48,-203.4 275.8,-196.1 277.26,-206.6 283.48,-203.4"/>
<g id="a_edge8&#45;headlabel"><a xlink:href="dir_000009_000013.html" target="_top" xlink:title="1">
<text text-anchor="middle" x="287.65" y="-202.79" font-family="Helvetica,sans-Serif" font-size="10.00">1</text>
</a>
</g>
</g>
<!-- dir_6908eb738cd2d2174c7d5a6889dd158f -->
<g id="node8" class="node">
<title>dir_6908eb738cd2d2174c7d5a6889dd158f</title>
<g id="a_node8"><a xlink:href="dir_6908eb738cd2d2174c7d5a6889dd158f.html" target="_top" xlink:title="events">
<polygon fill="white" stroke="black" points="366,-196 312,-196 312,-160 366,-160 366,-196"/>
<text text-anchor="middle" x="339" y="-175.5" font-family="Helvetica,sans-Serif" font-size="10.00">events</text>
</a>
</g>
</g>
<!-- dir_8e7f98560e81747745b578423924064a&#45;&gt;dir_6908eb738cd2d2174c7d5a6889dd158f -->
<g id="edge7" class="edge">
<title>dir_8e7f98560e81747745b578423924064a&#45;&gt;dir_6908eb738cd2d2174c7d5a6889dd158f</title>
<path fill="none" stroke="black" d="M311.9,-231.7C316,-223.73 320.95,-214.1 325.49,-205.26"/>
<polygon fill="black" stroke="black" points="328.74,-206.6 330.2,-196.1 322.52,-203.4 328.74,-206.6"/>
<g id="a_edge7&#45;headlabel"><a xlink:href="dir_000009_000014.html" target="_top" xlink:title="1">
<text text-anchor="middle" x="329.62" y="-208.59" font-family="Helvetica,sans-Serif" font-size="10.00">1</text>
</a>
</g>
</g>
<!-- dir_40803de13aa853f6ab6c490a69b1c16a -->
<g id="node9" class="node">
<title>dir_40803de13aa853f6ab6c490a69b1c16a</title>
<g id="a_node9"><a xlink:href="dir_40803de13aa853f6ab6c490a69b1c16a.html" target="_top" xlink:title="input">
<polygon fill="white" stroke="black" points="438,-196 384,-196 384,-160 438,-160 438,-196"/>
<text text-anchor="middle" x="411" y="-175.5" font-family="Helvetica,sans-Serif" font-size="10.00">input</text>
</a>
</g>
</g>
<!-- dir_8e7f98560e81747745b578423924064a&#45;&gt;dir_40803de13aa853f6ab6c490a69b1c16a -->
<g id="edge5" class="edge">
<title>dir_8e7f98560e81747745b578423924064a&#45;&gt;dir_40803de13aa853f6ab6c490a69b1c16a</title>
<path fill="none" stroke="black" d="M329.42,-231.88C343.41,-222.81 360.78,-211.55 375.89,-201.76"/>
<polygon fill="black" stroke="black" points="377.99,-204.57 384.48,-196.19 374.18,-198.69 377.99,-204.57"/>
<g id="a_edge5&#45;headlabel"><a xlink:href="dir_000009_000015.html" target="_top" xlink:title="1">
<text text-anchor="middle" x="376.52" y="-206.4" font-family="Helvetica,sans-Serif" font-size="10.00">1</text>
</a>
</g>
</g>
<!-- dir_b98a3b31d8174fd2ff4534e488ffb7b0 -->
<g id="node10" class="node">
<title>dir_b98a3b31d8174fd2ff4534e488ffb7b0</title>
<g id="a_node10"><a xlink:href="dir_b98a3b31d8174fd2ff4534e488ffb7b0.html" target="_top" xlink:title="logging">
<polygon fill="white" stroke="black" points="510,-196 456,-196 456,-160 510,-160 510,-196"/>
<text text-anchor="middle" x="483" y="-175.5" font-family="Helvetica,sans-Serif" font-size="10.00">logging</text>
</a>
</g>
</g>
<!-- dir_8e7f98560e81747745b578423924064a&#45;&gt;dir_b98a3b31d8174fd2ff4534e488ffb7b0 -->
<g id="edge10" class="edge">
<title>dir_8e7f98560e81747745b578423924064a&#45;&gt;dir_b98a3b31d8174fd2ff4534e488ffb7b0</title>
<path fill="none" stroke="black" d="M330.08,-239.84C357.35,-230.43 400.77,-214.99 446.51,-196.04"/>
<polygon fill="black" stroke="black" points="448.11,-199.16 455.99,-192.07 445.41,-192.7 448.11,-199.16"/>
<g id="a_edge10&#45;headlabel"><a xlink:href="dir_000009_000016.html" target="_top" xlink:title="1">
<text text-anchor="middle" x="445.89" y="-200.66" font-family="Helvetica,sans-Serif" font-size="10.00">1</text>
</a>
</g>
</g>
<!-- dir_d6db96278b23b3c6e6b5e4f88e6460bb -->
<g id="node11" class="node">
<title>dir_d6db96278b23b3c6e6b5e4f88e6460bb</title>
<g id="a_node11"><a xlink:href="dir_d6db96278b23b3c6e6b5e4f88e6460bb.html" target="_top" xlink:title="scene">
<polygon fill="white" stroke="black" points="582,-196 528,-196 528,-160 582,-160 582,-196"/>
<text text-anchor="middle" x="555" y="-175.5" font-family="Helvetica,sans-Serif" font-size="10.00">scene</text>
</a>
</g>
</g>
<!-- dir_8e7f98560e81747745b578423924064a&#45;&gt;dir_d6db96278b23b3c6e6b5e4f88e6460bb -->
<g id="edge11" class="edge">
<title>dir_8e7f98560e81747745b578423924064a&#45;&gt;dir_d6db96278b23b3c6e6b5e4f88e6460bb</title>
<path fill="none" stroke="black" d="M330.11,-244.16C369.76,-236.71 445.86,-220.93 518.03,-195.99"/>
<polygon fill="black" stroke="black" points="519.45,-199.2 527.72,-192.57 517.13,-192.6 519.45,-199.2"/>
<g id="a_edge11&#45;headlabel"><a xlink:href="dir_000009_000017.html" target="_top" xlink:title="1">
<text text-anchor="middle" x="517.01" y="-200.57" font-family="Helvetica,sans-Serif" font-size="10.00">1</text>
</a>
</g>
</g>
<!-- dir_7479bb38c7b8b4cc8dfbf3cdb79d0a31&#45;&gt;dir_301e8dae696844292dc8e7f8761dfb77 -->
<g id="edge1" class="edge">
<title>dir_7479bb38c7b8b4cc8dfbf3cdb79d0a31&#45;&gt;dir_301e8dae696844292dc8e7f8761dfb77</title>
<path fill="none" stroke="black" d="M68.8,-159.7C77.6,-151.14 88.38,-140.66 98,-131.3"/>
<polygon fill="black" stroke="black" points="100.68,-133.58 105.41,-124.1 95.8,-128.57 100.68,-133.58"/>
<g id="a_edge1&#45;headlabel"><a xlink:href="dir_000010_000001.html" target="_top" xlink:title="4">
<text text-anchor="middle" x="100.08" y="-135.63" font-family="Helvetica,sans-Serif" font-size="10.00">4</text>
</a>
</g>
</g>
<!-- dir_5ae45571df62f2a29493d6bf0eb51ab6&#45;&gt;dir_301e8dae696844292dc8e7f8761dfb77 -->
<g id="edge2" class="edge">
<title>dir_5ae45571df62f2a29493d6bf0eb51ab6&#45;&gt;dir_301e8dae696844292dc8e7f8761dfb77</title>
<path fill="none" stroke="black" d="M123,-159.7C123,-151.98 123,-142.71 123,-134.11"/>
<polygon fill="black" stroke="black" points="126.5,-134.1 123,-124.1 119.5,-134.1 126.5,-134.1"/>
<g id="a_edge2&#45;headlabel"><a xlink:href="dir_000011_000001.html" target="_top" xlink:title="2">
<text text-anchor="middle" x="129.34" y="-135.2" font-family="Helvetica,sans-Serif" font-size="10.00">2</text>
</a>
</g>
</g>
<!-- dir_73f024940e446ecf5614eae8309993a0&#45;&gt;dir_88214b2f61c6f4a66e7a4a379a9c9fc9 -->
<g id="edge12" class="edge">
<title>dir_73f024940e446ecf5614eae8309993a0&#45;&gt;dir_88214b2f61c6f4a66e7a4a379a9c9fc9</title>
<path fill="none" stroke="black" d="M252.4,-159.87C231.24,-135.03 191.88,-88.85 167.42,-60.14"/>
<polygon fill="black" stroke="black" points="169.8,-57.53 160.65,-52.19 164.47,-62.07 169.8,-57.53"/>
<g id="a_edge12&#45;headlabel"><a xlink:href="dir_000013_000002.html" target="_top" xlink:title="1">
<text text-anchor="middle" x="174.29" y="-55.93" font-family="Helvetica,sans-Serif" font-size="10.00">1</text>
</a>
</g>
</g>
</g>
</svg>
