<?xml version="1.0" encoding="UTF-8" standalone="no"?>
<!DOCTYPE svg PUBLIC "-//W3C//DTD SVG 1.1//EN"
 "http://www.w3.org/Graphics/SVG/1.1/DTD/svg11.dtd">
<!-- Generated by graphviz version 2.46.1 (20210215.1649)
 -->
<!-- Title: src/services Pages: 1 -->
<svg width="686pt" height="159pt"
 viewBox="0.00 0.00 686.00 159.00" xmlns="http://www.w3.org/2000/svg" xmlns:xlink="http://www.w3.org/1999/xlink">
<g id="graph0" class="graph" transform="scale(1 1) rotate(0) translate(4 155)">
<title>src/services</title>
<polygon fill="white" stroke="transparent" points="-4,4 -4,-155 682,-155 682,4 -4,4"/>
<g id="clust1" class="cluster">
<title>clusterdir_68267d1309a1af8e8297ef4c3efbcdba</title>
<g id="a_clust1"><a xlink:href="dir_68267d1309a1af8e8297ef4c3efbcdba.html" target="_top" xlink:title="src">
<polygon fill="#ddddee" stroke="black" points="8,-56 8,-143 670,-143 670,-56 8,-56"/>
<text text-anchor="middle" x="339" y="-131" font-family="Helvetica,sans-Serif" font-size="10.00">src</text>
</a>
</g>
</g>
<g id="clust2" class="cluster">
<title>clusterdir_1826a32a9d780ddbaf96ec88be56c4cd</title>
<g id="a_clust2"><a xlink:href="dir_1826a32a9d780ddbaf96ec88be56c4cd.html" target="_top">
<polygon fill="#eeeeff" stroke="black" points="16,-64 16,-116 662,-116 662,-64 16,-64"/>
</a>
</g>
</g>
<!-- dir_1826a32a9d780ddbaf96ec88be56c4cd -->
<g id="node1" class="node">
<title>dir_1826a32a9d780ddbaf96ec88be56c4cd</title>
<text text-anchor="middle" x="627" y="-87.5" font-family="Helvetica,sans-Serif" font-size="10.00">services</text>
</g>
<!-- dir_e9aae39e96490a2eb82c89886fa84f2f -->
<g id="node2" class="node">
<title>dir_e9aae39e96490a2eb82c89886fa84f2f</title>
<g id="a_node2"><a xlink:href="dir_e9aae39e96490a2eb82c89886fa84f2f.html" target="_top" xlink:title="assets">
<polygon fill="white" stroke="black" points="582,-108 528,-108 528,-72 582,-72 582,-108"/>
<text text-anchor="middle" x="555" y="-87.5" font-family="Helvetica,sans-Serif" font-size="10.00">assets</text>
</a>
</g>
</g>
<!-- dir_d44c64559bbebec7f509842c48db8b23 -->
<g id="node10" class="node">
<title>dir_d44c64559bbebec7f509842c48db8b23</title>
<g id="a_node10"><a xlink:href="dir_d44c64559bbebec7f509842c48db8b23.html" target="_top" xlink:title="include">
<polygon fill="white" stroke="red" points="330,-36 276,-36 276,0 330,0 330,-36"/>
<text text-anchor="middle" x="303" y="-15.5" font-family="Helvetica,sans-Serif" font-size="10.00">include</text>
</a>
</g>
</g>
<!-- dir_e9aae39e96490a2eb82c89886fa84f2f&#45;&gt;dir_d44c64559bbebec7f509842c48db8b23 -->
<g id="edge1" class="edge">
<title>dir_e9aae39e96490a2eb82c89886fa84f2f&#45;&gt;dir_d44c64559bbebec7f509842c48db8b23</title>
<path fill="none" stroke="black" d="M540.02,-71.67C534.06,-65.82 526.77,-59.81 519,-56 460.97,-27.55 384.84,-20.57 340.18,-19.09"/>
<polygon fill="black" stroke="black" points="340.16,-15.58 330.08,-18.83 339.98,-22.58 340.16,-15.58"/>
<g id="a_edge1&#45;headlabel"><a xlink:href="dir_000028_000000.html" target="_top" xlink:title="3">
<text text-anchor="middle" x="343.83" y="-10.34" font-family="Helvetica,sans-Serif" font-size="10.00">3</text>
</a>
</g>
</g>
<!-- dir_27b3035cede1d963756082aa8c98be72 -->
<g id="node3" class="node">
<title>dir_27b3035cede1d963756082aa8c98be72</title>
<g id="a_node3"><a xlink:href="dir_27b3035cede1d963756082aa8c98be72.html" target="_top" xlink:title="audio">
<polygon fill="white" stroke="black" points="510,-108 456,-108 456,-72 510,-72 510,-108"/>
<text text-anchor="middle" x="483" y="-87.5" font-family="Helvetica,sans-Serif" font-size="10.00">audio</text>
</a>
</g>
</g>
<!-- dir_27b3035cede1d963756082aa8c98be72&#45;&gt;dir_d44c64559bbebec7f509842c48db8b23 -->
<g id="edge6" class="edge">
<title>dir_27b3035cede1d963756082aa8c98be72&#45;&gt;dir_d44c64559bbebec7f509842c48db8b23</title>
<path fill="none" stroke="black" d="M467.49,-71.67C461.58,-65.96 454.45,-60.04 447,-56 413.4,-37.79 370.51,-28.27 340.3,-23.47"/>
<polygon fill="black" stroke="black" points="340.59,-19.98 330.18,-21.97 339.56,-26.9 340.59,-19.98"/>
<g id="a_edge6&#45;headlabel"><a xlink:href="dir_000029_000000.html" target="_top" xlink:title="2">
<text text-anchor="middle" x="344.56" y="-15.2" font-family="Helvetica,sans-Serif" font-size="10.00">2</text>
</a>
</g>
</g>
<!-- dir_9cc3f318a0a916d99bd230b1bad70117 -->
<g id="node4" class="node">
<title>dir_9cc3f318a0a916d99bd230b1bad70117</title>
<g id="a_node4"><a xlink:href="dir_9cc3f318a0a916d99bd230b1bad70117.html" target="_top" xlink:title="config">
<polygon fill="white" stroke="black" points="438,-108 384,-108 384,-72 438,-72 438,-108"/>
<text text-anchor="middle" x="411" y="-87.5" font-family="Helvetica,sans-Serif" font-size="10.00">config</text>
</a>
</g>
</g>
<!-- dir_9cc3f318a0a916d99bd230b1bad70117&#45;&gt;dir_d44c64559bbebec7f509842c48db8b23 -->
<g id="edge3" class="edge">
<title>dir_9cc3f318a0a916d99bd230b1bad70117&#45;&gt;dir_d44c64559bbebec7f509842c48db8b23</title>
<path fill="none" stroke="black" d="M394.22,-71.89C388.41,-66.46 381.68,-60.65 375,-56 363.99,-48.33 351.18,-41.24 339.44,-35.35"/>
<polygon fill="black" stroke="black" points="340.83,-32.14 330.31,-30.91 337.77,-38.43 340.83,-32.14"/>
<g id="a_edge3&#45;headlabel"><a xlink:href="dir_000030_000000.html" target="_top" xlink:title="3">
<text text-anchor="middle" x="345.31" y="-28.66" font-family="Helvetica,sans-Serif" font-size="10.00">3</text>
</a>
</g>
</g>
<!-- dir_a2025e2f5d640427c6c888de58fb2b20 -->
<g id="node5" class="node">
<title>dir_a2025e2f5d640427c6c888de58fb2b20</title>
<g id="a_node5"><a xlink:href="dir_a2025e2f5d640427c6c888de58fb2b20.html" target="_top" xlink:title="display">
<polygon fill="white" stroke="black" points="366,-108 312,-108 312,-72 366,-72 366,-108"/>
<text text-anchor="middle" x="339" y="-87.5" font-family="Helvetica,sans-Serif" font-size="10.00">display</text>
</a>
</g>
</g>
<!-- dir_a2025e2f5d640427c6c888de58fb2b20&#45;&gt;dir_d44c64559bbebec7f509842c48db8b23 -->
<g id="edge2" class="edge">
<title>dir_a2025e2f5d640427c6c888de58fb2b20&#45;&gt;dir_d44c64559bbebec7f509842c48db8b23</title>
<path fill="none" stroke="black" d="M330.1,-71.7C326,-63.73 321.05,-54.1 316.51,-45.26"/>
<polygon fill="black" stroke="black" points="319.48,-43.4 311.8,-36.1 313.26,-46.6 319.48,-43.4"/>
<g id="a_edge2&#45;headlabel"><a xlink:href="dir_000031_000000.html" target="_top" xlink:title="5">
<text text-anchor="middle" x="323.65" y="-42.79" font-family="Helvetica,sans-Serif" font-size="10.00">5</text>
</a>
</g>
</g>
<!-- dir_ffcbf95d031adc90ee804c18194151ef -->
<g id="node6" class="node">
<title>dir_ffcbf95d031adc90ee804c18194151ef</title>
<g id="a_node6"><a xlink:href="dir_ffcbf95d031adc90ee804c18194151ef.html" target="_top" xlink:title="events">
<polygon fill="white" stroke="black" points="294,-108 240,-108 240,-72 294,-72 294,-108"/>
<text text-anchor="middle" x="267" y="-87.5" font-family="Helvetica,sans-Serif" font-size="10.00">events</text>
</a>
</g>
</g>
<!-- dir_ffcbf95d031adc90ee804c18194151ef&#45;&gt;dir_d44c64559bbebec7f509842c48db8b23 -->
<g id="edge5" class="edge">
<title>dir_ffcbf95d031adc90ee804c18194151ef&#45;&gt;dir_d44c64559bbebec7f509842c48db8b23</title>
<path fill="none" stroke="black" d="M275.9,-71.7C280,-63.73 284.95,-54.1 289.49,-45.26"/>
<polygon fill="black" stroke="black" points="292.74,-46.6 294.2,-36.1 286.52,-43.4 292.74,-46.6"/>
<g id="a_edge5&#45;headlabel"><a xlink:href="dir_000032_000000.html" target="_top" xlink:title="2">
<text text-anchor="middle" x="293.62" y="-48.59" font-family="Helvetica,sans-Serif" font-size="10.00">2</text>
</a>
</g>
</g>
<!-- dir_fdf8c8197fb2b108e76f91e9c64c7668 -->
<g id="node7" class="node">
<title>dir_fdf8c8197fb2b108e76f91e9c64c7668</title>
<g id="a_node7"><a xlink:href="dir_fdf8c8197fb2b108e76f91e9c64c7668.html" target="_top" xlink:title="input">
<polygon fill="white" stroke="black" points="222,-108 168,-108 168,-72 222,-72 222,-108"/>
<text text-anchor="middle" x="195" y="-87.5" font-family="Helvetica,sans-Serif" font-size="10.00">input</text>
</a>
</g>
</g>
<!-- dir_fdf8c8197fb2b108e76f91e9c64c7668&#45;&gt;dir_d44c64559bbebec7f509842c48db8b23 -->
<g id="edge4" class="edge">
<title>dir_fdf8c8197fb2b108e76f91e9c64c7668&#45;&gt;dir_d44c64559bbebec7f509842c48db8b23</title>
<path fill="none" stroke="black" d="M211.78,-71.89C217.59,-66.46 224.32,-60.65 231,-56 242.01,-48.33 254.82,-41.24 266.56,-35.35"/>
<polygon fill="black" stroke="black" points="268.23,-38.43 275.69,-30.91 265.17,-32.14 268.23,-38.43"/>
<g id="a_edge4&#45;headlabel"><a xlink:href="dir_000033_000000.html" target="_top" xlink:title="3">
<text text-anchor="middle" x="266.24" y="-40.06" font-family="Helvetica,sans-Serif" font-size="10.00">3</text>
</a>
</g>
</g>
<!-- dir_32b55e062565a2c909b8b2e0187386b7 -->
<g id="node8" class="node">
<title>dir_32b55e062565a2c909b8b2e0187386b7</title>
<g id="a_node8"><a xlink:href="dir_32b55e062565a2c909b8b2e0187386b7.html" target="_top" xlink:title="logging">
<polygon fill="white" stroke="black" points="150,-108 96,-108 96,-72 150,-72 150,-108"/>
<text text-anchor="middle" x="123" y="-87.5" font-family="Helvetica,sans-Serif" font-size="10.00">logging</text>
</a>
</g>
</g>
<!-- dir_32b55e062565a2c909b8b2e0187386b7&#45;&gt;dir_d44c64559bbebec7f509842c48db8b23 -->
<g id="edge8" class="edge">
<title>dir_32b55e062565a2c909b8b2e0187386b7&#45;&gt;dir_d44c64559bbebec7f509842c48db8b23</title>
<path fill="none" stroke="black" d="M138.51,-71.67C144.42,-65.96 151.55,-60.04 159,-56 192.6,-37.79 235.49,-28.27 265.7,-23.47"/>
<polygon fill="black" stroke="black" points="266.44,-26.9 275.82,-21.97 265.41,-19.98 266.44,-26.9"/>
<g id="a_edge8&#45;headlabel"><a xlink:href="dir_000034_000000.html" target="_top" xlink:title="2">
<text text-anchor="middle" x="263.3" y="-27.74" font-family="Helvetica,sans-Serif" font-size="10.00">2</text>
</a>
</g>
</g>
<!-- dir_af176acb99236d4e8929cae3c60b6aa3 -->
<g id="node9" class="node">
<title>dir_af176acb99236d4e8929cae3c60b6aa3</title>
<g id="a_node9"><a xlink:href="dir_af176acb99236d4e8929cae3c60b6aa3.html" target="_top" xlink:title="scene">
<polygon fill="white" stroke="black" points="78,-108 24,-108 24,-72 78,-72 78,-108"/>
<text text-anchor="middle" x="51" y="-87.5" font-family="Helvetica,sans-Serif" font-size="10.00">scene</text>
</a>
</g>
</g>
<!-- dir_af176acb99236d4e8929cae3c60b6aa3&#45;&gt;dir_d44c64559bbebec7f509842c48db8b23 -->
<g id="edge7" class="edge">
<title>dir_af176acb99236d4e8929cae3c60b6aa3&#45;&gt;dir_d44c64559bbebec7f509842c48db8b23</title>
<path fill="none" stroke="black" d="M65.98,-71.67C71.94,-65.82 79.23,-59.81 87,-56 145.03,-27.55 221.16,-20.57 265.82,-19.09"/>
<polygon fill="black" stroke="black" points="266.02,-22.58 275.92,-18.83 265.84,-15.58 266.02,-22.58"/>
<g id="a_edge7&#45;headlabel"><a xlink:href="dir_000035_000000.html" target="_top" xlink:title="4">
<text text-anchor="middle" x="262.5" y="-23.01" font-family="Helvetica,sans-Serif" font-size="10.00">4</text>
</a>
</g>
</g>
</g>
</svg>
