<?xml version="1.0" encoding="UTF-8" standalone="no"?>
<!DOCTYPE svg PUBLIC "-//W3C//DTD SVG 1.1//EN"
 "http://www.w3.org/Graphics/SVG/1.1/DTD/svg11.dtd">
<!-- Generated by graphviz version 2.46.1 (20210215.1649)
 -->
<!-- Title: src/services/display/DisplayService.cpp Pages: 1 -->
<svg width="2075pt" height="386pt"
 viewBox="0.00 0.00 2075.00 386.00" xmlns="http://www.w3.org/2000/svg" xmlns:xlink="http://www.w3.org/1999/xlink">
<g id="graph0" class="graph" transform="scale(1 1) rotate(0) translate(4 382)">
<title>src/services/display/DisplayService.cpp</title>
<polygon fill="white" stroke="transparent" points="-4,4 -4,-382 2071,-382 2071,4 -4,4"/>
<!-- Node1 -->
<g id="node1" class="node">
<title>Node1</title>
<g id="a_node1"><a xlink:title="Implementation of DisplayService.">
<polygon fill="#bfbfbf" stroke="black" points="1010.5,-347.5 1010.5,-377.5 1113.5,-377.5 1113.5,-347.5 1010.5,-347.5"/>
<text text-anchor="start" x="1018.5" y="-365.5" font-family="Helvetica,sans-Serif" font-size="10.00">src/services/display</text>
<text text-anchor="middle" x="1062" y="-354.5" font-family="Helvetica,sans-Serif" font-size="10.00">/DisplayService.cpp</text>
</a>
</g>
</g>
<!-- Node2 -->
<g id="node2" class="node">
<title>Node2</title>
<g id="a_node2"><a xlink:href="DisplayService_8h.html" target="_top" xlink:title="Service that encapsulates SDL display related functionality.">
<polygon fill="white" stroke="black" points="1700.5,-168.5 1700.5,-198.5 1821.5,-198.5 1821.5,-168.5 1700.5,-168.5"/>
<text text-anchor="start" x="1708.5" y="-186.5" font-family="Helvetica,sans-Serif" font-size="10.00">services/display/Display</text>
<text text-anchor="middle" x="1761" y="-175.5" font-family="Helvetica,sans-Serif" font-size="10.00">Service.h</text>
</a>
</g>
</g>
<!-- Node1&#45;&gt;Node2 -->
<g id="edge1" class="edge">
<title>Node1&#45;&gt;Node2</title>
<path fill="none" stroke="midnightblue" d="M1113.68,-348.41C1238.63,-316.77 1556.94,-236.17 1695.22,-201.16"/>
<polygon fill="midnightblue" stroke="midnightblue" points="1696.42,-204.46 1705.25,-198.62 1694.7,-197.68 1696.42,-204.46"/>
</g>
<!-- Node5 -->
<g id="node5" class="node">
<title>Node5</title>
<g id="a_node5"><a xlink:href="Color_8h.html" target="_top" xlink:title="Helpers for creating colors without accessing SDL api directly.">
<polygon fill="white" stroke="black" points="1955,-56.5 1955,-75.5 2041,-75.5 2041,-56.5 1955,-56.5"/>
<text text-anchor="middle" x="1998" y="-63.5" font-family="Helvetica,sans-Serif" font-size="10.00">../../color/Color.h</text>
</a>
</g>
</g>
<!-- Node1&#45;&gt;Node5 -->
<g id="edge77" class="edge">
<title>Node1&#45;&gt;Node5</title>
<path fill="none" stroke="midnightblue" d="M1113.68,-360.86C1315.04,-357.68 2036,-339.76 2036,-246 2036,-246 2036,-246 2036,-182.5 2036,-146.25 2018.91,-106.67 2007.65,-84.53"/>
<polygon fill="midnightblue" stroke="midnightblue" points="2010.73,-82.87 2002.97,-75.66 2004.54,-86.14 2010.73,-82.87"/>
</g>
<!-- Node9 -->
<g id="node9" class="node">
<title>Node9</title>
<g id="a_node9"><a xlink:title=" ">
<polygon fill="white" stroke="#bfbfbf" points="970.5,-291.5 970.5,-310.5 1073.5,-310.5 1073.5,-291.5 970.5,-291.5"/>
<text text-anchor="middle" x="1022" y="-298.5" font-family="Helvetica,sans-Serif" font-size="10.00">SDL2/SDL_image.h</text>
</a>
</g>
</g>
<!-- Node1&#45;&gt;Node9 -->
<g id="edge9" class="edge">
<title>Node1&#45;&gt;Node9</title>
<path fill="none" stroke="midnightblue" d="M1052.52,-347.4C1046.83,-338.93 1039.55,-328.1 1033.52,-319.14"/>
<polygon fill="midnightblue" stroke="midnightblue" points="1036.3,-317 1027.82,-310.66 1030.49,-320.91 1036.3,-317"/>
</g>
<!-- Node10 -->
<g id="node10" class="node">
<title>Node10</title>
<g id="a_node10"><a xlink:href="Exceptions_8h.html" target="_top" xlink:title="Interally used exceptions. These can be handled properly in the main game class.">
<polygon fill="white" stroke="black" points="386,-235.5 386,-254.5 498,-254.5 498,-235.5 386,-235.5"/>
<text text-anchor="middle" x="442" y="-242.5" font-family="Helvetica,sans-Serif" font-size="10.00">common/Exceptions.h</text>
</a>
</g>
</g>
<!-- Node1&#45;&gt;Node10 -->
<g id="edge10" class="edge">
<title>Node1&#45;&gt;Node10</title>
<path fill="none" stroke="midnightblue" d="M1010.2,-356.39C938.36,-348.86 804.58,-333.24 692,-311 616.01,-295.99 528.76,-271.65 480.04,-257.4"/>
<polygon fill="midnightblue" stroke="midnightblue" points="480.82,-253.98 470.24,-254.52 478.85,-260.7 480.82,-253.98"/>
</g>
<!-- Node12 -->
<g id="node12" class="node">
<title>Node12</title>
<g id="a_node12"><a xlink:href="Scene_8h.html" target="_top" xlink:title="Parent scene class. Children can be added to scene manager.">
<polygon fill="white" stroke="black" points="701.5,-291.5 701.5,-310.5 782.5,-310.5 782.5,-291.5 701.5,-291.5"/>
<text text-anchor="middle" x="742" y="-298.5" font-family="Helvetica,sans-Serif" font-size="10.00">scene/Scene.h</text>
</a>
</g>
</g>
<!-- Node1&#45;&gt;Node12 -->
<g id="edge13" class="edge">
<title>Node1&#45;&gt;Node12</title>
<path fill="none" stroke="midnightblue" d="M1010.23,-351.87C950.2,-340.71 851.91,-322.44 792.44,-311.38"/>
<polygon fill="midnightblue" stroke="midnightblue" points="793,-307.92 782.53,-309.54 791.72,-314.81 793,-307.92"/>
</g>
<!-- Node18 -->
<g id="node18" class="node">
<title>Node18</title>
<g id="a_node18"><a xlink:href="Services_8h.html" target="_top" xlink:title="Implementation of core Services class.">
<polygon fill="white" stroke="black" points="1047,-235.5 1047,-254.5 1157,-254.5 1157,-235.5 1047,-235.5"/>
<text text-anchor="middle" x="1102" y="-242.5" font-family="Helvetica,sans-Serif" font-size="10.00">../services/Services.h</text>
</a>
</g>
</g>
<!-- Node1&#45;&gt;Node18 -->
<g id="edge78" class="edge">
<title>Node1&#45;&gt;Node18</title>
<path fill="none" stroke="midnightblue" d="M1067.9,-347.46C1072.05,-337.39 1077.62,-323.46 1082,-311 1087.44,-295.51 1092.87,-277.67 1096.7,-264.6"/>
<polygon fill="midnightblue" stroke="midnightblue" points="1100.09,-265.48 1099.5,-254.9 1093.36,-263.54 1100.09,-265.48"/>
</g>
<!-- Node3 -->
<g id="node3" class="node">
<title>Node3</title>
<g id="a_node3"><a xlink:title=" ">
<polygon fill="white" stroke="#bfbfbf" points="1265.5,-56.5 1265.5,-75.5 1336.5,-75.5 1336.5,-56.5 1265.5,-56.5"/>
<text text-anchor="middle" x="1301" y="-63.5" font-family="Helvetica,sans-Serif" font-size="10.00">SDL2/SDL.h</text>
</a>
</g>
</g>
<!-- Node2&#45;&gt;Node3 -->
<g id="edge2" class="edge">
<title>Node2&#45;&gt;Node3</title>
<path fill="none" stroke="midnightblue" d="M1791.78,-168.37C1818.25,-154.36 1849.5,-132.13 1831,-112 1814.69,-94.24 1472.15,-75.51 1346.6,-69.21"/>
<polygon fill="midnightblue" stroke="midnightblue" points="1346.7,-65.71 1336.54,-68.71 1346.35,-72.7 1346.7,-65.71"/>
</g>
<!-- Node4 -->
<g id="node4" class="node">
<title>Node4</title>
<g id="a_node4"><a xlink:title=" ">
<polygon fill="white" stroke="#bfbfbf" points="1134.5,-56.5 1134.5,-75.5 1175.5,-75.5 1175.5,-56.5 1134.5,-56.5"/>
<text text-anchor="middle" x="1155" y="-63.5" font-family="Helvetica,sans-Serif" font-size="10.00">string</text>
</a>
</g>
</g>
<!-- Node2&#45;&gt;Node4 -->
<g id="edge3" class="edge">
<title>Node2&#45;&gt;Node4</title>
<path fill="none" stroke="midnightblue" d="M1748.27,-168.46C1732.12,-151.72 1702.58,-124.45 1671,-112 1584.88,-78.05 1348.21,-84.11 1256,-76 1232.36,-73.92 1205.62,-71.54 1185.59,-69.74"/>
<polygon fill="midnightblue" stroke="midnightblue" points="1185.78,-66.25 1175.5,-68.84 1185.15,-73.22 1185.78,-66.25"/>
</g>
<!-- Node2&#45;&gt;Node5 -->
<g id="edge4" class="edge">
<title>Node2&#45;&gt;Node5</title>
<path fill="none" stroke="midnightblue" d="M1821.51,-175.38C1877.89,-167.55 1956.55,-153.21 1979,-132 1991.54,-120.15 1995.95,-100.52 1997.43,-85.93"/>
<polygon fill="midnightblue" stroke="midnightblue" points="2000.94,-85.75 1998.08,-75.55 1993.96,-85.31 2000.94,-85.75"/>
</g>
<!-- Node7 -->
<g id="node7" class="node">
<title>Node7</title>
<g id="a_node7"><a xlink:href="Service_8h.html" target="_top" xlink:title="Service subscriber that can listen for events.">
<polygon fill="white" stroke="black" points="856.5,-112.5 856.5,-131.5 921.5,-131.5 921.5,-112.5 856.5,-112.5"/>
<text text-anchor="middle" x="889" y="-119.5" font-family="Helvetica,sans-Serif" font-size="10.00">../Service.h</text>
</a>
</g>
</g>
<!-- Node2&#45;&gt;Node7 -->
<g id="edge6" class="edge">
<title>Node2&#45;&gt;Node7</title>
<path fill="none" stroke="midnightblue" d="M1700.14,-169.17C1697.39,-168.74 1694.67,-168.34 1692,-168 1372.92,-126.79 1289.68,-158 969,-132 956.93,-131.02 943.87,-129.67 931.87,-128.32"/>
<polygon fill="midnightblue" stroke="midnightblue" points="931.99,-124.81 921.65,-127.14 931.18,-131.76 931.99,-124.81"/>
</g>
<!-- Node6 -->
<g id="node6" class="node">
<title>Node6</title>
<g id="a_node6"><a xlink:title=" ">
<polygon fill="white" stroke="#bfbfbf" points="1929,-0.5 1929,-19.5 2067,-19.5 2067,-0.5 1929,-0.5"/>
<text text-anchor="middle" x="1998" y="-7.5" font-family="Helvetica,sans-Serif" font-size="10.00">SDL2/SDL2_gfxPrimitives.h</text>
</a>
</g>
</g>
<!-- Node5&#45;&gt;Node6 -->
<g id="edge5" class="edge">
<title>Node5&#45;&gt;Node6</title>
<path fill="none" stroke="midnightblue" d="M1998,-56.08C1998,-49.01 1998,-38.86 1998,-29.99"/>
<polygon fill="midnightblue" stroke="midnightblue" points="2001.5,-29.75 1998,-19.75 1994.5,-29.75 2001.5,-29.75"/>
</g>
<!-- Node7&#45;&gt;Node4 -->
<g id="edge8" class="edge">
<title>Node7&#45;&gt;Node4</title>
<path fill="none" stroke="midnightblue" d="M921.62,-114.38C973.42,-103.86 1073.81,-83.48 1124.36,-73.22"/>
<polygon fill="midnightblue" stroke="midnightblue" points="1125.25,-76.61 1134.35,-71.19 1123.85,-69.75 1125.25,-76.61"/>
</g>
<!-- Node8 -->
<g id="node8" class="node">
<title>Node8</title>
<g id="a_node8"><a xlink:title=" ">
<polygon fill="white" stroke="#bfbfbf" points="124,-56.5 124,-75.5 230,-75.5 230,-56.5 124,-56.5"/>
<text text-anchor="middle" x="177" y="-63.5" font-family="Helvetica,sans-Serif" font-size="10.00">SDL2/SDL_events.h</text>
</a>
</g>
</g>
<!-- Node7&#45;&gt;Node8 -->
<g id="edge7" class="edge">
<title>Node7&#45;&gt;Node8</title>
<path fill="none" stroke="midnightblue" d="M856.29,-116.34C844.55,-114.79 831.2,-113.16 819,-112 565.15,-87.83 497.61,-102.2 240.09,-76.03"/>
<polygon fill="midnightblue" stroke="midnightblue" points="240.37,-72.54 230.06,-75 239.65,-79.5 240.37,-72.54"/>
</g>
<!-- Node10&#45;&gt;Node4 -->
<g id="edge12" class="edge">
<title>Node10&#45;&gt;Node4</title>
<path fill="none" stroke="midnightblue" d="M437.12,-235.37C432.44,-226.55 425.69,-212.3 423,-199 415.15,-160.21 410.57,-136.06 442,-112 496.78,-70.06 994.92,-67.03 1124.37,-66.96"/>
<polygon fill="midnightblue" stroke="midnightblue" points="1124.4,-70.46 1134.4,-66.96 1124.4,-63.46 1124.4,-70.46"/>
</g>
<!-- Node11 -->
<g id="node11" class="node">
<title>Node11</title>
<g id="a_node11"><a xlink:title=" ">
<polygon fill="white" stroke="#bfbfbf" points="316.5,-174 316.5,-193 375.5,-193 375.5,-174 316.5,-174"/>
<text text-anchor="middle" x="346" y="-181" font-family="Helvetica,sans-Serif" font-size="10.00">stdexcept</text>
</a>
</g>
</g>
<!-- Node10&#45;&gt;Node11 -->
<g id="edge11" class="edge">
<title>Node10&#45;&gt;Node11</title>
<path fill="none" stroke="midnightblue" d="M428.25,-235.48C412.63,-225.8 386.94,-209.87 368.42,-198.39"/>
<polygon fill="midnightblue" stroke="midnightblue" points="370.07,-195.3 359.73,-193.01 366.38,-201.25 370.07,-195.3"/>
</g>
<!-- Node12&#45;&gt;Node4 -->
<g id="edge16" class="edge">
<title>Node12&#45;&gt;Node4</title>
<path fill="none" stroke="midnightblue" d="M713.89,-291.43C658.52,-273.05 543.93,-226.68 583,-168 643.79,-76.72 1014.2,-67.64 1124.21,-66.97"/>
<polygon fill="midnightblue" stroke="midnightblue" points="1124.33,-70.47 1134.32,-66.93 1124.3,-63.47 1124.33,-70.47"/>
</g>
<!-- Node12&#45;&gt;Node10 -->
<g id="edge19" class="edge">
<title>Node12&#45;&gt;Node10</title>
<path fill="none" stroke="midnightblue" d="M701.23,-292.66C649.06,-283.27 558.38,-266.95 499.28,-256.31"/>
<polygon fill="midnightblue" stroke="midnightblue" points="499.82,-252.85 489.36,-254.52 498.58,-259.74 499.82,-252.85"/>
</g>
<!-- Node13 -->
<g id="node13" class="node">
<title>Node13</title>
<g id="a_node13"><a xlink:title=" ">
<polygon fill="white" stroke="#bfbfbf" points="1310.5,-112.5 1310.5,-131.5 1345.5,-131.5 1345.5,-112.5 1310.5,-112.5"/>
<text text-anchor="middle" x="1328" y="-119.5" font-family="Helvetica,sans-Serif" font-size="10.00">map</text>
</a>
</g>
</g>
<!-- Node12&#45;&gt;Node13 -->
<g id="edge14" class="edge">
<title>Node12&#45;&gt;Node13</title>
<path fill="none" stroke="midnightblue" d="M782.93,-296.86C919.93,-285.94 1355.92,-247.56 1394,-199 1402.5,-188.16 1400.44,-180.18 1394,-168 1389.41,-159.31 1369.67,-146.45 1352.96,-136.7"/>
<polygon fill="midnightblue" stroke="midnightblue" points="1354.53,-133.56 1344.11,-131.65 1351.06,-139.64 1354.53,-133.56"/>
</g>
<!-- Node14 -->
<g id="node14" class="node">
<title>Node14</title>
<g id="a_node14"><a xlink:title=" ">
<polygon fill="white" stroke="#bfbfbf" points="770.5,-174 770.5,-193 821.5,-193 821.5,-174 770.5,-174"/>
<text text-anchor="middle" x="796" y="-181" font-family="Helvetica,sans-Serif" font-size="10.00">memory</text>
</a>
</g>
</g>
<!-- Node12&#45;&gt;Node14 -->
<g id="edge15" class="edge">
<title>Node12&#45;&gt;Node14</title>
<path fill="none" stroke="midnightblue" d="M746.06,-291.32C754.85,-272.51 775.83,-227.65 787.61,-202.46"/>
<polygon fill="midnightblue" stroke="midnightblue" points="790.83,-203.82 791.89,-193.28 784.49,-200.86 790.83,-203.82"/>
</g>
<!-- Node15 -->
<g id="node15" class="node">
<title>Node15</title>
<g id="a_node15"><a xlink:title=" ">
<polygon fill="white" stroke="#bfbfbf" points="674.5,-235.5 674.5,-254.5 713.5,-254.5 713.5,-235.5 674.5,-235.5"/>
<text text-anchor="middle" x="694" y="-242.5" font-family="Helvetica,sans-Serif" font-size="10.00">utility</text>
</a>
</g>
</g>
<!-- Node12&#45;&gt;Node15 -->
<g id="edge17" class="edge">
<title>Node12&#45;&gt;Node15</title>
<path fill="none" stroke="midnightblue" d="M734.07,-291.08C727.15,-283.3 716.93,-271.8 708.55,-262.37"/>
<polygon fill="midnightblue" stroke="midnightblue" points="711.04,-259.9 701.78,-254.75 705.81,-264.55 711.04,-259.9"/>
</g>
<!-- Node16 -->
<g id="node16" class="node">
<title>Node16</title>
<g id="a_node16"><a xlink:title=" ">
<polygon fill="white" stroke="#bfbfbf" points="766,-112.5 766,-131.5 810,-131.5 810,-112.5 766,-112.5"/>
<text text-anchor="middle" x="788" y="-119.5" font-family="Helvetica,sans-Serif" font-size="10.00">vector</text>
</a>
</g>
</g>
<!-- Node12&#45;&gt;Node16 -->
<g id="edge18" class="edge">
<title>Node12&#45;&gt;Node16</title>
<path fill="none" stroke="midnightblue" d="M742.07,-291.38C742.51,-269.9 745.17,-212.5 761,-168 764.47,-158.25 770.17,-148.3 775.45,-140.24"/>
<polygon fill="midnightblue" stroke="midnightblue" points="778.49,-141.99 781.28,-131.77 772.72,-138.02 778.49,-141.99"/>
</g>
<!-- Node17 -->
<g id="node17" class="node">
<title>Node17</title>
<g id="a_node17"><a xlink:href="GameObject_8h.html" target="_top" xlink:title="Implementation of GameObject class.">
<polygon fill="white" stroke="black" points="592.5,-174 592.5,-193 713.5,-193 713.5,-174 592.5,-174"/>
<text text-anchor="middle" x="653" y="-181" font-family="Helvetica,sans-Serif" font-size="10.00">../entities/GameObject.h</text>
</a>
</g>
</g>
<!-- Node12&#45;&gt;Node17 -->
<g id="edge20" class="edge">
<title>Node12&#45;&gt;Node17</title>
<path fill="none" stroke="midnightblue" d="M716.12,-291.48C698.89,-284.44 677.25,-272.7 665,-255 654.53,-239.87 652.16,-218.62 652.02,-203.42"/>
<polygon fill="midnightblue" stroke="midnightblue" points="655.53,-203.25 652.25,-193.17 648.53,-203.09 655.53,-203.25"/>
</g>
<!-- Node12&#45;&gt;Node18 -->
<g id="edge24" class="edge">
<title>Node12&#45;&gt;Node18</title>
<path fill="none" stroke="midnightblue" d="M782.6,-293.91C844.42,-284.64 962.76,-266.89 1036.75,-255.79"/>
<polygon fill="midnightblue" stroke="midnightblue" points="1037.51,-259.21 1046.88,-254.27 1036.47,-252.29 1037.51,-259.21"/>
</g>
<!-- Node17&#45;&gt;Node3 -->
<g id="edge21" class="edge">
<title>Node17&#45;&gt;Node3</title>
<path fill="none" stroke="midnightblue" d="M713.52,-174.15C728.99,-172.08 745.6,-169.9 761,-168 902.16,-150.54 939.56,-160.09 1079,-132 1088.16,-130.15 1201.37,-96.63 1262.47,-78.47"/>
<polygon fill="midnightblue" stroke="midnightblue" points="1263.58,-81.79 1272.16,-75.59 1261.58,-75.08 1263.58,-81.79"/>
</g>
<!-- Node17&#45;&gt;Node4 -->
<g id="edge22" class="edge">
<title>Node17&#45;&gt;Node4</title>
<path fill="none" stroke="midnightblue" d="M662.15,-173.97C679.26,-158.58 717.92,-126.45 757,-112 824.41,-87.07 1042.47,-73.06 1123.93,-68.59"/>
<polygon fill="midnightblue" stroke="midnightblue" points="1124.25,-72.08 1134.05,-68.04 1123.87,-65.09 1124.25,-72.08"/>
</g>
<!-- Node17&#45;&gt;Node16 -->
<g id="edge23" class="edge">
<title>Node17&#45;&gt;Node16</title>
<path fill="none" stroke="midnightblue" d="M672.34,-173.98C695.1,-163.95 733.09,-147.2 759.29,-135.65"/>
<polygon fill="midnightblue" stroke="midnightblue" points="760.95,-138.74 768.69,-131.51 758.13,-132.34 760.95,-138.74"/>
</g>
<!-- Node18&#45;&gt;Node2 -->
<g id="edge51" class="edge">
<title>Node18&#45;&gt;Node2</title>
<path fill="none" stroke="midnightblue" d="M1157.17,-242.2C1260.14,-238.33 1488.73,-227.25 1690.31,-199.12"/>
<polygon fill="midnightblue" stroke="midnightblue" points="1691.09,-202.55 1700.5,-197.68 1690.11,-195.62 1691.09,-202.55"/>
</g>
<!-- Node18&#45;&gt;Node14 -->
<g id="edge25" class="edge">
<title>Node18&#45;&gt;Node14</title>
<path fill="none" stroke="midnightblue" d="M1046.95,-238.59C991.61,-232.28 904.25,-219.96 831,-199 828.71,-198.34 826.36,-197.58 824.02,-196.76"/>
<polygon fill="midnightblue" stroke="midnightblue" points="825.2,-193.46 814.61,-193.13 822.68,-199.99 825.2,-193.46"/>
</g>
<!-- Node19 -->
<g id="node19" class="node">
<title>Node19</title>
<g id="a_node19"><a xlink:href="AssetService_8h.html" target="_top" xlink:title="Implementation of AssetService.">
<polygon fill="white" stroke="black" points="1567.5,-174 1567.5,-193 1682.5,-193 1682.5,-174 1567.5,-174"/>
<text text-anchor="middle" x="1625" y="-181" font-family="Helvetica,sans-Serif" font-size="10.00">assets/AssetService.h</text>
</a>
</g>
</g>
<!-- Node18&#45;&gt;Node19 -->
<g id="edge26" class="edge">
<title>Node18&#45;&gt;Node19</title>
<path fill="none" stroke="midnightblue" d="M1157.01,-240.62C1242.96,-234.87 1414.18,-221.58 1558,-199 1564.87,-197.92 1572.1,-196.58 1579.16,-195.15"/>
<polygon fill="midnightblue" stroke="midnightblue" points="1580.26,-198.5 1589.33,-193.01 1578.82,-191.64 1580.26,-198.5"/>
</g>
<!-- Node26 -->
<g id="node26" class="node">
<title>Node26</title>
<g id="a_node26"><a xlink:href="AudioService_8h.html" target="_top" xlink:title="Default audio service, can actually play audio.">
<polygon fill="white" stroke="black" points="1441,-174 1441,-193 1549,-193 1549,-174 1441,-174"/>
<text text-anchor="middle" x="1495" y="-181" font-family="Helvetica,sans-Serif" font-size="10.00">audio/AudioService.h</text>
</a>
</g>
</g>
<!-- Node18&#45;&gt;Node26 -->
<g id="edge43" class="edge">
<title>Node18&#45;&gt;Node26</title>
<path fill="none" stroke="midnightblue" d="M1157.06,-235.66C1229.03,-224.77 1354.86,-205.72 1431,-194.19"/>
<polygon fill="midnightblue" stroke="midnightblue" points="1431.58,-197.64 1440.94,-192.68 1430.53,-190.72 1431.58,-197.64"/>
</g>
<!-- Node27 -->
<g id="node27" class="node">
<title>Node27</title>
<g id="a_node27"><a xlink:href="ConfigService_8h.html" target="_top" xlink:title="Header for default Config Service.">
<polygon fill="white" stroke="black" points="1271.5,-174 1271.5,-193 1384.5,-193 1384.5,-174 1271.5,-174"/>
<text text-anchor="middle" x="1328" y="-181" font-family="Helvetica,sans-Serif" font-size="10.00">config/ConfigService.h</text>
</a>
</g>
</g>
<!-- Node18&#45;&gt;Node27 -->
<g id="edge47" class="edge">
<title>Node18&#45;&gt;Node27</title>
<path fill="none" stroke="midnightblue" d="M1134.38,-235.48C1174.24,-224.98 1242.02,-207.14 1285.89,-195.59"/>
<polygon fill="midnightblue" stroke="midnightblue" points="1286.9,-198.94 1295.68,-193.01 1285.12,-192.17 1286.9,-198.94"/>
</g>
<!-- Node29 -->
<g id="node29" class="node">
<title>Node29</title>
<g id="a_node29"><a xlink:href="EventQueue_8h.html" target="_top" xlink:title="Handles SDL_Events from main SDL_Queue. Can be hooked into by other services and notified when change...">
<polygon fill="white" stroke="black" points="972,-174 972,-193 1082,-193 1082,-174 972,-174"/>
<text text-anchor="middle" x="1027" y="-181" font-family="Helvetica,sans-Serif" font-size="10.00">events/EventQueue.h</text>
</a>
</g>
</g>
<!-- Node18&#45;&gt;Node29 -->
<g id="edge52" class="edge">
<title>Node18&#45;&gt;Node29</title>
<path fill="none" stroke="midnightblue" d="M1091.25,-235.48C1079.45,-226.11 1060.26,-210.88 1045.92,-199.51"/>
<polygon fill="midnightblue" stroke="midnightblue" points="1047.74,-196.48 1037.73,-193.01 1043.38,-201.97 1047.74,-196.48"/>
</g>
<!-- Node30 -->
<g id="node30" class="node">
<title>Node30</title>
<g id="a_node30"><a xlink:href="InputService_8h.html" target="_top" xlink:title="General Purpose input listener. Handles Mouse, Keyboard, Joystick.">
<polygon fill="white" stroke="black" points="432.5,-174 432.5,-193 535.5,-193 535.5,-174 432.5,-174"/>
<text text-anchor="middle" x="484" y="-181" font-family="Helvetica,sans-Serif" font-size="10.00">input/InputService.h</text>
</a>
</g>
</g>
<!-- Node18&#45;&gt;Node30 -->
<g id="edge56" class="edge">
<title>Node18&#45;&gt;Node30</title>
<path fill="none" stroke="midnightblue" d="M1046.97,-240.3C952.09,-233.68 751.66,-218.65 583,-199 570.94,-197.59 558.08,-195.88 545.76,-194.12"/>
<polygon fill="midnightblue" stroke="midnightblue" points="545.96,-190.61 535.56,-192.64 544.96,-197.54 545.96,-190.61"/>
</g>
<!-- Node38 -->
<g id="node38" class="node">
<title>Node38</title>
<g id="a_node38"><a xlink:href="DebugLoggingService_8h.html" target="_top" xlink:title="Logging service that does the logging. Used for development.">
<polygon fill="white" stroke="black" points="1100.5,-174 1100.5,-193 1253.5,-193 1253.5,-174 1100.5,-174"/>
<text text-anchor="middle" x="1177" y="-181" font-family="Helvetica,sans-Serif" font-size="10.00">logging/DebugLoggingService.h</text>
</a>
</g>
</g>
<!-- Node18&#45;&gt;Node38 -->
<g id="edge69" class="edge">
<title>Node18&#45;&gt;Node38</title>
<path fill="none" stroke="midnightblue" d="M1112.75,-235.48C1124.55,-226.11 1143.74,-210.88 1158.08,-199.51"/>
<polygon fill="midnightblue" stroke="midnightblue" points="1160.62,-201.97 1166.27,-193.01 1156.26,-196.48 1160.62,-201.97"/>
</g>
<!-- Node40 -->
<g id="node40" class="node">
<title>Node40</title>
<g id="a_node40"><a xlink:href="SceneService_8h.html" target="_top" xlink:title="Service in charge of managing scenes.">
<polygon fill="white" stroke="black" points="840,-174 840,-193 954,-193 954,-174 840,-174"/>
<text text-anchor="middle" x="897" y="-181" font-family="Helvetica,sans-Serif" font-size="10.00">scene/SceneService.h</text>
</a>
</g>
</g>
<!-- Node18&#45;&gt;Node40 -->
<g id="edge73" class="edge">
<title>Node18&#45;&gt;Node40</title>
<path fill="none" stroke="midnightblue" d="M1072.63,-235.48C1036.7,-225.05 975.77,-207.36 935.96,-195.81"/>
<polygon fill="midnightblue" stroke="midnightblue" points="936.9,-192.44 926.32,-193.01 934.95,-199.16 936.9,-192.44"/>
</g>
<!-- Node19&#45;&gt;Node4 -->
<g id="edge28" class="edge">
<title>Node19&#45;&gt;Node4</title>
<path fill="none" stroke="midnightblue" d="M1613.15,-173.94C1589.28,-156.87 1535.9,-119.56 1515,-112 1484.32,-100.9 1267.48,-78.29 1185.92,-70.07"/>
<polygon fill="midnightblue" stroke="midnightblue" points="1186.08,-66.57 1175.78,-69.05 1185.38,-73.54 1186.08,-66.57"/>
</g>
<!-- Node19&#45;&gt;Node13 -->
<g id="edge27" class="edge">
<title>Node19&#45;&gt;Node13</title>
<path fill="none" stroke="midnightblue" d="M1586.06,-173.93C1576.86,-171.95 1567.09,-169.87 1558,-168 1485.08,-152.98 1398.89,-136.44 1355.66,-128.23"/>
<polygon fill="midnightblue" stroke="midnightblue" points="1356.1,-124.75 1345.63,-126.32 1354.8,-131.63 1356.1,-124.75"/>
</g>
<!-- Node20 -->
<g id="node20" class="node">
<title>Node20</title>
<g id="a_node20"><a xlink:href="Font_8h.html" target="_top" xlink:title="Easy interface to interact with SDL fonts.">
<polygon fill="white" stroke="black" points="1878.5,-112.5 1878.5,-131.5 1969.5,-131.5 1969.5,-112.5 1878.5,-112.5"/>
<text text-anchor="middle" x="1924" y="-119.5" font-family="Helvetica,sans-Serif" font-size="10.00">../../assets/Font.h</text>
</a>
</g>
</g>
<!-- Node19&#45;&gt;Node20 -->
<g id="edge29" class="edge">
<title>Node19&#45;&gt;Node20</title>
<path fill="none" stroke="midnightblue" d="M1663.94,-173.92C1673.13,-171.94 1682.91,-169.87 1692,-168 1752.28,-155.63 1821.57,-142.31 1868.61,-133.4"/>
<polygon fill="midnightblue" stroke="midnightblue" points="1869.42,-136.8 1878.6,-131.51 1868.12,-129.93 1869.42,-136.8"/>
</g>
<!-- Node22 -->
<g id="node22" class="node">
<title>Node22</title>
<g id="a_node22"><a xlink:href="Sound_8h.html" target="_top" xlink:title="Implementation of Sound.">
<polygon fill="white" stroke="black" points="1562.5,-112.5 1562.5,-131.5 1661.5,-131.5 1661.5,-112.5 1562.5,-112.5"/>
<text text-anchor="middle" x="1612" y="-119.5" font-family="Helvetica,sans-Serif" font-size="10.00">../../assets/Sound.h</text>
</a>
</g>
</g>
<!-- Node19&#45;&gt;Node22 -->
<g id="edge33" class="edge">
<title>Node19&#45;&gt;Node22</title>
<path fill="none" stroke="midnightblue" d="M1623.14,-173.98C1621.28,-165.49 1618.38,-152.2 1616,-141.32"/>
<polygon fill="midnightblue" stroke="midnightblue" points="1619.41,-140.53 1613.86,-131.51 1612.57,-142.03 1619.41,-140.53"/>
</g>
<!-- Node24 -->
<g id="node24" class="node">
<title>Node24</title>
<g id="a_node24"><a xlink:href="Stream_8h.html" target="_top" xlink:title="Wrapper for sdl stream including ability to store stream pointer. Use for single instance sounds like...">
<polygon fill="white" stroke="black" points="1402.5,-112.5 1402.5,-131.5 1505.5,-131.5 1505.5,-112.5 1402.5,-112.5"/>
<text text-anchor="middle" x="1454" y="-119.5" font-family="Helvetica,sans-Serif" font-size="10.00">../../assets/Stream.h</text>
</a>
</g>
</g>
<!-- Node19&#45;&gt;Node24 -->
<g id="edge36" class="edge">
<title>Node19&#45;&gt;Node24</title>
<path fill="none" stroke="midnightblue" d="M1600.5,-173.98C1571.04,-163.72 1521.42,-146.46 1488.2,-134.9"/>
<polygon fill="midnightblue" stroke="midnightblue" points="1489.05,-131.49 1478.45,-131.51 1486.75,-138.1 1489.05,-131.49"/>
</g>
<!-- Node25 -->
<g id="node25" class="node">
<title>Node25</title>
<g id="a_node25"><a xlink:href="Texture_8h.html" target="_top" xlink:title="Easy interface to interact with sdl bitmaps.">
<polygon fill="white" stroke="black" points="1718,-112.5 1718,-131.5 1822,-131.5 1822,-112.5 1718,-112.5"/>
<text text-anchor="middle" x="1770" y="-119.5" font-family="Helvetica,sans-Serif" font-size="10.00">../../assets/Texture.h</text>
</a>
</g>
</g>
<!-- Node19&#45;&gt;Node25 -->
<g id="edge39" class="edge">
<title>Node19&#45;&gt;Node25</title>
<path fill="none" stroke="midnightblue" d="M1645.77,-173.98C1670.43,-163.86 1711.75,-146.9 1739.9,-135.35"/>
<polygon fill="midnightblue" stroke="midnightblue" points="1741.34,-138.54 1749.26,-131.51 1738.68,-132.07 1741.34,-138.54"/>
</g>
<!-- Node20&#45;&gt;Node4 -->
<g id="edge31" class="edge">
<title>Node20&#45;&gt;Node4</title>
<path fill="none" stroke="midnightblue" d="M1878.14,-116.25C1863.13,-114.78 1846.36,-113.22 1831,-112 1575.75,-91.66 1511.32,-95.37 1256,-76 1232.49,-74.22 1205.94,-71.84 1185.96,-69.97"/>
<polygon fill="midnightblue" stroke="midnightblue" points="1186.16,-66.48 1175.88,-69.02 1185.51,-73.44 1186.16,-66.48"/>
</g>
<!-- Node20&#45;&gt;Node5 -->
<g id="edge32" class="edge">
<title>Node20&#45;&gt;Node5</title>
<path fill="none" stroke="midnightblue" d="M1935.89,-112.32C1947.15,-104.11 1964.29,-91.6 1977.71,-81.81"/>
<polygon fill="midnightblue" stroke="midnightblue" points="1979.88,-84.56 1985.89,-75.83 1975.75,-78.9 1979.88,-84.56"/>
</g>
<!-- Node21 -->
<g id="node21" class="node">
<title>Node21</title>
<g id="a_node21"><a xlink:title=" ">
<polygon fill="white" stroke="#bfbfbf" points="1851,-56.5 1851,-75.5 1937,-75.5 1937,-56.5 1851,-56.5"/>
<text text-anchor="middle" x="1894" y="-63.5" font-family="Helvetica,sans-Serif" font-size="10.00">SDL2/SDL_ttf.h</text>
</a>
</g>
</g>
<!-- Node20&#45;&gt;Node21 -->
<g id="edge30" class="edge">
<title>Node20&#45;&gt;Node21</title>
<path fill="none" stroke="midnightblue" d="M1919.05,-112.08C1914.9,-104.61 1908.85,-93.72 1903.73,-84.52"/>
<polygon fill="midnightblue" stroke="midnightblue" points="1906.78,-82.79 1898.86,-75.75 1900.66,-86.19 1906.78,-82.79"/>
</g>
<!-- Node22&#45;&gt;Node4 -->
<g id="edge35" class="edge">
<title>Node22&#45;&gt;Node4</title>
<path fill="none" stroke="midnightblue" d="M1562.4,-113.9C1557.54,-113.24 1552.67,-112.6 1548,-112 1413.45,-94.84 1252.59,-77.37 1186.11,-70.29"/>
<polygon fill="midnightblue" stroke="midnightblue" points="1186.21,-66.78 1175.9,-69.2 1185.47,-73.74 1186.21,-66.78"/>
</g>
<!-- Node23 -->
<g id="node23" class="node">
<title>Node23</title>
<g id="a_node23"><a xlink:title=" ">
<polygon fill="white" stroke="#bfbfbf" points="1483,-56.5 1483,-75.5 1583,-75.5 1583,-56.5 1483,-56.5"/>
<text text-anchor="middle" x="1533" y="-63.5" font-family="Helvetica,sans-Serif" font-size="10.00">SDL2/SDL_mixer.h</text>
</a>
</g>
</g>
<!-- Node22&#45;&gt;Node23 -->
<g id="edge34" class="edge">
<title>Node22&#45;&gt;Node23</title>
<path fill="none" stroke="midnightblue" d="M1599.31,-112.32C1587.1,-103.98 1568.42,-91.21 1554,-81.35"/>
<polygon fill="midnightblue" stroke="midnightblue" points="1555.89,-78.41 1545.66,-75.65 1551.94,-84.19 1555.89,-78.41"/>
</g>
<!-- Node24&#45;&gt;Node4 -->
<g id="edge38" class="edge">
<title>Node24&#45;&gt;Node4</title>
<path fill="none" stroke="midnightblue" d="M1406.62,-112.44C1344.69,-101.26 1237.98,-81.99 1185.69,-72.54"/>
<polygon fill="midnightblue" stroke="midnightblue" points="1186.15,-69.07 1175.69,-70.74 1184.9,-75.96 1186.15,-69.07"/>
</g>
<!-- Node24&#45;&gt;Node23 -->
<g id="edge37" class="edge">
<title>Node24&#45;&gt;Node23</title>
<path fill="none" stroke="midnightblue" d="M1466.69,-112.32C1478.9,-103.98 1497.58,-91.21 1512,-81.35"/>
<polygon fill="midnightblue" stroke="midnightblue" points="1514.06,-84.19 1520.34,-75.65 1510.11,-78.41 1514.06,-84.19"/>
</g>
<!-- Node25&#45;&gt;Node3 -->
<g id="edge40" class="edge">
<title>Node25&#45;&gt;Node3</title>
<path fill="none" stroke="midnightblue" d="M1717.78,-113.76C1713.12,-113.15 1708.48,-112.55 1704,-112 1574.55,-95.95 1421.38,-79.56 1346.63,-71.73"/>
<polygon fill="midnightblue" stroke="midnightblue" points="1346.92,-68.24 1336.61,-70.68 1346.2,-75.2 1346.92,-68.24"/>
</g>
<!-- Node25&#45;&gt;Node4 -->
<g id="edge41" class="edge">
<title>Node25&#45;&gt;Node4</title>
<path fill="none" stroke="midnightblue" d="M1717.79,-113.61C1713.13,-113.03 1708.48,-112.49 1704,-112 1505.41,-90.5 1455.04,-92.86 1256,-76 1232.36,-74 1205.62,-71.61 1185.59,-69.8"/>
<polygon fill="midnightblue" stroke="midnightblue" points="1185.78,-66.3 1175.5,-68.88 1185.14,-73.27 1185.78,-66.3"/>
</g>
<!-- Node25&#45;&gt;Node5 -->
<g id="edge42" class="edge">
<title>Node25&#45;&gt;Node5</title>
<path fill="none" stroke="midnightblue" d="M1806.13,-112.44C1845.65,-103.08 1909.1,-88.06 1952.11,-77.87"/>
<polygon fill="midnightblue" stroke="midnightblue" points="1953.12,-81.23 1962.04,-75.52 1951.5,-74.42 1953.12,-81.23"/>
</g>
<!-- Node26&#45;&gt;Node4 -->
<g id="edge44" class="edge">
<title>Node26&#45;&gt;Node4</title>
<path fill="none" stroke="midnightblue" d="M1477.82,-173.98C1457.7,-163.98 1423.38,-146.88 1394,-132 1376.62,-123.2 1373.31,-118.64 1355,-112 1296.79,-90.91 1225.34,-77.7 1185.52,-71.41"/>
<polygon fill="midnightblue" stroke="midnightblue" points="1186.06,-67.95 1175.64,-69.88 1184.99,-74.86 1186.06,-67.95"/>
</g>
<!-- Node26&#45;&gt;Node22 -->
<g id="edge45" class="edge">
<title>Node26&#45;&gt;Node22</title>
<path fill="none" stroke="midnightblue" d="M1511.76,-173.98C1531.22,-164.08 1563.55,-147.64 1586.21,-136.12"/>
<polygon fill="midnightblue" stroke="midnightblue" points="1587.94,-139.16 1595.27,-131.51 1584.77,-132.92 1587.94,-139.16"/>
</g>
<!-- Node26&#45;&gt;Node24 -->
<g id="edge46" class="edge">
<title>Node26&#45;&gt;Node24</title>
<path fill="none" stroke="midnightblue" d="M1489.13,-173.98C1483.04,-165.14 1473.36,-151.09 1465.7,-139.98"/>
<polygon fill="midnightblue" stroke="midnightblue" points="1468.42,-137.76 1459.86,-131.51 1462.66,-141.73 1468.42,-137.76"/>
</g>
<!-- Node27&#45;&gt;Node4 -->
<g id="edge50" class="edge">
<title>Node27&#45;&gt;Node4</title>
<path fill="none" stroke="midnightblue" d="M1308.31,-173.86C1288.17,-164.67 1256.34,-149.1 1231,-132 1208.9,-117.08 1185.97,-96.67 1171.15,-82.73"/>
<polygon fill="midnightblue" stroke="midnightblue" points="1173.46,-80.1 1163.81,-75.72 1168.63,-85.16 1173.46,-80.1"/>
</g>
<!-- Node27&#45;&gt;Node13 -->
<g id="edge48" class="edge">
<title>Node27&#45;&gt;Node13</title>
<path fill="none" stroke="midnightblue" d="M1328,-173.98C1328,-165.58 1328,-152.48 1328,-141.66"/>
<polygon fill="midnightblue" stroke="midnightblue" points="1331.5,-141.51 1328,-131.51 1324.5,-141.51 1331.5,-141.51"/>
</g>
<!-- Node28 -->
<g id="node28" class="node">
<title>Node28</title>
<g id="a_node28"><a xlink:title=" ">
<polygon fill="white" stroke="#bfbfbf" points="1240,-112.5 1240,-131.5 1292,-131.5 1292,-112.5 1240,-112.5"/>
<text text-anchor="middle" x="1266" y="-119.5" font-family="Helvetica,sans-Serif" font-size="10.00">sstream</text>
</a>
</g>
</g>
<!-- Node27&#45;&gt;Node28 -->
<g id="edge49" class="edge">
<title>Node27&#45;&gt;Node28</title>
<path fill="none" stroke="midnightblue" d="M1319.12,-173.98C1309.54,-164.78 1294.09,-149.96 1282.31,-138.66"/>
<polygon fill="midnightblue" stroke="midnightblue" points="1284.51,-135.91 1274.87,-131.51 1279.66,-140.96 1284.51,-135.91"/>
</g>
<!-- Node29&#45;&gt;Node3 -->
<g id="edge53" class="edge">
<title>Node29&#45;&gt;Node3</title>
<path fill="none" stroke="midnightblue" d="M1048.38,-173.85C1072.95,-163.88 1114.46,-146.94 1150,-132 1192.55,-114.11 1241.6,-92.88 1271.96,-79.68"/>
<polygon fill="midnightblue" stroke="midnightblue" points="1273.73,-82.72 1281.5,-75.52 1270.93,-76.3 1273.73,-82.72"/>
</g>
<!-- Node29&#45;&gt;Node7 -->
<g id="edge55" class="edge">
<title>Node29&#45;&gt;Node7</title>
<path fill="none" stroke="midnightblue" d="M1007.23,-173.98C983.86,-163.9 944.79,-147.05 918,-135.5"/>
<polygon fill="midnightblue" stroke="midnightblue" points="919.3,-132.25 908.74,-131.51 916.53,-138.68 919.3,-132.25"/>
</g>
<!-- Node29&#45;&gt;Node16 -->
<g id="edge54" class="edge">
<title>Node29&#45;&gt;Node16</title>
<path fill="none" stroke="midnightblue" d="M992.76,-173.98C946.54,-162.47 864.8,-142.12 819.85,-130.93"/>
<polygon fill="midnightblue" stroke="midnightblue" points="820.6,-127.51 810.05,-128.49 818.9,-134.3 820.6,-127.51"/>
</g>
<!-- Node30&#45;&gt;Node4 -->
<g id="edge59" class="edge">
<title>Node30&#45;&gt;Node4</title>
<path fill="none" stroke="midnightblue" d="M489.79,-173.84C500.77,-158.24 526.29,-125.77 557,-112 659.87,-65.87 1016.64,-65.58 1124.12,-66.59"/>
<polygon fill="midnightblue" stroke="midnightblue" points="1124.26,-70.09 1134.29,-66.7 1124.33,-63.09 1124.26,-70.09"/>
</g>
<!-- Node30&#45;&gt;Node7 -->
<g id="edge60" class="edge">
<title>Node30&#45;&gt;Node7</title>
<path fill="none" stroke="midnightblue" d="M535.7,-174.9C616.56,-163.02 771.42,-140.27 846.33,-129.27"/>
<polygon fill="midnightblue" stroke="midnightblue" points="846.96,-132.71 856.35,-127.8 845.95,-125.79 846.96,-132.71"/>
</g>
<!-- Node30&#45;&gt;Node8 -->
<g id="edge57" class="edge">
<title>Node30&#45;&gt;Node8</title>
<path fill="none" stroke="midnightblue" d="M432.5,-174.91C352.05,-162.84 204.77,-139.85 196,-132 183.01,-120.38 178.7,-100.43 177.36,-85.68"/>
<polygon fill="midnightblue" stroke="midnightblue" points="180.86,-85.45 176.83,-75.65 173.86,-85.82 180.86,-85.45"/>
</g>
<!-- Node31 -->
<g id="node31" class="node">
<title>Node31</title>
<g id="a_node31"><a xlink:title=" ">
<polygon fill="white" stroke="#bfbfbf" points="451,-112.5 451,-131.5 505,-131.5 505,-112.5 451,-112.5"/>
<text text-anchor="middle" x="478" y="-119.5" font-family="Helvetica,sans-Serif" font-size="10.00">iostream</text>
</a>
</g>
</g>
<!-- Node30&#45;&gt;Node31 -->
<g id="edge58" class="edge">
<title>Node30&#45;&gt;Node31</title>
<path fill="none" stroke="midnightblue" d="M483.14,-173.98C482.29,-165.58 480.97,-152.48 479.88,-141.66"/>
<polygon fill="midnightblue" stroke="midnightblue" points="483.34,-141.11 478.86,-131.51 476.38,-141.81 483.34,-141.11"/>
</g>
<!-- Node32 -->
<g id="node32" class="node">
<title>Node32</title>
<g id="a_node32"><a xlink:href="JoystickState_8h.html" target="_top" xlink:title="Container for storing Joystick state.">
<polygon fill="white" stroke="black" points="205.5,-112.5 205.5,-131.5 288.5,-131.5 288.5,-112.5 205.5,-112.5"/>
<text text-anchor="middle" x="247" y="-119.5" font-family="Helvetica,sans-Serif" font-size="10.00">JoystickState.h</text>
</a>
</g>
</g>
<!-- Node30&#45;&gt;Node32 -->
<g id="edge61" class="edge">
<title>Node30&#45;&gt;Node32</title>
<path fill="none" stroke="midnightblue" d="M450.04,-173.98C408.16,-163.46 336.87,-145.56 290.87,-134.01"/>
<polygon fill="midnightblue" stroke="midnightblue" points="291.44,-130.55 280.89,-131.51 289.74,-137.34 291.44,-130.55"/>
</g>
<!-- Node34 -->
<g id="node34" class="node">
<title>Node34</title>
<g id="a_node34"><a xlink:href="KeyboardState_8h.html" target="_top" xlink:title="Container for storing Keyboard state.">
<polygon fill="white" stroke="black" points="307,-112.5 307,-131.5 395,-131.5 395,-112.5 307,-112.5"/>
<text text-anchor="middle" x="351" y="-119.5" font-family="Helvetica,sans-Serif" font-size="10.00">KeyboardState.h</text>
</a>
</g>
</g>
<!-- Node30&#45;&gt;Node34 -->
<g id="edge64" class="edge">
<title>Node30&#45;&gt;Node34</title>
<path fill="none" stroke="midnightblue" d="M464.94,-173.98C442.53,-163.95 405.09,-147.2 379.29,-135.65"/>
<polygon fill="midnightblue" stroke="midnightblue" points="380.58,-132.4 370.02,-131.51 377.72,-138.79 380.58,-132.4"/>
</g>
<!-- Node36 -->
<g id="node36" class="node">
<title>Node36</title>
<g id="a_node36"><a xlink:href="MouseState_8h.html" target="_top" xlink:title="Container for storing Mouse state.">
<polygon fill="white" stroke="black" points="71.5,-112.5 71.5,-131.5 148.5,-131.5 148.5,-112.5 71.5,-112.5"/>
<text text-anchor="middle" x="110" y="-119.5" font-family="Helvetica,sans-Serif" font-size="10.00">MouseState.h</text>
</a>
</g>
</g>
<!-- Node30&#45;&gt;Node36 -->
<g id="edge66" class="edge">
<title>Node30&#45;&gt;Node36</title>
<path fill="none" stroke="midnightblue" d="M432.26,-174.56C368.8,-164.77 257.93,-147.53 163,-132 161.7,-131.79 160.39,-131.57 159.07,-131.35"/>
<polygon fill="midnightblue" stroke="midnightblue" points="159.22,-127.83 148.78,-129.64 158.07,-134.74 159.22,-127.83"/>
</g>
<!-- Node32&#45;&gt;Node8 -->
<g id="edge62" class="edge">
<title>Node32&#45;&gt;Node8</title>
<path fill="none" stroke="midnightblue" d="M235.75,-112.32C225.2,-104.18 209.2,-91.84 196.56,-82.09"/>
<polygon fill="midnightblue" stroke="midnightblue" points="198.51,-79.17 188.45,-75.83 194.23,-84.71 198.51,-79.17"/>
</g>
<!-- Node33 -->
<g id="node33" class="node">
<title>Node33</title>
<g id="a_node33"><a xlink:href="JoystickCodes_8h.html" target="_top" xlink:title="Defines for codes used for joystick.">
<polygon fill="white" stroke="black" points="248,-56.5 248,-75.5 336,-75.5 336,-56.5 248,-56.5"/>
<text text-anchor="middle" x="292" y="-63.5" font-family="Helvetica,sans-Serif" font-size="10.00">JoystickCodes.h</text>
</a>
</g>
</g>
<!-- Node32&#45;&gt;Node33 -->
<g id="edge63" class="edge">
<title>Node32&#45;&gt;Node33</title>
<path fill="none" stroke="midnightblue" d="M254.43,-112.08C260.85,-104.38 270.31,-93.03 278.12,-83.65"/>
<polygon fill="midnightblue" stroke="midnightblue" points="280.99,-85.67 284.71,-75.75 275.62,-81.19 280.99,-85.67"/>
</g>
<!-- Node35 -->
<g id="node35" class="node">
<title>Node35</title>
<g id="a_node35"><a xlink:href="KeyboardKeys_8h.html" target="_top" xlink:title="Defenitions of keys that can be used by input manager.">
<polygon fill="white" stroke="black" points="354,-56.5 354,-75.5 440,-75.5 440,-56.5 354,-56.5"/>
<text text-anchor="middle" x="397" y="-63.5" font-family="Helvetica,sans-Serif" font-size="10.00">KeyboardKeys.h</text>
</a>
</g>
</g>
<!-- Node34&#45;&gt;Node35 -->
<g id="edge65" class="edge">
<title>Node34&#45;&gt;Node35</title>
<path fill="none" stroke="midnightblue" d="M358.6,-112.08C365.23,-104.3 375.02,-92.8 383.06,-83.37"/>
<polygon fill="midnightblue" stroke="midnightblue" points="385.73,-85.63 389.55,-75.75 380.4,-81.09 385.73,-85.63"/>
</g>
<!-- Node36&#45;&gt;Node8 -->
<g id="edge67" class="edge">
<title>Node36&#45;&gt;Node8</title>
<path fill="none" stroke="midnightblue" d="M120.76,-112.32C130.77,-104.26 145.89,-92.08 157.93,-82.37"/>
<polygon fill="midnightblue" stroke="midnightblue" points="160.45,-84.83 166.04,-75.83 156.06,-79.38 160.45,-84.83"/>
</g>
<!-- Node37 -->
<g id="node37" class="node">
<title>Node37</title>
<g id="a_node37"><a xlink:title=" ">
<polygon fill="white" stroke="#bfbfbf" points="0,-56.5 0,-75.5 106,-75.5 106,-56.5 0,-56.5"/>
<text text-anchor="middle" x="53" y="-63.5" font-family="Helvetica,sans-Serif" font-size="10.00">SDL2/SDL_mouse.h</text>
</a>
</g>
</g>
<!-- Node36&#45;&gt;Node37 -->
<g id="edge68" class="edge">
<title>Node36&#45;&gt;Node37</title>
<path fill="none" stroke="midnightblue" d="M100.84,-112.32C92.5,-104.42 79.97,-92.55 69.82,-82.94"/>
<polygon fill="midnightblue" stroke="midnightblue" points="71.99,-80.17 62.32,-75.83 67.18,-85.25 71.99,-80.17"/>
</g>
<!-- Node38&#45;&gt;Node4 -->
<g id="edge70" class="edge">
<title>Node38&#45;&gt;Node4</title>
<path fill="none" stroke="midnightblue" d="M1175.35,-173.82C1171.79,-155.17 1163.37,-110.94 1158.55,-85.63"/>
<polygon fill="midnightblue" stroke="midnightblue" points="1161.98,-84.95 1156.67,-75.78 1155.11,-86.26 1161.98,-84.95"/>
</g>
<!-- Node39 -->
<g id="node39" class="node">
<title>Node39</title>
<g id="a_node39"><a xlink:href="LoggingService_8h.html" target="_top" xlink:title="Default logging service. Does nothing. Use in production.">
<polygon fill="white" stroke="black" points="978,-112.5 978,-131.5 1070,-131.5 1070,-112.5 978,-112.5"/>
<text text-anchor="middle" x="1024" y="-119.5" font-family="Helvetica,sans-Serif" font-size="10.00">LoggingService.h</text>
</a>
</g>
</g>
<!-- Node38&#45;&gt;Node39 -->
<g id="edge71" class="edge">
<title>Node38&#45;&gt;Node39</title>
<path fill="none" stroke="midnightblue" d="M1155.08,-173.98C1128.95,-163.81 1085.09,-146.76 1055.37,-135.2"/>
<polygon fill="midnightblue" stroke="midnightblue" points="1056.47,-131.87 1045.88,-131.51 1053.93,-138.4 1056.47,-131.87"/>
</g>
<!-- Node39&#45;&gt;Node4 -->
<g id="edge72" class="edge">
<title>Node39&#45;&gt;Node4</title>
<path fill="none" stroke="midnightblue" d="M1044.76,-112.44C1066.32,-103.56 1100.26,-89.56 1124.79,-79.45"/>
<polygon fill="midnightblue" stroke="midnightblue" points="1126.43,-82.56 1134.34,-75.52 1123.76,-76.09 1126.43,-82.56"/>
</g>
<!-- Node40&#45;&gt;Node4 -->
<g id="edge74" class="edge">
<title>Node40&#45;&gt;Node4</title>
<path fill="none" stroke="midnightblue" d="M903.45,-173.59C914.89,-158.49 940.23,-127.94 969,-112 1019.07,-84.25 1086,-73.47 1124.41,-69.39"/>
<polygon fill="midnightblue" stroke="midnightblue" points="1124.84,-72.86 1134.45,-68.4 1124.16,-65.89 1124.84,-72.86"/>
</g>
<!-- Node40&#45;&gt;Node7 -->
<g id="edge76" class="edge">
<title>Node40&#45;&gt;Node7</title>
<path fill="none" stroke="midnightblue" d="M895.85,-173.98C894.73,-165.58 892.96,-152.48 891.51,-141.66"/>
<polygon fill="midnightblue" stroke="midnightblue" points="894.95,-140.95 890.14,-131.51 888.01,-141.89 894.95,-140.95"/>
</g>
<!-- Node40&#45;&gt;Node16 -->
<g id="edge75" class="edge">
<title>Node40&#45;&gt;Node16</title>
<path fill="none" stroke="midnightblue" d="M881.38,-173.98C863.41,-164.17 833.68,-147.93 812.59,-136.42"/>
<polygon fill="midnightblue" stroke="midnightblue" points="814.04,-133.23 803.59,-131.51 810.69,-139.37 814.04,-133.23"/>
</g>
</g>
</svg>
