<?xml version="1.0" encoding="UTF-8" standalone="no"?>
<!DOCTYPE svg PUBLIC "-//W3C//DTD SVG 1.1//EN"
 "http://www.w3.org/Graphics/SVG/1.1/DTD/svg11.dtd">
<!-- Generated by graphviz version 2.46.1 (20210215.1649)
 -->
<!-- Title: include/services/display/DisplayService.h Pages: 1 -->
<svg width="376pt" height="151pt"
 viewBox="0.00 0.00 375.50 151.00" xmlns="http://www.w3.org/2000/svg" xmlns:xlink="http://www.w3.org/1999/xlink">
<g id="graph0" class="graph" transform="scale(1 1) rotate(0) translate(4 147)">
<title>include/services/display/DisplayService.h</title>
<polygon fill="white" stroke="transparent" points="-4,4 -4,-147 371.5,-147 371.5,4 -4,4"/>
<!-- Node1 -->
<g id="node1" class="node">
<title>Node1</title>
<g id="a_node1"><a xlink:title="Service that encapsulates SDL display related functionality.">
<polygon fill="#bfbfbf" stroke="black" points="107.5,-112.5 107.5,-142.5 227.5,-142.5 227.5,-112.5 107.5,-112.5"/>
<text text-anchor="start" x="115.5" y="-130.5" font-family="Helvetica,sans-Serif" font-size="10.00">include/services/display</text>
<text text-anchor="middle" x="167.5" y="-119.5" font-family="Helvetica,sans-Serif" font-size="10.00">/DisplayService.h</text>
</a>
</g>
</g>
<!-- Node2 -->
<g id="node2" class="node">
<title>Node2</title>
<g id="a_node2"><a xlink:title=" ">
<polygon fill="white" stroke="#bfbfbf" points="0,-56.5 0,-75.5 71,-75.5 71,-56.5 0,-56.5"/>
<text text-anchor="middle" x="35.5" y="-63.5" font-family="Helvetica,sans-Serif" font-size="10.00">SDL2/SDL.h</text>
</a>
</g>
</g>
<!-- Node1&#45;&gt;Node2 -->
<g id="edge1" class="edge">
<title>Node1&#45;&gt;Node2</title>
<path fill="none" stroke="midnightblue" d="M136.22,-112.4C114.27,-102.51 85.16,-89.38 63.88,-79.79"/>
<polygon fill="midnightblue" stroke="midnightblue" points="65.26,-76.58 54.71,-75.66 62.39,-82.96 65.26,-76.58"/>
</g>
<!-- Node3 -->
<g id="node3" class="node">
<title>Node3</title>
<g id="a_node3"><a xlink:title=" ">
<polygon fill="white" stroke="#bfbfbf" points="202,-0.5 202,-19.5 243,-19.5 243,-0.5 202,-0.5"/>
<text text-anchor="middle" x="222.5" y="-7.5" font-family="Helvetica,sans-Serif" font-size="10.00">string</text>
</a>
</g>
</g>
<!-- Node1&#45;&gt;Node3 -->
<g id="edge2" class="edge">
<title>Node1&#45;&gt;Node3</title>
<path fill="none" stroke="midnightblue" d="M174.24,-112.34C184.24,-91.34 203,-51.96 213.95,-28.96"/>
<polygon fill="midnightblue" stroke="midnightblue" points="217.23,-30.2 218.37,-19.67 210.91,-27.19 217.23,-30.2"/>
</g>
<!-- Node4 -->
<g id="node4" class="node">
<title>Node4</title>
<g id="a_node4"><a xlink:href="Color_8h.html" target="_top" xlink:title="Helpers for creating colors without accessing SDL api directly.">
<polygon fill="white" stroke="black" points="89.5,-56.5 89.5,-75.5 175.5,-75.5 175.5,-56.5 89.5,-56.5"/>
<text text-anchor="middle" x="132.5" y="-63.5" font-family="Helvetica,sans-Serif" font-size="10.00">../../color/Color.h</text>
</a>
</g>
</g>
<!-- Node1&#45;&gt;Node4 -->
<g id="edge3" class="edge">
<title>Node1&#45;&gt;Node4</title>
<path fill="none" stroke="midnightblue" d="M159.21,-112.4C154.28,-104.02 147.99,-93.33 142.75,-84.42"/>
<polygon fill="midnightblue" stroke="midnightblue" points="145.68,-82.5 137.59,-75.66 139.65,-86.05 145.68,-82.5"/>
</g>
<!-- Node6 -->
<g id="node6" class="node">
<title>Node6</title>
<g id="a_node6"><a xlink:href="Service_8h.html" target="_top" xlink:title="Service subscriber that can listen for events.">
<polygon fill="white" stroke="black" points="232,-56.5 232,-75.5 297,-75.5 297,-56.5 232,-56.5"/>
<text text-anchor="middle" x="264.5" y="-63.5" font-family="Helvetica,sans-Serif" font-size="10.00">../Service.h</text>
</a>
</g>
</g>
<!-- Node1&#45;&gt;Node6 -->
<g id="edge5" class="edge">
<title>Node1&#45;&gt;Node6</title>
<path fill="none" stroke="midnightblue" d="M190.49,-112.4C205.89,-102.95 226.09,-90.56 241.5,-81.11"/>
<polygon fill="midnightblue" stroke="midnightblue" points="243.69,-83.87 250.39,-75.66 240.03,-77.9 243.69,-83.87"/>
</g>
<!-- Node5 -->
<g id="node5" class="node">
<title>Node5</title>
<g id="a_node5"><a xlink:title=" ">
<polygon fill="white" stroke="#bfbfbf" points="45.5,-0.5 45.5,-19.5 183.5,-19.5 183.5,-0.5 45.5,-0.5"/>
<text text-anchor="middle" x="114.5" y="-7.5" font-family="Helvetica,sans-Serif" font-size="10.00">SDL2/SDL2_gfxPrimitives.h</text>
</a>
</g>
</g>
<!-- Node4&#45;&gt;Node5 -->
<g id="edge4" class="edge">
<title>Node4&#45;&gt;Node5</title>
<path fill="none" stroke="midnightblue" d="M129.53,-56.08C127.12,-48.85 123.64,-38.41 120.63,-29.4"/>
<polygon fill="midnightblue" stroke="midnightblue" points="123.9,-28.13 117.42,-19.75 117.26,-30.34 123.9,-28.13"/>
</g>
<!-- Node6&#45;&gt;Node3 -->
<g id="edge7" class="edge">
<title>Node6&#45;&gt;Node3</title>
<path fill="none" stroke="midnightblue" d="M257.56,-56.08C251.57,-48.38 242.75,-37.03 235.45,-27.65"/>
<polygon fill="midnightblue" stroke="midnightblue" points="238.21,-25.5 229.31,-19.75 232.68,-29.79 238.21,-25.5"/>
</g>
<!-- Node7 -->
<g id="node7" class="node">
<title>Node7</title>
<g id="a_node7"><a xlink:title=" ">
<polygon fill="white" stroke="#bfbfbf" points="261.5,-0.5 261.5,-19.5 367.5,-19.5 367.5,-0.5 261.5,-0.5"/>
<text text-anchor="middle" x="314.5" y="-7.5" font-family="Helvetica,sans-Serif" font-size="10.00">SDL2/SDL_events.h</text>
</a>
</g>
</g>
<!-- Node6&#45;&gt;Node7 -->
<g id="edge6" class="edge">
<title>Node6&#45;&gt;Node7</title>
<path fill="none" stroke="midnightblue" d="M272.76,-56.08C279.96,-48.3 290.61,-36.8 299.35,-27.37"/>
<polygon fill="midnightblue" stroke="midnightblue" points="302.17,-29.47 306.4,-19.75 297.03,-24.71 302.17,-29.47"/>
</g>
</g>
</svg>
