<?xml version="1.0" encoding="UTF-8" standalone="no"?>
<!DOCTYPE svg PUBLIC "-//W3C//DTD SVG 1.1//EN"
 "http://www.w3.org/Graphics/SVG/1.1/DTD/svg11.dtd">
<!-- Generated by graphviz version 2.46.1 (20210215.1649)
 -->
<!-- Title: include/services/display/DisplayService.h Pages: 1 -->
<svg width="2338pt" height="229pt"
 viewBox="0.00 0.00 2338.00 229.00" xmlns="http://www.w3.org/2000/svg" xmlns:xlink="http://www.w3.org/1999/xlink">
<g id="graph0" class="graph" transform="scale(1 1) rotate(0) translate(4 225)">
<title>include/services/display/DisplayService.h</title>
<polygon fill="white" stroke="transparent" points="-4,4 -4,-225 2334,-225 2334,4 -4,4"/>
<!-- Node1 -->
<g id="node1" class="node">
<title>Node1</title>
<g id="a_node1"><a xlink:title="Service that encapsulates SDL display related functionality.">
<polygon fill="#bfbfbf" stroke="black" points="584.5,-190.5 584.5,-220.5 704.5,-220.5 704.5,-190.5 584.5,-190.5"/>
<text text-anchor="start" x="592.5" y="-208.5" font-family="Helvetica,sans-Serif" font-size="10.00">include/services/display</text>
<text text-anchor="middle" x="644.5" y="-197.5" font-family="Helvetica,sans-Serif" font-size="10.00">/DisplayService.h</text>
</a>
</g>
</g>
<!-- Node2 -->
<g id="node2" class="node">
<title>Node2</title>
<g id="a_node2"><a xlink:href="DisplayService_8cpp.html" target="_top" xlink:title="Implementation of DisplayService.">
<polygon fill="white" stroke="black" points="0,-0.5 0,-30.5 103,-30.5 103,-0.5 0,-0.5"/>
<text text-anchor="start" x="8" y="-18.5" font-family="Helvetica,sans-Serif" font-size="10.00">src/services/display</text>
<text text-anchor="middle" x="51.5" y="-7.5" font-family="Helvetica,sans-Serif" font-size="10.00">/DisplayService.cpp</text>
</a>
</g>
</g>
<!-- Node1&#45;&gt;Node2 -->
<g id="edge1" class="edge">
<title>Node1&#45;&gt;Node2</title>
<path fill="none" stroke="midnightblue" d="M590.16,-187.27C473.81,-150.39 202.53,-64.38 95.78,-30.54"/>
<polygon fill="midnightblue" stroke="midnightblue" points="589.34,-190.68 599.93,-190.37 591.45,-184.01 589.34,-190.68"/>
</g>
<!-- Node3 -->
<g id="node3" class="node">
<title>Node3</title>
<g id="a_node3"><a xlink:href="Services_8h.html" target="_top" xlink:title="Implementation of core Services class.">
<polygon fill="white" stroke="black" points="1200.5,-134.5 1200.5,-153.5 1336.5,-153.5 1336.5,-134.5 1200.5,-134.5"/>
<text text-anchor="middle" x="1268.5" y="-141.5" font-family="Helvetica,sans-Serif" font-size="10.00">include/services/Services.h</text>
</a>
</g>
</g>
<!-- Node1&#45;&gt;Node3 -->
<g id="edge2" class="edge">
<title>Node1&#45;&gt;Node3</title>
<path fill="none" stroke="midnightblue" d="M714.86,-197.79C835.72,-186.27 1081.23,-162.86 1200.47,-151.49"/>
<polygon fill="midnightblue" stroke="midnightblue" points="714.24,-194.33 704.61,-198.77 714.9,-201.3 714.24,-194.33"/>
</g>
<!-- Node3&#45;&gt;Node2 -->
<g id="edge16" class="edge">
<title>Node3&#45;&gt;Node2</title>
<path fill="none" stroke="midnightblue" d="M1190.27,-142.51C1056.09,-140.73 788.13,-132.78 701.5,-98 681.27,-89.88 683.78,-74.98 663.5,-67 549.1,-22.01 233.03,-49.51 111.5,-31 108.75,-30.58 105.93,-30.1 103.1,-29.57"/>
<polygon fill="midnightblue" stroke="midnightblue" points="1190.44,-146.01 1200.48,-142.64 1190.52,-139.01 1190.44,-146.01"/>
</g>
<!-- Node4 -->
<g id="node4" class="node">
<title>Node4</title>
<g id="a_node4"><a xlink:href="Font_8cpp.html" target="_top" xlink:title="Implementation of Font.">
<polygon fill="white" stroke="black" points="2227,-73 2227,-92 2330,-92 2330,-73 2227,-73"/>
<text text-anchor="middle" x="2278.5" y="-80" font-family="Helvetica,sans-Serif" font-size="10.00">src/assets/Font.cpp</text>
</a>
</g>
</g>
<!-- Node3&#45;&gt;Node4 -->
<g id="edge3" class="edge">
<title>Node3&#45;&gt;Node4</title>
<path fill="none" stroke="midnightblue" d="M1347.05,-143.71C1509.44,-144.21 1893.59,-140.32 2212.5,-98 2223.08,-96.6 2234.48,-94.36 2244.78,-92.06"/>
<polygon fill="midnightblue" stroke="midnightblue" points="1346.69,-140.21 1336.68,-143.68 1346.66,-147.21 1346.69,-140.21"/>
</g>
<!-- Node5 -->
<g id="node5" class="node">
<title>Node5</title>
<g id="a_node5"><a xlink:href="Texture_8cpp.html" target="_top" xlink:title="Implementation of Texture.">
<polygon fill="white" stroke="black" points="538.5,-73 538.5,-92 654.5,-92 654.5,-73 538.5,-73"/>
<text text-anchor="middle" x="596.5" y="-80" font-family="Helvetica,sans-Serif" font-size="10.00">src/assets/Texture.cpp</text>
</a>
</g>
</g>
<!-- Node3&#45;&gt;Node5 -->
<g id="edge4" class="edge">
<title>Node3&#45;&gt;Node5</title>
<path fill="none" stroke="midnightblue" d="M1190.17,-140.22C1075.29,-135.45 854.59,-123.62 668.5,-98 657.38,-96.47 645.4,-94.28 634.46,-92.06"/>
<polygon fill="midnightblue" stroke="midnightblue" points="1190.14,-143.72 1200.27,-140.64 1190.43,-136.73 1190.14,-143.72"/>
</g>
<!-- Node6 -->
<g id="node6" class="node">
<title>Node6</title>
<g id="a_node6"><a xlink:href="ParticleEmitter_8cpp.html" target="_top" xlink:title="Implementation of a particle emitter. and configured.">
<polygon fill="white" stroke="black" points="813,-6 813,-25 962,-25 962,-6 813,-6"/>
<text text-anchor="middle" x="887.5" y="-13" font-family="Helvetica,sans-Serif" font-size="10.00">src/entities/ParticleEmitter.cpp</text>
</a>
</g>
</g>
<!-- Node3&#45;&gt;Node6 -->
<g id="edge5" class="edge">
<title>Node3&#45;&gt;Node6</title>
<path fill="none" stroke="midnightblue" d="M1190.12,-140.33C1104.79,-136.07 975.07,-125.21 934.5,-98 908.05,-80.26 894.62,-42.26 889.73,-25.15"/>
<polygon fill="midnightblue" stroke="midnightblue" points="1190.14,-143.83 1200.29,-140.82 1190.47,-136.84 1190.14,-143.83"/>
</g>
<!-- Node7 -->
<g id="node7" class="node">
<title>Node7</title>
<g id="a_node7"><a xlink:href="Button_8cpp.html" target="_top" xlink:title="Implementation of Button.">
<polygon fill="white" stroke="black" points="980,-6 980,-25 1105,-25 1105,-6 980,-6"/>
<text text-anchor="middle" x="1042.5" y="-13" font-family="Helvetica,sans-Serif" font-size="10.00">src/entities/ui/Button.cpp</text>
</a>
</g>
</g>
<!-- Node3&#45;&gt;Node7 -->
<g id="edge6" class="edge">
<title>Node3&#45;&gt;Node7</title>
<path fill="none" stroke="midnightblue" d="M1190.22,-143.44C1104.71,-142.06 975.72,-133.86 944.5,-98 917.84,-67.38 979.75,-38.78 1016.96,-25.04"/>
<polygon fill="midnightblue" stroke="midnightblue" points="1190.38,-146.95 1200.42,-143.58 1190.47,-139.95 1190.38,-146.95"/>
</g>
<!-- Node8 -->
<g id="node8" class="node">
<title>Node8</title>
<g id="a_node8"><a xlink:href="Checkbox_8cpp.html" target="_top" xlink:title="Implementation of UI Checkbox.">
<polygon fill="white" stroke="black" points="1123,-6 1123,-25 1262,-25 1262,-6 1123,-6"/>
<text text-anchor="middle" x="1192.5" y="-13" font-family="Helvetica,sans-Serif" font-size="10.00">src/entities/ui/Checkbox.cpp</text>
</a>
</g>
</g>
<!-- Node3&#45;&gt;Node8 -->
<g id="edge7" class="edge">
<title>Node3&#45;&gt;Node8</title>
<path fill="none" stroke="midnightblue" d="M1190.21,-143.03C1107.33,-141.19 984.41,-132.5 954.5,-98 945.48,-87.59 945.83,-77.71 954.5,-67 957.58,-63.19 1081.16,-38.39 1148.99,-25.01"/>
<polygon fill="midnightblue" stroke="midnightblue" points="1190.3,-146.53 1200.36,-143.22 1190.43,-139.53 1190.3,-146.53"/>
</g>
<!-- Node9 -->
<g id="node9" class="node">
<title>Node9</title>
<g id="a_node9"><a xlink:href="Inputbox_8cpp.html" target="_top" xlink:title="Implementation of UI Inputbox.">
<polygon fill="white" stroke="black" points="1280,-6 1280,-25 1413,-25 1413,-6 1280,-6"/>
<text text-anchor="middle" x="1346.5" y="-13" font-family="Helvetica,sans-Serif" font-size="10.00">src/entities/ui/Inputbox.cpp</text>
</a>
</g>
</g>
<!-- Node3&#45;&gt;Node9 -->
<g id="edge8" class="edge">
<title>Node3&#45;&gt;Node9</title>
<path fill="none" stroke="midnightblue" d="M1190.04,-141.43C1116.16,-138.1 1013.1,-128.03 987.5,-98 978.56,-87.52 978.39,-77.34 987.5,-67 1029.4,-19.43 1207.89,-40.95 1270.5,-31 1281.51,-29.25 1293.37,-27.11 1304.37,-25.02"/>
<polygon fill="midnightblue" stroke="midnightblue" points="1190.13,-144.94 1200.26,-141.86 1190.42,-137.95 1190.13,-144.94"/>
</g>
<!-- Node10 -->
<g id="node10" class="node">
<title>Node10</title>
<g id="a_node10"><a xlink:href="MessageBox_8cpp.html" target="_top" xlink:title="Implementation of MessageBox.">
<polygon fill="white" stroke="black" points="996.5,-73 996.5,-92 1148.5,-92 1148.5,-73 996.5,-73"/>
<text text-anchor="middle" x="1072.5" y="-80" font-family="Helvetica,sans-Serif" font-size="10.00">src/entities/ui/MessageBox.cpp</text>
</a>
</g>
</g>
<!-- Node3&#45;&gt;Node10 -->
<g id="edge9" class="edge">
<title>Node3&#45;&gt;Node10</title>
<path fill="none" stroke="midnightblue" d="M1230.71,-131.53C1192.62,-119.96 1134.71,-102.38 1100.53,-92.01"/>
<polygon fill="midnightblue" stroke="midnightblue" points="1229.83,-134.92 1240.42,-134.48 1231.87,-128.22 1229.83,-134.92"/>
</g>
<!-- Node11 -->
<g id="node11" class="node">
<title>Node11</title>
<g id="a_node11"><a xlink:href="UIElement_8cpp.html" target="_top" xlink:title="Implementation of UIElement.">
<polygon fill="white" stroke="black" points="1693.5,-6 1693.5,-25 1835.5,-25 1835.5,-6 1693.5,-6"/>
<text text-anchor="middle" x="1764.5" y="-13" font-family="Helvetica,sans-Serif" font-size="10.00">src/entities/ui/UIElement.cpp</text>
</a>
</g>
</g>
<!-- Node3&#45;&gt;Node11 -->
<g id="edge10" class="edge">
<title>Node3&#45;&gt;Node11</title>
<path fill="none" stroke="midnightblue" d="M1346.97,-141.85C1556.38,-138.41 2114.36,-126.58 2141.5,-98 2150.99,-88.01 2150.57,-77.37 2141.5,-67 2121.71,-44.39 1939.51,-28.4 1835.83,-21.05"/>
<polygon fill="midnightblue" stroke="midnightblue" points="1346.61,-138.36 1336.67,-142.02 1346.73,-145.36 1346.61,-138.36"/>
</g>
<!-- Node12 -->
<g id="node12" class="node">
<title>Node12</title>
<g id="a_node12"><a xlink:href="Game_8cpp.html" target="_top" xlink:title="Implementation of Game.">
<polygon fill="white" stroke="black" points="1167,-73 1167,-92 1244,-92 1244,-73 1167,-73"/>
<text text-anchor="middle" x="1205.5" y="-80" font-family="Helvetica,sans-Serif" font-size="10.00">src/Game.cpp</text>
</a>
</g>
</g>
<!-- Node3&#45;&gt;Node12 -->
<g id="edge11" class="edge">
<title>Node3&#45;&gt;Node12</title>
<path fill="none" stroke="midnightblue" d="M1251.9,-127.32C1239.93,-116.02 1224.23,-101.19 1214.51,-92.01"/>
<polygon fill="midnightblue" stroke="midnightblue" points="1249.8,-130.15 1259.47,-134.48 1254.61,-125.06 1249.8,-130.15"/>
</g>
<!-- Node13 -->
<g id="node13" class="node">
<title>Node13</title>
<g id="a_node13"><a xlink:href="Primitives_8cpp.html" target="_top" xlink:title="Implementation of Primitives namespace helpers.">
<polygon fill="white" stroke="black" points="1262.5,-73 1262.5,-92 1402.5,-92 1402.5,-73 1262.5,-73"/>
<text text-anchor="middle" x="1332.5" y="-80" font-family="Helvetica,sans-Serif" font-size="10.00">src/primitives/Primitives.cpp</text>
</a>
</g>
</g>
<!-- Node3&#45;&gt;Node13 -->
<g id="edge12" class="edge">
<title>Node3&#45;&gt;Node13</title>
<path fill="none" stroke="midnightblue" d="M1285.01,-127.65C1297.21,-116.31 1313.37,-101.28 1323.35,-92.01"/>
<polygon fill="midnightblue" stroke="midnightblue" points="1282.61,-125.1 1277.67,-134.48 1287.38,-130.23 1282.61,-125.1"/>
</g>
<!-- Node14 -->
<g id="node14" class="node">
<title>Node14</title>
<g id="a_node14"><a xlink:href="AssetService_8cpp_source.html" target="_top" xlink:title=" ">
<polygon fill="white" stroke="black" points="1420.5,-67.5 1420.5,-97.5 1522.5,-97.5 1522.5,-67.5 1420.5,-67.5"/>
<text text-anchor="start" x="1428.5" y="-85.5" font-family="Helvetica,sans-Serif" font-size="10.00">src/services/assets</text>
<text text-anchor="middle" x="1471.5" y="-74.5" font-family="Helvetica,sans-Serif" font-size="10.00">/AssetService.cpp</text>
</a>
</g>
</g>
<!-- Node3&#45;&gt;Node14 -->
<g id="edge13" class="edge">
<title>Node3&#45;&gt;Node14</title>
<path fill="none" stroke="midnightblue" d="M1307.36,-131.61C1340.48,-121.9 1388.2,-107.92 1423.66,-97.52"/>
<polygon fill="midnightblue" stroke="midnightblue" points="1306.2,-128.3 1297.58,-134.48 1308.17,-135.02 1306.2,-128.3"/>
</g>
<!-- Node15 -->
<g id="node15" class="node">
<title>Node15</title>
<g id="a_node15"><a xlink:href="AudioService_8cpp.html" target="_top" xlink:title="Implementation of AudioService.">
<polygon fill="white" stroke="black" points="1540.5,-67.5 1540.5,-97.5 1636.5,-97.5 1636.5,-67.5 1540.5,-67.5"/>
<text text-anchor="start" x="1548.5" y="-85.5" font-family="Helvetica,sans-Serif" font-size="10.00">src/services/audio</text>
<text text-anchor="middle" x="1588.5" y="-74.5" font-family="Helvetica,sans-Serif" font-size="10.00">/AudioService.cpp</text>
</a>
</g>
</g>
<!-- Node3&#45;&gt;Node15 -->
<g id="edge14" class="edge">
<title>Node3&#45;&gt;Node15</title>
<path fill="none" stroke="midnightblue" d="M1336.22,-132.93C1389.51,-124.64 1465.52,-112.01 1531.5,-98 1534.4,-97.38 1537.37,-96.72 1540.36,-96.03"/>
<polygon fill="midnightblue" stroke="midnightblue" points="1335.56,-129.49 1326.21,-134.48 1336.63,-136.41 1335.56,-129.49"/>
</g>
<!-- Node16 -->
<g id="node16" class="node">
<title>Node16</title>
<g id="a_node16"><a xlink:href="ConfigService_8cpp.html" target="_top" xlink:title="Implementation of default Config Service.">
<polygon fill="white" stroke="black" points="1654.5,-67.5 1654.5,-97.5 1752.5,-97.5 1752.5,-67.5 1654.5,-67.5"/>
<text text-anchor="start" x="1662.5" y="-85.5" font-family="Helvetica,sans-Serif" font-size="10.00">src/services/config</text>
<text text-anchor="middle" x="1703.5" y="-74.5" font-family="Helvetica,sans-Serif" font-size="10.00">/ConfigService.cpp</text>
</a>
</g>
</g>
<!-- Node3&#45;&gt;Node16 -->
<g id="edge15" class="edge">
<title>Node3&#45;&gt;Node16</title>
<path fill="none" stroke="midnightblue" d="M1346.7,-136.57C1423.24,-129.59 1542.97,-116.86 1645.5,-98 1648.36,-97.47 1651.29,-96.89 1654.23,-96.27"/>
<polygon fill="midnightblue" stroke="midnightblue" points="1346.3,-133.09 1336.65,-137.47 1346.92,-140.06 1346.3,-133.09"/>
</g>
<!-- Node17 -->
<g id="node17" class="node">
<title>Node17</title>
<g id="a_node17"><a xlink:href="EventQueue_8cpp.html" target="_top" xlink:title="Implementation of EventQueue.">
<polygon fill="white" stroke="black" points="1770.5,-67.5 1770.5,-97.5 1872.5,-97.5 1872.5,-67.5 1770.5,-67.5"/>
<text text-anchor="start" x="1778.5" y="-85.5" font-family="Helvetica,sans-Serif" font-size="10.00">src/services/events</text>
<text text-anchor="middle" x="1821.5" y="-74.5" font-family="Helvetica,sans-Serif" font-size="10.00">/EventQueue.cpp</text>
</a>
</g>
</g>
<!-- Node3&#45;&gt;Node17 -->
<g id="edge17" class="edge">
<title>Node3&#45;&gt;Node17</title>
<path fill="none" stroke="midnightblue" d="M1346.76,-139.39C1444.38,-134.08 1616.14,-122.07 1761.5,-98 1764.35,-97.53 1767.27,-96.99 1770.21,-96.42"/>
<polygon fill="midnightblue" stroke="midnightblue" points="1346.48,-135.9 1336.68,-139.93 1346.86,-142.89 1346.48,-135.9"/>
</g>
<!-- Node18 -->
<g id="node18" class="node">
<title>Node18</title>
<g id="a_node18"><a xlink:href="InputService_8cpp.html" target="_top" xlink:title="Implementation of InputService. Handles mouse, keyboard and joystick.">
<polygon fill="white" stroke="black" points="1890.5,-67.5 1890.5,-97.5 1984.5,-97.5 1984.5,-67.5 1890.5,-67.5"/>
<text text-anchor="start" x="1898.5" y="-85.5" font-family="Helvetica,sans-Serif" font-size="10.00">src/services/input</text>
<text text-anchor="middle" x="1937.5" y="-74.5" font-family="Helvetica,sans-Serif" font-size="10.00">/InputService.cpp</text>
</a>
</g>
</g>
<!-- Node3&#45;&gt;Node18 -->
<g id="edge18" class="edge">
<title>Node3&#45;&gt;Node18</title>
<path fill="none" stroke="midnightblue" d="M1346.84,-141.75C1463.92,-138.87 1691.14,-129.37 1881.5,-98 1884.37,-97.53 1887.31,-96.97 1890.27,-96.37"/>
<polygon fill="midnightblue" stroke="midnightblue" points="1346.46,-138.26 1336.55,-142 1346.63,-145.26 1346.46,-138.26"/>
</g>
<!-- Node19 -->
<g id="node19" class="node">
<title>Node19</title>
<g id="a_node19"><a xlink:href="SceneService_8cpp.html" target="_top" xlink:title="Implementation of SceneService.">
<polygon fill="white" stroke="black" points="1985,-0.5 1985,-30.5 2084,-30.5 2084,-0.5 1985,-0.5"/>
<text text-anchor="start" x="1993" y="-18.5" font-family="Helvetica,sans-Serif" font-size="10.00">src/services/scene</text>
<text text-anchor="middle" x="2034.5" y="-7.5" font-family="Helvetica,sans-Serif" font-size="10.00">/SceneService.cpp</text>
</a>
</g>
</g>
<!-- Node3&#45;&gt;Node19 -->
<g id="edge19" class="edge">
<title>Node3&#45;&gt;Node19</title>
<path fill="none" stroke="midnightblue" d="M1346.68,-141.94C1558.71,-138.68 2130.74,-127.2 2158.5,-98 2187.26,-67.75 2129.96,-43.15 2084.01,-29.16"/>
<polygon fill="midnightblue" stroke="midnightblue" points="1346.5,-138.44 1336.55,-142.09 1346.6,-145.44 1346.5,-138.44"/>
</g>
<!-- Node20 -->
<g id="node20" class="node">
<title>Node20</title>
<g id="a_node20"><a xlink:href="Services_8cpp_source.html" target="_top" xlink:title=" ">
<polygon fill="white" stroke="black" points="2003,-73 2003,-92 2132,-92 2132,-73 2003,-73"/>
<text text-anchor="middle" x="2067.5" y="-80" font-family="Helvetica,sans-Serif" font-size="10.00">src/services/Services.cpp</text>
</a>
</g>
</g>
<!-- Node3&#45;&gt;Node20 -->
<g id="edge20" class="edge">
<title>Node3&#45;&gt;Node20</title>
<path fill="none" stroke="midnightblue" d="M1346.87,-141.51C1480.19,-138.22 1759.44,-128.06 1993.5,-98 2005.06,-96.52 2017.52,-94.31 2028.87,-92.07"/>
<polygon fill="midnightblue" stroke="midnightblue" points="1346.66,-138.01 1336.75,-141.75 1346.83,-145.01 1346.66,-138.01"/>
</g>
<!-- Node21 -->
<g id="node21" class="node">
<title>Node21</title>
<g id="a_node21"><a xlink:href="Scene_8h.html" target="_top" xlink:title="Parent scene class. Children can be added to scene manager.">
<polygon fill="white" stroke="black" points="711,-73 711,-92 826,-92 826,-73 711,-73"/>
<text text-anchor="middle" x="768.5" y="-80" font-family="Helvetica,sans-Serif" font-size="10.00">include/scene/Scene.h</text>
</a>
</g>
</g>
<!-- Node3&#45;&gt;Node21 -->
<g id="edge21" class="edge">
<title>Node3&#45;&gt;Node21</title>
<path fill="none" stroke="midnightblue" d="M1190.21,-136.99C1104.18,-129.87 962.04,-116.59 840.5,-98 829.79,-96.36 818.25,-94.21 807.62,-92.07"/>
<polygon fill="midnightblue" stroke="midnightblue" points="1190.17,-140.5 1200.42,-137.83 1190.74,-133.52 1190.17,-140.5"/>
</g>
<!-- Node21&#45;&gt;Node2 -->
<g id="edge32" class="edge">
<title>Node21&#45;&gt;Node2</title>
<path fill="none" stroke="midnightblue" d="M721.4,-71.05C713.13,-69.49 704.59,-68.06 696.5,-67 438.21,-33.21 369.09,-69.74 111.5,-31 108.74,-30.59 105.93,-30.11 103.1,-29.58"/>
<polygon fill="midnightblue" stroke="midnightblue" points="720.81,-74.5 731.29,-72.99 722.16,-67.63 720.81,-74.5"/>
</g>
<!-- Node21&#45;&gt;Node6 -->
<g id="edge24" class="edge">
<title>Node21&#45;&gt;Node6</title>
<path fill="none" stroke="midnightblue" d="M793.61,-67.79C817.19,-54.9 851.76,-36.02 871.71,-25.13"/>
<polygon fill="midnightblue" stroke="midnightblue" points="791.65,-64.87 784.55,-72.73 795,-71.01 791.65,-64.87"/>
</g>
<!-- Node21&#45;&gt;Node7 -->
<g id="edge26" class="edge">
<title>Node21&#45;&gt;Node7</title>
<path fill="none" stroke="midnightblue" d="M814.6,-70.56C868.62,-57.75 956.99,-36.78 1006.32,-25.08"/>
<polygon fill="midnightblue" stroke="midnightblue" points="813.52,-67.22 804.6,-72.94 815.14,-74.03 813.52,-67.22"/>
</g>
<!-- Node21&#45;&gt;Node8 -->
<g id="edge27" class="edge">
<title>Node21&#45;&gt;Node8</title>
<path fill="none" stroke="midnightblue" d="M836.25,-72.32C905.9,-62.71 1017.43,-46.84 1113.5,-31 1124.51,-29.18 1136.35,-27.09 1147.43,-25.06"/>
<polygon fill="midnightblue" stroke="midnightblue" points="835.71,-68.86 826.28,-73.69 836.67,-75.8 835.71,-68.86"/>
</g>
<!-- Node21&#45;&gt;Node9 -->
<g id="edge29" class="edge">
<title>Node21&#45;&gt;Node9</title>
<path fill="none" stroke="midnightblue" d="M836.52,-76.57C933.26,-69.13 1115.99,-53.47 1270.5,-31 1281.8,-29.36 1293.97,-27.21 1305.2,-25.07"/>
<polygon fill="midnightblue" stroke="midnightblue" points="836,-73.1 826.3,-77.35 836.53,-80.08 836,-73.1"/>
</g>
<!-- Node21&#45;&gt;Node11 -->
<g id="edge30" class="edge">
<title>Node21&#45;&gt;Node11</title>
<path fill="none" stroke="midnightblue" d="M836.26,-76.99C879.53,-74.12 936.81,-70.33 987.5,-67 1247.5,-49.94 1556.46,-29.94 1693.26,-21.1"/>
<polygon fill="midnightblue" stroke="midnightblue" points="835.88,-73.51 826.14,-77.66 836.35,-80.49 835.88,-73.51"/>
</g>
<!-- Node21&#45;&gt;Node19 -->
<g id="edge33" class="edge">
<title>Node21&#45;&gt;Node19</title>
<path fill="none" stroke="midnightblue" d="M836.24,-76.59C879.49,-73.56 936.78,-69.74 987.5,-67 1368.17,-46.41 1463.94,-53.51 1844.5,-31 1892.22,-28.18 1946.6,-23.92 1984.93,-20.75"/>
<polygon fill="midnightblue" stroke="midnightblue" points="835.84,-73.11 826.11,-77.3 836.34,-80.09 835.84,-73.11"/>
</g>
<!-- Node22 -->
<g id="node22" class="node">
<title>Node22</title>
<g id="a_node22"><a xlink:href="GameObject_8cpp_source.html" target="_top" xlink:title=" ">
<polygon fill="white" stroke="black" points="517.5,-6 517.5,-25 657.5,-25 657.5,-6 517.5,-6"/>
<text text-anchor="middle" x="587.5" y="-13" font-family="Helvetica,sans-Serif" font-size="10.00">src/entities/GameObject.cpp</text>
</a>
</g>
</g>
<!-- Node21&#45;&gt;Node22 -->
<g id="edge22" class="edge">
<title>Node21&#45;&gt;Node22</title>
<path fill="none" stroke="midnightblue" d="M734.91,-69.44C699,-56.54 642.98,-36.42 611.35,-25.06"/>
<polygon fill="midnightblue" stroke="midnightblue" points="733.87,-72.78 744.46,-72.87 736.24,-66.19 733.87,-72.78"/>
</g>
<!-- Node23 -->
<g id="node23" class="node">
<title>Node23</title>
<g id="a_node23"><a xlink:href="Particle_8cpp.html" target="_top" xlink:title="Implementation of Particle.">
<polygon fill="white" stroke="black" points="676,-6 676,-25 795,-25 795,-6 676,-6"/>
<text text-anchor="middle" x="735.5" y="-13" font-family="Helvetica,sans-Serif" font-size="10.00">src/entities/Particle.cpp</text>
</a>
</g>
</g>
<!-- Node21&#45;&gt;Node23 -->
<g id="edge23" class="edge">
<title>Node21&#45;&gt;Node23</title>
<path fill="none" stroke="midnightblue" d="M759.44,-63.66C753.08,-51.13 744.85,-34.91 739.88,-25.13"/>
<polygon fill="midnightblue" stroke="midnightblue" points="756.4,-65.4 764.05,-72.73 762.64,-62.23 756.4,-65.4"/>
</g>
<!-- Node24 -->
<g id="node24" class="node">
<title>Node24</title>
<g id="a_node24"><a xlink:href="Sprite_8cpp.html" target="_top" xlink:title="Implementation of Sprite.">
<polygon fill="white" stroke="black" points="121,-6 121,-25 232,-25 232,-6 121,-6"/>
<text text-anchor="middle" x="176.5" y="-13" font-family="Helvetica,sans-Serif" font-size="10.00">src/entities/Sprite.cpp</text>
</a>
</g>
</g>
<!-- Node21&#45;&gt;Node24 -->
<g id="edge25" class="edge">
<title>Node21&#45;&gt;Node24</title>
<path fill="none" stroke="midnightblue" d="M720.56,-71.01C712.56,-69.5 704.31,-68.09 696.5,-67 495.16,-38.88 441.49,-61.54 240.5,-31 230.48,-29.48 219.69,-27.26 209.87,-25.02"/>
<polygon fill="midnightblue" stroke="midnightblue" points="720.05,-74.48 730.53,-72.97 721.39,-67.61 720.05,-74.48"/>
</g>
<!-- Node25 -->
<g id="node25" class="node">
<title>Node25</title>
<g id="a_node25"><a xlink:href="Image_8cpp.html" target="_top" xlink:title="Texturable ui element.">
<polygon fill="white" stroke="black" points="250,-6 250,-25 373,-25 373,-6 250,-6"/>
<text text-anchor="middle" x="311.5" y="-13" font-family="Helvetica,sans-Serif" font-size="10.00">src/entities/ui/Image.cpp</text>
</a>
</g>
</g>
<!-- Node21&#45;&gt;Node25 -->
<g id="edge28" class="edge">
<title>Node21&#45;&gt;Node25</title>
<path fill="none" stroke="midnightblue" d="M719.45,-71.05C711.79,-69.58 703.94,-68.17 696.5,-67 557.75,-45.11 521.22,-53.07 382.5,-31 371.94,-29.32 360.56,-27.16 350.08,-25.02"/>
<polygon fill="midnightblue" stroke="midnightblue" points="718.89,-74.5 729.37,-72.99 720.23,-67.63 718.89,-74.5"/>
</g>
<!-- Node26 -->
<g id="node26" class="node">
<title>Node26</title>
<g id="a_node26"><a xlink:href="Scene_8cpp.html" target="_top" xlink:title="Implementation of Scene class.">
<polygon fill="white" stroke="black" points="391.5,-6 391.5,-25 499.5,-25 499.5,-6 391.5,-6"/>
<text text-anchor="middle" x="445.5" y="-13" font-family="Helvetica,sans-Serif" font-size="10.00">src/scene/Scene.cpp</text>
</a>
</g>
</g>
<!-- Node21&#45;&gt;Node26 -->
<g id="edge31" class="edge">
<title>Node21&#45;&gt;Node26</title>
<path fill="none" stroke="midnightblue" d="M716.76,-71.02C709.95,-69.66 703.06,-68.29 696.5,-67 613.02,-50.6 591.75,-48.54 508.5,-31 499.71,-29.15 490.27,-27.04 481.43,-25.01"/>
<polygon fill="midnightblue" stroke="midnightblue" points="716.14,-74.46 726.63,-73 717.52,-67.6 716.14,-74.46"/>
</g>
</g>
</svg>
