<?xml version="1.0" encoding="UTF-8" standalone="no"?>
<!DOCTYPE svg PUBLIC "-//W3C//DTD SVG 1.1//EN"
 "http://www.w3.org/Graphics/SVG/1.1/DTD/svg11.dtd">
<!-- Generated by graphviz version 2.46.1 (20210215.1649)
 -->
<!-- Title: src/services/events/EventQueue.cpp Pages: 1 -->
<svg width="1823pt" height="319pt"
 viewBox="0.00 0.00 1823.00 319.00" xmlns="http://www.w3.org/2000/svg" xmlns:xlink="http://www.w3.org/1999/xlink">
<g id="graph0" class="graph" transform="scale(1 1) rotate(0) translate(4 315)">
<title>src/services/events/EventQueue.cpp</title>
<polygon fill="white" stroke="transparent" points="-4,4 -4,-315 1819,-315 1819,4 -4,4"/>
<!-- Node1 -->
<g id="node1" class="node">
<title>Node1</title>
<g id="a_node1"><a xlink:title="Implementation of EventQueue.">
<polygon fill="#bfbfbf" stroke="black" points="1602.5,-280.5 1602.5,-310.5 1704.5,-310.5 1704.5,-280.5 1602.5,-280.5"/>
<text text-anchor="start" x="1610.5" y="-298.5" font-family="Helvetica,sans-Serif" font-size="10.00">src/services/events</text>
<text text-anchor="middle" x="1653.5" y="-287.5" font-family="Helvetica,sans-Serif" font-size="10.00">/EventQueue.cpp</text>
</a>
</g>
</g>
<!-- Node2 -->
<g id="node2" class="node">
<title>Node2</title>
<g id="a_node2"><a xlink:title=" ">
<polygon fill="white" stroke="#bfbfbf" points="1331.5,-56.5 1331.5,-75.5 1437.5,-75.5 1437.5,-56.5 1331.5,-56.5"/>
<text text-anchor="middle" x="1384.5" y="-63.5" font-family="Helvetica,sans-Serif" font-size="10.00">SDL2/SDL_events.h</text>
</a>
</g>
</g>
<!-- Node1&#45;&gt;Node2 -->
<g id="edge1" class="edge">
<title>Node1&#45;&gt;Node2</title>
<path fill="none" stroke="midnightblue" d="M1657.05,-280.37C1664.66,-246.38 1678.49,-159.39 1634.5,-112 1628.11,-105.11 1519.36,-87.44 1447.42,-76.4"/>
<polygon fill="midnightblue" stroke="midnightblue" points="1447.94,-72.94 1437.52,-74.89 1446.88,-79.86 1447.94,-72.94"/>
</g>
<!-- Node3 -->
<g id="node3" class="node">
<title>Node3</title>
<g id="a_node3"><a xlink:title=" ">
<polygon fill="white" stroke="#bfbfbf" points="1681.5,-224.5 1681.5,-243.5 1737.5,-243.5 1737.5,-224.5 1681.5,-224.5"/>
<text text-anchor="middle" x="1709.5" y="-231.5" font-family="Helvetica,sans-Serif" font-size="10.00">algorithm</text>
</a>
</g>
</g>
<!-- Node1&#45;&gt;Node3 -->
<g id="edge2" class="edge">
<title>Node1&#45;&gt;Node3</title>
<path fill="none" stroke="midnightblue" d="M1666.77,-280.4C1675.08,-271.58 1685.8,-260.18 1694.42,-251.02"/>
<polygon fill="midnightblue" stroke="midnightblue" points="1697.05,-253.34 1701.35,-243.66 1691.95,-248.54 1697.05,-253.34"/>
</g>
<!-- Node4 -->
<g id="node4" class="node">
<title>Node4</title>
<g id="a_node4"><a xlink:title=" ">
<polygon fill="white" stroke="#bfbfbf" points="1756,-224.5 1756,-243.5 1815,-243.5 1815,-224.5 1756,-224.5"/>
<text text-anchor="middle" x="1785.5" y="-231.5" font-family="Helvetica,sans-Serif" font-size="10.00">functional</text>
</a>
</g>
</g>
<!-- Node1&#45;&gt;Node4 -->
<g id="edge3" class="edge">
<title>Node1&#45;&gt;Node4</title>
<path fill="none" stroke="midnightblue" d="M1684.78,-280.4C1706.73,-270.51 1735.84,-257.38 1757.12,-247.79"/>
<polygon fill="midnightblue" stroke="midnightblue" points="1758.61,-250.96 1766.29,-243.66 1755.74,-244.58 1758.61,-250.96"/>
</g>
<!-- Node5 -->
<g id="node5" class="node">
<title>Node5</title>
<g id="a_node5"><a xlink:href="Services_8h.html" target="_top" xlink:title="Implementation of core Services class.">
<polygon fill="white" stroke="black" points="778.5,-224.5 778.5,-243.5 880.5,-243.5 880.5,-224.5 778.5,-224.5"/>
<text text-anchor="middle" x="829.5" y="-231.5" font-family="Helvetica,sans-Serif" font-size="10.00">services/Services.h</text>
</a>
</g>
</g>
<!-- Node1&#45;&gt;Node5 -->
<g id="edge4" class="edge">
<title>Node1&#45;&gt;Node5</title>
<path fill="none" stroke="midnightblue" d="M1602.27,-290.8C1457.74,-280.36 1047.19,-250.72 890.92,-239.43"/>
<polygon fill="midnightblue" stroke="midnightblue" points="890.78,-235.92 880.55,-238.69 890.28,-242.9 890.78,-235.92"/>
</g>
<!-- Node24 -->
<g id="node24" class="node">
<title>Node24</title>
<g id="a_node24"><a xlink:href="EventQueue_8h.html" target="_top" xlink:title="Handles SDL_Events from main SDL_Queue. Can be hooked into by other services and notified when change...">
<polygon fill="white" stroke="black" points="1118.5,-168.5 1118.5,-187.5 1228.5,-187.5 1228.5,-168.5 1118.5,-168.5"/>
<text text-anchor="middle" x="1173.5" y="-175.5" font-family="Helvetica,sans-Serif" font-size="10.00">events/EventQueue.h</text>
</a>
</g>
</g>
<!-- Node1&#45;&gt;Node24 -->
<g id="edge64" class="edge">
<title>Node1&#45;&gt;Node24</title>
<path fill="none" stroke="midnightblue" d="M1602.13,-282.14C1507.82,-259.45 1308.51,-211.49 1218.87,-189.92"/>
<polygon fill="midnightblue" stroke="midnightblue" points="1219.54,-186.48 1209,-187.54 1217.91,-193.29 1219.54,-186.48"/>
</g>
<!-- Node6 -->
<g id="node6" class="node">
<title>Node6</title>
<g id="a_node6"><a xlink:title=" ">
<polygon fill="white" stroke="#bfbfbf" points="475,-168.5 475,-187.5 526,-187.5 526,-168.5 475,-168.5"/>
<text text-anchor="middle" x="500.5" y="-175.5" font-family="Helvetica,sans-Serif" font-size="10.00">memory</text>
</a>
</g>
</g>
<!-- Node5&#45;&gt;Node6 -->
<g id="edge5" class="edge">
<title>Node5&#45;&gt;Node6</title>
<path fill="none" stroke="midnightblue" d="M778.31,-226.89C721.31,-219.7 626.31,-206.61 535.91,-188.12"/>
<polygon fill="midnightblue" stroke="midnightblue" points="536.55,-184.68 526.05,-186.08 535.13,-191.53 536.55,-184.68"/>
</g>
<!-- Node7 -->
<g id="node7" class="node">
<title>Node7</title>
<g id="a_node7"><a xlink:href="AssetService_8h.html" target="_top" xlink:title="Implementation of AssetService.">
<polygon fill="white" stroke="black" points="338,-168.5 338,-187.5 453,-187.5 453,-168.5 338,-168.5"/>
<text text-anchor="middle" x="395.5" y="-175.5" font-family="Helvetica,sans-Serif" font-size="10.00">assets/AssetService.h</text>
</a>
</g>
</g>
<!-- Node5&#45;&gt;Node7 -->
<g id="edge6" class="edge">
<title>Node5&#45;&gt;Node7</title>
<path fill="none" stroke="midnightblue" d="M778.25,-226.74C707.78,-218.12 577,-202.06 465.5,-188 464.75,-187.91 463.99,-187.81 463.23,-187.71"/>
<polygon fill="midnightblue" stroke="midnightblue" points="463.54,-184.22 453.18,-186.44 462.66,-191.17 463.54,-184.22"/>
</g>
<!-- Node19 -->
<g id="node19" class="node">
<title>Node19</title>
<g id="a_node19"><a xlink:href="AudioService_8h.html" target="_top" xlink:title="Default audio service, can actually play audio.">
<polygon fill="white" stroke="black" points="163.5,-168.5 163.5,-187.5 271.5,-187.5 271.5,-168.5 163.5,-168.5"/>
<text text-anchor="middle" x="217.5" y="-175.5" font-family="Helvetica,sans-Serif" font-size="10.00">audio/AudioService.h</text>
</a>
</g>
</g>
<!-- Node5&#45;&gt;Node19 -->
<g id="edge24" class="edge">
<title>Node5&#45;&gt;Node19</title>
<path fill="none" stroke="midnightblue" d="M778.37,-228.49C667.27,-218.69 404.02,-195.46 281.85,-184.68"/>
<polygon fill="midnightblue" stroke="midnightblue" points="281.8,-181.16 271.53,-183.77 281.18,-188.13 281.8,-181.16"/>
</g>
<!-- Node20 -->
<g id="node20" class="node">
<title>Node20</title>
<g id="a_node20"><a xlink:href="ConfigService_8h.html" target="_top" xlink:title="Header for default Config Service.">
<polygon fill="white" stroke="black" points="544,-168.5 544,-187.5 657,-187.5 657,-168.5 544,-168.5"/>
<text text-anchor="middle" x="600.5" y="-175.5" font-family="Helvetica,sans-Serif" font-size="10.00">config/ConfigService.h</text>
</a>
</g>
</g>
<!-- Node5&#45;&gt;Node20 -->
<g id="edge28" class="edge">
<title>Node5&#45;&gt;Node20</title>
<path fill="none" stroke="midnightblue" d="M793.21,-224.44C753.52,-215.08 689.79,-200.06 646.59,-189.87"/>
<polygon fill="midnightblue" stroke="midnightblue" points="647.15,-186.41 636.62,-187.52 645.55,-193.22 647.15,-186.41"/>
</g>
<!-- Node22 -->
<g id="node22" class="node">
<title>Node22</title>
<g id="a_node22"><a xlink:href="DisplayService_8h.html" target="_top" xlink:title="Service that encapsulates SDL display related functionality.">
<polygon fill="white" stroke="black" points="846.5,-168.5 846.5,-187.5 968.5,-187.5 968.5,-168.5 846.5,-168.5"/>
<text text-anchor="middle" x="907.5" y="-175.5" font-family="Helvetica,sans-Serif" font-size="10.00">display/DisplayService.h</text>
</a>
</g>
</g>
<!-- Node5&#45;&gt;Node22 -->
<g id="edge32" class="edge">
<title>Node5&#45;&gt;Node22</title>
<path fill="none" stroke="midnightblue" d="M842.03,-224.32C854.09,-215.98 872.53,-203.21 886.77,-193.35"/>
<polygon fill="midnightblue" stroke="midnightblue" points="888.77,-196.22 895,-187.65 884.78,-190.47 888.77,-196.22"/>
</g>
<!-- Node5&#45;&gt;Node24 -->
<g id="edge39" class="edge">
<title>Node5&#45;&gt;Node24</title>
<path fill="none" stroke="midnightblue" d="M880.63,-224.97C941.51,-215.42 1043.26,-199.45 1109.36,-189.07"/>
<polygon fill="midnightblue" stroke="midnightblue" points="1109.91,-192.52 1119.25,-187.52 1108.83,-185.61 1109.91,-192.52"/>
</g>
<!-- Node26 -->
<g id="node26" class="node">
<title>Node26</title>
<g id="a_node26"><a xlink:href="InputService_8h.html" target="_top" xlink:title="General Purpose input listener. Handles Mouse, Keyboard, Joystick.">
<polygon fill="white" stroke="black" points="1266,-168.5 1266,-187.5 1369,-187.5 1369,-168.5 1266,-168.5"/>
<text text-anchor="middle" x="1317.5" y="-175.5" font-family="Helvetica,sans-Serif" font-size="10.00">input/InputService.h</text>
</a>
</g>
</g>
<!-- Node5&#45;&gt;Node26 -->
<g id="edge43" class="edge">
<title>Node5&#45;&gt;Node26</title>
<path fill="none" stroke="midnightblue" d="M880.71,-227.39C958.01,-218.91 1109.13,-202.3 1237.5,-188 1243.37,-187.35 1249.49,-186.66 1255.61,-185.98"/>
<polygon fill="midnightblue" stroke="midnightblue" points="1256.31,-189.42 1265.86,-184.83 1255.53,-182.46 1256.31,-189.42"/>
</g>
<!-- Node34 -->
<g id="node34" class="node">
<title>Node34</title>
<g id="a_node34"><a xlink:href="DebugLoggingService_8h.html" target="_top" xlink:title="Logging service that does the logging. Used for development.">
<polygon fill="white" stroke="black" points="675,-168.5 675,-187.5 828,-187.5 828,-168.5 675,-168.5"/>
<text text-anchor="middle" x="751.5" y="-175.5" font-family="Helvetica,sans-Serif" font-size="10.00">logging/DebugLoggingService.h</text>
</a>
</g>
</g>
<!-- Node5&#45;&gt;Node34 -->
<g id="edge56" class="edge">
<title>Node5&#45;&gt;Node34</title>
<path fill="none" stroke="midnightblue" d="M816.97,-224.32C804.91,-215.98 786.47,-203.21 772.23,-193.35"/>
<polygon fill="midnightblue" stroke="midnightblue" points="774.22,-190.47 764,-187.65 770.23,-196.22 774.22,-190.47"/>
</g>
<!-- Node36 -->
<g id="node36" class="node">
<title>Node36</title>
<g id="a_node36"><a xlink:href="SceneService_8h.html" target="_top" xlink:title="Service in charge of managing scenes.">
<polygon fill="white" stroke="black" points="986.5,-168.5 986.5,-187.5 1100.5,-187.5 1100.5,-168.5 986.5,-168.5"/>
<text text-anchor="middle" x="1043.5" y="-175.5" font-family="Helvetica,sans-Serif" font-size="10.00">scene/SceneService.h</text>
</a>
</g>
</g>
<!-- Node5&#45;&gt;Node36 -->
<g id="edge60" class="edge">
<title>Node5&#45;&gt;Node36</title>
<path fill="none" stroke="midnightblue" d="M863.41,-224.44C900.35,-215.12 959.55,-200.18 999.92,-190"/>
<polygon fill="midnightblue" stroke="midnightblue" points="1000.91,-193.36 1009.75,-187.52 999.2,-186.57 1000.91,-193.36"/>
</g>
<!-- Node8 -->
<g id="node8" class="node">
<title>Node8</title>
<g id="a_node8"><a xlink:title=" ">
<polygon fill="white" stroke="#bfbfbf" points="546,-112.5 546,-131.5 581,-131.5 581,-112.5 546,-112.5"/>
<text text-anchor="middle" x="563.5" y="-119.5" font-family="Helvetica,sans-Serif" font-size="10.00">map</text>
</a>
</g>
</g>
<!-- Node7&#45;&gt;Node8 -->
<g id="edge7" class="edge">
<title>Node7&#45;&gt;Node8</title>
<path fill="none" stroke="midnightblue" d="M422.56,-168.48C449.09,-160.1 490.9,-146.82 536.1,-132.1"/>
<polygon fill="midnightblue" stroke="midnightblue" points="537.37,-135.37 545.79,-128.94 535.2,-128.71 537.37,-135.37"/>
</g>
<!-- Node9 -->
<g id="node9" class="node">
<title>Node9</title>
<g id="a_node9"><a xlink:title=" ">
<polygon fill="white" stroke="#bfbfbf" points="659,-56.5 659,-75.5 700,-75.5 700,-56.5 659,-56.5"/>
<text text-anchor="middle" x="679.5" y="-63.5" font-family="Helvetica,sans-Serif" font-size="10.00">string</text>
</a>
</g>
</g>
<!-- Node7&#45;&gt;Node9 -->
<g id="edge8" class="edge">
<title>Node7&#45;&gt;Node9</title>
<path fill="none" stroke="midnightblue" d="M395.32,-168.34C395.54,-154.26 398.17,-126.54 414.5,-112 448.77,-81.5 586.73,-71.3 648.88,-68.22"/>
<polygon fill="midnightblue" stroke="midnightblue" points="649.04,-71.71 658.87,-67.75 648.72,-64.72 649.04,-71.71"/>
</g>
<!-- Node10 -->
<g id="node10" class="node">
<title>Node10</title>
<g id="a_node10"><a xlink:href="Font_8h.html" target="_top" xlink:title="Easy interface to interact with SDL fonts.">
<polygon fill="white" stroke="black" points="238,-112.5 238,-131.5 329,-131.5 329,-112.5 238,-112.5"/>
<text text-anchor="middle" x="283.5" y="-119.5" font-family="Helvetica,sans-Serif" font-size="10.00">../../assets/Font.h</text>
</a>
</g>
</g>
<!-- Node7&#45;&gt;Node10 -->
<g id="edge9" class="edge">
<title>Node7&#45;&gt;Node10</title>
<path fill="none" stroke="midnightblue" d="M377.51,-168.32C359.46,-159.62 331.45,-146.12 310.7,-136.11"/>
<polygon fill="midnightblue" stroke="midnightblue" points="311.98,-132.84 301.45,-131.65 308.94,-139.15 311.98,-132.84"/>
</g>
<!-- Node14 -->
<g id="node14" class="node">
<title>Node14</title>
<g id="a_node14"><a xlink:href="Sound_8h.html" target="_top" xlink:title="Implementation of Sound.">
<polygon fill="white" stroke="black" points="0,-112.5 0,-131.5 99,-131.5 99,-112.5 0,-112.5"/>
<text text-anchor="middle" x="49.5" y="-119.5" font-family="Helvetica,sans-Serif" font-size="10.00">../../assets/Sound.h</text>
</a>
</g>
</g>
<!-- Node7&#45;&gt;Node14 -->
<g id="edge14" class="edge">
<title>Node7&#45;&gt;Node14</title>
<path fill="none" stroke="midnightblue" d="M340.68,-168.44C277.55,-158.59 174.21,-142.46 109.13,-132.31"/>
<polygon fill="midnightblue" stroke="midnightblue" points="109.44,-128.81 99.02,-130.73 108.36,-135.73 109.44,-128.81"/>
</g>
<!-- Node16 -->
<g id="node16" class="node">
<title>Node16</title>
<g id="a_node16"><a xlink:href="Stream_8h.html" target="_top" xlink:title="Wrapper for sdl stream including ability to store stream pointer. Use for single instance sounds like...">
<polygon fill="white" stroke="black" points="117,-112.5 117,-131.5 220,-131.5 220,-112.5 117,-112.5"/>
<text text-anchor="middle" x="168.5" y="-119.5" font-family="Helvetica,sans-Serif" font-size="10.00">../../assets/Stream.h</text>
</a>
</g>
</g>
<!-- Node7&#45;&gt;Node16 -->
<g id="edge17" class="edge">
<title>Node7&#45;&gt;Node16</title>
<path fill="none" stroke="midnightblue" d="M359.53,-168.44C320.18,-159.08 257.01,-144.06 214.19,-133.87"/>
<polygon fill="midnightblue" stroke="midnightblue" points="214.84,-130.43 204.3,-131.52 213.22,-137.24 214.84,-130.43"/>
</g>
<!-- Node17 -->
<g id="node17" class="node">
<title>Node17</title>
<g id="a_node17"><a xlink:href="Texture_8h.html" target="_top" xlink:title="Easy interface to interact with sdl bitmaps.">
<polygon fill="white" stroke="black" points="423.5,-112.5 423.5,-131.5 527.5,-131.5 527.5,-112.5 423.5,-112.5"/>
<text text-anchor="middle" x="475.5" y="-119.5" font-family="Helvetica,sans-Serif" font-size="10.00">../../assets/Texture.h</text>
</a>
</g>
</g>
<!-- Node7&#45;&gt;Node17 -->
<g id="edge20" class="edge">
<title>Node7&#45;&gt;Node17</title>
<path fill="none" stroke="midnightblue" d="M408.35,-168.32C420.72,-159.98 439.63,-147.21 454.24,-137.35"/>
<polygon fill="midnightblue" stroke="midnightblue" points="456.35,-140.15 462.68,-131.65 452.43,-134.35 456.35,-140.15"/>
</g>
<!-- Node10&#45;&gt;Node9 -->
<g id="edge11" class="edge">
<title>Node10&#45;&gt;Node9</title>
<path fill="none" stroke="midnightblue" d="M329.03,-114.09C333.91,-113.38 338.81,-112.67 343.5,-112 455.68,-96.08 589.16,-78.65 648.46,-70.99"/>
<polygon fill="midnightblue" stroke="midnightblue" points="649.17,-74.43 658.64,-69.68 648.28,-67.49 649.17,-74.43"/>
</g>
<!-- Node11 -->
<g id="node11" class="node">
<title>Node11</title>
<g id="a_node11"><a xlink:title=" ">
<polygon fill="white" stroke="#bfbfbf" points="240.5,-56.5 240.5,-75.5 326.5,-75.5 326.5,-56.5 240.5,-56.5"/>
<text text-anchor="middle" x="283.5" y="-63.5" font-family="Helvetica,sans-Serif" font-size="10.00">SDL2/SDL_ttf.h</text>
</a>
</g>
</g>
<!-- Node10&#45;&gt;Node11 -->
<g id="edge10" class="edge">
<title>Node10&#45;&gt;Node11</title>
<path fill="none" stroke="midnightblue" d="M283.5,-112.08C283.5,-105.01 283.5,-94.86 283.5,-85.99"/>
<polygon fill="midnightblue" stroke="midnightblue" points="287,-85.75 283.5,-75.75 280,-85.75 287,-85.75"/>
</g>
<!-- Node12 -->
<g id="node12" class="node">
<title>Node12</title>
<g id="a_node12"><a xlink:href="Color_8h.html" target="_top" xlink:title="Helpers for creating colors without accessing SDL api directly.">
<polygon fill="white" stroke="black" points="436.5,-56.5 436.5,-75.5 514.5,-75.5 514.5,-56.5 436.5,-56.5"/>
<text text-anchor="middle" x="475.5" y="-63.5" font-family="Helvetica,sans-Serif" font-size="10.00">../color/Color.h</text>
</a>
</g>
</g>
<!-- Node10&#45;&gt;Node12 -->
<g id="edge12" class="edge">
<title>Node10&#45;&gt;Node12</title>
<path fill="none" stroke="midnightblue" d="M313.92,-112.44C346.78,-103.2 399.28,-88.44 435.47,-78.26"/>
<polygon fill="midnightblue" stroke="midnightblue" points="436.54,-81.59 445.22,-75.52 434.65,-74.85 436.54,-81.59"/>
</g>
<!-- Node13 -->
<g id="node13" class="node">
<title>Node13</title>
<g id="a_node13"><a xlink:title=" ">
<polygon fill="white" stroke="#bfbfbf" points="406.5,-0.5 406.5,-19.5 544.5,-19.5 544.5,-0.5 406.5,-0.5"/>
<text text-anchor="middle" x="475.5" y="-7.5" font-family="Helvetica,sans-Serif" font-size="10.00">SDL2/SDL2_gfxPrimitives.h</text>
</a>
</g>
</g>
<!-- Node12&#45;&gt;Node13 -->
<g id="edge13" class="edge">
<title>Node12&#45;&gt;Node13</title>
<path fill="none" stroke="midnightblue" d="M475.5,-56.08C475.5,-49.01 475.5,-38.86 475.5,-29.99"/>
<polygon fill="midnightblue" stroke="midnightblue" points="479,-29.75 475.5,-19.75 472,-29.75 479,-29.75"/>
</g>
<!-- Node14&#45;&gt;Node9 -->
<g id="edge16" class="edge">
<title>Node14&#45;&gt;Node9</title>
<path fill="none" stroke="midnightblue" d="M99.14,-113.05C101.97,-112.67 104.77,-112.32 107.5,-112 313.63,-87.93 563.1,-73.23 648.84,-68.6"/>
<polygon fill="midnightblue" stroke="midnightblue" points="649.13,-72.09 658.93,-68.06 648.75,-65.1 649.13,-72.09"/>
</g>
<!-- Node15 -->
<g id="node15" class="node">
<title>Node15</title>
<g id="a_node15"><a xlink:title=" ">
<polygon fill="white" stroke="#bfbfbf" points="59.5,-56.5 59.5,-75.5 159.5,-75.5 159.5,-56.5 59.5,-56.5"/>
<text text-anchor="middle" x="109.5" y="-63.5" font-family="Helvetica,sans-Serif" font-size="10.00">SDL2/SDL_mixer.h</text>
</a>
</g>
</g>
<!-- Node14&#45;&gt;Node15 -->
<g id="edge15" class="edge">
<title>Node14&#45;&gt;Node15</title>
<path fill="none" stroke="midnightblue" d="M59.14,-112.32C68.01,-104.34 81.37,-92.31 92.11,-82.65"/>
<polygon fill="midnightblue" stroke="midnightblue" points="94.59,-85.13 99.68,-75.83 89.91,-79.92 94.59,-85.13"/>
</g>
<!-- Node16&#45;&gt;Node9 -->
<g id="edge19" class="edge">
<title>Node16&#45;&gt;Node9</title>
<path fill="none" stroke="midnightblue" d="M220.19,-113.08C223,-112.7 225.78,-112.34 228.5,-112 385.95,-92.35 575.18,-75.74 648.44,-69.57"/>
<polygon fill="midnightblue" stroke="midnightblue" points="649.11,-73.02 658.78,-68.7 648.52,-66.05 649.11,-73.02"/>
</g>
<!-- Node16&#45;&gt;Node15 -->
<g id="edge18" class="edge">
<title>Node16&#45;&gt;Node15</title>
<path fill="none" stroke="midnightblue" d="M159.02,-112.32C150.3,-104.34 137.16,-92.31 126.6,-82.65"/>
<polygon fill="midnightblue" stroke="midnightblue" points="128.89,-80 119.15,-75.83 124.17,-85.17 128.89,-80"/>
</g>
<!-- Node17&#45;&gt;Node9 -->
<g id="edge22" class="edge">
<title>Node17&#45;&gt;Node9</title>
<path fill="none" stroke="midnightblue" d="M507.82,-112.44C546.54,-102.2 610.91,-85.16 648.86,-75.11"/>
<polygon fill="midnightblue" stroke="midnightblue" points="650.05,-78.42 658.82,-72.47 648.26,-71.65 650.05,-78.42"/>
</g>
<!-- Node17&#45;&gt;Node12 -->
<g id="edge23" class="edge">
<title>Node17&#45;&gt;Node12</title>
<path fill="none" stroke="midnightblue" d="M475.5,-112.08C475.5,-105.01 475.5,-94.86 475.5,-85.99"/>
<polygon fill="midnightblue" stroke="midnightblue" points="479,-85.75 475.5,-75.75 472,-85.75 479,-85.75"/>
</g>
<!-- Node18 -->
<g id="node18" class="node">
<title>Node18</title>
<g id="a_node18"><a xlink:title=" ">
<polygon fill="white" stroke="#bfbfbf" points="906,-56.5 906,-75.5 977,-75.5 977,-56.5 906,-56.5"/>
<text text-anchor="middle" x="941.5" y="-63.5" font-family="Helvetica,sans-Serif" font-size="10.00">SDL2/SDL.h</text>
</a>
</g>
</g>
<!-- Node17&#45;&gt;Node18 -->
<g id="edge21" class="edge">
<title>Node17&#45;&gt;Node18</title>
<path fill="none" stroke="midnightblue" d="M527.73,-113.17C530.69,-112.76 533.63,-112.37 536.5,-112 666.67,-95.17 820.87,-79.1 895.91,-71.53"/>
<polygon fill="midnightblue" stroke="midnightblue" points="896.37,-75 905.96,-70.52 895.66,-68.03 896.37,-75"/>
</g>
<!-- Node19&#45;&gt;Node9 -->
<g id="edge25" class="edge">
<title>Node19&#45;&gt;Node9</title>
<path fill="none" stroke="midnightblue" d="M239.64,-168.46C280.72,-152.72 367.38,-120.01 398.5,-112 487.84,-89.02 596.34,-75.62 648.53,-70.05"/>
<polygon fill="midnightblue" stroke="midnightblue" points="649.2,-73.5 658.78,-68.98 648.47,-66.54 649.2,-73.5"/>
</g>
<!-- Node19&#45;&gt;Node14 -->
<g id="edge26" class="edge">
<title>Node19&#45;&gt;Node14</title>
<path fill="none" stroke="midnightblue" d="M190.88,-168.44C162.49,-159.32 117.36,-144.81 85.75,-134.65"/>
<polygon fill="midnightblue" stroke="midnightblue" points="86.59,-131.24 76,-131.52 84.44,-137.91 86.59,-131.24"/>
</g>
<!-- Node19&#45;&gt;Node16 -->
<g id="edge27" class="edge">
<title>Node19&#45;&gt;Node16</title>
<path fill="none" stroke="midnightblue" d="M209.41,-168.08C202.34,-160.3 191.91,-148.8 183.35,-139.37"/>
<polygon fill="midnightblue" stroke="midnightblue" points="185.75,-136.8 176.44,-131.75 180.57,-141.51 185.75,-136.8"/>
</g>
<!-- Node20&#45;&gt;Node8 -->
<g id="edge29" class="edge">
<title>Node20&#45;&gt;Node8</title>
<path fill="none" stroke="midnightblue" d="M594.39,-168.08C589.22,-160.53 581.65,-149.49 575.31,-140.23"/>
<polygon fill="midnightblue" stroke="midnightblue" points="578.04,-138.02 569.5,-131.75 572.26,-141.98 578.04,-138.02"/>
</g>
<!-- Node20&#45;&gt;Node9 -->
<g id="edge31" class="edge">
<title>Node20&#45;&gt;Node9</title>
<path fill="none" stroke="midnightblue" d="M617.39,-168.35C630.94,-160.58 649.45,-147.95 660.5,-132 670.02,-118.26 674.83,-99.73 677.22,-85.97"/>
<polygon fill="midnightblue" stroke="midnightblue" points="680.73,-86.15 678.71,-75.74 673.8,-85.13 680.73,-86.15"/>
</g>
<!-- Node21 -->
<g id="node21" class="node">
<title>Node21</title>
<g id="a_node21"><a xlink:title=" ">
<polygon fill="white" stroke="#bfbfbf" points="599.5,-112.5 599.5,-131.5 651.5,-131.5 651.5,-112.5 599.5,-112.5"/>
<text text-anchor="middle" x="625.5" y="-119.5" font-family="Helvetica,sans-Serif" font-size="10.00">sstream</text>
</a>
</g>
</g>
<!-- Node20&#45;&gt;Node21 -->
<g id="edge30" class="edge">
<title>Node20&#45;&gt;Node21</title>
<path fill="none" stroke="midnightblue" d="M604.63,-168.08C608.01,-160.77 612.92,-150.18 617.12,-141.1"/>
<polygon fill="midnightblue" stroke="midnightblue" points="620.42,-142.3 621.45,-131.75 614.07,-139.36 620.42,-142.3"/>
</g>
<!-- Node22&#45;&gt;Node9 -->
<g id="edge34" class="edge">
<title>Node22&#45;&gt;Node9</title>
<path fill="none" stroke="midnightblue" d="M907.02,-168.38C905.77,-154.37 901.19,-126.74 884.5,-112 858.87,-89.37 760.67,-75.74 710.05,-70.07"/>
<polygon fill="midnightblue" stroke="midnightblue" points="710.34,-66.58 700.02,-68.98 709.58,-73.54 710.34,-66.58"/>
</g>
<!-- Node22&#45;&gt;Node12 -->
<g id="edge35" class="edge">
<title>Node22&#45;&gt;Node12</title>
<path fill="none" stroke="midnightblue" d="M875.97,-168.5C829.06,-155.9 738.09,-131.64 660.5,-112 613.2,-100.02 558.93,-86.9 521.46,-77.93"/>
<polygon fill="midnightblue" stroke="midnightblue" points="521.9,-74.43 511.36,-75.51 520.27,-81.24 521.9,-74.43"/>
</g>
<!-- Node22&#45;&gt;Node18 -->
<g id="edge33" class="edge">
<title>Node22&#45;&gt;Node18</title>
<path fill="none" stroke="midnightblue" d="M910.17,-168.37C915.68,-150.54 928.43,-109.3 935.85,-85.27"/>
<polygon fill="midnightblue" stroke="midnightblue" points="939.24,-86.18 938.84,-75.59 932.55,-84.11 939.24,-86.18"/>
</g>
<!-- Node23 -->
<g id="node23" class="node">
<title>Node23</title>
<g id="a_node23"><a xlink:href="Service_8h.html" target="_top" xlink:title="Service subscriber that can listen for events.">
<polygon fill="white" stroke="black" points="1070,-112.5 1070,-131.5 1135,-131.5 1135,-112.5 1070,-112.5"/>
<text text-anchor="middle" x="1102.5" y="-119.5" font-family="Helvetica,sans-Serif" font-size="10.00">../Service.h</text>
</a>
</g>
</g>
<!-- Node22&#45;&gt;Node23 -->
<g id="edge36" class="edge">
<title>Node22&#45;&gt;Node23</title>
<path fill="none" stroke="midnightblue" d="M938.4,-168.44C971.77,-159.2 1025.09,-144.44 1061.85,-134.26"/>
<polygon fill="midnightblue" stroke="midnightblue" points="1063.04,-137.56 1071.75,-131.52 1061.17,-130.81 1063.04,-137.56"/>
</g>
<!-- Node23&#45;&gt;Node2 -->
<g id="edge37" class="edge">
<title>Node23&#45;&gt;Node2</title>
<path fill="none" stroke="midnightblue" d="M1135.12,-114.75C1182.72,-105.64 1271.8,-88.58 1329.61,-77.51"/>
<polygon fill="midnightblue" stroke="midnightblue" points="1330.5,-80.9 1339.66,-75.59 1329.18,-74.03 1330.5,-80.9"/>
</g>
<!-- Node23&#45;&gt;Node9 -->
<g id="edge38" class="edge">
<title>Node23&#45;&gt;Node9</title>
<path fill="none" stroke="midnightblue" d="M1070,-113.72C1066.8,-113.1 1063.59,-112.51 1060.5,-112 931.03,-90.53 775.16,-75.45 710.23,-69.65"/>
<polygon fill="midnightblue" stroke="midnightblue" points="710.52,-66.16 700.25,-68.76 709.9,-73.13 710.52,-66.16"/>
</g>
<!-- Node24&#45;&gt;Node18 -->
<g id="edge40" class="edge">
<title>Node24&#45;&gt;Node18</title>
<path fill="none" stroke="midnightblue" d="M1172.17,-168.34C1169.55,-154.26 1162.3,-126.53 1144.5,-112 1120.77,-92.63 1039.31,-79.17 987.08,-72.29"/>
<polygon fill="midnightblue" stroke="midnightblue" points="987.41,-68.81 977.05,-71 986.52,-75.75 987.41,-68.81"/>
</g>
<!-- Node24&#45;&gt;Node23 -->
<g id="edge42" class="edge">
<title>Node24&#45;&gt;Node23</title>
<path fill="none" stroke="midnightblue" d="M1162.09,-168.32C1151.39,-160.18 1135.16,-147.84 1122.34,-138.09"/>
<polygon fill="midnightblue" stroke="midnightblue" points="1124.19,-135.1 1114.11,-131.83 1119.96,-140.67 1124.19,-135.1"/>
</g>
<!-- Node25 -->
<g id="node25" class="node">
<title>Node25</title>
<g id="a_node25"><a xlink:title=" ">
<polygon fill="white" stroke="#bfbfbf" points="1007.5,-112.5 1007.5,-131.5 1051.5,-131.5 1051.5,-112.5 1007.5,-112.5"/>
<text text-anchor="middle" x="1029.5" y="-119.5" font-family="Helvetica,sans-Serif" font-size="10.00">vector</text>
</a>
</g>
</g>
<!-- Node24&#45;&gt;Node25 -->
<g id="edge41" class="edge">
<title>Node24&#45;&gt;Node25</title>
<path fill="none" stroke="midnightblue" d="M1150.68,-168.44C1126.53,-159.39 1088.22,-145.02 1061.15,-134.87"/>
<polygon fill="midnightblue" stroke="midnightblue" points="1062.33,-131.57 1051.74,-131.34 1059.87,-138.13 1062.33,-131.57"/>
</g>
<!-- Node26&#45;&gt;Node2 -->
<g id="edge44" class="edge">
<title>Node26&#45;&gt;Node2</title>
<path fill="none" stroke="midnightblue" d="M1342.66,-168.38C1358.92,-161.34 1378.79,-149.65 1388.5,-132 1396.33,-117.77 1394.11,-99.05 1390.66,-85.36"/>
<polygon fill="midnightblue" stroke="midnightblue" points="1393.98,-84.24 1387.8,-75.63 1387.27,-86.22 1393.98,-84.24"/>
</g>
<!-- Node26&#45;&gt;Node9 -->
<g id="edge46" class="edge">
<title>Node26&#45;&gt;Node9</title>
<path fill="none" stroke="midnightblue" d="M1299.56,-168.45C1268.67,-154.14 1203.1,-125.59 1144.5,-112 984.1,-74.79 785.67,-68.3 710.4,-67.2"/>
<polygon fill="midnightblue" stroke="midnightblue" points="710.25,-63.7 700.21,-67.08 710.16,-70.7 710.25,-63.7"/>
</g>
<!-- Node26&#45;&gt;Node23 -->
<g id="edge47" class="edge">
<title>Node26&#45;&gt;Node23</title>
<path fill="none" stroke="midnightblue" d="M1283.43,-168.44C1245.88,-159.01 1185.44,-143.83 1144.86,-133.64"/>
<polygon fill="midnightblue" stroke="midnightblue" points="1145.55,-130.2 1135,-131.16 1143.85,-136.99 1145.55,-130.2"/>
</g>
<!-- Node27 -->
<g id="node27" class="node">
<title>Node27</title>
<g id="a_node27"><a xlink:title=" ">
<polygon fill="white" stroke="#bfbfbf" points="1229.5,-112.5 1229.5,-131.5 1283.5,-131.5 1283.5,-112.5 1229.5,-112.5"/>
<text text-anchor="middle" x="1256.5" y="-119.5" font-family="Helvetica,sans-Serif" font-size="10.00">iostream</text>
</a>
</g>
</g>
<!-- Node26&#45;&gt;Node27 -->
<g id="edge45" class="edge">
<title>Node26&#45;&gt;Node27</title>
<path fill="none" stroke="midnightblue" d="M1307.7,-168.32C1298.68,-160.34 1285.09,-148.31 1274.18,-138.65"/>
<polygon fill="midnightblue" stroke="midnightblue" points="1276.29,-135.84 1266.48,-131.83 1271.65,-141.08 1276.29,-135.84"/>
</g>
<!-- Node28 -->
<g id="node28" class="node">
<title>Node28</title>
<g id="a_node28"><a xlink:href="JoystickState_8h.html" target="_top" xlink:title="Container for storing Joystick state.">
<polygon fill="white" stroke="black" points="1436,-112.5 1436,-131.5 1519,-131.5 1519,-112.5 1436,-112.5"/>
<text text-anchor="middle" x="1477.5" y="-119.5" font-family="Helvetica,sans-Serif" font-size="10.00">JoystickState.h</text>
</a>
</g>
</g>
<!-- Node26&#45;&gt;Node28 -->
<g id="edge48" class="edge">
<title>Node26&#45;&gt;Node28</title>
<path fill="none" stroke="midnightblue" d="M1342.85,-168.44C1369.77,-159.36 1412.5,-144.94 1442.59,-134.78"/>
<polygon fill="midnightblue" stroke="midnightblue" points="1443.91,-138.03 1452.27,-131.52 1441.67,-131.4 1443.91,-138.03"/>
</g>
<!-- Node30 -->
<g id="node30" class="node">
<title>Node30</title>
<g id="a_node30"><a xlink:href="KeyboardState_8h.html" target="_top" xlink:title="Container for storing Keyboard state.">
<polygon fill="white" stroke="black" points="1537.5,-112.5 1537.5,-131.5 1625.5,-131.5 1625.5,-112.5 1537.5,-112.5"/>
<text text-anchor="middle" x="1581.5" y="-119.5" font-family="Helvetica,sans-Serif" font-size="10.00">KeyboardState.h</text>
</a>
</g>
</g>
<!-- Node26&#45;&gt;Node30 -->
<g id="edge51" class="edge">
<title>Node26&#45;&gt;Node30</title>
<path fill="none" stroke="midnightblue" d="M1359.33,-168.44C1405.58,-158.98 1480.11,-143.74 1529.94,-133.55"/>
<polygon fill="midnightblue" stroke="midnightblue" points="1530.77,-136.95 1539.86,-131.52 1529.37,-130.09 1530.77,-136.95"/>
</g>
<!-- Node32 -->
<g id="node32" class="node">
<title>Node32</title>
<g id="a_node32"><a xlink:href="MouseState_8h.html" target="_top" xlink:title="Container for storing Mouse state.">
<polygon fill="white" stroke="black" points="1302,-112.5 1302,-131.5 1379,-131.5 1379,-112.5 1302,-112.5"/>
<text text-anchor="middle" x="1340.5" y="-119.5" font-family="Helvetica,sans-Serif" font-size="10.00">MouseState.h</text>
</a>
</g>
</g>
<!-- Node26&#45;&gt;Node32 -->
<g id="edge53" class="edge">
<title>Node26&#45;&gt;Node32</title>
<path fill="none" stroke="midnightblue" d="M1321.3,-168.08C1324.41,-160.77 1328.92,-150.18 1332.79,-141.1"/>
<polygon fill="midnightblue" stroke="midnightblue" points="1336.07,-142.32 1336.77,-131.75 1329.63,-139.58 1336.07,-142.32"/>
</g>
<!-- Node28&#45;&gt;Node2 -->
<g id="edge49" class="edge">
<title>Node28&#45;&gt;Node2</title>
<path fill="none" stroke="midnightblue" d="M1462.56,-112.32C1447.91,-103.82 1425.37,-90.73 1408.26,-80.8"/>
<polygon fill="midnightblue" stroke="midnightblue" points="1409.81,-77.65 1399.4,-75.65 1406.3,-83.7 1409.81,-77.65"/>
</g>
<!-- Node29 -->
<g id="node29" class="node">
<title>Node29</title>
<g id="a_node29"><a xlink:href="JoystickCodes_8h.html" target="_top" xlink:title="Defines for codes used for joystick.">
<polygon fill="white" stroke="black" points="1455.5,-56.5 1455.5,-75.5 1543.5,-75.5 1543.5,-56.5 1455.5,-56.5"/>
<text text-anchor="middle" x="1499.5" y="-63.5" font-family="Helvetica,sans-Serif" font-size="10.00">JoystickCodes.h</text>
</a>
</g>
</g>
<!-- Node28&#45;&gt;Node29 -->
<g id="edge50" class="edge">
<title>Node28&#45;&gt;Node29</title>
<path fill="none" stroke="midnightblue" d="M1481.13,-112.08C1484.11,-104.77 1488.43,-94.18 1492.12,-85.1"/>
<polygon fill="midnightblue" stroke="midnightblue" points="1495.4,-86.33 1495.93,-75.75 1488.92,-83.69 1495.4,-86.33"/>
</g>
<!-- Node31 -->
<g id="node31" class="node">
<title>Node31</title>
<g id="a_node31"><a xlink:href="KeyboardKeys_8h.html" target="_top" xlink:title="Defenitions of keys that can be used by input manager.">
<polygon fill="white" stroke="black" points="1561.5,-56.5 1561.5,-75.5 1647.5,-75.5 1647.5,-56.5 1561.5,-56.5"/>
<text text-anchor="middle" x="1604.5" y="-63.5" font-family="Helvetica,sans-Serif" font-size="10.00">KeyboardKeys.h</text>
</a>
</g>
</g>
<!-- Node30&#45;&gt;Node31 -->
<g id="edge52" class="edge">
<title>Node30&#45;&gt;Node31</title>
<path fill="none" stroke="midnightblue" d="M1585.3,-112.08C1588.41,-104.77 1592.92,-94.18 1596.79,-85.1"/>
<polygon fill="midnightblue" stroke="midnightblue" points="1600.07,-86.32 1600.77,-75.75 1593.63,-83.58 1600.07,-86.32"/>
</g>
<!-- Node32&#45;&gt;Node2 -->
<g id="edge54" class="edge">
<title>Node32&#45;&gt;Node2</title>
<path fill="none" stroke="midnightblue" d="M1347.77,-112.08C1354.04,-104.38 1363.29,-93.03 1370.93,-83.65"/>
<polygon fill="midnightblue" stroke="midnightblue" points="1373.77,-85.71 1377.37,-75.75 1368.34,-81.29 1373.77,-85.71"/>
</g>
<!-- Node33 -->
<g id="node33" class="node">
<title>Node33</title>
<g id="a_node33"><a xlink:title=" ">
<polygon fill="white" stroke="#bfbfbf" points="1207.5,-56.5 1207.5,-75.5 1313.5,-75.5 1313.5,-56.5 1207.5,-56.5"/>
<text text-anchor="middle" x="1260.5" y="-63.5" font-family="Helvetica,sans-Serif" font-size="10.00">SDL2/SDL_mouse.h</text>
</a>
</g>
</g>
<!-- Node32&#45;&gt;Node33 -->
<g id="edge55" class="edge">
<title>Node32&#45;&gt;Node33</title>
<path fill="none" stroke="midnightblue" d="M1327.65,-112.32C1315.28,-103.98 1296.37,-91.21 1281.76,-81.35"/>
<polygon fill="midnightblue" stroke="midnightblue" points="1283.57,-78.35 1273.32,-75.65 1279.65,-84.15 1283.57,-78.35"/>
</g>
<!-- Node34&#45;&gt;Node9 -->
<g id="edge57" class="edge">
<title>Node34&#45;&gt;Node9</title>
<path fill="none" stroke="midnightblue" d="M745.85,-168.37C733.97,-150.22 706.21,-107.8 690.62,-83.99"/>
<polygon fill="midnightblue" stroke="midnightblue" points="693.53,-82.04 685.12,-75.59 687.67,-85.88 693.53,-82.04"/>
</g>
<!-- Node35 -->
<g id="node35" class="node">
<title>Node35</title>
<g id="a_node35"><a xlink:href="LoggingService_8h.html" target="_top" xlink:title="Default logging service. Does nothing. Use in production.">
<polygon fill="white" stroke="black" points="783.5,-112.5 783.5,-131.5 875.5,-131.5 875.5,-112.5 783.5,-112.5"/>
<text text-anchor="middle" x="829.5" y="-119.5" font-family="Helvetica,sans-Serif" font-size="10.00">LoggingService.h</text>
</a>
</g>
</g>
<!-- Node34&#45;&gt;Node35 -->
<g id="edge58" class="edge">
<title>Node34&#45;&gt;Node35</title>
<path fill="none" stroke="midnightblue" d="M764.03,-168.32C776.09,-159.98 794.53,-147.21 808.77,-137.35"/>
<polygon fill="midnightblue" stroke="midnightblue" points="810.77,-140.22 817,-131.65 806.78,-134.47 810.77,-140.22"/>
</g>
<!-- Node35&#45;&gt;Node9 -->
<g id="edge59" class="edge">
<title>Node35&#45;&gt;Node9</title>
<path fill="none" stroke="midnightblue" d="M805.73,-112.44C779.83,-103.12 738.32,-88.18 710.03,-77.99"/>
<polygon fill="midnightblue" stroke="midnightblue" points="710.85,-74.57 700.26,-74.47 708.48,-81.15 710.85,-74.57"/>
</g>
<!-- Node36&#45;&gt;Node9 -->
<g id="edge61" class="edge">
<title>Node36&#45;&gt;Node9</title>
<path fill="none" stroke="midnightblue" d="M1028.16,-168.32C1003.06,-154.48 951.32,-127.38 904.5,-112 836.85,-89.77 753.97,-76.65 710.11,-70.75"/>
<polygon fill="midnightblue" stroke="midnightblue" points="710.46,-67.26 700.09,-69.44 709.55,-74.2 710.46,-67.26"/>
</g>
<!-- Node36&#45;&gt;Node23 -->
<g id="edge63" class="edge">
<title>Node36&#45;&gt;Node23</title>
<path fill="none" stroke="midnightblue" d="M1052.98,-168.32C1061.7,-160.34 1074.84,-148.31 1085.4,-138.65"/>
<polygon fill="midnightblue" stroke="midnightblue" points="1087.83,-141.17 1092.85,-131.83 1083.11,-136 1087.83,-141.17"/>
</g>
<!-- Node36&#45;&gt;Node25 -->
<g id="edge62" class="edge">
<title>Node36&#45;&gt;Node25</title>
<path fill="none" stroke="midnightblue" d="M1041.19,-168.08C1039.33,-160.93 1036.66,-150.64 1034.35,-141.69"/>
<polygon fill="midnightblue" stroke="midnightblue" points="1037.67,-140.55 1031.77,-131.75 1030.89,-142.31 1037.67,-140.55"/>
</g>
</g>
</svg>
