<?xml version="1.0" encoding="UTF-8" standalone="no"?>
<!DOCTYPE svg PUBLIC "-//W3C//DTD SVG 1.1//EN"
 "http://www.w3.org/Graphics/SVG/1.1/DTD/svg11.dtd">
<!-- Generated by graphviz version 2.46.1 (20210215.1649)
 -->
<!-- Title: include/services/events/EventQueue.h Pages: 1 -->
<svg width="259pt" height="151pt"
 viewBox="0.00 0.00 259.00 151.00" xmlns="http://www.w3.org/2000/svg" xmlns:xlink="http://www.w3.org/1999/xlink">
<g id="graph0" class="graph" transform="scale(1 1) rotate(0) translate(4 147)">
<title>include/services/events/EventQueue.h</title>
<polygon fill="white" stroke="transparent" points="-4,4 -4,-147 255,-147 255,4 -4,4"/>
<!-- Node1 -->
<g id="node1" class="node">
<title>Node1</title>
<g id="a_node1"><a xlink:title="Handles SDL_Events from main SDL_Queue. Can be hooked into by other services and notified when change...">
<polygon fill="#bfbfbf" stroke="black" points="52,-112.5 52,-142.5 171,-142.5 171,-112.5 52,-112.5"/>
<text text-anchor="start" x="60" y="-130.5" font-family="Helvetica,sans-Serif" font-size="10.00">include/services/events</text>
<text text-anchor="middle" x="111.5" y="-119.5" font-family="Helvetica,sans-Serif" font-size="10.00">/EventQueue.h</text>
</a>
</g>
</g>
<!-- Node2 -->
<g id="node2" class="node">
<title>Node2</title>
<g id="a_node2"><a xlink:title=" ">
<polygon fill="white" stroke="#bfbfbf" points="0,-56.5 0,-75.5 71,-75.5 71,-56.5 0,-56.5"/>
<text text-anchor="middle" x="35.5" y="-63.5" font-family="Helvetica,sans-Serif" font-size="10.00">SDL2/SDL.h</text>
</a>
</g>
</g>
<!-- Node1&#45;&gt;Node2 -->
<g id="edge1" class="edge">
<title>Node1&#45;&gt;Node2</title>
<path fill="none" stroke="midnightblue" d="M93.49,-112.4C81.76,-103.22 66.48,-91.26 54.56,-81.92"/>
<polygon fill="midnightblue" stroke="midnightblue" points="56.59,-79.07 46.56,-75.66 52.28,-84.58 56.59,-79.07"/>
</g>
<!-- Node3 -->
<g id="node3" class="node">
<title>Node3</title>
<g id="a_node3"><a xlink:title=" ">
<polygon fill="white" stroke="#bfbfbf" points="89.5,-56.5 89.5,-75.5 133.5,-75.5 133.5,-56.5 89.5,-56.5"/>
<text text-anchor="middle" x="111.5" y="-63.5" font-family="Helvetica,sans-Serif" font-size="10.00">vector</text>
</a>
</g>
</g>
<!-- Node1&#45;&gt;Node3 -->
<g id="edge2" class="edge">
<title>Node1&#45;&gt;Node3</title>
<path fill="none" stroke="midnightblue" d="M111.5,-112.4C111.5,-104.47 111.5,-94.46 111.5,-85.86"/>
<polygon fill="midnightblue" stroke="midnightblue" points="115,-85.66 111.5,-75.66 108,-85.66 115,-85.66"/>
</g>
<!-- Node4 -->
<g id="node4" class="node">
<title>Node4</title>
<g id="a_node4"><a xlink:href="Service_8h.html" target="_top" xlink:title="Service subscriber that can listen for events.">
<polygon fill="white" stroke="black" points="152,-56.5 152,-75.5 217,-75.5 217,-56.5 152,-56.5"/>
<text text-anchor="middle" x="184.5" y="-63.5" font-family="Helvetica,sans-Serif" font-size="10.00">../Service.h</text>
</a>
</g>
</g>
<!-- Node1&#45;&gt;Node4 -->
<g id="edge3" class="edge">
<title>Node1&#45;&gt;Node4</title>
<path fill="none" stroke="midnightblue" d="M128.8,-112.4C139.95,-103.31 154.45,-91.49 165.86,-82.19"/>
<polygon fill="midnightblue" stroke="midnightblue" points="168.34,-84.69 173.88,-75.66 163.92,-79.26 168.34,-84.69"/>
</g>
<!-- Node5 -->
<g id="node5" class="node">
<title>Node5</title>
<g id="a_node5"><a xlink:title=" ">
<polygon fill="white" stroke="#bfbfbf" points="85.5,-0.5 85.5,-19.5 191.5,-19.5 191.5,-0.5 85.5,-0.5"/>
<text text-anchor="middle" x="138.5" y="-7.5" font-family="Helvetica,sans-Serif" font-size="10.00">SDL2/SDL_events.h</text>
</a>
</g>
</g>
<!-- Node4&#45;&gt;Node5 -->
<g id="edge4" class="edge">
<title>Node4&#45;&gt;Node5</title>
<path fill="none" stroke="midnightblue" d="M176.9,-56.08C170.27,-48.3 160.48,-36.8 152.44,-27.37"/>
<polygon fill="midnightblue" stroke="midnightblue" points="155.1,-25.09 145.95,-19.75 149.77,-29.63 155.1,-25.09"/>
</g>
<!-- Node6 -->
<g id="node6" class="node">
<title>Node6</title>
<g id="a_node6"><a xlink:title=" ">
<polygon fill="white" stroke="#bfbfbf" points="210,-0.5 210,-19.5 251,-19.5 251,-0.5 210,-0.5"/>
<text text-anchor="middle" x="230.5" y="-7.5" font-family="Helvetica,sans-Serif" font-size="10.00">string</text>
</a>
</g>
</g>
<!-- Node4&#45;&gt;Node6 -->
<g id="edge5" class="edge">
<title>Node4&#45;&gt;Node6</title>
<path fill="none" stroke="midnightblue" d="M192.1,-56.08C198.73,-48.3 208.52,-36.8 216.56,-27.37"/>
<polygon fill="midnightblue" stroke="midnightblue" points="219.23,-29.63 223.05,-19.75 213.9,-25.09 219.23,-29.63"/>
</g>
</g>
</svg>
