<?xml version="1.0" encoding="UTF-8" standalone="no"?>
<!DOCTYPE svg PUBLIC "-//W3C//DTD SVG 1.1//EN"
 "http://www.w3.org/Graphics/SVG/1.1/DTD/svg11.dtd">
<!-- Generated by graphviz version 2.46.1 (20210215.1649)
 -->
<!-- Title: include/common/Exceptions.h Pages: 1 -->
<svg width="2072pt" height="162pt"
 viewBox="0.00 0.00 2071.50 162.00" xmlns="http://www.w3.org/2000/svg" xmlns:xlink="http://www.w3.org/1999/xlink">
<g id="graph0" class="graph" transform="scale(1 1) rotate(0) translate(4 158)">
<title>include/common/Exceptions.h</title>
<polygon fill="white" stroke="transparent" points="-4,4 -4,-158 2067.5,-158 2067.5,4 -4,4"/>
<!-- Node1 -->
<g id="node1" class="node">
<title>Node1</title>
<g id="a_node1"><a xlink:title="Interally used exceptions. These can be handled properly in the main game class.">
<polygon fill="#bfbfbf" stroke="black" points="588.5,-134.5 588.5,-153.5 734.5,-153.5 734.5,-134.5 588.5,-134.5"/>
<text text-anchor="middle" x="661.5" y="-141.5" font-family="Helvetica,sans-Serif" font-size="10.00">include/common/Exceptions.h</text>
</a>
</g>
</g>
<!-- Node2 -->
<g id="node2" class="node">
<title>Node2</title>
<g id="a_node2"><a xlink:href="Font_8cpp.html" target="_top" xlink:title="Implementation of Font.">
<polygon fill="white" stroke="black" points="0,-73 0,-92 103,-92 103,-73 0,-73"/>
<text text-anchor="middle" x="51.5" y="-80" font-family="Helvetica,sans-Serif" font-size="10.00">src/assets/Font.cpp</text>
</a>
</g>
</g>
<!-- Node1&#45;&gt;Node2 -->
<g id="edge1" class="edge">
<title>Node1&#45;&gt;Node2</title>
<path fill="none" stroke="midnightblue" d="M577.91,-140.2C469.7,-135.66 275.53,-124.37 111.5,-98 102.08,-96.49 91.96,-94.27 82.76,-92.03"/>
<polygon fill="midnightblue" stroke="midnightblue" points="577.98,-143.71 588.11,-140.62 578.26,-136.71 577.98,-143.71"/>
</g>
<!-- Node3 -->
<g id="node3" class="node">
<title>Node3</title>
<g id="a_node3"><a xlink:href="Sound_8cpp_source.html" target="_top" xlink:title=" ">
<polygon fill="white" stroke="black" points="121,-73 121,-92 232,-92 232,-73 121,-73"/>
<text text-anchor="middle" x="176.5" y="-80" font-family="Helvetica,sans-Serif" font-size="10.00">src/assets/Sound.cpp</text>
</a>
</g>
</g>
<!-- Node1&#45;&gt;Node3 -->
<g id="edge2" class="edge">
<title>Node1&#45;&gt;Node3</title>
<path fill="none" stroke="midnightblue" d="M578,-136.96C492.78,-130.11 356.87,-117.33 240.5,-98 230.83,-96.39 220.44,-94.23 210.9,-92.07"/>
<polygon fill="midnightblue" stroke="midnightblue" points="577.89,-140.46 588.14,-137.76 578.45,-133.48 577.89,-140.46"/>
</g>
<!-- Node4 -->
<g id="node4" class="node">
<title>Node4</title>
<g id="a_node4"><a xlink:href="Stream_8cpp.html" target="_top" xlink:title="Implementation of Stream.">
<polygon fill="white" stroke="black" points="250,-73 250,-92 365,-92 365,-73 250,-73"/>
<text text-anchor="middle" x="307.5" y="-80" font-family="Helvetica,sans-Serif" font-size="10.00">src/assets/Stream.cpp</text>
</a>
</g>
</g>
<!-- Node1&#45;&gt;Node4 -->
<g id="edge3" class="edge">
<title>Node1&#45;&gt;Node4</title>
<path fill="none" stroke="midnightblue" d="M590.39,-133.01C532.19,-124.56 447.82,-111.67 374.5,-98 364.91,-96.21 354.58,-94.08 344.99,-92.01"/>
<polygon fill="midnightblue" stroke="midnightblue" points="590.18,-136.52 600.58,-134.49 591.18,-129.59 590.18,-136.52"/>
</g>
<!-- Node5 -->
<g id="node5" class="node">
<title>Node5</title>
<g id="a_node5"><a xlink:href="Texture_8cpp.html" target="_top" xlink:title="Implementation of Texture.">
<polygon fill="white" stroke="black" points="383.5,-73 383.5,-92 499.5,-92 499.5,-73 383.5,-73"/>
<text text-anchor="middle" x="441.5" y="-80" font-family="Helvetica,sans-Serif" font-size="10.00">src/assets/Texture.cpp</text>
</a>
</g>
</g>
<!-- Node1&#45;&gt;Node5 -->
<g id="edge4" class="edge">
<title>Node1&#45;&gt;Node5</title>
<path fill="none" stroke="midnightblue" d="M620.17,-131.82C577.44,-120.26 511.65,-102.47 472.96,-92.01"/>
<polygon fill="midnightblue" stroke="midnightblue" points="619.41,-135.24 629.98,-134.48 621.24,-128.49 619.41,-135.24"/>
</g>
<!-- Node6 -->
<g id="node6" class="node">
<title>Node6</title>
<g id="a_node6"><a xlink:href="Game_8cpp.html" target="_top" xlink:title="Implementation of Game.">
<polygon fill="white" stroke="black" points="518,-73 518,-92 595,-92 595,-73 518,-73"/>
<text text-anchor="middle" x="556.5" y="-80" font-family="Helvetica,sans-Serif" font-size="10.00">src/Game.cpp</text>
</a>
</g>
</g>
<!-- Node1&#45;&gt;Node6 -->
<g id="edge5" class="edge">
<title>Node1&#45;&gt;Node6</title>
<path fill="none" stroke="midnightblue" d="M637.5,-129.4C617.2,-117.9 588.74,-101.77 571.52,-92.01"/>
<polygon fill="midnightblue" stroke="midnightblue" points="636.03,-132.59 646.46,-134.48 639.48,-126.5 636.03,-132.59"/>
</g>
<!-- Node7 -->
<g id="node7" class="node">
<title>Node7</title>
<g id="a_node7"><a xlink:href="Scene_8cpp.html" target="_top" xlink:title="Implementation of Scene class.">
<polygon fill="white" stroke="black" points="135.5,-6 135.5,-25 243.5,-25 243.5,-6 135.5,-6"/>
<text text-anchor="middle" x="189.5" y="-13" font-family="Helvetica,sans-Serif" font-size="10.00">src/scene/Scene.cpp</text>
</a>
</g>
</g>
<!-- Node1&#45;&gt;Node7 -->
<g id="edge6" class="edge">
<title>Node1&#45;&gt;Node7</title>
<path fill="none" stroke="midnightblue" d="M653.14,-124.85C643.8,-106.83 626.85,-80.08 603.5,-67 535.09,-28.68 329.85,-43.82 252.5,-31 242.87,-29.4 232.51,-27.22 223.02,-25.03"/>
<polygon fill="midnightblue" stroke="midnightblue" points="650.11,-126.61 657.65,-134.04 656.39,-123.53 650.11,-126.61"/>
</g>
<!-- Node8 -->
<g id="node8" class="node">
<title>Node8</title>
<g id="a_node8"><a xlink:href="AssetService_8cpp_source.html" target="_top" xlink:title=" ">
<polygon fill="white" stroke="black" points="860.5,-67.5 860.5,-97.5 962.5,-97.5 962.5,-67.5 860.5,-67.5"/>
<text text-anchor="start" x="868.5" y="-85.5" font-family="Helvetica,sans-Serif" font-size="10.00">src/services/assets</text>
<text text-anchor="middle" x="911.5" y="-74.5" font-family="Helvetica,sans-Serif" font-size="10.00">/AssetService.cpp</text>
</a>
</g>
</g>
<!-- Node1&#45;&gt;Node8 -->
<g id="edge7" class="edge">
<title>Node1&#45;&gt;Node8</title>
<path fill="none" stroke="midnightblue" d="M707.81,-132.09C746.29,-123.02 802.47,-109.73 851.5,-98 854.42,-97.3 857.42,-96.58 860.44,-95.86"/>
<polygon fill="midnightblue" stroke="midnightblue" points="706.87,-128.72 697.94,-134.42 708.47,-135.53 706.87,-128.72"/>
</g>
<!-- Node9 -->
<g id="node9" class="node">
<title>Node9</title>
<g id="a_node9"><a xlink:href="DisplayService_8cpp.html" target="_top" xlink:title="Implementation of DisplayService.">
<polygon fill="white" stroke="black" points="262,-0.5 262,-30.5 365,-30.5 365,-0.5 262,-0.5"/>
<text text-anchor="start" x="270" y="-18.5" font-family="Helvetica,sans-Serif" font-size="10.00">src/services/display</text>
<text text-anchor="middle" x="313.5" y="-7.5" font-family="Helvetica,sans-Serif" font-size="10.00">/DisplayService.cpp</text>
</a>
</g>
</g>
<!-- Node1&#45;&gt;Node9 -->
<g id="edge8" class="edge">
<title>Node1&#45;&gt;Node9</title>
<path fill="none" stroke="midnightblue" d="M660.98,-124.14C659.41,-106.57 654.16,-81.04 637.5,-67 592.22,-28.85 431.68,-41.97 373.5,-31 370.76,-30.48 367.96,-29.92 365.14,-29.33"/>
<polygon fill="midnightblue" stroke="midnightblue" points="657.49,-124.55 661.56,-134.33 664.48,-124.15 657.49,-124.55"/>
</g>
<!-- Node10 -->
<g id="node10" class="node">
<title>Node10</title>
<g id="a_node10"><a xlink:href="InputService_8cpp.html" target="_top" xlink:title="Implementation of InputService. Handles mouse, keyboard and joystick.">
<polygon fill="white" stroke="black" points="980.5,-67.5 980.5,-97.5 1074.5,-97.5 1074.5,-67.5 980.5,-67.5"/>
<text text-anchor="start" x="988.5" y="-85.5" font-family="Helvetica,sans-Serif" font-size="10.00">src/services/input</text>
<text text-anchor="middle" x="1027.5" y="-74.5" font-family="Helvetica,sans-Serif" font-size="10.00">/InputService.cpp</text>
</a>
</g>
</g>
<!-- Node1&#45;&gt;Node10 -->
<g id="edge9" class="edge">
<title>Node1&#45;&gt;Node10</title>
<path fill="none" stroke="midnightblue" d="M744.77,-133.42C807.42,-125.6 895.24,-113.36 971.5,-98 974.36,-97.42 977.28,-96.79 980.23,-96.13"/>
<polygon fill="midnightblue" stroke="midnightblue" points="744.04,-129.98 734.54,-134.68 744.9,-136.93 744.04,-129.98"/>
</g>
<!-- Node11 -->
<g id="node11" class="node">
<title>Node11</title>
<g id="a_node11"><a xlink:href="SceneService_8cpp.html" target="_top" xlink:title="Implementation of SceneService.">
<polygon fill="white" stroke="black" points="383,-0.5 383,-30.5 482,-30.5 482,-0.5 383,-0.5"/>
<text text-anchor="start" x="391" y="-18.5" font-family="Helvetica,sans-Serif" font-size="10.00">src/services/scene</text>
<text text-anchor="middle" x="432.5" y="-7.5" font-family="Helvetica,sans-Serif" font-size="10.00">/SceneService.cpp</text>
</a>
</g>
</g>
<!-- Node1&#45;&gt;Node11 -->
<g id="edge10" class="edge">
<title>Node1&#45;&gt;Node11</title>
<path fill="none" stroke="midnightblue" d="M671.88,-125.57C680.4,-108.74 689.05,-83.44 675.5,-67 622.23,-2.36 572.27,-49.16 490.5,-31 487.76,-30.39 484.96,-29.75 482.13,-29.09"/>
<polygon fill="midnightblue" stroke="midnightblue" points="668.79,-123.92 667.04,-134.37 674.93,-127.29 668.79,-123.92"/>
</g>
<!-- Node12 -->
<g id="node12" class="node">
<title>Node12</title>
<g id="a_node12"><a xlink:href="Services_8cpp_source.html" target="_top" xlink:title=" ">
<polygon fill="white" stroke="black" points="1093,-73 1093,-92 1222,-92 1222,-73 1093,-73"/>
<text text-anchor="middle" x="1157.5" y="-80" font-family="Helvetica,sans-Serif" font-size="10.00">src/services/Services.cpp</text>
</a>
</g>
</g>
<!-- Node1&#45;&gt;Node12 -->
<g id="edge11" class="edge">
<title>Node1&#45;&gt;Node12</title>
<path fill="none" stroke="midnightblue" d="M744.7,-136.29C830.02,-128.9 966.41,-115.68 1083.5,-98 1094.5,-96.34 1106.36,-94.18 1117.28,-92.04"/>
<polygon fill="midnightblue" stroke="midnightblue" points="744.22,-132.81 734.56,-137.16 744.82,-139.79 744.22,-132.81"/>
</g>
<!-- Node13 -->
<g id="node13" class="node">
<title>Node13</title>
<g id="a_node13"><a xlink:href="str_8h.html" target="_top" xlink:title="Helpers which can manipulate or get data from strings.">
<polygon fill="white" stroke="black" points="1840.5,-73 1840.5,-92 1950.5,-92 1950.5,-73 1840.5,-73"/>
<text text-anchor="middle" x="1895.5" y="-80" font-family="Helvetica,sans-Serif" font-size="10.00">include/common/str.h</text>
</a>
</g>
</g>
<!-- Node1&#45;&gt;Node13 -->
<g id="edge12" class="edge">
<title>Node1&#45;&gt;Node13</title>
<path fill="none" stroke="midnightblue" d="M744.73,-138.99C979.74,-127.66 1644,-95.63 1840.25,-86.16"/>
<polygon fill="midnightblue" stroke="midnightblue" points="744.36,-135.5 734.54,-139.48 744.7,-142.49 744.36,-135.5"/>
</g>
<!-- Node16 -->
<g id="node16" class="node">
<title>Node16</title>
<g id="a_node16"><a xlink:href="Scene_8h.html" target="_top" xlink:title="Parent scene class. Children can be added to scene manager.">
<polygon fill="white" stroke="black" points="728,-73 728,-92 843,-92 843,-73 728,-73"/>
<text text-anchor="middle" x="785.5" y="-80" font-family="Helvetica,sans-Serif" font-size="10.00">include/scene/Scene.h</text>
</a>
</g>
</g>
<!-- Node1&#45;&gt;Node16 -->
<g id="edge15" class="edge">
<title>Node1&#45;&gt;Node16</title>
<path fill="none" stroke="midnightblue" d="M688.55,-130.02C712.6,-118.48 747.06,-101.94 767.77,-92.01"/>
<polygon fill="midnightblue" stroke="midnightblue" points="686.77,-126.99 679.27,-134.48 689.8,-133.3 686.77,-126.99"/>
</g>
<!-- Node14 -->
<g id="node14" class="node">
<title>Node14</title>
<g id="a_node14"><a xlink:href="str_8cpp.html" target="_top" xlink:title="Implementation of string function helpers.">
<polygon fill="white" stroke="black" points="1844,-6 1844,-25 1947,-25 1947,-6 1844,-6"/>
<text text-anchor="middle" x="1895.5" y="-13" font-family="Helvetica,sans-Serif" font-size="10.00">src/common/str.cpp</text>
</a>
</g>
</g>
<!-- Node13&#45;&gt;Node14 -->
<g id="edge13" class="edge">
<title>Node13&#45;&gt;Node14</title>
<path fill="none" stroke="midnightblue" d="M1895.5,-62.54C1895.5,-50.17 1895.5,-34.62 1895.5,-25.13"/>
<polygon fill="midnightblue" stroke="midnightblue" points="1892,-62.73 1895.5,-72.73 1899,-62.73 1892,-62.73"/>
</g>
<!-- Node15 -->
<g id="node15" class="node">
<title>Node15</title>
<g id="a_node15"><a xlink:href="ConfigService_8cpp.html" target="_top" xlink:title="Implementation of default Config Service.">
<polygon fill="white" stroke="black" points="1965.5,-0.5 1965.5,-30.5 2063.5,-30.5 2063.5,-0.5 1965.5,-0.5"/>
<text text-anchor="start" x="1973.5" y="-18.5" font-family="Helvetica,sans-Serif" font-size="10.00">src/services/config</text>
<text text-anchor="middle" x="2014.5" y="-7.5" font-family="Helvetica,sans-Serif" font-size="10.00">/ConfigService.cpp</text>
</a>
</g>
</g>
<!-- Node13&#45;&gt;Node15 -->
<g id="edge14" class="edge">
<title>Node13&#45;&gt;Node15</title>
<path fill="none" stroke="midnightblue" d="M1920.4,-67.9C1940.42,-56.97 1968.45,-41.65 1988.71,-30.59"/>
<polygon fill="midnightblue" stroke="midnightblue" points="1918.65,-64.87 1911.55,-72.73 1922,-71.01 1918.65,-64.87"/>
</g>
<!-- Node16&#45;&gt;Node7 -->
<g id="edge25" class="edge">
<title>Node16&#45;&gt;Node7</title>
<path fill="none" stroke="midnightblue" d="M717.69,-74.79C692.51,-72.32 663.7,-69.51 637.5,-67 466.42,-50.62 422.17,-58.33 252.5,-31 242.75,-29.43 232.26,-27.22 222.69,-25.01"/>
<polygon fill="midnightblue" stroke="midnightblue" points="717.58,-78.3 727.87,-75.79 718.26,-71.33 717.58,-78.3"/>
</g>
<!-- Node16&#45;&gt;Node9 -->
<g id="edge26" class="edge">
<title>Node16&#45;&gt;Node9</title>
<path fill="none" stroke="midnightblue" d="M717.81,-72.44C703.83,-70.61 689.19,-68.72 675.5,-67 541.38,-50.17 506.54,-54.92 373.5,-31 370.76,-30.51 367.95,-29.96 365.13,-29.39"/>
<polygon fill="midnightblue" stroke="midnightblue" points="717.49,-75.93 727.86,-73.76 718.4,-68.99 717.49,-75.93"/>
</g>
<!-- Node16&#45;&gt;Node11 -->
<g id="edge27" class="edge">
<title>Node16&#45;&gt;Node11</title>
<path fill="none" stroke="midnightblue" d="M734.32,-70.94C727.33,-69.57 720.24,-68.22 713.5,-67 614.72,-49.09 588.84,-51.19 490.5,-31 487.75,-30.44 484.94,-29.83 482.11,-29.2"/>
<polygon fill="midnightblue" stroke="midnightblue" points="733.94,-74.43 744.43,-72.94 735.3,-67.57 733.94,-74.43"/>
</g>
<!-- Node17 -->
<g id="node17" class="node">
<title>Node17</title>
<g id="a_node17"><a xlink:href="GameObject_8cpp_source.html" target="_top" xlink:title=" ">
<polygon fill="white" stroke="black" points="952.5,-6 952.5,-25 1092.5,-25 1092.5,-6 952.5,-6"/>
<text text-anchor="middle" x="1022.5" y="-13" font-family="Helvetica,sans-Serif" font-size="10.00">src/entities/GameObject.cpp</text>
</a>
</g>
</g>
<!-- Node16&#45;&gt;Node17 -->
<g id="edge16" class="edge">
<title>Node16&#45;&gt;Node17</title>
<path fill="none" stroke="midnightblue" d="M826.8,-70.17C873.67,-57.32 949.06,-36.64 991.28,-25.06"/>
<polygon fill="midnightblue" stroke="midnightblue" points="825.69,-66.85 816.97,-72.87 827.54,-73.6 825.69,-66.85"/>
</g>
<!-- Node18 -->
<g id="node18" class="node">
<title>Node18</title>
<g id="a_node18"><a xlink:href="Particle_8cpp.html" target="_top" xlink:title="Implementation of Particle.">
<polygon fill="white" stroke="black" points="1111,-6 1111,-25 1230,-25 1230,-6 1111,-6"/>
<text text-anchor="middle" x="1170.5" y="-13" font-family="Helvetica,sans-Serif" font-size="10.00">src/entities/Particle.cpp</text>
</a>
</g>
</g>
<!-- Node16&#45;&gt;Node18 -->
<g id="edge17" class="edge">
<title>Node16&#45;&gt;Node18</title>
<path fill="none" stroke="midnightblue" d="M832.12,-70.81C838.61,-69.45 845.21,-68.14 851.5,-67 961.95,-46.94 990.96,-50.55 1101.5,-31 1111.38,-29.25 1122.02,-27.14 1131.9,-25.07"/>
<polygon fill="midnightblue" stroke="midnightblue" points="831.1,-67.45 822.06,-72.97 832.57,-74.3 831.1,-67.45"/>
</g>
<!-- Node19 -->
<g id="node19" class="node">
<title>Node19</title>
<g id="a_node19"><a xlink:href="ParticleEmitter_8cpp.html" target="_top" xlink:title="Implementation of a particle emitter. and configured.">
<polygon fill="white" stroke="black" points="1248,-6 1248,-25 1397,-25 1397,-6 1248,-6"/>
<text text-anchor="middle" x="1322.5" y="-13" font-family="Helvetica,sans-Serif" font-size="10.00">src/entities/ParticleEmitter.cpp</text>
</a>
</g>
</g>
<!-- Node16&#45;&gt;Node19 -->
<g id="edge18" class="edge">
<title>Node16&#45;&gt;Node19</title>
<path fill="none" stroke="midnightblue" d="M830.64,-70.81C837.6,-69.38 844.72,-68.06 851.5,-67 1022.18,-40.42 1067.26,-53.71 1238.5,-31 1250.97,-29.35 1264.42,-27.19 1276.82,-25.05"/>
<polygon fill="midnightblue" stroke="midnightblue" points="829.68,-67.43 820.63,-72.94 831.14,-74.28 829.68,-67.43"/>
</g>
<!-- Node20 -->
<g id="node20" class="node">
<title>Node20</title>
<g id="a_node20"><a xlink:href="Sprite_8cpp.html" target="_top" xlink:title="Implementation of Sprite.">
<polygon fill="white" stroke="black" points="1415,-6 1415,-25 1526,-25 1526,-6 1415,-6"/>
<text text-anchor="middle" x="1470.5" y="-13" font-family="Helvetica,sans-Serif" font-size="10.00">src/entities/Sprite.cpp</text>
</a>
</g>
</g>
<!-- Node16&#45;&gt;Node20 -->
<g id="edge19" class="edge">
<title>Node16&#45;&gt;Node20</title>
<path fill="none" stroke="midnightblue" d="M829.4,-70.89C836.74,-69.39 844.31,-68.02 851.5,-67 1095.81,-32.43 1161.25,-65.97 1405.5,-31 1415.8,-29.53 1426.89,-27.3 1436.95,-25.02"/>
<polygon fill="midnightblue" stroke="midnightblue" points="828.63,-67.47 819.58,-72.98 830.09,-74.32 828.63,-67.47"/>
</g>
<!-- Node21 -->
<g id="node21" class="node">
<title>Node21</title>
<g id="a_node21"><a xlink:href="Button_8cpp.html" target="_top" xlink:title="Implementation of Button.">
<polygon fill="white" stroke="black" points="1544,-6 1544,-25 1669,-25 1669,-6 1544,-6"/>
<text text-anchor="middle" x="1606.5" y="-13" font-family="Helvetica,sans-Serif" font-size="10.00">src/entities/ui/Button.cpp</text>
</a>
</g>
</g>
<!-- Node16&#45;&gt;Node21 -->
<g id="edge20" class="edge">
<title>Node16&#45;&gt;Node21</title>
<path fill="none" stroke="midnightblue" d="M829.14,-70.86C836.57,-69.35 844.23,-67.98 851.5,-67 1152.73,-26.25 1232.92,-69.11 1534.5,-31 1545.89,-29.56 1558.16,-27.34 1569.3,-25.07"/>
<polygon fill="midnightblue" stroke="midnightblue" points="828.27,-67.47 819.23,-72.98 829.74,-74.31 828.27,-67.47"/>
</g>
<!-- Node22 -->
<g id="node22" class="node">
<title>Node22</title>
<g id="a_node22"><a xlink:href="Checkbox_8cpp.html" target="_top" xlink:title="Implementation of UI Checkbox.">
<polygon fill="white" stroke="black" points="1687,-6 1687,-25 1826,-25 1826,-6 1687,-6"/>
<text text-anchor="middle" x="1756.5" y="-13" font-family="Helvetica,sans-Serif" font-size="10.00">src/entities/ui/Checkbox.cpp</text>
</a>
</g>
</g>
<!-- Node16&#45;&gt;Node22 -->
<g id="edge21" class="edge">
<title>Node16&#45;&gt;Node22</title>
<path fill="none" stroke="midnightblue" d="M828.89,-70.85C836.39,-69.33 844.14,-67.96 851.5,-67 1215.86,-19.4 1312.36,-72.27 1677.5,-31 1690.11,-29.57 1703.74,-27.33 1716.06,-25.03"/>
<polygon fill="midnightblue" stroke="midnightblue" points="827.93,-67.48 818.88,-72.99 829.39,-74.33 827.93,-67.48"/>
</g>
<!-- Node23 -->
<g id="node23" class="node">
<title>Node23</title>
<g id="a_node23"><a xlink:href="Image_8cpp.html" target="_top" xlink:title="Texturable ui element.">
<polygon fill="white" stroke="black" points="500,-6 500,-25 623,-25 623,-6 500,-6"/>
<text text-anchor="middle" x="561.5" y="-13" font-family="Helvetica,sans-Serif" font-size="10.00">src/entities/ui/Image.cpp</text>
</a>
</g>
</g>
<!-- Node16&#45;&gt;Node23 -->
<g id="edge22" class="edge">
<title>Node16&#45;&gt;Node23</title>
<path fill="none" stroke="midnightblue" d="M745.9,-70.01C701.57,-57.15 630.75,-36.59 591.01,-25.06"/>
<polygon fill="midnightblue" stroke="midnightblue" points="745.18,-73.44 755.75,-72.87 747.13,-66.72 745.18,-73.44"/>
</g>
<!-- Node24 -->
<g id="node24" class="node">
<title>Node24</title>
<g id="a_node24"><a xlink:href="Inputbox_8cpp.html" target="_top" xlink:title="Implementation of UI Inputbox.">
<polygon fill="white" stroke="black" points="641,-6 641,-25 774,-25 774,-6 641,-6"/>
<text text-anchor="middle" x="707.5" y="-13" font-family="Helvetica,sans-Serif" font-size="10.00">src/entities/ui/Inputbox.cpp</text>
</a>
</g>
</g>
<!-- Node16&#45;&gt;Node24 -->
<g id="edge23" class="edge">
<title>Node16&#45;&gt;Node24</title>
<path fill="none" stroke="midnightblue" d="M767.16,-66.21C751.79,-53.41 730.41,-35.59 717.85,-25.13"/>
<polygon fill="midnightblue" stroke="midnightblue" points="765.06,-69.02 774.98,-72.73 769.54,-63.64 765.06,-69.02"/>
</g>
<!-- Node25 -->
<g id="node25" class="node">
<title>Node25</title>
<g id="a_node25"><a xlink:href="UIElement_8cpp.html" target="_top" xlink:title="Implementation of UIElement.">
<polygon fill="white" stroke="black" points="792.5,-6 792.5,-25 934.5,-25 934.5,-6 792.5,-6"/>
<text text-anchor="middle" x="863.5" y="-13" font-family="Helvetica,sans-Serif" font-size="10.00">src/entities/ui/UIElement.cpp</text>
</a>
</g>
</g>
<!-- Node16&#45;&gt;Node25 -->
<g id="edge24" class="edge">
<title>Node16&#45;&gt;Node25</title>
<path fill="none" stroke="midnightblue" d="M803.84,-66.21C819.21,-53.41 840.59,-35.59 853.15,-25.13"/>
<polygon fill="midnightblue" stroke="midnightblue" points="801.46,-63.64 796.02,-72.73 805.94,-69.02 801.46,-63.64"/>
</g>
</g>
</svg>
