<?xml version="1.0" encoding="UTF-8" standalone="no"?>
<!DOCTYPE svg PUBLIC "-//W3C//DTD SVG 1.1//EN"
 "http://www.w3.org/Graphics/SVG/1.1/DTD/svg11.dtd">
<!-- Generated by graphviz version 2.46.1 (20210215.1649)
 -->
<!-- Title: src/assets/Font.cpp Pages: 1 -->
<svg width="1691pt" height="308pt"
 viewBox="0.00 0.00 1691.33 308.00" xmlns="http://www.w3.org/2000/svg" xmlns:xlink="http://www.w3.org/1999/xlink">
<g id="graph0" class="graph" transform="scale(1 1) rotate(0) translate(4 304)">
<title>src/assets/Font.cpp</title>
<polygon fill="white" stroke="transparent" points="-4,4 -4,-304 1687.33,-304 1687.33,4 -4,4"/>
<!-- Node1 -->
<g id="node1" class="node">
<title>Node1</title>
<g id="a_node1"><a xlink:title="Implementation of Font.">
<polygon fill="#bfbfbf" stroke="black" points="50.83,-280.5 50.83,-299.5 153.83,-299.5 153.83,-280.5 50.83,-280.5"/>
<text text-anchor="middle" x="102.33" y="-287.5" font-family="Helvetica,sans-Serif" font-size="10.00">src/assets/Font.cpp</text>
</a>
</g>
</g>
<!-- Node2 -->
<g id="node2" class="node">
<title>Node2</title>
<g id="a_node2"><a xlink:href="Font_8h.html" target="_top" xlink:title="Easy interface to interact with SDL fonts.">
<polygon fill="white" stroke="black" points="22.33,-112.5 22.33,-131.5 98.33,-131.5 98.33,-112.5 22.33,-112.5"/>
<text text-anchor="middle" x="60.33" y="-119.5" font-family="Helvetica,sans-Serif" font-size="10.00">assets/Font.h</text>
</a>
</g>
</g>
<!-- Node1&#45;&gt;Node2 -->
<g id="edge1" class="edge">
<title>Node1&#45;&gt;Node2</title>
<path fill="none" stroke="midnightblue" d="M96.88,-280.39C91.57,-271.59 83.67,-257.35 79.33,-244 67.98,-209.07 63.3,-166.19 61.45,-141.99"/>
<polygon fill="midnightblue" stroke="midnightblue" points="64.92,-141.47 60.76,-131.73 57.94,-141.94 64.92,-141.47"/>
</g>
<!-- Node5 -->
<g id="node5" class="node">
<title>Node5</title>
<g id="a_node5"><a xlink:href="Color_8h.html" target="_top" xlink:title="Helpers for creating colors without accessing SDL api directly.">
<polygon fill="white" stroke="black" points="210.33,-56.5 210.33,-75.5 288.33,-75.5 288.33,-56.5 210.33,-56.5"/>
<text text-anchor="middle" x="249.33" y="-63.5" font-family="Helvetica,sans-Serif" font-size="10.00">../color/Color.h</text>
</a>
</g>
</g>
<!-- Node1&#45;&gt;Node5 -->
<g id="edge6" class="edge">
<title>Node1&#45;&gt;Node5</title>
<path fill="none" stroke="midnightblue" d="M91.69,-280.47C59.26,-253.5 -33.37,-168.45 13.33,-112 36.52,-83.97 137.65,-73.25 199.76,-69.26"/>
<polygon fill="midnightblue" stroke="midnightblue" points="200.36,-72.73 210.13,-68.63 199.93,-65.74 200.36,-72.73"/>
</g>
<!-- Node7 -->
<g id="node7" class="node">
<title>Node7</title>
<g id="a_node7"><a xlink:href="Exceptions_8h.html" target="_top" xlink:title="Interally used exceptions. These can be handled properly in the main game class.">
<polygon fill="white" stroke="black" points="88.33,-224.5 88.33,-243.5 200.33,-243.5 200.33,-224.5 88.33,-224.5"/>
<text text-anchor="middle" x="144.33" y="-231.5" font-family="Helvetica,sans-Serif" font-size="10.00">common/Exceptions.h</text>
</a>
</g>
</g>
<!-- Node1&#45;&gt;Node7 -->
<g id="edge7" class="edge">
<title>Node1&#45;&gt;Node7</title>
<path fill="none" stroke="midnightblue" d="M109.27,-280.08C115.26,-272.38 124.08,-261.03 131.38,-251.65"/>
<polygon fill="midnightblue" stroke="midnightblue" points="134.15,-253.79 137.52,-243.75 128.62,-249.5 134.15,-253.79"/>
</g>
<!-- Node9 -->
<g id="node9" class="node">
<title>Node9</title>
<g id="a_node9"><a xlink:href="Services_8h.html" target="_top" xlink:title="Implementation of core Services class.">
<polygon fill="white" stroke="black" points="714.33,-224.5 714.33,-243.5 816.33,-243.5 816.33,-224.5 714.33,-224.5"/>
<text text-anchor="middle" x="765.33" y="-231.5" font-family="Helvetica,sans-Serif" font-size="10.00">services/Services.h</text>
</a>
</g>
</g>
<!-- Node1&#45;&gt;Node9 -->
<g id="edge10" class="edge">
<title>Node1&#45;&gt;Node9</title>
<path fill="none" stroke="midnightblue" d="M154.08,-284.79C274.7,-274.96 574.09,-250.58 703.79,-240.01"/>
<polygon fill="midnightblue" stroke="midnightblue" points="704.26,-243.49 713.95,-239.19 703.7,-236.51 704.26,-243.49"/>
</g>
<!-- Node3 -->
<g id="node3" class="node">
<title>Node3</title>
<g id="a_node3"><a xlink:title=" ">
<polygon fill="white" stroke="#bfbfbf" points="17.33,-56.5 17.33,-75.5 103.33,-75.5 103.33,-56.5 17.33,-56.5"/>
<text text-anchor="middle" x="60.33" y="-63.5" font-family="Helvetica,sans-Serif" font-size="10.00">SDL2/SDL_ttf.h</text>
</a>
</g>
</g>
<!-- Node2&#45;&gt;Node3 -->
<g id="edge2" class="edge">
<title>Node2&#45;&gt;Node3</title>
<path fill="none" stroke="midnightblue" d="M60.33,-112.08C60.33,-105.01 60.33,-94.86 60.33,-85.99"/>
<polygon fill="midnightblue" stroke="midnightblue" points="63.83,-85.75 60.33,-75.75 56.83,-85.75 63.83,-85.75"/>
</g>
<!-- Node4 -->
<g id="node4" class="node">
<title>Node4</title>
<g id="a_node4"><a xlink:title=" ">
<polygon fill="white" stroke="#bfbfbf" points="723.83,-56.5 723.83,-75.5 764.83,-75.5 764.83,-56.5 723.83,-56.5"/>
<text text-anchor="middle" x="744.33" y="-63.5" font-family="Helvetica,sans-Serif" font-size="10.00">string</text>
</a>
</g>
</g>
<!-- Node2&#45;&gt;Node4 -->
<g id="edge3" class="edge">
<title>Node2&#45;&gt;Node4</title>
<path fill="none" stroke="midnightblue" d="M98.49,-113.3C101.47,-112.82 104.45,-112.38 107.33,-112 339.18,-81.72 621.35,-70.79 713.57,-67.88"/>
<polygon fill="midnightblue" stroke="midnightblue" points="713.73,-71.38 723.62,-67.57 713.52,-64.38 713.73,-71.38"/>
</g>
<!-- Node2&#45;&gt;Node5 -->
<g id="edge4" class="edge">
<title>Node2&#45;&gt;Node5</title>
<path fill="none" stroke="midnightblue" d="M90.28,-112.44C122.49,-103.24 173.87,-88.56 209.47,-78.39"/>
<polygon fill="midnightblue" stroke="midnightblue" points="210.87,-81.63 219.52,-75.52 208.95,-74.9 210.87,-81.63"/>
</g>
<!-- Node6 -->
<g id="node6" class="node">
<title>Node6</title>
<g id="a_node6"><a xlink:title=" ">
<polygon fill="white" stroke="#bfbfbf" points="180.33,-0.5 180.33,-19.5 318.33,-19.5 318.33,-0.5 180.33,-0.5"/>
<text text-anchor="middle" x="249.33" y="-7.5" font-family="Helvetica,sans-Serif" font-size="10.00">SDL2/SDL2_gfxPrimitives.h</text>
</a>
</g>
</g>
<!-- Node5&#45;&gt;Node6 -->
<g id="edge5" class="edge">
<title>Node5&#45;&gt;Node6</title>
<path fill="none" stroke="midnightblue" d="M249.33,-56.08C249.33,-49.01 249.33,-38.86 249.33,-29.99"/>
<polygon fill="midnightblue" stroke="midnightblue" points="252.83,-29.75 249.33,-19.75 245.83,-29.75 252.83,-29.75"/>
</g>
<!-- Node7&#45;&gt;Node4 -->
<g id="edge9" class="edge">
<title>Node7&#45;&gt;Node4</title>
<path fill="none" stroke="midnightblue" d="M200.36,-230.85C310.89,-226.12 553.17,-213.16 632.33,-188 638.26,-186.12 725.63,-137 729.33,-132 739.13,-118.76 742.67,-100.18 743.88,-86.27"/>
<polygon fill="midnightblue" stroke="midnightblue" points="747.4,-86.08 744.44,-75.91 740.41,-85.7 747.4,-86.08"/>
</g>
<!-- Node8 -->
<g id="node8" class="node">
<title>Node8</title>
<g id="a_node8"><a xlink:title=" ">
<polygon fill="white" stroke="#bfbfbf" points="108.83,-168.5 108.83,-187.5 167.83,-187.5 167.83,-168.5 108.83,-168.5"/>
<text text-anchor="middle" x="138.33" y="-175.5" font-family="Helvetica,sans-Serif" font-size="10.00">stdexcept</text>
</a>
</g>
</g>
<!-- Node7&#45;&gt;Node8 -->
<g id="edge8" class="edge">
<title>Node7&#45;&gt;Node8</title>
<path fill="none" stroke="midnightblue" d="M143.34,-224.08C142.55,-216.93 141.4,-206.64 140.41,-197.69"/>
<polygon fill="midnightblue" stroke="midnightblue" points="143.89,-197.3 139.3,-187.75 136.93,-198.08 143.89,-197.3"/>
</g>
<!-- Node10 -->
<g id="node10" class="node">
<title>Node10</title>
<g id="a_node10"><a xlink:title=" ">
<polygon fill="white" stroke="#bfbfbf" points="679.83,-168.5 679.83,-187.5 730.83,-187.5 730.83,-168.5 679.83,-168.5"/>
<text text-anchor="middle" x="705.33" y="-175.5" font-family="Helvetica,sans-Serif" font-size="10.00">memory</text>
</a>
</g>
</g>
<!-- Node9&#45;&gt;Node10 -->
<g id="edge11" class="edge">
<title>Node9&#45;&gt;Node10</title>
<path fill="none" stroke="midnightblue" d="M755.69,-224.32C746.82,-216.34 733.46,-204.31 722.72,-194.65"/>
<polygon fill="midnightblue" stroke="midnightblue" points="724.92,-191.92 715.15,-187.83 720.24,-197.13 724.92,-191.92"/>
</g>
<!-- Node11 -->
<g id="node11" class="node">
<title>Node11</title>
<g id="a_node11"><a xlink:href="AssetService_8h.html" target="_top" xlink:title="Implementation of AssetService.">
<polygon fill="white" stroke="black" points="381.83,-168.5 381.83,-187.5 496.83,-187.5 496.83,-168.5 381.83,-168.5"/>
<text text-anchor="middle" x="439.33" y="-175.5" font-family="Helvetica,sans-Serif" font-size="10.00">assets/AssetService.h</text>
</a>
</g>
</g>
<!-- Node9&#45;&gt;Node11 -->
<g id="edge12" class="edge">
<title>Node9&#45;&gt;Node11</title>
<path fill="none" stroke="midnightblue" d="M714.03,-224.5C656.28,-214.94 562.49,-199.4 500.85,-189.19"/>
<polygon fill="midnightblue" stroke="midnightblue" points="501.3,-185.72 490.87,-187.54 500.16,-192.62 501.3,-185.72"/>
</g>
<!-- Node18 -->
<g id="node18" class="node">
<title>Node18</title>
<g id="a_node18"><a xlink:href="AudioService_8h.html" target="_top" xlink:title="Default audio service, can actually play audio.">
<polygon fill="white" stroke="black" points="515.33,-168.5 515.33,-187.5 623.33,-187.5 623.33,-168.5 515.33,-168.5"/>
<text text-anchor="middle" x="569.33" y="-175.5" font-family="Helvetica,sans-Serif" font-size="10.00">audio/AudioService.h</text>
</a>
</g>
</g>
<!-- Node9&#45;&gt;Node18 -->
<g id="edge26" class="edge">
<title>Node9&#45;&gt;Node18</title>
<path fill="none" stroke="midnightblue" d="M734.27,-224.44C700.73,-215.2 647.13,-200.44 610.19,-190.26"/>
<polygon fill="midnightblue" stroke="midnightblue" points="610.81,-186.8 600.24,-187.52 608.95,-193.55 610.81,-186.8"/>
</g>
<!-- Node19 -->
<g id="node19" class="node">
<title>Node19</title>
<g id="a_node19"><a xlink:href="ConfigService_8h.html" target="_top" xlink:title="Header for default Config Service.">
<polygon fill="white" stroke="black" points="185.83,-168.5 185.83,-187.5 298.83,-187.5 298.83,-168.5 185.83,-168.5"/>
<text text-anchor="middle" x="242.33" y="-175.5" font-family="Helvetica,sans-Serif" font-size="10.00">config/ConfigService.h</text>
</a>
</g>
</g>
<!-- Node9&#45;&gt;Node19 -->
<g id="edge30" class="edge">
<title>Node9&#45;&gt;Node19</title>
<path fill="none" stroke="midnightblue" d="M714.23,-227.72C619.21,-217.91 415.38,-196.87 309.41,-185.93"/>
<polygon fill="midnightblue" stroke="midnightblue" points="309.47,-182.41 299.16,-184.87 308.75,-189.38 309.47,-182.41"/>
</g>
<!-- Node21 -->
<g id="node21" class="node">
<title>Node21</title>
<g id="a_node21"><a xlink:href="DisplayService_8h.html" target="_top" xlink:title="Service that encapsulates SDL display related functionality.">
<polygon fill="white" stroke="black" points="920.33,-168.5 920.33,-187.5 1042.33,-187.5 1042.33,-168.5 920.33,-168.5"/>
<text text-anchor="middle" x="981.33" y="-175.5" font-family="Helvetica,sans-Serif" font-size="10.00">display/DisplayService.h</text>
</a>
</g>
</g>
<!-- Node9&#45;&gt;Node21 -->
<g id="edge34" class="edge">
<title>Node9&#45;&gt;Node21</title>
<path fill="none" stroke="midnightblue" d="M799.56,-224.44C836.84,-215.12 896.6,-200.18 937.34,-190"/>
<polygon fill="midnightblue" stroke="midnightblue" points="938.41,-193.34 947.27,-187.52 936.72,-186.55 938.41,-193.34"/>
</g>
<!-- Node24 -->
<g id="node24" class="node">
<title>Node24</title>
<g id="a_node24"><a xlink:href="EventQueue_8h.html" target="_top" xlink:title="Handles SDL_Events from main SDL_Queue. Can be hooked into by other services and notified when change...">
<polygon fill="white" stroke="black" points="1192.33,-168.5 1192.33,-187.5 1302.33,-187.5 1302.33,-168.5 1192.33,-168.5"/>
<text text-anchor="middle" x="1247.33" y="-175.5" font-family="Helvetica,sans-Serif" font-size="10.00">events/EventQueue.h</text>
</a>
</g>
</g>
<!-- Node9&#45;&gt;Node24 -->
<g id="edge41" class="edge">
<title>Node9&#45;&gt;Node24</title>
<path fill="none" stroke="midnightblue" d="M816.55,-228.03C893.57,-220.43 1044.06,-205.12 1182.26,-188.1"/>
<polygon fill="midnightblue" stroke="midnightblue" points="1182.69,-191.57 1192.19,-186.87 1181.83,-184.62 1182.69,-191.57"/>
</g>
<!-- Node26 -->
<g id="node26" class="node">
<title>Node26</title>
<g id="a_node26"><a xlink:href="InputService_8h.html" target="_top" xlink:title="General Purpose input listener. Handles Mouse, Keyboard, Joystick.">
<polygon fill="white" stroke="black" points="1336.83,-168.5 1336.83,-187.5 1439.83,-187.5 1439.83,-168.5 1336.83,-168.5"/>
<text text-anchor="middle" x="1388.33" y="-175.5" font-family="Helvetica,sans-Serif" font-size="10.00">input/InputService.h</text>
</a>
</g>
</g>
<!-- Node9&#45;&gt;Node26 -->
<g id="edge45" class="edge">
<title>Node9&#45;&gt;Node26</title>
<path fill="none" stroke="midnightblue" d="M816.57,-229.36C913.35,-222.36 1129.61,-206.1 1311.33,-188 1316.31,-187.5 1321.47,-186.96 1326.64,-186.4"/>
<polygon fill="midnightblue" stroke="midnightblue" points="1327.03,-189.88 1336.58,-185.29 1326.26,-182.92 1327.03,-189.88"/>
</g>
<!-- Node34 -->
<g id="node34" class="node">
<title>Node34</title>
<g id="a_node34"><a xlink:href="DebugLoggingService_8h.html" target="_top" xlink:title="Logging service that does the logging. Used for development.">
<polygon fill="white" stroke="black" points="748.83,-168.5 748.83,-187.5 901.83,-187.5 901.83,-168.5 748.83,-168.5"/>
<text text-anchor="middle" x="825.33" y="-175.5" font-family="Helvetica,sans-Serif" font-size="10.00">logging/DebugLoggingService.h</text>
</a>
</g>
</g>
<!-- Node9&#45;&gt;Node34 -->
<g id="edge58" class="edge">
<title>Node9&#45;&gt;Node34</title>
<path fill="none" stroke="midnightblue" d="M774.97,-224.32C783.84,-216.34 797.21,-204.31 807.94,-194.65"/>
<polygon fill="midnightblue" stroke="midnightblue" points="810.42,-197.13 815.52,-187.83 805.74,-191.92 810.42,-197.13"/>
</g>
<!-- Node36 -->
<g id="node36" class="node">
<title>Node36</title>
<g id="a_node36"><a xlink:href="SceneService_8h.html" target="_top" xlink:title="Service in charge of managing scenes.">
<polygon fill="white" stroke="black" points="1060.33,-168.5 1060.33,-187.5 1174.33,-187.5 1174.33,-168.5 1060.33,-168.5"/>
<text text-anchor="middle" x="1117.33" y="-175.5" font-family="Helvetica,sans-Serif" font-size="10.00">scene/SceneService.h</text>
</a>
</g>
</g>
<!-- Node9&#45;&gt;Node36 -->
<g id="edge62" class="edge">
<title>Node9&#45;&gt;Node36</title>
<path fill="none" stroke="midnightblue" d="M816.51,-225.15C878.63,-215.62 983.49,-199.53 1051.55,-189.09"/>
<polygon fill="midnightblue" stroke="midnightblue" points="1052.37,-192.51 1061.73,-187.53 1051.31,-185.59 1052.37,-192.51"/>
</g>
<!-- Node11&#45;&gt;Node2 -->
<g id="edge15" class="edge">
<title>Node11&#45;&gt;Node2</title>
<path fill="none" stroke="midnightblue" d="M381.61,-170.14C317.41,-162.3 210.37,-148.58 108.66,-132.14"/>
<polygon fill="midnightblue" stroke="midnightblue" points="108.95,-128.65 98.52,-130.49 107.83,-135.55 108.95,-128.65"/>
</g>
<!-- Node11&#45;&gt;Node4 -->
<g id="edge14" class="edge">
<title>Node11&#45;&gt;Node4</title>
<path fill="none" stroke="midnightblue" d="M460.65,-168.48C482.2,-159.75 516.36,-145.56 545.33,-132 562.97,-123.74 566.2,-119.12 584.33,-112 628.2,-94.78 681.22,-81.22 713.85,-73.65"/>
<polygon fill="midnightblue" stroke="midnightblue" points="714.72,-77.04 723.7,-71.41 713.17,-70.22 714.72,-77.04"/>
</g>
<!-- Node12 -->
<g id="node12" class="node">
<title>Node12</title>
<g id="a_node12"><a xlink:title=" ">
<polygon fill="white" stroke="#bfbfbf" points="224.83,-112.5 224.83,-131.5 259.83,-131.5 259.83,-112.5 224.83,-112.5"/>
<text text-anchor="middle" x="242.33" y="-119.5" font-family="Helvetica,sans-Serif" font-size="10.00">map</text>
</a>
</g>
</g>
<!-- Node11&#45;&gt;Node12 -->
<g id="edge13" class="edge">
<title>Node11&#45;&gt;Node12</title>
<path fill="none" stroke="midnightblue" d="M407.68,-168.45C374.45,-159.45 320.69,-144.84 274.33,-132 272.87,-131.6 271.37,-131.18 269.86,-130.76"/>
<polygon fill="midnightblue" stroke="midnightblue" points="270.5,-127.3 259.93,-127.98 268.61,-134.04 270.5,-127.3"/>
</g>
<!-- Node13 -->
<g id="node13" class="node">
<title>Node13</title>
<g id="a_node13"><a xlink:href="Sound_8h.html" target="_top" xlink:title="Implementation of Sound.">
<polygon fill="white" stroke="black" points="316.83,-112.5 316.83,-131.5 415.83,-131.5 415.83,-112.5 316.83,-112.5"/>
<text text-anchor="middle" x="366.33" y="-119.5" font-family="Helvetica,sans-Serif" font-size="10.00">../../assets/Sound.h</text>
</a>
</g>
</g>
<!-- Node11&#45;&gt;Node13 -->
<g id="edge16" class="edge">
<title>Node11&#45;&gt;Node13</title>
<path fill="none" stroke="midnightblue" d="M427.6,-168.32C416.49,-160.11 399.59,-147.6 386.35,-137.81"/>
<polygon fill="midnightblue" stroke="midnightblue" points="388.39,-134.97 378.27,-131.83 384.23,-140.59 388.39,-134.97"/>
</g>
<!-- Node15 -->
<g id="node15" class="node">
<title>Node15</title>
<g id="a_node15"><a xlink:href="Stream_8h.html" target="_top" xlink:title="Wrapper for sdl stream including ability to store stream pointer. Use for single instance sounds like...">
<polygon fill="white" stroke="black" points="433.83,-112.5 433.83,-131.5 536.83,-131.5 536.83,-112.5 433.83,-112.5"/>
<text text-anchor="middle" x="485.33" y="-119.5" font-family="Helvetica,sans-Serif" font-size="10.00">../../assets/Stream.h</text>
</a>
</g>
</g>
<!-- Node11&#45;&gt;Node15 -->
<g id="edge19" class="edge">
<title>Node11&#45;&gt;Node15</title>
<path fill="none" stroke="midnightblue" d="M446.93,-168.08C453.56,-160.3 463.35,-148.8 471.39,-139.37"/>
<polygon fill="midnightblue" stroke="midnightblue" points="474.06,-141.63 477.88,-131.75 468.73,-137.09 474.06,-141.63"/>
</g>
<!-- Node16 -->
<g id="node16" class="node">
<title>Node16</title>
<g id="a_node16"><a xlink:href="Texture_8h.html" target="_top" xlink:title="Easy interface to interact with sdl bitmaps.">
<polygon fill="white" stroke="black" points="593.33,-112.5 593.33,-131.5 697.33,-131.5 697.33,-112.5 593.33,-112.5"/>
<text text-anchor="middle" x="645.33" y="-119.5" font-family="Helvetica,sans-Serif" font-size="10.00">../../assets/Texture.h</text>
</a>
</g>
</g>
<!-- Node11&#45;&gt;Node16 -->
<g id="edge22" class="edge">
<title>Node11&#45;&gt;Node16</title>
<path fill="none" stroke="midnightblue" d="M471.97,-168.44C507.38,-159.16 564.04,-144.31 602.88,-134.13"/>
<polygon fill="midnightblue" stroke="midnightblue" points="604.06,-137.44 612.84,-131.52 602.28,-130.67 604.06,-137.44"/>
</g>
<!-- Node13&#45;&gt;Node4 -->
<g id="edge18" class="edge">
<title>Node13&#45;&gt;Node4</title>
<path fill="none" stroke="midnightblue" d="M416,-113.25C418.82,-112.82 421.61,-112.4 424.33,-112 530.43,-96.31 656.53,-78.96 713.58,-71.18"/>
<polygon fill="midnightblue" stroke="midnightblue" points="714.29,-74.61 723.73,-69.79 713.35,-67.68 714.29,-74.61"/>
</g>
<!-- Node14 -->
<g id="node14" class="node">
<title>Node14</title>
<g id="a_node14"><a xlink:title=" ">
<polygon fill="white" stroke="#bfbfbf" points="355.33,-56.5 355.33,-75.5 455.33,-75.5 455.33,-56.5 355.33,-56.5"/>
<text text-anchor="middle" x="405.33" y="-63.5" font-family="Helvetica,sans-Serif" font-size="10.00">SDL2/SDL_mixer.h</text>
</a>
</g>
</g>
<!-- Node13&#45;&gt;Node14 -->
<g id="edge17" class="edge">
<title>Node13&#45;&gt;Node14</title>
<path fill="none" stroke="midnightblue" d="M372.77,-112.08C378.28,-104.46 386.36,-93.26 393.1,-83.94"/>
<polygon fill="midnightblue" stroke="midnightblue" points="395.99,-85.91 399.01,-75.75 390.32,-81.81 395.99,-85.91"/>
</g>
<!-- Node15&#45;&gt;Node4 -->
<g id="edge21" class="edge">
<title>Node15&#45;&gt;Node4</title>
<path fill="none" stroke="midnightblue" d="M526.37,-112.44C578.49,-101.58 667.21,-83.08 713.76,-73.37"/>
<polygon fill="midnightblue" stroke="midnightblue" points="714.49,-76.8 723.57,-71.33 713.06,-69.94 714.49,-76.8"/>
</g>
<!-- Node15&#45;&gt;Node14 -->
<g id="edge20" class="edge">
<title>Node15&#45;&gt;Node14</title>
<path fill="none" stroke="midnightblue" d="M472.48,-112.32C460.11,-103.98 441.2,-91.21 426.59,-81.35"/>
<polygon fill="midnightblue" stroke="midnightblue" points="428.4,-78.35 418.15,-75.65 424.48,-84.15 428.4,-78.35"/>
</g>
<!-- Node16&#45;&gt;Node4 -->
<g id="edge24" class="edge">
<title>Node16&#45;&gt;Node4</title>
<path fill="none" stroke="midnightblue" d="M661.24,-112.32C676.97,-103.74 701.27,-90.49 719.54,-80.52"/>
<polygon fill="midnightblue" stroke="midnightblue" points="721.36,-83.52 728.46,-75.65 718.01,-77.37 721.36,-83.52"/>
</g>
<!-- Node16&#45;&gt;Node5 -->
<g id="edge25" class="edge">
<title>Node16&#45;&gt;Node5</title>
<path fill="none" stroke="midnightblue" d="M593.15,-113.88C516.33,-103.41 373.78,-83.97 298.63,-73.72"/>
<polygon fill="midnightblue" stroke="midnightblue" points="298.87,-70.22 288.49,-72.34 297.93,-77.16 298.87,-70.22"/>
</g>
<!-- Node17 -->
<g id="node17" class="node">
<title>Node17</title>
<g id="a_node17"><a xlink:title=" ">
<polygon fill="white" stroke="#bfbfbf" points="951.83,-56.5 951.83,-75.5 1022.83,-75.5 1022.83,-56.5 951.83,-56.5"/>
<text text-anchor="middle" x="987.33" y="-63.5" font-family="Helvetica,sans-Serif" font-size="10.00">SDL2/SDL.h</text>
</a>
</g>
</g>
<!-- Node16&#45;&gt;Node17 -->
<g id="edge23" class="edge">
<title>Node16&#45;&gt;Node17</title>
<path fill="none" stroke="midnightblue" d="M697.65,-112.74C764.29,-102.22 878.4,-84.2 941.68,-74.21"/>
<polygon fill="midnightblue" stroke="midnightblue" points="942.43,-77.63 951.76,-72.62 941.34,-70.72 942.43,-77.63"/>
</g>
<!-- Node18&#45;&gt;Node4 -->
<g id="edge27" class="edge">
<title>Node18&#45;&gt;Node4</title>
<path fill="none" stroke="midnightblue" d="M623.45,-168.62C650.61,-162.22 682.67,-151.12 706.33,-132 721.39,-119.84 731.74,-100 737.79,-85.43"/>
<polygon fill="midnightblue" stroke="midnightblue" points="741.12,-86.54 741.44,-75.95 734.58,-84.02 741.12,-86.54"/>
</g>
<!-- Node18&#45;&gt;Node13 -->
<g id="edge28" class="edge">
<title>Node18&#45;&gt;Node13</title>
<path fill="none" stroke="midnightblue" d="M537.17,-168.44C502.27,-159.16 446.44,-144.31 408.16,-134.13"/>
<polygon fill="midnightblue" stroke="midnightblue" points="408.91,-130.7 398.35,-131.52 407.11,-137.47 408.91,-130.7"/>
</g>
<!-- Node18&#45;&gt;Node15 -->
<g id="edge29" class="edge">
<title>Node18&#45;&gt;Node15</title>
<path fill="none" stroke="midnightblue" d="M555.84,-168.32C542.73,-159.9 522.62,-146.97 507.22,-137.07"/>
<polygon fill="midnightblue" stroke="midnightblue" points="509.1,-134.12 498.79,-131.65 505.31,-140.01 509.1,-134.12"/>
</g>
<!-- Node19&#45;&gt;Node4 -->
<g id="edge33" class="edge">
<title>Node19&#45;&gt;Node4</title>
<path fill="none" stroke="midnightblue" d="M233.52,-168.4C220.72,-154.89 200.12,-128.56 215.33,-112 232.3,-93.52 603.13,-73.92 713.57,-68.48"/>
<polygon fill="midnightblue" stroke="midnightblue" points="713.89,-71.96 723.71,-67.98 713.55,-64.97 713.89,-71.96"/>
</g>
<!-- Node19&#45;&gt;Node12 -->
<g id="edge31" class="edge">
<title>Node19&#45;&gt;Node12</title>
<path fill="none" stroke="midnightblue" d="M242.33,-168.08C242.33,-161.01 242.33,-150.86 242.33,-141.99"/>
<polygon fill="midnightblue" stroke="midnightblue" points="245.83,-141.75 242.33,-131.75 238.83,-141.75 245.83,-141.75"/>
</g>
<!-- Node20 -->
<g id="node20" class="node">
<title>Node20</title>
<g id="a_node20"><a xlink:title=" ">
<polygon fill="white" stroke="#bfbfbf" points="116.33,-112.5 116.33,-131.5 168.33,-131.5 168.33,-112.5 116.33,-112.5"/>
<text text-anchor="middle" x="142.33" y="-119.5" font-family="Helvetica,sans-Serif" font-size="10.00">sstream</text>
</a>
</g>
</g>
<!-- Node19&#45;&gt;Node20 -->
<g id="edge32" class="edge">
<title>Node19&#45;&gt;Node20</title>
<path fill="none" stroke="midnightblue" d="M226.26,-168.32C210.37,-159.74 185.82,-146.49 167.37,-136.52"/>
<polygon fill="midnightblue" stroke="midnightblue" points="168.82,-133.33 158.36,-131.65 165.49,-139.49 168.82,-133.33"/>
</g>
<!-- Node21&#45;&gt;Node4 -->
<g id="edge36" class="edge">
<title>Node21&#45;&gt;Node4</title>
<path fill="none" stroke="midnightblue" d="M974.16,-168.46C962.03,-154.55 936.07,-127.07 908.33,-112 865.37,-88.66 809.38,-76.69 775.18,-71.14"/>
<polygon fill="midnightblue" stroke="midnightblue" points="775.3,-67.62 764.89,-69.56 774.24,-74.54 775.3,-67.62"/>
</g>
<!-- Node21&#45;&gt;Node5 -->
<g id="edge37" class="edge">
<title>Node21&#45;&gt;Node5</title>
<path fill="none" stroke="midnightblue" d="M920.28,-168.9C917.25,-168.58 914.26,-168.28 911.33,-168 777.46,-155.42 428.35,-190.59 307.33,-132 286.14,-121.74 269.27,-99.92 259.31,-84.39"/>
<polygon fill="midnightblue" stroke="midnightblue" points="262.2,-82.42 254.02,-75.7 256.22,-86.06 262.2,-82.42"/>
</g>
<!-- Node21&#45;&gt;Node17 -->
<g id="edge35" class="edge">
<title>Node21&#45;&gt;Node17</title>
<path fill="none" stroke="midnightblue" d="M981.8,-168.37C982.77,-150.62 985,-109.67 986.32,-85.6"/>
<polygon fill="midnightblue" stroke="midnightblue" points="989.81,-85.77 986.86,-75.59 982.82,-85.39 989.81,-85.77"/>
</g>
<!-- Node22 -->
<g id="node22" class="node">
<title>Node22</title>
<g id="a_node22"><a xlink:href="Service_8h.html" target="_top" xlink:title="Service subscriber that can listen for events.">
<polygon fill="white" stroke="black" points="1115.83,-112.5 1115.83,-131.5 1180.83,-131.5 1180.83,-112.5 1115.83,-112.5"/>
<text text-anchor="middle" x="1148.33" y="-119.5" font-family="Helvetica,sans-Serif" font-size="10.00">../Service.h</text>
</a>
</g>
</g>
<!-- Node21&#45;&gt;Node22 -->
<g id="edge38" class="edge">
<title>Node21&#45;&gt;Node22</title>
<path fill="none" stroke="midnightblue" d="M1007.79,-168.44C1036.01,-159.32 1080.87,-144.81 1112.3,-134.65"/>
<polygon fill="midnightblue" stroke="midnightblue" points="1113.56,-137.92 1121.99,-131.52 1111.4,-131.26 1113.56,-137.92"/>
</g>
<!-- Node22&#45;&gt;Node4 -->
<g id="edge40" class="edge">
<title>Node22&#45;&gt;Node4</title>
<path fill="none" stroke="midnightblue" d="M1115.83,-113.74C1112.62,-113.11 1109.42,-112.52 1106.33,-112 984.14,-91.35 837.24,-75.98 774.8,-69.88"/>
<polygon fill="midnightblue" stroke="midnightblue" points="775.12,-66.39 764.83,-68.91 774.45,-73.36 775.12,-66.39"/>
</g>
<!-- Node23 -->
<g id="node23" class="node">
<title>Node23</title>
<g id="a_node23"><a xlink:title=" ">
<polygon fill="white" stroke="#bfbfbf" points="1349.33,-56.5 1349.33,-75.5 1455.33,-75.5 1455.33,-56.5 1349.33,-56.5"/>
<text text-anchor="middle" x="1402.33" y="-63.5" font-family="Helvetica,sans-Serif" font-size="10.00">SDL2/SDL_events.h</text>
</a>
</g>
</g>
<!-- Node22&#45;&gt;Node23 -->
<g id="edge39" class="edge">
<title>Node22&#45;&gt;Node23</title>
<path fill="none" stroke="midnightblue" d="M1181.02,-114.05C1224.48,-104.81 1301.7,-88.39 1352.46,-77.6"/>
<polygon fill="midnightblue" stroke="midnightblue" points="1353.19,-81.03 1362.24,-75.52 1351.73,-74.18 1353.19,-81.03"/>
</g>
<!-- Node24&#45;&gt;Node17 -->
<g id="edge42" class="edge">
<title>Node24&#45;&gt;Node17</title>
<path fill="none" stroke="midnightblue" d="M1242.26,-168.27C1233.56,-154.09 1214.35,-126.22 1190.33,-112 1141.69,-83.2 1076.6,-72.8 1033.39,-69.06"/>
<polygon fill="midnightblue" stroke="midnightblue" points="1033.41,-65.55 1023.16,-68.26 1032.86,-72.53 1033.41,-65.55"/>
</g>
<!-- Node24&#45;&gt;Node22 -->
<g id="edge44" class="edge">
<title>Node24&#45;&gt;Node22</title>
<path fill="none" stroke="midnightblue" d="M1231.43,-168.32C1215.69,-159.74 1191.39,-146.49 1173.12,-136.52"/>
<polygon fill="midnightblue" stroke="midnightblue" points="1174.65,-133.37 1164.2,-131.65 1171.3,-139.52 1174.65,-133.37"/>
</g>
<!-- Node25 -->
<g id="node25" class="node">
<title>Node25</title>
<g id="a_node25"><a xlink:title=" ">
<polygon fill="white" stroke="#bfbfbf" points="1053.33,-112.5 1053.33,-131.5 1097.33,-131.5 1097.33,-112.5 1053.33,-112.5"/>
<text text-anchor="middle" x="1075.33" y="-119.5" font-family="Helvetica,sans-Serif" font-size="10.00">vector</text>
</a>
</g>
</g>
<!-- Node24&#45;&gt;Node25 -->
<g id="edge43" class="edge">
<title>Node24&#45;&gt;Node25</title>
<path fill="none" stroke="midnightblue" d="M1220.08,-168.44C1189.48,-158.84 1139.87,-143.26 1107.42,-133.07"/>
<polygon fill="midnightblue" stroke="midnightblue" points="1108.12,-129.63 1097.53,-129.97 1106.03,-136.31 1108.12,-129.63"/>
</g>
<!-- Node26&#45;&gt;Node4 -->
<g id="edge48" class="edge">
<title>Node26&#45;&gt;Node4</title>
<path fill="none" stroke="midnightblue" d="M1367.36,-168.44C1331.66,-154.25 1256.52,-126.03 1190.33,-112 1036.81,-79.46 848.42,-70.26 775.35,-67.82"/>
<polygon fill="midnightblue" stroke="midnightblue" points="775.13,-64.31 765.02,-67.5 774.91,-71.31 775.13,-64.31"/>
</g>
<!-- Node26&#45;&gt;Node22 -->
<g id="edge49" class="edge">
<title>Node26&#45;&gt;Node22</title>
<path fill="none" stroke="midnightblue" d="M1350.3,-168.44C1306.93,-158.68 1236.18,-142.77 1190.97,-132.59"/>
<polygon fill="midnightblue" stroke="midnightblue" points="1191.69,-129.17 1181.17,-130.39 1190.16,-136 1191.69,-129.17"/>
</g>
<!-- Node26&#45;&gt;Node23 -->
<g id="edge46" class="edge">
<title>Node26&#45;&gt;Node23</title>
<path fill="none" stroke="midnightblue" d="M1404.11,-168.47C1416.53,-160.77 1432.94,-148.18 1440.33,-132 1448.42,-114.31 1434.27,-95.22 1421,-82.34"/>
<polygon fill="midnightblue" stroke="midnightblue" points="1423.22,-79.64 1413.46,-75.53 1418.53,-84.83 1423.22,-79.64"/>
</g>
<!-- Node27 -->
<g id="node27" class="node">
<title>Node27</title>
<g id="a_node27"><a xlink:title=" ">
<polygon fill="white" stroke="#bfbfbf" points="1377.33,-112.5 1377.33,-131.5 1431.33,-131.5 1431.33,-112.5 1377.33,-112.5"/>
<text text-anchor="middle" x="1404.33" y="-119.5" font-family="Helvetica,sans-Serif" font-size="10.00">iostream</text>
</a>
</g>
</g>
<!-- Node26&#45;&gt;Node27 -->
<g id="edge47" class="edge">
<title>Node26&#45;&gt;Node27</title>
<path fill="none" stroke="midnightblue" d="M1390.97,-168.08C1393.12,-160.85 1396.21,-150.41 1398.88,-141.4"/>
<polygon fill="midnightblue" stroke="midnightblue" points="1402.25,-142.33 1401.74,-131.75 1395.54,-140.34 1402.25,-142.33"/>
</g>
<!-- Node28 -->
<g id="node28" class="node">
<title>Node28</title>
<g id="a_node28"><a xlink:href="JoystickState_8h.html" target="_top" xlink:title="Container for storing Joystick state.">
<polygon fill="white" stroke="black" points="1275.83,-112.5 1275.83,-131.5 1358.83,-131.5 1358.83,-112.5 1275.83,-112.5"/>
<text text-anchor="middle" x="1317.33" y="-119.5" font-family="Helvetica,sans-Serif" font-size="10.00">JoystickState.h</text>
</a>
</g>
</g>
<!-- Node26&#45;&gt;Node28 -->
<g id="edge50" class="edge">
<title>Node26&#45;&gt;Node28</title>
<path fill="none" stroke="midnightblue" d="M1376.92,-168.32C1366.22,-160.18 1349.99,-147.84 1337.17,-138.09"/>
<polygon fill="midnightblue" stroke="midnightblue" points="1339.02,-135.1 1328.95,-131.83 1334.79,-140.67 1339.02,-135.1"/>
</g>
<!-- Node30 -->
<g id="node30" class="node">
<title>Node30</title>
<g id="a_node30"><a xlink:href="KeyboardState_8h.html" target="_top" xlink:title="Container for storing Keyboard state.">
<polygon fill="white" stroke="black" points="1590.33,-112.5 1590.33,-131.5 1678.33,-131.5 1678.33,-112.5 1590.33,-112.5"/>
<text text-anchor="middle" x="1634.33" y="-119.5" font-family="Helvetica,sans-Serif" font-size="10.00">KeyboardState.h</text>
</a>
</g>
</g>
<!-- Node26&#45;&gt;Node30 -->
<g id="edge53" class="edge">
<title>Node26&#45;&gt;Node30</title>
<path fill="none" stroke="midnightblue" d="M1427.31,-168.44C1470.22,-159.02 1539.28,-143.87 1585.7,-133.68"/>
<polygon fill="midnightblue" stroke="midnightblue" points="1586.52,-137.08 1595.53,-131.52 1585.02,-130.24 1586.52,-137.08"/>
</g>
<!-- Node32 -->
<g id="node32" class="node">
<title>Node32</title>
<g id="a_node32"><a xlink:href="MouseState_8h.html" target="_top" xlink:title="Container for storing Mouse state.">
<polygon fill="white" stroke="black" points="1487.83,-112.5 1487.83,-131.5 1564.83,-131.5 1564.83,-112.5 1487.83,-112.5"/>
<text text-anchor="middle" x="1526.33" y="-119.5" font-family="Helvetica,sans-Serif" font-size="10.00">MouseState.h</text>
</a>
</g>
</g>
<!-- Node26&#45;&gt;Node32 -->
<g id="edge55" class="edge">
<title>Node26&#45;&gt;Node32</title>
<path fill="none" stroke="midnightblue" d="M1410.2,-168.44C1433.11,-159.48 1469.31,-145.31 1495.2,-135.18"/>
<polygon fill="midnightblue" stroke="midnightblue" points="1496.53,-138.42 1504.57,-131.52 1493.98,-131.9 1496.53,-138.42"/>
</g>
<!-- Node28&#45;&gt;Node23 -->
<g id="edge51" class="edge">
<title>Node28&#45;&gt;Node23</title>
<path fill="none" stroke="midnightblue" d="M1330.99,-112.32C1344.25,-103.9 1364.6,-90.97 1380.18,-81.07"/>
<polygon fill="midnightblue" stroke="midnightblue" points="1382.14,-83.97 1388.71,-75.65 1378.39,-78.06 1382.14,-83.97"/>
</g>
<!-- Node29 -->
<g id="node29" class="node">
<title>Node29</title>
<g id="a_node29"><a xlink:href="JoystickCodes_8h.html" target="_top" xlink:title="Defines for codes used for joystick.">
<polygon fill="white" stroke="black" points="1243.33,-56.5 1243.33,-75.5 1331.33,-75.5 1331.33,-56.5 1243.33,-56.5"/>
<text text-anchor="middle" x="1287.33" y="-63.5" font-family="Helvetica,sans-Serif" font-size="10.00">JoystickCodes.h</text>
</a>
</g>
</g>
<!-- Node28&#45;&gt;Node29 -->
<g id="edge52" class="edge">
<title>Node28&#45;&gt;Node29</title>
<path fill="none" stroke="midnightblue" d="M1312.38,-112.08C1308.23,-104.61 1302.18,-93.72 1297.06,-84.52"/>
<polygon fill="midnightblue" stroke="midnightblue" points="1300.11,-82.79 1292.19,-75.75 1293.99,-86.19 1300.11,-82.79"/>
</g>
<!-- Node31 -->
<g id="node31" class="node">
<title>Node31</title>
<g id="a_node31"><a xlink:href="KeyboardKeys_8h.html" target="_top" xlink:title="Defenitions of keys that can be used by input manager.">
<polygon fill="white" stroke="black" points="1597.33,-56.5 1597.33,-75.5 1683.33,-75.5 1683.33,-56.5 1597.33,-56.5"/>
<text text-anchor="middle" x="1640.33" y="-63.5" font-family="Helvetica,sans-Serif" font-size="10.00">KeyboardKeys.h</text>
</a>
</g>
</g>
<!-- Node30&#45;&gt;Node31 -->
<g id="edge54" class="edge">
<title>Node30&#45;&gt;Node31</title>
<path fill="none" stroke="midnightblue" d="M1635.32,-112.08C1636.12,-104.93 1637.26,-94.64 1638.25,-85.69"/>
<polygon fill="midnightblue" stroke="midnightblue" points="1641.73,-86.08 1639.36,-75.75 1634.78,-85.3 1641.73,-86.08"/>
</g>
<!-- Node32&#45;&gt;Node23 -->
<g id="edge56" class="edge">
<title>Node32&#45;&gt;Node23</title>
<path fill="none" stroke="midnightblue" d="M1506.68,-112.44C1486.37,-103.6 1454.43,-89.69 1431.23,-79.59"/>
<polygon fill="midnightblue" stroke="midnightblue" points="1432.45,-76.3 1421.89,-75.52 1429.66,-82.72 1432.45,-76.3"/>
</g>
<!-- Node33 -->
<g id="node33" class="node">
<title>Node33</title>
<g id="a_node33"><a xlink:title=" ">
<polygon fill="white" stroke="#bfbfbf" points="1473.33,-56.5 1473.33,-75.5 1579.33,-75.5 1579.33,-56.5 1473.33,-56.5"/>
<text text-anchor="middle" x="1526.33" y="-63.5" font-family="Helvetica,sans-Serif" font-size="10.00">SDL2/SDL_mouse.h</text>
</a>
</g>
</g>
<!-- Node32&#45;&gt;Node33 -->
<g id="edge57" class="edge">
<title>Node32&#45;&gt;Node33</title>
<path fill="none" stroke="midnightblue" d="M1526.33,-112.08C1526.33,-105.01 1526.33,-94.86 1526.33,-85.99"/>
<polygon fill="midnightblue" stroke="midnightblue" points="1529.83,-85.75 1526.33,-75.75 1522.83,-85.75 1529.83,-85.75"/>
</g>
<!-- Node34&#45;&gt;Node4 -->
<g id="edge59" class="edge">
<title>Node34&#45;&gt;Node4</title>
<path fill="none" stroke="midnightblue" d="M846.28,-168.44C871.71,-156.79 909.22,-134.79 892.33,-112 865.45,-75.73 810.05,-67.69 775.18,-66.44"/>
<polygon fill="midnightblue" stroke="midnightblue" points="775.14,-62.94 765.07,-66.25 775,-69.94 775.14,-62.94"/>
</g>
<!-- Node35 -->
<g id="node35" class="node">
<title>Node35</title>
<g id="a_node35"><a xlink:href="LoggingService_8h.html" target="_top" xlink:title="Default logging service. Does nothing. Use in production.">
<polygon fill="white" stroke="black" points="791.33,-112.5 791.33,-131.5 883.33,-131.5 883.33,-112.5 791.33,-112.5"/>
<text text-anchor="middle" x="837.33" y="-119.5" font-family="Helvetica,sans-Serif" font-size="10.00">LoggingService.h</text>
</a>
</g>
</g>
<!-- Node34&#45;&gt;Node35 -->
<g id="edge60" class="edge">
<title>Node34&#45;&gt;Node35</title>
<path fill="none" stroke="midnightblue" d="M827.31,-168.08C828.9,-160.93 831.19,-150.64 833.18,-141.69"/>
<polygon fill="midnightblue" stroke="midnightblue" points="836.63,-142.27 835.39,-131.75 829.8,-140.75 836.63,-142.27"/>
</g>
<!-- Node35&#45;&gt;Node4 -->
<g id="edge61" class="edge">
<title>Node35&#45;&gt;Node4</title>
<path fill="none" stroke="midnightblue" d="M822.39,-112.32C807.75,-103.82 785.2,-90.73 768.09,-80.8"/>
<polygon fill="midnightblue" stroke="midnightblue" points="769.64,-77.65 759.24,-75.65 766.13,-83.7 769.64,-77.65"/>
</g>
<!-- Node36&#45;&gt;Node4 -->
<g id="edge63" class="edge">
<title>Node36&#45;&gt;Node4</title>
<path fill="none" stroke="midnightblue" d="M1096.14,-168.49C1062.61,-155.24 995.08,-129.37 936.33,-112 880.06,-95.36 813.08,-80.83 774.95,-73.05"/>
<polygon fill="midnightblue" stroke="midnightblue" points="775.49,-69.58 764.99,-71.03 774.1,-76.44 775.49,-69.58"/>
</g>
<!-- Node36&#45;&gt;Node22 -->
<g id="edge65" class="edge">
<title>Node36&#45;&gt;Node22</title>
<path fill="none" stroke="midnightblue" d="M1122.45,-168.08C1126.74,-160.61 1132.99,-149.72 1138.27,-140.52"/>
<polygon fill="midnightblue" stroke="midnightblue" points="1141.36,-142.17 1143.31,-131.75 1135.29,-138.68 1141.36,-142.17"/>
</g>
<!-- Node36&#45;&gt;Node25 -->
<g id="edge64" class="edge">
<title>Node36&#45;&gt;Node25</title>
<path fill="none" stroke="midnightblue" d="M1110.4,-168.08C1104.4,-160.38 1095.58,-149.03 1088.28,-139.65"/>
<polygon fill="midnightblue" stroke="midnightblue" points="1091.04,-137.5 1082.14,-131.75 1085.51,-141.79 1091.04,-137.5"/>
</g>
</g>
</svg>
