<?xml version="1.0" encoding="UTF-8" standalone="no"?>
<!DOCTYPE svg PUBLIC "-//W3C//DTD SVG 1.1//EN"
 "http://www.w3.org/Graphics/SVG/1.1/DTD/svg11.dtd">
<!-- Generated by graphviz version 2.46.1 (20210215.1649)
 -->
<!-- Title: include/assets/Font.h Pages: 1 -->
<svg width="2525pt" height="296pt"
 viewBox="0.00 0.00 2524.50 296.00" xmlns="http://www.w3.org/2000/svg" xmlns:xlink="http://www.w3.org/1999/xlink">
<g id="graph0" class="graph" transform="scale(1 1) rotate(0) translate(4 292)">
<title>include/assets/Font.h</title>
<polygon fill="white" stroke="transparent" points="-4,4 -4,-292 2520.5,-292 2520.5,4 -4,4"/>
<!-- Node1 -->
<g id="node1" class="node">
<title>Node1</title>
<g id="a_node1"><a xlink:title="Easy interface to interact with SDL fonts.">
<polygon fill="#bfbfbf" stroke="black" points="670.5,-268.5 670.5,-287.5 780.5,-287.5 780.5,-268.5 670.5,-268.5"/>
<text text-anchor="middle" x="725.5" y="-275.5" font-family="Helvetica,sans-Serif" font-size="10.00">include/assets/Font.h</text>
</a>
</g>
</g>
<!-- Node2 -->
<g id="node2" class="node">
<title>Node2</title>
<g id="a_node2"><a xlink:href="Font_8cpp.html" target="_top" xlink:title="Implementation of Font.">
<polygon fill="white" stroke="black" points="0,-73 0,-92 103,-92 103,-73 0,-73"/>
<text text-anchor="middle" x="51.5" y="-80" font-family="Helvetica,sans-Serif" font-size="10.00">src/assets/Font.cpp</text>
</a>
</g>
</g>
<!-- Node1&#45;&gt;Node2 -->
<g id="edge1" class="edge">
<title>Node1&#45;&gt;Node2</title>
<path fill="none" stroke="midnightblue" d="M685.91,-265.63C563.02,-230.35 189.84,-123.22 81.37,-92.07"/>
<polygon fill="midnightblue" stroke="midnightblue" points="685.09,-269.04 695.67,-268.44 687.02,-262.31 685.09,-269.04"/>
</g>
<!-- Node3 -->
<g id="node3" class="node">
<title>Node3</title>
<g id="a_node3"><a xlink:href="UIElement_8h.html" target="_top" xlink:title="Parent class of many other UIElement subclasses. Handles most things that all UIElements may need.">
<polygon fill="white" stroke="black" points="2029.5,-134.5 2029.5,-164.5 2121.5,-164.5 2121.5,-134.5 2029.5,-134.5"/>
<text text-anchor="start" x="2037.5" y="-152.5" font-family="Helvetica,sans-Serif" font-size="10.00">include/entities/ui</text>
<text text-anchor="middle" x="2075.5" y="-141.5" font-family="Helvetica,sans-Serif" font-size="10.00">/UIElement.h</text>
</a>
</g>
</g>
<!-- Node1&#45;&gt;Node3 -->
<g id="edge2" class="edge">
<title>Node1&#45;&gt;Node3</title>
<path fill="none" stroke="midnightblue" d="M790.62,-270.9C1025.76,-248.86 1827.63,-173.73 2029.22,-154.84"/>
<polygon fill="midnightblue" stroke="midnightblue" points="790.15,-267.43 780.52,-271.84 790.8,-274.4 790.15,-267.43"/>
</g>
<!-- Node15 -->
<g id="node15" class="node">
<title>Node15</title>
<g id="a_node15"><a xlink:href="AssetService_8h.html" target="_top" xlink:title="Implementation of AssetService.">
<polygon fill="white" stroke="black" points="666,-201.5 666,-231.5 785,-231.5 785,-201.5 666,-201.5"/>
<text text-anchor="start" x="674" y="-219.5" font-family="Helvetica,sans-Serif" font-size="10.00">include/services/assets</text>
<text text-anchor="middle" x="725.5" y="-208.5" font-family="Helvetica,sans-Serif" font-size="10.00">/AssetService.h</text>
</a>
</g>
</g>
<!-- Node1&#45;&gt;Node15 -->
<g id="edge14" class="edge">
<title>Node1&#45;&gt;Node15</title>
<path fill="none" stroke="midnightblue" d="M725.5,-258.23C725.5,-249.59 725.5,-239.5 725.5,-231.52"/>
<polygon fill="midnightblue" stroke="midnightblue" points="722,-258.48 725.5,-268.48 729,-258.48 722,-258.48"/>
</g>
<!-- Node4 -->
<g id="node4" class="node">
<title>Node4</title>
<g id="a_node4"><a xlink:href="UIElement_8cpp.html" target="_top" xlink:title="Implementation of UIElement.">
<polygon fill="white" stroke="black" points="2094.5,-6 2094.5,-25 2236.5,-25 2236.5,-6 2094.5,-6"/>
<text text-anchor="middle" x="2165.5" y="-13" font-family="Helvetica,sans-Serif" font-size="10.00">src/entities/ui/UIElement.cpp</text>
</a>
</g>
</g>
<!-- Node3&#45;&gt;Node4 -->
<g id="edge3" class="edge">
<title>Node3&#45;&gt;Node4</title>
<path fill="none" stroke="midnightblue" d="M2102.42,-127.84C2112.18,-119.37 2122.71,-108.99 2130.5,-98 2147.42,-74.13 2158.51,-40.8 2163.1,-25.2"/>
<polygon fill="midnightblue" stroke="midnightblue" points="2099.92,-125.37 2094.48,-134.47 2104.4,-130.75 2099.92,-125.37"/>
</g>
<!-- Node5 -->
<g id="node5" class="node">
<title>Node5</title>
<g id="a_node5"><a xlink:href="Button_8h.html" target="_top" xlink:title="A ui elemenent that accepts a click callback.">
<polygon fill="white" stroke="black" points="1561.5,-67.5 1561.5,-97.5 1653.5,-97.5 1653.5,-67.5 1561.5,-67.5"/>
<text text-anchor="start" x="1569.5" y="-85.5" font-family="Helvetica,sans-Serif" font-size="10.00">include/entities/ui</text>
<text text-anchor="middle" x="1607.5" y="-74.5" font-family="Helvetica,sans-Serif" font-size="10.00">/Button.h</text>
</a>
</g>
</g>
<!-- Node3&#45;&gt;Node5 -->
<g id="edge4" class="edge">
<title>Node3&#45;&gt;Node5</title>
<path fill="none" stroke="midnightblue" d="M2019.02,-144.05C1939.13,-137.19 1788.78,-122.25 1662.5,-98 1659.59,-97.44 1656.61,-96.81 1653.61,-96.14"/>
<polygon fill="midnightblue" stroke="midnightblue" points="2019.09,-147.56 2029.35,-144.92 2019.68,-140.59 2019.09,-147.56"/>
</g>
<!-- Node7 -->
<g id="node7" class="node">
<title>Node7</title>
<g id="a_node7"><a xlink:href="Checkbox_8h.html" target="_top" xlink:title="UI Checkbox.">
<polygon fill="white" stroke="black" points="1671.5,-67.5 1671.5,-97.5 1763.5,-97.5 1763.5,-67.5 1671.5,-67.5"/>
<text text-anchor="start" x="1679.5" y="-85.5" font-family="Helvetica,sans-Serif" font-size="10.00">include/entities/ui</text>
<text text-anchor="middle" x="1717.5" y="-74.5" font-family="Helvetica,sans-Serif" font-size="10.00">/Checkbox.h</text>
</a>
</g>
</g>
<!-- Node3&#45;&gt;Node7 -->
<g id="edge6" class="edge">
<title>Node3&#45;&gt;Node7</title>
<path fill="none" stroke="midnightblue" d="M2019.31,-140.61C1958.46,-131.72 1858.66,-116.11 1773.5,-98 1770.26,-97.31 1766.92,-96.56 1763.57,-95.77"/>
<polygon fill="midnightblue" stroke="midnightblue" points="2019.07,-144.11 2029.47,-142.09 2020.08,-137.19 2019.07,-144.11"/>
</g>
<!-- Node9 -->
<g id="node9" class="node">
<title>Node9</title>
<g id="a_node9"><a xlink:href="Image_8h.html" target="_top" xlink:title="UI Image.">
<polygon fill="white" stroke="black" points="2228.5,-67.5 2228.5,-97.5 2320.5,-97.5 2320.5,-67.5 2228.5,-67.5"/>
<text text-anchor="start" x="2236.5" y="-85.5" font-family="Helvetica,sans-Serif" font-size="10.00">include/entities/ui</text>
<text text-anchor="middle" x="2274.5" y="-74.5" font-family="Helvetica,sans-Serif" font-size="10.00">/Image.h</text>
</a>
</g>
</g>
<!-- Node3&#45;&gt;Node9 -->
<g id="edge8" class="edge">
<title>Node3&#45;&gt;Node9</title>
<path fill="none" stroke="midnightblue" d="M2128.38,-131.23C2160.57,-120.71 2201.17,-107.45 2231.4,-97.58"/>
<polygon fill="midnightblue" stroke="midnightblue" points="2127.1,-127.96 2118.68,-134.4 2129.27,-134.62 2127.1,-127.96"/>
</g>
<!-- Node11 -->
<g id="node11" class="node">
<title>Node11</title>
<g id="a_node11"><a xlink:href="Inputbox_8h.html" target="_top" xlink:title="UI Inputbox.">
<polygon fill="white" stroke="black" points="2029.5,-67.5 2029.5,-97.5 2121.5,-97.5 2121.5,-67.5 2029.5,-67.5"/>
<text text-anchor="start" x="2037.5" y="-85.5" font-family="Helvetica,sans-Serif" font-size="10.00">include/entities/ui</text>
<text text-anchor="middle" x="2075.5" y="-74.5" font-family="Helvetica,sans-Serif" font-size="10.00">/Inputbox.h</text>
</a>
</g>
</g>
<!-- Node3&#45;&gt;Node11 -->
<g id="edge10" class="edge">
<title>Node3&#45;&gt;Node11</title>
<path fill="none" stroke="midnightblue" d="M2075.5,-124.11C2075.5,-115.15 2075.5,-105.32 2075.5,-97.58"/>
<polygon fill="midnightblue" stroke="midnightblue" points="2072,-124.4 2075.5,-134.4 2079,-124.4 2072,-124.4"/>
</g>
<!-- Node13 -->
<g id="node13" class="node">
<title>Node13</title>
<g id="a_node13"><a xlink:href="Label_8h.html" target="_top" xlink:title="UI Label that simply displays text.">
<polygon fill="white" stroke="black" points="2374.5,-67.5 2374.5,-97.5 2466.5,-97.5 2466.5,-67.5 2374.5,-67.5"/>
<text text-anchor="start" x="2382.5" y="-85.5" font-family="Helvetica,sans-Serif" font-size="10.00">include/entities/ui</text>
<text text-anchor="middle" x="2420.5" y="-74.5" font-family="Helvetica,sans-Serif" font-size="10.00">/Label.h</text>
</a>
</g>
</g>
<!-- Node3&#45;&gt;Node13 -->
<g id="edge12" class="edge">
<title>Node3&#45;&gt;Node13</title>
<path fill="none" stroke="midnightblue" d="M2131.72,-137.91C2199.33,-125.17 2311.54,-104.03 2374.33,-92.2"/>
<polygon fill="midnightblue" stroke="midnightblue" points="2130.85,-134.51 2121.67,-139.8 2132.15,-141.39 2130.85,-134.51"/>
</g>
<!-- Node6 -->
<g id="node6" class="node">
<title>Node6</title>
<g id="a_node6"><a xlink:href="Button_8cpp.html" target="_top" xlink:title="Implementation of Button.">
<polygon fill="white" stroke="black" points="925,-6 925,-25 1050,-25 1050,-6 925,-6"/>
<text text-anchor="middle" x="987.5" y="-13" font-family="Helvetica,sans-Serif" font-size="10.00">src/entities/ui/Button.cpp</text>
</a>
</g>
</g>
<!-- Node5&#45;&gt;Node6 -->
<g id="edge5" class="edge">
<title>Node5&#45;&gt;Node6</title>
<path fill="none" stroke="midnightblue" d="M1551.29,-67.02C1333.99,-31.73 1273.88,-60.3 1059.5,-31 1048.38,-29.48 1036.4,-27.29 1025.46,-25.07"/>
<polygon fill="midnightblue" stroke="midnightblue" points="1550.98,-70.52 1561.42,-68.69 1552.12,-63.61 1550.98,-70.52"/>
</g>
<!-- Node8 -->
<g id="node8" class="node">
<title>Node8</title>
<g id="a_node8"><a xlink:href="Checkbox_8cpp.html" target="_top" xlink:title="Implementation of UI Checkbox.">
<polygon fill="white" stroke="black" points="1068,-6 1068,-25 1207,-25 1207,-6 1068,-6"/>
<text text-anchor="middle" x="1137.5" y="-13" font-family="Helvetica,sans-Serif" font-size="10.00">src/entities/ui/Checkbox.cpp</text>
</a>
</g>
</g>
<!-- Node7&#45;&gt;Node8 -->
<g id="edge7" class="edge">
<title>Node7&#45;&gt;Node8</title>
<path fill="none" stroke="midnightblue" d="M1661.33,-67.01C1464.68,-34.29 1410.39,-56.55 1216.5,-31 1204.47,-29.41 1191.5,-27.23 1179.6,-25.04"/>
<polygon fill="midnightblue" stroke="midnightblue" points="1660.97,-70.5 1671.42,-68.72 1662.14,-63.6 1660.97,-70.5"/>
</g>
<!-- Node10 -->
<g id="node10" class="node">
<title>Node10</title>
<g id="a_node10"><a xlink:href="Image_8cpp.html" target="_top" xlink:title="Texturable ui element.">
<polygon fill="white" stroke="black" points="2255,-6 2255,-25 2378,-25 2378,-6 2255,-6"/>
<text text-anchor="middle" x="2316.5" y="-13" font-family="Helvetica,sans-Serif" font-size="10.00">src/entities/ui/Image.cpp</text>
</a>
</g>
</g>
<!-- Node9&#45;&gt;Node10 -->
<g id="edge9" class="edge">
<title>Node9&#45;&gt;Node10</title>
<path fill="none" stroke="midnightblue" d="M2289.05,-58.97C2296.58,-47.33 2305.32,-33.8 2310.88,-25.19"/>
<polygon fill="midnightblue" stroke="midnightblue" points="2286.1,-57.1 2283.61,-67.4 2291.98,-60.9 2286.1,-57.1"/>
</g>
<!-- Node12 -->
<g id="node12" class="node">
<title>Node12</title>
<g id="a_node12"><a xlink:href="Inputbox_8cpp.html" target="_top" xlink:title="Implementation of UI Inputbox.">
<polygon fill="white" stroke="black" points="1943,-6 1943,-25 2076,-25 2076,-6 1943,-6"/>
<text text-anchor="middle" x="2009.5" y="-13" font-family="Helvetica,sans-Serif" font-size="10.00">src/entities/ui/Inputbox.cpp</text>
</a>
</g>
</g>
<!-- Node11&#45;&gt;Node12 -->
<g id="edge11" class="edge">
<title>Node11&#45;&gt;Node12</title>
<path fill="none" stroke="midnightblue" d="M2054.01,-60.34C2041.89,-48.4 2027.41,-34.14 2018.33,-25.19"/>
<polygon fill="midnightblue" stroke="midnightblue" points="2051.6,-62.87 2061.18,-67.4 2056.51,-57.89 2051.6,-62.87"/>
</g>
<!-- Node14 -->
<g id="node14" class="node">
<title>Node14</title>
<g id="a_node14"><a xlink:href="Label_8cpp.html" target="_top" xlink:title="Implementation of Label class.">
<polygon fill="white" stroke="black" points="2396.5,-6 2396.5,-25 2516.5,-25 2516.5,-6 2396.5,-6"/>
<text text-anchor="middle" x="2456.5" y="-13" font-family="Helvetica,sans-Serif" font-size="10.00">src/entities/ui/Label.cpp</text>
</a>
</g>
</g>
<!-- Node13&#45;&gt;Node14 -->
<g id="edge13" class="edge">
<title>Node13&#45;&gt;Node14</title>
<path fill="none" stroke="midnightblue" d="M2433.17,-58.63C2439.57,-47.07 2446.97,-33.71 2451.68,-25.19"/>
<polygon fill="midnightblue" stroke="midnightblue" points="2430.09,-56.95 2428.31,-67.4 2436.22,-60.34 2430.09,-56.95"/>
</g>
<!-- Node16 -->
<g id="node16" class="node">
<title>Node16</title>
<g id="a_node16"><a xlink:href="AssetService_8cpp_source.html" target="_top" xlink:title=" ">
<polygon fill="white" stroke="black" points="121.5,-67.5 121.5,-97.5 223.5,-97.5 223.5,-67.5 121.5,-67.5"/>
<text text-anchor="start" x="129.5" y="-85.5" font-family="Helvetica,sans-Serif" font-size="10.00">src/services/assets</text>
<text text-anchor="middle" x="172.5" y="-74.5" font-family="Helvetica,sans-Serif" font-size="10.00">/AssetService.cpp</text>
</a>
</g>
</g>
<!-- Node15&#45;&gt;Node16 -->
<g id="edge15" class="edge">
<title>Node15&#45;&gt;Node16</title>
<path fill="none" stroke="midnightblue" d="M656.48,-199.12C561.13,-176.48 383.72,-134.29 232.5,-98 229.58,-97.3 226.58,-96.58 223.56,-95.85"/>
<polygon fill="midnightblue" stroke="midnightblue" points="655.76,-202.55 666.29,-201.45 657.37,-195.74 655.76,-202.55"/>
</g>
<!-- Node17 -->
<g id="node17" class="node">
<title>Node17</title>
<g id="a_node17"><a xlink:href="Services_8h.html" target="_top" xlink:title="Implementation of core Services class.">
<polygon fill="white" stroke="black" points="885.5,-140 885.5,-159 1021.5,-159 1021.5,-140 885.5,-140"/>
<text text-anchor="middle" x="953.5" y="-147" font-family="Helvetica,sans-Serif" font-size="10.00">include/services/Services.h</text>
</a>
</g>
</g>
<!-- Node15&#45;&gt;Node17 -->
<g id="edge16" class="edge">
<title>Node15&#45;&gt;Node17</title>
<path fill="none" stroke="midnightblue" d="M784.53,-198.67C829.09,-185.97 888.38,-169.06 923.58,-159.03"/>
<polygon fill="midnightblue" stroke="midnightblue" points="783.35,-195.37 774.69,-201.48 785.27,-202.1 783.35,-195.37"/>
</g>
<!-- Node17&#45;&gt;Node2 -->
<g id="edge17" class="edge">
<title>Node17&#45;&gt;Node2</title>
<path fill="none" stroke="midnightblue" d="M874.79,-148.31C725.38,-146.95 390.7,-139.1 112.5,-98 102.7,-96.55 92.16,-94.3 82.64,-92"/>
<polygon fill="midnightblue" stroke="midnightblue" points="875.2,-151.81 885.23,-148.4 875.26,-144.81 875.2,-151.81"/>
</g>
<!-- Node17&#45;&gt;Node4 -->
<g id="edge24" class="edge">
<title>Node17&#45;&gt;Node4</title>
<path fill="none" stroke="midnightblue" d="M1031.72,-148.71C1236.39,-148.59 1783.93,-143.87 1958.5,-98 1988.3,-90.17 1992.12,-78.98 2020.5,-67 2060.41,-50.16 2108.08,-34.35 2137.57,-25.05"/>
<polygon fill="midnightblue" stroke="midnightblue" points="1031.65,-145.21 1021.65,-148.71 1031.65,-152.21 1031.65,-145.21"/>
</g>
<!-- Node17&#45;&gt;Node6 -->
<g id="edge20" class="edge">
<title>Node17&#45;&gt;Node6</title>
<path fill="none" stroke="midnightblue" d="M959.17,-130.36C962.1,-120.77 965.64,-108.79 968.5,-98 975.49,-71.6 982.46,-40.02 985.67,-25.11"/>
<polygon fill="midnightblue" stroke="midnightblue" points="955.81,-129.38 956.2,-139.97 962.5,-131.45 955.81,-129.38"/>
</g>
<!-- Node17&#45;&gt;Node8 -->
<g id="edge21" class="edge">
<title>Node17&#45;&gt;Node8</title>
<path fill="none" stroke="midnightblue" d="M968.78,-132.77C986.13,-115.4 1015.79,-87.24 1044.5,-67 1068.68,-49.96 1099.23,-34.38 1118.57,-25.16"/>
<polygon fill="midnightblue" stroke="midnightblue" points="966.25,-130.34 961.72,-139.92 971.23,-135.26 966.25,-130.34"/>
</g>
<!-- Node17&#45;&gt;Node12 -->
<g id="edge22" class="edge">
<title>Node17&#45;&gt;Node12</title>
<path fill="none" stroke="midnightblue" d="M1031.92,-147.52C1248.21,-144.4 1842.59,-132.71 1923.5,-98 1960.55,-82.1 1991.28,-42.77 2003.65,-25.21"/>
<polygon fill="midnightblue" stroke="midnightblue" points="1031.55,-144.03 1021.6,-147.67 1031.65,-151.03 1031.55,-144.03"/>
</g>
<!-- Node17&#45;&gt;Node16 -->
<g id="edge27" class="edge">
<title>Node17&#45;&gt;Node16</title>
<path fill="none" stroke="midnightblue" d="M875.4,-147.3C742.59,-144.3 464.54,-133.91 232.5,-98 229.64,-97.56 226.72,-97.05 223.77,-96.49"/>
<polygon fill="midnightblue" stroke="midnightblue" points="875.41,-150.8 885.49,-147.52 875.56,-143.8 875.41,-150.8"/>
</g>
<!-- Node18 -->
<g id="node18" class="node">
<title>Node18</title>
<g id="a_node18"><a xlink:href="Texture_8cpp.html" target="_top" xlink:title="Implementation of Texture.">
<polygon fill="white" stroke="black" points="539.5,-73 539.5,-92 655.5,-92 655.5,-73 539.5,-73"/>
<text text-anchor="middle" x="597.5" y="-80" font-family="Helvetica,sans-Serif" font-size="10.00">src/assets/Texture.cpp</text>
</a>
</g>
</g>
<!-- Node17&#45;&gt;Node18 -->
<g id="edge18" class="edge">
<title>Node17&#45;&gt;Node18</title>
<path fill="none" stroke="midnightblue" d="M893.67,-138.27C836.14,-128.33 746.78,-112.65 669.5,-98 659.6,-96.12 648.96,-94.02 638.97,-92.02"/>
<polygon fill="midnightblue" stroke="midnightblue" points="893.22,-141.74 903.67,-139.99 894.41,-134.84 893.22,-141.74"/>
</g>
<!-- Node19 -->
<g id="node19" class="node">
<title>Node19</title>
<g id="a_node19"><a xlink:href="ParticleEmitter_8cpp.html" target="_top" xlink:title="Implementation of a particle emitter. and configured.">
<polygon fill="white" stroke="black" points="1776,-6 1776,-25 1925,-25 1925,-6 1776,-6"/>
<text text-anchor="middle" x="1850.5" y="-13" font-family="Helvetica,sans-Serif" font-size="10.00">src/entities/ParticleEmitter.cpp</text>
</a>
</g>
</g>
<!-- Node17&#45;&gt;Node19 -->
<g id="edge19" class="edge">
<title>Node17&#45;&gt;Node19</title>
<path fill="none" stroke="midnightblue" d="M1032.11,-147.25C1254.94,-143.31 1876.58,-129.54 1906.5,-98 1928.95,-74.33 1887.23,-40.9 1864.22,-25.24"/>
<polygon fill="midnightblue" stroke="midnightblue" points="1031.75,-143.75 1021.81,-147.43 1031.87,-150.75 1031.75,-143.75"/>
</g>
<!-- Node20 -->
<g id="node20" class="node">
<title>Node20</title>
<g id="a_node20"><a xlink:href="MessageBox_8cpp.html" target="_top" xlink:title="Implementation of MessageBox.">
<polygon fill="white" stroke="black" points="711.5,-73 711.5,-92 863.5,-92 863.5,-73 711.5,-73"/>
<text text-anchor="middle" x="787.5" y="-80" font-family="Helvetica,sans-Serif" font-size="10.00">src/entities/ui/MessageBox.cpp</text>
</a>
</g>
</g>
<!-- Node17&#45;&gt;Node20 -->
<g id="edge23" class="edge">
<title>Node17&#45;&gt;Node20</title>
<path fill="none" stroke="midnightblue" d="M921.84,-136.1C888.88,-123.2 838.14,-103.33 809.37,-92.06"/>
<polygon fill="midnightblue" stroke="midnightblue" points="920.87,-139.48 931.46,-139.87 923.42,-132.96 920.87,-139.48"/>
</g>
<!-- Node21 -->
<g id="node21" class="node">
<title>Node21</title>
<g id="a_node21"><a xlink:href="Game_8cpp.html" target="_top" xlink:title="Implementation of Game.">
<polygon fill="white" stroke="black" points="882,-73 882,-92 959,-92 959,-73 882,-73"/>
<text text-anchor="middle" x="920.5" y="-80" font-family="Helvetica,sans-Serif" font-size="10.00">src/Game.cpp</text>
</a>
</g>
</g>
<!-- Node17&#45;&gt;Node21 -->
<g id="edge25" class="edge">
<title>Node17&#45;&gt;Node21</title>
<path fill="none" stroke="midnightblue" d="M944.44,-130.66C938.08,-118.13 929.85,-101.91 924.88,-92.13"/>
<polygon fill="midnightblue" stroke="midnightblue" points="941.4,-132.4 949.05,-139.73 947.64,-129.23 941.4,-132.4"/>
</g>
<!-- Node22 -->
<g id="node22" class="node">
<title>Node22</title>
<g id="a_node22"><a xlink:href="Primitives_8cpp.html" target="_top" xlink:title="Implementation of Primitives namespace helpers.">
<polygon fill="white" stroke="black" points="1053.5,-73 1053.5,-92 1193.5,-92 1193.5,-73 1053.5,-73"/>
<text text-anchor="middle" x="1123.5" y="-80" font-family="Helvetica,sans-Serif" font-size="10.00">src/primitives/Primitives.cpp</text>
</a>
</g>
</g>
<!-- Node17&#45;&gt;Node22 -->
<g id="edge26" class="edge">
<title>Node17&#45;&gt;Node22</title>
<path fill="none" stroke="midnightblue" d="M985.48,-136.27C1019.22,-123.37 1071.52,-103.38 1101.1,-92.06"/>
<polygon fill="midnightblue" stroke="midnightblue" points="984.17,-133.03 976.07,-139.87 986.67,-139.57 984.17,-133.03"/>
</g>
<!-- Node23 -->
<g id="node23" class="node">
<title>Node23</title>
<g id="a_node23"><a xlink:href="AudioService_8cpp.html" target="_top" xlink:title="Implementation of AudioService.">
<polygon fill="white" stroke="black" points="1211.5,-67.5 1211.5,-97.5 1307.5,-97.5 1307.5,-67.5 1211.5,-67.5"/>
<text text-anchor="start" x="1219.5" y="-85.5" font-family="Helvetica,sans-Serif" font-size="10.00">src/services/audio</text>
<text text-anchor="middle" x="1259.5" y="-74.5" font-family="Helvetica,sans-Serif" font-size="10.00">/AudioService.cpp</text>
</a>
</g>
</g>
<!-- Node17&#45;&gt;Node23 -->
<g id="edge28" class="edge">
<title>Node17&#45;&gt;Node23</title>
<path fill="none" stroke="midnightblue" d="M1009.15,-138.02C1059.72,-128.31 1136.32,-113.12 1202.5,-98 1205.39,-97.34 1208.35,-96.64 1211.34,-95.93"/>
<polygon fill="midnightblue" stroke="midnightblue" points="1008.24,-134.63 999.08,-139.95 1009.56,-141.51 1008.24,-134.63"/>
</g>
<!-- Node24 -->
<g id="node24" class="node">
<title>Node24</title>
<g id="a_node24"><a xlink:href="ConfigService_8cpp.html" target="_top" xlink:title="Implementation of default Config Service.">
<polygon fill="white" stroke="black" points="1325.5,-67.5 1325.5,-97.5 1423.5,-97.5 1423.5,-67.5 1325.5,-67.5"/>
<text text-anchor="start" x="1333.5" y="-85.5" font-family="Helvetica,sans-Serif" font-size="10.00">src/services/config</text>
<text text-anchor="middle" x="1374.5" y="-74.5" font-family="Helvetica,sans-Serif" font-size="10.00">/ConfigService.cpp</text>
</a>
</g>
</g>
<!-- Node17&#45;&gt;Node24 -->
<g id="edge29" class="edge">
<title>Node17&#45;&gt;Node24</title>
<path fill="none" stroke="midnightblue" d="M1031.91,-140.04C1105.7,-131.5 1219.11,-116.89 1316.5,-98 1319.35,-97.45 1322.28,-96.84 1325.22,-96.2"/>
<polygon fill="midnightblue" stroke="midnightblue" points="1031.3,-136.59 1021.76,-141.21 1032.1,-143.54 1031.3,-136.59"/>
</g>
<!-- Node25 -->
<g id="node25" class="node">
<title>Node25</title>
<g id="a_node25"><a xlink:href="DisplayService_8cpp.html" target="_top" xlink:title="Implementation of DisplayService.">
<polygon fill="white" stroke="black" points="500,-0.5 500,-30.5 603,-30.5 603,-0.5 500,-0.5"/>
<text text-anchor="start" x="508" y="-18.5" font-family="Helvetica,sans-Serif" font-size="10.00">src/services/display</text>
<text text-anchor="middle" x="551.5" y="-7.5" font-family="Helvetica,sans-Serif" font-size="10.00">/DisplayService.cpp</text>
</a>
</g>
</g>
<!-- Node17&#45;&gt;Node25 -->
<g id="edge30" class="edge">
<title>Node17&#45;&gt;Node25</title>
<path fill="none" stroke="midnightblue" d="M874.91,-147.31C726.1,-144.24 415.09,-133.6 382.5,-98 344.01,-55.95 437.12,-33.31 499.89,-23.19"/>
<polygon fill="midnightblue" stroke="midnightblue" points="875.27,-150.82 885.34,-147.52 875.41,-143.82 875.27,-150.82"/>
</g>
<!-- Node26 -->
<g id="node26" class="node">
<title>Node26</title>
<g id="a_node26"><a xlink:href="EventQueue_8cpp.html" target="_top" xlink:title="Implementation of EventQueue.">
<polygon fill="white" stroke="black" points="1441.5,-67.5 1441.5,-97.5 1543.5,-97.5 1543.5,-67.5 1441.5,-67.5"/>
<text text-anchor="start" x="1449.5" y="-85.5" font-family="Helvetica,sans-Serif" font-size="10.00">src/services/events</text>
<text text-anchor="middle" x="1492.5" y="-74.5" font-family="Helvetica,sans-Serif" font-size="10.00">/EventQueue.cpp</text>
</a>
</g>
</g>
<!-- Node17&#45;&gt;Node26 -->
<g id="edge31" class="edge">
<title>Node17&#45;&gt;Node26</title>
<path fill="none" stroke="midnightblue" d="M1031.84,-143.43C1127.05,-136.54 1292.38,-122.21 1432.5,-98 1435.35,-97.51 1438.27,-96.96 1441.21,-96.37"/>
<polygon fill="midnightblue" stroke="midnightblue" points="1031.44,-139.95 1021.71,-144.16 1031.94,-146.93 1031.44,-139.95"/>
</g>
<!-- Node27 -->
<g id="node27" class="node">
<title>Node27</title>
<g id="a_node27"><a xlink:href="InputService_8cpp.html" target="_top" xlink:title="Implementation of InputService. Handles mouse, keyboard and joystick.">
<polygon fill="white" stroke="black" points="241.5,-67.5 241.5,-97.5 335.5,-97.5 335.5,-67.5 241.5,-67.5"/>
<text text-anchor="start" x="249.5" y="-85.5" font-family="Helvetica,sans-Serif" font-size="10.00">src/services/input</text>
<text text-anchor="middle" x="288.5" y="-74.5" font-family="Helvetica,sans-Serif" font-size="10.00">/InputService.cpp</text>
</a>
</g>
</g>
<!-- Node17&#45;&gt;Node27 -->
<g id="edge32" class="edge">
<title>Node17&#45;&gt;Node27</title>
<path fill="none" stroke="midnightblue" d="M874.99,-145.7C759.32,-140.71 536.61,-127.89 349.5,-98 344.99,-97.28 340.31,-96.4 335.65,-95.45"/>
<polygon fill="midnightblue" stroke="midnightblue" points="875.02,-149.2 885.16,-146.12 875.32,-142.21 875.02,-149.2"/>
</g>
<!-- Node28 -->
<g id="node28" class="node">
<title>Node28</title>
<g id="a_node28"><a xlink:href="SceneService_8cpp.html" target="_top" xlink:title="Implementation of SceneService.">
<polygon fill="white" stroke="black" points="721,-0.5 721,-30.5 820,-30.5 820,-0.5 721,-0.5"/>
<text text-anchor="start" x="729" y="-18.5" font-family="Helvetica,sans-Serif" font-size="10.00">src/services/scene</text>
<text text-anchor="middle" x="770.5" y="-7.5" font-family="Helvetica,sans-Serif" font-size="10.00">/SceneService.cpp</text>
</a>
</g>
</g>
<!-- Node17&#45;&gt;Node28 -->
<g id="edge33" class="edge">
<title>Node17&#45;&gt;Node28</title>
<path fill="none" stroke="midnightblue" d="M875.14,-143.37C809.82,-137.26 724.09,-124.36 702.5,-98 683,-74.19 717.88,-46.76 744.49,-30.57"/>
<polygon fill="midnightblue" stroke="midnightblue" points="875.17,-146.88 885.44,-144.29 875.79,-139.91 875.17,-146.88"/>
</g>
<!-- Node29 -->
<g id="node29" class="node">
<title>Node29</title>
<g id="a_node29"><a xlink:href="Services_8cpp_source.html" target="_top" xlink:title=" ">
<polygon fill="white" stroke="black" points="392,-73 392,-92 521,-92 521,-73 392,-73"/>
<text text-anchor="middle" x="456.5" y="-80" font-family="Helvetica,sans-Serif" font-size="10.00">src/services/Services.cpp</text>
</a>
</g>
</g>
<!-- Node17&#45;&gt;Node29 -->
<g id="edge34" class="edge">
<title>Node17&#45;&gt;Node29</title>
<path fill="none" stroke="midnightblue" d="M875.05,-140.91C789.94,-132.25 650.2,-116.85 530.5,-98 519.64,-96.29 507.94,-94.14 497.12,-92.02"/>
<polygon fill="midnightblue" stroke="midnightblue" points="874.85,-144.4 885.15,-141.93 875.55,-137.44 874.85,-144.4"/>
</g>
<!-- Node30 -->
<g id="node30" class="node">
<title>Node30</title>
<g id="a_node30"><a xlink:href="Scene_8h.html" target="_top" xlink:title="Parent scene class. Children can be added to scene manager.">
<polygon fill="white" stroke="black" points="1782,-73 1782,-92 1897,-92 1897,-73 1782,-73"/>
<text text-anchor="middle" x="1839.5" y="-80" font-family="Helvetica,sans-Serif" font-size="10.00">include/scene/Scene.h</text>
</a>
</g>
</g>
<!-- Node17&#45;&gt;Node30 -->
<g id="edge35" class="edge">
<title>Node17&#45;&gt;Node30</title>
<path fill="none" stroke="midnightblue" d="M1031.74,-147.61C1177.94,-145.08 1502.22,-135.36 1772.5,-98 1783.11,-96.53 1794.54,-94.31 1804.9,-92.03"/>
<polygon fill="midnightblue" stroke="midnightblue" points="1031.47,-144.12 1021.53,-147.78 1031.59,-151.12 1031.47,-144.12"/>
</g>
<!-- Node30&#45;&gt;Node4 -->
<g id="edge44" class="edge">
<title>Node30&#45;&gt;Node4</title>
<path fill="none" stroke="midnightblue" d="M1892.37,-70.96C1956.53,-58.16 2063.47,-36.84 2122.71,-25.03"/>
<polygon fill="midnightblue" stroke="midnightblue" points="1891.58,-67.55 1882.45,-72.94 1892.95,-74.41 1891.58,-67.55"/>
</g>
<!-- Node30&#45;&gt;Node6 -->
<g id="edge40" class="edge">
<title>Node30&#45;&gt;Node6</title>
<path fill="none" stroke="midnightblue" d="M1795.45,-70.9C1787.83,-69.38 1779.97,-67.99 1772.5,-67 1457.96,-25.31 1374.33,-70.43 1059.5,-31 1047.99,-29.56 1035.56,-27.31 1024.33,-25.01"/>
<polygon fill="midnightblue" stroke="midnightblue" points="1794.75,-74.33 1805.26,-72.97 1796.19,-67.48 1794.75,-74.33"/>
</g>
<!-- Node30&#45;&gt;Node8 -->
<g id="edge41" class="edge">
<title>Node30&#45;&gt;Node8</title>
<path fill="none" stroke="midnightblue" d="M1794.93,-70.89C1787.47,-69.39 1779.79,-68.02 1772.5,-67 1527.26,-32.72 1462.25,-61.4 1216.5,-31 1204.18,-29.48 1190.88,-27.26 1178.77,-25.02"/>
<polygon fill="midnightblue" stroke="midnightblue" points="1794.4,-74.35 1804.9,-72.99 1795.84,-67.5 1794.4,-74.35"/>
</g>
<!-- Node30&#45;&gt;Node10 -->
<g id="edge42" class="edge">
<title>Node30&#45;&gt;Node10</title>
<path fill="none" stroke="midnightblue" d="M1907.23,-74.7C1988.01,-66.22 2127.03,-50.44 2245.5,-31 2255.93,-29.29 2267.16,-27.14 2277.54,-25.02"/>
<polygon fill="midnightblue" stroke="midnightblue" points="1906.77,-71.23 1897.19,-75.75 1907.5,-78.19 1906.77,-71.23"/>
</g>
<!-- Node30&#45;&gt;Node12 -->
<g id="edge43" class="edge">
<title>Node30&#45;&gt;Node12</title>
<path fill="none" stroke="midnightblue" d="M1871.48,-69.27C1905.22,-56.37 1957.52,-36.38 1987.1,-25.06"/>
<polygon fill="midnightblue" stroke="midnightblue" points="1870.17,-66.03 1862.07,-72.87 1872.67,-72.57 1870.17,-66.03"/>
</g>
<!-- Node30&#45;&gt;Node19 -->
<g id="edge38" class="edge">
<title>Node30&#45;&gt;Node19</title>
<path fill="none" stroke="midnightblue" d="M1842.71,-62.54C1844.8,-50.17 1847.43,-34.62 1849.04,-25.13"/>
<polygon fill="midnightblue" stroke="midnightblue" points="1839.2,-62.29 1840.98,-72.73 1846.1,-63.46 1839.2,-62.29"/>
</g>
<!-- Node30&#45;&gt;Node25 -->
<g id="edge46" class="edge">
<title>Node30&#45;&gt;Node25</title>
<path fill="none" stroke="midnightblue" d="M1795.71,-70.85C1788.02,-69.31 1780.06,-67.94 1772.5,-67 1304.71,-8.91 1182.98,-60.15 712.5,-31 675.95,-28.73 634.82,-25.01 603.29,-21.9"/>
<polygon fill="midnightblue" stroke="midnightblue" points="1795.11,-74.3 1805.62,-72.93 1796.55,-67.45 1795.11,-74.3"/>
</g>
<!-- Node30&#45;&gt;Node28 -->
<g id="edge47" class="edge">
<title>Node30&#45;&gt;Node28</title>
<path fill="none" stroke="midnightblue" d="M1795.71,-70.9C1788.01,-69.36 1780.05,-67.97 1772.5,-67 1394.81,-18.55 1296.33,-57.83 916.5,-31 884.36,-28.73 848.33,-25.16 820.11,-22.13"/>
<polygon fill="midnightblue" stroke="midnightblue" points="1795.1,-74.35 1805.61,-72.99 1796.55,-67.5 1795.1,-74.35"/>
</g>
<!-- Node31 -->
<g id="node31" class="node">
<title>Node31</title>
<g id="a_node31"><a xlink:href="GameObject_8cpp_source.html" target="_top" xlink:title=" ">
<polygon fill="white" stroke="black" points="1617.5,-6 1617.5,-25 1757.5,-25 1757.5,-6 1617.5,-6"/>
<text text-anchor="middle" x="1687.5" y="-13" font-family="Helvetica,sans-Serif" font-size="10.00">src/entities/GameObject.cpp</text>
</a>
</g>
</g>
<!-- Node30&#45;&gt;Node31 -->
<g id="edge36" class="edge">
<title>Node30&#45;&gt;Node31</title>
<path fill="none" stroke="midnightblue" d="M1809.76,-68.78C1779.66,-55.91 1733.93,-36.35 1707.77,-25.17"/>
<polygon fill="midnightblue" stroke="midnightblue" points="1808.74,-72.15 1819.32,-72.87 1811.5,-65.72 1808.74,-72.15"/>
</g>
<!-- Node32 -->
<g id="node32" class="node">
<title>Node32</title>
<g id="a_node32"><a xlink:href="Particle_8cpp.html" target="_top" xlink:title="Implementation of Particle.">
<polygon fill="white" stroke="black" points="1225,-6 1225,-25 1344,-25 1344,-6 1225,-6"/>
<text text-anchor="middle" x="1284.5" y="-13" font-family="Helvetica,sans-Serif" font-size="10.00">src/entities/Particle.cpp</text>
</a>
</g>
</g>
<!-- Node30&#45;&gt;Node32 -->
<g id="edge37" class="edge">
<title>Node30&#45;&gt;Node32</title>
<path fill="none" stroke="midnightblue" d="M1793.92,-70.82C1786.78,-69.38 1779.46,-68.05 1772.5,-67 1587.67,-39.18 1538.41,-58.27 1353.5,-31 1342.84,-29.43 1331.36,-27.22 1320.88,-25.01"/>
<polygon fill="midnightblue" stroke="midnightblue" points="1793.68,-74.35 1804.19,-72.98 1795.12,-67.5 1793.68,-74.35"/>
</g>
<!-- Node33 -->
<g id="node33" class="node">
<title>Node33</title>
<g id="a_node33"><a xlink:href="Sprite_8cpp.html" target="_top" xlink:title="Implementation of Sprite.">
<polygon fill="white" stroke="black" points="1362,-6 1362,-25 1473,-25 1473,-6 1362,-6"/>
<text text-anchor="middle" x="1417.5" y="-13" font-family="Helvetica,sans-Serif" font-size="10.00">src/entities/Sprite.cpp</text>
</a>
</g>
</g>
<!-- Node30&#45;&gt;Node33 -->
<g id="edge39" class="edge">
<title>Node30&#45;&gt;Node33</title>
<path fill="none" stroke="midnightblue" d="M1792.91,-70.85C1786.08,-69.46 1779.12,-68.13 1772.5,-67 1644.46,-45.24 1610.47,-53.16 1482.5,-31 1472.82,-29.32 1462.4,-27.16 1452.8,-25.02"/>
<polygon fill="midnightblue" stroke="midnightblue" points="1792.25,-74.29 1802.75,-72.93 1793.69,-67.44 1792.25,-74.29"/>
</g>
<!-- Node34 -->
<g id="node34" class="node">
<title>Node34</title>
<g id="a_node34"><a xlink:href="Scene_8cpp.html" target="_top" xlink:title="Implementation of Scene class.">
<polygon fill="white" stroke="black" points="1491.5,-6 1491.5,-25 1599.5,-25 1599.5,-6 1491.5,-6"/>
<text text-anchor="middle" x="1545.5" y="-13" font-family="Helvetica,sans-Serif" font-size="10.00">src/scene/Scene.cpp</text>
</a>
</g>
</g>
<!-- Node30&#45;&gt;Node34 -->
<g id="edge45" class="edge">
<title>Node30&#45;&gt;Node34</title>
<path fill="none" stroke="midnightblue" d="M1790.14,-70.78C1733.03,-58.36 1642.51,-38.63 1608.5,-31 1599.96,-29.08 1590.77,-26.99 1582.13,-25"/>
<polygon fill="midnightblue" stroke="midnightblue" points="1789.53,-74.22 1800.04,-72.93 1791.01,-67.38 1789.53,-74.22"/>
</g>
</g>
</svg>
