<?xml version="1.0" encoding="UTF-8" standalone="no"?>
<!DOCTYPE svg PUBLIC "-//W3C//DTD SVG 1.1//EN"
 "http://www.w3.org/Graphics/SVG/1.1/DTD/svg11.dtd">
<!-- Generated by graphviz version 2.46.1 (20210215.1649)
 -->
<!-- Title: src/Game.cpp Pages: 1 -->
<svg width="1781pt" height="308pt"
 viewBox="0.00 0.00 1780.50 308.00" xmlns="http://www.w3.org/2000/svg" xmlns:xlink="http://www.w3.org/1999/xlink">
<g id="graph0" class="graph" transform="scale(1 1) rotate(0) translate(4 304)">
<title>src/Game.cpp</title>
<polygon fill="white" stroke="transparent" points="-4,4 -4,-304 1776.5,-304 1776.5,4 -4,4"/>
<!-- Node1 -->
<g id="node1" class="node">
<title>Node1</title>
<g id="a_node1"><a xlink:title="Implementation of Game.">
<polygon fill="#bfbfbf" stroke="black" points="427.5,-280.5 427.5,-299.5 504.5,-299.5 504.5,-280.5 427.5,-280.5"/>
<text text-anchor="middle" x="466" y="-287.5" font-family="Helvetica,sans-Serif" font-size="10.00">src/Game.cpp</text>
</a>
</g>
</g>
<!-- Node2 -->
<g id="node2" class="node">
<title>Node2</title>
<g id="a_node2"><a xlink:href="Game_8h.html" target="_top" xlink:title="The main entry point of a AFK program.">
<polygon fill="white" stroke="black" points="460,-168.5 460,-187.5 510,-187.5 510,-168.5 460,-168.5"/>
<text text-anchor="middle" x="485" y="-175.5" font-family="Helvetica,sans-Serif" font-size="10.00">Game.h</text>
</a>
</g>
</g>
<!-- Node1&#45;&gt;Node2 -->
<g id="edge1" class="edge">
<title>Node1&#45;&gt;Node2</title>
<path fill="none" stroke="midnightblue" d="M467.49,-280.37C470.56,-262.62 477.63,-221.67 481.79,-197.6"/>
<polygon fill="midnightblue" stroke="midnightblue" points="485.26,-198.04 483.52,-187.59 478.36,-196.85 485.26,-198.04"/>
</g>
<!-- Node6 -->
<g id="node6" class="node">
<title>Node6</title>
<g id="a_node6"><a xlink:href="Exceptions_8h.html" target="_top" xlink:title="Interally used exceptions. These can be handled properly in the main game class.">
<polygon fill="white" stroke="black" points="326,-224.5 326,-243.5 438,-243.5 438,-224.5 326,-224.5"/>
<text text-anchor="middle" x="382" y="-231.5" font-family="Helvetica,sans-Serif" font-size="10.00">common/Exceptions.h</text>
</a>
</g>
</g>
<!-- Node1&#45;&gt;Node6 -->
<g id="edge6" class="edge">
<title>Node1&#45;&gt;Node6</title>
<path fill="none" stroke="midnightblue" d="M452.5,-280.32C439.4,-271.9 419.29,-258.97 403.89,-249.07"/>
<polygon fill="midnightblue" stroke="midnightblue" points="405.77,-246.12 395.46,-243.65 401.98,-252.01 405.77,-246.12"/>
</g>
<!-- Node8 -->
<g id="node8" class="node">
<title>Node8</title>
<g id="a_node8"><a xlink:href="MessageBox_8h.html" target="_top" xlink:title="Native message box.">
<polygon fill="white" stroke="black" points="494.5,-224.5 494.5,-243.5 619.5,-243.5 619.5,-224.5 494.5,-224.5"/>
<text text-anchor="middle" x="557" y="-231.5" font-family="Helvetica,sans-Serif" font-size="10.00">entities/ui/MessageBox.h</text>
</a>
</g>
</g>
<!-- Node1&#45;&gt;Node8 -->
<g id="edge9" class="edge">
<title>Node1&#45;&gt;Node8</title>
<path fill="none" stroke="midnightblue" d="M480.62,-280.32C494.95,-271.82 517.01,-258.73 533.75,-248.8"/>
<polygon fill="midnightblue" stroke="midnightblue" points="535.6,-251.77 542.42,-243.65 532.03,-245.75 535.6,-251.77"/>
</g>
<!-- Node9 -->
<g id="node9" class="node">
<title>Node9</title>
<g id="a_node9"><a xlink:href="RandomGenerator_8h.html" target="_top" xlink:title="Static helper class that can create random numbers.">
<polygon fill="white" stroke="black" points="151,-224.5 151,-243.5 289,-243.5 289,-224.5 151,-224.5"/>
<text text-anchor="middle" x="220" y="-231.5" font-family="Helvetica,sans-Serif" font-size="10.00">random/RandomGenerator.h</text>
</a>
</g>
</g>
<!-- Node1&#45;&gt;Node9 -->
<g id="edge11" class="edge">
<title>Node1&#45;&gt;Node9</title>
<path fill="none" stroke="midnightblue" d="M427.29,-280.5C384.43,-271.09 315.26,-255.91 268.74,-245.7"/>
<polygon fill="midnightblue" stroke="midnightblue" points="269.41,-242.26 258.89,-243.54 267.91,-249.1 269.41,-242.26"/>
</g>
<!-- Node11 -->
<g id="node11" class="node">
<title>Node11</title>
<g id="a_node11"><a xlink:href="Services_8h.html" target="_top" xlink:title="Implementation of core Services class.">
<polygon fill="white" stroke="black" points="912,-224.5 912,-243.5 1014,-243.5 1014,-224.5 912,-224.5"/>
<text text-anchor="middle" x="963" y="-231.5" font-family="Helvetica,sans-Serif" font-size="10.00">services/Services.h</text>
</a>
</g>
</g>
<!-- Node1&#45;&gt;Node11 -->
<g id="edge13" class="edge">
<title>Node1&#45;&gt;Node11</title>
<path fill="none" stroke="midnightblue" d="M504.59,-284.81C590.45,-275.48 797.88,-252.94 901.69,-241.66"/>
<polygon fill="midnightblue" stroke="midnightblue" points="902.14,-245.13 911.7,-240.57 901.38,-238.17 902.14,-245.13"/>
</g>
<!-- Node3 -->
<g id="node3" class="node">
<title>Node3</title>
<g id="a_node3"><a xlink:title=" ">
<polygon fill="white" stroke="#bfbfbf" points="901.5,-56.5 901.5,-75.5 942.5,-75.5 942.5,-56.5 901.5,-56.5"/>
<text text-anchor="middle" x="922" y="-63.5" font-family="Helvetica,sans-Serif" font-size="10.00">string</text>
</a>
</g>
</g>
<!-- Node2&#45;&gt;Node3 -->
<g id="edge2" class="edge">
<title>Node2&#45;&gt;Node3</title>
<path fill="none" stroke="midnightblue" d="M487.54,-168.05C492.15,-153.55 503.41,-125.24 524,-112 584.72,-72.95 808.79,-67.64 891.27,-67.03"/>
<polygon fill="midnightblue" stroke="midnightblue" points="891.29,-70.53 901.27,-66.97 891.25,-63.53 891.29,-70.53"/>
</g>
<!-- Node4 -->
<g id="node4" class="node">
<title>Node4</title>
<g id="a_node4"><a xlink:href="Service_8h.html" target="_top" xlink:title="Service subscriber that can listen for events.">
<polygon fill="white" stroke="black" points="567.5,-112.5 567.5,-131.5 664.5,-131.5 664.5,-112.5 567.5,-112.5"/>
<text text-anchor="middle" x="616" y="-119.5" font-family="Helvetica,sans-Serif" font-size="10.00">services/Service.h</text>
</a>
</g>
</g>
<!-- Node2&#45;&gt;Node4 -->
<g id="edge3" class="edge">
<title>Node2&#45;&gt;Node4</title>
<path fill="none" stroke="midnightblue" d="M505.76,-168.44C527.32,-159.56 561.26,-145.56 585.79,-135.45"/>
<polygon fill="midnightblue" stroke="midnightblue" points="587.43,-138.56 595.34,-131.52 584.76,-132.09 587.43,-138.56"/>
</g>
<!-- Node4&#45;&gt;Node3 -->
<g id="edge5" class="edge">
<title>Node4&#45;&gt;Node3</title>
<path fill="none" stroke="midnightblue" d="M664.49,-112.44C728.16,-101.21 838.08,-81.81 891.33,-72.41"/>
<polygon fill="midnightblue" stroke="midnightblue" points="891.95,-75.86 901.19,-70.67 890.73,-68.96 891.95,-75.86"/>
</g>
<!-- Node5 -->
<g id="node5" class="node">
<title>Node5</title>
<g id="a_node5"><a xlink:title=" ">
<polygon fill="white" stroke="#bfbfbf" points="210,-56.5 210,-75.5 316,-75.5 316,-56.5 210,-56.5"/>
<text text-anchor="middle" x="263" y="-63.5" font-family="Helvetica,sans-Serif" font-size="10.00">SDL2/SDL_events.h</text>
</a>
</g>
</g>
<!-- Node4&#45;&gt;Node5 -->
<g id="edge4" class="edge">
<title>Node4&#45;&gt;Node5</title>
<path fill="none" stroke="midnightblue" d="M567.29,-113.55C504.46,-103.94 395.08,-87.21 326,-76.64"/>
<polygon fill="midnightblue" stroke="midnightblue" points="326.52,-73.18 316.11,-75.12 325.46,-80.1 326.52,-73.18"/>
</g>
<!-- Node6&#45;&gt;Node3 -->
<g id="edge8" class="edge">
<title>Node6&#45;&gt;Node3</title>
<path fill="none" stroke="midnightblue" d="M387.37,-224.31C402.17,-201.27 446.08,-138.53 501,-112 570.1,-78.61 806.59,-69.75 891.41,-67.62"/>
<polygon fill="midnightblue" stroke="midnightblue" points="891.52,-71.12 901.44,-67.38 891.36,-64.12 891.52,-71.12"/>
</g>
<!-- Node7 -->
<g id="node7" class="node">
<title>Node7</title>
<g id="a_node7"><a xlink:title=" ">
<polygon fill="white" stroke="#bfbfbf" points="223.5,-168.5 223.5,-187.5 282.5,-187.5 282.5,-168.5 223.5,-168.5"/>
<text text-anchor="middle" x="253" y="-175.5" font-family="Helvetica,sans-Serif" font-size="10.00">stdexcept</text>
</a>
</g>
</g>
<!-- Node6&#45;&gt;Node7 -->
<g id="edge7" class="edge">
<title>Node6&#45;&gt;Node7</title>
<path fill="none" stroke="midnightblue" d="M361.56,-224.44C340.33,-215.56 306.9,-201.56 282.75,-191.45"/>
<polygon fill="midnightblue" stroke="midnightblue" points="283.92,-188.15 273.34,-187.52 281.22,-194.61 283.92,-188.15"/>
</g>
<!-- Node8&#45;&gt;Node3 -->
<g id="edge10" class="edge">
<title>Node8&#45;&gt;Node3</title>
<path fill="none" stroke="midnightblue" d="M553.74,-224.29C546.13,-202.25 529.91,-143.76 559,-112 581.34,-87.61 807.8,-73.11 891.3,-68.56"/>
<polygon fill="midnightblue" stroke="midnightblue" points="891.62,-72.05 901.42,-68.02 891.25,-65.06 891.62,-72.05"/>
</g>
<!-- Node10 -->
<g id="node10" class="node">
<title>Node10</title>
<g id="a_node10"><a xlink:title=" ">
<polygon fill="white" stroke="#bfbfbf" points="156.5,-168.5 156.5,-187.5 205.5,-187.5 205.5,-168.5 156.5,-168.5"/>
<text text-anchor="middle" x="181" y="-175.5" font-family="Helvetica,sans-Serif" font-size="10.00">random</text>
</a>
</g>
</g>
<!-- Node9&#45;&gt;Node10 -->
<g id="edge12" class="edge">
<title>Node9&#45;&gt;Node10</title>
<path fill="none" stroke="midnightblue" d="M213.56,-224.08C208.05,-216.46 199.97,-205.26 193.24,-195.94"/>
<polygon fill="midnightblue" stroke="midnightblue" points="196.01,-193.81 187.32,-187.75 190.34,-197.91 196.01,-193.81"/>
</g>
<!-- Node12 -->
<g id="node12" class="node">
<title>Node12</title>
<g id="a_node12"><a xlink:title=" ">
<polygon fill="white" stroke="#bfbfbf" points="997.5,-168.5 997.5,-187.5 1048.5,-187.5 1048.5,-168.5 997.5,-168.5"/>
<text text-anchor="middle" x="1023" y="-175.5" font-family="Helvetica,sans-Serif" font-size="10.00">memory</text>
</a>
</g>
</g>
<!-- Node11&#45;&gt;Node12 -->
<g id="edge14" class="edge">
<title>Node11&#45;&gt;Node12</title>
<path fill="none" stroke="midnightblue" d="M972.64,-224.32C981.51,-216.34 994.87,-204.31 1005.61,-194.65"/>
<polygon fill="midnightblue" stroke="midnightblue" points="1008.09,-197.13 1013.18,-187.83 1003.41,-191.92 1008.09,-197.13"/>
</g>
<!-- Node13 -->
<g id="node13" class="node">
<title>Node13</title>
<g id="a_node13"><a xlink:href="AssetService_8h.html" target="_top" xlink:title="Implementation of AssetService.">
<polygon fill="white" stroke="black" points="1338.5,-168.5 1338.5,-187.5 1453.5,-187.5 1453.5,-168.5 1338.5,-168.5"/>
<text text-anchor="middle" x="1396" y="-175.5" font-family="Helvetica,sans-Serif" font-size="10.00">assets/AssetService.h</text>
</a>
</g>
</g>
<!-- Node11&#45;&gt;Node13 -->
<g id="edge15" class="edge">
<title>Node11&#45;&gt;Node13</title>
<path fill="none" stroke="midnightblue" d="M1014.09,-226.96C1083.07,-218.75 1210.13,-203.46 1328.46,-188.19"/>
<polygon fill="midnightblue" stroke="midnightblue" points="1328.94,-191.65 1338.41,-186.9 1328.05,-184.71 1328.94,-191.65"/>
</g>
<!-- Node24 -->
<g id="node24" class="node">
<title>Node24</title>
<g id="a_node24"><a xlink:href="AudioService_8h.html" target="_top" xlink:title="Default audio service, can actually play audio.">
<polygon fill="white" stroke="black" points="1510,-168.5 1510,-187.5 1618,-187.5 1618,-168.5 1510,-168.5"/>
<text text-anchor="middle" x="1564" y="-175.5" font-family="Helvetica,sans-Serif" font-size="10.00">audio/AudioService.h</text>
</a>
</g>
</g>
<!-- Node11&#45;&gt;Node24 -->
<g id="edge33" class="edge">
<title>Node11&#45;&gt;Node24</title>
<path fill="none" stroke="midnightblue" d="M1014.24,-228.4C1123.61,-218.57 1379.67,-195.56 1499.73,-184.77"/>
<polygon fill="midnightblue" stroke="midnightblue" points="1500.23,-188.24 1509.88,-183.86 1499.6,-181.27 1500.23,-188.24"/>
</g>
<!-- Node25 -->
<g id="node25" class="node">
<title>Node25</title>
<g id="a_node25"><a xlink:href="ConfigService_8h.html" target="_top" xlink:title="Header for default Config Service.">
<polygon fill="white" stroke="black" points="1207.5,-168.5 1207.5,-187.5 1320.5,-187.5 1320.5,-168.5 1207.5,-168.5"/>
<text text-anchor="middle" x="1264" y="-175.5" font-family="Helvetica,sans-Serif" font-size="10.00">config/ConfigService.h</text>
</a>
</g>
</g>
<!-- Node11&#45;&gt;Node25 -->
<g id="edge37" class="edge">
<title>Node11&#45;&gt;Node25</title>
<path fill="none" stroke="midnightblue" d="M1010.69,-224.44C1063.86,-214.9 1149.82,-199.48 1206.63,-189.29"/>
<polygon fill="midnightblue" stroke="midnightblue" points="1207.3,-192.73 1216.53,-187.52 1206.07,-185.84 1207.3,-192.73"/>
</g>
<!-- Node27 -->
<g id="node27" class="node">
<title>Node27</title>
<g id="a_node27"><a xlink:href="DisplayService_8h.html" target="_top" xlink:title="Service that encapsulates SDL display related functionality.">
<polygon fill="white" stroke="black" points="1067,-168.5 1067,-187.5 1189,-187.5 1189,-168.5 1067,-168.5"/>
<text text-anchor="middle" x="1128" y="-175.5" font-family="Helvetica,sans-Serif" font-size="10.00">display/DisplayService.h</text>
</a>
</g>
</g>
<!-- Node11&#45;&gt;Node27 -->
<g id="edge41" class="edge">
<title>Node11&#45;&gt;Node27</title>
<path fill="none" stroke="midnightblue" d="M989.14,-224.44C1017.02,-215.32 1061.35,-200.81 1092.4,-190.65"/>
<polygon fill="midnightblue" stroke="midnightblue" points="1093.56,-193.95 1101.98,-187.52 1091.38,-187.3 1093.56,-193.95"/>
</g>
<!-- Node28 -->
<g id="node28" class="node">
<title>Node28</title>
<g id="a_node28"><a xlink:href="EventQueue_8h.html" target="_top" xlink:title="Handles SDL_Events from main SDL_Queue. Can be hooked into by other services and notified when change...">
<polygon fill="white" stroke="black" points="698,-168.5 698,-187.5 808,-187.5 808,-168.5 698,-168.5"/>
<text text-anchor="middle" x="753" y="-175.5" font-family="Helvetica,sans-Serif" font-size="10.00">events/EventQueue.h</text>
</a>
</g>
</g>
<!-- Node11&#45;&gt;Node28 -->
<g id="edge46" class="edge">
<title>Node11&#45;&gt;Node28</title>
<path fill="none" stroke="midnightblue" d="M929.72,-224.44C893.55,-215.14 835.62,-200.25 796.02,-190.06"/>
<polygon fill="midnightblue" stroke="midnightblue" points="796.68,-186.62 786.12,-187.52 794.93,-193.4 796.68,-186.62"/>
</g>
<!-- Node30 -->
<g id="node30" class="node">
<title>Node30</title>
<g id="a_node30"><a xlink:href="InputService_8h.html" target="_top" xlink:title="General Purpose input listener. Handles Mouse, Keyboard, Joystick.">
<polygon fill="white" stroke="black" points="300.5,-168.5 300.5,-187.5 403.5,-187.5 403.5,-168.5 300.5,-168.5"/>
<text text-anchor="middle" x="352" y="-175.5" font-family="Helvetica,sans-Serif" font-size="10.00">input/InputService.h</text>
</a>
</g>
</g>
<!-- Node11&#45;&gt;Node30 -->
<g id="edge50" class="edge">
<title>Node11&#45;&gt;Node30</title>
<path fill="none" stroke="midnightblue" d="M911.76,-228.55C819.58,-220.53 619.64,-203.08 451,-188 438.98,-186.93 426.14,-185.77 413.83,-184.65"/>
<polygon fill="midnightblue" stroke="midnightblue" points="413.91,-181.14 403.64,-183.72 413.28,-188.11 413.91,-181.14"/>
</g>
<!-- Node38 -->
<g id="node38" class="node">
<title>Node38</title>
<g id="a_node38"><a xlink:href="DebugLoggingService_8h.html" target="_top" xlink:title="Logging service that does the logging. Used for development.">
<polygon fill="white" stroke="black" points="826.5,-168.5 826.5,-187.5 979.5,-187.5 979.5,-168.5 826.5,-168.5"/>
<text text-anchor="middle" x="903" y="-175.5" font-family="Helvetica,sans-Serif" font-size="10.00">logging/DebugLoggingService.h</text>
</a>
</g>
</g>
<!-- Node11&#45;&gt;Node38 -->
<g id="edge63" class="edge">
<title>Node11&#45;&gt;Node38</title>
<path fill="none" stroke="midnightblue" d="M953.36,-224.32C944.49,-216.34 931.13,-204.31 920.39,-194.65"/>
<polygon fill="midnightblue" stroke="midnightblue" points="922.59,-191.92 912.82,-187.83 917.91,-197.13 922.59,-191.92"/>
</g>
<!-- Node40 -->
<g id="node40" class="node">
<title>Node40</title>
<g id="a_node40"><a xlink:href="SceneService_8h.html" target="_top" xlink:title="Service in charge of managing scenes.">
<polygon fill="white" stroke="black" points="566,-168.5 566,-187.5 680,-187.5 680,-168.5 566,-168.5"/>
<text text-anchor="middle" x="623" y="-175.5" font-family="Helvetica,sans-Serif" font-size="10.00">scene/SceneService.h</text>
</a>
</g>
</g>
<!-- Node11&#45;&gt;Node40 -->
<g id="edge67" class="edge">
<title>Node11&#45;&gt;Node40</title>
<path fill="none" stroke="midnightblue" d="M911.73,-224.86C851.6,-215.31 751.87,-199.47 686.79,-189.13"/>
<polygon fill="midnightblue" stroke="midnightblue" points="687.08,-185.63 676.65,-187.52 685.98,-192.55 687.08,-185.63"/>
</g>
<!-- Node13&#45;&gt;Node3 -->
<g id="edge17" class="edge">
<title>Node13&#45;&gt;Node3</title>
<path fill="none" stroke="midnightblue" d="M1372.5,-168.5C1348.74,-159.78 1311.06,-145.6 1279,-132 1259.6,-123.77 1256.2,-118 1236,-112 1183.14,-96.29 1020.79,-77.62 952.63,-70.23"/>
<polygon fill="midnightblue" stroke="midnightblue" points="952.85,-66.74 942.53,-69.15 952.1,-73.7 952.85,-66.74"/>
</g>
<!-- Node14 -->
<g id="node14" class="node">
<title>Node14</title>
<g id="a_node14"><a xlink:title=" ">
<polygon fill="white" stroke="#bfbfbf" points="1191.5,-112.5 1191.5,-131.5 1226.5,-131.5 1226.5,-112.5 1191.5,-112.5"/>
<text text-anchor="middle" x="1209" y="-119.5" font-family="Helvetica,sans-Serif" font-size="10.00">map</text>
</a>
</g>
</g>
<!-- Node13&#45;&gt;Node14 -->
<g id="edge16" class="edge">
<title>Node13&#45;&gt;Node14</title>
<path fill="none" stroke="midnightblue" d="M1366.37,-168.44C1330.72,-158.15 1271.33,-141 1236.61,-130.97"/>
<polygon fill="midnightblue" stroke="midnightblue" points="1237.25,-127.52 1226.68,-128.1 1235.31,-134.24 1237.25,-127.52"/>
</g>
<!-- Node15 -->
<g id="node15" class="node">
<title>Node15</title>
<g id="a_node15"><a xlink:href="Font_8h.html" target="_top" xlink:title="Easy interface to interact with SDL fonts.">
<polygon fill="white" stroke="black" points="1443.5,-112.5 1443.5,-131.5 1534.5,-131.5 1534.5,-112.5 1443.5,-112.5"/>
<text text-anchor="middle" x="1489" y="-119.5" font-family="Helvetica,sans-Serif" font-size="10.00">../../assets/Font.h</text>
</a>
</g>
</g>
<!-- Node13&#45;&gt;Node15 -->
<g id="edge18" class="edge">
<title>Node13&#45;&gt;Node15</title>
<path fill="none" stroke="midnightblue" d="M1410.94,-168.32C1425.59,-159.82 1448.13,-146.73 1465.24,-136.8"/>
<polygon fill="midnightblue" stroke="midnightblue" points="1467.2,-139.7 1474.1,-131.65 1463.69,-133.65 1467.2,-139.7"/>
</g>
<!-- Node19 -->
<g id="node19" class="node">
<title>Node19</title>
<g id="a_node19"><a xlink:href="Sound_8h.html" target="_top" xlink:title="Implementation of Sound.">
<polygon fill="white" stroke="black" points="1552.5,-112.5 1552.5,-131.5 1651.5,-131.5 1651.5,-112.5 1552.5,-112.5"/>
<text text-anchor="middle" x="1602" y="-119.5" font-family="Helvetica,sans-Serif" font-size="10.00">../../assets/Sound.h</text>
</a>
</g>
</g>
<!-- Node13&#45;&gt;Node19 -->
<g id="edge23" class="edge">
<title>Node13&#45;&gt;Node19</title>
<path fill="none" stroke="midnightblue" d="M1428.64,-168.44C1464.05,-159.16 1520.71,-144.31 1559.55,-134.13"/>
<polygon fill="midnightblue" stroke="midnightblue" points="1560.73,-137.44 1569.51,-131.52 1558.95,-130.67 1560.73,-137.44"/>
</g>
<!-- Node21 -->
<g id="node21" class="node">
<title>Node21</title>
<g id="a_node21"><a xlink:href="Stream_8h.html" target="_top" xlink:title="Wrapper for sdl stream including ability to store stream pointer. Use for single instance sounds like...">
<polygon fill="white" stroke="black" points="1669.5,-112.5 1669.5,-131.5 1772.5,-131.5 1772.5,-112.5 1669.5,-112.5"/>
<text text-anchor="middle" x="1721" y="-119.5" font-family="Helvetica,sans-Serif" font-size="10.00">../../assets/Stream.h</text>
</a>
</g>
</g>
<!-- Node13&#45;&gt;Node21 -->
<g id="edge26" class="edge">
<title>Node13&#45;&gt;Node21</title>
<path fill="none" stroke="midnightblue" d="M1447.5,-168.44C1505.14,-158.87 1598.49,-143.36 1659.81,-133.17"/>
<polygon fill="midnightblue" stroke="midnightblue" points="1660.45,-136.61 1669.74,-131.52 1659.31,-129.7 1660.45,-136.61"/>
</g>
<!-- Node22 -->
<g id="node22" class="node">
<title>Node22</title>
<g id="a_node22"><a xlink:href="Texture_8h.html" target="_top" xlink:title="Easy interface to interact with sdl bitmaps.">
<polygon fill="white" stroke="black" points="1321,-112.5 1321,-131.5 1425,-131.5 1425,-112.5 1321,-112.5"/>
<text text-anchor="middle" x="1373" y="-119.5" font-family="Helvetica,sans-Serif" font-size="10.00">../../assets/Texture.h</text>
</a>
</g>
</g>
<!-- Node13&#45;&gt;Node22 -->
<g id="edge29" class="edge">
<title>Node13&#45;&gt;Node22</title>
<path fill="none" stroke="midnightblue" d="M1392.2,-168.08C1389.09,-160.77 1384.58,-150.18 1380.71,-141.1"/>
<polygon fill="midnightblue" stroke="midnightblue" points="1383.87,-139.58 1376.73,-131.75 1377.43,-142.32 1383.87,-139.58"/>
</g>
<!-- Node15&#45;&gt;Node3 -->
<g id="edge20" class="edge">
<title>Node15&#45;&gt;Node3</title>
<path fill="none" stroke="midnightblue" d="M1443.42,-113.26C1440.24,-112.81 1437.07,-112.38 1434,-112 1246.76,-88.75 1198.87,-93.49 1011,-76 991.66,-74.2 969.98,-72.01 952.86,-70.24"/>
<polygon fill="midnightblue" stroke="midnightblue" points="953.16,-66.75 942.85,-69.2 952.44,-73.72 953.16,-66.75"/>
</g>
<!-- Node16 -->
<g id="node16" class="node">
<title>Node16</title>
<g id="a_node16"><a xlink:title=" ">
<polygon fill="white" stroke="#bfbfbf" points="1446,-56.5 1446,-75.5 1532,-75.5 1532,-56.5 1446,-56.5"/>
<text text-anchor="middle" x="1489" y="-63.5" font-family="Helvetica,sans-Serif" font-size="10.00">SDL2/SDL_ttf.h</text>
</a>
</g>
</g>
<!-- Node15&#45;&gt;Node16 -->
<g id="edge19" class="edge">
<title>Node15&#45;&gt;Node16</title>
<path fill="none" stroke="midnightblue" d="M1489,-112.08C1489,-105.01 1489,-94.86 1489,-85.99"/>
<polygon fill="midnightblue" stroke="midnightblue" points="1492.5,-85.75 1489,-75.75 1485.5,-85.75 1492.5,-85.75"/>
</g>
<!-- Node17 -->
<g id="node17" class="node">
<title>Node17</title>
<g id="a_node17"><a xlink:href="Color_8h.html" target="_top" xlink:title="Helpers for creating colors without accessing SDL api directly.">
<polygon fill="white" stroke="black" points="1334,-56.5 1334,-75.5 1412,-75.5 1412,-56.5 1334,-56.5"/>
<text text-anchor="middle" x="1373" y="-63.5" font-family="Helvetica,sans-Serif" font-size="10.00">../color/Color.h</text>
</a>
</g>
</g>
<!-- Node15&#45;&gt;Node17 -->
<g id="edge21" class="edge">
<title>Node15&#45;&gt;Node17</title>
<path fill="none" stroke="midnightblue" d="M1470.62,-112.44C1451.78,-103.68 1422.27,-89.94 1400.62,-79.86"/>
<polygon fill="midnightblue" stroke="midnightblue" points="1401.84,-76.56 1391.29,-75.52 1398.88,-82.91 1401.84,-76.56"/>
</g>
<!-- Node18 -->
<g id="node18" class="node">
<title>Node18</title>
<g id="a_node18"><a xlink:title=" ">
<polygon fill="white" stroke="#bfbfbf" points="1304,-0.5 1304,-19.5 1442,-19.5 1442,-0.5 1304,-0.5"/>
<text text-anchor="middle" x="1373" y="-7.5" font-family="Helvetica,sans-Serif" font-size="10.00">SDL2/SDL2_gfxPrimitives.h</text>
</a>
</g>
</g>
<!-- Node17&#45;&gt;Node18 -->
<g id="edge22" class="edge">
<title>Node17&#45;&gt;Node18</title>
<path fill="none" stroke="midnightblue" d="M1373,-56.08C1373,-49.01 1373,-38.86 1373,-29.99"/>
<polygon fill="midnightblue" stroke="midnightblue" points="1376.5,-29.75 1373,-19.75 1369.5,-29.75 1376.5,-29.75"/>
</g>
<!-- Node19&#45;&gt;Node3 -->
<g id="edge25" class="edge">
<title>Node19&#45;&gt;Node3</title>
<path fill="none" stroke="midnightblue" d="M1552.36,-113.01C1549.54,-112.64 1546.73,-112.3 1544,-112 1308.02,-85.77 1247.59,-95.95 1011,-76 991.65,-74.37 969.97,-72.18 952.85,-70.37"/>
<polygon fill="midnightblue" stroke="midnightblue" points="953.16,-66.89 942.84,-69.31 952.41,-73.85 953.16,-66.89"/>
</g>
<!-- Node20 -->
<g id="node20" class="node">
<title>Node20</title>
<g id="a_node20"><a xlink:title=" ">
<polygon fill="white" stroke="#bfbfbf" points="1611,-56.5 1611,-75.5 1711,-75.5 1711,-56.5 1611,-56.5"/>
<text text-anchor="middle" x="1661" y="-63.5" font-family="Helvetica,sans-Serif" font-size="10.00">SDL2/SDL_mixer.h</text>
</a>
</g>
</g>
<!-- Node19&#45;&gt;Node20 -->
<g id="edge24" class="edge">
<title>Node19&#45;&gt;Node20</title>
<path fill="none" stroke="midnightblue" d="M1611.48,-112.32C1620.2,-104.34 1633.34,-92.31 1643.9,-82.65"/>
<polygon fill="midnightblue" stroke="midnightblue" points="1646.33,-85.17 1651.35,-75.83 1641.61,-80 1646.33,-85.17"/>
</g>
<!-- Node21&#45;&gt;Node3 -->
<g id="edge28" class="edge">
<title>Node21&#45;&gt;Node3</title>
<path fill="none" stroke="midnightblue" d="M1669.33,-112.94C1666.51,-112.59 1663.72,-112.28 1661,-112 1373.18,-82.51 1299.45,-98.56 1011,-76 991.64,-74.49 969.96,-72.3 952.84,-70.47"/>
<polygon fill="midnightblue" stroke="midnightblue" points="953.16,-66.98 942.84,-69.38 952.4,-73.94 953.16,-66.98"/>
</g>
<!-- Node21&#45;&gt;Node20 -->
<g id="edge27" class="edge">
<title>Node21&#45;&gt;Node20</title>
<path fill="none" stroke="midnightblue" d="M1711.36,-112.32C1702.49,-104.34 1689.13,-92.31 1678.39,-82.65"/>
<polygon fill="midnightblue" stroke="midnightblue" points="1680.59,-79.92 1670.82,-75.83 1675.91,-85.13 1680.59,-79.92"/>
</g>
<!-- Node22&#45;&gt;Node3 -->
<g id="edge31" class="edge">
<title>Node22&#45;&gt;Node3</title>
<path fill="none" stroke="midnightblue" d="M1320.77,-113.78C1316.12,-113.17 1311.47,-112.57 1307,-112 1175.46,-95.35 1018.34,-77.67 952.93,-70.41"/>
<polygon fill="midnightblue" stroke="midnightblue" points="953.21,-66.92 942.88,-69.3 952.44,-73.88 953.21,-66.92"/>
</g>
<!-- Node22&#45;&gt;Node17 -->
<g id="edge32" class="edge">
<title>Node22&#45;&gt;Node17</title>
<path fill="none" stroke="midnightblue" d="M1373,-112.08C1373,-105.01 1373,-94.86 1373,-85.99"/>
<polygon fill="midnightblue" stroke="midnightblue" points="1376.5,-85.75 1373,-75.75 1369.5,-85.75 1376.5,-85.75"/>
</g>
<!-- Node23 -->
<g id="node23" class="node">
<title>Node23</title>
<g id="a_node23"><a xlink:title=" ">
<polygon fill="white" stroke="#bfbfbf" points="1019.5,-56.5 1019.5,-75.5 1090.5,-75.5 1090.5,-56.5 1019.5,-56.5"/>
<text text-anchor="middle" x="1055" y="-63.5" font-family="Helvetica,sans-Serif" font-size="10.00">SDL2/SDL.h</text>
</a>
</g>
</g>
<!-- Node22&#45;&gt;Node23 -->
<g id="edge30" class="edge">
<title>Node22&#45;&gt;Node23</title>
<path fill="none" stroke="midnightblue" d="M1322.61,-112.44C1261.65,-102.09 1159.88,-84.81 1100.97,-74.81"/>
<polygon fill="midnightblue" stroke="midnightblue" points="1101.29,-71.31 1090.84,-73.09 1100.12,-78.21 1101.29,-71.31"/>
</g>
<!-- Node24&#45;&gt;Node3 -->
<g id="edge34" class="edge">
<title>Node24&#45;&gt;Node3</title>
<path fill="none" stroke="midnightblue" d="M1509.85,-171.72C1458.09,-165.66 1378.33,-153.64 1312,-132 1292.72,-125.71 1290.42,-117.82 1271,-112 1240.82,-102.96 1032.64,-79.27 952.95,-70.41"/>
<polygon fill="midnightblue" stroke="midnightblue" points="952.91,-66.88 942.58,-69.26 952.14,-73.84 952.91,-66.88"/>
</g>
<!-- Node24&#45;&gt;Node19 -->
<g id="edge35" class="edge">
<title>Node24&#45;&gt;Node19</title>
<path fill="none" stroke="midnightblue" d="M1570.27,-168.08C1575.64,-160.46 1583.52,-149.26 1590.08,-139.94"/>
<polygon fill="midnightblue" stroke="midnightblue" points="1592.95,-141.94 1595.84,-131.75 1587.22,-137.91 1592.95,-141.94"/>
</g>
<!-- Node24&#45;&gt;Node21 -->
<g id="edge36" class="edge">
<title>Node24&#45;&gt;Node21</title>
<path fill="none" stroke="midnightblue" d="M1588.88,-168.44C1615.29,-159.36 1657.22,-144.94 1686.74,-134.78"/>
<polygon fill="midnightblue" stroke="midnightblue" points="1687.92,-138.08 1696.24,-131.52 1685.64,-131.46 1687.92,-138.08"/>
</g>
<!-- Node25&#45;&gt;Node3 -->
<g id="edge40" class="edge">
<title>Node25&#45;&gt;Node3</title>
<path fill="none" stroke="midnightblue" d="M1233.89,-168.49C1203.14,-159.7 1154.08,-145.42 1112,-132 1055.38,-113.94 989.91,-91.11 952.49,-77.87"/>
<polygon fill="midnightblue" stroke="midnightblue" points="953.31,-74.45 942.71,-74.4 950.97,-81.04 953.31,-74.45"/>
</g>
<!-- Node25&#45;&gt;Node14 -->
<g id="edge38" class="edge">
<title>Node25&#45;&gt;Node14</title>
<path fill="none" stroke="midnightblue" d="M1254.92,-168.08C1246.83,-160.14 1234.8,-148.34 1225.09,-138.8"/>
<polygon fill="midnightblue" stroke="midnightblue" points="1227.5,-136.26 1217.91,-131.75 1222.6,-141.25 1227.5,-136.26"/>
</g>
<!-- Node26 -->
<g id="node26" class="node">
<title>Node26</title>
<g id="a_node26"><a xlink:title=" ">
<polygon fill="white" stroke="#bfbfbf" points="1121,-112.5 1121,-131.5 1173,-131.5 1173,-112.5 1121,-112.5"/>
<text text-anchor="middle" x="1147" y="-119.5" font-family="Helvetica,sans-Serif" font-size="10.00">sstream</text>
</a>
</g>
</g>
<!-- Node25&#45;&gt;Node26 -->
<g id="edge39" class="edge">
<title>Node25&#45;&gt;Node26</title>
<path fill="none" stroke="midnightblue" d="M1245.46,-168.44C1226.38,-159.64 1196.43,-145.81 1174.56,-135.72"/>
<polygon fill="midnightblue" stroke="midnightblue" points="1176,-132.53 1165.45,-131.52 1173.07,-138.88 1176,-132.53"/>
</g>
<!-- Node27&#45;&gt;Node3 -->
<g id="edge43" class="edge">
<title>Node27&#45;&gt;Node3</title>
<path fill="none" stroke="midnightblue" d="M1095.4,-168.49C1069.4,-160.96 1032.58,-148.58 1003,-132 978.58,-118.31 953.99,-97.32 938.42,-82.92"/>
<polygon fill="midnightblue" stroke="midnightblue" points="940.42,-80 930.75,-75.68 935.62,-85.09 940.42,-80"/>
</g>
<!-- Node27&#45;&gt;Node4 -->
<g id="edge45" class="edge">
<title>Node27&#45;&gt;Node4</title>
<path fill="none" stroke="midnightblue" d="M1066.93,-169.05C1063.91,-168.69 1060.92,-168.34 1058,-168 921,-152.22 759.77,-136.53 674.98,-128.5"/>
<polygon fill="midnightblue" stroke="midnightblue" points="675.06,-125 664.77,-127.54 674.4,-131.97 675.06,-125"/>
</g>
<!-- Node27&#45;&gt;Node17 -->
<g id="edge44" class="edge">
<title>Node27&#45;&gt;Node17</title>
<path fill="none" stroke="midnightblue" d="M1121.65,-168.35C1112.52,-154.78 1098.22,-128.35 1112,-112 1138.56,-80.47 1255.94,-71.03 1323.9,-68.21"/>
<polygon fill="midnightblue" stroke="midnightblue" points="1324.1,-71.7 1333.96,-67.82 1323.83,-64.71 1324.1,-71.7"/>
</g>
<!-- Node27&#45;&gt;Node23 -->
<g id="edge42" class="edge">
<title>Node27&#45;&gt;Node23</title>
<path fill="none" stroke="midnightblue" d="M1115.58,-168.3C1104.63,-160.06 1088.91,-146.77 1079,-132 1069.47,-117.8 1063.12,-99.32 1059.36,-85.7"/>
<polygon fill="midnightblue" stroke="midnightblue" points="1062.65,-84.43 1056.8,-75.6 1055.87,-86.15 1062.65,-84.43"/>
</g>
<!-- Node28&#45;&gt;Node4 -->
<g id="edge49" class="edge">
<title>Node28&#45;&gt;Node4</title>
<path fill="none" stroke="midnightblue" d="M731.29,-168.44C708.65,-159.52 672.93,-145.44 647.25,-135.32"/>
<polygon fill="midnightblue" stroke="midnightblue" points="648.19,-131.93 637.61,-131.52 645.63,-138.44 648.19,-131.93"/>
</g>
<!-- Node28&#45;&gt;Node23 -->
<g id="edge47" class="edge">
<title>Node28&#45;&gt;Node23</title>
<path fill="none" stroke="midnightblue" d="M778.69,-168.45C805.16,-159.57 847.59,-145.17 884,-132 933.07,-114.25 989.58,-92.52 1023.77,-79.22"/>
<polygon fill="midnightblue" stroke="midnightblue" points="1025.17,-82.43 1033.22,-75.54 1022.63,-75.91 1025.17,-82.43"/>
</g>
<!-- Node29 -->
<g id="node29" class="node">
<title>Node29</title>
<g id="a_node29"><a xlink:title=" ">
<polygon fill="white" stroke="#bfbfbf" points="721,-112.5 721,-131.5 765,-131.5 765,-112.5 721,-112.5"/>
<text text-anchor="middle" x="743" y="-119.5" font-family="Helvetica,sans-Serif" font-size="10.00">vector</text>
</a>
</g>
</g>
<!-- Node28&#45;&gt;Node29 -->
<g id="edge48" class="edge">
<title>Node28&#45;&gt;Node29</title>
<path fill="none" stroke="midnightblue" d="M751.35,-168.08C750.02,-160.93 748.12,-150.64 746.46,-141.69"/>
<polygon fill="midnightblue" stroke="midnightblue" points="749.88,-140.95 744.62,-131.75 743,-142.22 749.88,-140.95"/>
</g>
<!-- Node30&#45;&gt;Node3 -->
<g id="edge53" class="edge">
<title>Node30&#45;&gt;Node3</title>
<path fill="none" stroke="midnightblue" d="M351.68,-168.18C351.7,-153.87 354.05,-125.82 371,-112 411.45,-79.02 780.92,-69.6 891.12,-67.51"/>
<polygon fill="midnightblue" stroke="midnightblue" points="891.31,-71.01 901.24,-67.32 891.18,-64.01 891.31,-71.01"/>
</g>
<!-- Node30&#45;&gt;Node4 -->
<g id="edge54" class="edge">
<title>Node30&#45;&gt;Node4</title>
<path fill="none" stroke="midnightblue" d="M393.83,-168.44C440.08,-158.98 514.61,-143.74 564.44,-133.55"/>
<polygon fill="midnightblue" stroke="midnightblue" points="565.27,-136.95 574.36,-131.52 563.87,-130.09 565.27,-136.95"/>
</g>
<!-- Node30&#45;&gt;Node5 -->
<g id="edge51" class="edge">
<title>Node30&#45;&gt;Node5</title>
<path fill="none" stroke="midnightblue" d="M300.21,-170.08C276.81,-164.09 251.26,-152.9 237,-132 226.67,-116.87 237.52,-97.02 248.18,-83.26"/>
<polygon fill="midnightblue" stroke="midnightblue" points="250.88,-85.49 254.61,-75.57 245.51,-81 250.88,-85.49"/>
</g>
<!-- Node31 -->
<g id="node31" class="node">
<title>Node31</title>
<g id="a_node31"><a xlink:title=" ">
<polygon fill="white" stroke="#bfbfbf" points="380,-112.5 380,-131.5 434,-131.5 434,-112.5 380,-112.5"/>
<text text-anchor="middle" x="407" y="-119.5" font-family="Helvetica,sans-Serif" font-size="10.00">iostream</text>
</a>
</g>
</g>
<!-- Node30&#45;&gt;Node31 -->
<g id="edge52" class="edge">
<title>Node30&#45;&gt;Node31</title>
<path fill="none" stroke="midnightblue" d="M361.08,-168.08C369.17,-160.14 381.2,-148.34 390.91,-138.8"/>
<polygon fill="midnightblue" stroke="midnightblue" points="393.4,-141.25 398.09,-131.75 388.5,-136.26 393.4,-141.25"/>
</g>
<!-- Node32 -->
<g id="node32" class="node">
<title>Node32</title>
<g id="a_node32"><a xlink:href="JoystickState_8h.html" target="_top" xlink:title="Container for storing Joystick state.">
<polygon fill="white" stroke="black" points="106.5,-112.5 106.5,-131.5 189.5,-131.5 189.5,-112.5 106.5,-112.5"/>
<text text-anchor="middle" x="148" y="-119.5" font-family="Helvetica,sans-Serif" font-size="10.00">JoystickState.h</text>
</a>
</g>
</g>
<!-- Node30&#45;&gt;Node32 -->
<g id="edge55" class="edge">
<title>Node30&#45;&gt;Node32</title>
<path fill="none" stroke="midnightblue" d="M319.68,-168.44C284.61,-159.16 228.5,-144.31 190.04,-134.13"/>
<polygon fill="midnightblue" stroke="midnightblue" points="190.74,-130.69 180.17,-131.52 188.94,-137.46 190.74,-130.69"/>
</g>
<!-- Node34 -->
<g id="node34" class="node">
<title>Node34</title>
<g id="a_node34"><a xlink:href="KeyboardState_8h.html" target="_top" xlink:title="Container for storing Keyboard state.">
<polygon fill="white" stroke="black" points="0,-112.5 0,-131.5 88,-131.5 88,-112.5 0,-112.5"/>
<text text-anchor="middle" x="44" y="-119.5" font-family="Helvetica,sans-Serif" font-size="10.00">KeyboardState.h</text>
</a>
</g>
</g>
<!-- Node30&#45;&gt;Node34 -->
<g id="edge58" class="edge">
<title>Node30&#45;&gt;Node34</title>
<path fill="none" stroke="midnightblue" d="M303.2,-168.44C247.35,-158.65 156.15,-142.66 98.16,-132.49"/>
<polygon fill="midnightblue" stroke="midnightblue" points="98.54,-129.01 88.08,-130.73 97.33,-135.9 98.54,-129.01"/>
</g>
<!-- Node36 -->
<g id="node36" class="node">
<title>Node36</title>
<g id="a_node36"><a xlink:href="MouseState_8h.html" target="_top" xlink:title="Container for storing Mouse state.">
<polygon fill="white" stroke="black" points="246.5,-112.5 246.5,-131.5 323.5,-131.5 323.5,-112.5 246.5,-112.5"/>
<text text-anchor="middle" x="285" y="-119.5" font-family="Helvetica,sans-Serif" font-size="10.00">MouseState.h</text>
</a>
</g>
</g>
<!-- Node30&#45;&gt;Node36 -->
<g id="edge60" class="edge">
<title>Node30&#45;&gt;Node36</title>
<path fill="none" stroke="midnightblue" d="M341.24,-168.32C331.23,-160.26 316.11,-148.08 304.07,-138.37"/>
<polygon fill="midnightblue" stroke="midnightblue" points="305.94,-135.38 295.96,-131.83 301.55,-140.83 305.94,-135.38"/>
</g>
<!-- Node32&#45;&gt;Node5 -->
<g id="edge56" class="edge">
<title>Node32&#45;&gt;Node5</title>
<path fill="none" stroke="midnightblue" d="M166.22,-112.44C184.9,-103.68 214.16,-89.94 235.62,-79.86"/>
<polygon fill="midnightblue" stroke="midnightblue" points="237.3,-82.93 244.86,-75.52 234.32,-76.6 237.3,-82.93"/>
</g>
<!-- Node33 -->
<g id="node33" class="node">
<title>Node33</title>
<g id="a_node33"><a xlink:href="JoystickCodes_8h.html" target="_top" xlink:title="Defines for codes used for joystick.">
<polygon fill="white" stroke="black" points="104,-56.5 104,-75.5 192,-75.5 192,-56.5 104,-56.5"/>
<text text-anchor="middle" x="148" y="-63.5" font-family="Helvetica,sans-Serif" font-size="10.00">JoystickCodes.h</text>
</a>
</g>
</g>
<!-- Node32&#45;&gt;Node33 -->
<g id="edge57" class="edge">
<title>Node32&#45;&gt;Node33</title>
<path fill="none" stroke="midnightblue" d="M148,-112.08C148,-105.01 148,-94.86 148,-85.99"/>
<polygon fill="midnightblue" stroke="midnightblue" points="151.5,-85.75 148,-75.75 144.5,-85.75 151.5,-85.75"/>
</g>
<!-- Node35 -->
<g id="node35" class="node">
<title>Node35</title>
<g id="a_node35"><a xlink:href="KeyboardKeys_8h.html" target="_top" xlink:title="Defenitions of keys that can be used by input manager.">
<polygon fill="white" stroke="black" points="0,-56.5 0,-75.5 86,-75.5 86,-56.5 0,-56.5"/>
<text text-anchor="middle" x="43" y="-63.5" font-family="Helvetica,sans-Serif" font-size="10.00">KeyboardKeys.h</text>
</a>
</g>
</g>
<!-- Node34&#45;&gt;Node35 -->
<g id="edge59" class="edge">
<title>Node34&#45;&gt;Node35</title>
<path fill="none" stroke="midnightblue" d="M43.83,-112.08C43.7,-105.01 43.52,-94.86 43.35,-85.99"/>
<polygon fill="midnightblue" stroke="midnightblue" points="46.85,-85.68 43.16,-75.75 39.85,-85.81 46.85,-85.68"/>
</g>
<!-- Node36&#45;&gt;Node5 -->
<g id="edge61" class="edge">
<title>Node36&#45;&gt;Node5</title>
<path fill="none" stroke="midnightblue" d="M281.37,-112.08C278.39,-104.77 274.07,-94.18 270.38,-85.1"/>
<polygon fill="midnightblue" stroke="midnightblue" points="273.58,-83.69 266.57,-75.75 267.1,-86.33 273.58,-83.69"/>
</g>
<!-- Node37 -->
<g id="node37" class="node">
<title>Node37</title>
<g id="a_node37"><a xlink:title=" ">
<polygon fill="white" stroke="#bfbfbf" points="334,-56.5 334,-75.5 440,-75.5 440,-56.5 334,-56.5"/>
<text text-anchor="middle" x="387" y="-63.5" font-family="Helvetica,sans-Serif" font-size="10.00">SDL2/SDL_mouse.h</text>
</a>
</g>
</g>
<!-- Node36&#45;&gt;Node37 -->
<g id="edge62" class="edge">
<title>Node36&#45;&gt;Node37</title>
<path fill="none" stroke="midnightblue" d="M301.39,-112.32C317.67,-103.7 342.87,-90.36 361.72,-80.39"/>
<polygon fill="midnightblue" stroke="midnightblue" points="363.45,-83.43 370.65,-75.65 360.18,-77.24 363.45,-83.43"/>
</g>
<!-- Node38&#45;&gt;Node3 -->
<g id="edge64" class="edge">
<title>Node38&#45;&gt;Node3</title>
<path fill="none" stroke="midnightblue" d="M904.49,-168.37C907.56,-150.62 914.63,-109.67 918.79,-85.6"/>
<polygon fill="midnightblue" stroke="midnightblue" points="922.26,-86.04 920.52,-75.59 915.36,-84.85 922.26,-86.04"/>
</g>
<!-- Node39 -->
<g id="node39" class="node">
<title>Node39</title>
<g id="a_node39"><a xlink:href="LoggingService_8h.html" target="_top" xlink:title="Default logging service. Does nothing. Use in production.">
<polygon fill="white" stroke="black" points="783,-112.5 783,-131.5 875,-131.5 875,-112.5 783,-112.5"/>
<text text-anchor="middle" x="829" y="-119.5" font-family="Helvetica,sans-Serif" font-size="10.00">LoggingService.h</text>
</a>
</g>
</g>
<!-- Node38&#45;&gt;Node39 -->
<g id="edge65" class="edge">
<title>Node38&#45;&gt;Node39</title>
<path fill="none" stroke="midnightblue" d="M891.11,-168.32C879.85,-160.11 862.71,-147.6 849.29,-137.81"/>
<polygon fill="midnightblue" stroke="midnightblue" points="851.25,-134.9 841.11,-131.83 847.12,-140.56 851.25,-134.9"/>
</g>
<!-- Node39&#45;&gt;Node3 -->
<g id="edge66" class="edge">
<title>Node39&#45;&gt;Node3</title>
<path fill="none" stroke="midnightblue" d="M843.94,-112.32C858.59,-103.82 881.13,-90.73 898.24,-80.8"/>
<polygon fill="midnightblue" stroke="midnightblue" points="900.2,-83.7 907.1,-75.65 896.69,-77.65 900.2,-83.7"/>
</g>
<!-- Node40&#45;&gt;Node3 -->
<g id="edge68" class="edge">
<title>Node40&#45;&gt;Node3</title>
<path fill="none" stroke="midnightblue" d="M632.04,-168.34C647.25,-154.27 679.52,-126.54 712,-112 772.11,-85.09 849.24,-73.89 891.29,-69.53"/>
<polygon fill="midnightblue" stroke="midnightblue" points="891.82,-73 901.44,-68.55 891.15,-66.03 891.82,-73"/>
</g>
<!-- Node40&#45;&gt;Node4 -->
<g id="edge70" class="edge">
<title>Node40&#45;&gt;Node4</title>
<path fill="none" stroke="midnightblue" d="M621.84,-168.08C620.92,-160.93 619.58,-150.64 618.42,-141.69"/>
<polygon fill="midnightblue" stroke="midnightblue" points="621.89,-141.22 617.13,-131.75 614.95,-142.12 621.89,-141.22"/>
</g>
<!-- Node40&#45;&gt;Node29 -->
<g id="edge69" class="edge">
<title>Node40&#45;&gt;Node29</title>
<path fill="none" stroke="midnightblue" d="M642.01,-168.44C661.59,-159.64 692.31,-145.81 714.73,-135.72"/>
<polygon fill="midnightblue" stroke="midnightblue" points="716.39,-138.81 724.07,-131.52 713.52,-132.43 716.39,-138.81"/>
</g>
</g>
</svg>
