<?xml version="1.0" encoding="UTF-8" standalone="no"?>
<!DOCTYPE svg PUBLIC "-//W3C//DTD SVG 1.1//EN"
 "http://www.w3.org/Graphics/SVG/1.1/DTD/svg11.dtd">
<!-- Generated by graphviz version 2.46.1 (20210215.1649)
 -->
<!-- Title: include/entities/GameObject.h Pages: 1 -->
<svg width="1845pt" height="285pt"
 viewBox="0.00 0.00 1845.00 285.00" xmlns="http://www.w3.org/2000/svg" xmlns:xlink="http://www.w3.org/1999/xlink">
<g id="graph0" class="graph" transform="scale(1 1) rotate(0) translate(4 281)">
<title>include/entities/GameObject.h</title>
<polygon fill="white" stroke="transparent" points="-4,4 -4,-281 1841,-281 1841,4 -4,4"/>
<!-- Node1 -->
<g id="node1" class="node">
<title>Node1</title>
<g id="a_node1"><a xlink:title="Implementation of GameObject class.">
<polygon fill="#bfbfbf" stroke="black" points="477.5,-257.5 477.5,-276.5 624.5,-276.5 624.5,-257.5 477.5,-257.5"/>
<text text-anchor="middle" x="551" y="-264.5" font-family="Helvetica,sans-Serif" font-size="10.00">include/entities/GameObject.h</text>
</a>
</g>
</g>
<!-- Node2 -->
<g id="node2" class="node">
<title>Node2</title>
<g id="a_node2"><a xlink:href="GameObject_8cpp_source.html" target="_top" xlink:title=" ">
<polygon fill="white" stroke="black" points="136,-62 136,-81 276,-81 276,-62 136,-62"/>
<text text-anchor="middle" x="206" y="-69" font-family="Helvetica,sans-Serif" font-size="10.00">src/entities/GameObject.cpp</text>
</a>
</g>
</g>
<!-- Node1&#45;&gt;Node2 -->
<g id="edge1" class="edge">
<title>Node1&#45;&gt;Node2</title>
<path fill="none" stroke="midnightblue" d="M506.79,-254.77C450.57,-238.97 352.37,-206.13 282,-154 252.15,-131.89 224.33,-97.1 212.28,-81.09"/>
<polygon fill="midnightblue" stroke="midnightblue" points="505.87,-258.15 516.44,-257.43 507.73,-251.4 505.87,-258.15"/>
</g>
<!-- Node3 -->
<g id="node3" class="node">
<title>Node3</title>
<g id="a_node3"><a xlink:href="Scene_8cpp.html" target="_top" xlink:title="Implementation of Scene class.">
<polygon fill="white" stroke="black" points="561,-62 561,-81 669,-81 669,-62 561,-62"/>
<text text-anchor="middle" x="615" y="-69" font-family="Helvetica,sans-Serif" font-size="10.00">src/scene/Scene.cpp</text>
</a>
</g>
</g>
<!-- Node1&#45;&gt;Node3 -->
<g id="edge2" class="edge">
<title>Node1&#45;&gt;Node3</title>
<path fill="none" stroke="midnightblue" d="M557.02,-247.81C570.4,-207.35 602.22,-111.14 612.05,-81.41"/>
<polygon fill="midnightblue" stroke="midnightblue" points="553.65,-246.84 553.83,-257.44 560.3,-249.04 553.65,-246.84"/>
</g>
<!-- Node4 -->
<g id="node4" class="node">
<title>Node4</title>
<g id="a_node4"><a xlink:href="ParticleEmitter_8h.html" target="_top" xlink:title="A particle emitter. Can be fed a particle to emit and configured.">
<polygon fill="white" stroke="black" points="0,-56.5 0,-86.5 118,-86.5 118,-56.5 0,-56.5"/>
<text text-anchor="start" x="8" y="-74.5" font-family="Helvetica,sans-Serif" font-size="10.00">include/entities/Particle</text>
<text text-anchor="middle" x="59" y="-63.5" font-family="Helvetica,sans-Serif" font-size="10.00">Emitter.h</text>
</a>
</g>
</g>
<!-- Node1&#45;&gt;Node4 -->
<g id="edge3" class="edge">
<title>Node1&#45;&gt;Node4</title>
<path fill="none" stroke="midnightblue" d="M480.05,-255.77C438.71,-248.59 386.01,-237.32 341,-221 238.53,-183.84 126.77,-115.93 80.7,-86.61"/>
<polygon fill="midnightblue" stroke="midnightblue" points="479.59,-259.24 490.03,-257.47 480.76,-252.34 479.59,-259.24"/>
</g>
<!-- Node6 -->
<g id="node6" class="node">
<title>Node6</title>
<g id="a_node6"><a xlink:href="Sprite_8h.html" target="_top" xlink:title="Simple textured GameObject.">
<polygon fill="white" stroke="black" points="428,-196 428,-215 546,-215 546,-196 428,-196"/>
<text text-anchor="middle" x="487" y="-203" font-family="Helvetica,sans-Serif" font-size="10.00">include/entities/Sprite.h</text>
</a>
</g>
</g>
<!-- Node1&#45;&gt;Node6 -->
<g id="edge5" class="edge">
<title>Node1&#45;&gt;Node6</title>
<path fill="none" stroke="midnightblue" d="M534.49,-250.65C522.29,-239.31 506.13,-224.28 496.15,-215.01"/>
<polygon fill="midnightblue" stroke="midnightblue" points="532.12,-253.23 541.83,-257.48 536.89,-248.1 532.12,-253.23"/>
</g>
<!-- Node10 -->
<g id="node10" class="node">
<title>Node10</title>
<g id="a_node10"><a xlink:href="UIElement_8h.html" target="_top" xlink:title="Parent class of many other UIElement subclasses. Handles most things that all UIElements may need.">
<polygon fill="white" stroke="black" points="1291,-190.5 1291,-220.5 1383,-220.5 1383,-190.5 1291,-190.5"/>
<text text-anchor="start" x="1299" y="-208.5" font-family="Helvetica,sans-Serif" font-size="10.00">include/entities/ui</text>
<text text-anchor="middle" x="1337" y="-197.5" font-family="Helvetica,sans-Serif" font-size="10.00">/UIElement.h</text>
</a>
</g>
</g>
<!-- Node1&#45;&gt;Node10 -->
<g id="edge10" class="edge">
<title>Node1&#45;&gt;Node10</title>
<path fill="none" stroke="midnightblue" d="M634.7,-259.66C799.79,-247.17 1162.48,-219.71 1290.85,-209.99"/>
<polygon fill="midnightblue" stroke="midnightblue" points="634.3,-256.18 624.59,-260.43 634.83,-263.16 634.3,-256.18"/>
</g>
<!-- Node22 -->
<g id="node22" class="node">
<title>Node22</title>
<g id="a_node22"><a xlink:href="Scene_8h.html" target="_top" xlink:title="Parent scene class. Children can be added to scene manager.">
<polygon fill="white" stroke="black" points="719.5,-129 719.5,-148 834.5,-148 834.5,-129 719.5,-129"/>
<text text-anchor="middle" x="777" y="-136" font-family="Helvetica,sans-Serif" font-size="10.00">include/scene/Scene.h</text>
</a>
</g>
</g>
<!-- Node1&#45;&gt;Node22 -->
<g id="edge22" class="edge">
<title>Node1&#45;&gt;Node22</title>
<path fill="none" stroke="midnightblue" d="M575.39,-252.35C622.13,-226.18 723.14,-169.65 761.66,-148.09"/>
<polygon fill="midnightblue" stroke="midnightblue" points="573.55,-249.37 566.53,-257.31 576.97,-255.47 573.55,-249.37"/>
</g>
<!-- Node5 -->
<g id="node5" class="node">
<title>Node5</title>
<g id="a_node5"><a xlink:href="ParticleEmitter_8cpp.html" target="_top" xlink:title="Implementation of a particle emitter. and configured.">
<polygon fill="white" stroke="black" points="303.5,-0.5 303.5,-19.5 452.5,-19.5 452.5,-0.5 303.5,-0.5"/>
<text text-anchor="middle" x="378" y="-7.5" font-family="Helvetica,sans-Serif" font-size="10.00">src/entities/ParticleEmitter.cpp</text>
</a>
</g>
</g>
<!-- Node4&#45;&gt;Node5 -->
<g id="edge4" class="edge">
<title>Node4&#45;&gt;Node5</title>
<path fill="none" stroke="midnightblue" d="M128.38,-55.76C203.14,-41.2 278.86,-27.91 327.43,-19.57"/>
<polygon fill="midnightblue" stroke="midnightblue" points="127.46,-52.38 118.31,-57.73 128.8,-59.25 127.46,-52.38"/>
</g>
<!-- Node7 -->
<g id="node7" class="node">
<title>Node7</title>
<g id="a_node7"><a xlink:href="Sprite_8cpp.html" target="_top" xlink:title="Implementation of Sprite.">
<polygon fill="white" stroke="black" points="431.5,-62 431.5,-81 542.5,-81 542.5,-62 431.5,-62"/>
<text text-anchor="middle" x="487" y="-69" font-family="Helvetica,sans-Serif" font-size="10.00">src/entities/Sprite.cpp</text>
</a>
</g>
</g>
<!-- Node6&#45;&gt;Node7 -->
<g id="edge6" class="edge">
<title>Node6&#45;&gt;Node7</title>
<path fill="none" stroke="midnightblue" d="M487,-185.78C487,-156.75 487,-102.04 487,-81.02"/>
<polygon fill="midnightblue" stroke="midnightblue" points="483.5,-185.84 487,-195.84 490.5,-185.84 483.5,-185.84"/>
</g>
<!-- Node8 -->
<g id="node8" class="node">
<title>Node8</title>
<g id="a_node8"><a xlink:href="Particle_8h.html" target="_top" xlink:title="Just little blips that make things look cool.">
<polygon fill="white" stroke="black" points="291.5,-129 291.5,-148 416.5,-148 416.5,-129 291.5,-129"/>
<text text-anchor="middle" x="354" y="-136" font-family="Helvetica,sans-Serif" font-size="10.00">include/entities/Particle.h</text>
</a>
</g>
</g>
<!-- Node6&#45;&gt;Node8 -->
<g id="edge7" class="edge">
<title>Node6&#45;&gt;Node8</title>
<path fill="none" stroke="midnightblue" d="M460.28,-191.44C433.94,-178.57 394.43,-159.26 371.73,-148.17"/>
<polygon fill="midnightblue" stroke="midnightblue" points="458.82,-194.62 469.34,-195.87 461.89,-188.33 458.82,-194.62"/>
</g>
<!-- Node8&#45;&gt;Node4 -->
<g id="edge9" class="edge">
<title>Node8&#45;&gt;Node4</title>
<path fill="none" stroke="midnightblue" d="M305.27,-126.76C253.93,-115.45 173.05,-97.63 118.1,-85.52"/>
<polygon fill="midnightblue" stroke="midnightblue" points="304.61,-130.2 315.13,-128.94 306.12,-123.37 304.61,-130.2"/>
</g>
<!-- Node9 -->
<g id="node9" class="node">
<title>Node9</title>
<g id="a_node9"><a xlink:href="Particle_8cpp.html" target="_top" xlink:title="Implementation of Particle.">
<polygon fill="white" stroke="black" points="294.5,-62 294.5,-81 413.5,-81 413.5,-62 294.5,-62"/>
<text text-anchor="middle" x="354" y="-69" font-family="Helvetica,sans-Serif" font-size="10.00">src/entities/Particle.cpp</text>
</a>
</g>
</g>
<!-- Node8&#45;&gt;Node9 -->
<g id="edge8" class="edge">
<title>Node8&#45;&gt;Node9</title>
<path fill="none" stroke="midnightblue" d="M354,-118.54C354,-106.17 354,-90.62 354,-81.13"/>
<polygon fill="midnightblue" stroke="midnightblue" points="350.5,-118.73 354,-128.73 357.5,-118.73 350.5,-118.73"/>
</g>
<!-- Node11 -->
<g id="node11" class="node">
<title>Node11</title>
<g id="a_node11"><a xlink:href="UIElement_8cpp.html" target="_top" xlink:title="Implementation of UIElement.">
<polygon fill="white" stroke="black" points="964,-62 964,-81 1106,-81 1106,-62 964,-62"/>
<text text-anchor="middle" x="1035" y="-69" font-family="Helvetica,sans-Serif" font-size="10.00">src/entities/ui/UIElement.cpp</text>
</a>
</g>
</g>
<!-- Node10&#45;&gt;Node11 -->
<g id="edge11" class="edge">
<title>Node10&#45;&gt;Node11</title>
<path fill="none" stroke="midnightblue" d="M1280.74,-194.37C1243.14,-186.36 1193.21,-173.27 1152,-154 1108.72,-133.76 1064.2,-97.72 1044.91,-81.2"/>
<polygon fill="midnightblue" stroke="midnightblue" points="1280.49,-197.9 1291,-196.5 1281.91,-191.04 1280.49,-197.9"/>
</g>
<!-- Node12 -->
<g id="node12" class="node">
<title>Node12</title>
<g id="a_node12"><a xlink:href="Button_8h.html" target="_top" xlink:title="A ui elemenent that accepts a click callback.">
<polygon fill="white" stroke="black" points="1161,-123.5 1161,-153.5 1253,-153.5 1253,-123.5 1161,-123.5"/>
<text text-anchor="start" x="1169" y="-141.5" font-family="Helvetica,sans-Serif" font-size="10.00">include/entities/ui</text>
<text text-anchor="middle" x="1207" y="-130.5" font-family="Helvetica,sans-Serif" font-size="10.00">/Button.h</text>
</a>
</g>
</g>
<!-- Node10&#45;&gt;Node12 -->
<g id="edge12" class="edge">
<title>Node10&#45;&gt;Node12</title>
<path fill="none" stroke="midnightblue" d="M1299.71,-185.85C1279.15,-175.58 1254.05,-163.03 1235.15,-153.58"/>
<polygon fill="midnightblue" stroke="midnightblue" points="1298.28,-189.05 1308.79,-190.4 1301.41,-182.79 1298.28,-189.05"/>
</g>
<!-- Node14 -->
<g id="node14" class="node">
<title>Node14</title>
<g id="a_node14"><a xlink:href="Checkbox_8h.html" target="_top" xlink:title="UI Checkbox.">
<polygon fill="white" stroke="black" points="1291,-123.5 1291,-153.5 1383,-153.5 1383,-123.5 1291,-123.5"/>
<text text-anchor="start" x="1299" y="-141.5" font-family="Helvetica,sans-Serif" font-size="10.00">include/entities/ui</text>
<text text-anchor="middle" x="1337" y="-130.5" font-family="Helvetica,sans-Serif" font-size="10.00">/Checkbox.h</text>
</a>
</g>
</g>
<!-- Node10&#45;&gt;Node14 -->
<g id="edge14" class="edge">
<title>Node10&#45;&gt;Node14</title>
<path fill="none" stroke="midnightblue" d="M1337,-180.11C1337,-171.15 1337,-161.32 1337,-153.58"/>
<polygon fill="midnightblue" stroke="midnightblue" points="1333.5,-180.4 1337,-190.4 1340.5,-180.4 1333.5,-180.4"/>
</g>
<!-- Node16 -->
<g id="node16" class="node">
<title>Node16</title>
<g id="a_node16"><a xlink:href="Image_8h.html" target="_top" xlink:title="UI Image.">
<polygon fill="white" stroke="black" points="1420,-123.5 1420,-153.5 1512,-153.5 1512,-123.5 1420,-123.5"/>
<text text-anchor="start" x="1428" y="-141.5" font-family="Helvetica,sans-Serif" font-size="10.00">include/entities/ui</text>
<text text-anchor="middle" x="1466" y="-130.5" font-family="Helvetica,sans-Serif" font-size="10.00">/Image.h</text>
</a>
</g>
</g>
<!-- Node10&#45;&gt;Node16 -->
<g id="edge16" class="edge">
<title>Node10&#45;&gt;Node16</title>
<path fill="none" stroke="midnightblue" d="M1374.01,-185.85C1394.4,-175.58 1419.31,-163.03 1438.06,-153.58"/>
<polygon fill="midnightblue" stroke="midnightblue" points="1372.35,-182.77 1364.99,-190.4 1375.5,-189.02 1372.35,-182.77"/>
</g>
<!-- Node18 -->
<g id="node18" class="node">
<title>Node18</title>
<g id="a_node18"><a xlink:href="Inputbox_8h.html" target="_top" xlink:title="UI Inputbox.">
<polygon fill="white" stroke="black" points="1558,-123.5 1558,-153.5 1650,-153.5 1650,-123.5 1558,-123.5"/>
<text text-anchor="start" x="1566" y="-141.5" font-family="Helvetica,sans-Serif" font-size="10.00">include/entities/ui</text>
<text text-anchor="middle" x="1604" y="-130.5" font-family="Helvetica,sans-Serif" font-size="10.00">/Inputbox.h</text>
</a>
</g>
</g>
<!-- Node10&#45;&gt;Node18 -->
<g id="edge18" class="edge">
<title>Node10&#45;&gt;Node18</title>
<path fill="none" stroke="midnightblue" d="M1393,-190.87C1441.95,-178.95 1512.16,-161.86 1557.92,-150.72"/>
<polygon fill="midnightblue" stroke="midnightblue" points="1392.09,-187.49 1383.2,-193.25 1393.75,-194.29 1392.09,-187.49"/>
</g>
<!-- Node20 -->
<g id="node20" class="node">
<title>Node20</title>
<g id="a_node20"><a xlink:href="Label_8h.html" target="_top" xlink:title="UI Label that simply displays text.">
<polygon fill="white" stroke="black" points="1699,-123.5 1699,-153.5 1791,-153.5 1791,-123.5 1699,-123.5"/>
<text text-anchor="start" x="1707" y="-141.5" font-family="Helvetica,sans-Serif" font-size="10.00">include/entities/ui</text>
<text text-anchor="middle" x="1745" y="-130.5" font-family="Helvetica,sans-Serif" font-size="10.00">/Label.h</text>
</a>
</g>
</g>
<!-- Node10&#45;&gt;Node20 -->
<g id="edge20" class="edge">
<title>Node10&#45;&gt;Node20</title>
<path fill="none" stroke="midnightblue" d="M1393.08,-195.9C1457.35,-186.01 1565.83,-169.16 1659,-154 1671.85,-151.91 1685.78,-149.59 1698.6,-147.42"/>
<polygon fill="midnightblue" stroke="midnightblue" points="1392.5,-192.45 1383.15,-197.43 1393.57,-199.37 1392.5,-192.45"/>
</g>
<!-- Node13 -->
<g id="node13" class="node">
<title>Node13</title>
<g id="a_node13"><a xlink:href="Button_8cpp.html" target="_top" xlink:title="Implementation of Button.">
<polygon fill="white" stroke="black" points="1124.5,-62 1124.5,-81 1249.5,-81 1249.5,-62 1124.5,-62"/>
<text text-anchor="middle" x="1187" y="-69" font-family="Helvetica,sans-Serif" font-size="10.00">src/entities/ui/Button.cpp</text>
</a>
</g>
</g>
<!-- Node12&#45;&gt;Node13 -->
<g id="edge13" class="edge">
<title>Node12&#45;&gt;Node13</title>
<path fill="none" stroke="midnightblue" d="M1199.65,-113.6C1196.16,-102.28 1192.22,-89.46 1189.68,-81.19"/>
<polygon fill="midnightblue" stroke="midnightblue" points="1196.37,-114.87 1202.66,-123.4 1203.06,-112.81 1196.37,-114.87"/>
</g>
<!-- Node15 -->
<g id="node15" class="node">
<title>Node15</title>
<g id="a_node15"><a xlink:href="Checkbox_8cpp.html" target="_top" xlink:title="Implementation of UI Checkbox.">
<polygon fill="white" stroke="black" points="1267.5,-62 1267.5,-81 1406.5,-81 1406.5,-62 1267.5,-62"/>
<text text-anchor="middle" x="1337" y="-69" font-family="Helvetica,sans-Serif" font-size="10.00">src/entities/ui/Checkbox.cpp</text>
</a>
</g>
</g>
<!-- Node14&#45;&gt;Node15 -->
<g id="edge15" class="edge">
<title>Node14&#45;&gt;Node15</title>
<path fill="none" stroke="midnightblue" d="M1337,-113.25C1337,-102.02 1337,-89.38 1337,-81.19"/>
<polygon fill="midnightblue" stroke="midnightblue" points="1333.5,-113.4 1337,-123.4 1340.5,-113.4 1333.5,-113.4"/>
</g>
<!-- Node17 -->
<g id="node17" class="node">
<title>Node17</title>
<g id="a_node17"><a xlink:href="Image_8cpp.html" target="_top" xlink:title="Texturable ui element.">
<polygon fill="white" stroke="black" points="1424.5,-62 1424.5,-81 1547.5,-81 1547.5,-62 1424.5,-62"/>
<text text-anchor="middle" x="1486" y="-69" font-family="Helvetica,sans-Serif" font-size="10.00">src/entities/ui/Image.cpp</text>
</a>
</g>
</g>
<!-- Node16&#45;&gt;Node17 -->
<g id="edge17" class="edge">
<title>Node16&#45;&gt;Node17</title>
<path fill="none" stroke="midnightblue" d="M1473.35,-113.6C1476.84,-102.28 1480.78,-89.46 1483.32,-81.19"/>
<polygon fill="midnightblue" stroke="midnightblue" points="1469.94,-112.81 1470.34,-123.4 1476.63,-114.87 1469.94,-112.81"/>
</g>
<!-- Node19 -->
<g id="node19" class="node">
<title>Node19</title>
<g id="a_node19"><a xlink:href="Inputbox_8cpp.html" target="_top" xlink:title="Implementation of UI Inputbox.">
<polygon fill="white" stroke="black" points="1565.5,-62 1565.5,-81 1698.5,-81 1698.5,-62 1565.5,-62"/>
<text text-anchor="middle" x="1632" y="-69" font-family="Helvetica,sans-Serif" font-size="10.00">src/entities/ui/Inputbox.cpp</text>
</a>
</g>
</g>
<!-- Node18&#45;&gt;Node19 -->
<g id="edge19" class="edge">
<title>Node18&#45;&gt;Node19</title>
<path fill="none" stroke="midnightblue" d="M1614.15,-113.94C1619.06,-102.54 1624.66,-89.55 1628.25,-81.19"/>
<polygon fill="midnightblue" stroke="midnightblue" points="1610.82,-112.83 1610.08,-123.4 1617.25,-115.6 1610.82,-112.83"/>
</g>
<!-- Node21 -->
<g id="node21" class="node">
<title>Node21</title>
<g id="a_node21"><a xlink:href="Label_8cpp.html" target="_top" xlink:title="Implementation of Label class.">
<polygon fill="white" stroke="black" points="1717,-62 1717,-81 1837,-81 1837,-62 1717,-62"/>
<text text-anchor="middle" x="1777" y="-69" font-family="Helvetica,sans-Serif" font-size="10.00">src/entities/ui/Label.cpp</text>
</a>
</g>
</g>
<!-- Node20&#45;&gt;Node21 -->
<g id="edge21" class="edge">
<title>Node20&#45;&gt;Node21</title>
<path fill="none" stroke="midnightblue" d="M1756.43,-114.29C1762.08,-102.8 1768.57,-89.63 1772.72,-81.19"/>
<polygon fill="midnightblue" stroke="midnightblue" points="1753.22,-112.88 1751.94,-123.4 1759.5,-115.97 1753.22,-112.88"/>
</g>
<!-- Node22&#45;&gt;Node2 -->
<g id="edge23" class="edge">
<title>Node22&#45;&gt;Node2</title>
<path fill="none" stroke="midnightblue" d="M709.2,-132.25C614.12,-124.5 435.91,-108.56 285,-87 273.27,-85.32 260.62,-83.16 248.95,-81.02"/>
<polygon fill="midnightblue" stroke="midnightblue" points="709,-135.75 719.25,-133.07 709.57,-128.77 709,-135.75"/>
</g>
<!-- Node22&#45;&gt;Node3 -->
<g id="edge32" class="edge">
<title>Node22&#45;&gt;Node3</title>
<path fill="none" stroke="midnightblue" d="M746.11,-125.1C713.94,-112.2 664.42,-92.33 636.34,-81.06"/>
<polygon fill="midnightblue" stroke="midnightblue" points="744.9,-128.39 755.49,-128.87 747.51,-121.9 744.9,-128.39"/>
</g>
<!-- Node22&#45;&gt;Node5 -->
<g id="edge25" class="edge">
<title>Node22&#45;&gt;Node5</title>
<path fill="none" stroke="midnightblue" d="M758.59,-122.24C730.28,-98.8 679.18,-56.52 678,-56 605.83,-23.87 515.24,-13.94 452.59,-11.23"/>
<polygon fill="midnightblue" stroke="midnightblue" points="756.63,-125.16 766.57,-128.85 761.1,-119.77 756.63,-125.16"/>
</g>
<!-- Node22&#45;&gt;Node7 -->
<g id="edge26" class="edge">
<title>Node22&#45;&gt;Node7</title>
<path fill="none" stroke="midnightblue" d="M728.92,-126.72C671.82,-113.92 577.72,-92.83 525.3,-81.08"/>
<polygon fill="midnightblue" stroke="midnightblue" points="728.27,-130.16 738.79,-128.94 729.8,-123.33 728.27,-130.16"/>
</g>
<!-- Node22&#45;&gt;Node9 -->
<g id="edge24" class="edge">
<title>Node22&#45;&gt;Node9</title>
<path fill="none" stroke="midnightblue" d="M709.08,-129.25C637.47,-120.22 521.46,-104.66 422,-87 412.14,-85.25 401.52,-83.11 391.68,-81.02"/>
<polygon fill="midnightblue" stroke="midnightblue" points="708.96,-132.76 719.32,-130.53 709.83,-125.82 708.96,-132.76"/>
</g>
<!-- Node22&#45;&gt;Node11 -->
<g id="edge31" class="edge">
<title>Node22&#45;&gt;Node11</title>
<path fill="none" stroke="midnightblue" d="M820.72,-126.48C871.62,-113.66 954.58,-92.76 1000.93,-81.08"/>
<polygon fill="midnightblue" stroke="midnightblue" points="819.84,-123.1 810.99,-128.94 821.55,-129.89 819.84,-123.1"/>
</g>
<!-- Node22&#45;&gt;Node13 -->
<g id="edge27" class="edge">
<title>Node22&#45;&gt;Node13</title>
<path fill="none" stroke="midnightblue" d="M844.76,-128.4C913.12,-118.98 1021.61,-103.37 1115,-87 1125.17,-85.22 1136.12,-83.11 1146.32,-81.06"/>
<polygon fill="midnightblue" stroke="midnightblue" points="843.99,-124.97 834.56,-129.8 844.94,-131.91 843.99,-124.97"/>
</g>
<!-- Node22&#45;&gt;Node15 -->
<g id="edge28" class="edge">
<title>Node22&#45;&gt;Node15</title>
<path fill="none" stroke="midnightblue" d="M844.71,-132.04C938,-124.15 1111.21,-108.15 1258,-87 1269.73,-85.31 1282.38,-83.14 1294.05,-81"/>
<polygon fill="midnightblue" stroke="midnightblue" points="844.23,-128.57 834.56,-132.9 844.82,-135.55 844.23,-128.57"/>
</g>
<!-- Node22&#45;&gt;Node17 -->
<g id="edge29" class="edge">
<title>Node22&#45;&gt;Node17</title>
<path fill="none" stroke="midnightblue" d="M844.78,-134.94C961.8,-129.89 1209.07,-116.49 1416,-87 1426.81,-85.46 1438.46,-83.26 1449.1,-81.05"/>
<polygon fill="midnightblue" stroke="midnightblue" points="844.39,-131.45 834.55,-135.37 844.68,-138.44 844.39,-131.45"/>
</g>
<!-- Node22&#45;&gt;Node19 -->
<g id="edge30" class="edge">
<title>Node22&#45;&gt;Node19</title>
<path fill="none" stroke="midnightblue" d="M845.23,-135.98C981.18,-132.31 1295.3,-120.63 1557,-87 1568.71,-85.5 1581.34,-83.28 1592.84,-81.04"/>
<polygon fill="midnightblue" stroke="midnightblue" points="844.88,-132.49 834.97,-136.25 845.06,-139.48 844.88,-132.49"/>
</g>
<!-- Node23 -->
<g id="node23" class="node">
<title>Node23</title>
<g id="a_node23"><a xlink:href="DisplayService_8cpp.html" target="_top" xlink:title="Implementation of DisplayService.">
<polygon fill="white" stroke="black" points="725.5,-56.5 725.5,-86.5 828.5,-86.5 828.5,-56.5 725.5,-56.5"/>
<text text-anchor="start" x="733.5" y="-74.5" font-family="Helvetica,sans-Serif" font-size="10.00">src/services/display</text>
<text text-anchor="middle" x="777" y="-63.5" font-family="Helvetica,sans-Serif" font-size="10.00">/DisplayService.cpp</text>
</a>
</g>
</g>
<!-- Node22&#45;&gt;Node23 -->
<g id="edge33" class="edge">
<title>Node22&#45;&gt;Node23</title>
<path fill="none" stroke="midnightblue" d="M777,-118.41C777,-108.22 777,-95.9 777,-86.59"/>
<polygon fill="midnightblue" stroke="midnightblue" points="773.5,-118.73 777,-128.73 780.5,-118.73 773.5,-118.73"/>
</g>
<!-- Node24 -->
<g id="node24" class="node">
<title>Node24</title>
<g id="a_node24"><a xlink:href="SceneService_8cpp.html" target="_top" xlink:title="Implementation of SceneService.">
<polygon fill="white" stroke="black" points="846.5,-56.5 846.5,-86.5 945.5,-86.5 945.5,-56.5 846.5,-56.5"/>
<text text-anchor="start" x="854.5" y="-74.5" font-family="Helvetica,sans-Serif" font-size="10.00">src/services/scene</text>
<text text-anchor="middle" x="896" y="-63.5" font-family="Helvetica,sans-Serif" font-size="10.00">/SceneService.cpp</text>
</a>
</g>
</g>
<!-- Node22&#45;&gt;Node24 -->
<g id="edge34" class="edge">
<title>Node22&#45;&gt;Node24</title>
<path fill="none" stroke="midnightblue" d="M801.9,-123.9C821.92,-112.97 849.95,-97.65 870.21,-86.59"/>
<polygon fill="midnightblue" stroke="midnightblue" points="800.15,-120.87 793.05,-128.73 803.5,-127.01 800.15,-120.87"/>
</g>
</g>
</svg>
