<?xml version="1.0" encoding="UTF-8" standalone="no"?>
<!DOCTYPE svg PUBLIC "-//W3C//DTD SVG 1.1//EN"
 "http://www.w3.org/Graphics/SVG/1.1/DTD/svg11.dtd">
<!-- Generated by graphviz version 2.46.1 (20210215.1649)
 -->
<!-- Title: include/Game.h Pages: 1 -->
<svg width="174pt" height="140pt"
 viewBox="0.00 0.00 173.50 140.00" xmlns="http://www.w3.org/2000/svg" xmlns:xlink="http://www.w3.org/1999/xlink">
<g id="graph0" class="graph" transform="scale(1 1) rotate(0) translate(4 136)">
<title>include/Game.h</title>
<polygon fill="white" stroke="transparent" points="-4,4 -4,-136 169.5,-136 169.5,4 -4,4"/>
<!-- Node1 -->
<g id="node1" class="node">
<title>Node1</title>
<g id="a_node1"><a xlink:title="The main entry point of a AFK program.">
<polygon fill="#bfbfbf" stroke="black" points="16.5,-112.5 16.5,-131.5 100.5,-131.5 100.5,-112.5 16.5,-112.5"/>
<text text-anchor="middle" x="58.5" y="-119.5" font-family="Helvetica,sans-Serif" font-size="10.00">include/Game.h</text>
</a>
</g>
</g>
<!-- Node2 -->
<g id="node2" class="node">
<title>Node2</title>
<g id="a_node2"><a xlink:title=" ">
<polygon fill="white" stroke="#bfbfbf" points="0,-0.5 0,-19.5 41,-19.5 41,-0.5 0,-0.5"/>
<text text-anchor="middle" x="20.5" y="-7.5" font-family="Helvetica,sans-Serif" font-size="10.00">string</text>
</a>
</g>
</g>
<!-- Node1&#45;&gt;Node2 -->
<g id="edge1" class="edge">
<title>Node1&#45;&gt;Node2</title>
<path fill="none" stroke="midnightblue" d="M54.84,-112.45C51.04,-103.46 45.04,-88.85 40.5,-76 35.03,-60.52 29.6,-42.68 25.78,-29.61"/>
<polygon fill="midnightblue" stroke="midnightblue" points="29.12,-28.55 22.99,-19.91 22.4,-30.48 29.12,-28.55"/>
</g>
<!-- Node3 -->
<g id="node3" class="node">
<title>Node3</title>
<g id="a_node3"><a xlink:href="Service_8h.html" target="_top" xlink:title="Service subscriber that can listen for events.">
<polygon fill="white" stroke="black" points="49,-56.5 49,-75.5 146,-75.5 146,-56.5 49,-56.5"/>
<text text-anchor="middle" x="97.5" y="-63.5" font-family="Helvetica,sans-Serif" font-size="10.00">services/Service.h</text>
</a>
</g>
</g>
<!-- Node1&#45;&gt;Node3 -->
<g id="edge2" class="edge">
<title>Node1&#45;&gt;Node3</title>
<path fill="none" stroke="midnightblue" d="M64.94,-112.08C70.45,-104.46 78.53,-93.26 85.26,-83.94"/>
<polygon fill="midnightblue" stroke="midnightblue" points="88.16,-85.91 91.18,-75.75 82.49,-81.81 88.16,-85.91"/>
</g>
<!-- Node3&#45;&gt;Node2 -->
<g id="edge4" class="edge">
<title>Node3&#45;&gt;Node2</title>
<path fill="none" stroke="midnightblue" d="M85.13,-56.32C73.34,-48.06 55.37,-35.45 41.36,-25.63"/>
<polygon fill="midnightblue" stroke="midnightblue" points="43.04,-22.53 32.84,-19.65 39.02,-28.26 43.04,-22.53"/>
</g>
<!-- Node4 -->
<g id="node4" class="node">
<title>Node4</title>
<g id="a_node4"><a xlink:title=" ">
<polygon fill="white" stroke="#bfbfbf" points="59.5,-0.5 59.5,-19.5 165.5,-19.5 165.5,-0.5 59.5,-0.5"/>
<text text-anchor="middle" x="112.5" y="-7.5" font-family="Helvetica,sans-Serif" font-size="10.00">SDL2/SDL_events.h</text>
</a>
</g>
</g>
<!-- Node3&#45;&gt;Node4 -->
<g id="edge3" class="edge">
<title>Node3&#45;&gt;Node4</title>
<path fill="none" stroke="midnightblue" d="M99.98,-56.08C101.99,-48.85 104.89,-38.41 107.39,-29.4"/>
<polygon fill="midnightblue" stroke="midnightblue" points="110.76,-30.32 110.07,-19.75 104.02,-28.45 110.76,-30.32"/>
</g>
</g>
</svg>
