<?xml version="1.0" encoding="UTF-8" standalone="no"?>
<!DOCTYPE svg PUBLIC "-//W3C//DTD SVG 1.1//EN"
 "http://www.w3.org/Graphics/SVG/1.1/DTD/svg11.dtd">
<!-- Generated by graphviz version 2.46.1 (20210215.1649)
 -->
<!-- Title: include/entities/ui/Image.h Pages: 1 -->
<svg width="480pt" height="263pt"
 viewBox="0.00 0.00 479.50 263.00" xmlns="http://www.w3.org/2000/svg" xmlns:xlink="http://www.w3.org/1999/xlink">
<g id="graph0" class="graph" transform="scale(1 1) rotate(0) translate(4 259)">
<title>include/entities/ui/Image.h</title>
<polygon fill="white" stroke="transparent" points="-4,4 -4,-259 475.5,-259 475.5,4 -4,4"/>
<!-- Node1 -->
<g id="node1" class="node">
<title>Node1</title>
<g id="a_node1"><a xlink:title="UI Image.">
<polygon fill="#bfbfbf" stroke="black" points="147,-224.5 147,-254.5 239,-254.5 239,-224.5 147,-224.5"/>
<text text-anchor="start" x="155" y="-242.5" font-family="Helvetica,sans-Serif" font-size="10.00">include/entities/ui</text>
<text text-anchor="middle" x="193" y="-231.5" font-family="Helvetica,sans-Serif" font-size="10.00">/Image.h</text>
</a>
</g>
</g>
<!-- Node2 -->
<g id="node2" class="node">
<title>Node2</title>
<g id="a_node2"><a xlink:title=" ">
<polygon fill="white" stroke="#bfbfbf" points="152.5,-56.5 152.5,-75.5 193.5,-75.5 193.5,-56.5 152.5,-56.5"/>
<text text-anchor="middle" x="173" y="-63.5" font-family="Helvetica,sans-Serif" font-size="10.00">string</text>
</a>
</g>
</g>
<!-- Node1&#45;&gt;Node2 -->
<g id="edge1" class="edge">
<title>Node1&#45;&gt;Node2</title>
<path fill="none" stroke="midnightblue" d="M175.37,-224.13C165.57,-214.96 154.3,-202.16 149,-188 135.79,-152.73 152.06,-108.81 163.54,-84.77"/>
<polygon fill="midnightblue" stroke="midnightblue" points="166.7,-86.28 168.06,-75.77 160.44,-83.14 166.7,-86.28"/>
</g>
<!-- Node3 -->
<g id="node3" class="node">
<title>Node3</title>
<g id="a_node3"><a xlink:href="Texture_8h.html" target="_top" xlink:title="Easy interface to interact with sdl bitmaps.">
<polygon fill="white" stroke="black" points="258,-112.5 258,-131.5 362,-131.5 362,-112.5 258,-112.5"/>
<text text-anchor="middle" x="310" y="-119.5" font-family="Helvetica,sans-Serif" font-size="10.00">../../assets/Texture.h</text>
</a>
</g>
</g>
<!-- Node1&#45;&gt;Node3 -->
<g id="edge2" class="edge">
<title>Node1&#45;&gt;Node3</title>
<path fill="none" stroke="midnightblue" d="M207.35,-224.34C229.29,-202.68 271.05,-161.45 293.96,-138.83"/>
<polygon fill="midnightblue" stroke="midnightblue" points="296.56,-141.19 301.22,-131.67 291.64,-136.2 296.56,-141.19"/>
</g>
<!-- Node7 -->
<g id="node7" class="node">
<title>Node7</title>
<g id="a_node7"><a xlink:href="UIElement_8h.html" target="_top" xlink:title="Parent class of many other UIElement subclasses. Handles most things that all UIElements may need.">
<polygon fill="white" stroke="black" points="158,-168.5 158,-187.5 228,-187.5 228,-168.5 158,-168.5"/>
<text text-anchor="middle" x="193" y="-175.5" font-family="Helvetica,sans-Serif" font-size="10.00">UIElement.h</text>
</a>
</g>
</g>
<!-- Node1&#45;&gt;Node7 -->
<g id="edge7" class="edge">
<title>Node1&#45;&gt;Node7</title>
<path fill="none" stroke="midnightblue" d="M193,-224.4C193,-216.47 193,-206.46 193,-197.86"/>
<polygon fill="midnightblue" stroke="midnightblue" points="196.5,-197.66 193,-187.66 189.5,-197.66 196.5,-197.66"/>
</g>
<!-- Node3&#45;&gt;Node2 -->
<g id="edge4" class="edge">
<title>Node3&#45;&gt;Node2</title>
<path fill="none" stroke="midnightblue" d="M288.29,-112.44C265.38,-103.41 229.09,-89.11 203.35,-78.96"/>
<polygon fill="midnightblue" stroke="midnightblue" points="204.3,-75.57 193.71,-75.16 201.73,-82.09 204.3,-75.57"/>
</g>
<!-- Node4 -->
<g id="node4" class="node">
<title>Node4</title>
<g id="a_node4"><a xlink:title=" ">
<polygon fill="white" stroke="#bfbfbf" points="63.5,-56.5 63.5,-75.5 134.5,-75.5 134.5,-56.5 63.5,-56.5"/>
<text text-anchor="middle" x="99" y="-63.5" font-family="Helvetica,sans-Serif" font-size="10.00">SDL2/SDL.h</text>
</a>
</g>
</g>
<!-- Node3&#45;&gt;Node4 -->
<g id="edge3" class="edge">
<title>Node3&#45;&gt;Node4</title>
<path fill="none" stroke="midnightblue" d="M276.57,-112.44C240.14,-103.12 181.77,-88.18 141.97,-78"/>
<polygon fill="midnightblue" stroke="midnightblue" points="142.83,-74.61 132.28,-75.52 141.1,-81.39 142.83,-74.61"/>
</g>
<!-- Node5 -->
<g id="node5" class="node">
<title>Node5</title>
<g id="a_node5"><a xlink:href="Color_8h.html" target="_top" xlink:title="Helpers for creating colors without accessing SDL api directly.">
<polygon fill="white" stroke="black" points="279,-56.5 279,-75.5 357,-75.5 357,-56.5 279,-56.5"/>
<text text-anchor="middle" x="318" y="-63.5" font-family="Helvetica,sans-Serif" font-size="10.00">../color/Color.h</text>
</a>
</g>
</g>
<!-- Node3&#45;&gt;Node5 -->
<g id="edge5" class="edge">
<title>Node3&#45;&gt;Node5</title>
<path fill="none" stroke="midnightblue" d="M311.32,-112.08C312.38,-104.93 313.91,-94.64 315.23,-85.69"/>
<polygon fill="midnightblue" stroke="midnightblue" points="318.7,-86.16 316.7,-75.75 311.78,-85.13 318.7,-86.16"/>
</g>
<!-- Node6 -->
<g id="node6" class="node">
<title>Node6</title>
<g id="a_node6"><a xlink:title=" ">
<polygon fill="white" stroke="#bfbfbf" points="249,-0.5 249,-19.5 387,-19.5 387,-0.5 249,-0.5"/>
<text text-anchor="middle" x="318" y="-7.5" font-family="Helvetica,sans-Serif" font-size="10.00">SDL2/SDL2_gfxPrimitives.h</text>
</a>
</g>
</g>
<!-- Node5&#45;&gt;Node6 -->
<g id="edge6" class="edge">
<title>Node5&#45;&gt;Node6</title>
<path fill="none" stroke="midnightblue" d="M318,-56.08C318,-49.01 318,-38.86 318,-29.99"/>
<polygon fill="midnightblue" stroke="midnightblue" points="321.5,-29.75 318,-19.75 314.5,-29.75 321.5,-29.75"/>
</g>
<!-- Node7&#45;&gt;Node2 -->
<g id="edge9" class="edge">
<title>Node7&#45;&gt;Node2</title>
<path fill="none" stroke="midnightblue" d="M187.36,-168.48C181.95,-159.74 174.14,-145.56 171,-132 167.46,-116.69 168.36,-98.81 169.92,-85.68"/>
<polygon fill="midnightblue" stroke="midnightblue" points="173.42,-85.94 171.36,-75.55 166.49,-84.96 173.42,-85.94"/>
</g>
<!-- Node8 -->
<g id="node8" class="node">
<title>Node8</title>
<g id="a_node8"><a xlink:title=" ">
<polygon fill="white" stroke="#bfbfbf" points="180.5,-112.5 180.5,-131.5 239.5,-131.5 239.5,-112.5 180.5,-112.5"/>
<text text-anchor="middle" x="210" y="-119.5" font-family="Helvetica,sans-Serif" font-size="10.00">functional</text>
</a>
</g>
</g>
<!-- Node7&#45;&gt;Node8 -->
<g id="edge8" class="edge">
<title>Node7&#45;&gt;Node8</title>
<path fill="none" stroke="midnightblue" d="M195.81,-168.08C198.08,-160.85 201.37,-150.41 204.21,-141.4"/>
<polygon fill="midnightblue" stroke="midnightblue" points="207.58,-142.34 207.25,-131.75 200.9,-140.24 207.58,-142.34"/>
</g>
<!-- Node9 -->
<g id="node9" class="node">
<title>Node9</title>
<g id="a_node9"><a xlink:href="Font_8h.html" target="_top" xlink:title="Easy interface to interact with SDL fonts.">
<polygon fill="white" stroke="black" points="380.5,-112.5 380.5,-131.5 471.5,-131.5 471.5,-112.5 380.5,-112.5"/>
<text text-anchor="middle" x="426" y="-119.5" font-family="Helvetica,sans-Serif" font-size="10.00">../../assets/Font.h</text>
</a>
</g>
</g>
<!-- Node7&#45;&gt;Node9 -->
<g id="edge10" class="edge">
<title>Node7&#45;&gt;Node9</title>
<path fill="none" stroke="midnightblue" d="M228.13,-168.86C268.35,-159.54 334.41,-144.23 379.02,-133.89"/>
<polygon fill="midnightblue" stroke="midnightblue" points="380.09,-137.23 389.04,-131.57 378.5,-130.41 380.09,-137.23"/>
</g>
<!-- Node11 -->
<g id="node11" class="node">
<title>Node11</title>
<g id="a_node11"><a xlink:href="GameObject_8h.html" target="_top" xlink:title="Implementation of GameObject class.">
<polygon fill="white" stroke="black" points="0,-112.5 0,-131.5 86,-131.5 86,-112.5 0,-112.5"/>
<text text-anchor="middle" x="43" y="-119.5" font-family="Helvetica,sans-Serif" font-size="10.00">../GameObject.h</text>
</a>
</g>
</g>
<!-- Node7&#45;&gt;Node11 -->
<g id="edge14" class="edge">
<title>Node7&#45;&gt;Node11</title>
<path fill="none" stroke="midnightblue" d="M169.23,-168.44C144.11,-159.4 104.29,-145.06 76.1,-134.92"/>
<polygon fill="midnightblue" stroke="midnightblue" points="77.25,-131.61 66.66,-131.52 74.88,-138.2 77.25,-131.61"/>
</g>
<!-- Node9&#45;&gt;Node2 -->
<g id="edge12" class="edge">
<title>Node9&#45;&gt;Node2</title>
<path fill="none" stroke="midnightblue" d="M385.91,-112.44C335.24,-101.63 249.13,-83.25 203.5,-73.51"/>
<polygon fill="midnightblue" stroke="midnightblue" points="204.11,-70.06 193.6,-71.4 202.65,-76.91 204.11,-70.06"/>
</g>
<!-- Node9&#45;&gt;Node5 -->
<g id="edge13" class="edge">
<title>Node9&#45;&gt;Node5</title>
<path fill="none" stroke="midnightblue" d="M408.65,-112.32C391.33,-103.66 364.48,-90.24 344.5,-80.25"/>
<polygon fill="midnightblue" stroke="midnightblue" points="345.82,-77 335.31,-75.65 342.69,-83.26 345.82,-77"/>
</g>
<!-- Node10 -->
<g id="node10" class="node">
<title>Node10</title>
<g id="a_node10"><a xlink:title=" ">
<polygon fill="white" stroke="#bfbfbf" points="383,-56.5 383,-75.5 469,-75.5 469,-56.5 383,-56.5"/>
<text text-anchor="middle" x="426" y="-63.5" font-family="Helvetica,sans-Serif" font-size="10.00">SDL2/SDL_ttf.h</text>
</a>
</g>
</g>
<!-- Node9&#45;&gt;Node10 -->
<g id="edge11" class="edge">
<title>Node9&#45;&gt;Node10</title>
<path fill="none" stroke="midnightblue" d="M426,-112.08C426,-105.01 426,-94.86 426,-85.99"/>
<polygon fill="midnightblue" stroke="midnightblue" points="429.5,-85.75 426,-75.75 422.5,-85.75 429.5,-85.75"/>
</g>
<!-- Node11&#45;&gt;Node2 -->
<g id="edge16" class="edge">
<title>Node11&#45;&gt;Node2</title>
<path fill="none" stroke="midnightblue" d="M63.6,-112.44C84.99,-103.56 118.68,-89.56 143.02,-79.45"/>
<polygon fill="midnightblue" stroke="midnightblue" points="144.61,-82.58 152.5,-75.52 141.92,-76.12 144.61,-82.58"/>
</g>
<!-- Node11&#45;&gt;Node4 -->
<g id="edge15" class="edge">
<title>Node11&#45;&gt;Node4</title>
<path fill="none" stroke="midnightblue" d="M52,-112.32C60.19,-104.42 72.51,-92.55 82.47,-82.94"/>
<polygon fill="midnightblue" stroke="midnightblue" points="85.07,-85.29 89.84,-75.83 80.21,-80.26 85.07,-85.29"/>
</g>
<!-- Node12 -->
<g id="node12" class="node">
<title>Node12</title>
<g id="a_node12"><a xlink:title=" ">
<polygon fill="white" stroke="#bfbfbf" points="1,-56.5 1,-75.5 45,-75.5 45,-56.5 1,-56.5"/>
<text text-anchor="middle" x="23" y="-63.5" font-family="Helvetica,sans-Serif" font-size="10.00">vector</text>
</a>
</g>
</g>
<!-- Node11&#45;&gt;Node12 -->
<g id="edge17" class="edge">
<title>Node11&#45;&gt;Node12</title>
<path fill="none" stroke="midnightblue" d="M39.7,-112.08C37.02,-104.85 33.15,-94.41 29.81,-85.4"/>
<polygon fill="midnightblue" stroke="midnightblue" points="33,-83.91 26.24,-75.75 26.43,-86.34 33,-83.91"/>
</g>
</g>
</svg>
