<?xml version="1.0" encoding="UTF-8" standalone="no"?>
<!DOCTYPE svg PUBLIC "-//W3C//DTD SVG 1.1//EN"
 "http://www.w3.org/Graphics/SVG/1.1/DTD/svg11.dtd">
<!-- Generated by graphviz version 2.46.1 (20210215.1649)
 -->
<!-- Title: src/entities/ui/Image.cpp Pages: 1 -->
<svg width="2048pt" height="364pt"
 viewBox="0.00 0.00 2047.50 364.00" xmlns="http://www.w3.org/2000/svg" xmlns:xlink="http://www.w3.org/1999/xlink">
<g id="graph0" class="graph" transform="scale(1 1) rotate(0) translate(4 360)">
<title>src/entities/ui/Image.cpp</title>
<polygon fill="white" stroke="transparent" points="-4,4 -4,-360 2043.5,-360 2043.5,4 -4,4"/>
<!-- Node1 -->
<g id="node1" class="node">
<title>Node1</title>
<g id="a_node1"><a xlink:title="Texturable ui element.">
<polygon fill="#bfbfbf" stroke="black" points="284,-336.5 284,-355.5 407,-355.5 407,-336.5 284,-336.5"/>
<text text-anchor="middle" x="345.5" y="-343.5" font-family="Helvetica,sans-Serif" font-size="10.00">src/entities/ui/Image.cpp</text>
</a>
</g>
</g>
<!-- Node2 -->
<g id="node2" class="node">
<title>Node2</title>
<g id="a_node2"><a xlink:href="Image_8h.html" target="_top" xlink:title="UI Image.">
<polygon fill="white" stroke="black" points="142.5,-224.5 142.5,-243.5 238.5,-243.5 238.5,-224.5 142.5,-224.5"/>
<text text-anchor="middle" x="190.5" y="-231.5" font-family="Helvetica,sans-Serif" font-size="10.00">entities/ui/Image.h</text>
</a>
</g>
</g>
<!-- Node1&#45;&gt;Node2 -->
<g id="edge1" class="edge">
<title>Node1&#45;&gt;Node2</title>
<path fill="none" stroke="midnightblue" d="M333.34,-336.37C306.85,-317.57 243.72,-272.77 210.98,-249.53"/>
<polygon fill="midnightblue" stroke="midnightblue" points="212.79,-246.52 202.61,-243.59 208.74,-252.23 212.79,-246.52"/>
</g>
<!-- Node14 -->
<g id="node14" class="node">
<title>Node14</title>
<g id="a_node14"><a xlink:href="Scene_8h.html" target="_top" xlink:title="Parent scene class. Children can be added to scene manager.">
<polygon fill="white" stroke="black" points="460,-280.5 460,-299.5 541,-299.5 541,-280.5 460,-280.5"/>
<text text-anchor="middle" x="500.5" y="-287.5" font-family="Helvetica,sans-Serif" font-size="10.00">scene/Scene.h</text>
</a>
</g>
</g>
<!-- Node1&#45;&gt;Node14 -->
<g id="edge19" class="edge">
<title>Node1&#45;&gt;Node14</title>
<path fill="none" stroke="midnightblue" d="M370.06,-336.44C396.02,-327.4 437.17,-313.06 466.3,-302.92"/>
<polygon fill="midnightblue" stroke="midnightblue" points="467.76,-306.11 476.05,-299.52 465.46,-299.5 467.76,-306.11"/>
</g>
<!-- Node3 -->
<g id="node3" class="node">
<title>Node3</title>
<g id="a_node3"><a xlink:title=" ">
<polygon fill="white" stroke="#bfbfbf" points="725,-56.5 725,-75.5 766,-75.5 766,-56.5 725,-56.5"/>
<text text-anchor="middle" x="745.5" y="-63.5" font-family="Helvetica,sans-Serif" font-size="10.00">string</text>
</a>
</g>
</g>
<!-- Node2&#45;&gt;Node3 -->
<g id="edge2" class="edge">
<title>Node2&#45;&gt;Node3</title>
<path fill="none" stroke="midnightblue" d="M193.74,-224.33C202.84,-201.33 231.07,-138.69 277.5,-112 352.38,-68.96 623.27,-66.33 714.93,-66.71"/>
<polygon fill="midnightblue" stroke="midnightblue" points="714.94,-70.21 724.96,-66.77 714.98,-63.21 714.94,-70.21"/>
</g>
<!-- Node4 -->
<g id="node4" class="node">
<title>Node4</title>
<g id="a_node4"><a xlink:href="Texture_8h.html" target="_top" xlink:title="Easy interface to interact with sdl bitmaps.">
<polygon fill="white" stroke="black" points="300.5,-112.5 300.5,-131.5 404.5,-131.5 404.5,-112.5 300.5,-112.5"/>
<text text-anchor="middle" x="352.5" y="-119.5" font-family="Helvetica,sans-Serif" font-size="10.00">../../assets/Texture.h</text>
</a>
</g>
</g>
<!-- Node2&#45;&gt;Node4 -->
<g id="edge3" class="edge">
<title>Node2&#45;&gt;Node4</title>
<path fill="none" stroke="midnightblue" d="M203.21,-224.37C231.01,-205.49 297.44,-160.38 331.53,-137.24"/>
<polygon fill="midnightblue" stroke="midnightblue" points="333.54,-140.1 339.85,-131.59 329.61,-134.31 333.54,-140.1"/>
</g>
<!-- Node8 -->
<g id="node8" class="node">
<title>Node8</title>
<g id="a_node8"><a xlink:href="UIElement_8h.html" target="_top" xlink:title="Parent class of many other UIElement subclasses. Handles most things that all UIElements may need.">
<polygon fill="white" stroke="black" points="106.5,-168.5 106.5,-187.5 176.5,-187.5 176.5,-168.5 106.5,-168.5"/>
<text text-anchor="middle" x="141.5" y="-175.5" font-family="Helvetica,sans-Serif" font-size="10.00">UIElement.h</text>
</a>
</g>
</g>
<!-- Node2&#45;&gt;Node8 -->
<g id="edge8" class="edge">
<title>Node2&#45;&gt;Node8</title>
<path fill="none" stroke="midnightblue" d="M182.41,-224.08C175.34,-216.3 164.91,-204.8 156.35,-195.37"/>
<polygon fill="midnightblue" stroke="midnightblue" points="158.75,-192.8 149.44,-187.75 153.57,-197.51 158.75,-192.8"/>
</g>
<!-- Node4&#45;&gt;Node3 -->
<g id="edge5" class="edge">
<title>Node4&#45;&gt;Node3</title>
<path fill="none" stroke="midnightblue" d="M404.69,-113.83C487.76,-102.42 647.51,-80.46 714.62,-71.24"/>
<polygon fill="midnightblue" stroke="midnightblue" points="715.51,-74.65 724.94,-69.83 714.55,-67.72 715.51,-74.65"/>
</g>
<!-- Node5 -->
<g id="node5" class="node">
<title>Node5</title>
<g id="a_node5"><a xlink:title=" ">
<polygon fill="white" stroke="#bfbfbf" points="1223,-56.5 1223,-75.5 1294,-75.5 1294,-56.5 1223,-56.5"/>
<text text-anchor="middle" x="1258.5" y="-63.5" font-family="Helvetica,sans-Serif" font-size="10.00">SDL2/SDL.h</text>
</a>
</g>
</g>
<!-- Node4&#45;&gt;Node5 -->
<g id="edge4" class="edge">
<title>Node4&#45;&gt;Node5</title>
<path fill="none" stroke="midnightblue" d="M404.63,-115.97C420.04,-114.58 436.94,-113.13 452.5,-112 741.46,-90.94 1089.32,-74.55 1212.53,-69.02"/>
<polygon fill="midnightblue" stroke="midnightblue" points="1212.89,-72.51 1222.72,-68.56 1212.57,-65.51 1212.89,-72.51"/>
</g>
<!-- Node6 -->
<g id="node6" class="node">
<title>Node6</title>
<g id="a_node6"><a xlink:href="Color_8h.html" target="_top" xlink:title="Helpers for creating colors without accessing SDL api directly.">
<polygon fill="white" stroke="black" points="313.5,-56.5 313.5,-75.5 391.5,-75.5 391.5,-56.5 313.5,-56.5"/>
<text text-anchor="middle" x="352.5" y="-63.5" font-family="Helvetica,sans-Serif" font-size="10.00">../color/Color.h</text>
</a>
</g>
</g>
<!-- Node4&#45;&gt;Node6 -->
<g id="edge6" class="edge">
<title>Node4&#45;&gt;Node6</title>
<path fill="none" stroke="midnightblue" d="M352.5,-112.08C352.5,-105.01 352.5,-94.86 352.5,-85.99"/>
<polygon fill="midnightblue" stroke="midnightblue" points="356,-85.75 352.5,-75.75 349,-85.75 356,-85.75"/>
</g>
<!-- Node7 -->
<g id="node7" class="node">
<title>Node7</title>
<g id="a_node7"><a xlink:title=" ">
<polygon fill="white" stroke="#bfbfbf" points="283.5,-0.5 283.5,-19.5 421.5,-19.5 421.5,-0.5 283.5,-0.5"/>
<text text-anchor="middle" x="352.5" y="-7.5" font-family="Helvetica,sans-Serif" font-size="10.00">SDL2/SDL2_gfxPrimitives.h</text>
</a>
</g>
</g>
<!-- Node6&#45;&gt;Node7 -->
<g id="edge7" class="edge">
<title>Node6&#45;&gt;Node7</title>
<path fill="none" stroke="midnightblue" d="M352.5,-56.08C352.5,-49.01 352.5,-38.86 352.5,-29.99"/>
<polygon fill="midnightblue" stroke="midnightblue" points="356,-29.75 352.5,-19.75 349,-29.75 356,-29.75"/>
</g>
<!-- Node8&#45;&gt;Node3 -->
<g id="edge10" class="edge">
<title>Node8&#45;&gt;Node3</title>
<path fill="none" stroke="midnightblue" d="M148.72,-168.35C161.47,-153.75 189.58,-124.6 220.5,-112 311.03,-75.1 616.36,-68.45 714.7,-67.26"/>
<polygon fill="midnightblue" stroke="midnightblue" points="714.91,-70.76 724.87,-67.15 714.83,-63.76 714.91,-70.76"/>
</g>
<!-- Node9 -->
<g id="node9" class="node">
<title>Node9</title>
<g id="a_node9"><a xlink:title=" ">
<polygon fill="white" stroke="#bfbfbf" points="0,-112.5 0,-131.5 59,-131.5 59,-112.5 0,-112.5"/>
<text text-anchor="middle" x="29.5" y="-119.5" font-family="Helvetica,sans-Serif" font-size="10.00">functional</text>
</a>
</g>
</g>
<!-- Node8&#45;&gt;Node9 -->
<g id="edge9" class="edge">
<title>Node8&#45;&gt;Node9</title>
<path fill="none" stroke="midnightblue" d="M123.51,-168.32C105.46,-159.62 77.45,-146.12 56.7,-136.11"/>
<polygon fill="midnightblue" stroke="midnightblue" points="57.98,-132.84 47.45,-131.65 54.94,-139.15 57.98,-132.84"/>
</g>
<!-- Node10 -->
<g id="node10" class="node">
<title>Node10</title>
<g id="a_node10"><a xlink:href="Font_8h.html" target="_top" xlink:title="Easy interface to interact with SDL fonts.">
<polygon fill="white" stroke="black" points="77,-112.5 77,-131.5 168,-131.5 168,-112.5 77,-112.5"/>
<text text-anchor="middle" x="122.5" y="-119.5" font-family="Helvetica,sans-Serif" font-size="10.00">../../assets/Font.h</text>
</a>
</g>
</g>
<!-- Node8&#45;&gt;Node10 -->
<g id="edge11" class="edge">
<title>Node8&#45;&gt;Node10</title>
<path fill="none" stroke="midnightblue" d="M138.36,-168.08C135.82,-160.85 132.14,-150.41 128.97,-141.4"/>
<polygon fill="midnightblue" stroke="midnightblue" points="132.2,-140.02 125.58,-131.75 125.6,-142.35 132.2,-140.02"/>
</g>
<!-- Node12 -->
<g id="node12" class="node">
<title>Node12</title>
<g id="a_node12"><a xlink:href="GameObject_8h.html" target="_top" xlink:title="Implementation of GameObject class.">
<polygon fill="white" stroke="black" points="1199.5,-112.5 1199.5,-131.5 1285.5,-131.5 1285.5,-112.5 1199.5,-112.5"/>
<text text-anchor="middle" x="1242.5" y="-119.5" font-family="Helvetica,sans-Serif" font-size="10.00">../GameObject.h</text>
</a>
</g>
</g>
<!-- Node8&#45;&gt;Node12 -->
<g id="edge15" class="edge">
<title>Node8&#45;&gt;Node12</title>
<path fill="none" stroke="midnightblue" d="M176.64,-174.89C208.65,-173 257.24,-170.18 299.5,-168 644.74,-150.17 731.23,-149.36 1076.5,-132 1114.09,-130.11 1156.45,-127.81 1188.97,-126.01"/>
<polygon fill="midnightblue" stroke="midnightblue" points="1189.37,-129.49 1199.16,-125.44 1188.99,-122.5 1189.37,-129.49"/>
</g>
<!-- Node10&#45;&gt;Node3 -->
<g id="edge13" class="edge">
<title>Node10&#45;&gt;Node3</title>
<path fill="none" stroke="midnightblue" d="M168.32,-113.79C173.1,-113.14 177.9,-112.53 182.5,-112 384.99,-88.75 629.82,-73.59 714.74,-68.71"/>
<polygon fill="midnightblue" stroke="midnightblue" points="714.96,-72.2 724.75,-68.14 714.56,-65.21 714.96,-72.2"/>
</g>
<!-- Node10&#45;&gt;Node6 -->
<g id="edge14" class="edge">
<title>Node10&#45;&gt;Node6</title>
<path fill="none" stroke="midnightblue" d="M158.94,-112.44C198.9,-103.06 263.09,-87.99 306.48,-77.8"/>
<polygon fill="midnightblue" stroke="midnightblue" points="307.29,-81.21 316.23,-75.52 305.69,-74.39 307.29,-81.21"/>
</g>
<!-- Node11 -->
<g id="node11" class="node">
<title>Node11</title>
<g id="a_node11"><a xlink:title=" ">
<polygon fill="white" stroke="#bfbfbf" points="79.5,-56.5 79.5,-75.5 165.5,-75.5 165.5,-56.5 79.5,-56.5"/>
<text text-anchor="middle" x="122.5" y="-63.5" font-family="Helvetica,sans-Serif" font-size="10.00">SDL2/SDL_ttf.h</text>
</a>
</g>
</g>
<!-- Node10&#45;&gt;Node11 -->
<g id="edge12" class="edge">
<title>Node10&#45;&gt;Node11</title>
<path fill="none" stroke="midnightblue" d="M122.5,-112.08C122.5,-105.01 122.5,-94.86 122.5,-85.99"/>
<polygon fill="midnightblue" stroke="midnightblue" points="126,-85.75 122.5,-75.75 119,-85.75 126,-85.75"/>
</g>
<!-- Node12&#45;&gt;Node3 -->
<g id="edge17" class="edge">
<title>Node12&#45;&gt;Node3</title>
<path fill="none" stroke="midnightblue" d="M1199.28,-113.92C1194.63,-113.24 1189.97,-112.58 1185.5,-112 1032.31,-92.09 848.17,-75.68 776.32,-69.57"/>
<polygon fill="midnightblue" stroke="midnightblue" points="776.42,-66.06 766.16,-68.71 775.83,-73.04 776.42,-66.06"/>
</g>
<!-- Node12&#45;&gt;Node5 -->
<g id="edge16" class="edge">
<title>Node12&#45;&gt;Node5</title>
<path fill="none" stroke="midnightblue" d="M1245.14,-112.08C1247.29,-104.85 1250.38,-94.41 1253.05,-85.4"/>
<polygon fill="midnightblue" stroke="midnightblue" points="1256.42,-86.33 1255.91,-75.75 1249.71,-84.34 1256.42,-86.33"/>
</g>
<!-- Node13 -->
<g id="node13" class="node">
<title>Node13</title>
<g id="a_node13"><a xlink:title=" ">
<polygon fill="white" stroke="#bfbfbf" points="1409.5,-56.5 1409.5,-75.5 1453.5,-75.5 1453.5,-56.5 1409.5,-56.5"/>
<text text-anchor="middle" x="1431.5" y="-63.5" font-family="Helvetica,sans-Serif" font-size="10.00">vector</text>
</a>
</g>
</g>
<!-- Node12&#45;&gt;Node13 -->
<g id="edge18" class="edge">
<title>Node12&#45;&gt;Node13</title>
<path fill="none" stroke="midnightblue" d="M1272.45,-112.44C1307.12,-102.54 1364,-86.28 1399.52,-76.14"/>
<polygon fill="midnightblue" stroke="midnightblue" points="1400.72,-79.44 1409.37,-73.32 1398.79,-72.7 1400.72,-79.44"/>
</g>
<!-- Node14&#45;&gt;Node3 -->
<g id="edge22" class="edge">
<title>Node14&#45;&gt;Node3</title>
<path fill="none" stroke="midnightblue" d="M472.48,-280.4C455.33,-273.51 434.75,-261.98 424.5,-244 403.17,-206.59 368.89,-188.21 452.5,-112 490.42,-77.44 647.03,-69.42 714.43,-67.56"/>
<polygon fill="midnightblue" stroke="midnightblue" points="714.91,-71.05 724.82,-67.3 714.73,-64.05 714.91,-71.05"/>
</g>
<!-- Node14&#45;&gt;Node12 -->
<g id="edge28" class="edge">
<title>Node14&#45;&gt;Node12</title>
<path fill="none" stroke="midnightblue" d="M541.22,-287.43C705.13,-280.68 1310.4,-251.59 1364.5,-188 1388.59,-159.68 1338.84,-141.83 1295.8,-132.15"/>
<polygon fill="midnightblue" stroke="midnightblue" points="1296.41,-128.7 1285.9,-130.04 1294.95,-135.55 1296.41,-128.7"/>
</g>
<!-- Node14&#45;&gt;Node13 -->
<g id="edge24" class="edge">
<title>Node14&#45;&gt;Node13</title>
<path fill="none" stroke="midnightblue" d="M541.12,-288.29C724.12,-284.67 1465.91,-265.3 1530.5,-188 1562.88,-149.24 1495.88,-102.9 1456.87,-80.47"/>
<polygon fill="midnightblue" stroke="midnightblue" points="1458.52,-77.39 1448.09,-75.56 1455.1,-83.5 1458.52,-77.39"/>
</g>
<!-- Node15 -->
<g id="node15" class="node">
<title>Node15</title>
<g id="a_node15"><a xlink:title=" ">
<polygon fill="white" stroke="#bfbfbf" points="461,-112.5 461,-131.5 496,-131.5 496,-112.5 461,-112.5"/>
<text text-anchor="middle" x="478.5" y="-119.5" font-family="Helvetica,sans-Serif" font-size="10.00">map</text>
</a>
</g>
</g>
<!-- Node14&#45;&gt;Node15 -->
<g id="edge20" class="edge">
<title>Node14&#45;&gt;Node15</title>
<path fill="none" stroke="midnightblue" d="M498.57,-280.4C495.61,-267.78 489.45,-243.61 481.5,-224 474.71,-207.23 466.85,-205.56 462.5,-188 458.58,-172.16 463.77,-154.13 469.27,-141.09"/>
<polygon fill="midnightblue" stroke="midnightblue" points="472.53,-142.38 473.56,-131.83 466.18,-139.43 472.53,-142.38"/>
</g>
<!-- Node16 -->
<g id="node16" class="node">
<title>Node16</title>
<g id="a_node16"><a xlink:title=" ">
<polygon fill="white" stroke="#bfbfbf" points="471,-168.5 471,-187.5 522,-187.5 522,-168.5 471,-168.5"/>
<text text-anchor="middle" x="496.5" y="-175.5" font-family="Helvetica,sans-Serif" font-size="10.00">memory</text>
</a>
</g>
</g>
<!-- Node14&#45;&gt;Node16 -->
<g id="edge21" class="edge">
<title>Node14&#45;&gt;Node16</title>
<path fill="none" stroke="midnightblue" d="M504.69,-280.19C510.1,-267.72 518.39,-244.18 514.5,-224 512.71,-214.7 509.02,-204.89 505.44,-196.8"/>
<polygon fill="midnightblue" stroke="midnightblue" points="508.56,-195.21 501.12,-187.66 502.23,-198.2 508.56,-195.21"/>
</g>
<!-- Node17 -->
<g id="node17" class="node">
<title>Node17</title>
<g id="a_node17"><a xlink:title=" ">
<polygon fill="white" stroke="#bfbfbf" points="433,-224.5 433,-243.5 472,-243.5 472,-224.5 433,-224.5"/>
<text text-anchor="middle" x="452.5" y="-231.5" font-family="Helvetica,sans-Serif" font-size="10.00">utility</text>
</a>
</g>
</g>
<!-- Node14&#45;&gt;Node17 -->
<g id="edge23" class="edge">
<title>Node14&#45;&gt;Node17</title>
<path fill="none" stroke="midnightblue" d="M492.57,-280.08C485.65,-272.3 475.43,-260.8 467.05,-251.37"/>
<polygon fill="midnightblue" stroke="midnightblue" points="469.54,-248.9 460.28,-243.75 464.31,-253.55 469.54,-248.9"/>
</g>
<!-- Node18 -->
<g id="node18" class="node">
<title>Node18</title>
<g id="a_node18"><a xlink:href="Exceptions_8h.html" target="_top" xlink:title="Interally used exceptions. These can be handled properly in the main game class.">
<polygon fill="white" stroke="black" points="257,-224.5 257,-243.5 376,-243.5 376,-224.5 257,-224.5"/>
<text text-anchor="middle" x="316.5" y="-231.5" font-family="Helvetica,sans-Serif" font-size="10.00">../common/Exceptions.h</text>
</a>
</g>
</g>
<!-- Node14&#45;&gt;Node18 -->
<g id="edge25" class="edge">
<title>Node14&#45;&gt;Node18</title>
<path fill="none" stroke="midnightblue" d="M471.34,-280.44C439.99,-271.24 389.97,-256.56 355.3,-246.39"/>
<polygon fill="midnightblue" stroke="midnightblue" points="356.1,-242.97 345.52,-243.52 354.13,-249.69 356.1,-242.97"/>
</g>
<!-- Node20 -->
<g id="node20" class="node">
<title>Node20</title>
<g id="a_node20"><a xlink:href="Services_8h.html" target="_top" xlink:title="Implementation of core Services class.">
<polygon fill="white" stroke="black" points="900.5,-224.5 900.5,-243.5 1010.5,-243.5 1010.5,-224.5 900.5,-224.5"/>
<text text-anchor="middle" x="955.5" y="-231.5" font-family="Helvetica,sans-Serif" font-size="10.00">../services/Services.h</text>
</a>
</g>
</g>
<!-- Node14&#45;&gt;Node20 -->
<g id="edge29" class="edge">
<title>Node14&#45;&gt;Node20</title>
<path fill="none" stroke="midnightblue" d="M541.28,-284.16C620.31,-274.78 794.9,-254.06 890.24,-242.75"/>
<polygon fill="midnightblue" stroke="midnightblue" points="890.82,-246.2 900.34,-241.55 890,-239.25 890.82,-246.2"/>
</g>
<!-- Node18&#45;&gt;Node3 -->
<g id="edge27" class="edge">
<title>Node18&#45;&gt;Node3</title>
<path fill="none" stroke="midnightblue" d="M310.4,-224.39C295.77,-202.58 261.98,-144.59 291.5,-112 319.91,-80.63 617.35,-70.27 714.79,-67.71"/>
<polygon fill="midnightblue" stroke="midnightblue" points="714.97,-71.21 724.88,-67.45 714.79,-64.21 714.97,-71.21"/>
</g>
<!-- Node19 -->
<g id="node19" class="node">
<title>Node19</title>
<g id="a_node19"><a xlink:title=" ">
<polygon fill="white" stroke="#bfbfbf" points="309,-168.5 309,-187.5 368,-187.5 368,-168.5 309,-168.5"/>
<text text-anchor="middle" x="338.5" y="-175.5" font-family="Helvetica,sans-Serif" font-size="10.00">stdexcept</text>
</a>
</g>
</g>
<!-- Node18&#45;&gt;Node19 -->
<g id="edge26" class="edge">
<title>Node18&#45;&gt;Node19</title>
<path fill="none" stroke="midnightblue" d="M320.13,-224.08C323.11,-216.77 327.43,-206.18 331.12,-197.1"/>
<polygon fill="midnightblue" stroke="midnightblue" points="334.4,-198.33 334.93,-187.75 327.92,-195.69 334.4,-198.33"/>
</g>
<!-- Node20&#45;&gt;Node16 -->
<g id="edge30" class="edge">
<title>Node20&#45;&gt;Node16</title>
<path fill="none" stroke="midnightblue" d="M900.25,-229.72C820.88,-224.44 669.91,-212.27 531.93,-187.8"/>
<polygon fill="midnightblue" stroke="midnightblue" points="532.48,-184.35 522.02,-186.02 531.24,-191.24 532.48,-184.35"/>
</g>
<!-- Node21 -->
<g id="node21" class="node">
<title>Node21</title>
<g id="a_node21"><a xlink:href="AssetService_8h.html" target="_top" xlink:title="Implementation of AssetService.">
<polygon fill="white" stroke="black" points="671,-168.5 671,-187.5 786,-187.5 786,-168.5 671,-168.5"/>
<text text-anchor="middle" x="728.5" y="-175.5" font-family="Helvetica,sans-Serif" font-size="10.00">assets/AssetService.h</text>
</a>
</g>
</g>
<!-- Node20&#45;&gt;Node21 -->
<g id="edge31" class="edge">
<title>Node20&#45;&gt;Node21</title>
<path fill="none" stroke="midnightblue" d="M919.53,-224.44C880.18,-215.08 817.01,-200.06 774.19,-189.87"/>
<polygon fill="midnightblue" stroke="midnightblue" points="774.84,-186.43 764.3,-187.52 773.22,-193.24 774.84,-186.43"/>
</g>
<!-- Node25 -->
<g id="node25" class="node">
<title>Node25</title>
<g id="a_node25"><a xlink:href="AudioService_8h.html" target="_top" xlink:title="Default audio service, can actually play audio.">
<polygon fill="white" stroke="black" points="975.5,-168.5 975.5,-187.5 1083.5,-187.5 1083.5,-168.5 975.5,-168.5"/>
<text text-anchor="middle" x="1029.5" y="-175.5" font-family="Helvetica,sans-Serif" font-size="10.00">audio/AudioService.h</text>
</a>
</g>
</g>
<!-- Node20&#45;&gt;Node25 -->
<g id="edge42" class="edge">
<title>Node20&#45;&gt;Node25</title>
<path fill="none" stroke="midnightblue" d="M967.39,-224.32C978.65,-216.11 995.79,-203.6 1009.21,-193.81"/>
<polygon fill="midnightblue" stroke="midnightblue" points="1011.38,-196.56 1017.39,-187.83 1007.25,-190.9 1011.38,-196.56"/>
</g>
<!-- Node26 -->
<g id="node26" class="node">
<title>Node26</title>
<g id="a_node26"><a xlink:href="ConfigService_8h.html" target="_top" xlink:title="Header for default Config Service.">
<polygon fill="white" stroke="black" points="540,-168.5 540,-187.5 653,-187.5 653,-168.5 540,-168.5"/>
<text text-anchor="middle" x="596.5" y="-175.5" font-family="Helvetica,sans-Serif" font-size="10.00">config/ConfigService.h</text>
</a>
</g>
</g>
<!-- Node20&#45;&gt;Node26 -->
<g id="edge46" class="edge">
<title>Node20&#45;&gt;Node26</title>
<path fill="none" stroke="midnightblue" d="M900.19,-224.68C836.4,-215.09 731.55,-199.31 663.27,-189.04"/>
<polygon fill="midnightblue" stroke="midnightblue" points="663.46,-185.53 653.06,-187.51 662.42,-192.46 663.46,-185.53"/>
</g>
<!-- Node28 -->
<g id="node28" class="node">
<title>Node28</title>
<g id="a_node28"><a xlink:href="DisplayService_8h.html" target="_top" xlink:title="Service that encapsulates SDL display related functionality.">
<polygon fill="white" stroke="black" points="1101.5,-168.5 1101.5,-187.5 1223.5,-187.5 1223.5,-168.5 1101.5,-168.5"/>
<text text-anchor="middle" x="1162.5" y="-175.5" font-family="Helvetica,sans-Serif" font-size="10.00">display/DisplayService.h</text>
</a>
</g>
</g>
<!-- Node20&#45;&gt;Node28 -->
<g id="edge50" class="edge">
<title>Node20&#45;&gt;Node28</title>
<path fill="none" stroke="midnightblue" d="M988.3,-224.44C1023.88,-215.16 1080.81,-200.31 1119.85,-190.13"/>
<polygon fill="midnightblue" stroke="midnightblue" points="1121.06,-193.43 1129.85,-187.52 1119.29,-186.65 1121.06,-193.43"/>
</g>
<!-- Node31 -->
<g id="node31" class="node">
<title>Node31</title>
<g id="a_node31"><a xlink:href="EventQueue_8h.html" target="_top" xlink:title="Handles SDL_Events from main SDL_Queue. Can be hooked into by other services and notified when change...">
<polygon fill="white" stroke="black" points="1411.5,-168.5 1411.5,-187.5 1521.5,-187.5 1521.5,-168.5 1411.5,-168.5"/>
<text text-anchor="middle" x="1466.5" y="-175.5" font-family="Helvetica,sans-Serif" font-size="10.00">events/EventQueue.h</text>
</a>
</g>
</g>
<!-- Node20&#45;&gt;Node31 -->
<g id="edge57" class="edge">
<title>Node20&#45;&gt;Node31</title>
<path fill="none" stroke="midnightblue" d="M1010.67,-227.17C1105.61,-217.14 1299.43,-196.65 1401.04,-185.92"/>
<polygon fill="midnightblue" stroke="midnightblue" points="1401.6,-189.38 1411.17,-184.85 1400.86,-182.42 1401.6,-189.38"/>
</g>
<!-- Node32 -->
<g id="node32" class="node">
<title>Node32</title>
<g id="a_node32"><a xlink:href="InputService_8h.html" target="_top" xlink:title="General Purpose input listener. Handles Mouse, Keyboard, Joystick.">
<polygon fill="white" stroke="black" points="1618,-168.5 1618,-187.5 1721,-187.5 1721,-168.5 1618,-168.5"/>
<text text-anchor="middle" x="1669.5" y="-175.5" font-family="Helvetica,sans-Serif" font-size="10.00">input/InputService.h</text>
</a>
</g>
</g>
<!-- Node20&#45;&gt;Node32 -->
<g id="edge61" class="edge">
<title>Node20&#45;&gt;Node32</title>
<path fill="none" stroke="midnightblue" d="M1010.64,-228.83C1141.5,-218.93 1470.14,-194.08 1607.57,-183.68"/>
<polygon fill="midnightblue" stroke="midnightblue" points="1608.21,-187.15 1617.92,-182.9 1607.68,-180.17 1608.21,-187.15"/>
</g>
<!-- Node40 -->
<g id="node40" class="node">
<title>Node40</title>
<g id="a_node40"><a xlink:href="DebugLoggingService_8h.html" target="_top" xlink:title="Logging service that does the logging. Used for development.">
<polygon fill="white" stroke="black" points="804,-168.5 804,-187.5 957,-187.5 957,-168.5 804,-168.5"/>
<text text-anchor="middle" x="880.5" y="-175.5" font-family="Helvetica,sans-Serif" font-size="10.00">logging/DebugLoggingService.h</text>
</a>
</g>
</g>
<!-- Node20&#45;&gt;Node40 -->
<g id="edge74" class="edge">
<title>Node20&#45;&gt;Node40</title>
<path fill="none" stroke="midnightblue" d="M943.45,-224.32C932.04,-216.11 914.67,-203.6 901.07,-193.81"/>
<polygon fill="midnightblue" stroke="midnightblue" points="902.93,-190.84 892.77,-187.83 898.84,-196.52 902.93,-190.84"/>
</g>
<!-- Node42 -->
<g id="node42" class="node">
<title>Node42</title>
<g id="a_node42"><a xlink:href="SceneService_8h.html" target="_top" xlink:title="Service in charge of managing scenes.">
<polygon fill="white" stroke="black" points="1241.5,-168.5 1241.5,-187.5 1355.5,-187.5 1355.5,-168.5 1241.5,-168.5"/>
<text text-anchor="middle" x="1298.5" y="-175.5" font-family="Helvetica,sans-Serif" font-size="10.00">scene/SceneService.h</text>
</a>
</g>
</g>
<!-- Node20&#45;&gt;Node42 -->
<g id="edge78" class="edge">
<title>Node20&#45;&gt;Node42</title>
<path fill="none" stroke="midnightblue" d="M1009.85,-224.44C1070.81,-214.85 1169.61,-199.29 1234.32,-189.1"/>
<polygon fill="midnightblue" stroke="midnightblue" points="1235.07,-192.53 1244.4,-187.52 1233.98,-185.61 1235.07,-192.53"/>
</g>
<!-- Node21&#45;&gt;Node3 -->
<g id="edge33" class="edge">
<title>Node21&#45;&gt;Node3</title>
<path fill="none" stroke="midnightblue" d="M718.36,-168.33C705.26,-156.02 685.18,-132.66 694.5,-112 700.12,-99.56 711.06,-89.17 721.38,-81.53"/>
<polygon fill="midnightblue" stroke="midnightblue" points="723.51,-84.31 729.77,-75.76 719.54,-78.54 723.51,-84.31"/>
</g>
<!-- Node21&#45;&gt;Node4 -->
<g id="edge41" class="edge">
<title>Node21&#45;&gt;Node4</title>
<path fill="none" stroke="midnightblue" d="M670.98,-168.74C601.77,-158.8 485.99,-142.17 414.74,-131.94"/>
<polygon fill="midnightblue" stroke="midnightblue" points="414.95,-128.43 404.56,-130.48 413.96,-135.36 414.95,-128.43"/>
</g>
<!-- Node21&#45;&gt;Node10 -->
<g id="edge34" class="edge">
<title>Node21&#45;&gt;Node10</title>
<path fill="none" stroke="midnightblue" d="M670.93,-168.97C668.08,-168.63 665.26,-168.3 662.5,-168 486.11,-148.64 276.48,-133.38 178.37,-126.69"/>
<polygon fill="midnightblue" stroke="midnightblue" points="178.31,-123.17 168.09,-125.99 177.83,-130.16 178.31,-123.17"/>
</g>
<!-- Node21&#45;&gt;Node15 -->
<g id="edge32" class="edge">
<title>Node21&#45;&gt;Node15</title>
<path fill="none" stroke="midnightblue" d="M677.16,-168.49C633.91,-160.9 570.29,-148.77 506.02,-131.86"/>
<polygon fill="midnightblue" stroke="midnightblue" points="506.69,-128.42 496.12,-129.22 504.88,-135.18 506.69,-128.42"/>
</g>
<!-- Node22 -->
<g id="node22" class="node">
<title>Node22</title>
<g id="a_node22"><a xlink:href="Sound_8h.html" target="_top" xlink:title="Implementation of Sound.">
<polygon fill="white" stroke="black" points="968,-112.5 968,-131.5 1067,-131.5 1067,-112.5 968,-112.5"/>
<text text-anchor="middle" x="1017.5" y="-119.5" font-family="Helvetica,sans-Serif" font-size="10.00">../../assets/Sound.h</text>
</a>
</g>
</g>
<!-- Node21&#45;&gt;Node22 -->
<g id="edge35" class="edge">
<title>Node21&#45;&gt;Node22</title>
<path fill="none" stroke="midnightblue" d="M774.29,-168.44C825.24,-158.92 907.53,-143.55 962.07,-133.36"/>
<polygon fill="midnightblue" stroke="midnightblue" points="962.73,-136.79 971.92,-131.52 961.45,-129.91 962.73,-136.79"/>
</g>
<!-- Node24 -->
<g id="node24" class="node">
<title>Node24</title>
<g id="a_node24"><a xlink:href="Stream_8h.html" target="_top" xlink:title="Wrapper for sdl stream including ability to store stream pointer. Use for single instance sounds like...">
<polygon fill="white" stroke="black" points="847,-112.5 847,-131.5 950,-131.5 950,-112.5 847,-112.5"/>
<text text-anchor="middle" x="898.5" y="-119.5" font-family="Helvetica,sans-Serif" font-size="10.00">../../assets/Stream.h</text>
</a>
</g>
</g>
<!-- Node21&#45;&gt;Node24 -->
<g id="edge38" class="edge">
<title>Node21&#45;&gt;Node24</title>
<path fill="none" stroke="midnightblue" d="M755.44,-168.44C784.16,-159.32 829.83,-144.81 861.82,-134.65"/>
<polygon fill="midnightblue" stroke="midnightblue" points="863.22,-137.88 871.69,-131.52 861.1,-131.21 863.22,-137.88"/>
</g>
<!-- Node22&#45;&gt;Node3 -->
<g id="edge37" class="edge">
<title>Node22&#45;&gt;Node3</title>
<path fill="none" stroke="midnightblue" d="M974.4,-112.44C919.14,-101.47 824.67,-82.72 776.19,-73.09"/>
<polygon fill="midnightblue" stroke="midnightblue" points="776.78,-69.64 766.29,-71.13 775.42,-76.51 776.78,-69.64"/>
</g>
<!-- Node23 -->
<g id="node23" class="node">
<title>Node23</title>
<g id="a_node23"><a xlink:title=" ">
<polygon fill="white" stroke="#bfbfbf" points="907.5,-56.5 907.5,-75.5 1007.5,-75.5 1007.5,-56.5 907.5,-56.5"/>
<text text-anchor="middle" x="957.5" y="-63.5" font-family="Helvetica,sans-Serif" font-size="10.00">SDL2/SDL_mixer.h</text>
</a>
</g>
</g>
<!-- Node22&#45;&gt;Node23 -->
<g id="edge36" class="edge">
<title>Node22&#45;&gt;Node23</title>
<path fill="none" stroke="midnightblue" d="M1007.86,-112.32C998.99,-104.34 985.63,-92.31 974.89,-82.65"/>
<polygon fill="midnightblue" stroke="midnightblue" points="977.09,-79.92 967.32,-75.83 972.41,-85.13 977.09,-79.92"/>
</g>
<!-- Node24&#45;&gt;Node3 -->
<g id="edge40" class="edge">
<title>Node24&#45;&gt;Node3</title>
<path fill="none" stroke="midnightblue" d="M874.26,-112.44C847.57,-103.03 804.64,-87.87 775.77,-77.68"/>
<polygon fill="midnightblue" stroke="midnightblue" points="776.79,-74.33 766.2,-74.3 774.46,-80.93 776.79,-74.33"/>
</g>
<!-- Node24&#45;&gt;Node23 -->
<g id="edge39" class="edge">
<title>Node24&#45;&gt;Node23</title>
<path fill="none" stroke="midnightblue" d="M907.98,-112.32C916.7,-104.34 929.84,-92.31 940.4,-82.65"/>
<polygon fill="midnightblue" stroke="midnightblue" points="942.83,-85.17 947.85,-75.83 938.11,-80 942.83,-85.17"/>
</g>
<!-- Node25&#45;&gt;Node3 -->
<g id="edge43" class="edge">
<title>Node25&#45;&gt;Node3</title>
<path fill="none" stroke="midnightblue" d="M1043.51,-168.42C1062.72,-155.62 1093.08,-130.99 1076.5,-112 1056.87,-89.52 854.85,-74.1 776.41,-68.92"/>
<polygon fill="midnightblue" stroke="midnightblue" points="776.39,-65.41 766.19,-68.26 775.94,-72.4 776.39,-65.41"/>
</g>
<!-- Node25&#45;&gt;Node22 -->
<g id="edge44" class="edge">
<title>Node25&#45;&gt;Node22</title>
<path fill="none" stroke="midnightblue" d="M1027.52,-168.08C1025.93,-160.93 1023.64,-150.64 1021.65,-141.69"/>
<polygon fill="midnightblue" stroke="midnightblue" points="1025.03,-140.75 1019.44,-131.75 1018.2,-142.27 1025.03,-140.75"/>
</g>
<!-- Node25&#45;&gt;Node24 -->
<g id="edge45" class="edge">
<title>Node25&#45;&gt;Node24</title>
<path fill="none" stroke="midnightblue" d="M1008.74,-168.44C987.18,-159.56 953.24,-145.56 928.71,-135.45"/>
<polygon fill="midnightblue" stroke="midnightblue" points="929.74,-132.09 919.16,-131.52 927.07,-138.56 929.74,-132.09"/>
</g>
<!-- Node26&#45;&gt;Node3 -->
<g id="edge49" class="edge">
<title>Node26&#45;&gt;Node3</title>
<path fill="none" stroke="midnightblue" d="M608.19,-168.37C633.65,-149.57 694.34,-104.77 725.81,-81.53"/>
<polygon fill="midnightblue" stroke="midnightblue" points="727.9,-84.35 733.86,-75.59 723.74,-78.72 727.9,-84.35"/>
</g>
<!-- Node26&#45;&gt;Node15 -->
<g id="edge47" class="edge">
<title>Node26&#45;&gt;Node15</title>
<path fill="none" stroke="midnightblue" d="M577.8,-168.44C558.33,-159.53 527.64,-145.49 505.53,-135.37"/>
<polygon fill="midnightblue" stroke="midnightblue" points="506.89,-132.14 496.34,-131.16 503.97,-138.51 506.89,-132.14"/>
</g>
<!-- Node27 -->
<g id="node27" class="node">
<title>Node27</title>
<g id="a_node27"><a xlink:title=" ">
<polygon fill="white" stroke="#bfbfbf" points="514.5,-112.5 514.5,-131.5 566.5,-131.5 566.5,-112.5 514.5,-112.5"/>
<text text-anchor="middle" x="540.5" y="-119.5" font-family="Helvetica,sans-Serif" font-size="10.00">sstream</text>
</a>
</g>
</g>
<!-- Node26&#45;&gt;Node27 -->
<g id="edge48" class="edge">
<title>Node26&#45;&gt;Node27</title>
<path fill="none" stroke="midnightblue" d="M587.5,-168.32C579.31,-160.42 566.99,-148.55 557.03,-138.94"/>
<polygon fill="midnightblue" stroke="midnightblue" points="559.29,-136.26 549.66,-131.83 554.43,-141.29 559.29,-136.26"/>
</g>
<!-- Node28&#45;&gt;Node3 -->
<g id="edge52" class="edge">
<title>Node28&#45;&gt;Node3</title>
<path fill="none" stroke="midnightblue" d="M1156.28,-168.48C1145.25,-154.09 1120.73,-125.24 1092.5,-112 1036.54,-85.75 850.29,-72.8 776.24,-68.59"/>
<polygon fill="midnightblue" stroke="midnightblue" points="776.34,-65.09 766.16,-68.03 775.95,-72.08 776.34,-65.09"/>
</g>
<!-- Node28&#45;&gt;Node5 -->
<g id="edge51" class="edge">
<title>Node28&#45;&gt;Node5</title>
<path fill="none" stroke="midnightblue" d="M1203.5,-168.48C1238.09,-160.37 1283.65,-147.16 1294.5,-132 1305.9,-116.07 1291.1,-96.16 1277.18,-82.61"/>
<polygon fill="midnightblue" stroke="midnightblue" points="1279.46,-79.94 1269.71,-75.79 1274.74,-85.12 1279.46,-79.94"/>
</g>
<!-- Node28&#45;&gt;Node6 -->
<g id="edge53" class="edge">
<title>Node28&#45;&gt;Node6</title>
<path fill="none" stroke="midnightblue" d="M1101.43,-169.04C1098.41,-168.68 1095.42,-168.33 1092.5,-168 930.53,-149.6 889.03,-153.93 727.5,-132 610.18,-116.07 473.37,-90.59 401.84,-76.74"/>
<polygon fill="midnightblue" stroke="midnightblue" points="402.25,-73.26 391.77,-74.78 400.91,-80.13 402.25,-73.26"/>
</g>
<!-- Node29 -->
<g id="node29" class="node">
<title>Node29</title>
<g id="a_node29"><a xlink:href="Service_8h.html" target="_top" xlink:title="Service subscriber that can listen for events.">
<polygon fill="white" stroke="black" points="1380,-112.5 1380,-131.5 1445,-131.5 1445,-112.5 1380,-112.5"/>
<text text-anchor="middle" x="1412.5" y="-119.5" font-family="Helvetica,sans-Serif" font-size="10.00">../Service.h</text>
</a>
</g>
</g>
<!-- Node28&#45;&gt;Node29 -->
<g id="edge54" class="edge">
<title>Node28&#45;&gt;Node29</title>
<path fill="none" stroke="midnightblue" d="M1202.11,-168.44C1247.91,-158.55 1322.98,-142.34 1369.98,-132.19"/>
<polygon fill="midnightblue" stroke="midnightblue" points="1370.81,-135.59 1379.84,-130.05 1369.33,-128.74 1370.81,-135.59"/>
</g>
<!-- Node29&#45;&gt;Node3 -->
<g id="edge56" class="edge">
<title>Node29&#45;&gt;Node3</title>
<path fill="none" stroke="midnightblue" d="M1379.88,-118.36C1266.1,-109.15 887.72,-78.51 776.5,-69.51"/>
<polygon fill="midnightblue" stroke="midnightblue" points="776.55,-66 766.3,-68.68 775.98,-72.98 776.55,-66"/>
</g>
<!-- Node30 -->
<g id="node30" class="node">
<title>Node30</title>
<g id="a_node30"><a xlink:title=" ">
<polygon fill="white" stroke="#bfbfbf" points="1599.5,-56.5 1599.5,-75.5 1705.5,-75.5 1705.5,-56.5 1599.5,-56.5"/>
<text text-anchor="middle" x="1652.5" y="-63.5" font-family="Helvetica,sans-Serif" font-size="10.00">SDL2/SDL_events.h</text>
</a>
</g>
</g>
<!-- Node29&#45;&gt;Node30 -->
<g id="edge55" class="edge">
<title>Node29&#45;&gt;Node30</title>
<path fill="none" stroke="midnightblue" d="M1445.12,-113.66C1486.19,-104.42 1557.1,-88.47 1604.4,-77.82"/>
<polygon fill="midnightblue" stroke="midnightblue" points="1605.42,-81.18 1614.41,-75.57 1603.88,-74.35 1605.42,-81.18"/>
</g>
<!-- Node31&#45;&gt;Node5 -->
<g id="edge58" class="edge">
<title>Node31&#45;&gt;Node5</title>
<path fill="none" stroke="midnightblue" d="M1467.65,-168.09C1468.91,-154.16 1469.11,-127.25 1454.5,-112 1434.17,-90.77 1355.77,-78 1304.5,-71.74"/>
<polygon fill="midnightblue" stroke="midnightblue" points="1304.66,-68.24 1294.32,-70.54 1303.84,-75.19 1304.66,-68.24"/>
</g>
<!-- Node31&#45;&gt;Node13 -->
<g id="edge59" class="edge">
<title>Node31&#45;&gt;Node13</title>
<path fill="none" stroke="midnightblue" d="M1473.39,-168.3C1482.6,-155.56 1496.73,-131.25 1487.5,-112 1481.25,-98.95 1469.16,-88.49 1457.82,-80.95"/>
<polygon fill="midnightblue" stroke="midnightblue" points="1459.35,-77.79 1449,-75.54 1455.69,-83.75 1459.35,-77.79"/>
</g>
<!-- Node31&#45;&gt;Node29 -->
<g id="edge60" class="edge">
<title>Node31&#45;&gt;Node29</title>
<path fill="none" stroke="midnightblue" d="M1457.58,-168.08C1449.72,-160.22 1438.07,-148.57 1428.58,-139.08"/>
<polygon fill="midnightblue" stroke="midnightblue" points="1430.8,-136.35 1421.25,-131.75 1425.85,-141.3 1430.8,-136.35"/>
</g>
<!-- Node32&#45;&gt;Node3 -->
<g id="edge64" class="edge">
<title>Node32&#45;&gt;Node3</title>
<path fill="none" stroke="midnightblue" d="M1647.32,-168.43C1608.78,-153.97 1526.65,-125.02 1454.5,-112 1437.55,-108.94 910.03,-76.94 776.15,-68.85"/>
<polygon fill="midnightblue" stroke="midnightblue" points="776.35,-65.36 766.16,-68.25 775.93,-72.34 776.35,-65.36"/>
</g>
<!-- Node32&#45;&gt;Node29 -->
<g id="edge65" class="edge">
<title>Node32&#45;&gt;Node29</title>
<path fill="none" stroke="midnightblue" d="M1628.78,-168.44C1581.34,-158.48 1503.33,-142.09 1455.1,-131.95"/>
<polygon fill="midnightblue" stroke="midnightblue" points="1455.79,-128.52 1445.28,-129.89 1454.35,-135.37 1455.79,-128.52"/>
</g>
<!-- Node32&#45;&gt;Node30 -->
<g id="edge62" class="edge">
<title>Node32&#45;&gt;Node30</title>
<path fill="none" stroke="midnightblue" d="M1672.81,-168.45C1677.2,-155.9 1683.81,-131.81 1678.5,-112 1675.85,-102.1 1670.43,-92.13 1665.23,-84.1"/>
<polygon fill="midnightblue" stroke="midnightblue" points="1667.96,-81.91 1659.39,-75.68 1662.21,-85.89 1667.96,-81.91"/>
</g>
<!-- Node33 -->
<g id="node33" class="node">
<title>Node33</title>
<g id="a_node33"><a xlink:title=" ">
<polygon fill="white" stroke="#bfbfbf" points="1615.5,-112.5 1615.5,-131.5 1669.5,-131.5 1669.5,-112.5 1615.5,-112.5"/>
<text text-anchor="middle" x="1642.5" y="-119.5" font-family="Helvetica,sans-Serif" font-size="10.00">iostream</text>
</a>
</g>
</g>
<!-- Node32&#45;&gt;Node33 -->
<g id="edge63" class="edge">
<title>Node32&#45;&gt;Node33</title>
<path fill="none" stroke="midnightblue" d="M1665.04,-168.08C1661.35,-160.69 1655.98,-149.95 1651.41,-140.81"/>
<polygon fill="midnightblue" stroke="midnightblue" points="1654.48,-139.13 1646.88,-131.75 1648.22,-142.26 1654.48,-139.13"/>
</g>
<!-- Node34 -->
<g id="node34" class="node">
<title>Node34</title>
<g id="a_node34"><a xlink:href="JoystickState_8h.html" target="_top" xlink:title="Container for storing Joystick state.">
<polygon fill="white" stroke="black" points="1726,-112.5 1726,-131.5 1809,-131.5 1809,-112.5 1726,-112.5"/>
<text text-anchor="middle" x="1767.5" y="-119.5" font-family="Helvetica,sans-Serif" font-size="10.00">JoystickState.h</text>
</a>
</g>
</g>
<!-- Node32&#45;&gt;Node34 -->
<g id="edge66" class="edge">
<title>Node32&#45;&gt;Node34</title>
<path fill="none" stroke="midnightblue" d="M1685.25,-168.32C1700.82,-159.74 1724.88,-146.49 1742.96,-136.52"/>
<polygon fill="midnightblue" stroke="midnightblue" points="1744.72,-139.55 1751.79,-131.65 1741.35,-133.42 1744.72,-139.55"/>
</g>
<!-- Node36 -->
<g id="node36" class="node">
<title>Node36</title>
<g id="a_node36"><a xlink:href="KeyboardState_8h.html" target="_top" xlink:title="Container for storing Keyboard state.">
<polygon fill="white" stroke="black" points="1937.5,-112.5 1937.5,-131.5 2025.5,-131.5 2025.5,-112.5 1937.5,-112.5"/>
<text text-anchor="middle" x="1981.5" y="-119.5" font-family="Helvetica,sans-Serif" font-size="10.00">KeyboardState.h</text>
</a>
</g>
</g>
<!-- Node32&#45;&gt;Node36 -->
<g id="edge69" class="edge">
<title>Node32&#45;&gt;Node36</title>
<path fill="none" stroke="midnightblue" d="M1718.94,-168.44C1775.67,-158.62 1868.42,-142.57 1927.14,-132.41"/>
<polygon fill="midnightblue" stroke="midnightblue" points="1928.08,-135.8 1937.34,-130.64 1926.89,-128.9 1928.08,-135.8"/>
</g>
<!-- Node38 -->
<g id="node38" class="node">
<title>Node38</title>
<g id="a_node38"><a xlink:href="MouseState_8h.html" target="_top" xlink:title="Container for storing Mouse state.">
<polygon fill="white" stroke="black" points="1827,-112.5 1827,-131.5 1904,-131.5 1904,-112.5 1827,-112.5"/>
<text text-anchor="middle" x="1865.5" y="-119.5" font-family="Helvetica,sans-Serif" font-size="10.00">MouseState.h</text>
</a>
</g>
</g>
<!-- Node32&#45;&gt;Node38 -->
<g id="edge71" class="edge">
<title>Node32&#45;&gt;Node38</title>
<path fill="none" stroke="midnightblue" d="M1700.56,-168.44C1734.1,-159.2 1787.7,-144.44 1824.64,-134.26"/>
<polygon fill="midnightblue" stroke="midnightblue" points="1825.88,-137.55 1834.59,-131.52 1824.02,-130.8 1825.88,-137.55"/>
</g>
<!-- Node34&#45;&gt;Node30 -->
<g id="edge67" class="edge">
<title>Node34&#45;&gt;Node30</title>
<path fill="none" stroke="midnightblue" d="M1749.28,-112.44C1730.6,-103.68 1701.34,-89.94 1679.88,-79.86"/>
<polygon fill="midnightblue" stroke="midnightblue" points="1681.18,-76.6 1670.64,-75.52 1678.2,-82.93 1681.18,-76.6"/>
</g>
<!-- Node35 -->
<g id="node35" class="node">
<title>Node35</title>
<g id="a_node35"><a xlink:href="JoystickCodes_8h.html" target="_top" xlink:title="Defines for codes used for joystick.">
<polygon fill="white" stroke="black" points="1723.5,-56.5 1723.5,-75.5 1811.5,-75.5 1811.5,-56.5 1723.5,-56.5"/>
<text text-anchor="middle" x="1767.5" y="-63.5" font-family="Helvetica,sans-Serif" font-size="10.00">JoystickCodes.h</text>
</a>
</g>
</g>
<!-- Node34&#45;&gt;Node35 -->
<g id="edge68" class="edge">
<title>Node34&#45;&gt;Node35</title>
<path fill="none" stroke="midnightblue" d="M1767.5,-112.08C1767.5,-105.01 1767.5,-94.86 1767.5,-85.99"/>
<polygon fill="midnightblue" stroke="midnightblue" points="1771,-85.75 1767.5,-75.75 1764,-85.75 1771,-85.75"/>
</g>
<!-- Node37 -->
<g id="node37" class="node">
<title>Node37</title>
<g id="a_node37"><a xlink:href="KeyboardKeys_8h.html" target="_top" xlink:title="Defenitions of keys that can be used by input manager.">
<polygon fill="white" stroke="black" points="1953.5,-56.5 1953.5,-75.5 2039.5,-75.5 2039.5,-56.5 1953.5,-56.5"/>
<text text-anchor="middle" x="1996.5" y="-63.5" font-family="Helvetica,sans-Serif" font-size="10.00">KeyboardKeys.h</text>
</a>
</g>
</g>
<!-- Node36&#45;&gt;Node37 -->
<g id="edge70" class="edge">
<title>Node36&#45;&gt;Node37</title>
<path fill="none" stroke="midnightblue" d="M1983.98,-112.08C1985.99,-104.85 1988.89,-94.41 1991.39,-85.4"/>
<polygon fill="midnightblue" stroke="midnightblue" points="1994.76,-86.32 1994.07,-75.75 1988.02,-84.45 1994.76,-86.32"/>
</g>
<!-- Node38&#45;&gt;Node30 -->
<g id="edge72" class="edge">
<title>Node38&#45;&gt;Node30</title>
<path fill="none" stroke="midnightblue" d="M1831.75,-112.44C1794.98,-103.12 1736.05,-88.18 1695.88,-78"/>
<polygon fill="midnightblue" stroke="midnightblue" points="1696.65,-74.58 1686.09,-75.52 1694.93,-81.37 1696.65,-74.58"/>
</g>
<!-- Node39 -->
<g id="node39" class="node">
<title>Node39</title>
<g id="a_node39"><a xlink:title=" ">
<polygon fill="white" stroke="#bfbfbf" points="1829.5,-56.5 1829.5,-75.5 1935.5,-75.5 1935.5,-56.5 1829.5,-56.5"/>
<text text-anchor="middle" x="1882.5" y="-63.5" font-family="Helvetica,sans-Serif" font-size="10.00">SDL2/SDL_mouse.h</text>
</a>
</g>
</g>
<!-- Node38&#45;&gt;Node39 -->
<g id="edge73" class="edge">
<title>Node38&#45;&gt;Node39</title>
<path fill="none" stroke="midnightblue" d="M1868.31,-112.08C1870.58,-104.85 1873.87,-94.41 1876.71,-85.4"/>
<polygon fill="midnightblue" stroke="midnightblue" points="1880.08,-86.34 1879.75,-75.75 1873.4,-84.24 1880.08,-86.34"/>
</g>
<!-- Node40&#45;&gt;Node3 -->
<g id="edge75" class="edge">
<title>Node40&#45;&gt;Node3</title>
<path fill="none" stroke="midnightblue" d="M828.34,-168.49C788.99,-160.88 739.77,-148.4 727.5,-132 717.13,-118.14 724.74,-98.6 733.03,-84.57"/>
<polygon fill="midnightblue" stroke="midnightblue" points="736.16,-86.17 738.66,-75.88 730.28,-82.37 736.16,-86.17"/>
</g>
<!-- Node41 -->
<g id="node41" class="node">
<title>Node41</title>
<g id="a_node41"><a xlink:href="LoggingService_8h.html" target="_top" xlink:title="Default logging service. Does nothing. Use in production.">
<polygon fill="white" stroke="black" points="736.5,-112.5 736.5,-131.5 828.5,-131.5 828.5,-112.5 736.5,-112.5"/>
<text text-anchor="middle" x="782.5" y="-119.5" font-family="Helvetica,sans-Serif" font-size="10.00">LoggingService.h</text>
</a>
</g>
</g>
<!-- Node40&#45;&gt;Node41 -->
<g id="edge76" class="edge">
<title>Node40&#45;&gt;Node41</title>
<path fill="none" stroke="midnightblue" d="M864.75,-168.32C849.18,-159.74 825.12,-146.49 807.04,-136.52"/>
<polygon fill="midnightblue" stroke="midnightblue" points="808.65,-133.42 798.21,-131.65 805.28,-139.55 808.65,-133.42"/>
</g>
<!-- Node41&#45;&gt;Node3 -->
<g id="edge77" class="edge">
<title>Node41&#45;&gt;Node3</title>
<path fill="none" stroke="midnightblue" d="M776.39,-112.08C771.22,-104.53 763.65,-93.49 757.31,-84.23"/>
<polygon fill="midnightblue" stroke="midnightblue" points="760.04,-82.02 751.5,-75.75 754.26,-85.98 760.04,-82.02"/>
</g>
<!-- Node42&#45;&gt;Node3 -->
<g id="edge79" class="edge">
<title>Node42&#45;&gt;Node3</title>
<path fill="none" stroke="midnightblue" d="M1279.72,-168.5C1247.73,-154.4 1180.33,-126.31 1120.5,-112 995.11,-82.01 841.11,-71.54 776.42,-68.3"/>
<polygon fill="midnightblue" stroke="midnightblue" points="776.27,-64.79 766.12,-67.81 775.94,-71.78 776.27,-64.79"/>
</g>
<!-- Node42&#45;&gt;Node13 -->
<g id="edge80" class="edge">
<title>Node42&#45;&gt;Node13</title>
<path fill="none" stroke="midnightblue" d="M1307.73,-168.33C1321.37,-155.62 1347.85,-131.34 1371.5,-112 1384.35,-101.49 1399.28,-90.29 1411.04,-81.69"/>
<polygon fill="midnightblue" stroke="midnightblue" points="1413.28,-84.38 1419.32,-75.67 1409.17,-78.72 1413.28,-84.38"/>
</g>
<!-- Node42&#45;&gt;Node29 -->
<g id="edge81" class="edge">
<title>Node42&#45;&gt;Node29</title>
<path fill="none" stroke="midnightblue" d="M1316.56,-168.44C1335.07,-159.68 1364.08,-145.94 1385.36,-135.86"/>
<polygon fill="midnightblue" stroke="midnightblue" points="1386.98,-138.96 1394.52,-131.52 1383.99,-132.63 1386.98,-138.96"/>
</g>
</g>
</svg>
