<?xml version="1.0" encoding="UTF-8" standalone="no"?>
<!DOCTYPE svg PUBLIC "-//W3C//DTD SVG 1.1//EN"
 "http://www.w3.org/Graphics/SVG/1.1/DTD/svg11.dtd">
<!-- Generated by graphviz version 2.46.1 (20210215.1649)
 -->
<!-- Title: Graphical Class Hierarchy Pages: 1 -->
<svg width="344pt" height="227pt"
 viewBox="0.00 0.00 344.00 227.00" xmlns="http://www.w3.org/2000/svg" xmlns:xlink="http://www.w3.org/1999/xlink">
<g id="graph0" class="graph" transform="scale(1 1) rotate(0) translate(4 223)">
<title>Graphical Class Hierarchy</title>
<polygon fill="white" stroke="transparent" points="-4,4 -4,-223 340,-223 340,4 -4,4"/>
<!-- Node0 -->
<g id="node1" class="node">
<title>Node0</title>
<g id="a_node1"><a xlink:href="classafk_1_1GameObject.html" target="_top" xlink:title="A collidable object! Parent class for many others.">
<polygon fill="white" stroke="black" points="0,-161.5 0,-180.5 89,-180.5 89,-161.5 0,-161.5"/>
<text text-anchor="middle" x="44.5" y="-168.5" font-family="Helvetica,sans-Serif" font-size="10.00">afk::GameObject</text>
</a>
</g>
</g>
<!-- Node1 -->
<g id="node2" class="node">
<title>Node1</title>
<g id="a_node2"><a xlink:href="classafk_1_1ParticleEmitter.html" target="_top" xlink:title="Particle Emitter.">
<polygon fill="white" stroke="black" points="125,-199.5 125,-218.5 223,-218.5 223,-199.5 125,-199.5"/>
<text text-anchor="middle" x="174" y="-206.5" font-family="Helvetica,sans-Serif" font-size="10.00">afk::ParticleEmitter</text>
</a>
</g>
</g>
<!-- Node0&#45;&gt;Node1 -->
<g id="edge1" class="edge">
<title>Node0&#45;&gt;Node1</title>
<path fill="none" stroke="midnightblue" d="M87.56,-183.54C104.9,-188.7 124.68,-194.6 140.84,-199.41"/>
<polygon fill="midnightblue" stroke="midnightblue" points="88.26,-180.09 77.67,-180.59 86.26,-186.8 88.26,-180.09"/>
</g>
<!-- Node2 -->
<g id="node3" class="node">
<title>Node2</title>
<g id="a_node3"><a xlink:href="classafk_1_1Sprite.html" target="_top" xlink:title="A simple texturable game object.">
<polygon fill="white" stroke="black" points="144,-161.5 144,-180.5 204,-180.5 204,-161.5 144,-161.5"/>
<text text-anchor="middle" x="174" y="-168.5" font-family="Helvetica,sans-Serif" font-size="10.00">afk::Sprite</text>
</a>
</g>
</g>
<!-- Node0&#45;&gt;Node2 -->
<g id="edge2" class="edge">
<title>Node0&#45;&gt;Node2</title>
<path fill="none" stroke="midnightblue" d="M99.38,-171C114.57,-171 130.54,-171 143.7,-171"/>
<polygon fill="midnightblue" stroke="midnightblue" points="99.02,-167.5 89.02,-171 99.02,-174.5 99.02,-167.5"/>
</g>
<!-- Node4 -->
<g id="node5" class="node">
<title>Node4</title>
<g id="a_node5"><a xlink:href="classafk_1_1UIElement.html" target="_top" xlink:title="Parent class for other UI elements such as buttons and labels.">
<polygon fill="white" stroke="black" points="134,-95.5 134,-114.5 214,-114.5 214,-95.5 134,-95.5"/>
<text text-anchor="middle" x="174" y="-102.5" font-family="Helvetica,sans-Serif" font-size="10.00">afk::UIElement</text>
</a>
</g>
</g>
<!-- Node0&#45;&gt;Node4 -->
<g id="edge4" class="edge">
<title>Node0&#45;&gt;Node4</title>
<path fill="none" stroke="midnightblue" d="M73.22,-156.65C97.82,-143.92 133.09,-125.66 154.44,-114.61"/>
<polygon fill="midnightblue" stroke="midnightblue" points="71.31,-153.7 64.04,-161.4 74.53,-159.91 71.31,-153.7"/>
</g>
<!-- Node3 -->
<g id="node4" class="node">
<title>Node3</title>
<g id="a_node4"><a xlink:href="classafk_1_1Particle.html" target="_top" xlink:title="Represents a single Particle.">
<polygon fill="white" stroke="black" points="263.5,-190.5 263.5,-209.5 331.5,-209.5 331.5,-190.5 263.5,-190.5"/>
<text text-anchor="middle" x="297.5" y="-197.5" font-family="Helvetica,sans-Serif" font-size="10.00">afk::Particle</text>
</a>
</g>
</g>
<!-- Node2&#45;&gt;Node3 -->
<g id="edge3" class="edge">
<title>Node2&#45;&gt;Node3</title>
<path fill="none" stroke="midnightblue" d="M214.15,-180.34C230.02,-184.13 248.14,-188.46 263.34,-192.09"/>
<polygon fill="midnightblue" stroke="midnightblue" points="214.64,-176.86 204.1,-177.95 213.02,-183.67 214.64,-176.86"/>
</g>
<!-- Node5 -->
<g id="node6" class="node">
<title>Node5</title>
<g id="a_node6"><a xlink:href="classafk_1_1Button.html" target="_top" xlink:title="Implementation of clickable UI Button.">
<polygon fill="white" stroke="black" points="266,-152.5 266,-171.5 329,-171.5 329,-152.5 266,-152.5"/>
<text text-anchor="middle" x="297.5" y="-159.5" font-family="Helvetica,sans-Serif" font-size="10.00">afk::Button</text>
</a>
</g>
</g>
<!-- Node4&#45;&gt;Node5 -->
<g id="edge5" class="edge">
<title>Node4&#45;&gt;Node5</title>
<path fill="none" stroke="midnightblue" d="M204.62,-118.9C226.79,-129.3 256.54,-143.25 276.1,-152.43"/>
<polygon fill="midnightblue" stroke="midnightblue" points="205.88,-115.62 195.34,-114.54 202.9,-121.96 205.88,-115.62"/>
</g>
<!-- Node6 -->
<g id="node7" class="node">
<title>Node6</title>
<g id="a_node7"><a xlink:href="classafk_1_1Checkbox.html" target="_top" xlink:title="Implementation of clickable UI Button.">
<polygon fill="white" stroke="black" points="259,-114.5 259,-133.5 336,-133.5 336,-114.5 259,-114.5"/>
<text text-anchor="middle" x="297.5" y="-121.5" font-family="Helvetica,sans-Serif" font-size="10.00">afk::Checkbox</text>
</a>
</g>
</g>
<!-- Node4&#45;&gt;Node6 -->
<g id="edge6" class="edge">
<title>Node4&#45;&gt;Node6</title>
<path fill="none" stroke="midnightblue" d="M224.06,-112.67C235.61,-114.48 247.74,-116.38 258.7,-118.09"/>
<polygon fill="midnightblue" stroke="midnightblue" points="224.53,-109.2 214.11,-111.12 223.45,-116.12 224.53,-109.2"/>
</g>
<!-- Node7 -->
<g id="node8" class="node">
<title>Node7</title>
<g id="a_node8"><a xlink:href="classafk_1_1Image.html" target="_top" xlink:title="A simple texturable game object.">
<polygon fill="white" stroke="black" points="266.5,-76.5 266.5,-95.5 328.5,-95.5 328.5,-76.5 266.5,-76.5"/>
<text text-anchor="middle" x="297.5" y="-83.5" font-family="Helvetica,sans-Serif" font-size="10.00">afk::Image</text>
</a>
</g>
</g>
<!-- Node4&#45;&gt;Node7 -->
<g id="edge7" class="edge">
<title>Node4&#45;&gt;Node7</title>
<path fill="none" stroke="midnightblue" d="M224.28,-97.29C238.52,-95.07 253.63,-92.7 266.32,-90.72"/>
<polygon fill="midnightblue" stroke="midnightblue" points="223.45,-93.88 214.11,-98.88 224.53,-100.8 223.45,-93.88"/>
</g>
<!-- Node8 -->
<g id="node9" class="node">
<title>Node8</title>
<g id="a_node9"><a xlink:href="classafk_1_1Inputbox.html" target="_top" xlink:title="Implementation of clickable UI Button.">
<polygon fill="white" stroke="black" points="262,-38.5 262,-57.5 333,-57.5 333,-38.5 262,-38.5"/>
<text text-anchor="middle" x="297.5" y="-45.5" font-family="Helvetica,sans-Serif" font-size="10.00">afk::Inputbox</text>
</a>
</g>
</g>
<!-- Node4&#45;&gt;Node8 -->
<g id="edge8" class="edge">
<title>Node4&#45;&gt;Node8</title>
<path fill="none" stroke="midnightblue" d="M204.62,-91.1C226.79,-80.7 256.54,-66.75 276.1,-57.57"/>
<polygon fill="midnightblue" stroke="midnightblue" points="202.9,-88.04 195.34,-95.46 205.88,-94.38 202.9,-88.04"/>
</g>
<!-- Node9 -->
<g id="node10" class="node">
<title>Node9</title>
<g id="a_node10"><a xlink:href="classafk_1_1Label.html" target="_top" xlink:title="Implementation of Label class.">
<polygon fill="white" stroke="black" points="268,-0.5 268,-19.5 327,-19.5 327,-0.5 268,-0.5"/>
<text text-anchor="middle" x="297.5" y="-7.5" font-family="Helvetica,sans-Serif" font-size="10.00">afk::Label</text>
</a>
</g>
</g>
<!-- Node4&#45;&gt;Node9 -->
<g id="edge9" class="edge">
<title>Node4&#45;&gt;Node9</title>
<path fill="none" stroke="midnightblue" d="M191.21,-87.89C207.36,-71.47 233.37,-46.62 259,-29 264.05,-25.53 269.83,-22.29 275.3,-19.5"/>
<polygon fill="midnightblue" stroke="midnightblue" points="188.56,-85.59 184.12,-95.21 193.59,-90.46 188.56,-85.59"/>
</g>
</g>
</svg>
