<?xml version="1.0" encoding="UTF-8" standalone="no"?>
<!DOCTYPE svg PUBLIC "-//W3C//DTD SVG 1.1//EN"
 "http://www.w3.org/Graphics/SVG/1.1/DTD/svg11.dtd">
<!-- Generated by graphviz version 2.46.1 (20210215.1649)
 -->
<!-- Title: Graphical Class Hierarchy Pages: 1 -->
<svg width="298pt" height="256pt"
 viewBox="0.00 0.00 298.00 256.00" xmlns="http://www.w3.org/2000/svg" xmlns:xlink="http://www.w3.org/1999/xlink">
<g id="graph0" class="graph" transform="scale(1 1) rotate(0) translate(4 252)">
<title>Graphical Class Hierarchy</title>
<polygon fill="white" stroke="transparent" points="-4,4 -4,-252 294,-252 294,4 -4,4"/>
<!-- Node25 -->
<g id="node1" class="node">
<title>Node25</title>
<g id="a_node1"><a xlink:title=" ">
<polygon fill="white" stroke="#bfbfbf" points="0,-114.5 0,-133.5 92,-133.5 92,-114.5 0,-114.5"/>
<text text-anchor="middle" x="46" y="-121.5" font-family="Helvetica,sans-Serif" font-size="10.00">std::runtime_error</text>
</a>
</g>
</g>
<!-- Node0 -->
<g id="node2" class="node">
<title>Node0</title>
<g id="a_node2"><a xlink:href="classafk_1_1AssertionFailedException.html" target="_top" xlink:title="Exception raised when an assertian fails.">
<polygon fill="white" stroke="black" points="137,-228.5 137,-247.5 281,-247.5 281,-228.5 137,-228.5"/>
<text text-anchor="middle" x="209" y="-235.5" font-family="Helvetica,sans-Serif" font-size="10.00">afk::AssertionFailedException</text>
</a>
</g>
</g>
<!-- Node25&#45;&gt;Node0 -->
<g id="edge1" class="edge">
<title>Node25&#45;&gt;Node0</title>
<path fill="none" stroke="midnightblue" d="M57.47,-142.17C70.94,-163.88 96.43,-199.69 128,-219 134.33,-222.87 141.39,-225.96 148.62,-228.41"/>
<polygon fill="midnightblue" stroke="midnightblue" points="60.44,-140.33 52.29,-133.56 54.44,-143.93 60.44,-140.33"/>
</g>
<!-- Node27 -->
<g id="node3" class="node">
<title>Node27</title>
<g id="a_node3"><a xlink:href="classafk_1_1CoreServiceLookupException.html" target="_top" xlink:title="Exception raised when a core service can not be found.">
<polygon fill="white" stroke="black" points="128,-190.5 128,-209.5 290,-209.5 290,-190.5 128,-190.5"/>
<text text-anchor="middle" x="209" y="-197.5" font-family="Helvetica,sans-Serif" font-size="10.00">afk::CoreServiceLookupException</text>
</a>
</g>
</g>
<!-- Node25&#45;&gt;Node27 -->
<g id="edge2" class="edge">
<title>Node25&#45;&gt;Node27</title>
<path fill="none" stroke="midnightblue" d="M65.54,-140.16C81.19,-153.01 104.72,-170.51 128,-181 136.46,-184.81 145.78,-187.91 154.98,-190.42"/>
<polygon fill="midnightblue" stroke="midnightblue" points="67.61,-137.33 57.7,-133.58 63.11,-142.69 67.61,-137.33"/>
</g>
<!-- Node28 -->
<g id="node4" class="node">
<title>Node28</title>
<g id="a_node4"><a xlink:href="classafk_1_1FileIOException.html" target="_top" xlink:title="Exception raised when a file is not found.">
<polygon fill="white" stroke="black" points="157.5,-152.5 157.5,-171.5 260.5,-171.5 260.5,-152.5 157.5,-152.5"/>
<text text-anchor="middle" x="209" y="-159.5" font-family="Helvetica,sans-Serif" font-size="10.00">afk::FileIOException</text>
</a>
</g>
</g>
<!-- Node25&#45;&gt;Node28 -->
<g id="edge3" class="edge">
<title>Node25&#45;&gt;Node28</title>
<path fill="none" stroke="midnightblue" d="M97.4,-135.9C120.03,-141.24 146.37,-147.45 167.67,-152.48"/>
<polygon fill="midnightblue" stroke="midnightblue" points="98.16,-132.48 87.63,-133.59 96.56,-139.29 98.16,-132.48"/>
</g>
<!-- Node29 -->
<g id="node5" class="node">
<title>Node29</title>
<g id="a_node5"><a xlink:href="classafk_1_1InitException.html" target="_top" xlink:title="Exception raised when a core feature can not load.">
<polygon fill="white" stroke="black" points="164,-114.5 164,-133.5 254,-133.5 254,-114.5 164,-114.5"/>
<text text-anchor="middle" x="209" y="-121.5" font-family="Helvetica,sans-Serif" font-size="10.00">afk::InitException</text>
</a>
</g>
</g>
<!-- Node25&#45;&gt;Node29 -->
<g id="edge4" class="edge">
<title>Node25&#45;&gt;Node29</title>
<path fill="none" stroke="midnightblue" d="M102.53,-124C122.59,-124 144.95,-124 163.9,-124"/>
<polygon fill="midnightblue" stroke="midnightblue" points="102.28,-120.5 92.28,-124 102.28,-127.5 102.28,-120.5"/>
</g>
<!-- Node30 -->
<g id="node6" class="node">
<title>Node30</title>
<g id="a_node6"><a xlink:href="classafk_1_1InvalidParameterException.html" target="_top" xlink:title="Exception raised when a core service can not be found.">
<polygon fill="white" stroke="black" points="134,-76.5 134,-95.5 284,-95.5 284,-76.5 134,-76.5"/>
<text text-anchor="middle" x="209" y="-83.5" font-family="Helvetica,sans-Serif" font-size="10.00">afk::InvalidParameterException</text>
</a>
</g>
</g>
<!-- Node25&#45;&gt;Node30 -->
<g id="edge5" class="edge">
<title>Node25&#45;&gt;Node30</title>
<path fill="none" stroke="midnightblue" d="M97.4,-112.1C120.03,-106.76 146.37,-100.55 167.67,-95.52"/>
<polygon fill="midnightblue" stroke="midnightblue" points="96.56,-108.71 87.63,-114.41 98.16,-115.52 96.56,-108.71"/>
</g>
<!-- Node31 -->
<g id="node7" class="node">
<title>Node31</title>
<g id="a_node7"><a xlink:href="classafk_1_1KeyLookupException.html" target="_top" xlink:title="Exception raised when an item can not be found by key.">
<polygon fill="white" stroke="black" points="146.5,-38.5 146.5,-57.5 271.5,-57.5 271.5,-38.5 146.5,-38.5"/>
<text text-anchor="middle" x="209" y="-45.5" font-family="Helvetica,sans-Serif" font-size="10.00">afk::KeyLookupException</text>
</a>
</g>
</g>
<!-- Node25&#45;&gt;Node31 -->
<g id="edge6" class="edge">
<title>Node25&#45;&gt;Node31</title>
<path fill="none" stroke="midnightblue" d="M65.54,-107.84C81.19,-94.99 104.72,-77.49 128,-67 136.46,-63.19 145.78,-60.09 154.98,-57.58"/>
<polygon fill="midnightblue" stroke="midnightblue" points="63.11,-105.31 57.7,-114.42 67.61,-110.67 63.11,-105.31"/>
</g>
<!-- Node32 -->
<g id="node8" class="node">
<title>Node32</title>
<g id="a_node8"><a xlink:href="classafk_1_1SceneLookupException.html" target="_top" xlink:title="Exception raised when a scene can not be found.">
<polygon fill="white" stroke="black" points="140.5,-0.5 140.5,-19.5 277.5,-19.5 277.5,-0.5 140.5,-0.5"/>
<text text-anchor="middle" x="209" y="-7.5" font-family="Helvetica,sans-Serif" font-size="10.00">afk::SceneLookupException</text>
</a>
</g>
</g>
<!-- Node25&#45;&gt;Node32 -->
<g id="edge7" class="edge">
<title>Node25&#45;&gt;Node32</title>
<path fill="none" stroke="midnightblue" d="M57.47,-105.83C70.94,-84.12 96.43,-48.31 128,-29 134.33,-25.13 141.39,-22.04 148.62,-19.59"/>
<polygon fill="midnightblue" stroke="midnightblue" points="54.44,-104.07 52.29,-114.44 60.44,-107.67 54.44,-104.07"/>
</g>
</g>
</svg>
