<?xml version="1.0" encoding="UTF-8" standalone="no"?>
<!DOCTYPE svg PUBLIC "-//W3C//DTD SVG 1.1//EN"
 "http://www.w3.org/Graphics/SVG/1.1/DTD/svg11.dtd">
<!-- Generated by graphviz version 2.46.1 (20210215.1649)
 -->
<!-- Title: src/services/input/InputService.cpp Pages: 1 -->
<svg width="1671pt" height="319pt"
 viewBox="0.00 0.00 1670.50 319.00" xmlns="http://www.w3.org/2000/svg" xmlns:xlink="http://www.w3.org/1999/xlink">
<g id="graph0" class="graph" transform="scale(1 1) rotate(0) translate(4 315)">
<title>src/services/input/InputService.cpp</title>
<polygon fill="white" stroke="transparent" points="-4,4 -4,-315 1666.5,-315 1666.5,4 -4,4"/>
<!-- Node1 -->
<g id="node1" class="node">
<title>Node1</title>
<g id="a_node1"><a xlink:title="Implementation of InputService. Handles mouse, keyboard and joystick.">
<polygon fill="#bfbfbf" stroke="black" points="575,-280.5 575,-310.5 669,-310.5 669,-280.5 575,-280.5"/>
<text text-anchor="start" x="583" y="-298.5" font-family="Helvetica,sans-Serif" font-size="10.00">src/services/input</text>
<text text-anchor="middle" x="622" y="-287.5" font-family="Helvetica,sans-Serif" font-size="10.00">/InputService.cpp</text>
</a>
</g>
</g>
<!-- Node2 -->
<g id="node2" class="node">
<title>Node2</title>
<g id="a_node2"><a xlink:href="InputService_8h.html" target="_top" xlink:title="General Purpose input listener. Handles Mouse, Keyboard, Joystick.">
<polygon fill="white" stroke="black" points="238.5,-168.5 238.5,-187.5 381.5,-187.5 381.5,-168.5 238.5,-168.5"/>
<text text-anchor="middle" x="310" y="-175.5" font-family="Helvetica,sans-Serif" font-size="10.00">services/input/InputService.h</text>
</a>
</g>
</g>
<!-- Node1&#45;&gt;Node2 -->
<g id="edge1" class="edge">
<title>Node1&#45;&gt;Node2</title>
<path fill="none" stroke="midnightblue" d="M584.05,-280.45C522.19,-257.55 400.66,-212.56 342.51,-191.03"/>
<polygon fill="midnightblue" stroke="midnightblue" points="343.67,-187.73 333.08,-187.54 341.24,-194.3 343.67,-187.73"/>
</g>
<!-- Node13 -->
<g id="node13" class="node">
<title>Node13</title>
<g id="a_node13"><a xlink:href="Exceptions_8h.html" target="_top" xlink:title="Interally used exceptions. These can be handled properly in the main game class.">
<polygon fill="white" stroke="black" points="566,-224.5 566,-243.5 678,-243.5 678,-224.5 566,-224.5"/>
<text text-anchor="middle" x="622" y="-231.5" font-family="Helvetica,sans-Serif" font-size="10.00">common/Exceptions.h</text>
</a>
</g>
</g>
<!-- Node1&#45;&gt;Node13 -->
<g id="edge16" class="edge">
<title>Node1&#45;&gt;Node13</title>
<path fill="none" stroke="midnightblue" d="M622,-280.4C622,-272.47 622,-262.46 622,-253.86"/>
<polygon fill="midnightblue" stroke="midnightblue" points="625.5,-253.66 622,-243.66 618.5,-253.66 625.5,-253.66"/>
</g>
<!-- Node15 -->
<g id="node15" class="node">
<title>Node15</title>
<g id="a_node15"><a xlink:href="Services_8h.html" target="_top" xlink:title="Implementation of core Services class.">
<polygon fill="white" stroke="black" points="756,-224.5 756,-243.5 858,-243.5 858,-224.5 756,-224.5"/>
<text text-anchor="middle" x="807" y="-231.5" font-family="Helvetica,sans-Serif" font-size="10.00">services/Services.h</text>
</a>
</g>
</g>
<!-- Node1&#45;&gt;Node15 -->
<g id="edge19" class="edge">
<title>Node1&#45;&gt;Node15</title>
<path fill="none" stroke="midnightblue" d="M665.84,-280.4C697.81,-270.12 740.62,-256.35 770.68,-246.68"/>
<polygon fill="midnightblue" stroke="midnightblue" points="771.9,-249.96 780.35,-243.57 769.76,-243.3 771.9,-249.96"/>
</g>
<!-- Node3 -->
<g id="node3" class="node">
<title>Node3</title>
<g id="a_node3"><a xlink:title=" ">
<polygon fill="white" stroke="#bfbfbf" points="389,-56.5 389,-75.5 495,-75.5 495,-56.5 389,-56.5"/>
<text text-anchor="middle" x="442" y="-63.5" font-family="Helvetica,sans-Serif" font-size="10.00">SDL2/SDL_events.h</text>
</a>
</g>
</g>
<!-- Node2&#45;&gt;Node3 -->
<g id="edge2" class="edge">
<title>Node2&#45;&gt;Node3</title>
<path fill="none" stroke="midnightblue" d="M320.81,-168.47C332.15,-159.49 350.45,-144.9 366,-132 386.3,-115.17 409.26,-95.43 424.58,-82.16"/>
<polygon fill="midnightblue" stroke="midnightblue" points="426.99,-84.71 432.24,-75.51 422.4,-79.42 426.99,-84.71"/>
</g>
<!-- Node4 -->
<g id="node4" class="node">
<title>Node4</title>
<g id="a_node4"><a xlink:title=" ">
<polygon fill="white" stroke="#bfbfbf" points="0,-112.5 0,-131.5 54,-131.5 54,-112.5 0,-112.5"/>
<text text-anchor="middle" x="27" y="-119.5" font-family="Helvetica,sans-Serif" font-size="10.00">iostream</text>
</a>
</g>
</g>
<!-- Node2&#45;&gt;Node4 -->
<g id="edge3" class="edge">
<title>Node2&#45;&gt;Node4</title>
<path fill="none" stroke="midnightblue" d="M257.76,-168.49C209.79,-160.45 136.52,-147.6 63.86,-132.08"/>
<polygon fill="midnightblue" stroke="midnightblue" points="64.6,-128.66 54.08,-129.97 63.12,-135.5 64.6,-128.66"/>
</g>
<!-- Node5 -->
<g id="node5" class="node">
<title>Node5</title>
<g id="a_node5"><a xlink:title=" ">
<polygon fill="white" stroke="#bfbfbf" points="905.5,-56.5 905.5,-75.5 946.5,-75.5 946.5,-56.5 905.5,-56.5"/>
<text text-anchor="middle" x="926" y="-63.5" font-family="Helvetica,sans-Serif" font-size="10.00">string</text>
</a>
</g>
</g>
<!-- Node2&#45;&gt;Node5 -->
<g id="edge4" class="edge">
<title>Node2&#45;&gt;Node5</title>
<path fill="none" stroke="midnightblue" d="M327.86,-168.35C358.3,-154.03 422.51,-125.64 480,-112 559.41,-93.16 808.1,-74.98 895.37,-69.03"/>
<polygon fill="midnightblue" stroke="midnightblue" points="895.68,-72.52 905.42,-68.35 895.21,-65.53 895.68,-72.52"/>
</g>
<!-- Node6 -->
<g id="node6" class="node">
<title>Node6</title>
<g id="a_node6"><a xlink:href="Service_8h.html" target="_top" xlink:title="Service subscriber that can listen for events.">
<polygon fill="white" stroke="black" points="551.5,-112.5 551.5,-131.5 616.5,-131.5 616.5,-112.5 551.5,-112.5"/>
<text text-anchor="middle" x="584" y="-119.5" font-family="Helvetica,sans-Serif" font-size="10.00">../Service.h</text>
</a>
</g>
</g>
<!-- Node2&#45;&gt;Node6 -->
<g id="edge5" class="edge">
<title>Node2&#45;&gt;Node6</title>
<path fill="none" stroke="midnightblue" d="M355.4,-168.47C400.1,-160 470.59,-146.49 541.45,-132.08"/>
<polygon fill="midnightblue" stroke="midnightblue" points="542.35,-135.47 551.45,-130.04 540.96,-128.61 542.35,-135.47"/>
</g>
<!-- Node7 -->
<g id="node7" class="node">
<title>Node7</title>
<g id="a_node7"><a xlink:href="JoystickState_8h.html" target="_top" xlink:title="Container for storing Joystick state.">
<polygon fill="white" stroke="black" points="178.5,-112.5 178.5,-131.5 261.5,-131.5 261.5,-112.5 178.5,-112.5"/>
<text text-anchor="middle" x="220" y="-119.5" font-family="Helvetica,sans-Serif" font-size="10.00">JoystickState.h</text>
</a>
</g>
</g>
<!-- Node2&#45;&gt;Node7 -->
<g id="edge8" class="edge">
<title>Node2&#45;&gt;Node7</title>
<path fill="none" stroke="midnightblue" d="M295.54,-168.32C281.5,-159.9 259.95,-146.97 243.46,-137.07"/>
<polygon fill="midnightblue" stroke="midnightblue" points="244.8,-133.8 234.42,-131.65 241.2,-139.8 244.8,-133.8"/>
</g>
<!-- Node9 -->
<g id="node9" class="node">
<title>Node9</title>
<g id="a_node9"><a xlink:href="KeyboardState_8h.html" target="_top" xlink:title="Container for storing Keyboard state.">
<polygon fill="white" stroke="black" points="72,-112.5 72,-131.5 160,-131.5 160,-112.5 72,-112.5"/>
<text text-anchor="middle" x="116" y="-119.5" font-family="Helvetica,sans-Serif" font-size="10.00">KeyboardState.h</text>
</a>
</g>
</g>
<!-- Node2&#45;&gt;Node9 -->
<g id="edge11" class="edge">
<title>Node2&#45;&gt;Node9</title>
<path fill="none" stroke="midnightblue" d="M279.26,-168.44C246.06,-159.2 193.01,-144.44 156.44,-134.26"/>
<polygon fill="midnightblue" stroke="midnightblue" points="157.17,-130.83 146.6,-131.52 155.29,-137.57 157.17,-130.83"/>
</g>
<!-- Node11 -->
<g id="node11" class="node">
<title>Node11</title>
<g id="a_node11"><a xlink:href="MouseState_8h.html" target="_top" xlink:title="Container for storing Mouse state.">
<polygon fill="white" stroke="black" points="279.5,-112.5 279.5,-131.5 356.5,-131.5 356.5,-112.5 279.5,-112.5"/>
<text text-anchor="middle" x="318" y="-119.5" font-family="Helvetica,sans-Serif" font-size="10.00">MouseState.h</text>
</a>
</g>
</g>
<!-- Node2&#45;&gt;Node11 -->
<g id="edge13" class="edge">
<title>Node2&#45;&gt;Node11</title>
<path fill="none" stroke="midnightblue" d="M311.32,-168.08C312.38,-160.93 313.91,-150.64 315.23,-141.69"/>
<polygon fill="midnightblue" stroke="midnightblue" points="318.7,-142.16 316.7,-131.75 311.78,-141.13 318.7,-142.16"/>
</g>
<!-- Node6&#45;&gt;Node3 -->
<g id="edge6" class="edge">
<title>Node6&#45;&gt;Node3</title>
<path fill="none" stroke="midnightblue" d="M561.5,-112.44C537.92,-103.48 500.68,-89.31 474.04,-79.18"/>
<polygon fill="midnightblue" stroke="midnightblue" points="474.99,-75.8 464.4,-75.52 472.5,-82.34 474.99,-75.8"/>
</g>
<!-- Node6&#45;&gt;Node5 -->
<g id="edge7" class="edge">
<title>Node6&#45;&gt;Node5</title>
<path fill="none" stroke="midnightblue" d="M616.59,-114.59C621.41,-113.69 626.33,-112.8 631,-112 727.21,-95.46 841.62,-78.89 895.31,-71.29"/>
<polygon fill="midnightblue" stroke="midnightblue" points="895.8,-74.76 905.21,-69.9 894.82,-67.83 895.8,-74.76"/>
</g>
<!-- Node7&#45;&gt;Node3 -->
<g id="edge9" class="edge">
<title>Node7&#45;&gt;Node3</title>
<path fill="none" stroke="midnightblue" d="M255.18,-112.44C293.58,-103.1 355.18,-88.12 397.06,-77.93"/>
<polygon fill="midnightblue" stroke="midnightblue" points="398.1,-81.28 406.99,-75.52 396.44,-74.48 398.1,-81.28"/>
</g>
<!-- Node8 -->
<g id="node8" class="node">
<title>Node8</title>
<g id="a_node8"><a xlink:href="JoystickCodes_8h.html" target="_top" xlink:title="Defines for codes used for joystick.">
<polygon fill="white" stroke="black" points="159,-56.5 159,-75.5 247,-75.5 247,-56.5 159,-56.5"/>
<text text-anchor="middle" x="203" y="-63.5" font-family="Helvetica,sans-Serif" font-size="10.00">JoystickCodes.h</text>
</a>
</g>
</g>
<!-- Node7&#45;&gt;Node8 -->
<g id="edge10" class="edge">
<title>Node7&#45;&gt;Node8</title>
<path fill="none" stroke="midnightblue" d="M217.19,-112.08C214.92,-104.85 211.63,-94.41 208.79,-85.4"/>
<polygon fill="midnightblue" stroke="midnightblue" points="212.1,-84.24 205.75,-75.75 205.42,-86.34 212.1,-84.24"/>
</g>
<!-- Node10 -->
<g id="node10" class="node">
<title>Node10</title>
<g id="a_node10"><a xlink:href="KeyboardKeys_8h.html" target="_top" xlink:title="Defenitions of keys that can be used by input manager.">
<polygon fill="white" stroke="black" points="55,-56.5 55,-75.5 141,-75.5 141,-56.5 55,-56.5"/>
<text text-anchor="middle" x="98" y="-63.5" font-family="Helvetica,sans-Serif" font-size="10.00">KeyboardKeys.h</text>
</a>
</g>
</g>
<!-- Node9&#45;&gt;Node10 -->
<g id="edge12" class="edge">
<title>Node9&#45;&gt;Node10</title>
<path fill="none" stroke="midnightblue" d="M113.03,-112.08C110.62,-104.85 107.14,-94.41 104.13,-85.4"/>
<polygon fill="midnightblue" stroke="midnightblue" points="107.4,-84.13 100.92,-75.75 100.76,-86.34 107.4,-84.13"/>
</g>
<!-- Node11&#45;&gt;Node3 -->
<g id="edge14" class="edge">
<title>Node11&#45;&gt;Node3</title>
<path fill="none" stroke="midnightblue" d="M337.65,-112.44C357.96,-103.6 389.9,-89.69 413.1,-79.59"/>
<polygon fill="midnightblue" stroke="midnightblue" points="414.67,-82.72 422.44,-75.52 411.88,-76.3 414.67,-82.72"/>
</g>
<!-- Node12 -->
<g id="node12" class="node">
<title>Node12</title>
<g id="a_node12"><a xlink:title=" ">
<polygon fill="white" stroke="#bfbfbf" points="265,-56.5 265,-75.5 371,-75.5 371,-56.5 265,-56.5"/>
<text text-anchor="middle" x="318" y="-63.5" font-family="Helvetica,sans-Serif" font-size="10.00">SDL2/SDL_mouse.h</text>
</a>
</g>
</g>
<!-- Node11&#45;&gt;Node12 -->
<g id="edge15" class="edge">
<title>Node11&#45;&gt;Node12</title>
<path fill="none" stroke="midnightblue" d="M318,-112.08C318,-105.01 318,-94.86 318,-85.99"/>
<polygon fill="midnightblue" stroke="midnightblue" points="321.5,-85.75 318,-75.75 314.5,-85.75 321.5,-85.75"/>
</g>
<!-- Node13&#45;&gt;Node5 -->
<g id="edge18" class="edge">
<title>Node13&#45;&gt;Node5</title>
<path fill="none" stroke="midnightblue" d="M630.37,-224.26C642.77,-211.46 666.92,-187.07 689,-168 719.95,-141.27 725.38,-130.19 762,-112 805.66,-90.31 861.23,-77.88 895.18,-71.79"/>
<polygon fill="midnightblue" stroke="midnightblue" points="896.14,-75.17 905.4,-70.03 894.95,-68.27 896.14,-75.17"/>
</g>
<!-- Node14 -->
<g id="node14" class="node">
<title>Node14</title>
<g id="a_node14"><a xlink:title=" ">
<polygon fill="white" stroke="#bfbfbf" points="161.5,-168.5 161.5,-187.5 220.5,-187.5 220.5,-168.5 161.5,-168.5"/>
<text text-anchor="middle" x="191" y="-175.5" font-family="Helvetica,sans-Serif" font-size="10.00">stdexcept</text>
</a>
</g>
</g>
<!-- Node13&#45;&gt;Node14 -->
<g id="edge17" class="edge">
<title>Node13&#45;&gt;Node14</title>
<path fill="none" stroke="midnightblue" d="M565.73,-228.67C491.18,-222.46 355.45,-209.54 230.9,-188.17"/>
<polygon fill="midnightblue" stroke="midnightblue" points="231.25,-184.68 220.8,-186.41 230.05,-191.57 231.25,-184.68"/>
</g>
<!-- Node15&#45;&gt;Node2 -->
<g id="edge56" class="edge">
<title>Node15&#45;&gt;Node2</title>
<path fill="none" stroke="midnightblue" d="M755.76,-227.51C679.16,-219.28 529.94,-203.22 391.89,-188.1"/>
<polygon fill="midnightblue" stroke="midnightblue" points="391.87,-184.57 381.55,-186.96 391.11,-191.53 391.87,-184.57"/>
</g>
<!-- Node16 -->
<g id="node16" class="node">
<title>Node16</title>
<g id="a_node16"><a xlink:title=" ">
<polygon fill="white" stroke="#bfbfbf" points="1140.5,-168.5 1140.5,-187.5 1191.5,-187.5 1191.5,-168.5 1140.5,-168.5"/>
<text text-anchor="middle" x="1166" y="-175.5" font-family="Helvetica,sans-Serif" font-size="10.00">memory</text>
</a>
</g>
</g>
<!-- Node15&#45;&gt;Node16 -->
<g id="edge20" class="edge">
<title>Node15&#45;&gt;Node16</title>
<path fill="none" stroke="midnightblue" d="M858.27,-227.84C920.57,-221.15 1029.04,-208.11 1130.65,-188.08"/>
<polygon fill="midnightblue" stroke="midnightblue" points="1131.34,-191.51 1140.46,-186.12 1129.97,-184.64 1131.34,-191.51"/>
</g>
<!-- Node17 -->
<g id="node17" class="node">
<title>Node17</title>
<g id="a_node17"><a xlink:href="AssetService_8h.html" target="_top" xlink:title="Implementation of AssetService.">
<polygon fill="white" stroke="black" points="1209.5,-168.5 1209.5,-187.5 1324.5,-187.5 1324.5,-168.5 1209.5,-168.5"/>
<text text-anchor="middle" x="1267" y="-175.5" font-family="Helvetica,sans-Serif" font-size="10.00">assets/AssetService.h</text>
</a>
</g>
</g>
<!-- Node15&#45;&gt;Node17 -->
<g id="edge21" class="edge">
<title>Node15&#45;&gt;Node17</title>
<path fill="none" stroke="midnightblue" d="M858.04,-227.53C931.29,-219.6 1070.73,-204.21 1199.38,-188.18"/>
<polygon fill="midnightblue" stroke="midnightblue" points="1199.93,-191.64 1209.42,-186.93 1199.06,-184.69 1199.93,-191.64"/>
</g>
<!-- Node28 -->
<g id="node28" class="node">
<title>Node28</title>
<g id="a_node28"><a xlink:href="AudioService_8h.html" target="_top" xlink:title="Default audio service, can actually play audio.">
<polygon fill="white" stroke="black" points="1390,-168.5 1390,-187.5 1498,-187.5 1498,-168.5 1390,-168.5"/>
<text text-anchor="middle" x="1444" y="-175.5" font-family="Helvetica,sans-Serif" font-size="10.00">audio/AudioService.h</text>
</a>
</g>
</g>
<!-- Node15&#45;&gt;Node28 -->
<g id="edge39" class="edge">
<title>Node15&#45;&gt;Node28</title>
<path fill="none" stroke="midnightblue" d="M858.05,-228.67C973.06,-218.92 1252.25,-195.25 1379.22,-184.49"/>
<polygon fill="midnightblue" stroke="midnightblue" points="1379.89,-187.95 1389.56,-183.62 1379.3,-180.97 1379.89,-187.95"/>
</g>
<!-- Node29 -->
<g id="node29" class="node">
<title>Node29</title>
<g id="a_node29"><a xlink:href="ConfigService_8h.html" target="_top" xlink:title="Header for default Config Service.">
<polygon fill="white" stroke="black" points="1009.5,-168.5 1009.5,-187.5 1122.5,-187.5 1122.5,-168.5 1009.5,-168.5"/>
<text text-anchor="middle" x="1066" y="-175.5" font-family="Helvetica,sans-Serif" font-size="10.00">config/ConfigService.h</text>
</a>
</g>
</g>
<!-- Node15&#45;&gt;Node29 -->
<g id="edge43" class="edge">
<title>Node15&#45;&gt;Node29</title>
<path fill="none" stroke="midnightblue" d="M848.04,-224.44C893.32,-215 966.23,-199.8 1015.11,-189.61"/>
<polygon fill="midnightblue" stroke="midnightblue" points="1016.08,-192.98 1025.15,-187.52 1014.65,-186.13 1016.08,-192.98"/>
</g>
<!-- Node31 -->
<g id="node31" class="node">
<title>Node31</title>
<g id="a_node31"><a xlink:href="DisplayService_8h.html" target="_top" xlink:title="Service that encapsulates SDL display related functionality.">
<polygon fill="white" stroke="black" points="698,-168.5 698,-187.5 820,-187.5 820,-168.5 698,-168.5"/>
<text text-anchor="middle" x="759" y="-175.5" font-family="Helvetica,sans-Serif" font-size="10.00">display/DisplayService.h</text>
</a>
</g>
</g>
<!-- Node15&#45;&gt;Node31 -->
<g id="edge47" class="edge">
<title>Node15&#45;&gt;Node31</title>
<path fill="none" stroke="midnightblue" d="M799.07,-224.08C792.15,-216.3 781.93,-204.8 773.55,-195.37"/>
<polygon fill="midnightblue" stroke="midnightblue" points="776.04,-192.9 766.78,-187.75 770.81,-197.55 776.04,-192.9"/>
</g>
<!-- Node32 -->
<g id="node32" class="node">
<title>Node32</title>
<g id="a_node32"><a xlink:href="EventQueue_8h.html" target="_top" xlink:title="Handles SDL_Events from main SDL_Queue. Can be hooked into by other services and notified when change...">
<polygon fill="white" stroke="black" points="400,-168.5 400,-187.5 510,-187.5 510,-168.5 400,-168.5"/>
<text text-anchor="middle" x="455" y="-175.5" font-family="Helvetica,sans-Serif" font-size="10.00">events/EventQueue.h</text>
</a>
</g>
</g>
<!-- Node15&#45;&gt;Node32 -->
<g id="edge52" class="edge">
<title>Node15&#45;&gt;Node32</title>
<path fill="none" stroke="midnightblue" d="M755.82,-225.15C693.52,-215.59 588.23,-199.44 520.19,-189"/>
<polygon fill="midnightblue" stroke="midnightblue" points="520.43,-185.5 510.02,-187.44 519.37,-192.42 520.43,-185.5"/>
</g>
<!-- Node34 -->
<g id="node34" class="node">
<title>Node34</title>
<g id="a_node34"><a xlink:href="DebugLoggingService_8h.html" target="_top" xlink:title="Logging service that does the logging. Used for development.">
<polygon fill="white" stroke="black" points="838.5,-168.5 838.5,-187.5 991.5,-187.5 991.5,-168.5 838.5,-168.5"/>
<text text-anchor="middle" x="915" y="-175.5" font-family="Helvetica,sans-Serif" font-size="10.00">logging/DebugLoggingService.h</text>
</a>
</g>
</g>
<!-- Node15&#45;&gt;Node34 -->
<g id="edge57" class="edge">
<title>Node15&#45;&gt;Node34</title>
<path fill="none" stroke="midnightblue" d="M824.35,-224.32C841.67,-215.66 868.52,-202.24 888.5,-192.25"/>
<polygon fill="midnightblue" stroke="midnightblue" points="890.31,-195.26 897.69,-187.65 887.18,-189 890.31,-195.26"/>
</g>
<!-- Node36 -->
<g id="node36" class="node">
<title>Node36</title>
<g id="a_node36"><a xlink:href="SceneService_8h.html" target="_top" xlink:title="Service in charge of managing scenes.">
<polygon fill="white" stroke="black" points="528,-168.5 528,-187.5 642,-187.5 642,-168.5 528,-168.5"/>
<text text-anchor="middle" x="585" y="-175.5" font-family="Helvetica,sans-Serif" font-size="10.00">scene/SceneService.h</text>
</a>
</g>
</g>
<!-- Node15&#45;&gt;Node36 -->
<g id="edge61" class="edge">
<title>Node15&#45;&gt;Node36</title>
<path fill="none" stroke="midnightblue" d="M771.82,-224.44C733.42,-215.1 671.82,-200.12 629.94,-189.93"/>
<polygon fill="midnightblue" stroke="midnightblue" points="630.56,-186.48 620.01,-187.52 628.9,-193.28 630.56,-186.48"/>
</g>
<!-- Node17&#45;&gt;Node5 -->
<g id="edge23" class="edge">
<title>Node17&#45;&gt;Node5</title>
<path fill="none" stroke="midnightblue" d="M1234.79,-168.46C1205.83,-160.38 1162.38,-147.24 1126,-132 1108.4,-124.63 1105.74,-119.04 1088,-112 1043.56,-94.37 989.68,-80.88 956.62,-73.45"/>
<polygon fill="midnightblue" stroke="midnightblue" points="957.18,-69.99 946.66,-71.25 955.67,-76.82 957.18,-69.99"/>
</g>
<!-- Node18 -->
<g id="node18" class="node">
<title>Node18</title>
<g id="a_node18"><a xlink:title=" ">
<polygon fill="white" stroke="#bfbfbf" points="1043.5,-112.5 1043.5,-131.5 1078.5,-131.5 1078.5,-112.5 1043.5,-112.5"/>
<text text-anchor="middle" x="1061" y="-119.5" font-family="Helvetica,sans-Serif" font-size="10.00">map</text>
</a>
</g>
</g>
<!-- Node17&#45;&gt;Node18 -->
<g id="edge22" class="edge">
<title>Node17&#45;&gt;Node18</title>
<path fill="none" stroke="midnightblue" d="M1233.26,-168.5C1198.17,-159.6 1141.65,-145.13 1093,-132 1091.54,-131.61 1090.04,-131.2 1088.53,-130.78"/>
<polygon fill="midnightblue" stroke="midnightblue" points="1089.16,-127.33 1078.59,-128.02 1087.28,-134.07 1089.16,-127.33"/>
</g>
<!-- Node19 -->
<g id="node19" class="node">
<title>Node19</title>
<g id="a_node19"><a xlink:href="Font_8h.html" target="_top" xlink:title="Easy interface to interact with SDL fonts.">
<polygon fill="white" stroke="black" points="1333.5,-112.5 1333.5,-131.5 1424.5,-131.5 1424.5,-112.5 1333.5,-112.5"/>
<text text-anchor="middle" x="1379" y="-119.5" font-family="Helvetica,sans-Serif" font-size="10.00">../../assets/Font.h</text>
</a>
</g>
</g>
<!-- Node17&#45;&gt;Node19 -->
<g id="edge24" class="edge">
<title>Node17&#45;&gt;Node19</title>
<path fill="none" stroke="midnightblue" d="M1284.99,-168.32C1303.04,-159.62 1331.05,-146.12 1351.8,-136.11"/>
<polygon fill="midnightblue" stroke="midnightblue" points="1353.56,-139.15 1361.05,-131.65 1350.52,-132.84 1353.56,-139.15"/>
</g>
<!-- Node23 -->
<g id="node23" class="node">
<title>Node23</title>
<g id="a_node23"><a xlink:href="Sound_8h.html" target="_top" xlink:title="Implementation of Sound.">
<polygon fill="white" stroke="black" points="1442.5,-112.5 1442.5,-131.5 1541.5,-131.5 1541.5,-112.5 1442.5,-112.5"/>
<text text-anchor="middle" x="1492" y="-119.5" font-family="Helvetica,sans-Serif" font-size="10.00">../../assets/Sound.h</text>
</a>
</g>
</g>
<!-- Node17&#45;&gt;Node23 -->
<g id="edge29" class="edge">
<title>Node17&#45;&gt;Node23</title>
<path fill="none" stroke="midnightblue" d="M1302.65,-168.44C1341.66,-159.08 1404.27,-144.06 1446.72,-133.87"/>
<polygon fill="midnightblue" stroke="midnightblue" points="1447.61,-137.25 1456.51,-131.52 1445.97,-130.45 1447.61,-137.25"/>
</g>
<!-- Node25 -->
<g id="node25" class="node">
<title>Node25</title>
<g id="a_node25"><a xlink:href="Stream_8h.html" target="_top" xlink:title="Wrapper for sdl stream including ability to store stream pointer. Use for single instance sounds like...">
<polygon fill="white" stroke="black" points="1559.5,-112.5 1559.5,-131.5 1662.5,-131.5 1662.5,-112.5 1559.5,-112.5"/>
<text text-anchor="middle" x="1611" y="-119.5" font-family="Helvetica,sans-Serif" font-size="10.00">../../assets/Stream.h</text>
</a>
</g>
</g>
<!-- Node17&#45;&gt;Node25 -->
<g id="edge32" class="edge">
<title>Node17&#45;&gt;Node25</title>
<path fill="none" stroke="midnightblue" d="M1321.51,-168.44C1383.46,-158.72 1484.36,-142.88 1549.19,-132.7"/>
<polygon fill="midnightblue" stroke="midnightblue" points="1549.94,-136.13 1559.28,-131.12 1548.86,-129.21 1549.94,-136.13"/>
</g>
<!-- Node26 -->
<g id="node26" class="node">
<title>Node26</title>
<g id="a_node26"><a xlink:href="Texture_8h.html" target="_top" xlink:title="Easy interface to interact with sdl bitmaps.">
<polygon fill="white" stroke="black" points="1135,-112.5 1135,-131.5 1239,-131.5 1239,-112.5 1135,-112.5"/>
<text text-anchor="middle" x="1187" y="-119.5" font-family="Helvetica,sans-Serif" font-size="10.00">../../assets/Texture.h</text>
</a>
</g>
</g>
<!-- Node17&#45;&gt;Node26 -->
<g id="edge35" class="edge">
<title>Node17&#45;&gt;Node26</title>
<path fill="none" stroke="midnightblue" d="M1254.15,-168.32C1241.78,-159.98 1222.87,-147.21 1208.26,-137.35"/>
<polygon fill="midnightblue" stroke="midnightblue" points="1210.07,-134.35 1199.82,-131.65 1206.15,-140.15 1210.07,-134.35"/>
</g>
<!-- Node19&#45;&gt;Node5 -->
<g id="edge26" class="edge">
<title>Node19&#45;&gt;Node5</title>
<path fill="none" stroke="midnightblue" d="M1333.49,-115.58C1241.35,-104.59 1034.85,-79.98 956.73,-70.66"/>
<polygon fill="midnightblue" stroke="midnightblue" points="956.93,-67.16 946.58,-69.45 956.1,-74.11 956.93,-67.16"/>
</g>
<!-- Node20 -->
<g id="node20" class="node">
<title>Node20</title>
<g id="a_node20"><a xlink:title=" ">
<polygon fill="white" stroke="#bfbfbf" points="1349,-56.5 1349,-75.5 1435,-75.5 1435,-56.5 1349,-56.5"/>
<text text-anchor="middle" x="1392" y="-63.5" font-family="Helvetica,sans-Serif" font-size="10.00">SDL2/SDL_ttf.h</text>
</a>
</g>
</g>
<!-- Node19&#45;&gt;Node20 -->
<g id="edge25" class="edge">
<title>Node19&#45;&gt;Node20</title>
<path fill="none" stroke="midnightblue" d="M1381.15,-112.08C1382.87,-104.93 1385.35,-94.64 1387.5,-85.69"/>
<polygon fill="midnightblue" stroke="midnightblue" points="1390.96,-86.29 1389.89,-75.75 1384.15,-84.65 1390.96,-86.29"/>
</g>
<!-- Node21 -->
<g id="node21" class="node">
<title>Node21</title>
<g id="a_node21"><a xlink:href="Color_8h.html" target="_top" xlink:title="Helpers for creating colors without accessing SDL api directly.">
<polygon fill="white" stroke="black" points="1253,-56.5 1253,-75.5 1331,-75.5 1331,-56.5 1253,-56.5"/>
<text text-anchor="middle" x="1292" y="-63.5" font-family="Helvetica,sans-Serif" font-size="10.00">../color/Color.h</text>
</a>
</g>
</g>
<!-- Node19&#45;&gt;Node21 -->
<g id="edge27" class="edge">
<title>Node19&#45;&gt;Node21</title>
<path fill="none" stroke="midnightblue" d="M1365.02,-112.32C1351.45,-103.9 1330.62,-90.97 1314.68,-81.07"/>
<polygon fill="midnightblue" stroke="midnightblue" points="1316.29,-77.95 1305.94,-75.65 1312.59,-83.9 1316.29,-77.95"/>
</g>
<!-- Node22 -->
<g id="node22" class="node">
<title>Node22</title>
<g id="a_node22"><a xlink:title=" ">
<polygon fill="white" stroke="#bfbfbf" points="1223,-0.5 1223,-19.5 1361,-19.5 1361,-0.5 1223,-0.5"/>
<text text-anchor="middle" x="1292" y="-7.5" font-family="Helvetica,sans-Serif" font-size="10.00">SDL2/SDL2_gfxPrimitives.h</text>
</a>
</g>
</g>
<!-- Node21&#45;&gt;Node22 -->
<g id="edge28" class="edge">
<title>Node21&#45;&gt;Node22</title>
<path fill="none" stroke="midnightblue" d="M1292,-56.08C1292,-49.01 1292,-38.86 1292,-29.99"/>
<polygon fill="midnightblue" stroke="midnightblue" points="1295.5,-29.75 1292,-19.75 1288.5,-29.75 1295.5,-29.75"/>
</g>
<!-- Node23&#45;&gt;Node5 -->
<g id="edge31" class="edge">
<title>Node23&#45;&gt;Node5</title>
<path fill="none" stroke="midnightblue" d="M1442.36,-113.08C1439.53,-112.69 1436.73,-112.33 1434,-112 1253.94,-90.08 1036.74,-74.42 957.16,-69.05"/>
<polygon fill="midnightblue" stroke="midnightblue" points="957.07,-65.53 946.86,-68.35 956.6,-72.52 957.07,-65.53"/>
</g>
<!-- Node24 -->
<g id="node24" class="node">
<title>Node24</title>
<g id="a_node24"><a xlink:title=" ">
<polygon fill="white" stroke="#bfbfbf" points="1501,-56.5 1501,-75.5 1601,-75.5 1601,-56.5 1501,-56.5"/>
<text text-anchor="middle" x="1551" y="-63.5" font-family="Helvetica,sans-Serif" font-size="10.00">SDL2/SDL_mixer.h</text>
</a>
</g>
</g>
<!-- Node23&#45;&gt;Node24 -->
<g id="edge30" class="edge">
<title>Node23&#45;&gt;Node24</title>
<path fill="none" stroke="midnightblue" d="M1501.48,-112.32C1510.2,-104.34 1523.34,-92.31 1533.9,-82.65"/>
<polygon fill="midnightblue" stroke="midnightblue" points="1536.33,-85.17 1541.35,-75.83 1531.61,-80 1536.33,-85.17"/>
</g>
<!-- Node25&#45;&gt;Node5 -->
<g id="edge34" class="edge">
<title>Node25&#45;&gt;Node5</title>
<path fill="none" stroke="midnightblue" d="M1559.32,-112.99C1556.51,-112.63 1553.72,-112.3 1551,-112 1323.45,-86.78 1047.66,-72.61 956.71,-68.37"/>
<polygon fill="midnightblue" stroke="midnightblue" points="956.7,-64.87 946.55,-67.9 956.38,-71.86 956.7,-64.87"/>
</g>
<!-- Node25&#45;&gt;Node24 -->
<g id="edge33" class="edge">
<title>Node25&#45;&gt;Node24</title>
<path fill="none" stroke="midnightblue" d="M1601.36,-112.32C1592.49,-104.34 1579.13,-92.31 1568.39,-82.65"/>
<polygon fill="midnightblue" stroke="midnightblue" points="1570.59,-79.92 1560.82,-75.83 1565.91,-85.13 1570.59,-79.92"/>
</g>
<!-- Node26&#45;&gt;Node5 -->
<g id="edge37" class="edge">
<title>Node26&#45;&gt;Node5</title>
<path fill="none" stroke="midnightblue" d="M1145.64,-112.44C1092.99,-101.55 1003.26,-82.98 956.45,-73.3"/>
<polygon fill="midnightblue" stroke="midnightblue" points="957.1,-69.86 946.6,-71.26 955.68,-76.72 957.1,-69.86"/>
</g>
<!-- Node26&#45;&gt;Node21 -->
<g id="edge38" class="edge">
<title>Node26&#45;&gt;Node21</title>
<path fill="none" stroke="midnightblue" d="M1203.87,-112.32C1220.71,-103.66 1246.81,-90.24 1266.24,-80.25"/>
<polygon fill="midnightblue" stroke="midnightblue" points="1267.88,-83.34 1275.17,-75.65 1264.68,-77.12 1267.88,-83.34"/>
</g>
<!-- Node27 -->
<g id="node27" class="node">
<title>Node27</title>
<g id="a_node27"><a xlink:title=" ">
<polygon fill="white" stroke="#bfbfbf" points="685.5,-56.5 685.5,-75.5 756.5,-75.5 756.5,-56.5 685.5,-56.5"/>
<text text-anchor="middle" x="721" y="-63.5" font-family="Helvetica,sans-Serif" font-size="10.00">SDL2/SDL.h</text>
</a>
</g>
</g>
<!-- Node26&#45;&gt;Node27 -->
<g id="edge36" class="edge">
<title>Node26&#45;&gt;Node27</title>
<path fill="none" stroke="midnightblue" d="M1134.9,-114.96C1043.04,-104.32 853.77,-82.39 766.68,-72.29"/>
<polygon fill="midnightblue" stroke="midnightblue" points="766.92,-68.8 756.58,-71.12 766.11,-75.75 766.92,-68.8"/>
</g>
<!-- Node28&#45;&gt;Node5 -->
<g id="edge40" class="edge">
<title>Node28&#45;&gt;Node5</title>
<path fill="none" stroke="midnightblue" d="M1422.62,-168.48C1386.98,-154.61 1312.93,-127.17 1248,-112 1142.66,-87.39 1014.58,-74.41 956.84,-69.44"/>
<polygon fill="midnightblue" stroke="midnightblue" points="956.84,-65.92 946.58,-68.57 956.25,-72.9 956.84,-65.92"/>
</g>
<!-- Node28&#45;&gt;Node23 -->
<g id="edge41" class="edge">
<title>Node28&#45;&gt;Node23</title>
<path fill="none" stroke="midnightblue" d="M1451.93,-168.08C1458.85,-160.3 1469.07,-148.8 1477.45,-139.37"/>
<polygon fill="midnightblue" stroke="midnightblue" points="1480.19,-141.55 1484.22,-131.75 1474.96,-136.9 1480.19,-141.55"/>
</g>
<!-- Node28&#45;&gt;Node25 -->
<g id="edge42" class="edge">
<title>Node28&#45;&gt;Node25</title>
<path fill="none" stroke="midnightblue" d="M1470.46,-168.44C1498.68,-159.32 1543.54,-144.81 1574.97,-134.65"/>
<polygon fill="midnightblue" stroke="midnightblue" points="1576.22,-137.92 1584.66,-131.52 1574.07,-131.26 1576.22,-137.92"/>
</g>
<!-- Node29&#45;&gt;Node5 -->
<g id="edge46" class="edge">
<title>Node29&#45;&gt;Node5</title>
<path fill="none" stroke="midnightblue" d="M1033.67,-168.47C1012.01,-161.47 983.93,-149.78 964,-132 949.56,-119.11 939.11,-99.39 932.87,-85.05"/>
<polygon fill="midnightblue" stroke="midnightblue" points="936.09,-83.67 929.07,-75.73 929.6,-86.31 936.09,-83.67"/>
</g>
<!-- Node29&#45;&gt;Node18 -->
<g id="edge44" class="edge">
<title>Node29&#45;&gt;Node18</title>
<path fill="none" stroke="midnightblue" d="M1065.17,-168.08C1064.52,-161.01 1063.58,-150.86 1062.76,-141.99"/>
<polygon fill="midnightblue" stroke="midnightblue" points="1066.22,-141.39 1061.81,-131.75 1059.25,-142.03 1066.22,-141.39"/>
</g>
<!-- Node30 -->
<g id="node30" class="node">
<title>Node30</title>
<g id="a_node30"><a xlink:title=" ">
<polygon fill="white" stroke="#bfbfbf" points="973,-112.5 973,-131.5 1025,-131.5 1025,-112.5 973,-112.5"/>
<text text-anchor="middle" x="999" y="-119.5" font-family="Helvetica,sans-Serif" font-size="10.00">sstream</text>
</a>
</g>
</g>
<!-- Node29&#45;&gt;Node30 -->
<g id="edge45" class="edge">
<title>Node29&#45;&gt;Node30</title>
<path fill="none" stroke="midnightblue" d="M1055.24,-168.32C1045.23,-160.26 1030.11,-148.08 1018.07,-138.37"/>
<polygon fill="midnightblue" stroke="midnightblue" points="1019.94,-135.38 1009.96,-131.83 1015.55,-140.83 1019.94,-135.38"/>
</g>
<!-- Node31&#45;&gt;Node5 -->
<g id="edge49" class="edge">
<title>Node31&#45;&gt;Node5</title>
<path fill="none" stroke="midnightblue" d="M759.05,-168.12C759.63,-154.23 762.79,-127.38 778,-112 809.27,-80.39 862.01,-70.84 895.36,-68.04"/>
<polygon fill="midnightblue" stroke="midnightblue" points="895.71,-71.53 905.45,-67.35 895.24,-64.54 895.71,-71.53"/>
</g>
<!-- Node31&#45;&gt;Node6 -->
<g id="edge51" class="edge">
<title>Node31&#45;&gt;Node6</title>
<path fill="none" stroke="midnightblue" d="M731.27,-168.44C701.57,-159.28 654.28,-144.69 621.33,-134.52"/>
<polygon fill="midnightblue" stroke="midnightblue" points="622.19,-131.12 611.6,-131.52 620.12,-137.81 622.19,-131.12"/>
</g>
<!-- Node31&#45;&gt;Node21 -->
<g id="edge50" class="edge">
<title>Node31&#45;&gt;Node21</title>
<path fill="none" stroke="midnightblue" d="M820.17,-169.09C823.5,-168.71 826.79,-168.34 830,-168 922.71,-158.14 1167.6,-179.2 1248,-132 1265.95,-121.46 1278.15,-100.36 1285.06,-85.05"/>
<polygon fill="midnightblue" stroke="midnightblue" points="1288.39,-86.15 1289.01,-75.58 1281.93,-83.46 1288.39,-86.15"/>
</g>
<!-- Node31&#45;&gt;Node27 -->
<g id="edge48" class="edge">
<title>Node31&#45;&gt;Node27</title>
<path fill="none" stroke="midnightblue" d="M756.02,-168.37C749.86,-150.54 735.61,-109.3 727.31,-85.27"/>
<polygon fill="midnightblue" stroke="midnightblue" points="730.54,-83.9 723.97,-75.59 723.93,-86.19 730.54,-83.9"/>
</g>
<!-- Node32&#45;&gt;Node6 -->
<g id="edge55" class="edge">
<title>Node32&#45;&gt;Node6</title>
<path fill="none" stroke="midnightblue" d="M475.44,-168.44C496.67,-159.56 530.1,-145.56 554.25,-135.45"/>
<polygon fill="midnightblue" stroke="midnightblue" points="555.78,-138.61 563.66,-131.52 553.08,-132.15 555.78,-138.61"/>
</g>
<!-- Node32&#45;&gt;Node27 -->
<g id="edge53" class="edge">
<title>Node32&#45;&gt;Node27</title>
<path fill="none" stroke="midnightblue" d="M455.71,-168.3C457.35,-154.18 462.71,-126.39 480,-112 508.99,-87.87 613.37,-75.58 674.84,-70.3"/>
<polygon fill="midnightblue" stroke="midnightblue" points="675.38,-73.77 685.06,-69.46 674.8,-66.8 675.38,-73.77"/>
</g>
<!-- Node33 -->
<g id="node33" class="node">
<title>Node33</title>
<g id="a_node33"><a xlink:title=" ">
<polygon fill="white" stroke="#bfbfbf" points="489,-112.5 489,-131.5 533,-131.5 533,-112.5 489,-112.5"/>
<text text-anchor="middle" x="511" y="-119.5" font-family="Helvetica,sans-Serif" font-size="10.00">vector</text>
</a>
</g>
</g>
<!-- Node32&#45;&gt;Node33 -->
<g id="edge54" class="edge">
<title>Node32&#45;&gt;Node33</title>
<path fill="none" stroke="midnightblue" d="M464,-168.32C472.19,-160.42 484.51,-148.55 494.47,-138.94"/>
<polygon fill="midnightblue" stroke="midnightblue" points="497.07,-141.29 501.84,-131.83 492.21,-136.26 497.07,-141.29"/>
</g>
<!-- Node34&#45;&gt;Node5 -->
<g id="edge58" class="edge">
<title>Node34&#45;&gt;Node5</title>
<path fill="none" stroke="midnightblue" d="M915.86,-168.37C917.64,-150.62 921.73,-109.67 924.14,-85.6"/>
<polygon fill="midnightblue" stroke="midnightblue" points="927.63,-85.89 925.14,-75.59 920.66,-85.19 927.63,-85.89"/>
</g>
<!-- Node35 -->
<g id="node35" class="node">
<title>Node35</title>
<g id="a_node35"><a xlink:href="LoggingService_8h.html" target="_top" xlink:title="Default logging service. Does nothing. Use in production.">
<polygon fill="white" stroke="black" points="787,-112.5 787,-131.5 879,-131.5 879,-112.5 787,-112.5"/>
<text text-anchor="middle" x="833" y="-119.5" font-family="Helvetica,sans-Serif" font-size="10.00">LoggingService.h</text>
</a>
</g>
</g>
<!-- Node34&#45;&gt;Node35 -->
<g id="edge59" class="edge">
<title>Node34&#45;&gt;Node35</title>
<path fill="none" stroke="midnightblue" d="M901.83,-168.32C889.15,-159.98 869.77,-147.21 854.79,-137.35"/>
<polygon fill="midnightblue" stroke="midnightblue" points="856.42,-134.23 846.14,-131.65 852.57,-140.08 856.42,-134.23"/>
</g>
<!-- Node35&#45;&gt;Node5 -->
<g id="edge60" class="edge">
<title>Node35&#45;&gt;Node5</title>
<path fill="none" stroke="midnightblue" d="M847.94,-112.32C862.59,-103.82 885.13,-90.73 902.24,-80.8"/>
<polygon fill="midnightblue" stroke="midnightblue" points="904.2,-83.7 911.1,-75.65 900.69,-77.65 904.2,-83.7"/>
</g>
<!-- Node36&#45;&gt;Node5 -->
<g id="edge62" class="edge">
<title>Node36&#45;&gt;Node5</title>
<path fill="none" stroke="midnightblue" d="M593.37,-168.19C607.5,-153.89 637.63,-125.86 669,-112 745.63,-78.15 845.66,-69.72 895.29,-67.65"/>
<polygon fill="midnightblue" stroke="midnightblue" points="895.51,-71.15 905.38,-67.29 895.26,-64.15 895.51,-71.15"/>
</g>
<!-- Node36&#45;&gt;Node6 -->
<g id="edge64" class="edge">
<title>Node36&#45;&gt;Node6</title>
<path fill="none" stroke="midnightblue" d="M584.83,-168.08C584.7,-161.01 584.52,-150.86 584.35,-141.99"/>
<polygon fill="midnightblue" stroke="midnightblue" points="587.85,-141.68 584.16,-131.75 580.85,-141.81 587.85,-141.68"/>
</g>
<!-- Node36&#45;&gt;Node33 -->
<g id="edge63" class="edge">
<title>Node36&#45;&gt;Node33</title>
<path fill="none" stroke="midnightblue" d="M573.11,-168.32C561.85,-160.11 544.71,-147.6 531.29,-137.81"/>
<polygon fill="midnightblue" stroke="midnightblue" points="533.25,-134.9 523.11,-131.83 529.12,-140.56 533.25,-134.9"/>
</g>
</g>
</svg>
