<?xml version="1.0" encoding="UTF-8" standalone="no"?>
<!DOCTYPE svg PUBLIC "-//W3C//DTD SVG 1.1//EN"
 "http://www.w3.org/Graphics/SVG/1.1/DTD/svg11.dtd">
<!-- Generated by graphviz version 2.46.1 (20210215.1649)
 -->
<!-- Title: include/services/input/InputService.h Pages: 1 -->
<svg width="571pt" height="151pt"
 viewBox="0.00 0.00 571.00 151.00" xmlns="http://www.w3.org/2000/svg" xmlns:xlink="http://www.w3.org/1999/xlink">
<g id="graph0" class="graph" transform="scale(1 1) rotate(0) translate(4 147)">
<title>include/services/input/InputService.h</title>
<polygon fill="white" stroke="transparent" points="-4,4 -4,-147 567,-147 567,4 -4,4"/>
<!-- Node1 -->
<g id="node1" class="node">
<title>Node1</title>
<g id="a_node1"><a xlink:title="General Purpose input listener. Handles Mouse, Keyboard, Joystick.">
<polygon fill="#bfbfbf" stroke="black" points="258.5,-112.5 258.5,-142.5 369.5,-142.5 369.5,-112.5 258.5,-112.5"/>
<text text-anchor="start" x="266.5" y="-130.5" font-family="Helvetica,sans-Serif" font-size="10.00">include/services/input</text>
<text text-anchor="middle" x="314" y="-119.5" font-family="Helvetica,sans-Serif" font-size="10.00">/InputService.h</text>
</a>
</g>
</g>
<!-- Node2 -->
<g id="node2" class="node">
<title>Node2</title>
<g id="a_node2"><a xlink:title=" ">
<polygon fill="white" stroke="#bfbfbf" points="106,-0.5 106,-19.5 212,-19.5 212,-0.5 106,-0.5"/>
<text text-anchor="middle" x="159" y="-7.5" font-family="Helvetica,sans-Serif" font-size="10.00">SDL2/SDL_events.h</text>
</a>
</g>
</g>
<!-- Node1&#45;&gt;Node2 -->
<g id="edge1" class="edge">
<title>Node1&#45;&gt;Node2</title>
<path fill="none" stroke="midnightblue" d="M258.24,-118.27C230.3,-111.39 198.03,-98.85 177,-76 165.49,-63.49 161.24,-44.26 159.73,-29.96"/>
<polygon fill="midnightblue" stroke="midnightblue" points="163.2,-29.5 159.01,-19.77 156.22,-29.99 163.2,-29.5"/>
</g>
<!-- Node3 -->
<g id="node3" class="node">
<title>Node3</title>
<g id="a_node3"><a xlink:title=" ">
<polygon fill="white" stroke="#bfbfbf" points="403,-56.5 403,-75.5 457,-75.5 457,-56.5 403,-56.5"/>
<text text-anchor="middle" x="430" y="-63.5" font-family="Helvetica,sans-Serif" font-size="10.00">iostream</text>
</a>
</g>
</g>
<!-- Node1&#45;&gt;Node3 -->
<g id="edge2" class="edge">
<title>Node1&#45;&gt;Node3</title>
<path fill="none" stroke="midnightblue" d="M341.49,-112.4C360.43,-102.68 385.44,-89.86 404.04,-80.31"/>
<polygon fill="midnightblue" stroke="midnightblue" points="405.82,-83.34 413.12,-75.66 402.63,-77.11 405.82,-83.34"/>
</g>
<!-- Node4 -->
<g id="node4" class="node">
<title>Node4</title>
<g id="a_node4"><a xlink:title=" ">
<polygon fill="white" stroke="#bfbfbf" points="354.5,-0.5 354.5,-19.5 395.5,-19.5 395.5,-0.5 354.5,-0.5"/>
<text text-anchor="middle" x="375" y="-7.5" font-family="Helvetica,sans-Serif" font-size="10.00">string</text>
</a>
</g>
</g>
<!-- Node1&#45;&gt;Node4 -->
<g id="edge3" class="edge">
<title>Node1&#45;&gt;Node4</title>
<path fill="none" stroke="midnightblue" d="M328.63,-112.21C337.65,-102.69 348.82,-89.49 356,-76 363.77,-61.41 368.73,-43.23 371.63,-29.81"/>
<polygon fill="midnightblue" stroke="midnightblue" points="375.1,-30.33 373.6,-19.85 368.23,-28.98 375.1,-30.33"/>
</g>
<!-- Node5 -->
<g id="node5" class="node">
<title>Node5</title>
<g id="a_node5"><a xlink:href="Service_8h.html" target="_top" xlink:title="Service subscriber that can listen for events.">
<polygon fill="white" stroke="black" points="281.5,-56.5 281.5,-75.5 346.5,-75.5 346.5,-56.5 281.5,-56.5"/>
<text text-anchor="middle" x="314" y="-63.5" font-family="Helvetica,sans-Serif" font-size="10.00">../Service.h</text>
</a>
</g>
</g>
<!-- Node1&#45;&gt;Node5 -->
<g id="edge4" class="edge">
<title>Node1&#45;&gt;Node5</title>
<path fill="none" stroke="midnightblue" d="M314,-112.4C314,-104.47 314,-94.46 314,-85.86"/>
<polygon fill="midnightblue" stroke="midnightblue" points="317.5,-85.66 314,-75.66 310.5,-85.66 317.5,-85.66"/>
</g>
<!-- Node6 -->
<g id="node6" class="node">
<title>Node6</title>
<g id="a_node6"><a xlink:href="JoystickState_8h.html" target="_top" xlink:title="Container for storing Joystick state.">
<polygon fill="white" stroke="black" points="46.5,-56.5 46.5,-75.5 129.5,-75.5 129.5,-56.5 46.5,-56.5"/>
<text text-anchor="middle" x="88" y="-63.5" font-family="Helvetica,sans-Serif" font-size="10.00">JoystickState.h</text>
</a>
</g>
</g>
<!-- Node1&#45;&gt;Node6 -->
<g id="edge7" class="edge">
<title>Node1&#45;&gt;Node6</title>
<path fill="none" stroke="midnightblue" d="M260.73,-112.47C220.89,-101.99 167.14,-87.84 130.25,-78.12"/>
<polygon fill="midnightblue" stroke="midnightblue" points="130.87,-74.67 120.31,-75.51 129.09,-81.44 130.87,-74.67"/>
</g>
<!-- Node8 -->
<g id="node8" class="node">
<title>Node8</title>
<g id="a_node8"><a xlink:href="KeyboardState_8h.html" target="_top" xlink:title="Container for storing Keyboard state.">
<polygon fill="white" stroke="black" points="475,-56.5 475,-75.5 563,-75.5 563,-56.5 475,-56.5"/>
<text text-anchor="middle" x="519" y="-63.5" font-family="Helvetica,sans-Serif" font-size="10.00">KeyboardState.h</text>
</a>
</g>
</g>
<!-- Node1&#45;&gt;Node8 -->
<g id="edge10" class="edge">
<title>Node1&#45;&gt;Node8</title>
<path fill="none" stroke="midnightblue" d="M362.32,-112.47C398.15,-102.08 446.38,-88.08 479.82,-78.37"/>
<polygon fill="midnightblue" stroke="midnightblue" points="481.06,-81.66 489.69,-75.51 479.11,-74.93 481.06,-81.66"/>
</g>
<!-- Node10 -->
<g id="node10" class="node">
<title>Node10</title>
<g id="a_node10"><a xlink:href="MouseState_8h.html" target="_top" xlink:title="Container for storing Mouse state.">
<polygon fill="white" stroke="black" points="186.5,-56.5 186.5,-75.5 263.5,-75.5 263.5,-56.5 186.5,-56.5"/>
<text text-anchor="middle" x="225" y="-63.5" font-family="Helvetica,sans-Serif" font-size="10.00">MouseState.h</text>
</a>
</g>
</g>
<!-- Node1&#45;&gt;Node10 -->
<g id="edge12" class="edge">
<title>Node1&#45;&gt;Node10</title>
<path fill="none" stroke="midnightblue" d="M292.91,-112.4C278.91,-103.04 260.59,-90.79 246.51,-81.38"/>
<polygon fill="midnightblue" stroke="midnightblue" points="248.21,-78.31 237.95,-75.66 244.32,-84.13 248.21,-78.31"/>
</g>
<!-- Node5&#45;&gt;Node2 -->
<g id="edge5" class="edge">
<title>Node5&#45;&gt;Node2</title>
<path fill="none" stroke="midnightblue" d="M289.44,-56.44C263.48,-47.4 222.33,-33.06 193.2,-22.92"/>
<polygon fill="midnightblue" stroke="midnightblue" points="194.04,-19.5 183.45,-19.52 191.74,-26.11 194.04,-19.5"/>
</g>
<!-- Node5&#45;&gt;Node4 -->
<g id="edge6" class="edge">
<title>Node5&#45;&gt;Node4</title>
<path fill="none" stroke="midnightblue" d="M323.8,-56.32C332.82,-48.34 346.41,-36.31 357.32,-26.65"/>
<polygon fill="midnightblue" stroke="midnightblue" points="359.85,-29.08 365.02,-19.83 355.21,-23.84 359.85,-29.08"/>
</g>
<!-- Node6&#45;&gt;Node2 -->
<g id="edge8" class="edge">
<title>Node6&#45;&gt;Node2</title>
<path fill="none" stroke="midnightblue" d="M99.41,-56.32C110.11,-48.18 126.34,-35.84 139.16,-26.09"/>
<polygon fill="midnightblue" stroke="midnightblue" points="141.54,-28.67 147.39,-19.83 137.31,-23.1 141.54,-28.67"/>
</g>
<!-- Node7 -->
<g id="node7" class="node">
<title>Node7</title>
<g id="a_node7"><a xlink:href="JoystickCodes_8h.html" target="_top" xlink:title="Defines for codes used for joystick.">
<polygon fill="white" stroke="black" points="0,-0.5 0,-19.5 88,-19.5 88,-0.5 0,-0.5"/>
<text text-anchor="middle" x="44" y="-7.5" font-family="Helvetica,sans-Serif" font-size="10.00">JoystickCodes.h</text>
</a>
</g>
</g>
<!-- Node6&#45;&gt;Node7 -->
<g id="edge9" class="edge">
<title>Node6&#45;&gt;Node7</title>
<path fill="none" stroke="midnightblue" d="M80.73,-56.08C74.46,-48.38 65.21,-37.03 57.57,-27.65"/>
<polygon fill="midnightblue" stroke="midnightblue" points="60.16,-25.29 51.13,-19.75 54.73,-29.71 60.16,-25.29"/>
</g>
<!-- Node9 -->
<g id="node9" class="node">
<title>Node9</title>
<g id="a_node9"><a xlink:href="KeyboardKeys_8h.html" target="_top" xlink:title="Defenitions of keys that can be used by input manager.">
<polygon fill="white" stroke="black" points="476,-0.5 476,-19.5 562,-19.5 562,-0.5 476,-0.5"/>
<text text-anchor="middle" x="519" y="-7.5" font-family="Helvetica,sans-Serif" font-size="10.00">KeyboardKeys.h</text>
</a>
</g>
</g>
<!-- Node8&#45;&gt;Node9 -->
<g id="edge11" class="edge">
<title>Node8&#45;&gt;Node9</title>
<path fill="none" stroke="midnightblue" d="M519,-56.08C519,-49.01 519,-38.86 519,-29.99"/>
<polygon fill="midnightblue" stroke="midnightblue" points="522.5,-29.75 519,-19.75 515.5,-29.75 522.5,-29.75"/>
</g>
<!-- Node10&#45;&gt;Node2 -->
<g id="edge13" class="edge">
<title>Node10&#45;&gt;Node2</title>
<path fill="none" stroke="midnightblue" d="M214.4,-56.32C204.54,-48.26 189.65,-36.08 177.78,-26.37"/>
<polygon fill="midnightblue" stroke="midnightblue" points="179.75,-23.46 169.8,-19.83 175.32,-28.88 179.75,-23.46"/>
</g>
<!-- Node11 -->
<g id="node11" class="node">
<title>Node11</title>
<g id="a_node11"><a xlink:title=" ">
<polygon fill="white" stroke="#bfbfbf" points="230,-0.5 230,-19.5 336,-19.5 336,-0.5 230,-0.5"/>
<text text-anchor="middle" x="283" y="-7.5" font-family="Helvetica,sans-Serif" font-size="10.00">SDL2/SDL_mouse.h</text>
</a>
</g>
</g>
<!-- Node10&#45;&gt;Node11 -->
<g id="edge14" class="edge">
<title>Node10&#45;&gt;Node11</title>
<path fill="none" stroke="midnightblue" d="M234.32,-56.32C242.89,-48.34 255.81,-36.31 266.19,-26.65"/>
<polygon fill="midnightblue" stroke="midnightblue" points="268.58,-29.21 273.51,-19.83 263.81,-24.09 268.58,-29.21"/>
</g>
</g>
</svg>
