<?xml version="1.0" encoding="UTF-8" standalone="no"?>
<!DOCTYPE svg PUBLIC "-//W3C//DTD SVG 1.1//EN"
 "http://www.w3.org/Graphics/SVG/1.1/DTD/svg11.dtd">
<!-- Generated by graphviz version 2.46.1 (20210215.1649)
 -->
<!-- Title: src/entities/ui/Inputbox.cpp Pages: 1 -->
<svg width="2097pt" height="364pt"
 viewBox="0.00 0.00 2097.00 364.00" xmlns="http://www.w3.org/2000/svg" xmlns:xlink="http://www.w3.org/1999/xlink">
<g id="graph0" class="graph" transform="scale(1 1) rotate(0) translate(4 360)">
<title>src/entities/ui/Inputbox.cpp</title>
<polygon fill="white" stroke="transparent" points="-4,4 -4,-360 2093,-360 2093,4 -4,4"/>
<!-- Node1 -->
<g id="node1" class="node">
<title>Node1</title>
<g id="a_node1"><a xlink:title="Implementation of UI Inputbox.">
<polygon fill="#bfbfbf" stroke="black" points="588.5,-336.5 588.5,-355.5 721.5,-355.5 721.5,-336.5 588.5,-336.5"/>
<text text-anchor="middle" x="655" y="-343.5" font-family="Helvetica,sans-Serif" font-size="10.00">src/entities/ui/Inputbox.cpp</text>
</a>
</g>
</g>
<!-- Node2 -->
<g id="node2" class="node">
<title>Node2</title>
<g id="a_node2"><a xlink:title=" ">
<polygon fill="white" stroke="#bfbfbf" points="126.5,-168.5 126.5,-187.5 185.5,-187.5 185.5,-168.5 126.5,-168.5"/>
<text text-anchor="middle" x="156" y="-175.5" font-family="Helvetica,sans-Serif" font-size="10.00">functional</text>
</a>
</g>
</g>
<!-- Node1&#45;&gt;Node2 -->
<g id="edge1" class="edge">
<title>Node1&#45;&gt;Node2</title>
<path fill="none" stroke="midnightblue" d="M629.22,-336.42C546.33,-308.85 286.48,-222.41 191.35,-190.76"/>
<polygon fill="midnightblue" stroke="midnightblue" points="192.22,-187.36 181.62,-187.52 190.01,-194 192.22,-187.36"/>
</g>
<!-- Node3 -->
<g id="node3" class="node">
<title>Node3</title>
<g id="a_node3"><a xlink:title=" ">
<polygon fill="white" stroke="#bfbfbf" points="1608,-112.5 1608,-131.5 1662,-131.5 1662,-112.5 1608,-112.5"/>
<text text-anchor="middle" x="1635" y="-119.5" font-family="Helvetica,sans-Serif" font-size="10.00">iostream</text>
</a>
</g>
</g>
<!-- Node1&#45;&gt;Node3 -->
<g id="edge2" class="edge">
<title>Node1&#45;&gt;Node3</title>
<path fill="none" stroke="midnightblue" d="M721.55,-343.38C934.36,-337.5 1587.91,-313.86 1649,-244 1674.19,-215.19 1656.77,-166.64 1644.39,-140.66"/>
<polygon fill="midnightblue" stroke="midnightblue" points="1647.46,-138.97 1639.84,-131.61 1641.21,-142.11 1647.46,-138.97"/>
</g>
<!-- Node4 -->
<g id="node4" class="node">
<title>Node4</title>
<g id="a_node4"><a xlink:href="Inputbox_8h.html" target="_top" xlink:title="UI Inputbox.">
<polygon fill="white" stroke="black" points="602,-280.5 602,-299.5 708,-299.5 708,-280.5 602,-280.5"/>
<text text-anchor="middle" x="655" y="-287.5" font-family="Helvetica,sans-Serif" font-size="10.00">entities/ui/Inputbox.h</text>
</a>
</g>
</g>
<!-- Node1&#45;&gt;Node4 -->
<g id="edge3" class="edge">
<title>Node1&#45;&gt;Node4</title>
<path fill="none" stroke="midnightblue" d="M655,-336.08C655,-329.01 655,-318.86 655,-309.99"/>
<polygon fill="midnightblue" stroke="midnightblue" points="658.5,-309.75 655,-299.75 651.5,-309.75 658.5,-309.75"/>
</g>
<!-- Node9 -->
<g id="node9" class="node">
<title>Node9</title>
<g id="a_node9"><a xlink:href="Color_8h.html" target="_top" xlink:title="Helpers for creating colors without accessing SDL api directly.">
<polygon fill="white" stroke="black" points="110,-56.5 110,-75.5 188,-75.5 188,-56.5 110,-56.5"/>
<text text-anchor="middle" x="149" y="-63.5" font-family="Helvetica,sans-Serif" font-size="10.00">../color/Color.h</text>
</a>
</g>
</g>
<!-- Node1&#45;&gt;Node9 -->
<g id="edge17" class="edge">
<title>Node1&#45;&gt;Node9</title>
<path fill="none" stroke="midnightblue" d="M588.41,-342.27C467.77,-336.82 217.81,-323.09 134,-300 70.19,-282.41 0,-301.19 0,-235 0,-235 0,-235 0,-177 0,-123.94 61.91,-93.58 105.92,-78.7"/>
<polygon fill="midnightblue" stroke="midnightblue" points="107.12,-81.99 115.56,-75.59 104.97,-75.33 107.12,-81.99"/>
</g>
<!-- Node14 -->
<g id="node14" class="node">
<title>Node14</title>
<g id="a_node14"><a xlink:href="Primitives_8h.html" target="_top" xlink:title="Wrapper for SDL_GFX primitive types. Allows drawing without knowing about SDL.">
<polygon fill="white" stroke="black" points="143.5,-280.5 143.5,-299.5 256.5,-299.5 256.5,-280.5 143.5,-280.5"/>
<text text-anchor="middle" x="200" y="-287.5" font-family="Helvetica,sans-Serif" font-size="10.00">primitives/Primitives.h</text>
</a>
</g>
</g>
<!-- Node1&#45;&gt;Node14 -->
<g id="edge18" class="edge">
<title>Node1&#45;&gt;Node14</title>
<path fill="none" stroke="midnightblue" d="M588.35,-337.09C502.16,-326.86 352.91,-309.15 266.7,-298.92"/>
<polygon fill="midnightblue" stroke="midnightblue" points="267.1,-295.44 256.76,-297.74 266.28,-302.39 267.1,-295.44"/>
</g>
<!-- Node15 -->
<g id="node15" class="node">
<title>Node15</title>
<g id="a_node15"><a xlink:href="Scene_8h.html" target="_top" xlink:title="Parent scene class. Children can be added to scene manager.">
<polygon fill="white" stroke="black" points="1142.5,-280.5 1142.5,-299.5 1223.5,-299.5 1223.5,-280.5 1142.5,-280.5"/>
<text text-anchor="middle" x="1183" y="-287.5" font-family="Helvetica,sans-Serif" font-size="10.00">scene/Scene.h</text>
</a>
</g>
</g>
<!-- Node1&#45;&gt;Node15 -->
<g id="edge20" class="edge">
<title>Node1&#45;&gt;Node15</title>
<path fill="none" stroke="midnightblue" d="M721.6,-338.19C828.6,-327.25 1036.45,-305.99 1132.32,-296.18"/>
<polygon fill="midnightblue" stroke="midnightblue" points="1132.75,-299.66 1142.34,-295.16 1132.04,-292.69 1132.75,-299.66"/>
</g>
<!-- Node21 -->
<g id="node21" class="node">
<title>Node21</title>
<g id="a_node21"><a xlink:href="Services_8h.html" target="_top" xlink:title="Implementation of core Services class.">
<polygon fill="white" stroke="black" points="850,-224.5 850,-243.5 960,-243.5 960,-224.5 850,-224.5"/>
<text text-anchor="middle" x="905" y="-231.5" font-family="Helvetica,sans-Serif" font-size="10.00">../services/Services.h</text>
</a>
</g>
</g>
<!-- Node1&#45;&gt;Node21 -->
<g id="edge86" class="edge">
<title>Node1&#45;&gt;Node21</title>
<path fill="none" stroke="midnightblue" d="M674.62,-336.37C718.52,-317.05 824.87,-270.26 876.25,-247.65"/>
<polygon fill="midnightblue" stroke="midnightblue" points="877.73,-250.82 885.47,-243.59 874.91,-244.42 877.73,-250.82"/>
</g>
<!-- Node5 -->
<g id="node5" class="node">
<title>Node5</title>
<g id="a_node5"><a xlink:href="UIElement_8h.html" target="_top" xlink:title="Parent class of many other UIElement subclasses. Handles most things that all UIElements may need.">
<polygon fill="white" stroke="black" points="452,-224.5 452,-243.5 522,-243.5 522,-224.5 452,-224.5"/>
<text text-anchor="middle" x="487" y="-231.5" font-family="Helvetica,sans-Serif" font-size="10.00">UIElement.h</text>
</a>
</g>
</g>
<!-- Node4&#45;&gt;Node5 -->
<g id="edge4" class="edge">
<title>Node4&#45;&gt;Node5</title>
<path fill="none" stroke="midnightblue" d="M628.38,-280.44C599.99,-271.32 554.86,-256.81 523.25,-246.65"/>
<polygon fill="midnightblue" stroke="midnightblue" points="524.09,-243.24 513.5,-243.52 521.94,-249.91 524.09,-243.24"/>
</g>
<!-- Node6 -->
<g id="node6" class="node">
<title>Node6</title>
<g id="a_node6"><a xlink:title=" ">
<polygon fill="white" stroke="#bfbfbf" points="946.5,-56.5 946.5,-75.5 987.5,-75.5 987.5,-56.5 946.5,-56.5"/>
<text text-anchor="middle" x="967" y="-63.5" font-family="Helvetica,sans-Serif" font-size="10.00">string</text>
</a>
</g>
</g>
<!-- Node4&#45;&gt;Node6 -->
<g id="edge16" class="edge">
<title>Node4&#45;&gt;Node6</title>
<path fill="none" stroke="midnightblue" d="M708.11,-282.89C878.85,-263.12 1403.26,-201.41 1415,-188 1438.92,-160.7 1404.03,-127.89 1378,-112 1314.17,-73.04 1081.96,-67.69 997.76,-67.05"/>
<polygon fill="midnightblue" stroke="midnightblue" points="997.59,-63.55 987.57,-66.99 997.55,-70.55 997.59,-63.55"/>
</g>
<!-- Node5&#45;&gt;Node2 -->
<g id="edge5" class="edge">
<title>Node5&#45;&gt;Node2</title>
<path fill="none" stroke="midnightblue" d="M451.56,-227.98C397.28,-220.17 290.33,-204.31 200,-188 198.56,-187.74 197.1,-187.47 195.62,-187.19"/>
<polygon fill="midnightblue" stroke="midnightblue" points="196.27,-183.75 185.79,-185.29 194.94,-190.63 196.27,-183.75"/>
</g>
<!-- Node5&#45;&gt;Node6 -->
<g id="edge6" class="edge">
<title>Node5&#45;&gt;Node6</title>
<path fill="none" stroke="midnightblue" d="M495.29,-224.07C508.14,-210.6 534.12,-184.86 560,-168 592.33,-146.93 604.02,-148.3 639,-132 657.74,-123.27 661.25,-118.11 681,-112 728.32,-97.35 872.31,-78.58 936.06,-70.72"/>
<polygon fill="midnightblue" stroke="midnightblue" points="936.78,-74.16 946.28,-69.47 935.93,-67.21 936.78,-74.16"/>
</g>
<!-- Node7 -->
<g id="node7" class="node">
<title>Node7</title>
<g id="a_node7"><a xlink:href="Font_8h.html" target="_top" xlink:title="Easy interface to interact with SDL fonts.">
<polygon fill="white" stroke="black" points="66.5,-112.5 66.5,-131.5 157.5,-131.5 157.5,-112.5 66.5,-112.5"/>
<text text-anchor="middle" x="112" y="-119.5" font-family="Helvetica,sans-Serif" font-size="10.00">../../assets/Font.h</text>
</a>
</g>
</g>
<!-- Node5&#45;&gt;Node7 -->
<g id="edge7" class="edge">
<title>Node5&#45;&gt;Node7</title>
<path fill="none" stroke="midnightblue" d="M451.75,-230.24C402.05,-225.56 309.05,-213.94 234,-188 223.94,-184.52 169.19,-154.62 136.55,-136.61"/>
<polygon fill="midnightblue" stroke="midnightblue" points="138.04,-133.44 127.6,-131.66 134.65,-139.56 138.04,-133.44"/>
</g>
<!-- Node11 -->
<g id="node11" class="node">
<title>Node11</title>
<g id="a_node11"><a xlink:href="GameObject_8h.html" target="_top" xlink:title="Implementation of GameObject class.">
<polygon fill="white" stroke="black" points="1148,-168.5 1148,-187.5 1234,-187.5 1234,-168.5 1148,-168.5"/>
<text text-anchor="middle" x="1191" y="-175.5" font-family="Helvetica,sans-Serif" font-size="10.00">../GameObject.h</text>
</a>
</g>
</g>
<!-- Node5&#45;&gt;Node11 -->
<g id="edge12" class="edge">
<title>Node5&#45;&gt;Node11</title>
<path fill="none" stroke="midnightblue" d="M522.33,-230.74C616.45,-224.65 881.11,-207.05 1101,-188 1112.98,-186.96 1125.84,-185.74 1137.99,-184.54"/>
<polygon fill="midnightblue" stroke="midnightblue" points="1138.39,-188.01 1147.99,-183.54 1137.69,-181.05 1138.39,-188.01"/>
</g>
<!-- Node7&#45;&gt;Node6 -->
<g id="edge9" class="edge">
<title>Node7&#45;&gt;Node6</title>
<path fill="none" stroke="midnightblue" d="M157.85,-116.17C172.86,-114.7 189.63,-113.16 205,-112 499.26,-89.78 573.67,-97.36 868,-76 890.8,-74.35 916.51,-71.99 936.02,-70.11"/>
<polygon fill="midnightblue" stroke="midnightblue" points="936.55,-73.57 946.16,-69.12 935.87,-66.61 936.55,-73.57"/>
</g>
<!-- Node8 -->
<g id="node8" class="node">
<title>Node8</title>
<g id="a_node8"><a xlink:title=" ">
<polygon fill="white" stroke="#bfbfbf" points="6,-56.5 6,-75.5 92,-75.5 92,-56.5 6,-56.5"/>
<text text-anchor="middle" x="49" y="-63.5" font-family="Helvetica,sans-Serif" font-size="10.00">SDL2/SDL_ttf.h</text>
</a>
</g>
</g>
<!-- Node7&#45;&gt;Node8 -->
<g id="edge8" class="edge">
<title>Node7&#45;&gt;Node8</title>
<path fill="none" stroke="midnightblue" d="M101.88,-112.32C92.47,-104.26 78.26,-92.08 66.93,-82.37"/>
<polygon fill="midnightblue" stroke="midnightblue" points="69.18,-79.68 59.31,-75.83 64.62,-85 69.18,-79.68"/>
</g>
<!-- Node7&#45;&gt;Node9 -->
<g id="edge10" class="edge">
<title>Node7&#45;&gt;Node9</title>
<path fill="none" stroke="midnightblue" d="M118.11,-112.08C123.28,-104.53 130.85,-93.49 137.19,-84.23"/>
<polygon fill="midnightblue" stroke="midnightblue" points="140.24,-85.98 143,-75.75 134.46,-82.02 140.24,-85.98"/>
</g>
<!-- Node10 -->
<g id="node10" class="node">
<title>Node10</title>
<g id="a_node10"><a xlink:title=" ">
<polygon fill="white" stroke="#bfbfbf" points="80,-0.5 80,-19.5 218,-19.5 218,-0.5 80,-0.5"/>
<text text-anchor="middle" x="149" y="-7.5" font-family="Helvetica,sans-Serif" font-size="10.00">SDL2/SDL2_gfxPrimitives.h</text>
</a>
</g>
</g>
<!-- Node9&#45;&gt;Node10 -->
<g id="edge11" class="edge">
<title>Node9&#45;&gt;Node10</title>
<path fill="none" stroke="midnightblue" d="M149,-56.08C149,-49.01 149,-38.86 149,-29.99"/>
<polygon fill="midnightblue" stroke="midnightblue" points="152.5,-29.75 149,-19.75 145.5,-29.75 152.5,-29.75"/>
</g>
<!-- Node11&#45;&gt;Node6 -->
<g id="edge14" class="edge">
<title>Node11&#45;&gt;Node6</title>
<path fill="none" stroke="midnightblue" d="M1191.25,-168.44C1191.15,-154.5 1188.82,-126.97 1173,-112 1148.05,-88.39 1048.99,-75.21 997.88,-69.86"/>
<polygon fill="midnightblue" stroke="midnightblue" points="998.04,-66.36 987.74,-68.84 997.34,-73.32 998.04,-66.36"/>
</g>
<!-- Node12 -->
<g id="node12" class="node">
<title>Node12</title>
<g id="a_node12"><a xlink:title=" ">
<polygon fill="white" stroke="#bfbfbf" points="787.5,-56.5 787.5,-75.5 858.5,-75.5 858.5,-56.5 787.5,-56.5"/>
<text text-anchor="middle" x="823" y="-63.5" font-family="Helvetica,sans-Serif" font-size="10.00">SDL2/SDL.h</text>
</a>
</g>
</g>
<!-- Node11&#45;&gt;Node12 -->
<g id="edge13" class="edge">
<title>Node11&#45;&gt;Node12</title>
<path fill="none" stroke="midnightblue" d="M1186.83,-168.07C1179.56,-153.6 1163.11,-125.33 1140,-112 1116.94,-98.7 950.9,-80.11 868.77,-71.59"/>
<polygon fill="midnightblue" stroke="midnightblue" points="869.01,-68.1 858.71,-70.55 868.29,-75.06 869.01,-68.1"/>
</g>
<!-- Node13 -->
<g id="node13" class="node">
<title>Node13</title>
<g id="a_node13"><a xlink:title=" ">
<polygon fill="white" stroke="#bfbfbf" points="1087,-112.5 1087,-131.5 1131,-131.5 1131,-112.5 1087,-112.5"/>
<text text-anchor="middle" x="1109" y="-119.5" font-family="Helvetica,sans-Serif" font-size="10.00">vector</text>
</a>
</g>
</g>
<!-- Node11&#45;&gt;Node13 -->
<g id="edge15" class="edge">
<title>Node11&#45;&gt;Node13</title>
<path fill="none" stroke="midnightblue" d="M1177.83,-168.32C1165.15,-159.98 1145.77,-147.21 1130.79,-137.35"/>
<polygon fill="midnightblue" stroke="midnightblue" points="1132.42,-134.23 1122.14,-131.65 1128.57,-140.08 1132.42,-134.23"/>
</g>
<!-- Node14&#45;&gt;Node9 -->
<g id="edge19" class="edge">
<title>Node14&#45;&gt;Node9</title>
<path fill="none" stroke="midnightblue" d="M187.19,-280.26C157.38,-259.05 83.89,-201.45 57,-132 53.79,-123.71 52.29,-119.54 57,-112 66.76,-96.36 83.7,-86.01 100.4,-79.23"/>
<polygon fill="midnightblue" stroke="midnightblue" points="101.98,-82.38 110.15,-75.64 99.56,-75.81 101.98,-82.38"/>
</g>
<!-- Node15&#45;&gt;Node6 -->
<g id="edge23" class="edge">
<title>Node15&#45;&gt;Node6</title>
<path fill="none" stroke="midnightblue" d="M1223.79,-283.09C1306.12,-270.24 1487.37,-236.9 1523,-188 1528.23,-180.82 1526.98,-175.95 1523,-168 1504.36,-130.81 1486.83,-126.94 1448,-112 1365.18,-80.13 1090.6,-70.2 997.89,-67.71"/>
<polygon fill="midnightblue" stroke="midnightblue" points="997.84,-64.21 987.75,-67.45 997.66,-71.21 997.84,-64.21"/>
</g>
<!-- Node15&#45;&gt;Node11 -->
<g id="edge29" class="edge">
<title>Node15&#45;&gt;Node11</title>
<path fill="none" stroke="midnightblue" d="M1183.63,-280.37C1184.92,-262.62 1187.9,-221.67 1189.65,-197.6"/>
<polygon fill="midnightblue" stroke="midnightblue" points="1193.14,-197.82 1190.38,-187.59 1186.16,-197.31 1193.14,-197.82"/>
</g>
<!-- Node15&#45;&gt;Node13 -->
<g id="edge25" class="edge">
<title>Node15&#45;&gt;Node13</title>
<path fill="none" stroke="midnightblue" d="M1179.02,-280.08C1167.32,-253.83 1132.87,-176.55 1117.08,-141.12"/>
<polygon fill="midnightblue" stroke="midnightblue" points="1120.09,-139.28 1112.82,-131.57 1113.69,-142.13 1120.09,-139.28"/>
</g>
<!-- Node16 -->
<g id="node16" class="node">
<title>Node16</title>
<g id="a_node16"><a xlink:title=" ">
<polygon fill="white" stroke="#bfbfbf" points="689.5,-112.5 689.5,-131.5 724.5,-131.5 724.5,-112.5 689.5,-112.5"/>
<text text-anchor="middle" x="707" y="-119.5" font-family="Helvetica,sans-Serif" font-size="10.00">map</text>
</a>
</g>
</g>
<!-- Node15&#45;&gt;Node16 -->
<g id="edge21" class="edge">
<title>Node15&#45;&gt;Node16</title>
<path fill="none" stroke="midnightblue" d="M1142.12,-288.95C1016.71,-287.83 641.52,-276.97 569,-188 563.38,-181.11 563.78,-175.19 569,-168 572.35,-163.38 640.17,-142.73 679.46,-131.08"/>
<polygon fill="midnightblue" stroke="midnightblue" points="680.65,-134.38 689.25,-128.19 678.67,-127.66 680.65,-134.38"/>
</g>
<!-- Node17 -->
<g id="node17" class="node">
<title>Node17</title>
<g id="a_node17"><a xlink:title=" ">
<polygon fill="white" stroke="#bfbfbf" points="1462.5,-168.5 1462.5,-187.5 1513.5,-187.5 1513.5,-168.5 1462.5,-168.5"/>
<text text-anchor="middle" x="1488" y="-175.5" font-family="Helvetica,sans-Serif" font-size="10.00">memory</text>
</a>
</g>
</g>
<!-- Node15&#45;&gt;Node17 -->
<g id="edge22" class="edge">
<title>Node15&#45;&gt;Node17</title>
<path fill="none" stroke="midnightblue" d="M1206.68,-280.46C1260.51,-261.05 1392.2,-213.55 1454.41,-191.12"/>
<polygon fill="midnightblue" stroke="midnightblue" points="1455.91,-194.3 1464.13,-187.61 1453.53,-187.71 1455.91,-194.3"/>
</g>
<!-- Node18 -->
<g id="node18" class="node">
<title>Node18</title>
<g id="a_node18"><a xlink:title=" ">
<polygon fill="white" stroke="#bfbfbf" points="1211.5,-224.5 1211.5,-243.5 1250.5,-243.5 1250.5,-224.5 1211.5,-224.5"/>
<text text-anchor="middle" x="1231" y="-231.5" font-family="Helvetica,sans-Serif" font-size="10.00">utility</text>
</a>
</g>
</g>
<!-- Node15&#45;&gt;Node18 -->
<g id="edge24" class="edge">
<title>Node15&#45;&gt;Node18</title>
<path fill="none" stroke="midnightblue" d="M1190.93,-280.08C1197.85,-272.3 1208.07,-260.8 1216.45,-251.37"/>
<polygon fill="midnightblue" stroke="midnightblue" points="1219.19,-253.55 1223.22,-243.75 1213.96,-248.9 1219.19,-253.55"/>
</g>
<!-- Node19 -->
<g id="node19" class="node">
<title>Node19</title>
<g id="a_node19"><a xlink:href="Exceptions_8h.html" target="_top" xlink:title="Interally used exceptions. These can be handled properly in the main game class.">
<polygon fill="white" stroke="black" points="1520.5,-224.5 1520.5,-243.5 1639.5,-243.5 1639.5,-224.5 1520.5,-224.5"/>
<text text-anchor="middle" x="1580" y="-231.5" font-family="Helvetica,sans-Serif" font-size="10.00">../common/Exceptions.h</text>
</a>
</g>
</g>
<!-- Node15&#45;&gt;Node19 -->
<g id="edge26" class="edge">
<title>Node15&#45;&gt;Node19</title>
<path fill="none" stroke="midnightblue" d="M1223.62,-283.47C1291.06,-274.3 1426.93,-255.82 1510.04,-244.52"/>
<polygon fill="midnightblue" stroke="midnightblue" points="1510.72,-247.96 1520.16,-243.14 1509.78,-241.02 1510.72,-247.96"/>
</g>
<!-- Node15&#45;&gt;Node21 -->
<g id="edge30" class="edge">
<title>Node15&#45;&gt;Node21</title>
<path fill="none" stroke="midnightblue" d="M1142.28,-281.09C1093.82,-271.68 1012.74,-255.93 959.07,-245.5"/>
<polygon fill="midnightblue" stroke="midnightblue" points="959.53,-242.03 949.05,-243.56 958.2,-248.9 959.53,-242.03"/>
</g>
<!-- Node19&#45;&gt;Node6 -->
<g id="edge28" class="edge">
<title>Node19&#45;&gt;Node6</title>
<path fill="none" stroke="midnightblue" d="M1581.39,-224.31C1584.43,-201.79 1589,-141.28 1556,-112 1514.01,-74.75 1113.04,-68.3 997.82,-67.21"/>
<polygon fill="midnightblue" stroke="midnightblue" points="997.61,-63.71 987.58,-67.12 997.55,-70.71 997.61,-63.71"/>
</g>
<!-- Node20 -->
<g id="node20" class="node">
<title>Node20</title>
<g id="a_node20"><a xlink:title=" ">
<polygon fill="white" stroke="#bfbfbf" points="1817.5,-168.5 1817.5,-187.5 1876.5,-187.5 1876.5,-168.5 1817.5,-168.5"/>
<text text-anchor="middle" x="1847" y="-175.5" font-family="Helvetica,sans-Serif" font-size="10.00">stdexcept</text>
</a>
</g>
</g>
<!-- Node19&#45;&gt;Node20 -->
<g id="edge27" class="edge">
<title>Node19&#45;&gt;Node20</title>
<path fill="none" stroke="midnightblue" d="M1626.16,-224.47C1670.32,-216.19 1739.02,-202.99 1807.11,-188.35"/>
<polygon fill="midnightblue" stroke="midnightblue" points="1808.12,-191.72 1817.15,-186.18 1806.64,-184.87 1808.12,-191.72"/>
</g>
<!-- Node21&#45;&gt;Node17 -->
<g id="edge31" class="edge">
<title>Node21&#45;&gt;Node17</title>
<path fill="none" stroke="midnightblue" d="M960.15,-228.76C1053.77,-221.43 1249.71,-205.48 1415,-188 1427.18,-186.71 1440.48,-185.13 1452.35,-183.65"/>
<polygon fill="midnightblue" stroke="midnightblue" points="1452.87,-187.11 1462.35,-182.38 1451.99,-180.16 1452.87,-187.11"/>
</g>
<!-- Node22 -->
<g id="node22" class="node">
<title>Node22</title>
<g id="a_node22"><a xlink:href="AssetService_8h.html" target="_top" xlink:title="Implementation of AssetService.">
<polygon fill="white" stroke="black" points="242.5,-168.5 242.5,-187.5 357.5,-187.5 357.5,-168.5 242.5,-168.5"/>
<text text-anchor="middle" x="300" y="-175.5" font-family="Helvetica,sans-Serif" font-size="10.00">assets/AssetService.h</text>
</a>
</g>
</g>
<!-- Node21&#45;&gt;Node22 -->
<g id="edge32" class="edge">
<title>Node21&#45;&gt;Node22</title>
<path fill="none" stroke="midnightblue" d="M849.92,-229.31C754.18,-222.69 550.63,-207.73 367.79,-188.03"/>
<polygon fill="midnightblue" stroke="midnightblue" points="368.04,-184.54 357.72,-186.94 367.29,-191.5 368.04,-184.54"/>
</g>
<!-- Node27 -->
<g id="node27" class="node">
<title>Node27</title>
<g id="a_node27"><a xlink:href="AudioService_8h.html" target="_top" xlink:title="Default audio service, can actually play audio.">
<polygon fill="white" stroke="black" points="376,-168.5 376,-187.5 484,-187.5 484,-168.5 376,-168.5"/>
<text text-anchor="middle" x="430" y="-175.5" font-family="Helvetica,sans-Serif" font-size="10.00">audio/AudioService.h</text>
</a>
</g>
</g>
<!-- Node21&#45;&gt;Node27 -->
<g id="edge46" class="edge">
<title>Node21&#45;&gt;Node27</title>
<path fill="none" stroke="midnightblue" d="M849.58,-226.7C761.13,-216.64 588.45,-197.01 494.55,-186.34"/>
<polygon fill="midnightblue" stroke="midnightblue" points="494.67,-182.83 484.33,-185.18 493.88,-189.78 494.67,-182.83"/>
</g>
<!-- Node28 -->
<g id="node28" class="node">
<title>Node28</title>
<g id="a_node28"><a xlink:href="ConfigService_8h.html" target="_top" xlink:title="Header for default Config Service.">
<polygon fill="white" stroke="black" points="718.5,-168.5 718.5,-187.5 831.5,-187.5 831.5,-168.5 718.5,-168.5"/>
<text text-anchor="middle" x="775" y="-175.5" font-family="Helvetica,sans-Serif" font-size="10.00">config/ConfigService.h</text>
</a>
</g>
</g>
<!-- Node21&#45;&gt;Node28 -->
<g id="edge50" class="edge">
<title>Node21&#45;&gt;Node28</title>
<path fill="none" stroke="midnightblue" d="M884.4,-224.44C863.01,-215.56 829.32,-201.56 804.98,-191.45"/>
<polygon fill="midnightblue" stroke="midnightblue" points="806.08,-188.12 795.5,-187.52 803.39,-194.58 806.08,-188.12"/>
</g>
<!-- Node30 -->
<g id="node30" class="node">
<title>Node30</title>
<g id="a_node30"><a xlink:href="DisplayService_8h.html" target="_top" xlink:title="Service that encapsulates SDL display related functionality.">
<polygon fill="white" stroke="black" points="578,-168.5 578,-187.5 700,-187.5 700,-168.5 578,-168.5"/>
<text text-anchor="middle" x="639" y="-175.5" font-family="Helvetica,sans-Serif" font-size="10.00">display/DisplayService.h</text>
</a>
</g>
</g>
<!-- Node21&#45;&gt;Node30 -->
<g id="edge54" class="edge">
<title>Node21&#45;&gt;Node30</title>
<path fill="none" stroke="midnightblue" d="M862.85,-224.44C816.25,-214.98 741.16,-199.74 690.95,-189.55"/>
<polygon fill="midnightblue" stroke="midnightblue" points="691.45,-186.08 680.95,-187.52 690.06,-192.94 691.45,-186.08"/>
</g>
<!-- Node33 -->
<g id="node33" class="node">
<title>Node33</title>
<g id="a_node33"><a xlink:href="EventQueue_8h.html" target="_top" xlink:title="Handles SDL_Events from main SDL_Queue. Can be hooked into by other services and notified when change...">
<polygon fill="white" stroke="black" points="850,-168.5 850,-187.5 960,-187.5 960,-168.5 850,-168.5"/>
<text text-anchor="middle" x="905" y="-175.5" font-family="Helvetica,sans-Serif" font-size="10.00">events/EventQueue.h</text>
</a>
</g>
</g>
<!-- Node21&#45;&gt;Node33 -->
<g id="edge61" class="edge">
<title>Node21&#45;&gt;Node33</title>
<path fill="none" stroke="midnightblue" d="M905,-224.08C905,-217.01 905,-206.86 905,-197.99"/>
<polygon fill="midnightblue" stroke="midnightblue" points="908.5,-197.75 905,-187.75 901.5,-197.75 908.5,-197.75"/>
</g>
<!-- Node34 -->
<g id="node34" class="node">
<title>Node34</title>
<g id="a_node34"><a xlink:href="InputService_8h.html" target="_top" xlink:title="General Purpose input listener. Handles Mouse, Keyboard, Joystick.">
<polygon fill="white" stroke="black" points="1696.5,-168.5 1696.5,-187.5 1799.5,-187.5 1799.5,-168.5 1696.5,-168.5"/>
<text text-anchor="middle" x="1748" y="-175.5" font-family="Helvetica,sans-Serif" font-size="10.00">input/InputService.h</text>
</a>
</g>
</g>
<!-- Node21&#45;&gt;Node34 -->
<g id="edge65" class="edge">
<title>Node21&#45;&gt;Node34</title>
<path fill="none" stroke="midnightblue" d="M960.31,-229.46C1111.03,-219.8 1528.22,-193.08 1686.25,-182.96"/>
<polygon fill="midnightblue" stroke="midnightblue" points="1686.52,-186.45 1696.28,-182.31 1686.08,-179.46 1686.52,-186.45"/>
</g>
<!-- Node41 -->
<g id="node41" class="node">
<title>Node41</title>
<g id="a_node41"><a xlink:href="DebugLoggingService_8h.html" target="_top" xlink:title="Logging service that does the logging. Used for development.">
<polygon fill="white" stroke="black" points="1252.5,-168.5 1252.5,-187.5 1405.5,-187.5 1405.5,-168.5 1252.5,-168.5"/>
<text text-anchor="middle" x="1329" y="-175.5" font-family="Helvetica,sans-Serif" font-size="10.00">logging/DebugLoggingService.h</text>
</a>
</g>
</g>
<!-- Node21&#45;&gt;Node41 -->
<g id="edge78" class="edge">
<title>Node21&#45;&gt;Node41</title>
<path fill="none" stroke="midnightblue" d="M960.43,-225.94C1034.96,-216.45 1167.81,-199.53 1252,-188.81"/>
<polygon fill="midnightblue" stroke="midnightblue" points="1252.55,-192.27 1262.02,-187.53 1251.66,-185.32 1252.55,-192.27"/>
</g>
<!-- Node43 -->
<g id="node43" class="node">
<title>Node43</title>
<g id="a_node43"><a xlink:href="SceneService_8h.html" target="_top" xlink:title="Service in charge of managing scenes.">
<polygon fill="white" stroke="black" points="978,-168.5 978,-187.5 1092,-187.5 1092,-168.5 978,-168.5"/>
<text text-anchor="middle" x="1035" y="-175.5" font-family="Helvetica,sans-Serif" font-size="10.00">scene/SceneService.h</text>
</a>
</g>
</g>
<!-- Node21&#45;&gt;Node43 -->
<g id="edge82" class="edge">
<title>Node21&#45;&gt;Node43</title>
<path fill="none" stroke="midnightblue" d="M925.6,-224.44C946.99,-215.56 980.68,-201.56 1005.02,-191.45"/>
<polygon fill="midnightblue" stroke="midnightblue" points="1006.61,-194.58 1014.5,-187.52 1003.92,-188.12 1006.61,-194.58"/>
</g>
<!-- Node22&#45;&gt;Node6 -->
<g id="edge34" class="edge">
<title>Node22&#45;&gt;Node6</title>
<path fill="none" stroke="midnightblue" d="M305.67,-168.31C315.77,-153.67 338.45,-124.46 366,-112 467.91,-65.92 756.53,-85.06 868,-76 890.79,-74.15 916.5,-71.8 936.01,-69.97"/>
<polygon fill="midnightblue" stroke="midnightblue" points="936.52,-73.44 946.15,-69.01 935.87,-66.47 936.52,-73.44"/>
</g>
<!-- Node22&#45;&gt;Node7 -->
<g id="edge35" class="edge">
<title>Node22&#45;&gt;Node7</title>
<path fill="none" stroke="midnightblue" d="M270.21,-168.44C238.17,-159.24 187.07,-144.56 151.65,-134.39"/>
<polygon fill="midnightblue" stroke="midnightblue" points="152.23,-130.91 141.65,-131.52 150.29,-137.64 152.23,-130.91"/>
</g>
<!-- Node22&#45;&gt;Node16 -->
<g id="edge33" class="edge">
<title>Node22&#45;&gt;Node16</title>
<path fill="none" stroke="midnightblue" d="M357.74,-169.24C360.87,-168.82 363.98,-168.4 367,-168 482.88,-152.55 621.01,-134.33 679.1,-126.67"/>
<polygon fill="midnightblue" stroke="midnightblue" points="679.84,-130.11 689.3,-125.33 678.93,-123.17 679.84,-130.11"/>
</g>
<!-- Node23 -->
<g id="node23" class="node">
<title>Node23</title>
<g id="a_node23"><a xlink:href="Sound_8h.html" target="_top" xlink:title="Implementation of Sound.">
<polygon fill="white" stroke="black" points="374.5,-112.5 374.5,-131.5 473.5,-131.5 473.5,-112.5 374.5,-112.5"/>
<text text-anchor="middle" x="424" y="-119.5" font-family="Helvetica,sans-Serif" font-size="10.00">../../assets/Sound.h</text>
</a>
</g>
</g>
<!-- Node22&#45;&gt;Node23 -->
<g id="edge36" class="edge">
<title>Node22&#45;&gt;Node23</title>
<path fill="none" stroke="midnightblue" d="M319.65,-168.44C339.96,-159.6 371.9,-145.69 395.1,-135.59"/>
<polygon fill="midnightblue" stroke="midnightblue" points="396.67,-138.72 404.44,-131.52 393.88,-132.3 396.67,-138.72"/>
</g>
<!-- Node25 -->
<g id="node25" class="node">
<title>Node25</title>
<g id="a_node25"><a xlink:href="Stream_8h.html" target="_top" xlink:title="Wrapper for sdl stream including ability to store stream pointer. Use for single instance sounds like...">
<polygon fill="white" stroke="black" points="491.5,-112.5 491.5,-131.5 594.5,-131.5 594.5,-112.5 491.5,-112.5"/>
<text text-anchor="middle" x="543" y="-119.5" font-family="Helvetica,sans-Serif" font-size="10.00">../../assets/Stream.h</text>
</a>
</g>
</g>
<!-- Node22&#45;&gt;Node25 -->
<g id="edge39" class="edge">
<title>Node22&#45;&gt;Node25</title>
<path fill="none" stroke="midnightblue" d="M338.5,-168.44C380.81,-159.04 448.82,-143.93 494.67,-133.74"/>
<polygon fill="midnightblue" stroke="midnightblue" points="495.67,-137.1 504.68,-131.52 494.15,-130.27 495.67,-137.1"/>
</g>
<!-- Node26 -->
<g id="node26" class="node">
<title>Node26</title>
<g id="a_node26"><a xlink:href="Texture_8h.html" target="_top" xlink:title="Easy interface to interact with sdl bitmaps.">
<polygon fill="white" stroke="black" points="214,-112.5 214,-131.5 318,-131.5 318,-112.5 214,-112.5"/>
<text text-anchor="middle" x="266" y="-119.5" font-family="Helvetica,sans-Serif" font-size="10.00">../../assets/Texture.h</text>
</a>
</g>
</g>
<!-- Node22&#45;&gt;Node26 -->
<g id="edge42" class="edge">
<title>Node22&#45;&gt;Node26</title>
<path fill="none" stroke="midnightblue" d="M294.39,-168.08C289.63,-160.53 282.68,-149.49 276.85,-140.23"/>
<polygon fill="midnightblue" stroke="midnightblue" points="279.8,-138.35 271.51,-131.75 273.88,-142.08 279.8,-138.35"/>
</g>
<!-- Node23&#45;&gt;Node6 -->
<g id="edge38" class="edge">
<title>Node23&#45;&gt;Node6</title>
<path fill="none" stroke="midnightblue" d="M473.55,-113.23C476.74,-112.79 479.91,-112.38 483,-112 505.58,-109.23 833.48,-79.2 936.36,-69.8"/>
<polygon fill="midnightblue" stroke="midnightblue" points="936.77,-73.28 946.41,-68.88 936.13,-66.3 936.77,-73.28"/>
</g>
<!-- Node24 -->
<g id="node24" class="node">
<title>Node24</title>
<g id="a_node24"><a xlink:title=" ">
<polygon fill="white" stroke="#bfbfbf" points="433,-56.5 433,-75.5 533,-75.5 533,-56.5 433,-56.5"/>
<text text-anchor="middle" x="483" y="-63.5" font-family="Helvetica,sans-Serif" font-size="10.00">SDL2/SDL_mixer.h</text>
</a>
</g>
</g>
<!-- Node23&#45;&gt;Node24 -->
<g id="edge37" class="edge">
<title>Node23&#45;&gt;Node24</title>
<path fill="none" stroke="midnightblue" d="M433.48,-112.32C442.2,-104.34 455.34,-92.31 465.9,-82.65"/>
<polygon fill="midnightblue" stroke="midnightblue" points="468.33,-85.17 473.35,-75.83 463.61,-80 468.33,-85.17"/>
</g>
<!-- Node25&#45;&gt;Node6 -->
<g id="edge41" class="edge">
<title>Node25&#45;&gt;Node6</title>
<path fill="none" stroke="midnightblue" d="M594.52,-113.92C599.41,-113.27 604.3,-112.62 609,-112 729.99,-96.15 874.15,-78.36 936.15,-70.77"/>
<polygon fill="midnightblue" stroke="midnightblue" points="936.91,-74.2 946.41,-69.51 936.06,-67.25 936.91,-74.2"/>
</g>
<!-- Node25&#45;&gt;Node24 -->
<g id="edge40" class="edge">
<title>Node25&#45;&gt;Node24</title>
<path fill="none" stroke="midnightblue" d="M533.36,-112.32C524.49,-104.34 511.13,-92.31 500.39,-82.65"/>
<polygon fill="midnightblue" stroke="midnightblue" points="502.59,-79.92 492.82,-75.83 497.91,-85.13 502.59,-79.92"/>
</g>
<!-- Node26&#45;&gt;Node6 -->
<g id="edge44" class="edge">
<title>Node26&#45;&gt;Node6</title>
<path fill="none" stroke="midnightblue" d="M318.2,-113.55C322.86,-112.98 327.51,-112.46 332,-112 569.54,-87.86 629.98,-94.81 868,-76 890.79,-74.2 916.5,-71.85 936.01,-70.01"/>
<polygon fill="midnightblue" stroke="midnightblue" points="936.53,-73.47 946.15,-69.04 935.87,-66.5 936.53,-73.47"/>
</g>
<!-- Node26&#45;&gt;Node9 -->
<g id="edge45" class="edge">
<title>Node26&#45;&gt;Node9</title>
<path fill="none" stroke="midnightblue" d="M247.46,-112.44C228.38,-103.64 198.43,-89.81 176.56,-79.72"/>
<polygon fill="midnightblue" stroke="midnightblue" points="178,-76.53 167.45,-75.52 175.07,-82.88 178,-76.53"/>
</g>
<!-- Node26&#45;&gt;Node12 -->
<g id="edge43" class="edge">
<title>Node26&#45;&gt;Node12</title>
<path fill="none" stroke="midnightblue" d="M318.21,-113.66C322.87,-113.07 327.52,-112.51 332,-112 495.46,-93.37 690.22,-77.35 777.15,-70.52"/>
<polygon fill="midnightblue" stroke="midnightblue" points="777.52,-74 787.21,-69.74 776.97,-67.03 777.52,-74"/>
</g>
<!-- Node27&#45;&gt;Node6 -->
<g id="edge47" class="edge">
<title>Node27&#45;&gt;Node6</title>
<path fill="none" stroke="midnightblue" d="M471.77,-168.45C507.43,-160.61 559.8,-147.85 604,-132 623.84,-124.89 626.79,-117.98 647,-112 700.88,-96.07 866.32,-77.52 935.78,-70.2"/>
<polygon fill="midnightblue" stroke="midnightblue" points="936.49,-73.65 946.07,-69.13 935.76,-66.69 936.49,-73.65"/>
</g>
<!-- Node27&#45;&gt;Node23 -->
<g id="edge48" class="edge">
<title>Node27&#45;&gt;Node23</title>
<path fill="none" stroke="midnightblue" d="M429.01,-168.08C428.21,-160.93 427.07,-150.64 426.08,-141.69"/>
<polygon fill="midnightblue" stroke="midnightblue" points="429.56,-141.3 424.97,-131.75 422.6,-142.08 429.56,-141.3"/>
</g>
<!-- Node27&#45;&gt;Node25 -->
<g id="edge49" class="edge">
<title>Node27&#45;&gt;Node25</title>
<path fill="none" stroke="midnightblue" d="M447.91,-168.44C466.25,-159.68 495.01,-145.94 516.09,-135.86"/>
<polygon fill="midnightblue" stroke="midnightblue" points="517.67,-138.99 525.18,-131.52 514.65,-132.67 517.67,-138.99"/>
</g>
<!-- Node28&#45;&gt;Node6 -->
<g id="edge53" class="edge">
<title>Node28&#45;&gt;Node6</title>
<path fill="none" stroke="midnightblue" d="M799.55,-168.37C821.34,-160.28 853.72,-147.16 880,-132 905.45,-117.32 932.15,-96.42 949.15,-82.32"/>
<polygon fill="midnightblue" stroke="midnightblue" points="951.7,-84.75 957.1,-75.64 947.2,-79.4 951.7,-84.75"/>
</g>
<!-- Node28&#45;&gt;Node16 -->
<g id="edge51" class="edge">
<title>Node28&#45;&gt;Node16</title>
<path fill="none" stroke="midnightblue" d="M764.07,-168.32C753.83,-160.18 738.28,-147.84 726,-138.09"/>
<polygon fill="midnightblue" stroke="midnightblue" points="728.13,-135.31 718.12,-131.83 723.78,-140.79 728.13,-135.31"/>
</g>
<!-- Node29 -->
<g id="node29" class="node">
<title>Node29</title>
<g id="a_node29"><a xlink:title=" ">
<polygon fill="white" stroke="#bfbfbf" points="819,-112.5 819,-131.5 871,-131.5 871,-112.5 819,-112.5"/>
<text text-anchor="middle" x="845" y="-119.5" font-family="Helvetica,sans-Serif" font-size="10.00">sstream</text>
</a>
</g>
</g>
<!-- Node28&#45;&gt;Node29 -->
<g id="edge52" class="edge">
<title>Node28&#45;&gt;Node29</title>
<path fill="none" stroke="midnightblue" d="M786.25,-168.32C796.8,-160.18 812.8,-147.84 825.44,-138.09"/>
<polygon fill="midnightblue" stroke="midnightblue" points="827.77,-140.71 833.55,-131.83 823.49,-135.17 827.77,-140.71"/>
</g>
<!-- Node30&#45;&gt;Node6 -->
<g id="edge56" class="edge">
<title>Node30&#45;&gt;Node6</title>
<path fill="none" stroke="midnightblue" d="M663.85,-168.43C688.99,-159.65 728.91,-145.43 763,-132 784.12,-123.68 788.6,-119.59 810,-112 853.22,-96.68 904.49,-82.76 936.39,-74.58"/>
<polygon fill="midnightblue" stroke="midnightblue" points="937.59,-77.89 946.42,-72.03 935.87,-71.1 937.59,-77.89"/>
</g>
<!-- Node30&#45;&gt;Node9 -->
<g id="edge57" class="edge">
<title>Node30&#45;&gt;Node9</title>
<path fill="none" stroke="midnightblue" d="M577.67,-173.15C465.83,-165.78 237.27,-148.86 205,-132 184.64,-121.36 168.49,-99.95 158.86,-84.61"/>
<polygon fill="midnightblue" stroke="midnightblue" points="161.62,-82.39 153.5,-75.58 155.6,-85.96 161.62,-82.39"/>
</g>
<!-- Node30&#45;&gt;Node12 -->
<g id="edge55" class="edge">
<title>Node30&#45;&gt;Node12</title>
<path fill="none" stroke="midnightblue" d="M659.96,-168.43C679.61,-160.08 709.53,-146.55 734,-132 759.49,-116.84 786.73,-96.21 804.27,-82.29"/>
<polygon fill="midnightblue" stroke="midnightblue" points="806.89,-84.68 812.49,-75.69 802.5,-79.22 806.89,-84.68"/>
</g>
<!-- Node31 -->
<g id="node31" class="node">
<title>Node31</title>
<g id="a_node31"><a xlink:href="Service_8h.html" target="_top" xlink:title="Service subscriber that can listen for events.">
<polygon fill="white" stroke="black" points="965.5,-112.5 965.5,-131.5 1030.5,-131.5 1030.5,-112.5 965.5,-112.5"/>
<text text-anchor="middle" x="998" y="-119.5" font-family="Helvetica,sans-Serif" font-size="10.00">../Service.h</text>
</a>
</g>
</g>
<!-- Node30&#45;&gt;Node31 -->
<g id="edge58" class="edge">
<title>Node30&#45;&gt;Node31</title>
<path fill="none" stroke="midnightblue" d="M695.88,-168.44C767.8,-157.63 890.02,-139.24 954.77,-129.5"/>
<polygon fill="midnightblue" stroke="midnightblue" points="955.66,-132.91 965.03,-127.96 954.62,-125.99 955.66,-132.91"/>
</g>
<!-- Node31&#45;&gt;Node6 -->
<g id="edge60" class="edge">
<title>Node31&#45;&gt;Node6</title>
<path fill="none" stroke="midnightblue" d="M992.88,-112.08C988.59,-104.61 982.34,-93.72 977.06,-84.52"/>
<polygon fill="midnightblue" stroke="midnightblue" points="980.04,-82.68 972.02,-75.75 973.97,-86.17 980.04,-82.68"/>
</g>
<!-- Node32 -->
<g id="node32" class="node">
<title>Node32</title>
<g id="a_node32"><a xlink:title=" ">
<polygon fill="white" stroke="#bfbfbf" points="1877,-56.5 1877,-75.5 1983,-75.5 1983,-56.5 1877,-56.5"/>
<text text-anchor="middle" x="1930" y="-63.5" font-family="Helvetica,sans-Serif" font-size="10.00">SDL2/SDL_events.h</text>
</a>
</g>
</g>
<!-- Node31&#45;&gt;Node32 -->
<g id="edge59" class="edge">
<title>Node31&#45;&gt;Node32</title>
<path fill="none" stroke="midnightblue" d="M1030.65,-116.83C1045.13,-115.11 1062.39,-113.23 1078,-112 1425.05,-84.6 1516.37,-108.82 1866.76,-76.01"/>
<polygon fill="midnightblue" stroke="midnightblue" points="1867.32,-79.48 1876.94,-75.05 1866.66,-72.51 1867.32,-79.48"/>
</g>
<!-- Node33&#45;&gt;Node12 -->
<g id="edge62" class="edge">
<title>Node33&#45;&gt;Node12</title>
<path fill="none" stroke="midnightblue" d="M903.21,-168.29C900.18,-155.1 893.05,-129.72 880,-112 871.03,-99.82 857.96,-89.18 846.59,-81.3"/>
<polygon fill="midnightblue" stroke="midnightblue" points="848.23,-78.19 837.95,-75.61 844.37,-84.03 848.23,-78.19"/>
</g>
<!-- Node33&#45;&gt;Node13 -->
<g id="edge63" class="edge">
<title>Node33&#45;&gt;Node13</title>
<path fill="none" stroke="midnightblue" d="M937.32,-168.44C975.53,-158.33 1038.71,-141.61 1076.84,-131.51"/>
<polygon fill="midnightblue" stroke="midnightblue" points="1078.12,-134.8 1086.89,-128.85 1076.32,-128.03 1078.12,-134.8"/>
</g>
<!-- Node33&#45;&gt;Node31 -->
<g id="edge64" class="edge">
<title>Node33&#45;&gt;Node31</title>
<path fill="none" stroke="midnightblue" d="M919.94,-168.32C934.59,-159.82 957.13,-146.73 974.24,-136.8"/>
<polygon fill="midnightblue" stroke="midnightblue" points="976.2,-139.7 983.1,-131.65 972.69,-133.65 976.2,-139.7"/>
</g>
<!-- Node34&#45;&gt;Node3 -->
<g id="edge67" class="edge">
<title>Node34&#45;&gt;Node3</title>
<path fill="none" stroke="midnightblue" d="M1730.09,-168.44C1711.75,-159.68 1682.99,-145.94 1661.91,-135.86"/>
<polygon fill="midnightblue" stroke="midnightblue" points="1663.35,-132.67 1652.82,-131.52 1660.33,-138.99 1663.35,-132.67"/>
</g>
<!-- Node34&#45;&gt;Node6 -->
<g id="edge68" class="edge">
<title>Node34&#45;&gt;Node6</title>
<path fill="none" stroke="midnightblue" d="M1741.05,-168.28C1728.74,-153.58 1701.51,-124.27 1671,-112 1608,-86.66 1125.76,-71.45 997.99,-67.84"/>
<polygon fill="midnightblue" stroke="midnightblue" points="997.83,-64.33 987.74,-67.55 997.64,-71.33 997.83,-64.33"/>
</g>
<!-- Node34&#45;&gt;Node31 -->
<g id="edge69" class="edge">
<title>Node34&#45;&gt;Node31</title>
<path fill="none" stroke="midnightblue" d="M1696.24,-174.32C1583.67,-168.31 1308.2,-152.67 1078,-132 1065.94,-130.92 1052.88,-129.54 1040.88,-128.18"/>
<polygon fill="midnightblue" stroke="midnightblue" points="1041,-124.67 1030.66,-127.01 1040.2,-131.63 1041,-124.67"/>
</g>
<!-- Node34&#45;&gt;Node32 -->
<g id="edge66" class="edge">
<title>Node34&#45;&gt;Node32</title>
<path fill="none" stroke="midnightblue" d="M1799.39,-168.43C1840.98,-160.5 1895.16,-147.61 1911,-132 1923.16,-120.02 1927.64,-100.72 1929.24,-86.26"/>
<polygon fill="midnightblue" stroke="midnightblue" points="1932.75,-86.16 1929.99,-75.93 1925.77,-85.65 1932.75,-86.16"/>
</g>
<!-- Node35 -->
<g id="node35" class="node">
<title>Node35</title>
<g id="a_node35"><a xlink:href="JoystickState_8h.html" target="_top" xlink:title="Container for storing Joystick state.">
<polygon fill="white" stroke="black" points="1958.5,-112.5 1958.5,-131.5 2041.5,-131.5 2041.5,-112.5 1958.5,-112.5"/>
<text text-anchor="middle" x="2000" y="-119.5" font-family="Helvetica,sans-Serif" font-size="10.00">JoystickState.h</text>
</a>
</g>
</g>
<!-- Node34&#45;&gt;Node35 -->
<g id="edge70" class="edge">
<title>Node34&#45;&gt;Node35</title>
<path fill="none" stroke="midnightblue" d="M1787.93,-168.44C1831.89,-159.02 1902.63,-143.87 1950.18,-133.68"/>
<polygon fill="midnightblue" stroke="midnightblue" points="1951.21,-137.03 1960.26,-131.52 1949.75,-130.19 1951.21,-137.03"/>
</g>
<!-- Node37 -->
<g id="node37" class="node">
<title>Node37</title>
<g id="a_node37"><a xlink:href="KeyboardState_8h.html" target="_top" xlink:title="Container for storing Keyboard state.">
<polygon fill="white" stroke="black" points="1718,-112.5 1718,-131.5 1806,-131.5 1806,-112.5 1718,-112.5"/>
<text text-anchor="middle" x="1762" y="-119.5" font-family="Helvetica,sans-Serif" font-size="10.00">KeyboardState.h</text>
</a>
</g>
</g>
<!-- Node34&#45;&gt;Node37 -->
<g id="edge73" class="edge">
<title>Node34&#45;&gt;Node37</title>
<path fill="none" stroke="midnightblue" d="M1750.31,-168.08C1752.17,-160.93 1754.84,-150.64 1757.15,-141.69"/>
<polygon fill="midnightblue" stroke="midnightblue" points="1760.61,-142.31 1759.73,-131.75 1753.83,-140.55 1760.61,-142.31"/>
</g>
<!-- Node39 -->
<g id="node39" class="node">
<title>Node39</title>
<g id="a_node39"><a xlink:href="MouseState_8h.html" target="_top" xlink:title="Container for storing Mouse state.">
<polygon fill="white" stroke="black" points="1824.5,-112.5 1824.5,-131.5 1901.5,-131.5 1901.5,-112.5 1824.5,-112.5"/>
<text text-anchor="middle" x="1863" y="-119.5" font-family="Helvetica,sans-Serif" font-size="10.00">MouseState.h</text>
</a>
</g>
</g>
<!-- Node34&#45;&gt;Node39 -->
<g id="edge75" class="edge">
<title>Node34&#45;&gt;Node39</title>
<path fill="none" stroke="midnightblue" d="M1766.22,-168.44C1784.9,-159.68 1814.16,-145.94 1835.62,-135.86"/>
<polygon fill="midnightblue" stroke="midnightblue" points="1837.3,-138.93 1844.86,-131.52 1834.32,-132.6 1837.3,-138.93"/>
</g>
<!-- Node35&#45;&gt;Node32 -->
<g id="edge71" class="edge">
<title>Node35&#45;&gt;Node32</title>
<path fill="none" stroke="midnightblue" d="M1988.75,-112.32C1978.2,-104.18 1962.2,-91.84 1949.56,-82.09"/>
<polygon fill="midnightblue" stroke="midnightblue" points="1951.51,-79.17 1941.45,-75.83 1947.23,-84.71 1951.51,-79.17"/>
</g>
<!-- Node36 -->
<g id="node36" class="node">
<title>Node36</title>
<g id="a_node36"><a xlink:href="JoystickCodes_8h.html" target="_top" xlink:title="Defines for codes used for joystick.">
<polygon fill="white" stroke="black" points="2001,-56.5 2001,-75.5 2089,-75.5 2089,-56.5 2001,-56.5"/>
<text text-anchor="middle" x="2045" y="-63.5" font-family="Helvetica,sans-Serif" font-size="10.00">JoystickCodes.h</text>
</a>
</g>
</g>
<!-- Node35&#45;&gt;Node36 -->
<g id="edge72" class="edge">
<title>Node35&#45;&gt;Node36</title>
<path fill="none" stroke="midnightblue" d="M2007.43,-112.08C2013.85,-104.38 2023.31,-93.03 2031.12,-83.65"/>
<polygon fill="midnightblue" stroke="midnightblue" points="2033.99,-85.67 2037.71,-75.75 2028.62,-81.19 2033.99,-85.67"/>
</g>
<!-- Node38 -->
<g id="node38" class="node">
<title>Node38</title>
<g id="a_node38"><a xlink:href="KeyboardKeys_8h.html" target="_top" xlink:title="Defenitions of keys that can be used by input manager.">
<polygon fill="white" stroke="black" points="1649,-56.5 1649,-75.5 1735,-75.5 1735,-56.5 1649,-56.5"/>
<text text-anchor="middle" x="1692" y="-63.5" font-family="Helvetica,sans-Serif" font-size="10.00">KeyboardKeys.h</text>
</a>
</g>
</g>
<!-- Node37&#45;&gt;Node38 -->
<g id="edge74" class="edge">
<title>Node37&#45;&gt;Node38</title>
<path fill="none" stroke="midnightblue" d="M1750.75,-112.32C1740.2,-104.18 1724.2,-91.84 1711.56,-82.09"/>
<polygon fill="midnightblue" stroke="midnightblue" points="1713.51,-79.17 1703.45,-75.83 1709.23,-84.71 1713.51,-79.17"/>
</g>
<!-- Node39&#45;&gt;Node32 -->
<g id="edge76" class="edge">
<title>Node39&#45;&gt;Node32</title>
<path fill="none" stroke="midnightblue" d="M1873.76,-112.32C1883.77,-104.26 1898.89,-92.08 1910.93,-82.37"/>
<polygon fill="midnightblue" stroke="midnightblue" points="1913.45,-84.83 1919.04,-75.83 1909.06,-79.38 1913.45,-84.83"/>
</g>
<!-- Node40 -->
<g id="node40" class="node">
<title>Node40</title>
<g id="a_node40"><a xlink:title=" ">
<polygon fill="white" stroke="#bfbfbf" points="1753,-56.5 1753,-75.5 1859,-75.5 1859,-56.5 1753,-56.5"/>
<text text-anchor="middle" x="1806" y="-63.5" font-family="Helvetica,sans-Serif" font-size="10.00">SDL2/SDL_mouse.h</text>
</a>
</g>
</g>
<!-- Node39&#45;&gt;Node40 -->
<g id="edge77" class="edge">
<title>Node39&#45;&gt;Node40</title>
<path fill="none" stroke="midnightblue" d="M1853.84,-112.32C1845.5,-104.42 1832.97,-92.55 1822.82,-82.94"/>
<polygon fill="midnightblue" stroke="midnightblue" points="1824.99,-80.17 1815.32,-75.83 1820.18,-85.25 1824.99,-80.17"/>
</g>
<!-- Node41&#45;&gt;Node6 -->
<g id="edge79" class="edge">
<title>Node41&#45;&gt;Node6</title>
<path fill="none" stroke="midnightblue" d="M1314.02,-168.3C1289.5,-154.42 1238.94,-127.28 1193,-112 1125.14,-89.42 1041.85,-76.43 997.77,-70.65"/>
<polygon fill="midnightblue" stroke="midnightblue" points="998.06,-67.16 987.7,-69.37 997.18,-74.1 998.06,-67.16"/>
</g>
<!-- Node42 -->
<g id="node42" class="node">
<title>Node42</title>
<g id="a_node42"><a xlink:href="LoggingService_8h.html" target="_top" xlink:title="Default logging service. Does nothing. Use in production.">
<polygon fill="white" stroke="black" points="1277,-112.5 1277,-131.5 1369,-131.5 1369,-112.5 1277,-112.5"/>
<text text-anchor="middle" x="1323" y="-119.5" font-family="Helvetica,sans-Serif" font-size="10.00">LoggingService.h</text>
</a>
</g>
</g>
<!-- Node41&#45;&gt;Node42 -->
<g id="edge80" class="edge">
<title>Node41&#45;&gt;Node42</title>
<path fill="none" stroke="midnightblue" d="M1328.01,-168.08C1327.21,-160.93 1326.07,-150.64 1325.08,-141.69"/>
<polygon fill="midnightblue" stroke="midnightblue" points="1328.56,-141.3 1323.97,-131.75 1321.6,-142.08 1328.56,-141.3"/>
</g>
<!-- Node42&#45;&gt;Node6 -->
<g id="edge81" class="edge">
<title>Node42&#45;&gt;Node6</title>
<path fill="none" stroke="midnightblue" d="M1276.82,-114C1203.02,-102.8 1060.42,-81.17 997.78,-71.67"/>
<polygon fill="midnightblue" stroke="midnightblue" points="998.15,-68.19 987.74,-70.15 997.1,-75.11 998.15,-68.19"/>
</g>
<!-- Node43&#45;&gt;Node6 -->
<g id="edge83" class="edge">
<title>Node43&#45;&gt;Node6</title>
<path fill="none" stroke="midnightblue" d="M1038.53,-168.35C1043.28,-155.25 1050.04,-129.99 1040,-112 1030.8,-95.53 1012.83,-84.34 997.02,-77.24"/>
<polygon fill="midnightblue" stroke="midnightblue" points="998.13,-73.91 987.55,-73.33 995.46,-80.38 998.13,-73.91"/>
</g>
<!-- Node43&#45;&gt;Node13 -->
<g id="edge84" class="edge">
<title>Node43&#45;&gt;Node13</title>
<path fill="none" stroke="midnightblue" d="M1046.89,-168.32C1058.15,-160.11 1075.29,-147.6 1088.71,-137.81"/>
<polygon fill="midnightblue" stroke="midnightblue" points="1090.88,-140.56 1096.89,-131.83 1086.75,-134.9 1090.88,-140.56"/>
</g>
<!-- Node43&#45;&gt;Node31 -->
<g id="edge85" class="edge">
<title>Node43&#45;&gt;Node31</title>
<path fill="none" stroke="midnightblue" d="M1028.89,-168.08C1023.72,-160.53 1016.15,-149.49 1009.81,-140.23"/>
<polygon fill="midnightblue" stroke="midnightblue" points="1012.54,-138.02 1004,-131.75 1006.76,-141.98 1012.54,-138.02"/>
</g>
</g>
</svg>
