<?xml version="1.0" encoding="UTF-8" standalone="no"?>
<!DOCTYPE svg PUBLIC "-//W3C//DTD SVG 1.1//EN"
 "http://www.w3.org/Graphics/SVG/1.1/DTD/svg11.dtd">
<!-- Generated by graphviz version 2.46.1 (20210215.1649)
 -->
<!-- Title: src/entities/ui/Label.cpp Pages: 1 -->
<svg width="472pt" height="308pt"
 viewBox="0.00 0.00 472.00 308.00" xmlns="http://www.w3.org/2000/svg" xmlns:xlink="http://www.w3.org/1999/xlink">
<g id="graph0" class="graph" transform="scale(1 1) rotate(0) translate(4 304)">
<title>src/entities/ui/Label.cpp</title>
<polygon fill="white" stroke="transparent" points="-4,4 -4,-304 468,-304 468,4 -4,4"/>
<!-- Node1 -->
<g id="node1" class="node">
<title>Node1</title>
<g id="a_node1"><a xlink:title="Implementation of Label class.">
<polygon fill="#bfbfbf" stroke="black" points="261,-280.5 261,-299.5 381,-299.5 381,-280.5 261,-280.5"/>
<text text-anchor="middle" x="321" y="-287.5" font-family="Helvetica,sans-Serif" font-size="10.00">src/entities/ui/Label.cpp</text>
</a>
</g>
</g>
<!-- Node2 -->
<g id="node2" class="node">
<title>Node2</title>
<g id="a_node2"><a xlink:href="Label_8h.html" target="_top" xlink:title="UI Label that simply displays text.">
<polygon fill="white" stroke="black" points="200.5,-224.5 200.5,-243.5 293.5,-243.5 293.5,-224.5 200.5,-224.5"/>
<text text-anchor="middle" x="247" y="-231.5" font-family="Helvetica,sans-Serif" font-size="10.00">entities/ui/Label.h</text>
</a>
</g>
</g>
<!-- Node1&#45;&gt;Node2 -->
<g id="edge1" class="edge">
<title>Node1&#45;&gt;Node2</title>
<path fill="none" stroke="midnightblue" d="M309.11,-280.32C297.85,-272.11 280.71,-259.6 267.29,-249.81"/>
<polygon fill="midnightblue" stroke="midnightblue" points="269.25,-246.9 259.11,-243.83 265.12,-252.56 269.25,-246.9"/>
</g>
<!-- Node8 -->
<g id="node8" class="node">
<title>Node8</title>
<g id="a_node8"><a xlink:href="Color_8h.html" target="_top" xlink:title="Helpers for creating colors without accessing SDL api directly.">
<polygon fill="white" stroke="black" points="356,-56.5 356,-75.5 434,-75.5 434,-56.5 356,-56.5"/>
<text text-anchor="middle" x="395" y="-63.5" font-family="Helvetica,sans-Serif" font-size="10.00">../color/Color.h</text>
</a>
</g>
</g>
<!-- Node1&#45;&gt;Node8 -->
<g id="edge15" class="edge">
<title>Node1&#45;&gt;Node8</title>
<path fill="none" stroke="midnightblue" d="M324.26,-280.2C333.04,-256.44 357.72,-188.92 376,-132 381,-116.43 386.17,-98.6 389.86,-85.55"/>
<polygon fill="midnightblue" stroke="midnightblue" points="393.24,-86.45 392.56,-75.88 386.5,-84.56 393.24,-86.45"/>
</g>
<!-- Node3 -->
<g id="node3" class="node">
<title>Node3</title>
<g id="a_node3"><a xlink:href="UIElement_8h.html" target="_top" xlink:title="Parent class of many other UIElement subclasses. Handles most things that all UIElements may need.">
<polygon fill="white" stroke="black" points="149,-168.5 149,-187.5 219,-187.5 219,-168.5 149,-168.5"/>
<text text-anchor="middle" x="184" y="-175.5" font-family="Helvetica,sans-Serif" font-size="10.00">UIElement.h</text>
</a>
</g>
</g>
<!-- Node2&#45;&gt;Node3 -->
<g id="edge2" class="edge">
<title>Node2&#45;&gt;Node3</title>
<path fill="none" stroke="midnightblue" d="M236.88,-224.32C227.47,-216.26 213.26,-204.08 201.93,-194.37"/>
<polygon fill="midnightblue" stroke="midnightblue" points="204.18,-191.68 194.31,-187.83 199.62,-197 204.18,-191.68"/>
</g>
<!-- Node5 -->
<g id="node5" class="node">
<title>Node5</title>
<g id="a_node5"><a xlink:title=" ">
<polygon fill="white" stroke="#bfbfbf" points="190.5,-56.5 190.5,-75.5 231.5,-75.5 231.5,-56.5 190.5,-56.5"/>
<text text-anchor="middle" x="211" y="-63.5" font-family="Helvetica,sans-Serif" font-size="10.00">string</text>
</a>
</g>
</g>
<!-- Node2&#45;&gt;Node5 -->
<g id="edge14" class="edge">
<title>Node2&#45;&gt;Node5</title>
<path fill="none" stroke="midnightblue" d="M245.06,-224.08C239.4,-197.95 222.76,-121.21 215.03,-85.58"/>
<polygon fill="midnightblue" stroke="midnightblue" points="218.4,-84.6 212.86,-75.57 211.56,-86.08 218.4,-84.6"/>
</g>
<!-- Node4 -->
<g id="node4" class="node">
<title>Node4</title>
<g id="a_node4"><a xlink:title=" ">
<polygon fill="white" stroke="#bfbfbf" points="121.5,-112.5 121.5,-131.5 180.5,-131.5 180.5,-112.5 121.5,-112.5"/>
<text text-anchor="middle" x="151" y="-119.5" font-family="Helvetica,sans-Serif" font-size="10.00">functional</text>
</a>
</g>
</g>
<!-- Node3&#45;&gt;Node4 -->
<g id="edge3" class="edge">
<title>Node3&#45;&gt;Node4</title>
<path fill="none" stroke="midnightblue" d="M178.55,-168.08C173.99,-160.61 167.33,-149.72 161.71,-140.52"/>
<polygon fill="midnightblue" stroke="midnightblue" points="164.55,-138.46 156.35,-131.75 158.58,-142.11 164.55,-138.46"/>
</g>
<!-- Node3&#45;&gt;Node5 -->
<g id="edge4" class="edge">
<title>Node3&#45;&gt;Node5</title>
<path fill="none" stroke="midnightblue" d="M186.12,-168.37C190.48,-150.62 200.53,-109.67 206.44,-85.6"/>
<polygon fill="midnightblue" stroke="midnightblue" points="209.91,-86.14 208.89,-75.59 203.11,-84.47 209.91,-86.14"/>
</g>
<!-- Node6 -->
<g id="node6" class="node">
<title>Node6</title>
<g id="a_node6"><a xlink:href="Font_8h.html" target="_top" xlink:title="Easy interface to interact with SDL fonts.">
<polygon fill="white" stroke="black" points="275.5,-112.5 275.5,-131.5 366.5,-131.5 366.5,-112.5 275.5,-112.5"/>
<text text-anchor="middle" x="321" y="-119.5" font-family="Helvetica,sans-Serif" font-size="10.00">../../assets/Font.h</text>
</a>
</g>
</g>
<!-- Node3&#45;&gt;Node6 -->
<g id="edge5" class="edge">
<title>Node3&#45;&gt;Node6</title>
<path fill="none" stroke="midnightblue" d="M205.71,-168.44C228.35,-159.52 264.07,-145.44 289.75,-135.32"/>
<polygon fill="midnightblue" stroke="midnightblue" points="291.37,-138.44 299.39,-131.52 288.81,-131.93 291.37,-138.44"/>
</g>
<!-- Node10 -->
<g id="node10" class="node">
<title>Node10</title>
<g id="a_node10"><a xlink:href="GameObject_8h.html" target="_top" xlink:title="Implementation of GameObject class.">
<polygon fill="white" stroke="black" points="17,-112.5 17,-131.5 103,-131.5 103,-112.5 17,-112.5"/>
<text text-anchor="middle" x="60" y="-119.5" font-family="Helvetica,sans-Serif" font-size="10.00">../GameObject.h</text>
</a>
</g>
</g>
<!-- Node3&#45;&gt;Node10 -->
<g id="edge10" class="edge">
<title>Node3&#45;&gt;Node10</title>
<path fill="none" stroke="midnightblue" d="M164.35,-168.44C144.04,-159.6 112.1,-145.69 88.9,-135.59"/>
<polygon fill="midnightblue" stroke="midnightblue" points="90.12,-132.3 79.56,-131.52 87.33,-138.72 90.12,-132.3"/>
</g>
<!-- Node6&#45;&gt;Node5 -->
<g id="edge7" class="edge">
<title>Node6&#45;&gt;Node5</title>
<path fill="none" stroke="midnightblue" d="M303.33,-112.32C285.61,-103.62 258.1,-90.12 237.71,-80.11"/>
<polygon fill="midnightblue" stroke="midnightblue" points="239.15,-76.92 228.63,-75.65 236.06,-83.2 239.15,-76.92"/>
</g>
<!-- Node7 -->
<g id="node7" class="node">
<title>Node7</title>
<g id="a_node7"><a xlink:title=" ">
<polygon fill="white" stroke="#bfbfbf" points="252,-56.5 252,-75.5 338,-75.5 338,-56.5 252,-56.5"/>
<text text-anchor="middle" x="295" y="-63.5" font-family="Helvetica,sans-Serif" font-size="10.00">SDL2/SDL_ttf.h</text>
</a>
</g>
</g>
<!-- Node6&#45;&gt;Node7 -->
<g id="edge6" class="edge">
<title>Node6&#45;&gt;Node7</title>
<path fill="none" stroke="midnightblue" d="M316.71,-112.08C313.15,-104.69 307.98,-93.95 303.58,-84.81"/>
<polygon fill="midnightblue" stroke="midnightblue" points="306.71,-83.24 299.21,-75.75 300.4,-86.28 306.71,-83.24"/>
</g>
<!-- Node6&#45;&gt;Node8 -->
<g id="edge8" class="edge">
<title>Node6&#45;&gt;Node8</title>
<path fill="none" stroke="midnightblue" d="M332.89,-112.32C344.15,-104.11 361.29,-91.6 374.71,-81.81"/>
<polygon fill="midnightblue" stroke="midnightblue" points="376.88,-84.56 382.89,-75.83 372.75,-78.9 376.88,-84.56"/>
</g>
<!-- Node9 -->
<g id="node9" class="node">
<title>Node9</title>
<g id="a_node9"><a xlink:title=" ">
<polygon fill="white" stroke="#bfbfbf" points="326,-0.5 326,-19.5 464,-19.5 464,-0.5 326,-0.5"/>
<text text-anchor="middle" x="395" y="-7.5" font-family="Helvetica,sans-Serif" font-size="10.00">SDL2/SDL2_gfxPrimitives.h</text>
</a>
</g>
</g>
<!-- Node8&#45;&gt;Node9 -->
<g id="edge9" class="edge">
<title>Node8&#45;&gt;Node9</title>
<path fill="none" stroke="midnightblue" d="M395,-56.08C395,-49.01 395,-38.86 395,-29.99"/>
<polygon fill="midnightblue" stroke="midnightblue" points="398.5,-29.75 395,-19.75 391.5,-29.75 398.5,-29.75"/>
</g>
<!-- Node10&#45;&gt;Node5 -->
<g id="edge12" class="edge">
<title>Node10&#45;&gt;Node5</title>
<path fill="none" stroke="midnightblue" d="M83.93,-112.44C110.11,-103.08 152.15,-88.05 180.64,-77.86"/>
<polygon fill="midnightblue" stroke="midnightblue" points="181.87,-81.14 190.1,-74.47 179.51,-74.54 181.87,-81.14"/>
</g>
<!-- Node11 -->
<g id="node11" class="node">
<title>Node11</title>
<g id="a_node11"><a xlink:title=" ">
<polygon fill="white" stroke="#bfbfbf" points="62.5,-56.5 62.5,-75.5 133.5,-75.5 133.5,-56.5 62.5,-56.5"/>
<text text-anchor="middle" x="98" y="-63.5" font-family="Helvetica,sans-Serif" font-size="10.00">SDL2/SDL.h</text>
</a>
</g>
</g>
<!-- Node10&#45;&gt;Node11 -->
<g id="edge11" class="edge">
<title>Node10&#45;&gt;Node11</title>
<path fill="none" stroke="midnightblue" d="M66.27,-112.08C71.64,-104.46 79.52,-93.26 86.08,-83.94"/>
<polygon fill="midnightblue" stroke="midnightblue" points="88.95,-85.94 91.84,-75.75 83.22,-81.91 88.95,-85.94"/>
</g>
<!-- Node12 -->
<g id="node12" class="node">
<title>Node12</title>
<g id="a_node12"><a xlink:title=" ">
<polygon fill="white" stroke="#bfbfbf" points="0,-56.5 0,-75.5 44,-75.5 44,-56.5 0,-56.5"/>
<text text-anchor="middle" x="22" y="-63.5" font-family="Helvetica,sans-Serif" font-size="10.00">vector</text>
</a>
</g>
</g>
<!-- Node10&#45;&gt;Node12 -->
<g id="edge13" class="edge">
<title>Node10&#45;&gt;Node12</title>
<path fill="none" stroke="midnightblue" d="M53.73,-112.08C48.36,-104.46 40.48,-93.26 33.92,-83.94"/>
<polygon fill="midnightblue" stroke="midnightblue" points="36.78,-81.91 28.16,-75.75 31.05,-85.94 36.78,-81.91"/>
</g>
</g>
</svg>
