<?xml version="1.0" encoding="UTF-8" standalone="no"?>
<!DOCTYPE svg PUBLIC "-//W3C//DTD SVG 1.1//EN"
 "http://www.w3.org/Graphics/SVG/1.1/DTD/svg11.dtd">
<!-- Generated by graphviz version 2.46.1 (20210215.1649)
 -->
<!-- Title: src/entities/ui/MessageBox.cpp Pages: 1 -->
<svg width="1632pt" height="308pt"
 viewBox="0.00 0.00 1631.71 308.00" xmlns="http://www.w3.org/2000/svg" xmlns:xlink="http://www.w3.org/1999/xlink">
<g id="graph0" class="graph" transform="scale(1 1) rotate(0) translate(4 304)">
<title>src/entities/ui/MessageBox.cpp</title>
<polygon fill="white" stroke="transparent" points="-4,4 -4,-304 1627.71,-304 1627.71,4 -4,4"/>
<!-- Node1 -->
<g id="node1" class="node">
<title>Node1</title>
<g id="a_node1"><a xlink:title="Implementation of MessageBox.">
<polygon fill="#bfbfbf" stroke="black" points="302.71,-280.5 302.71,-299.5 454.71,-299.5 454.71,-280.5 302.71,-280.5"/>
<text text-anchor="middle" x="378.71" y="-287.5" font-family="Helvetica,sans-Serif" font-size="10.00">src/entities/ui/MessageBox.cpp</text>
</a>
</g>
</g>
<!-- Node2 -->
<g id="node2" class="node">
<title>Node2</title>
<g id="a_node2"><a xlink:href="MessageBox_8h.html" target="_top" xlink:title="Native message box.">
<polygon fill="white" stroke="black" points="250.21,-224.5 250.21,-243.5 375.21,-243.5 375.21,-224.5 250.21,-224.5"/>
<text text-anchor="middle" x="312.71" y="-231.5" font-family="Helvetica,sans-Serif" font-size="10.00">entities/ui/MessageBox.h</text>
</a>
</g>
</g>
<!-- Node1&#45;&gt;Node2 -->
<g id="edge1" class="edge">
<title>Node1&#45;&gt;Node2</title>
<path fill="none" stroke="midnightblue" d="M368.11,-280.32C358.26,-272.26 343.36,-260.08 331.5,-250.37"/>
<polygon fill="midnightblue" stroke="midnightblue" points="333.47,-247.46 323.51,-243.83 329.03,-252.88 333.47,-247.46"/>
</g>
<!-- Node4 -->
<g id="node4" class="node">
<title>Node4</title>
<g id="a_node4"><a xlink:href="Services_8h.html" target="_top" xlink:title="Implementation of core Services class.">
<polygon fill="white" stroke="black" points="659.71,-224.5 659.71,-243.5 761.71,-243.5 761.71,-224.5 659.71,-224.5"/>
<text text-anchor="middle" x="710.71" y="-231.5" font-family="Helvetica,sans-Serif" font-size="10.00">services/Services.h</text>
</a>
</g>
</g>
<!-- Node1&#45;&gt;Node4 -->
<g id="edge3" class="edge">
<title>Node1&#45;&gt;Node4</title>
<path fill="none" stroke="midnightblue" d="M431.32,-280.44C490.55,-270.81 586.69,-255.17 649.31,-244.99"/>
<polygon fill="midnightblue" stroke="midnightblue" points="650.14,-248.4 659.44,-243.34 649.01,-241.49 650.14,-248.4"/>
</g>
<!-- Node3 -->
<g id="node3" class="node">
<title>Node3</title>
<g id="a_node3"><a xlink:title=" ">
<polygon fill="white" stroke="#bfbfbf" points="575.21,-56.5 575.21,-75.5 616.21,-75.5 616.21,-56.5 575.21,-56.5"/>
<text text-anchor="middle" x="595.71" y="-63.5" font-family="Helvetica,sans-Serif" font-size="10.00">string</text>
</a>
</g>
</g>
<!-- Node2&#45;&gt;Node3 -->
<g id="edge2" class="edge">
<title>Node2&#45;&gt;Node3</title>
<path fill="none" stroke="midnightblue" d="M250.13,-228.52C143.15,-218.69 -56.64,-189.56 15.71,-112 54.99,-69.89 475.45,-82.08 532.71,-76 543.23,-74.88 554.69,-73.34 564.92,-71.85"/>
<polygon fill="midnightblue" stroke="midnightblue" points="565.68,-75.28 575.05,-70.34 564.64,-68.36 565.68,-75.28"/>
</g>
<!-- Node5 -->
<g id="node5" class="node">
<title>Node5</title>
<g id="a_node5"><a xlink:title=" ">
<polygon fill="white" stroke="#bfbfbf" points="862.21,-168.5 862.21,-187.5 913.21,-187.5 913.21,-168.5 862.21,-168.5"/>
<text text-anchor="middle" x="887.71" y="-175.5" font-family="Helvetica,sans-Serif" font-size="10.00">memory</text>
</a>
</g>
</g>
<!-- Node4&#45;&gt;Node5 -->
<g id="edge4" class="edge">
<title>Node4&#45;&gt;Node5</title>
<path fill="none" stroke="midnightblue" d="M738.76,-224.44C769.5,-215.06 818.89,-200 852.28,-189.81"/>
<polygon fill="midnightblue" stroke="midnightblue" points="853.55,-193.08 862.1,-186.82 851.51,-186.39 853.55,-193.08"/>
</g>
<!-- Node6 -->
<g id="node6" class="node">
<title>Node6</title>
<g id="a_node6"><a xlink:href="AssetService_8h.html" target="_top" xlink:title="Implementation of AssetService.">
<polygon fill="white" stroke="black" points="425.21,-168.5 425.21,-187.5 540.21,-187.5 540.21,-168.5 425.21,-168.5"/>
<text text-anchor="middle" x="482.71" y="-175.5" font-family="Helvetica,sans-Serif" font-size="10.00">assets/AssetService.h</text>
</a>
</g>
</g>
<!-- Node4&#45;&gt;Node6 -->
<g id="edge5" class="edge">
<title>Node4&#45;&gt;Node6</title>
<path fill="none" stroke="midnightblue" d="M674.59,-224.44C635.06,-215.08 571.62,-200.06 528.6,-189.87"/>
<polygon fill="midnightblue" stroke="midnightblue" points="529.21,-186.42 518.67,-187.52 527.6,-193.23 529.21,-186.42"/>
</g>
<!-- Node17 -->
<g id="node17" class="node">
<title>Node17</title>
<g id="a_node17"><a xlink:href="AudioService_8h.html" target="_top" xlink:title="Default audio service, can actually play audio.">
<polygon fill="white" stroke="black" points="92.71,-168.5 92.71,-187.5 200.71,-187.5 200.71,-168.5 92.71,-168.5"/>
<text text-anchor="middle" x="146.71" y="-175.5" font-family="Helvetica,sans-Serif" font-size="10.00">audio/AudioService.h</text>
</a>
</g>
</g>
<!-- Node4&#45;&gt;Node17 -->
<g id="edge23" class="edge">
<title>Node4&#45;&gt;Node17</title>
<path fill="none" stroke="midnightblue" d="M659.67,-228.11C556.72,-218.26 324.41,-196.01 211.19,-185.17"/>
<polygon fill="midnightblue" stroke="midnightblue" points="211.22,-181.66 200.94,-184.19 210.56,-188.63 211.22,-181.66"/>
</g>
<!-- Node18 -->
<g id="node18" class="node">
<title>Node18</title>
<g id="a_node18"><a xlink:href="ConfigService_8h.html" target="_top" xlink:title="Header for default Config Service.">
<polygon fill="white" stroke="black" points="294.21,-168.5 294.21,-187.5 407.21,-187.5 407.21,-168.5 294.21,-168.5"/>
<text text-anchor="middle" x="350.71" y="-175.5" font-family="Helvetica,sans-Serif" font-size="10.00">config/ConfigService.h</text>
</a>
</g>
</g>
<!-- Node4&#45;&gt;Node18 -->
<g id="edge27" class="edge">
<title>Node4&#45;&gt;Node18</title>
<path fill="none" stroke="midnightblue" d="M659.52,-225.32C595.96,-215.79 487.42,-199.51 417.41,-189"/>
<polygon fill="midnightblue" stroke="midnightblue" points="417.78,-185.52 407.37,-187.5 416.74,-192.44 417.78,-185.52"/>
</g>
<!-- Node20 -->
<g id="node20" class="node">
<title>Node20</title>
<g id="a_node20"><a xlink:href="DisplayService_8h.html" target="_top" xlink:title="Service that encapsulates SDL display related functionality.">
<polygon fill="white" stroke="black" points="1059.71,-168.5 1059.71,-187.5 1181.71,-187.5 1181.71,-168.5 1059.71,-168.5"/>
<text text-anchor="middle" x="1120.71" y="-175.5" font-family="Helvetica,sans-Serif" font-size="10.00">display/DisplayService.h</text>
</a>
</g>
</g>
<!-- Node4&#45;&gt;Node20 -->
<g id="edge31" class="edge">
<title>Node4&#45;&gt;Node20</title>
<path fill="none" stroke="midnightblue" d="M761.81,-226.27C834.35,-216.72 967.46,-199.18 1049.6,-188.37"/>
<polygon fill="midnightblue" stroke="midnightblue" points="1050.15,-191.82 1059.61,-187.05 1049.24,-184.88 1050.15,-191.82"/>
</g>
<!-- Node23 -->
<g id="node23" class="node">
<title>Node23</title>
<g id="a_node23"><a xlink:href="EventQueue_8h.html" target="_top" xlink:title="Handles SDL_Events from main SDL_Queue. Can be hooked into by other services and notified when change...">
<polygon fill="white" stroke="black" points="931.71,-168.5 931.71,-187.5 1041.71,-187.5 1041.71,-168.5 931.71,-168.5"/>
<text text-anchor="middle" x="986.71" y="-175.5" font-family="Helvetica,sans-Serif" font-size="10.00">events/EventQueue.h</text>
</a>
</g>
</g>
<!-- Node4&#45;&gt;Node23 -->
<g id="edge38" class="edge">
<title>Node4&#45;&gt;Node23</title>
<path fill="none" stroke="midnightblue" d="M754.45,-224.44C802.9,-214.96 881.04,-199.67 933.13,-189.48"/>
<polygon fill="midnightblue" stroke="midnightblue" points="934.04,-192.87 943.18,-187.52 932.7,-186 934.04,-192.87"/>
</g>
<!-- Node25 -->
<g id="node25" class="node">
<title>Node25</title>
<g id="a_node25"><a xlink:href="InputService_8h.html" target="_top" xlink:title="General Purpose input listener. Handles Mouse, Keyboard, Joystick.">
<polygon fill="white" stroke="black" points="1244.21,-168.5 1244.21,-187.5 1347.21,-187.5 1347.21,-168.5 1244.21,-168.5"/>
<text text-anchor="middle" x="1295.71" y="-175.5" font-family="Helvetica,sans-Serif" font-size="10.00">input/InputService.h</text>
</a>
</g>
</g>
<!-- Node4&#45;&gt;Node25 -->
<g id="edge42" class="edge">
<title>Node4&#45;&gt;Node25</title>
<path fill="none" stroke="midnightblue" d="M761.86,-228.28C869.28,-218.36 1117.99,-195.41 1234.03,-184.69"/>
<polygon fill="midnightblue" stroke="midnightblue" points="1234.53,-188.16 1244.16,-183.76 1233.88,-181.19 1234.53,-188.16"/>
</g>
<!-- Node33 -->
<g id="node33" class="node">
<title>Node33</title>
<g id="a_node33"><a xlink:href="DebugLoggingService_8h.html" target="_top" xlink:title="Logging service that does the logging. Used for development.">
<polygon fill="white" stroke="black" points="558.21,-168.5 558.21,-187.5 711.21,-187.5 711.21,-168.5 558.21,-168.5"/>
<text text-anchor="middle" x="634.71" y="-175.5" font-family="Helvetica,sans-Serif" font-size="10.00">logging/DebugLoggingService.h</text>
</a>
</g>
</g>
<!-- Node4&#45;&gt;Node33 -->
<g id="edge55" class="edge">
<title>Node4&#45;&gt;Node33</title>
<path fill="none" stroke="midnightblue" d="M698.5,-224.32C686.94,-216.11 669.34,-203.6 655.55,-193.81"/>
<polygon fill="midnightblue" stroke="midnightblue" points="657.32,-190.77 647.15,-187.83 653.27,-196.48 657.32,-190.77"/>
</g>
<!-- Node35 -->
<g id="node35" class="node">
<title>Node35</title>
<g id="a_node35"><a xlink:href="SceneService_8h.html" target="_top" xlink:title="Service in charge of managing scenes.">
<polygon fill="white" stroke="black" points="729.71,-168.5 729.71,-187.5 843.71,-187.5 843.71,-168.5 729.71,-168.5"/>
<text text-anchor="middle" x="786.71" y="-175.5" font-family="Helvetica,sans-Serif" font-size="10.00">scene/SceneService.h</text>
</a>
</g>
</g>
<!-- Node4&#45;&gt;Node35 -->
<g id="edge59" class="edge">
<title>Node4&#45;&gt;Node35</title>
<path fill="none" stroke="midnightblue" d="M722.92,-224.32C734.49,-216.11 752.09,-203.6 765.87,-193.81"/>
<polygon fill="midnightblue" stroke="midnightblue" points="768.16,-196.48 774.28,-187.83 764.1,-190.77 768.16,-196.48"/>
</g>
<!-- Node6&#45;&gt;Node3 -->
<g id="edge7" class="edge">
<title>Node6&#45;&gt;Node3</title>
<path fill="none" stroke="midnightblue" d="M493.35,-168.34C504.07,-159.5 520.94,-145.23 534.71,-132 551.35,-116.02 569.29,-96.61 581.38,-83.19"/>
<polygon fill="midnightblue" stroke="midnightblue" points="584.03,-85.47 588.09,-75.68 578.81,-80.81 584.03,-85.47"/>
</g>
<!-- Node7 -->
<g id="node7" class="node">
<title>Node7</title>
<g id="a_node7"><a xlink:title=" ">
<polygon fill="white" stroke="#bfbfbf" points="382.21,-112.5 382.21,-131.5 417.21,-131.5 417.21,-112.5 382.21,-112.5"/>
<text text-anchor="middle" x="399.71" y="-119.5" font-family="Helvetica,sans-Serif" font-size="10.00">map</text>
</a>
</g>
</g>
<!-- Node6&#45;&gt;Node7 -->
<g id="edge6" class="edge">
<title>Node6&#45;&gt;Node7</title>
<path fill="none" stroke="midnightblue" d="M469.38,-168.32C456.55,-159.98 436.93,-147.21 421.77,-137.35"/>
<polygon fill="midnightblue" stroke="midnightblue" points="423.31,-134.17 413.02,-131.65 419.49,-140.04 423.31,-134.17"/>
</g>
<!-- Node8 -->
<g id="node8" class="node">
<title>Node8</title>
<g id="a_node8"><a xlink:href="Font_8h.html" target="_top" xlink:title="Easy interface to interact with SDL fonts.">
<polygon fill="white" stroke="black" points="435.21,-112.5 435.21,-131.5 526.21,-131.5 526.21,-112.5 435.21,-112.5"/>
<text text-anchor="middle" x="480.71" y="-119.5" font-family="Helvetica,sans-Serif" font-size="10.00">../../assets/Font.h</text>
</a>
</g>
</g>
<!-- Node6&#45;&gt;Node8 -->
<g id="edge8" class="edge">
<title>Node6&#45;&gt;Node8</title>
<path fill="none" stroke="midnightblue" d="M482.38,-168.08C482.12,-161.01 481.74,-150.86 481.42,-141.99"/>
<polygon fill="midnightblue" stroke="midnightblue" points="484.9,-141.61 481.04,-131.75 477.91,-141.87 484.9,-141.61"/>
</g>
<!-- Node12 -->
<g id="node12" class="node">
<title>Node12</title>
<g id="a_node12"><a xlink:href="Sound_8h.html" target="_top" xlink:title="Implementation of Sound.">
<polygon fill="white" stroke="black" points="156.21,-112.5 156.21,-131.5 255.21,-131.5 255.21,-112.5 156.21,-112.5"/>
<text text-anchor="middle" x="205.71" y="-119.5" font-family="Helvetica,sans-Serif" font-size="10.00">../../assets/Sound.h</text>
</a>
</g>
</g>
<!-- Node6&#45;&gt;Node12 -->
<g id="edge13" class="edge">
<title>Node6&#45;&gt;Node12</title>
<path fill="none" stroke="midnightblue" d="M438.82,-168.44C390.2,-158.96 311.77,-143.67 259.49,-133.48"/>
<polygon fill="midnightblue" stroke="midnightblue" points="259.88,-129.99 249.4,-131.52 258.54,-136.87 259.88,-129.99"/>
</g>
<!-- Node14 -->
<g id="node14" class="node">
<title>Node14</title>
<g id="a_node14"><a xlink:href="Stream_8h.html" target="_top" xlink:title="Wrapper for sdl stream including ability to store stream pointer. Use for single instance sounds like...">
<polygon fill="white" stroke="black" points="35.21,-112.5 35.21,-131.5 138.21,-131.5 138.21,-112.5 35.21,-112.5"/>
<text text-anchor="middle" x="86.71" y="-119.5" font-family="Helvetica,sans-Serif" font-size="10.00">../../assets/Stream.h</text>
</a>
</g>
</g>
<!-- Node6&#45;&gt;Node14 -->
<g id="edge16" class="edge">
<title>Node6&#45;&gt;Node14</title>
<path fill="none" stroke="midnightblue" d="M424.97,-169.24C421.84,-168.82 418.74,-168.41 415.71,-168 299.31,-152.39 267.78,-149.12 148.32,-132.21"/>
<polygon fill="midnightblue" stroke="midnightblue" points="148.81,-128.75 138.42,-130.81 147.83,-135.68 148.81,-128.75"/>
</g>
<!-- Node15 -->
<g id="node15" class="node">
<title>Node15</title>
<g id="a_node15"><a xlink:href="Texture_8h.html" target="_top" xlink:title="Easy interface to interact with sdl bitmaps.">
<polygon fill="white" stroke="black" points="906.71,-112.5 906.71,-131.5 1010.71,-131.5 1010.71,-112.5 906.71,-112.5"/>
<text text-anchor="middle" x="958.71" y="-119.5" font-family="Helvetica,sans-Serif" font-size="10.00">../../assets/Texture.h</text>
</a>
</g>
</g>
<!-- Node6&#45;&gt;Node15 -->
<g id="edge19" class="edge">
<title>Node6&#45;&gt;Node15</title>
<path fill="none" stroke="midnightblue" d="M540.29,-169.06C543.14,-168.69 545.96,-168.34 548.71,-168 671.91,-152.84 816.24,-137.58 896.61,-129.3"/>
<polygon fill="midnightblue" stroke="midnightblue" points="896.97,-132.79 906.56,-128.28 896.26,-125.82 896.97,-132.79"/>
</g>
<!-- Node8&#45;&gt;Node3 -->
<g id="edge10" class="edge">
<title>Node8&#45;&gt;Node3</title>
<path fill="none" stroke="midnightblue" d="M498.93,-112.44C517.61,-103.68 546.87,-89.94 568.33,-79.86"/>
<polygon fill="midnightblue" stroke="midnightblue" points="570.01,-82.93 577.58,-75.52 567.04,-76.6 570.01,-82.93"/>
</g>
<!-- Node9 -->
<g id="node9" class="node">
<title>Node9</title>
<g id="a_node9"><a xlink:title=" ">
<polygon fill="white" stroke="#bfbfbf" points="437.71,-56.5 437.71,-75.5 523.71,-75.5 523.71,-56.5 437.71,-56.5"/>
<text text-anchor="middle" x="480.71" y="-63.5" font-family="Helvetica,sans-Serif" font-size="10.00">SDL2/SDL_ttf.h</text>
</a>
</g>
</g>
<!-- Node8&#45;&gt;Node9 -->
<g id="edge9" class="edge">
<title>Node8&#45;&gt;Node9</title>
<path fill="none" stroke="midnightblue" d="M480.71,-112.08C480.71,-105.01 480.71,-94.86 480.71,-85.99"/>
<polygon fill="midnightblue" stroke="midnightblue" points="484.21,-85.75 480.71,-75.75 477.21,-85.75 484.21,-85.75"/>
</g>
<!-- Node10 -->
<g id="node10" class="node">
<title>Node10</title>
<g id="a_node10"><a xlink:href="Color_8h.html" target="_top" xlink:title="Helpers for creating colors without accessing SDL api directly.">
<polygon fill="white" stroke="black" points="912.71,-56.5 912.71,-75.5 990.71,-75.5 990.71,-56.5 912.71,-56.5"/>
<text text-anchor="middle" x="951.71" y="-63.5" font-family="Helvetica,sans-Serif" font-size="10.00">../color/Color.h</text>
</a>
</g>
</g>
<!-- Node8&#45;&gt;Node10 -->
<g id="edge11" class="edge">
<title>Node8&#45;&gt;Node10</title>
<path fill="none" stroke="midnightblue" d="M526.3,-115.77C615.11,-105.59 810.61,-83.18 902.35,-72.66"/>
<polygon fill="midnightblue" stroke="midnightblue" points="902.94,-76.11 912.48,-71.5 902.15,-69.16 902.94,-76.11"/>
</g>
<!-- Node11 -->
<g id="node11" class="node">
<title>Node11</title>
<g id="a_node11"><a xlink:title=" ">
<polygon fill="white" stroke="#bfbfbf" points="882.71,-0.5 882.71,-19.5 1020.71,-19.5 1020.71,-0.5 882.71,-0.5"/>
<text text-anchor="middle" x="951.71" y="-7.5" font-family="Helvetica,sans-Serif" font-size="10.00">SDL2/SDL2_gfxPrimitives.h</text>
</a>
</g>
</g>
<!-- Node10&#45;&gt;Node11 -->
<g id="edge12" class="edge">
<title>Node10&#45;&gt;Node11</title>
<path fill="none" stroke="midnightblue" d="M951.71,-56.08C951.71,-49.01 951.71,-38.86 951.71,-29.99"/>
<polygon fill="midnightblue" stroke="midnightblue" points="955.21,-29.75 951.71,-19.75 948.21,-29.75 955.21,-29.75"/>
</g>
<!-- Node12&#45;&gt;Node3 -->
<g id="edge15" class="edge">
<title>Node12&#45;&gt;Node3</title>
<path fill="none" stroke="midnightblue" d="M255.28,-113.37C258.47,-112.9 261.64,-112.44 264.71,-112 383.68,-94.94 413.67,-92.5 532.71,-76 543.19,-74.55 554.64,-72.92 564.88,-71.46"/>
<polygon fill="midnightblue" stroke="midnightblue" points="565.6,-74.89 575.01,-70 564.61,-67.96 565.6,-74.89"/>
</g>
<!-- Node13 -->
<g id="node13" class="node">
<title>Node13</title>
<g id="a_node13"><a xlink:title=" ">
<polygon fill="white" stroke="#bfbfbf" points="96.71,-56.5 96.71,-75.5 196.71,-75.5 196.71,-56.5 96.71,-56.5"/>
<text text-anchor="middle" x="146.71" y="-63.5" font-family="Helvetica,sans-Serif" font-size="10.00">SDL2/SDL_mixer.h</text>
</a>
</g>
</g>
<!-- Node12&#45;&gt;Node13 -->
<g id="edge14" class="edge">
<title>Node12&#45;&gt;Node13</title>
<path fill="none" stroke="midnightblue" d="M196.23,-112.32C187.51,-104.34 174.37,-92.31 163.82,-82.65"/>
<polygon fill="midnightblue" stroke="midnightblue" points="166.1,-80 156.36,-75.83 161.38,-85.17 166.1,-80"/>
</g>
<!-- Node14&#45;&gt;Node3 -->
<g id="edge18" class="edge">
<title>Node14&#45;&gt;Node3</title>
<path fill="none" stroke="midnightblue" d="M138.4,-113.06C141.21,-112.69 143.99,-112.33 146.71,-112 317.75,-91.21 361.6,-96.19 532.71,-76 543.22,-74.76 554.68,-73.19 564.91,-71.71"/>
<polygon fill="midnightblue" stroke="midnightblue" points="565.65,-75.14 575.03,-70.21 564.63,-68.21 565.65,-75.14"/>
</g>
<!-- Node14&#45;&gt;Node13 -->
<g id="edge17" class="edge">
<title>Node14&#45;&gt;Node13</title>
<path fill="none" stroke="midnightblue" d="M96.35,-112.32C105.22,-104.34 118.59,-92.31 129.32,-82.65"/>
<polygon fill="midnightblue" stroke="midnightblue" points="131.81,-85.13 136.9,-75.83 127.12,-79.92 131.81,-85.13"/>
</g>
<!-- Node15&#45;&gt;Node3 -->
<g id="edge21" class="edge">
<title>Node15&#45;&gt;Node3</title>
<path fill="none" stroke="midnightblue" d="M906.7,-113.26C829.98,-101.85 688.85,-80.85 626.6,-71.59"/>
<polygon fill="midnightblue" stroke="midnightblue" points="627.02,-68.12 616.61,-70.11 625.99,-75.04 627.02,-68.12"/>
</g>
<!-- Node15&#45;&gt;Node10 -->
<g id="edge22" class="edge">
<title>Node15&#45;&gt;Node10</title>
<path fill="none" stroke="midnightblue" d="M957.56,-112.08C956.63,-104.93 955.3,-94.64 954.14,-85.69"/>
<polygon fill="midnightblue" stroke="midnightblue" points="957.6,-85.22 952.85,-75.75 950.66,-86.12 957.6,-85.22"/>
</g>
<!-- Node16 -->
<g id="node16" class="node">
<title>Node16</title>
<g id="a_node16"><a xlink:title=" ">
<polygon fill="white" stroke="#bfbfbf" points="1009.21,-56.5 1009.21,-75.5 1080.21,-75.5 1080.21,-56.5 1009.21,-56.5"/>
<text text-anchor="middle" x="1044.71" y="-63.5" font-family="Helvetica,sans-Serif" font-size="10.00">SDL2/SDL.h</text>
</a>
</g>
</g>
<!-- Node15&#45;&gt;Node16 -->
<g id="edge20" class="edge">
<title>Node15&#45;&gt;Node16</title>
<path fill="none" stroke="midnightblue" d="M972.53,-112.32C985.95,-103.9 1006.54,-90.97 1022.3,-81.07"/>
<polygon fill="midnightblue" stroke="midnightblue" points="1024.32,-83.94 1030.93,-75.65 1020.6,-78.01 1024.32,-83.94"/>
</g>
<!-- Node17&#45;&gt;Node3 -->
<g id="edge24" class="edge">
<title>Node17&#45;&gt;Node3</title>
<path fill="none" stroke="midnightblue" d="M98.69,-168.49C54.49,-158.67 -0.54,-140.18 25.71,-112 64.21,-70.68 476.56,-82 532.71,-76 543.23,-74.88 554.69,-73.33 564.92,-71.84"/>
<polygon fill="midnightblue" stroke="midnightblue" points="565.67,-75.27 575.05,-70.33 564.64,-68.35 565.67,-75.27"/>
</g>
<!-- Node17&#45;&gt;Node12 -->
<g id="edge25" class="edge">
<title>Node17&#45;&gt;Node12</title>
<path fill="none" stroke="midnightblue" d="M156.19,-168.32C164.91,-160.34 178.06,-148.31 188.61,-138.65"/>
<polygon fill="midnightblue" stroke="midnightblue" points="191.05,-141.17 196.06,-131.83 186.32,-136 191.05,-141.17"/>
</g>
<!-- Node17&#45;&gt;Node14 -->
<g id="edge26" class="edge">
<title>Node17&#45;&gt;Node14</title>
<path fill="none" stroke="midnightblue" d="M137.07,-168.32C128.2,-160.34 114.84,-148.31 104.1,-138.65"/>
<polygon fill="midnightblue" stroke="midnightblue" points="106.3,-135.92 96.53,-131.83 101.62,-141.13 106.3,-135.92"/>
</g>
<!-- Node18&#45;&gt;Node3 -->
<g id="edge30" class="edge">
<title>Node18&#45;&gt;Node3</title>
<path fill="none" stroke="midnightblue" d="M351.02,-168.36C352,-154.32 356.08,-126.64 372.71,-112 387.05,-99.38 507.07,-80.13 564.86,-71.49"/>
<polygon fill="midnightblue" stroke="midnightblue" points="565.5,-74.93 574.88,-70 564.48,-68 565.5,-74.93"/>
</g>
<!-- Node18&#45;&gt;Node7 -->
<g id="edge28" class="edge">
<title>Node18&#45;&gt;Node7</title>
<path fill="none" stroke="midnightblue" d="M358.8,-168.08C365.87,-160.3 376.3,-148.8 384.86,-139.37"/>
<polygon fill="midnightblue" stroke="midnightblue" points="387.64,-141.51 391.77,-131.75 382.46,-136.8 387.64,-141.51"/>
</g>
<!-- Node19 -->
<g id="node19" class="node">
<title>Node19</title>
<g id="a_node19"><a xlink:title=" ">
<polygon fill="white" stroke="#bfbfbf" points="273.71,-112.5 273.71,-131.5 325.71,-131.5 325.71,-112.5 273.71,-112.5"/>
<text text-anchor="middle" x="299.71" y="-119.5" font-family="Helvetica,sans-Serif" font-size="10.00">sstream</text>
</a>
</g>
</g>
<!-- Node18&#45;&gt;Node19 -->
<g id="edge29" class="edge">
<title>Node18&#45;&gt;Node19</title>
<path fill="none" stroke="midnightblue" d="M342.29,-168.08C334.86,-160.22 323.86,-148.57 314.9,-139.08"/>
<polygon fill="midnightblue" stroke="midnightblue" points="317.39,-136.62 307.98,-131.75 312.3,-141.42 317.39,-136.62"/>
</g>
<!-- Node20&#45;&gt;Node3 -->
<g id="edge33" class="edge">
<title>Node20&#45;&gt;Node3</title>
<path fill="none" stroke="midnightblue" d="M1061.86,-168.48C998.06,-158.92 900.55,-143.27 864.71,-132 844.61,-125.68 841.75,-118.55 821.71,-112 753.74,-89.78 670.5,-76.65 626.45,-70.75"/>
<polygon fill="midnightblue" stroke="midnightblue" points="626.76,-67.26 616.39,-69.44 625.85,-74.2 626.76,-67.26"/>
</g>
<!-- Node20&#45;&gt;Node10 -->
<g id="edge34" class="edge">
<title>Node20&#45;&gt;Node10</title>
<path fill="none" stroke="midnightblue" d="M1128.32,-168.09C1138.84,-154.64 1155.1,-128.93 1141.71,-112 1137.26,-106.37 1055.45,-88.48 1000.65,-77.02"/>
<polygon fill="midnightblue" stroke="midnightblue" points="1001.26,-73.57 990.76,-74.96 999.83,-80.43 1001.26,-73.57"/>
</g>
<!-- Node20&#45;&gt;Node16 -->
<g id="edge32" class="edge">
<title>Node20&#45;&gt;Node16</title>
<path fill="none" stroke="midnightblue" d="M1136.92,-168.5C1157.84,-156.39 1189.86,-133.27 1174.71,-112 1155.69,-85.29 1119.67,-74.28 1090.37,-69.82"/>
<polygon fill="midnightblue" stroke="midnightblue" points="1090.69,-66.34 1080.32,-68.5 1089.78,-73.28 1090.69,-66.34"/>
</g>
<!-- Node21 -->
<g id="node21" class="node">
<title>Node21</title>
<g id="a_node21"><a xlink:href="Service_8h.html" target="_top" xlink:title="Service subscriber that can listen for events.">
<polygon fill="white" stroke="black" points="1067.21,-112.5 1067.21,-131.5 1132.21,-131.5 1132.21,-112.5 1067.21,-112.5"/>
<text text-anchor="middle" x="1099.71" y="-119.5" font-family="Helvetica,sans-Serif" font-size="10.00">../Service.h</text>
</a>
</g>
</g>
<!-- Node20&#45;&gt;Node21 -->
<g id="edge35" class="edge">
<title>Node20&#45;&gt;Node21</title>
<path fill="none" stroke="midnightblue" d="M1117.25,-168.08C1114.4,-160.77 1110.28,-150.18 1106.75,-141.1"/>
<polygon fill="midnightblue" stroke="midnightblue" points="1110,-139.8 1103.12,-131.75 1103.48,-142.34 1110,-139.8"/>
</g>
<!-- Node21&#45;&gt;Node3 -->
<g id="edge37" class="edge">
<title>Node21&#45;&gt;Node3</title>
<path fill="none" stroke="midnightblue" d="M1067.02,-117.28C1052.53,-115.64 1035.27,-113.7 1019.71,-112 872.68,-95.93 696.87,-77.53 626.78,-70.23"/>
<polygon fill="midnightblue" stroke="midnightblue" points="626.76,-66.71 616.45,-69.15 626.04,-73.67 626.76,-66.71"/>
</g>
<!-- Node22 -->
<g id="node22" class="node">
<title>Node22</title>
<g id="a_node22"><a xlink:title=" ">
<polygon fill="white" stroke="#bfbfbf" points="1306.71,-56.5 1306.71,-75.5 1412.71,-75.5 1412.71,-56.5 1306.71,-56.5"/>
<text text-anchor="middle" x="1359.71" y="-63.5" font-family="Helvetica,sans-Serif" font-size="10.00">SDL2/SDL_events.h</text>
</a>
</g>
</g>
<!-- Node21&#45;&gt;Node22 -->
<g id="edge36" class="edge">
<title>Node21&#45;&gt;Node22</title>
<path fill="none" stroke="midnightblue" d="M1132.38,-114.22C1176.62,-105.03 1256.05,-88.53 1308.33,-77.67"/>
<polygon fill="midnightblue" stroke="midnightblue" points="1309.32,-81.04 1318.4,-75.58 1307.9,-74.19 1309.32,-81.04"/>
</g>
<!-- Node23&#45;&gt;Node16 -->
<g id="edge39" class="edge">
<title>Node23&#45;&gt;Node16</title>
<path fill="none" stroke="midnightblue" d="M994.29,-168.17C1001.52,-159.43 1012.37,-145.43 1019.71,-132 1027.86,-117.08 1034.6,-98.94 1039.02,-85.61"/>
<polygon fill="midnightblue" stroke="midnightblue" points="1042.47,-86.33 1042.17,-75.73 1035.8,-84.2 1042.47,-86.33"/>
</g>
<!-- Node23&#45;&gt;Node21 -->
<g id="edge41" class="edge">
<title>Node23&#45;&gt;Node21</title>
<path fill="none" stroke="midnightblue" d="M1004.62,-168.44C1022.97,-159.68 1051.72,-145.94 1072.81,-135.86"/>
<polygon fill="midnightblue" stroke="midnightblue" points="1074.38,-138.99 1081.89,-131.52 1071.36,-132.67 1074.38,-138.99"/>
</g>
<!-- Node24 -->
<g id="node24" class="node">
<title>Node24</title>
<g id="a_node24"><a xlink:title=" ">
<polygon fill="white" stroke="#bfbfbf" points="768.71,-112.5 768.71,-131.5 812.71,-131.5 812.71,-112.5 768.71,-112.5"/>
<text text-anchor="middle" x="790.71" y="-119.5" font-family="Helvetica,sans-Serif" font-size="10.00">vector</text>
</a>
</g>
</g>
<!-- Node23&#45;&gt;Node24 -->
<g id="edge40" class="edge">
<title>Node23&#45;&gt;Node24</title>
<path fill="none" stroke="midnightblue" d="M955.66,-168.44C919.25,-158.41 859.23,-141.88 822.51,-131.76"/>
<polygon fill="midnightblue" stroke="midnightblue" points="823.37,-128.37 812.8,-129.09 821.52,-135.12 823.37,-128.37"/>
</g>
<!-- Node25&#45;&gt;Node3 -->
<g id="edge45" class="edge">
<title>Node25&#45;&gt;Node3</title>
<path fill="none" stroke="midnightblue" d="M1243.85,-172.13C1143.6,-162.57 930.22,-141.46 897.71,-132 878.25,-126.33 876.01,-118.23 856.71,-112 776,-85.94 676.09,-74.07 626.55,-69.47"/>
<polygon fill="midnightblue" stroke="midnightblue" points="626.76,-65.98 616.49,-68.58 626.14,-72.95 626.76,-65.98"/>
</g>
<!-- Node25&#45;&gt;Node21 -->
<g id="edge46" class="edge">
<title>Node25&#45;&gt;Node21</title>
<path fill="none" stroke="midnightblue" d="M1264.66,-168.44C1231.11,-159.2 1177.52,-144.44 1140.57,-134.26"/>
<polygon fill="midnightblue" stroke="midnightblue" points="1141.19,-130.8 1130.62,-131.52 1139.34,-137.55 1141.19,-130.8"/>
</g>
<!-- Node25&#45;&gt;Node22 -->
<g id="edge43" class="edge">
<title>Node25&#45;&gt;Node22</title>
<path fill="none" stroke="midnightblue" d="M1332.82,-168.46C1352.16,-161.92 1374.14,-150.72 1385.71,-132 1395.15,-116.73 1385.05,-97.45 1374.81,-83.87"/>
<polygon fill="midnightblue" stroke="midnightblue" points="1377.31,-81.39 1368.27,-75.86 1371.89,-85.82 1377.31,-81.39"/>
</g>
<!-- Node26 -->
<g id="node26" class="node">
<title>Node26</title>
<g id="a_node26"><a xlink:title=" ">
<polygon fill="white" stroke="#bfbfbf" points="1226.71,-112.5 1226.71,-131.5 1280.71,-131.5 1280.71,-112.5 1226.71,-112.5"/>
<text text-anchor="middle" x="1253.71" y="-119.5" font-family="Helvetica,sans-Serif" font-size="10.00">iostream</text>
</a>
</g>
</g>
<!-- Node25&#45;&gt;Node26 -->
<g id="edge44" class="edge">
<title>Node25&#45;&gt;Node26</title>
<path fill="none" stroke="midnightblue" d="M1288.78,-168.08C1282.78,-160.38 1273.96,-149.03 1266.67,-139.65"/>
<polygon fill="midnightblue" stroke="midnightblue" points="1269.42,-137.5 1260.52,-131.75 1263.9,-141.79 1269.42,-137.5"/>
</g>
<!-- Node27 -->
<g id="node27" class="node">
<title>Node27</title>
<g id="a_node27"><a xlink:href="JoystickState_8h.html" target="_top" xlink:title="Container for storing Joystick state.">
<polygon fill="white" stroke="black" points="1433.21,-112.5 1433.21,-131.5 1516.21,-131.5 1516.21,-112.5 1433.21,-112.5"/>
<text text-anchor="middle" x="1474.71" y="-119.5" font-family="Helvetica,sans-Serif" font-size="10.00">JoystickState.h</text>
</a>
</g>
</g>
<!-- Node25&#45;&gt;Node27 -->
<g id="edge47" class="edge">
<title>Node25&#45;&gt;Node27</title>
<path fill="none" stroke="midnightblue" d="M1324.08,-168.44C1354.45,-159.28 1402.82,-144.69 1436.53,-134.52"/>
<polygon fill="midnightblue" stroke="midnightblue" points="1437.92,-137.76 1446.48,-131.52 1435.9,-131.05 1437.92,-137.76"/>
</g>
<!-- Node29 -->
<g id="node29" class="node">
<title>Node29</title>
<g id="a_node29"><a xlink:href="KeyboardState_8h.html" target="_top" xlink:title="Container for storing Keyboard state.">
<polygon fill="white" stroke="black" points="1535.71,-112.5 1535.71,-131.5 1623.71,-131.5 1623.71,-112.5 1535.71,-112.5"/>
<text text-anchor="middle" x="1579.71" y="-119.5" font-family="Helvetica,sans-Serif" font-size="10.00">KeyboardState.h</text>
</a>
</g>
</g>
<!-- Node25&#45;&gt;Node29 -->
<g id="edge50" class="edge">
<title>Node25&#45;&gt;Node29</title>
<path fill="none" stroke="midnightblue" d="M1340.71,-168.44C1390.82,-158.92 1471.79,-143.52 1525.38,-133.33"/>
<polygon fill="midnightblue" stroke="midnightblue" points="1526.22,-136.73 1535.39,-131.43 1524.91,-129.86 1526.22,-136.73"/>
</g>
<!-- Node31 -->
<g id="node31" class="node">
<title>Node31</title>
<g id="a_node31"><a xlink:href="MouseState_8h.html" target="_top" xlink:title="Container for storing Mouse state.">
<polygon fill="white" stroke="black" points="1299.21,-112.5 1299.21,-131.5 1376.21,-131.5 1376.21,-112.5 1299.21,-112.5"/>
<text text-anchor="middle" x="1337.71" y="-119.5" font-family="Helvetica,sans-Serif" font-size="10.00">MouseState.h</text>
</a>
</g>
</g>
<!-- Node25&#45;&gt;Node31 -->
<g id="edge52" class="edge">
<title>Node25&#45;&gt;Node31</title>
<path fill="none" stroke="midnightblue" d="M1302.65,-168.08C1308.64,-160.38 1317.46,-149.03 1324.76,-139.65"/>
<polygon fill="midnightblue" stroke="midnightblue" points="1327.53,-141.79 1330.91,-131.75 1322,-137.5 1327.53,-141.79"/>
</g>
<!-- Node27&#45;&gt;Node22 -->
<g id="edge48" class="edge">
<title>Node27&#45;&gt;Node22</title>
<path fill="none" stroke="midnightblue" d="M1456.49,-112.44C1437.82,-103.68 1408.56,-89.94 1387.1,-79.86"/>
<polygon fill="midnightblue" stroke="midnightblue" points="1388.39,-76.6 1377.85,-75.52 1385.41,-82.93 1388.39,-76.6"/>
</g>
<!-- Node28 -->
<g id="node28" class="node">
<title>Node28</title>
<g id="a_node28"><a xlink:href="JoystickCodes_8h.html" target="_top" xlink:title="Defines for codes used for joystick.">
<polygon fill="white" stroke="black" points="1430.71,-56.5 1430.71,-75.5 1518.71,-75.5 1518.71,-56.5 1430.71,-56.5"/>
<text text-anchor="middle" x="1474.71" y="-63.5" font-family="Helvetica,sans-Serif" font-size="10.00">JoystickCodes.h</text>
</a>
</g>
</g>
<!-- Node27&#45;&gt;Node28 -->
<g id="edge49" class="edge">
<title>Node27&#45;&gt;Node28</title>
<path fill="none" stroke="midnightblue" d="M1474.71,-112.08C1474.71,-105.01 1474.71,-94.86 1474.71,-85.99"/>
<polygon fill="midnightblue" stroke="midnightblue" points="1478.21,-85.75 1474.71,-75.75 1471.21,-85.75 1478.21,-85.75"/>
</g>
<!-- Node30 -->
<g id="node30" class="node">
<title>Node30</title>
<g id="a_node30"><a xlink:href="KeyboardKeys_8h.html" target="_top" xlink:title="Defenitions of keys that can be used by input manager.">
<polygon fill="white" stroke="black" points="1536.71,-56.5 1536.71,-75.5 1622.71,-75.5 1622.71,-56.5 1536.71,-56.5"/>
<text text-anchor="middle" x="1579.71" y="-63.5" font-family="Helvetica,sans-Serif" font-size="10.00">KeyboardKeys.h</text>
</a>
</g>
</g>
<!-- Node29&#45;&gt;Node30 -->
<g id="edge51" class="edge">
<title>Node29&#45;&gt;Node30</title>
<path fill="none" stroke="midnightblue" d="M1579.71,-112.08C1579.71,-105.01 1579.71,-94.86 1579.71,-85.99"/>
<polygon fill="midnightblue" stroke="midnightblue" points="1583.21,-85.75 1579.71,-75.75 1576.21,-85.75 1583.21,-85.75"/>
</g>
<!-- Node31&#45;&gt;Node22 -->
<g id="edge53" class="edge">
<title>Node31&#45;&gt;Node22</title>
<path fill="none" stroke="midnightblue" d="M1341.35,-112.08C1344.33,-104.77 1348.64,-94.18 1352.34,-85.1"/>
<polygon fill="midnightblue" stroke="midnightblue" points="1355.62,-86.33 1356.15,-75.75 1349.13,-83.69 1355.62,-86.33"/>
</g>
<!-- Node32 -->
<g id="node32" class="node">
<title>Node32</title>
<g id="a_node32"><a xlink:title=" ">
<polygon fill="white" stroke="#bfbfbf" points="1182.71,-56.5 1182.71,-75.5 1288.71,-75.5 1288.71,-56.5 1182.71,-56.5"/>
<text text-anchor="middle" x="1235.71" y="-63.5" font-family="Helvetica,sans-Serif" font-size="10.00">SDL2/SDL_mouse.h</text>
</a>
</g>
</g>
<!-- Node31&#45;&gt;Node32 -->
<g id="edge54" class="edge">
<title>Node31&#45;&gt;Node32</title>
<path fill="none" stroke="midnightblue" d="M1321.32,-112.32C1305.04,-103.7 1279.85,-90.36 1261,-80.39"/>
<polygon fill="midnightblue" stroke="midnightblue" points="1262.54,-77.24 1252.06,-75.65 1259.26,-83.43 1262.54,-77.24"/>
</g>
<!-- Node33&#45;&gt;Node3 -->
<g id="edge56" class="edge">
<title>Node33&#45;&gt;Node3</title>
<path fill="none" stroke="midnightblue" d="M649.56,-168.35C668.35,-156.24 696.77,-133.34 683.71,-112 671.23,-91.59 646.23,-80.06 626.06,-73.8"/>
<polygon fill="midnightblue" stroke="midnightblue" points="626.91,-70.4 616.34,-71.06 625.01,-77.14 626.91,-70.4"/>
</g>
<!-- Node34 -->
<g id="node34" class="node">
<title>Node34</title>
<g id="a_node34"><a xlink:href="LoggingService_8h.html" target="_top" xlink:title="Default logging service. Does nothing. Use in production.">
<polygon fill="white" stroke="black" points="582.71,-112.5 582.71,-131.5 674.71,-131.5 674.71,-112.5 582.71,-112.5"/>
<text text-anchor="middle" x="628.71" y="-119.5" font-family="Helvetica,sans-Serif" font-size="10.00">LoggingService.h</text>
</a>
</g>
</g>
<!-- Node33&#45;&gt;Node34 -->
<g id="edge57" class="edge">
<title>Node33&#45;&gt;Node34</title>
<path fill="none" stroke="midnightblue" d="M633.72,-168.08C632.93,-160.93 631.78,-150.64 630.79,-141.69"/>
<polygon fill="midnightblue" stroke="midnightblue" points="634.27,-141.3 629.69,-131.75 627.31,-142.08 634.27,-141.3"/>
</g>
<!-- Node34&#45;&gt;Node3 -->
<g id="edge58" class="edge">
<title>Node34&#45;&gt;Node3</title>
<path fill="none" stroke="midnightblue" d="M623.26,-112.08C618.7,-104.61 612.04,-93.72 606.42,-84.52"/>
<polygon fill="midnightblue" stroke="midnightblue" points="609.26,-82.46 601.06,-75.75 603.29,-86.11 609.26,-82.46"/>
</g>
<!-- Node35&#45;&gt;Node3 -->
<g id="edge60" class="edge">
<title>Node35&#45;&gt;Node3</title>
<path fill="none" stroke="midnightblue" d="M776.67,-168.4C760.84,-155.13 728.81,-129.39 698.71,-112 675.23,-98.43 646.89,-86.33 625.88,-78.1"/>
<polygon fill="midnightblue" stroke="midnightblue" points="627.09,-74.82 616.5,-74.5 624.58,-81.35 627.09,-74.82"/>
</g>
<!-- Node35&#45;&gt;Node21 -->
<g id="edge62" class="edge">
<title>Node35&#45;&gt;Node21</title>
<path fill="none" stroke="midnightblue" d="M836.31,-168.44C897.16,-157.94 999.33,-140.32 1056.9,-130.39"/>
<polygon fill="midnightblue" stroke="midnightblue" points="1057.85,-133.77 1067.11,-128.62 1056.66,-126.88 1057.85,-133.77"/>
</g>
<!-- Node35&#45;&gt;Node24 -->
<g id="edge61" class="edge">
<title>Node35&#45;&gt;Node24</title>
<path fill="none" stroke="midnightblue" d="M787.37,-168.08C787.9,-161.01 788.65,-150.86 789.31,-141.99"/>
<polygon fill="midnightblue" stroke="midnightblue" points="792.82,-141.98 790.06,-131.75 785.84,-141.47 792.82,-141.98"/>
</g>
</g>
</svg>
