<?xml version="1.0" encoding="UTF-8" standalone="no"?>
<!DOCTYPE svg PUBLIC "-//W3C//DTD SVG 1.1//EN"
 "http://www.w3.org/Graphics/SVG/1.1/DTD/svg11.dtd">
<!-- Generated by graphviz version 2.46.1 (20210215.1649)
 -->
<!-- Title: include/entities/ui/MessageBox.h Pages: 1 -->
<svg width="256pt" height="95pt"
 viewBox="0.00 0.00 255.50 95.00" xmlns="http://www.w3.org/2000/svg" xmlns:xlink="http://www.w3.org/1999/xlink">
<g id="graph0" class="graph" transform="scale(1 1) rotate(0) translate(4 91)">
<title>include/entities/ui/MessageBox.h</title>
<polygon fill="white" stroke="transparent" points="-4,4 -4,-91 251.5,-91 251.5,4 -4,4"/>
<!-- Node1 -->
<g id="node1" class="node">
<title>Node1</title>
<g id="a_node1"><a xlink:title="Native message box.">
<polygon fill="#bfbfbf" stroke="black" points="96,-56.5 96,-86.5 188,-86.5 188,-56.5 96,-56.5"/>
<text text-anchor="start" x="104" y="-74.5" font-family="Helvetica,sans-Serif" font-size="10.00">include/entities/ui</text>
<text text-anchor="middle" x="142" y="-63.5" font-family="Helvetica,sans-Serif" font-size="10.00">/MessageBox.h</text>
</a>
</g>
</g>
<!-- Node2 -->
<g id="node2" class="node">
<title>Node2</title>
<g id="a_node2"><a xlink:href="MessageBox_8cpp.html" target="_top" xlink:title="Implementation of MessageBox.">
<polygon fill="white" stroke="black" points="0,-0.5 0,-19.5 152,-19.5 152,-0.5 0,-0.5"/>
<text text-anchor="middle" x="76" y="-7.5" font-family="Helvetica,sans-Serif" font-size="10.00">src/entities/ui/MessageBox.cpp</text>
</a>
</g>
</g>
<!-- Node1&#45;&gt;Node2 -->
<g id="edge1" class="edge">
<title>Node1&#45;&gt;Node2</title>
<path fill="none" stroke="midnightblue" d="M118.81,-49.6C107.41,-39.32 94.28,-27.48 85.6,-19.66"/>
<polygon fill="midnightblue" stroke="midnightblue" points="116.59,-52.3 126.36,-56.4 121.28,-47.1 116.59,-52.3"/>
</g>
<!-- Node3 -->
<g id="node3" class="node">
<title>Node3</title>
<g id="a_node3"><a xlink:href="Game_8cpp.html" target="_top" xlink:title="Implementation of Game.">
<polygon fill="white" stroke="black" points="170.5,-0.5 170.5,-19.5 247.5,-19.5 247.5,-0.5 170.5,-0.5"/>
<text text-anchor="middle" x="209" y="-7.5" font-family="Helvetica,sans-Serif" font-size="10.00">src/Game.cpp</text>
</a>
</g>
</g>
<!-- Node1&#45;&gt;Node3 -->
<g id="edge2" class="edge">
<title>Node1&#45;&gt;Node3</title>
<path fill="none" stroke="midnightblue" d="M165.54,-49.6C177.12,-39.32 190.44,-27.48 199.25,-19.66"/>
<polygon fill="midnightblue" stroke="midnightblue" points="163.03,-47.14 157.88,-56.4 167.68,-52.38 163.03,-47.14"/>
</g>
</g>
</svg>
