<?xml version="1.0" encoding="UTF-8" standalone="no"?>
<!DOCTYPE svg PUBLIC "-//W3C//DTD SVG 1.1//EN"
 "http://www.w3.org/Graphics/SVG/1.1/DTD/svg11.dtd">
<!-- Generated by graphviz version 2.46.1 (20210215.1649)
 -->
<!-- Title: include/services/input/MouseState.h Pages: 1 -->
<svg width="238pt" height="95pt"
 viewBox="0.00 0.00 238.00 95.00" xmlns="http://www.w3.org/2000/svg" xmlns:xlink="http://www.w3.org/1999/xlink">
<g id="graph0" class="graph" transform="scale(1 1) rotate(0) translate(4 91)">
<title>include/services/input/MouseState.h</title>
<polygon fill="white" stroke="transparent" points="-4,4 -4,-91 234,-91 234,4 -4,4"/>
<!-- Node1 -->
<g id="node1" class="node">
<title>Node1</title>
<g id="a_node1"><a xlink:title="Container for storing Mouse state.">
<polygon fill="#bfbfbf" stroke="black" points="59.5,-56.5 59.5,-86.5 170.5,-86.5 170.5,-56.5 59.5,-56.5"/>
<text text-anchor="start" x="67.5" y="-74.5" font-family="Helvetica,sans-Serif" font-size="10.00">include/services/input</text>
<text text-anchor="middle" x="115" y="-63.5" font-family="Helvetica,sans-Serif" font-size="10.00">/MouseState.h</text>
</a>
</g>
</g>
<!-- Node2 -->
<g id="node2" class="node">
<title>Node2</title>
<g id="a_node2"><a xlink:title=" ">
<polygon fill="white" stroke="#bfbfbf" points="0,-0.5 0,-19.5 106,-19.5 106,-0.5 0,-0.5"/>
<text text-anchor="middle" x="53" y="-7.5" font-family="Helvetica,sans-Serif" font-size="10.00">SDL2/SDL_events.h</text>
</a>
</g>
</g>
<!-- Node1&#45;&gt;Node2 -->
<g id="edge1" class="edge">
<title>Node1&#45;&gt;Node2</title>
<path fill="none" stroke="midnightblue" d="M100.31,-56.4C91.02,-47.49 79,-35.95 69.4,-26.74"/>
<polygon fill="midnightblue" stroke="midnightblue" points="71.66,-24.06 62.02,-19.66 66.81,-29.11 71.66,-24.06"/>
</g>
<!-- Node3 -->
<g id="node3" class="node">
<title>Node3</title>
<g id="a_node3"><a xlink:title=" ">
<polygon fill="white" stroke="#bfbfbf" points="124,-0.5 124,-19.5 230,-19.5 230,-0.5 124,-0.5"/>
<text text-anchor="middle" x="177" y="-7.5" font-family="Helvetica,sans-Serif" font-size="10.00">SDL2/SDL_mouse.h</text>
</a>
</g>
</g>
<!-- Node1&#45;&gt;Node3 -->
<g id="edge2" class="edge">
<title>Node1&#45;&gt;Node3</title>
<path fill="none" stroke="midnightblue" d="M129.69,-56.4C138.98,-47.49 151,-35.95 160.6,-26.74"/>
<polygon fill="midnightblue" stroke="midnightblue" points="163.19,-29.11 167.98,-19.66 158.34,-24.06 163.19,-29.11"/>
</g>
</g>
</svg>
