<?xml version="1.0" encoding="UTF-8" standalone="no"?>
<!DOCTYPE svg PUBLIC "-//W3C//DTD SVG 1.1//EN"
 "http://www.w3.org/Graphics/SVG/1.1/DTD/svg11.dtd">
<!-- Generated by graphviz version 2.46.1 (20210215.1649)
 -->
<!-- Title: src/entities/Particle.cpp Pages: 1 -->
<svg width="2136pt" height="364pt"
 viewBox="0.00 0.00 2136.00 364.00" xmlns="http://www.w3.org/2000/svg" xmlns:xlink="http://www.w3.org/1999/xlink">
<g id="graph0" class="graph" transform="scale(1 1) rotate(0) translate(4 360)">
<title>src/entities/Particle.cpp</title>
<polygon fill="white" stroke="transparent" points="-4,4 -4,-360 2132,-360 2132,4 -4,4"/>
<!-- Node1 -->
<g id="node1" class="node">
<title>Node1</title>
<g id="a_node1"><a xlink:title="Implementation of Particle.">
<polygon fill="#bfbfbf" stroke="black" points="256.5,-336.5 256.5,-355.5 375.5,-355.5 375.5,-336.5 256.5,-336.5"/>
<text text-anchor="middle" x="316" y="-343.5" font-family="Helvetica,sans-Serif" font-size="10.00">src/entities/Particle.cpp</text>
</a>
</g>
</g>
<!-- Node2 -->
<g id="node2" class="node">
<title>Node2</title>
<g id="a_node2"><a xlink:href="Particle_8h.html" target="_top" xlink:title="Just little blips that make things look cool.">
<polygon fill="white" stroke="black" points="138,-280.5 138,-299.5 230,-299.5 230,-280.5 138,-280.5"/>
<text text-anchor="middle" x="184" y="-287.5" font-family="Helvetica,sans-Serif" font-size="10.00">entities/Particle.h</text>
</a>
</g>
</g>
<!-- Node1&#45;&gt;Node2 -->
<g id="edge1" class="edge">
<title>Node1&#45;&gt;Node2</title>
<path fill="none" stroke="midnightblue" d="M295.08,-336.44C273.26,-327.52 238.85,-313.44 214.11,-303.32"/>
<polygon fill="midnightblue" stroke="midnightblue" points="215.4,-300.06 204.82,-299.52 212.75,-306.54 215.4,-300.06"/>
</g>
<!-- Node12 -->
<g id="node12" class="node">
<title>Node12</title>
<g id="a_node12"><a xlink:href="math_8h.html" target="_top" xlink:title="General purpose math functions.">
<polygon fill="white" stroke="black" points="273,-280.5 273,-299.5 359,-299.5 359,-280.5 273,-280.5"/>
<text text-anchor="middle" x="316" y="-287.5" font-family="Helvetica,sans-Serif" font-size="10.00">common/math.h</text>
</a>
</g>
</g>
<!-- Node1&#45;&gt;Node12 -->
<g id="edge15" class="edge">
<title>Node1&#45;&gt;Node12</title>
<path fill="none" stroke="midnightblue" d="M316,-336.08C316,-329.01 316,-318.86 316,-309.99"/>
<polygon fill="midnightblue" stroke="midnightblue" points="319.5,-309.75 316,-299.75 312.5,-309.75 319.5,-309.75"/>
</g>
<!-- Node13 -->
<g id="node13" class="node">
<title>Node13</title>
<g id="a_node13"><a xlink:href="Scene_8h.html" target="_top" xlink:title="Parent scene class. Children can be added to scene manager.">
<polygon fill="white" stroke="black" points="401.5,-280.5 401.5,-299.5 482.5,-299.5 482.5,-280.5 401.5,-280.5"/>
<text text-anchor="middle" x="442" y="-287.5" font-family="Helvetica,sans-Serif" font-size="10.00">scene/Scene.h</text>
</a>
</g>
</g>
<!-- Node1&#45;&gt;Node13 -->
<g id="edge16" class="edge">
<title>Node1&#45;&gt;Node13</title>
<path fill="none" stroke="midnightblue" d="M335.97,-336.44C356.61,-327.6 389.06,-313.69 412.63,-303.59"/>
<polygon fill="midnightblue" stroke="midnightblue" points="414.32,-306.67 422.13,-299.52 411.56,-300.24 414.32,-306.67"/>
</g>
<!-- Node3 -->
<g id="node3" class="node">
<title>Node3</title>
<g id="a_node3"><a xlink:href="Sprite_8h.html" target="_top" xlink:title="Simple textured GameObject.">
<polygon fill="white" stroke="black" points="138,-224.5 138,-243.5 230,-243.5 230,-224.5 138,-224.5"/>
<text text-anchor="middle" x="184" y="-231.5" font-family="Helvetica,sans-Serif" font-size="10.00">../entities/Sprite.h</text>
</a>
</g>
</g>
<!-- Node2&#45;&gt;Node3 -->
<g id="edge2" class="edge">
<title>Node2&#45;&gt;Node3</title>
<path fill="none" stroke="midnightblue" d="M184,-280.08C184,-273.01 184,-262.86 184,-253.99"/>
<polygon fill="midnightblue" stroke="midnightblue" points="187.5,-253.75 184,-243.75 180.5,-253.75 187.5,-253.75"/>
</g>
<!-- Node11 -->
<g id="node11" class="node">
<title>Node11</title>
<g id="a_node11"><a xlink:href="Primitives_8h.html" target="_top" xlink:title="Wrapper for SDL_GFX primitive types. Allows drawing without knowing about SDL.">
<polygon fill="white" stroke="black" points="0,-224.5 0,-243.5 120,-243.5 120,-224.5 0,-224.5"/>
<text text-anchor="middle" x="60" y="-231.5" font-family="Helvetica,sans-Serif" font-size="10.00">../primitives/Primitives.h</text>
</a>
</g>
</g>
<!-- Node2&#45;&gt;Node11 -->
<g id="edge13" class="edge">
<title>Node2&#45;&gt;Node11</title>
<path fill="none" stroke="midnightblue" d="M164.35,-280.44C144.04,-271.6 112.1,-257.69 88.9,-247.59"/>
<polygon fill="midnightblue" stroke="midnightblue" points="90.12,-244.3 79.56,-243.52 87.33,-250.72 90.12,-244.3"/>
</g>
<!-- Node4 -->
<g id="node4" class="node">
<title>Node4</title>
<g id="a_node4"><a xlink:title=" ">
<polygon fill="white" stroke="#bfbfbf" points="926.5,-56.5 926.5,-75.5 967.5,-75.5 967.5,-56.5 926.5,-56.5"/>
<text text-anchor="middle" x="947" y="-63.5" font-family="Helvetica,sans-Serif" font-size="10.00">string</text>
</a>
</g>
</g>
<!-- Node3&#45;&gt;Node4 -->
<g id="edge3" class="edge">
<title>Node3&#45;&gt;Node4</title>
<path fill="none" stroke="midnightblue" d="M171.29,-224.49C154.86,-212.36 129.64,-189.23 141,-168 162.17,-128.44 182.48,-126.33 225,-112 291.13,-89.71 786.62,-72.21 916.11,-67.98"/>
<polygon fill="midnightblue" stroke="midnightblue" points="916.27,-71.47 926.15,-67.65 916.04,-64.48 916.27,-71.47"/>
</g>
<!-- Node5 -->
<g id="node5" class="node">
<title>Node5</title>
<g id="a_node5"><a xlink:href="Texture_8h.html" target="_top" xlink:title="Easy interface to interact with sdl bitmaps.">
<polygon fill="white" stroke="black" points="505,-112.5 505,-131.5 601,-131.5 601,-112.5 505,-112.5"/>
<text text-anchor="middle" x="553" y="-119.5" font-family="Helvetica,sans-Serif" font-size="10.00">../assets/Texture.h</text>
</a>
</g>
</g>
<!-- Node3&#45;&gt;Node5 -->
<g id="edge4" class="edge">
<title>Node3&#45;&gt;Node5</title>
<path fill="none" stroke="midnightblue" d="M198.1,-224.46C221.68,-210.55 270.94,-183.06 316,-168 375.33,-148.17 446.12,-136.16 494.79,-129.59"/>
<polygon fill="midnightblue" stroke="midnightblue" points="495.36,-133.05 504.82,-128.28 494.45,-126.11 495.36,-133.05"/>
</g>
<!-- Node9 -->
<g id="node9" class="node">
<title>Node9</title>
<g id="a_node9"><a xlink:href="GameObject_8h.html" target="_top" xlink:title="Implementation of GameObject class.">
<polygon fill="white" stroke="black" points="150.5,-168.5 150.5,-187.5 229.5,-187.5 229.5,-168.5 150.5,-168.5"/>
<text text-anchor="middle" x="190" y="-175.5" font-family="Helvetica,sans-Serif" font-size="10.00">GameObject.h</text>
</a>
</g>
</g>
<!-- Node3&#45;&gt;Node9 -->
<g id="edge9" class="edge">
<title>Node3&#45;&gt;Node9</title>
<path fill="none" stroke="midnightblue" d="M184.99,-224.08C185.79,-216.93 186.93,-206.64 187.92,-197.69"/>
<polygon fill="midnightblue" stroke="midnightblue" points="191.4,-198.08 189.03,-187.75 184.44,-197.3 191.4,-198.08"/>
</g>
<!-- Node5&#45;&gt;Node4 -->
<g id="edge6" class="edge">
<title>Node5&#45;&gt;Node4</title>
<path fill="none" stroke="midnightblue" d="M601.06,-113.98C605.77,-113.3 610.48,-112.63 615,-112 725.89,-96.44 857.76,-78.83 916.34,-71.06"/>
<polygon fill="midnightblue" stroke="midnightblue" points="916.95,-74.51 926.4,-69.72 916.03,-67.57 916.95,-74.51"/>
</g>
<!-- Node6 -->
<g id="node6" class="node">
<title>Node6</title>
<g id="a_node6"><a xlink:title=" ">
<polygon fill="white" stroke="#bfbfbf" points="384.5,-56.5 384.5,-75.5 455.5,-75.5 455.5,-56.5 384.5,-56.5"/>
<text text-anchor="middle" x="420" y="-63.5" font-family="Helvetica,sans-Serif" font-size="10.00">SDL2/SDL.h</text>
</a>
</g>
</g>
<!-- Node5&#45;&gt;Node6 -->
<g id="edge5" class="edge">
<title>Node5&#45;&gt;Node6</title>
<path fill="none" stroke="midnightblue" d="M531.93,-112.44C509.94,-103.52 475.27,-89.44 450.34,-79.32"/>
<polygon fill="midnightblue" stroke="midnightblue" points="451.56,-76.04 440.98,-75.52 448.92,-82.52 451.56,-76.04"/>
</g>
<!-- Node7 -->
<g id="node7" class="node">
<title>Node7</title>
<g id="a_node7"><a xlink:href="Color_8h.html" target="_top" xlink:title="Helpers for creating colors without accessing SDL api directly.">
<polygon fill="white" stroke="black" points="494,-56.5 494,-75.5 572,-75.5 572,-56.5 494,-56.5"/>
<text text-anchor="middle" x="533" y="-63.5" font-family="Helvetica,sans-Serif" font-size="10.00">../color/Color.h</text>
</a>
</g>
</g>
<!-- Node5&#45;&gt;Node7 -->
<g id="edge7" class="edge">
<title>Node5&#45;&gt;Node7</title>
<path fill="none" stroke="midnightblue" d="M549.7,-112.08C547.02,-104.85 543.15,-94.41 539.81,-85.4"/>
<polygon fill="midnightblue" stroke="midnightblue" points="543,-83.91 536.24,-75.75 536.43,-86.34 543,-83.91"/>
</g>
<!-- Node8 -->
<g id="node8" class="node">
<title>Node8</title>
<g id="a_node8"><a xlink:title=" ">
<polygon fill="white" stroke="#bfbfbf" points="464,-0.5 464,-19.5 602,-19.5 602,-0.5 464,-0.5"/>
<text text-anchor="middle" x="533" y="-7.5" font-family="Helvetica,sans-Serif" font-size="10.00">SDL2/SDL2_gfxPrimitives.h</text>
</a>
</g>
</g>
<!-- Node7&#45;&gt;Node8 -->
<g id="edge8" class="edge">
<title>Node7&#45;&gt;Node8</title>
<path fill="none" stroke="midnightblue" d="M533,-56.08C533,-49.01 533,-38.86 533,-29.99"/>
<polygon fill="midnightblue" stroke="midnightblue" points="536.5,-29.75 533,-19.75 529.5,-29.75 536.5,-29.75"/>
</g>
<!-- Node9&#45;&gt;Node4 -->
<g id="edge11" class="edge">
<title>Node9&#45;&gt;Node4</title>
<path fill="none" stroke="midnightblue" d="M195.89,-168.29C206.39,-153.62 229.89,-124.35 258,-112 318.78,-85.29 790.37,-71.11 916.22,-67.77"/>
<polygon fill="midnightblue" stroke="midnightblue" points="916.42,-71.27 926.32,-67.51 916.23,-64.27 916.42,-71.27"/>
</g>
<!-- Node9&#45;&gt;Node6 -->
<g id="edge10" class="edge">
<title>Node9&#45;&gt;Node6</title>
<path fill="none" stroke="midnightblue" d="M190.9,-168.36C192.85,-154.31 198.76,-126.63 216,-112 239.46,-92.09 321.45,-78.8 374.07,-72.11"/>
<polygon fill="midnightblue" stroke="midnightblue" points="374.68,-75.56 384.17,-70.86 373.82,-68.61 374.68,-75.56"/>
</g>
<!-- Node10 -->
<g id="node10" class="node">
<title>Node10</title>
<g id="a_node10"><a xlink:title=" ">
<polygon fill="white" stroke="#bfbfbf" points="267,-112.5 267,-131.5 311,-131.5 311,-112.5 267,-112.5"/>
<text text-anchor="middle" x="289" y="-119.5" font-family="Helvetica,sans-Serif" font-size="10.00">vector</text>
</a>
</g>
</g>
<!-- Node9&#45;&gt;Node10 -->
<g id="edge12" class="edge">
<title>Node9&#45;&gt;Node10</title>
<path fill="none" stroke="midnightblue" d="M205.91,-168.32C221.64,-159.74 245.94,-146.49 264.21,-136.52"/>
<polygon fill="midnightblue" stroke="midnightblue" points="266.03,-139.52 273.13,-131.65 262.68,-133.37 266.03,-139.52"/>
</g>
<!-- Node11&#45;&gt;Node7 -->
<g id="edge14" class="edge">
<title>Node11&#45;&gt;Node7</title>
<path fill="none" stroke="midnightblue" d="M61.52,-224.43C66.04,-201.69 81.7,-139.63 122,-112 185.21,-68.67 388.89,-85.03 465,-76 470.98,-75.29 477.26,-74.51 483.48,-73.71"/>
<polygon fill="midnightblue" stroke="midnightblue" points="484.36,-77.13 493.83,-72.37 483.46,-70.19 484.36,-77.13"/>
</g>
<!-- Node13&#45;&gt;Node4 -->
<g id="edge19" class="edge">
<title>Node13&#45;&gt;Node4</title>
<path fill="none" stroke="midnightblue" d="M482.56,-288.32C653.27,-284.99 1313.22,-267.13 1503,-188 1540.74,-172.26 1557.91,-168.67 1576,-132 1579.93,-124.03 1582.06,-118.51 1576,-112 1565.67,-100.9 1102.15,-75.31 977.56,-68.62"/>
<polygon fill="midnightblue" stroke="midnightblue" points="977.72,-65.13 967.55,-68.09 977.35,-72.12 977.72,-65.13"/>
</g>
<!-- Node13&#45;&gt;Node9 -->
<g id="edge25" class="edge">
<title>Node13&#45;&gt;Node9</title>
<path fill="none" stroke="midnightblue" d="M430.02,-280.37C410.79,-266.82 371.46,-240.43 335,-224 302.97,-209.57 264.99,-197.96 235.93,-190.16"/>
<polygon fill="midnightblue" stroke="midnightblue" points="236.61,-186.72 226.05,-187.56 234.83,-193.49 236.61,-186.72"/>
</g>
<!-- Node13&#45;&gt;Node10 -->
<g id="edge21" class="edge">
<title>Node13&#45;&gt;Node10</title>
<path fill="none" stroke="midnightblue" d="M401.5,-283.61C357.68,-276.85 292.05,-263.7 277,-244 254.03,-213.92 269.12,-166.62 280.23,-140.98"/>
<polygon fill="midnightblue" stroke="midnightblue" points="283.49,-142.26 284.48,-131.71 277.13,-139.34 283.49,-142.26"/>
</g>
<!-- Node14 -->
<g id="node14" class="node">
<title>Node14</title>
<g id="a_node14"><a xlink:title=" ">
<polygon fill="white" stroke="#bfbfbf" points="1106.5,-112.5 1106.5,-131.5 1141.5,-131.5 1141.5,-112.5 1106.5,-112.5"/>
<text text-anchor="middle" x="1124" y="-119.5" font-family="Helvetica,sans-Serif" font-size="10.00">map</text>
</a>
</g>
</g>
<!-- Node13&#45;&gt;Node14 -->
<g id="edge17" class="edge">
<title>Node13&#45;&gt;Node14</title>
<path fill="none" stroke="midnightblue" d="M482.56,-288.19C574.42,-285.8 805.16,-276.76 995,-244 1090.19,-227.57 1146.15,-264.6 1205,-188 1210.42,-180.95 1209.51,-175.66 1205,-168 1198.88,-157.6 1172.12,-143.93 1151,-134.4"/>
<polygon fill="midnightblue" stroke="midnightblue" points="1152.36,-131.18 1141.8,-130.34 1149.53,-137.58 1152.36,-131.18"/>
</g>
<!-- Node15 -->
<g id="node15" class="node">
<title>Node15</title>
<g id="a_node15"><a xlink:title=" ">
<polygon fill="white" stroke="#bfbfbf" points="440.5,-168.5 440.5,-187.5 491.5,-187.5 491.5,-168.5 440.5,-168.5"/>
<text text-anchor="middle" x="466" y="-175.5" font-family="Helvetica,sans-Serif" font-size="10.00">memory</text>
</a>
</g>
</g>
<!-- Node13&#45;&gt;Node15 -->
<g id="edge18" class="edge">
<title>Node13&#45;&gt;Node15</title>
<path fill="none" stroke="midnightblue" d="M465.79,-280.5C481.72,-273.41 501.46,-261.61 511,-244 520.85,-225.81 503.5,-206.51 487.57,-193.71"/>
<polygon fill="midnightblue" stroke="midnightblue" points="489.61,-190.86 479.52,-187.65 485.4,-196.46 489.61,-190.86"/>
</g>
<!-- Node16 -->
<g id="node16" class="node">
<title>Node16</title>
<g id="a_node16"><a xlink:title=" ">
<polygon fill="white" stroke="#bfbfbf" points="286.5,-224.5 286.5,-243.5 325.5,-243.5 325.5,-224.5 286.5,-224.5"/>
<text text-anchor="middle" x="306" y="-231.5" font-family="Helvetica,sans-Serif" font-size="10.00">utility</text>
</a>
</g>
</g>
<!-- Node13&#45;&gt;Node16 -->
<g id="edge20" class="edge">
<title>Node13&#45;&gt;Node16</title>
<path fill="none" stroke="midnightblue" d="M420.45,-280.44C397.44,-271.31 360.84,-256.77 335.24,-246.61"/>
<polygon fill="midnightblue" stroke="midnightblue" points="336.27,-243.25 325.68,-242.82 333.69,-249.76 336.27,-243.25"/>
</g>
<!-- Node17 -->
<g id="node17" class="node">
<title>Node17</title>
<g id="a_node17"><a xlink:href="Exceptions_8h.html" target="_top" xlink:title="Interally used exceptions. These can be handled properly in the main game class.">
<polygon fill="white" stroke="black" points="382.5,-224.5 382.5,-243.5 501.5,-243.5 501.5,-224.5 382.5,-224.5"/>
<text text-anchor="middle" x="442" y="-231.5" font-family="Helvetica,sans-Serif" font-size="10.00">../common/Exceptions.h</text>
</a>
</g>
</g>
<!-- Node13&#45;&gt;Node17 -->
<g id="edge22" class="edge">
<title>Node13&#45;&gt;Node17</title>
<path fill="none" stroke="midnightblue" d="M442,-280.08C442,-273.01 442,-262.86 442,-253.99"/>
<polygon fill="midnightblue" stroke="midnightblue" points="445.5,-253.75 442,-243.75 438.5,-253.75 445.5,-253.75"/>
</g>
<!-- Node19 -->
<g id="node19" class="node">
<title>Node19</title>
<g id="a_node19"><a xlink:href="Services_8h.html" target="_top" xlink:title="Implementation of core Services class.">
<polygon fill="white" stroke="black" points="876,-224.5 876,-243.5 986,-243.5 986,-224.5 876,-224.5"/>
<text text-anchor="middle" x="931" y="-231.5" font-family="Helvetica,sans-Serif" font-size="10.00">../services/Services.h</text>
</a>
</g>
</g>
<!-- Node13&#45;&gt;Node19 -->
<g id="edge26" class="edge">
<title>Node13&#45;&gt;Node19</title>
<path fill="none" stroke="midnightblue" d="M482.85,-284.49C567.62,-275.13 763.27,-253.52 865.74,-242.21"/>
<polygon fill="midnightblue" stroke="midnightblue" points="866.4,-245.66 875.96,-241.08 865.63,-238.7 866.4,-245.66"/>
</g>
<!-- Node17&#45;&gt;Node4 -->
<g id="edge24" class="edge">
<title>Node17&#45;&gt;Node4</title>
<path fill="none" stroke="midnightblue" d="M436.92,-224.33C429.68,-210.73 418.7,-184.26 432,-168 483.1,-105.53 531.01,-148.57 610,-132 650.95,-123.41 660.97,-120.23 702,-112 778.91,-96.58 869.82,-80.42 916.28,-72.31"/>
<polygon fill="midnightblue" stroke="midnightblue" points="917.06,-75.73 926.31,-70.57 915.85,-68.83 917.06,-75.73"/>
</g>
<!-- Node18 -->
<g id="node18" class="node">
<title>Node18</title>
<g id="a_node18"><a xlink:title=" ">
<polygon fill="white" stroke="#bfbfbf" points="324.5,-168.5 324.5,-187.5 383.5,-187.5 383.5,-168.5 324.5,-168.5"/>
<text text-anchor="middle" x="354" y="-175.5" font-family="Helvetica,sans-Serif" font-size="10.00">stdexcept</text>
</a>
</g>
</g>
<!-- Node17&#45;&gt;Node18 -->
<g id="edge23" class="edge">
<title>Node17&#45;&gt;Node18</title>
<path fill="none" stroke="midnightblue" d="M427.86,-224.32C414.13,-215.9 393.06,-202.97 376.94,-193.07"/>
<polygon fill="midnightblue" stroke="midnightblue" points="378.46,-189.9 368.1,-187.65 374.8,-195.87 378.46,-189.9"/>
</g>
<!-- Node19&#45;&gt;Node15 -->
<g id="edge27" class="edge">
<title>Node19&#45;&gt;Node15</title>
<path fill="none" stroke="midnightblue" d="M875.99,-229.85C795.79,-224.68 641.95,-212.6 501.6,-187.83"/>
<polygon fill="midnightblue" stroke="midnightblue" points="501.98,-184.34 491.52,-186.03 500.74,-191.23 501.98,-184.34"/>
</g>
<!-- Node20 -->
<g id="node20" class="node">
<title>Node20</title>
<g id="a_node20"><a xlink:href="AssetService_8h.html" target="_top" xlink:title="Implementation of AssetService.">
<polygon fill="white" stroke="black" points="1252.5,-168.5 1252.5,-187.5 1367.5,-187.5 1367.5,-168.5 1252.5,-168.5"/>
<text text-anchor="middle" x="1310" y="-175.5" font-family="Helvetica,sans-Serif" font-size="10.00">assets/AssetService.h</text>
</a>
</g>
</g>
<!-- Node19&#45;&gt;Node20 -->
<g id="edge28" class="edge">
<title>Node19&#45;&gt;Node20</title>
<path fill="none" stroke="midnightblue" d="M986.11,-225.15C1053.95,-215.48 1169.14,-199.07 1242.3,-188.65"/>
<polygon fill="midnightblue" stroke="midnightblue" points="1242.93,-192.09 1252.34,-187.22 1241.94,-185.16 1242.93,-192.09"/>
</g>
<!-- Node26 -->
<g id="node26" class="node">
<title>Node26</title>
<g id="a_node26"><a xlink:href="AudioService_8h.html" target="_top" xlink:title="Default audio service, can actually play audio.">
<polygon fill="white" stroke="black" points="1386,-168.5 1386,-187.5 1494,-187.5 1494,-168.5 1386,-168.5"/>
<text text-anchor="middle" x="1440" y="-175.5" font-family="Helvetica,sans-Serif" font-size="10.00">audio/AudioService.h</text>
</a>
</g>
</g>
<!-- Node19&#45;&gt;Node26 -->
<g id="edge42" class="edge">
<title>Node19&#45;&gt;Node26</title>
<path fill="none" stroke="midnightblue" d="M986.01,-228.19C1068.4,-220.82 1228.98,-205.82 1375.64,-188.12"/>
<polygon fill="midnightblue" stroke="midnightblue" points="1376.22,-191.58 1385.72,-186.9 1375.37,-184.63 1376.22,-191.58"/>
</g>
<!-- Node27 -->
<g id="node27" class="node">
<title>Node27</title>
<g id="a_node27"><a xlink:href="ConfigService_8h.html" target="_top" xlink:title="Header for default Config Service.">
<polygon fill="white" stroke="black" points="1082.5,-168.5 1082.5,-187.5 1195.5,-187.5 1195.5,-168.5 1082.5,-168.5"/>
<text text-anchor="middle" x="1139" y="-175.5" font-family="Helvetica,sans-Serif" font-size="10.00">config/ConfigService.h</text>
</a>
</g>
</g>
<!-- Node19&#45;&gt;Node27 -->
<g id="edge46" class="edge">
<title>Node19&#45;&gt;Node27</title>
<path fill="none" stroke="midnightblue" d="M963.96,-224.44C999.79,-215.14 1057.16,-200.25 1096.39,-190.06"/>
<polygon fill="midnightblue" stroke="midnightblue" points="1097.4,-193.42 1106.2,-187.52 1095.64,-186.64 1097.4,-193.42"/>
</g>
<!-- Node29 -->
<g id="node29" class="node">
<title>Node29</title>
<g id="a_node29"><a xlink:href="DisplayService_8h.html" target="_top" xlink:title="Service that encapsulates SDL display related functionality.">
<polygon fill="white" stroke="black" points="638,-168.5 638,-187.5 760,-187.5 760,-168.5 638,-168.5"/>
<text text-anchor="middle" x="699" y="-175.5" font-family="Helvetica,sans-Serif" font-size="10.00">display/DisplayService.h</text>
</a>
</g>
</g>
<!-- Node19&#45;&gt;Node29 -->
<g id="edge50" class="edge">
<title>Node19&#45;&gt;Node29</title>
<path fill="none" stroke="midnightblue" d="M894.24,-224.44C853.94,-215.06 789.19,-199.99 745.42,-189.8"/>
<polygon fill="midnightblue" stroke="midnightblue" points="746.12,-186.37 735.59,-187.52 744.54,-193.19 746.12,-186.37"/>
</g>
<!-- Node32 -->
<g id="node32" class="node">
<title>Node32</title>
<g id="a_node32"><a xlink:href="EventQueue_8h.html" target="_top" xlink:title="Handles SDL_Events from main SDL_Queue. Can be hooked into by other services and notified when change...">
<polygon fill="white" stroke="black" points="510,-168.5 510,-187.5 620,-187.5 620,-168.5 510,-168.5"/>
<text text-anchor="middle" x="565" y="-175.5" font-family="Helvetica,sans-Serif" font-size="10.00">events/EventQueue.h</text>
</a>
</g>
</g>
<!-- Node19&#45;&gt;Node32 -->
<g id="edge57" class="edge">
<title>Node19&#45;&gt;Node32</title>
<path fill="none" stroke="midnightblue" d="M875.81,-224.86C809.95,-215.14 699.99,-198.92 630.06,-188.6"/>
<polygon fill="midnightblue" stroke="midnightblue" points="630.44,-185.12 620.04,-187.12 629.42,-192.04 630.44,-185.12"/>
</g>
<!-- Node33 -->
<g id="node33" class="node">
<title>Node33</title>
<g id="a_node33"><a xlink:href="InputService_8h.html" target="_top" xlink:title="General Purpose input listener. Handles Mouse, Keyboard, Joystick.">
<polygon fill="white" stroke="black" points="1680.5,-168.5 1680.5,-187.5 1783.5,-187.5 1783.5,-168.5 1680.5,-168.5"/>
<text text-anchor="middle" x="1732" y="-175.5" font-family="Helvetica,sans-Serif" font-size="10.00">input/InputService.h</text>
</a>
</g>
</g>
<!-- Node19&#45;&gt;Node33 -->
<g id="edge61" class="edge">
<title>Node19&#45;&gt;Node33</title>
<path fill="none" stroke="midnightblue" d="M986.06,-229.29C1130.4,-219.56 1519.02,-193.36 1670.43,-183.15"/>
<polygon fill="midnightblue" stroke="midnightblue" points="1670.74,-186.64 1680.49,-182.47 1670.27,-179.65 1670.74,-186.64"/>
</g>
<!-- Node41 -->
<g id="node41" class="node">
<title>Node41</title>
<g id="a_node41"><a xlink:href="DebugLoggingService_8h.html" target="_top" xlink:title="Logging service that does the logging. Used for development.">
<polygon fill="white" stroke="black" points="778.5,-168.5 778.5,-187.5 931.5,-187.5 931.5,-168.5 778.5,-168.5"/>
<text text-anchor="middle" x="855" y="-175.5" font-family="Helvetica,sans-Serif" font-size="10.00">logging/DebugLoggingService.h</text>
</a>
</g>
</g>
<!-- Node19&#45;&gt;Node41 -->
<g id="edge74" class="edge">
<title>Node19&#45;&gt;Node41</title>
<path fill="none" stroke="midnightblue" d="M918.79,-224.32C907.22,-216.11 889.62,-203.6 875.84,-193.81"/>
<polygon fill="midnightblue" stroke="midnightblue" points="877.61,-190.77 867.43,-187.83 873.56,-196.48 877.61,-190.77"/>
</g>
<!-- Node43 -->
<g id="node43" class="node">
<title>Node43</title>
<g id="a_node43"><a xlink:href="SceneService_8h.html" target="_top" xlink:title="Service in charge of managing scenes.">
<polygon fill="white" stroke="black" points="950,-168.5 950,-187.5 1064,-187.5 1064,-168.5 950,-168.5"/>
<text text-anchor="middle" x="1007" y="-175.5" font-family="Helvetica,sans-Serif" font-size="10.00">scene/SceneService.h</text>
</a>
</g>
</g>
<!-- Node19&#45;&gt;Node43 -->
<g id="edge78" class="edge">
<title>Node19&#45;&gt;Node43</title>
<path fill="none" stroke="midnightblue" d="M943.21,-224.32C954.78,-216.11 972.38,-203.6 986.16,-193.81"/>
<polygon fill="midnightblue" stroke="midnightblue" points="988.44,-196.48 994.57,-187.83 984.39,-190.77 988.44,-196.48"/>
</g>
<!-- Node20&#45;&gt;Node4 -->
<g id="edge30" class="edge">
<title>Node20&#45;&gt;Node4</title>
<path fill="none" stroke="midnightblue" d="M1305.96,-168.08C1298.9,-153.62 1282.86,-125.36 1260,-112 1212.42,-84.19 1046.97,-72.32 977.79,-68.5"/>
<polygon fill="midnightblue" stroke="midnightblue" points="977.71,-64.99 967.54,-67.95 977.34,-71.98 977.71,-64.99"/>
</g>
<!-- Node20&#45;&gt;Node5 -->
<g id="edge41" class="edge">
<title>Node20&#45;&gt;Node5</title>
<path fill="none" stroke="midnightblue" d="M1252.25,-171.88C1236.9,-170.56 1220.32,-169.19 1205,-168 986.15,-151.07 725.72,-134.03 611.54,-126.71"/>
<polygon fill="midnightblue" stroke="midnightblue" points="611.48,-123.2 601.28,-126.06 611.03,-130.19 611.48,-123.2"/>
</g>
<!-- Node20&#45;&gt;Node14 -->
<g id="edge29" class="edge">
<title>Node20&#45;&gt;Node14</title>
<path fill="none" stroke="midnightblue" d="M1278.2,-168.46C1247.96,-160.24 1200.99,-147.21 1151.32,-131.99"/>
<polygon fill="midnightblue" stroke="midnightblue" points="1152.27,-128.62 1141.68,-129.02 1150.21,-135.31 1152.27,-128.62"/>
</g>
<!-- Node21 -->
<g id="node21" class="node">
<title>Node21</title>
<g id="a_node21"><a xlink:href="Font_8h.html" target="_top" xlink:title="Easy interface to interact with SDL fonts.">
<polygon fill="white" stroke="black" points="1159.5,-112.5 1159.5,-131.5 1250.5,-131.5 1250.5,-112.5 1159.5,-112.5"/>
<text text-anchor="middle" x="1205" y="-119.5" font-family="Helvetica,sans-Serif" font-size="10.00">../../assets/Font.h</text>
</a>
</g>
</g>
<!-- Node20&#45;&gt;Node21 -->
<g id="edge31" class="edge">
<title>Node20&#45;&gt;Node21</title>
<path fill="none" stroke="midnightblue" d="M1293.13,-168.32C1276.29,-159.66 1250.19,-146.24 1230.76,-136.25"/>
<polygon fill="midnightblue" stroke="midnightblue" points="1232.32,-133.12 1221.83,-131.65 1229.12,-139.34 1232.32,-133.12"/>
</g>
<!-- Node23 -->
<g id="node23" class="node">
<title>Node23</title>
<g id="a_node23"><a xlink:href="Sound_8h.html" target="_top" xlink:title="Implementation of Sound.">
<polygon fill="white" stroke="black" points="1467.5,-112.5 1467.5,-131.5 1566.5,-131.5 1566.5,-112.5 1467.5,-112.5"/>
<text text-anchor="middle" x="1517" y="-119.5" font-family="Helvetica,sans-Serif" font-size="10.00">../../assets/Sound.h</text>
</a>
</g>
</g>
<!-- Node20&#45;&gt;Node23 -->
<g id="edge35" class="edge">
<title>Node20&#45;&gt;Node23</title>
<path fill="none" stroke="midnightblue" d="M1342.8,-168.44C1378.38,-159.16 1435.31,-144.31 1474.35,-134.13"/>
<polygon fill="midnightblue" stroke="midnightblue" points="1475.56,-137.43 1484.35,-131.52 1473.79,-130.65 1475.56,-137.43"/>
</g>
<!-- Node25 -->
<g id="node25" class="node">
<title>Node25</title>
<g id="a_node25"><a xlink:href="Stream_8h.html" target="_top" xlink:title="Wrapper for sdl stream including ability to store stream pointer. Use for single instance sounds like...">
<polygon fill="white" stroke="black" points="1307.5,-112.5 1307.5,-131.5 1410.5,-131.5 1410.5,-112.5 1307.5,-112.5"/>
<text text-anchor="middle" x="1359" y="-119.5" font-family="Helvetica,sans-Serif" font-size="10.00">../../assets/Stream.h</text>
</a>
</g>
</g>
<!-- Node20&#45;&gt;Node25 -->
<g id="edge38" class="edge">
<title>Node20&#45;&gt;Node25</title>
<path fill="none" stroke="midnightblue" d="M1318.09,-168.08C1325.16,-160.3 1335.59,-148.8 1344.15,-139.37"/>
<polygon fill="midnightblue" stroke="midnightblue" points="1346.93,-141.51 1351.06,-131.75 1341.75,-136.8 1346.93,-141.51"/>
</g>
<!-- Node21&#45;&gt;Node4 -->
<g id="edge33" class="edge">
<title>Node21&#45;&gt;Node4</title>
<path fill="none" stroke="midnightblue" d="M1164.12,-112.44C1112.31,-101.6 1024.19,-83.16 977.74,-73.43"/>
<polygon fill="midnightblue" stroke="midnightblue" points="978.19,-69.95 967.68,-71.33 976.76,-76.8 978.19,-69.95"/>
</g>
<!-- Node21&#45;&gt;Node7 -->
<g id="edge34" class="edge">
<title>Node21&#45;&gt;Node7</title>
<path fill="none" stroke="midnightblue" d="M1159.38,-113.09C1156.55,-112.7 1153.74,-112.33 1151,-112 940.33,-86.83 687.46,-73.73 582.45,-69.05"/>
<polygon fill="midnightblue" stroke="midnightblue" points="582.31,-65.54 572.16,-68.59 582,-72.53 582.31,-65.54"/>
</g>
<!-- Node22 -->
<g id="node22" class="node">
<title>Node22</title>
<g id="a_node22"><a xlink:title=" ">
<polygon fill="white" stroke="#bfbfbf" points="1162,-56.5 1162,-75.5 1248,-75.5 1248,-56.5 1162,-56.5"/>
<text text-anchor="middle" x="1205" y="-63.5" font-family="Helvetica,sans-Serif" font-size="10.00">SDL2/SDL_ttf.h</text>
</a>
</g>
</g>
<!-- Node21&#45;&gt;Node22 -->
<g id="edge32" class="edge">
<title>Node21&#45;&gt;Node22</title>
<path fill="none" stroke="midnightblue" d="M1205,-112.08C1205,-105.01 1205,-94.86 1205,-85.99"/>
<polygon fill="midnightblue" stroke="midnightblue" points="1208.5,-85.75 1205,-75.75 1201.5,-85.75 1208.5,-85.75"/>
</g>
<!-- Node23&#45;&gt;Node4 -->
<g id="edge37" class="edge">
<title>Node23&#45;&gt;Node4</title>
<path fill="none" stroke="midnightblue" d="M1467.42,-113.77C1462.55,-113.14 1457.68,-112.54 1453,-112 1273.5,-91.41 1057.25,-74.96 978.02,-69.2"/>
<polygon fill="midnightblue" stroke="midnightblue" points="977.99,-65.69 967.76,-68.46 977.49,-72.68 977.99,-65.69"/>
</g>
<!-- Node24 -->
<g id="node24" class="node">
<title>Node24</title>
<g id="a_node24"><a xlink:title=" ">
<polygon fill="white" stroke="#bfbfbf" points="1388,-56.5 1388,-75.5 1488,-75.5 1488,-56.5 1388,-56.5"/>
<text text-anchor="middle" x="1438" y="-63.5" font-family="Helvetica,sans-Serif" font-size="10.00">SDL2/SDL_mixer.h</text>
</a>
</g>
</g>
<!-- Node23&#45;&gt;Node24 -->
<g id="edge36" class="edge">
<title>Node23&#45;&gt;Node24</title>
<path fill="none" stroke="midnightblue" d="M1504.31,-112.32C1492.1,-103.98 1473.42,-91.21 1459,-81.35"/>
<polygon fill="midnightblue" stroke="midnightblue" points="1460.89,-78.41 1450.66,-75.65 1456.94,-84.19 1460.89,-78.41"/>
</g>
<!-- Node25&#45;&gt;Node4 -->
<g id="edge40" class="edge">
<title>Node25&#45;&gt;Node4</title>
<path fill="none" stroke="midnightblue" d="M1307.48,-113.94C1302.59,-113.28 1297.7,-112.63 1293,-112 1176.6,-96.49 1038.08,-78.67 977.69,-70.93"/>
<polygon fill="midnightblue" stroke="midnightblue" points="978.04,-67.44 967.68,-69.64 977.15,-74.39 978.04,-67.44"/>
</g>
<!-- Node25&#45;&gt;Node24 -->
<g id="edge39" class="edge">
<title>Node25&#45;&gt;Node24</title>
<path fill="none" stroke="midnightblue" d="M1371.69,-112.32C1383.9,-103.98 1402.58,-91.21 1417,-81.35"/>
<polygon fill="midnightblue" stroke="midnightblue" points="1419.06,-84.19 1425.34,-75.65 1415.11,-78.41 1419.06,-84.19"/>
</g>
<!-- Node26&#45;&gt;Node4 -->
<g id="edge43" class="edge">
<title>Node26&#45;&gt;Node4</title>
<path fill="none" stroke="midnightblue" d="M1440.15,-168.19C1439.87,-153.9 1437.03,-125.87 1420,-112 1385.71,-84.07 1076.99,-71.36 977.64,-67.96"/>
<polygon fill="midnightblue" stroke="midnightblue" points="977.75,-64.47 967.64,-67.63 977.52,-71.46 977.75,-64.47"/>
</g>
<!-- Node26&#45;&gt;Node23 -->
<g id="edge44" class="edge">
<title>Node26&#45;&gt;Node23</title>
<path fill="none" stroke="midnightblue" d="M1452.37,-168.32C1464.16,-160.06 1482.13,-147.45 1496.14,-137.63"/>
<polygon fill="midnightblue" stroke="midnightblue" points="1498.48,-140.26 1504.66,-131.65 1494.46,-134.53 1498.48,-140.26"/>
</g>
<!-- Node26&#45;&gt;Node25 -->
<g id="edge45" class="edge">
<title>Node26&#45;&gt;Node25</title>
<path fill="none" stroke="midnightblue" d="M1426.99,-168.32C1414.47,-159.98 1395.32,-147.21 1380.53,-137.35"/>
<polygon fill="midnightblue" stroke="midnightblue" points="1382.24,-134.29 1371.98,-131.65 1378.36,-140.11 1382.24,-134.29"/>
</g>
<!-- Node27&#45;&gt;Node4 -->
<g id="edge49" class="edge">
<title>Node27&#45;&gt;Node4</title>
<path fill="none" stroke="midnightblue" d="M1111.23,-168.45C1087.88,-160.66 1054.09,-147.95 1027,-132 1003.06,-117.9 978.73,-97 963.3,-82.73"/>
<polygon fill="midnightblue" stroke="midnightblue" points="965.37,-79.88 955.69,-75.57 960.57,-84.97 965.37,-79.88"/>
</g>
<!-- Node27&#45;&gt;Node14 -->
<g id="edge47" class="edge">
<title>Node27&#45;&gt;Node14</title>
<path fill="none" stroke="midnightblue" d="M1136.52,-168.08C1134.51,-160.85 1131.61,-150.41 1129.11,-141.4"/>
<polygon fill="midnightblue" stroke="midnightblue" points="1132.48,-140.45 1126.43,-131.75 1125.74,-142.32 1132.48,-140.45"/>
</g>
<!-- Node28 -->
<g id="node28" class="node">
<title>Node28</title>
<g id="a_node28"><a xlink:title=" ">
<polygon fill="white" stroke="#bfbfbf" points="1036,-112.5 1036,-131.5 1088,-131.5 1088,-112.5 1036,-112.5"/>
<text text-anchor="middle" x="1062" y="-119.5" font-family="Helvetica,sans-Serif" font-size="10.00">sstream</text>
</a>
</g>
</g>
<!-- Node27&#45;&gt;Node28 -->
<g id="edge48" class="edge">
<title>Node27&#45;&gt;Node28</title>
<path fill="none" stroke="midnightblue" d="M1126.63,-168.32C1114.84,-160.06 1096.87,-147.45 1082.86,-137.63"/>
<polygon fill="midnightblue" stroke="midnightblue" points="1084.54,-134.53 1074.34,-131.65 1080.52,-140.26 1084.54,-134.53"/>
</g>
<!-- Node29&#45;&gt;Node4 -->
<g id="edge52" class="edge">
<title>Node29&#45;&gt;Node4</title>
<path fill="none" stroke="midnightblue" d="M699.01,-168.38C699.52,-154.35 702.69,-126.7 719,-112 747.66,-86.17 860.75,-73.82 916.12,-69.22"/>
<polygon fill="midnightblue" stroke="midnightblue" points="916.69,-72.69 926.38,-68.41 916.14,-65.71 916.69,-72.69"/>
</g>
<!-- Node29&#45;&gt;Node6 -->
<g id="edge51" class="edge">
<title>Node29&#45;&gt;Node6</title>
<path fill="none" stroke="midnightblue" d="M641.62,-168.49C588.31,-159.93 513.31,-146.03 487,-132 464.76,-120.15 444.82,-98.71 432.59,-83.71"/>
<polygon fill="midnightblue" stroke="midnightblue" points="435.26,-81.44 426.32,-75.74 429.75,-85.77 435.26,-81.44"/>
</g>
<!-- Node29&#45;&gt;Node7 -->
<g id="edge53" class="edge">
<title>Node29&#45;&gt;Node7</title>
<path fill="none" stroke="midnightblue" d="M644.33,-168.47C587.45,-159.04 505.35,-143.65 496,-132 483.52,-116.45 499.33,-96.17 513.97,-82.42"/>
<polygon fill="midnightblue" stroke="midnightblue" points="516.61,-84.77 521.8,-75.53 511.98,-79.51 516.61,-84.77"/>
</g>
<!-- Node30 -->
<g id="node30" class="node">
<title>Node30</title>
<g id="a_node30"><a xlink:href="Service_8h.html" target="_top" xlink:title="Service subscriber that can listen for events.">
<polygon fill="white" stroke="black" points="914.5,-112.5 914.5,-131.5 979.5,-131.5 979.5,-112.5 914.5,-112.5"/>
<text text-anchor="middle" x="947" y="-119.5" font-family="Helvetica,sans-Serif" font-size="10.00">../Service.h</text>
</a>
</g>
</g>
<!-- Node29&#45;&gt;Node30 -->
<g id="edge54" class="edge">
<title>Node29&#45;&gt;Node30</title>
<path fill="none" stroke="midnightblue" d="M738.3,-168.44C783.6,-158.58 857.78,-142.43 904.42,-132.27"/>
<polygon fill="midnightblue" stroke="midnightblue" points="905.2,-135.68 914.22,-130.14 903.71,-128.84 905.2,-135.68"/>
</g>
<!-- Node30&#45;&gt;Node4 -->
<g id="edge56" class="edge">
<title>Node30&#45;&gt;Node4</title>
<path fill="none" stroke="midnightblue" d="M947,-112.08C947,-105.01 947,-94.86 947,-85.99"/>
<polygon fill="midnightblue" stroke="midnightblue" points="950.5,-85.75 947,-75.75 943.5,-85.75 950.5,-85.75"/>
</g>
<!-- Node31 -->
<g id="node31" class="node">
<title>Node31</title>
<g id="a_node31"><a xlink:title=" ">
<polygon fill="white" stroke="#bfbfbf" points="1898,-56.5 1898,-75.5 2004,-75.5 2004,-56.5 1898,-56.5"/>
<text text-anchor="middle" x="1951" y="-63.5" font-family="Helvetica,sans-Serif" font-size="10.00">SDL2/SDL_events.h</text>
</a>
</g>
</g>
<!-- Node30&#45;&gt;Node31 -->
<g id="edge55" class="edge">
<title>Node30&#45;&gt;Node31</title>
<path fill="none" stroke="midnightblue" d="M979.65,-116.8C994.13,-115.08 1011.39,-113.2 1027,-112 1405.95,-82.81 1505.47,-111.08 1887.71,-76.01"/>
<polygon fill="midnightblue" stroke="midnightblue" points="1888.31,-79.47 1897.94,-75.07 1887.66,-72.5 1888.31,-79.47"/>
</g>
<!-- Node32&#45;&gt;Node6 -->
<g id="edge58" class="edge">
<title>Node32&#45;&gt;Node6</title>
<path fill="none" stroke="midnightblue" d="M521.12,-168.45C484.75,-160.41 437.1,-147.33 425,-132 414.82,-119.1 414.58,-99.93 416.28,-85.74"/>
<polygon fill="midnightblue" stroke="midnightblue" points="419.77,-86.08 417.9,-75.65 412.86,-84.97 419.77,-86.08"/>
</g>
<!-- Node32&#45;&gt;Node10 -->
<g id="edge59" class="edge">
<title>Node32&#45;&gt;Node10</title>
<path fill="none" stroke="midnightblue" d="M521.27,-168.44C465.5,-157.53 370.38,-138.92 320.95,-129.25"/>
<polygon fill="midnightblue" stroke="midnightblue" points="321.61,-125.81 311.13,-127.33 320.27,-132.68 321.61,-125.81"/>
</g>
<!-- Node32&#45;&gt;Node30 -->
<g id="edge60" class="edge">
<title>Node32&#45;&gt;Node30</title>
<path fill="none" stroke="midnightblue" d="M620.14,-169.21C696.98,-158.34 834.65,-138.88 904.24,-129.04"/>
<polygon fill="midnightblue" stroke="midnightblue" points="904.99,-132.47 914.4,-127.61 904.01,-125.54 904.99,-132.47"/>
</g>
<!-- Node33&#45;&gt;Node4 -->
<g id="edge64" class="edge">
<title>Node33&#45;&gt;Node4</title>
<path fill="none" stroke="midnightblue" d="M1716.77,-168.5C1686.44,-151.62 1620.38,-115.24 1609,-112 1547.89,-94.63 1100.56,-73.78 977.98,-68.35"/>
<polygon fill="midnightblue" stroke="midnightblue" points="977.94,-64.84 967.79,-67.9 977.63,-71.84 977.94,-64.84"/>
</g>
<!-- Node33&#45;&gt;Node30 -->
<g id="edge65" class="edge">
<title>Node33&#45;&gt;Node30</title>
<path fill="none" stroke="midnightblue" d="M1680.19,-174.55C1563.47,-168.85 1271.04,-153.5 1027,-132 1014.94,-130.94 1001.88,-129.56 989.88,-128.21"/>
<polygon fill="midnightblue" stroke="midnightblue" points="989.99,-124.7 979.66,-127.04 989.19,-131.65 989.99,-124.7"/>
</g>
<!-- Node33&#45;&gt;Node31 -->
<g id="edge62" class="edge">
<title>Node33&#45;&gt;Node31</title>
<path fill="none" stroke="midnightblue" d="M1783.63,-171.36C1835.55,-164.67 1910.85,-151.85 1932,-132 1944.58,-120.19 1948.98,-100.56 1950.45,-85.95"/>
<polygon fill="midnightblue" stroke="midnightblue" points="1953.96,-85.76 1951.09,-75.56 1946.98,-85.33 1953.96,-85.76"/>
</g>
<!-- Node34 -->
<g id="node34" class="node">
<title>Node34</title>
<g id="a_node34"><a xlink:title=" ">
<polygon fill="white" stroke="#bfbfbf" points="1661,-112.5 1661,-131.5 1715,-131.5 1715,-112.5 1661,-112.5"/>
<text text-anchor="middle" x="1688" y="-119.5" font-family="Helvetica,sans-Serif" font-size="10.00">iostream</text>
</a>
</g>
</g>
<!-- Node33&#45;&gt;Node34 -->
<g id="edge63" class="edge">
<title>Node33&#45;&gt;Node34</title>
<path fill="none" stroke="midnightblue" d="M1724.73,-168.08C1718.46,-160.38 1709.21,-149.03 1701.57,-139.65"/>
<polygon fill="midnightblue" stroke="midnightblue" points="1704.16,-137.29 1695.13,-131.75 1698.73,-141.71 1704.16,-137.29"/>
</g>
<!-- Node35 -->
<g id="node35" class="node">
<title>Node35</title>
<g id="a_node35"><a xlink:href="JoystickState_8h.html" target="_top" xlink:title="Container for storing Joystick state.">
<polygon fill="white" stroke="black" points="1839.5,-112.5 1839.5,-131.5 1922.5,-131.5 1922.5,-112.5 1839.5,-112.5"/>
<text text-anchor="middle" x="1881" y="-119.5" font-family="Helvetica,sans-Serif" font-size="10.00">JoystickState.h</text>
</a>
</g>
</g>
<!-- Node33&#45;&gt;Node35 -->
<g id="edge66" class="edge">
<title>Node33&#45;&gt;Node35</title>
<path fill="none" stroke="midnightblue" d="M1755.61,-168.44C1780.46,-159.44 1819.77,-145.19 1847.75,-135.05"/>
<polygon fill="midnightblue" stroke="midnightblue" points="1849.29,-138.21 1857.5,-131.52 1846.91,-131.63 1849.29,-138.21"/>
</g>
<!-- Node37 -->
<g id="node37" class="node">
<title>Node37</title>
<g id="a_node37"><a xlink:href="KeyboardState_8h.html" target="_top" xlink:title="Container for storing Keyboard state.">
<polygon fill="white" stroke="black" points="1733,-112.5 1733,-131.5 1821,-131.5 1821,-112.5 1733,-112.5"/>
<text text-anchor="middle" x="1777" y="-119.5" font-family="Helvetica,sans-Serif" font-size="10.00">KeyboardState.h</text>
</a>
</g>
</g>
<!-- Node33&#45;&gt;Node37 -->
<g id="edge69" class="edge">
<title>Node33&#45;&gt;Node37</title>
<path fill="none" stroke="midnightblue" d="M1739.43,-168.08C1745.85,-160.38 1755.31,-149.03 1763.12,-139.65"/>
<polygon fill="midnightblue" stroke="midnightblue" points="1765.99,-141.67 1769.71,-131.75 1760.62,-137.19 1765.99,-141.67"/>
</g>
<!-- Node39 -->
<g id="node39" class="node">
<title>Node39</title>
<g id="a_node39"><a xlink:href="MouseState_8h.html" target="_top" xlink:title="Container for storing Mouse state.">
<polygon fill="white" stroke="black" points="1979.5,-112.5 1979.5,-131.5 2056.5,-131.5 2056.5,-112.5 1979.5,-112.5"/>
<text text-anchor="middle" x="2018" y="-119.5" font-family="Helvetica,sans-Serif" font-size="10.00">MouseState.h</text>
</a>
</g>
</g>
<!-- Node33&#45;&gt;Node39 -->
<g id="edge71" class="edge">
<title>Node33&#45;&gt;Node39</title>
<path fill="none" stroke="midnightblue" d="M1777.32,-168.44C1829.7,-158.55 1915.58,-142.34 1969.34,-132.19"/>
<polygon fill="midnightblue" stroke="midnightblue" points="1970.14,-135.6 1979.31,-130.3 1968.84,-128.72 1970.14,-135.6"/>
</g>
<!-- Node35&#45;&gt;Node31 -->
<g id="edge67" class="edge">
<title>Node35&#45;&gt;Node31</title>
<path fill="none" stroke="midnightblue" d="M1892.25,-112.32C1902.8,-104.18 1918.8,-91.84 1931.44,-82.09"/>
<polygon fill="midnightblue" stroke="midnightblue" points="1933.77,-84.71 1939.55,-75.83 1929.49,-79.17 1933.77,-84.71"/>
</g>
<!-- Node36 -->
<g id="node36" class="node">
<title>Node36</title>
<g id="a_node36"><a xlink:href="JoystickCodes_8h.html" target="_top" xlink:title="Defines for codes used for joystick.">
<polygon fill="white" stroke="black" points="1792,-56.5 1792,-75.5 1880,-75.5 1880,-56.5 1792,-56.5"/>
<text text-anchor="middle" x="1836" y="-63.5" font-family="Helvetica,sans-Serif" font-size="10.00">JoystickCodes.h</text>
</a>
</g>
</g>
<!-- Node35&#45;&gt;Node36 -->
<g id="edge68" class="edge">
<title>Node35&#45;&gt;Node36</title>
<path fill="none" stroke="midnightblue" d="M1873.57,-112.08C1867.15,-104.38 1857.69,-93.03 1849.88,-83.65"/>
<polygon fill="midnightblue" stroke="midnightblue" points="1852.38,-81.19 1843.29,-75.75 1847.01,-85.67 1852.38,-81.19"/>
</g>
<!-- Node38 -->
<g id="node38" class="node">
<title>Node38</title>
<g id="a_node38"><a xlink:href="KeyboardKeys_8h.html" target="_top" xlink:title="Defenitions of keys that can be used by input manager.">
<polygon fill="white" stroke="black" points="1688,-56.5 1688,-75.5 1774,-75.5 1774,-56.5 1688,-56.5"/>
<text text-anchor="middle" x="1731" y="-63.5" font-family="Helvetica,sans-Serif" font-size="10.00">KeyboardKeys.h</text>
</a>
</g>
</g>
<!-- Node37&#45;&gt;Node38 -->
<g id="edge70" class="edge">
<title>Node37&#45;&gt;Node38</title>
<path fill="none" stroke="midnightblue" d="M1769.4,-112.08C1762.77,-104.3 1752.98,-92.8 1744.94,-83.37"/>
<polygon fill="midnightblue" stroke="midnightblue" points="1747.6,-81.09 1738.45,-75.75 1742.27,-85.63 1747.6,-81.09"/>
</g>
<!-- Node39&#45;&gt;Node31 -->
<g id="edge72" class="edge">
<title>Node39&#45;&gt;Node31</title>
<path fill="none" stroke="midnightblue" d="M2007.24,-112.32C1997.23,-104.26 1982.11,-92.08 1970.07,-82.37"/>
<polygon fill="midnightblue" stroke="midnightblue" points="1971.94,-79.38 1961.96,-75.83 1967.55,-84.83 1971.94,-79.38"/>
</g>
<!-- Node40 -->
<g id="node40" class="node">
<title>Node40</title>
<g id="a_node40"><a xlink:title=" ">
<polygon fill="white" stroke="#bfbfbf" points="2022,-56.5 2022,-75.5 2128,-75.5 2128,-56.5 2022,-56.5"/>
<text text-anchor="middle" x="2075" y="-63.5" font-family="Helvetica,sans-Serif" font-size="10.00">SDL2/SDL_mouse.h</text>
</a>
</g>
</g>
<!-- Node39&#45;&gt;Node40 -->
<g id="edge73" class="edge">
<title>Node39&#45;&gt;Node40</title>
<path fill="none" stroke="midnightblue" d="M2027.16,-112.32C2035.5,-104.42 2048.03,-92.55 2058.18,-82.94"/>
<polygon fill="midnightblue" stroke="midnightblue" points="2060.82,-85.25 2065.68,-75.83 2056.01,-80.17 2060.82,-85.25"/>
</g>
<!-- Node41&#45;&gt;Node4 -->
<g id="edge75" class="edge">
<title>Node41&#45;&gt;Node4</title>
<path fill="none" stroke="midnightblue" d="M859.94,-168.11C867.36,-155.14 882.2,-130.53 898,-112 907.16,-101.26 918.74,-90.52 928.34,-82.23"/>
<polygon fill="midnightblue" stroke="midnightblue" points="930.78,-84.75 936.16,-75.63 926.26,-79.4 930.78,-84.75"/>
</g>
<!-- Node42 -->
<g id="node42" class="node">
<title>Node42</title>
<g id="a_node42"><a xlink:href="LoggingService_8h.html" target="_top" xlink:title="Default logging service. Does nothing. Use in production.">
<polygon fill="white" stroke="black" points="728,-112.5 728,-131.5 820,-131.5 820,-112.5 728,-112.5"/>
<text text-anchor="middle" x="774" y="-119.5" font-family="Helvetica,sans-Serif" font-size="10.00">LoggingService.h</text>
</a>
</g>
</g>
<!-- Node41&#45;&gt;Node42 -->
<g id="edge76" class="edge">
<title>Node41&#45;&gt;Node42</title>
<path fill="none" stroke="midnightblue" d="M841.99,-168.32C829.47,-159.98 810.32,-147.21 795.53,-137.35"/>
<polygon fill="midnightblue" stroke="midnightblue" points="797.24,-134.29 786.98,-131.65 793.36,-140.11 797.24,-134.29"/>
</g>
<!-- Node42&#45;&gt;Node4 -->
<g id="edge77" class="edge">
<title>Node42&#45;&gt;Node4</title>
<path fill="none" stroke="midnightblue" d="M801.41,-112.44C832.79,-102.65 884.04,-86.65 916.62,-76.48"/>
<polygon fill="midnightblue" stroke="midnightblue" points="917.99,-79.72 926.49,-73.4 915.9,-73.04 917.99,-79.72"/>
</g>
<!-- Node43&#45;&gt;Node4 -->
<g id="edge79" class="edge">
<title>Node43&#45;&gt;Node4</title>
<path fill="none" stroke="midnightblue" d="M961.35,-168.43C940.76,-162.04 918.33,-151 906,-132 895.03,-115.1 911.27,-95.52 926.44,-82.3"/>
<polygon fill="midnightblue" stroke="midnightblue" points="929.03,-84.7 934.57,-75.67 924.61,-79.27 929.03,-84.7"/>
</g>
<!-- Node43&#45;&gt;Node10 -->
<g id="edge80" class="edge">
<title>Node43&#45;&gt;Node10</title>
<path fill="none" stroke="midnightblue" d="M949.79,-168.96C946.82,-168.62 943.88,-168.3 941,-168 703.8,-143.67 416.67,-128.96 321.42,-124.47"/>
<polygon fill="midnightblue" stroke="midnightblue" points="321.43,-120.97 311.28,-124 321.11,-127.96 321.43,-120.97"/>
</g>
<!-- Node43&#45;&gt;Node30 -->
<g id="edge81" class="edge">
<title>Node43&#45;&gt;Node30</title>
<path fill="none" stroke="midnightblue" d="M997.36,-168.32C988.49,-160.34 975.13,-148.31 964.39,-138.65"/>
<polygon fill="midnightblue" stroke="midnightblue" points="966.59,-135.92 956.82,-131.83 961.91,-141.13 966.59,-135.92"/>
</g>
</g>
</svg>
