<?xml version="1.0" encoding="UTF-8" standalone="no"?>
<!DOCTYPE svg PUBLIC "-//W3C//DTD SVG 1.1//EN"
 "http://www.w3.org/Graphics/SVG/1.1/DTD/svg11.dtd">
<!-- Generated by graphviz version 2.46.1 (20210215.1649)
 -->
<!-- Title: include/entities/Particle.h Pages: 1 -->
<svg width="337pt" height="252pt"
 viewBox="0.00 0.00 336.50 252.00" xmlns="http://www.w3.org/2000/svg" xmlns:xlink="http://www.w3.org/1999/xlink">
<g id="graph0" class="graph" transform="scale(1 1) rotate(0) translate(4 248)">
<title>include/entities/Particle.h</title>
<polygon fill="white" stroke="transparent" points="-4,4 -4,-248 332.5,-248 332.5,4 -4,4"/>
<!-- Node1 -->
<g id="node1" class="node">
<title>Node1</title>
<g id="a_node1"><a xlink:title="Just little blips that make things look cool.">
<polygon fill="#bfbfbf" stroke="black" points="108,-224.5 108,-243.5 233,-243.5 233,-224.5 108,-224.5"/>
<text text-anchor="middle" x="170.5" y="-231.5" font-family="Helvetica,sans-Serif" font-size="10.00">include/entities/Particle.h</text>
</a>
</g>
</g>
<!-- Node2 -->
<g id="node2" class="node">
<title>Node2</title>
<g id="a_node2"><a xlink:href="Sprite_8h.html" target="_top" xlink:title="Simple textured GameObject.">
<polygon fill="white" stroke="black" points="62.5,-168.5 62.5,-187.5 154.5,-187.5 154.5,-168.5 62.5,-168.5"/>
<text text-anchor="middle" x="108.5" y="-175.5" font-family="Helvetica,sans-Serif" font-size="10.00">../entities/Sprite.h</text>
</a>
</g>
</g>
<!-- Node1&#45;&gt;Node2 -->
<g id="edge1" class="edge">
<title>Node1&#45;&gt;Node2</title>
<path fill="none" stroke="midnightblue" d="M160.54,-224.32C151.37,-216.34 137.56,-204.31 126.47,-194.65"/>
<polygon fill="midnightblue" stroke="midnightblue" points="128.48,-191.76 118.64,-187.83 123.88,-197.04 128.48,-191.76"/>
</g>
<!-- Node10 -->
<g id="node10" class="node">
<title>Node10</title>
<g id="a_node10"><a xlink:href="Primitives_8h.html" target="_top" xlink:title="Wrapper for SDL_GFX primitive types. Allows drawing without knowing about SDL.">
<polygon fill="white" stroke="black" points="186.5,-168.5 186.5,-187.5 306.5,-187.5 306.5,-168.5 186.5,-168.5"/>
<text text-anchor="middle" x="246.5" y="-175.5" font-family="Helvetica,sans-Serif" font-size="10.00">../primitives/Primitives.h</text>
</a>
</g>
</g>
<!-- Node1&#45;&gt;Node10 -->
<g id="edge12" class="edge">
<title>Node1&#45;&gt;Node10</title>
<path fill="none" stroke="midnightblue" d="M182.71,-224.32C194.28,-216.11 211.88,-203.6 225.66,-193.81"/>
<polygon fill="midnightblue" stroke="midnightblue" points="227.94,-196.48 234.07,-187.83 223.89,-190.77 227.94,-196.48"/>
</g>
<!-- Node3 -->
<g id="node3" class="node">
<title>Node3</title>
<g id="a_node3"><a xlink:title=" ">
<polygon fill="white" stroke="#bfbfbf" points="0,-56.5 0,-75.5 41,-75.5 41,-56.5 0,-56.5"/>
<text text-anchor="middle" x="20.5" y="-63.5" font-family="Helvetica,sans-Serif" font-size="10.00">string</text>
</a>
</g>
</g>
<!-- Node2&#45;&gt;Node3 -->
<g id="edge2" class="edge">
<title>Node2&#45;&gt;Node3</title>
<path fill="none" stroke="midnightblue" d="M81.83,-168.48C64.4,-161.49 42.68,-149.81 30.5,-132 21.33,-118.6 19.26,-100.04 19.24,-86.17"/>
<polygon fill="midnightblue" stroke="midnightblue" points="22.74,-85.97 19.58,-75.85 15.75,-85.73 22.74,-85.97"/>
</g>
<!-- Node4 -->
<g id="node4" class="node">
<title>Node4</title>
<g id="a_node4"><a xlink:href="Texture_8h.html" target="_top" xlink:title="Easy interface to interact with sdl bitmaps.">
<polygon fill="white" stroke="black" points="137.5,-112.5 137.5,-131.5 233.5,-131.5 233.5,-112.5 137.5,-112.5"/>
<text text-anchor="middle" x="185.5" y="-119.5" font-family="Helvetica,sans-Serif" font-size="10.00">../assets/Texture.h</text>
</a>
</g>
</g>
<!-- Node2&#45;&gt;Node4 -->
<g id="edge3" class="edge">
<title>Node2&#45;&gt;Node4</title>
<path fill="none" stroke="midnightblue" d="M120.87,-168.32C132.66,-160.06 150.63,-147.45 164.64,-137.63"/>
<polygon fill="midnightblue" stroke="midnightblue" points="166.98,-140.26 173.16,-131.65 162.96,-134.53 166.98,-140.26"/>
</g>
<!-- Node8 -->
<g id="node8" class="node">
<title>Node8</title>
<g id="a_node8"><a xlink:href="GameObject_8h.html" target="_top" xlink:title="Implementation of GameObject class.">
<polygon fill="white" stroke="black" points="40,-112.5 40,-131.5 119,-131.5 119,-112.5 40,-112.5"/>
<text text-anchor="middle" x="79.5" y="-119.5" font-family="Helvetica,sans-Serif" font-size="10.00">GameObject.h</text>
</a>
</g>
</g>
<!-- Node2&#45;&gt;Node8 -->
<g id="edge8" class="edge">
<title>Node2&#45;&gt;Node8</title>
<path fill="none" stroke="midnightblue" d="M103.71,-168.08C99.74,-160.69 93.97,-149.95 89.07,-140.81"/>
<polygon fill="midnightblue" stroke="midnightblue" points="92.01,-138.91 84.2,-131.75 85.85,-142.22 92.01,-138.91"/>
</g>
<!-- Node4&#45;&gt;Node3 -->
<g id="edge5" class="edge">
<title>Node4&#45;&gt;Node3</title>
<path fill="none" stroke="midnightblue" d="M159.36,-112.44C129.96,-102.82 82.29,-87.22 51.17,-77.04"/>
<polygon fill="midnightblue" stroke="midnightblue" points="51.89,-73.59 41.3,-73.81 49.71,-80.24 51.89,-73.59"/>
</g>
<!-- Node5 -->
<g id="node5" class="node">
<title>Node5</title>
<g id="a_node5"><a xlink:title=" ">
<polygon fill="white" stroke="#bfbfbf" points="128,-56.5 128,-75.5 199,-75.5 199,-56.5 128,-56.5"/>
<text text-anchor="middle" x="163.5" y="-63.5" font-family="Helvetica,sans-Serif" font-size="10.00">SDL2/SDL.h</text>
</a>
</g>
</g>
<!-- Node4&#45;&gt;Node5 -->
<g id="edge4" class="edge">
<title>Node4&#45;&gt;Node5</title>
<path fill="none" stroke="midnightblue" d="M181.87,-112.08C178.89,-104.77 174.57,-94.18 170.88,-85.1"/>
<polygon fill="midnightblue" stroke="midnightblue" points="174.08,-83.69 167.07,-75.75 167.6,-86.33 174.08,-83.69"/>
</g>
<!-- Node6 -->
<g id="node6" class="node">
<title>Node6</title>
<g id="a_node6"><a xlink:href="Color_8h.html" target="_top" xlink:title="Helpers for creating colors without accessing SDL api directly.">
<polygon fill="white" stroke="black" points="220.5,-56.5 220.5,-75.5 298.5,-75.5 298.5,-56.5 220.5,-56.5"/>
<text text-anchor="middle" x="259.5" y="-63.5" font-family="Helvetica,sans-Serif" font-size="10.00">../color/Color.h</text>
</a>
</g>
</g>
<!-- Node4&#45;&gt;Node6 -->
<g id="edge6" class="edge">
<title>Node4&#45;&gt;Node6</title>
<path fill="none" stroke="midnightblue" d="M197.39,-112.32C208.65,-104.11 225.79,-91.6 239.21,-81.81"/>
<polygon fill="midnightblue" stroke="midnightblue" points="241.38,-84.56 247.39,-75.83 237.25,-78.9 241.38,-84.56"/>
</g>
<!-- Node7 -->
<g id="node7" class="node">
<title>Node7</title>
<g id="a_node7"><a xlink:title=" ">
<polygon fill="white" stroke="#bfbfbf" points="190.5,-0.5 190.5,-19.5 328.5,-19.5 328.5,-0.5 190.5,-0.5"/>
<text text-anchor="middle" x="259.5" y="-7.5" font-family="Helvetica,sans-Serif" font-size="10.00">SDL2/SDL2_gfxPrimitives.h</text>
</a>
</g>
</g>
<!-- Node6&#45;&gt;Node7 -->
<g id="edge7" class="edge">
<title>Node6&#45;&gt;Node7</title>
<path fill="none" stroke="midnightblue" d="M259.5,-56.08C259.5,-49.01 259.5,-38.86 259.5,-29.99"/>
<polygon fill="midnightblue" stroke="midnightblue" points="263,-29.75 259.5,-19.75 256,-29.75 263,-29.75"/>
</g>
<!-- Node8&#45;&gt;Node3 -->
<g id="edge10" class="edge">
<title>Node8&#45;&gt;Node3</title>
<path fill="none" stroke="midnightblue" d="M70.02,-112.32C61.3,-104.34 48.16,-92.31 37.6,-82.65"/>
<polygon fill="midnightblue" stroke="midnightblue" points="39.89,-80 30.15,-75.83 35.17,-85.17 39.89,-80"/>
</g>
<!-- Node8&#45;&gt;Node5 -->
<g id="edge9" class="edge">
<title>Node8&#45;&gt;Node5</title>
<path fill="none" stroke="midnightblue" d="M93,-112.32C106.1,-103.9 126.21,-90.97 141.61,-81.07"/>
<polygon fill="midnightblue" stroke="midnightblue" points="143.52,-84.01 150.04,-75.65 139.73,-78.12 143.52,-84.01"/>
</g>
<!-- Node9 -->
<g id="node9" class="node">
<title>Node9</title>
<g id="a_node9"><a xlink:title=" ">
<polygon fill="white" stroke="#bfbfbf" points="59.5,-56.5 59.5,-75.5 103.5,-75.5 103.5,-56.5 59.5,-56.5"/>
<text text-anchor="middle" x="81.5" y="-63.5" font-family="Helvetica,sans-Serif" font-size="10.00">vector</text>
</a>
</g>
</g>
<!-- Node8&#45;&gt;Node9 -->
<g id="edge11" class="edge">
<title>Node8&#45;&gt;Node9</title>
<path fill="none" stroke="midnightblue" d="M79.83,-112.08C80.09,-105.01 80.47,-94.86 80.8,-85.99"/>
<polygon fill="midnightblue" stroke="midnightblue" points="84.3,-85.87 81.18,-75.75 77.31,-85.61 84.3,-85.87"/>
</g>
<!-- Node10&#45;&gt;Node6 -->
<g id="edge13" class="edge">
<title>Node10&#45;&gt;Node6</title>
<path fill="none" stroke="midnightblue" d="M247.52,-168.37C249.62,-150.62 254.46,-109.67 257.3,-85.6"/>
<polygon fill="midnightblue" stroke="midnightblue" points="260.79,-85.93 258.48,-75.59 253.84,-85.11 260.79,-85.93"/>
</g>
</g>
</svg>
