<?xml version="1.0" encoding="UTF-8" standalone="no"?>
<!DOCTYPE svg PUBLIC "-//W3C//DTD SVG 1.1//EN"
 "http://www.w3.org/Graphics/SVG/1.1/DTD/svg11.dtd">
<!-- Generated by graphviz version 2.46.1 (20210215.1649)
 -->
<!-- Title: include/entities/ParticleEmitter.h Pages: 1 -->
<svg width="359pt" height="319pt"
 viewBox="0.00 0.00 359.00 319.00" xmlns="http://www.w3.org/2000/svg" xmlns:xlink="http://www.w3.org/1999/xlink">
<g id="graph0" class="graph" transform="scale(1 1) rotate(0) translate(4 315)">
<title>include/entities/ParticleEmitter.h</title>
<polygon fill="white" stroke="transparent" points="-4,4 -4,-315 355,-315 355,4 -4,4"/>
<!-- Node1 -->
<g id="node1" class="node">
<title>Node1</title>
<g id="a_node1"><a xlink:title="A particle emitter. Can be fed a particle to emit and configured.">
<polygon fill="#bfbfbf" stroke="black" points="0,-280.5 0,-310.5 118,-310.5 118,-280.5 0,-280.5"/>
<text text-anchor="start" x="8" y="-298.5" font-family="Helvetica,sans-Serif" font-size="10.00">include/entities/Particle</text>
<text text-anchor="middle" x="59" y="-287.5" font-family="Helvetica,sans-Serif" font-size="10.00">Emitter.h</text>
</a>
</g>
</g>
<!-- Node2 -->
<g id="node2" class="node">
<title>Node2</title>
<g id="a_node2"><a xlink:title=" ">
<polygon fill="white" stroke="#bfbfbf" points="2,-56.5 2,-75.5 46,-75.5 46,-56.5 2,-56.5"/>
<text text-anchor="middle" x="24" y="-63.5" font-family="Helvetica,sans-Serif" font-size="10.00">vector</text>
</a>
</g>
</g>
<!-- Node1&#45;&gt;Node2 -->
<g id="edge1" class="edge">
<title>Node1&#45;&gt;Node2</title>
<path fill="none" stroke="midnightblue" d="M53.71,-280.42C43.55,-252.58 21.65,-188.27 14,-132 11.86,-116.27 15,-98.45 18.31,-85.45"/>
<polygon fill="midnightblue" stroke="midnightblue" points="21.68,-86.39 21.02,-75.82 14.94,-84.5 21.68,-86.39"/>
</g>
<!-- Node3 -->
<g id="node3" class="node">
<title>Node3</title>
<g id="a_node3"><a xlink:href="GameObject_8h.html" target="_top" xlink:title="Implementation of GameObject class.">
<polygon fill="white" stroke="black" points="22.5,-112.5 22.5,-131.5 101.5,-131.5 101.5,-112.5 22.5,-112.5"/>
<text text-anchor="middle" x="62" y="-119.5" font-family="Helvetica,sans-Serif" font-size="10.00">GameObject.h</text>
</a>
</g>
</g>
<!-- Node1&#45;&gt;Node3 -->
<g id="edge2" class="edge">
<title>Node1&#45;&gt;Node3</title>
<path fill="none" stroke="midnightblue" d="M59.25,-280.47C59.78,-249.7 61.07,-176.33 61.67,-141.7"/>
<polygon fill="midnightblue" stroke="midnightblue" points="65.17,-141.62 61.85,-131.56 58.18,-141.5 65.17,-141.62"/>
</g>
<!-- Node6 -->
<g id="node6" class="node">
<title>Node6</title>
<g id="a_node6"><a xlink:href="Particle_8h.html" target="_top" xlink:title="Just little blips that make things look cool.">
<polygon fill="white" stroke="black" points="104.5,-224.5 104.5,-243.5 161.5,-243.5 161.5,-224.5 104.5,-224.5"/>
<text text-anchor="middle" x="133" y="-231.5" font-family="Helvetica,sans-Serif" font-size="10.00">Particle.h</text>
</a>
</g>
</g>
<!-- Node1&#45;&gt;Node6 -->
<g id="edge6" class="edge">
<title>Node1&#45;&gt;Node6</title>
<path fill="none" stroke="midnightblue" d="M76.54,-280.4C87.84,-271.31 102.54,-259.49 114.11,-250.19"/>
<polygon fill="midnightblue" stroke="midnightblue" points="116.63,-252.65 122.23,-243.66 112.25,-247.2 116.63,-252.65"/>
</g>
<!-- Node3&#45;&gt;Node2 -->
<g id="edge5" class="edge">
<title>Node3&#45;&gt;Node2</title>
<path fill="none" stroke="midnightblue" d="M55.73,-112.08C50.36,-104.46 42.48,-93.26 35.92,-83.94"/>
<polygon fill="midnightblue" stroke="midnightblue" points="38.78,-81.91 30.16,-75.75 33.05,-85.94 38.78,-81.91"/>
</g>
<!-- Node4 -->
<g id="node4" class="node">
<title>Node4</title>
<g id="a_node4"><a xlink:title=" ">
<polygon fill="white" stroke="#bfbfbf" points="153.5,-56.5 153.5,-75.5 224.5,-75.5 224.5,-56.5 153.5,-56.5"/>
<text text-anchor="middle" x="189" y="-63.5" font-family="Helvetica,sans-Serif" font-size="10.00">SDL2/SDL.h</text>
</a>
</g>
</g>
<!-- Node3&#45;&gt;Node4 -->
<g id="edge3" class="edge">
<title>Node3&#45;&gt;Node4</title>
<path fill="none" stroke="midnightblue" d="M82.12,-112.44C103.02,-103.56 135.93,-89.56 159.72,-79.45"/>
<polygon fill="midnightblue" stroke="midnightblue" points="161.14,-82.65 168.97,-75.52 158.4,-76.21 161.14,-82.65"/>
</g>
<!-- Node5 -->
<g id="node5" class="node">
<title>Node5</title>
<g id="a_node5"><a xlink:title=" ">
<polygon fill="white" stroke="#bfbfbf" points="94.5,-56.5 94.5,-75.5 135.5,-75.5 135.5,-56.5 94.5,-56.5"/>
<text text-anchor="middle" x="115" y="-63.5" font-family="Helvetica,sans-Serif" font-size="10.00">string</text>
</a>
</g>
</g>
<!-- Node3&#45;&gt;Node5 -->
<g id="edge4" class="edge">
<title>Node3&#45;&gt;Node5</title>
<path fill="none" stroke="midnightblue" d="M70.75,-112.08C78.47,-104.22 89.9,-92.57 99.22,-83.08"/>
<polygon fill="midnightblue" stroke="midnightblue" points="101.9,-85.34 106.41,-75.75 96.91,-80.44 101.9,-85.34"/>
</g>
<!-- Node7 -->
<g id="node7" class="node">
<title>Node7</title>
<g id="a_node7"><a xlink:href="Sprite_8h.html" target="_top" xlink:title="Simple textured GameObject.">
<polygon fill="white" stroke="black" points="87,-168.5 87,-187.5 179,-187.5 179,-168.5 87,-168.5"/>
<text text-anchor="middle" x="133" y="-175.5" font-family="Helvetica,sans-Serif" font-size="10.00">../entities/Sprite.h</text>
</a>
</g>
</g>
<!-- Node6&#45;&gt;Node7 -->
<g id="edge7" class="edge">
<title>Node6&#45;&gt;Node7</title>
<path fill="none" stroke="midnightblue" d="M133,-224.08C133,-217.01 133,-206.86 133,-197.99"/>
<polygon fill="midnightblue" stroke="midnightblue" points="136.5,-197.75 133,-187.75 129.5,-197.75 136.5,-197.75"/>
</g>
<!-- Node11 -->
<g id="node11" class="node">
<title>Node11</title>
<g id="a_node11"><a xlink:href="Primitives_8h.html" target="_top" xlink:title="Wrapper for SDL_GFX primitive types. Allows drawing without knowing about SDL.">
<polygon fill="white" stroke="black" points="211,-168.5 211,-187.5 331,-187.5 331,-168.5 211,-168.5"/>
<text text-anchor="middle" x="271" y="-175.5" font-family="Helvetica,sans-Serif" font-size="10.00">../primitives/Primitives.h</text>
</a>
</g>
</g>
<!-- Node6&#45;&gt;Node11 -->
<g id="edge15" class="edge">
<title>Node6&#45;&gt;Node11</title>
<path fill="none" stroke="midnightblue" d="M154.87,-224.44C177.78,-215.48 213.98,-201.31 239.87,-191.18"/>
<polygon fill="midnightblue" stroke="midnightblue" points="241.2,-194.42 249.24,-187.52 238.65,-187.9 241.2,-194.42"/>
</g>
<!-- Node7&#45;&gt;Node3 -->
<g id="edge14" class="edge">
<title>Node7&#45;&gt;Node3</title>
<path fill="none" stroke="midnightblue" d="M121.59,-168.32C110.89,-160.18 94.66,-147.84 81.84,-138.09"/>
<polygon fill="midnightblue" stroke="midnightblue" points="83.69,-135.1 73.61,-131.83 79.46,-140.67 83.69,-135.1"/>
</g>
<!-- Node7&#45;&gt;Node5 -->
<g id="edge8" class="edge">
<title>Node7&#45;&gt;Node5</title>
<path fill="none" stroke="midnightblue" d="M131.59,-168.37C128.68,-150.62 121.98,-109.67 118.04,-85.6"/>
<polygon fill="midnightblue" stroke="midnightblue" points="121.47,-84.89 116.41,-75.59 114.57,-86.03 121.47,-84.89"/>
</g>
<!-- Node8 -->
<g id="node8" class="node">
<title>Node8</title>
<g id="a_node8"><a xlink:href="Texture_8h.html" target="_top" xlink:title="Easy interface to interact with sdl bitmaps.">
<polygon fill="white" stroke="black" points="158,-112.5 158,-131.5 254,-131.5 254,-112.5 158,-112.5"/>
<text text-anchor="middle" x="206" y="-119.5" font-family="Helvetica,sans-Serif" font-size="10.00">../assets/Texture.h</text>
</a>
</g>
</g>
<!-- Node7&#45;&gt;Node8 -->
<g id="edge9" class="edge">
<title>Node7&#45;&gt;Node8</title>
<path fill="none" stroke="midnightblue" d="M144.73,-168.32C155.84,-160.11 172.74,-147.6 185.98,-137.81"/>
<polygon fill="midnightblue" stroke="midnightblue" points="188.1,-140.59 194.06,-131.83 183.94,-134.97 188.1,-140.59"/>
</g>
<!-- Node8&#45;&gt;Node4 -->
<g id="edge10" class="edge">
<title>Node8&#45;&gt;Node4</title>
<path fill="none" stroke="midnightblue" d="M203.19,-112.08C200.92,-104.85 197.63,-94.41 194.79,-85.4"/>
<polygon fill="midnightblue" stroke="midnightblue" points="198.1,-84.24 191.75,-75.75 191.42,-86.34 198.1,-84.24"/>
</g>
<!-- Node8&#45;&gt;Node5 -->
<g id="edge11" class="edge">
<title>Node8&#45;&gt;Node5</title>
<path fill="none" stroke="midnightblue" d="M191.38,-112.32C177.05,-103.82 154.99,-90.73 138.25,-80.8"/>
<polygon fill="midnightblue" stroke="midnightblue" points="139.97,-77.75 129.58,-75.65 136.4,-83.77 139.97,-77.75"/>
</g>
<!-- Node9 -->
<g id="node9" class="node">
<title>Node9</title>
<g id="a_node9"><a xlink:href="Color_8h.html" target="_top" xlink:title="Helpers for creating colors without accessing SDL api directly.">
<polygon fill="white" stroke="black" points="243,-56.5 243,-75.5 321,-75.5 321,-56.5 243,-56.5"/>
<text text-anchor="middle" x="282" y="-63.5" font-family="Helvetica,sans-Serif" font-size="10.00">../color/Color.h</text>
</a>
</g>
</g>
<!-- Node8&#45;&gt;Node9 -->
<g id="edge12" class="edge">
<title>Node8&#45;&gt;Node9</title>
<path fill="none" stroke="midnightblue" d="M218.21,-112.32C229.78,-104.11 247.38,-91.6 261.16,-81.81"/>
<polygon fill="midnightblue" stroke="midnightblue" points="263.44,-84.48 269.57,-75.83 259.39,-78.77 263.44,-84.48"/>
</g>
<!-- Node10 -->
<g id="node10" class="node">
<title>Node10</title>
<g id="a_node10"><a xlink:title=" ">
<polygon fill="white" stroke="#bfbfbf" points="213,-0.5 213,-19.5 351,-19.5 351,-0.5 213,-0.5"/>
<text text-anchor="middle" x="282" y="-7.5" font-family="Helvetica,sans-Serif" font-size="10.00">SDL2/SDL2_gfxPrimitives.h</text>
</a>
</g>
</g>
<!-- Node9&#45;&gt;Node10 -->
<g id="edge13" class="edge">
<title>Node9&#45;&gt;Node10</title>
<path fill="none" stroke="midnightblue" d="M282,-56.08C282,-49.01 282,-38.86 282,-29.99"/>
<polygon fill="midnightblue" stroke="midnightblue" points="285.5,-29.75 282,-19.75 278.5,-29.75 285.5,-29.75"/>
</g>
<!-- Node11&#45;&gt;Node9 -->
<g id="edge16" class="edge">
<title>Node11&#45;&gt;Node9</title>
<path fill="none" stroke="midnightblue" d="M271.86,-168.37C273.64,-150.62 277.73,-109.67 280.14,-85.6"/>
<polygon fill="midnightblue" stroke="midnightblue" points="283.63,-85.89 281.14,-75.59 276.66,-85.19 283.63,-85.89"/>
</g>
</g>
</svg>
