<?xml version="1.0" encoding="UTF-8" standalone="no"?>
<!DOCTYPE svg PUBLIC "-//W3C//DTD SVG 1.1//EN"
 "http://www.w3.org/Graphics/SVG/1.1/DTD/svg11.dtd">
<!-- Generated by graphviz version 2.46.1 (20210215.1649)
 -->
<!-- Title: include/entities/Particle.h Pages: 1 -->
<svg width="279pt" height="151pt"
 viewBox="0.00 0.00 279.00 151.00" xmlns="http://www.w3.org/2000/svg" xmlns:xlink="http://www.w3.org/1999/xlink">
<g id="graph0" class="graph" transform="scale(1 1) rotate(0) translate(4 147)">
<title>include/entities/Particle.h</title>
<polygon fill="white" stroke="transparent" points="-4,4 -4,-147 275,-147 275,4 -4,4"/>
<!-- Node1 -->
<g id="node1" class="node">
<title>Node1</title>
<g id="a_node1"><a xlink:title="Just little blips that make things look cool.">
<polygon fill="#bfbfbf" stroke="black" points="65,-123.5 65,-142.5 190,-142.5 190,-123.5 65,-123.5"/>
<text text-anchor="middle" x="127.5" y="-130.5" font-family="Helvetica,sans-Serif" font-size="10.00">include/entities/Particle.h</text>
</a>
</g>
</g>
<!-- Node2 -->
<g id="node2" class="node">
<title>Node2</title>
<g id="a_node2"><a xlink:href="Particle_8cpp.html" target="_top" xlink:title="Implementation of Particle.">
<polygon fill="white" stroke="black" points="0,-62 0,-81 119,-81 119,-62 0,-62"/>
<text text-anchor="middle" x="59.5" y="-69" font-family="Helvetica,sans-Serif" font-size="10.00">src/entities/Particle.cpp</text>
</a>
</g>
</g>
<!-- Node1&#45;&gt;Node2 -->
<g id="edge1" class="edge">
<title>Node1&#45;&gt;Node2</title>
<path fill="none" stroke="midnightblue" d="M109.96,-116.65C96.99,-105.31 79.82,-90.28 69.22,-81.01"/>
<polygon fill="midnightblue" stroke="midnightblue" points="107.93,-119.52 117.76,-123.48 112.54,-114.26 107.93,-119.52"/>
</g>
<!-- Node3 -->
<g id="node3" class="node">
<title>Node3</title>
<g id="a_node3"><a xlink:href="ParticleEmitter_8h.html" target="_top" xlink:title="A particle emitter. Can be fed a particle to emit and configured.">
<polygon fill="white" stroke="black" points="137.5,-56.5 137.5,-86.5 255.5,-86.5 255.5,-56.5 137.5,-56.5"/>
<text text-anchor="start" x="145.5" y="-74.5" font-family="Helvetica,sans-Serif" font-size="10.00">include/entities/Particle</text>
<text text-anchor="middle" x="196.5" y="-63.5" font-family="Helvetica,sans-Serif" font-size="10.00">Emitter.h</text>
</a>
</g>
</g>
<!-- Node1&#45;&gt;Node3 -->
<g id="edge2" class="edge">
<title>Node1&#45;&gt;Node3</title>
<path fill="none" stroke="midnightblue" d="M144.99,-116.92C155.82,-107.58 169.64,-95.66 180.24,-86.52"/>
<polygon fill="midnightblue" stroke="midnightblue" points="142.67,-114.29 137.39,-123.48 147.24,-119.6 142.67,-114.29"/>
</g>
<!-- Node4 -->
<g id="node4" class="node">
<title>Node4</title>
<g id="a_node4"><a xlink:href="ParticleEmitter_8cpp.html" target="_top" xlink:title="Implementation of a particle emitter. and configured.">
<polygon fill="white" stroke="black" points="122,-0.5 122,-19.5 271,-19.5 271,-0.5 122,-0.5"/>
<text text-anchor="middle" x="196.5" y="-7.5" font-family="Helvetica,sans-Serif" font-size="10.00">src/entities/ParticleEmitter.cpp</text>
</a>
</g>
</g>
<!-- Node3&#45;&gt;Node4 -->
<g id="edge3" class="edge">
<title>Node3&#45;&gt;Node4</title>
<path fill="none" stroke="midnightblue" d="M196.5,-46.29C196.5,-36.86 196.5,-26.65 196.5,-19.66"/>
<polygon fill="midnightblue" stroke="midnightblue" points="193,-46.4 196.5,-56.4 200,-46.4 193,-46.4"/>
</g>
</g>
</svg>
