<?xml version="1.0" encoding="UTF-8" standalone="no"?>
<!DOCTYPE svg PUBLIC "-//W3C//DTD SVG 1.1//EN"
 "http://www.w3.org/Graphics/SVG/1.1/DTD/svg11.dtd">
<!-- Generated by graphviz version 2.46.1 (20210215.1649)
 -->
<!-- Title: include/primitives/Primitives.h Pages: 1 -->
<svg width="886pt" height="218pt"
 viewBox="0.00 0.00 885.75 218.00" xmlns="http://www.w3.org/2000/svg" xmlns:xlink="http://www.w3.org/1999/xlink">
<g id="graph0" class="graph" transform="scale(1 1) rotate(0) translate(4 214)">
<title>include/primitives/Primitives.h</title>
<polygon fill="white" stroke="transparent" points="-4,4 -4,-214 881.75,-214 881.75,4 -4,4"/>
<!-- Node1 -->
<g id="node1" class="node">
<title>Node1</title>
<g id="a_node1"><a xlink:title="Wrapper for SDL_GFX primitive types. Allows drawing without knowing about SDL.">
<polygon fill="#bfbfbf" stroke="black" points="309.25,-179.5 309.25,-209.5 401.25,-209.5 401.25,-179.5 309.25,-179.5"/>
<text text-anchor="start" x="317.25" y="-197.5" font-family="Helvetica,sans-Serif" font-size="10.00">include/primitives</text>
<text text-anchor="middle" x="355.25" y="-186.5" font-family="Helvetica,sans-Serif" font-size="10.00">/Primitives.h</text>
</a>
</g>
</g>
<!-- Node2 -->
<g id="node2" class="node">
<title>Node2</title>
<g id="a_node2"><a xlink:href="ParticleEmitter_8cpp.html" target="_top" xlink:title="Implementation of a particle emitter. and configured.">
<polygon fill="white" stroke="black" points="325.75,-0.5 325.75,-19.5 474.75,-19.5 474.75,-0.5 325.75,-0.5"/>
<text text-anchor="middle" x="400.25" y="-7.5" font-family="Helvetica,sans-Serif" font-size="10.00">src/entities/ParticleEmitter.cpp</text>
</a>
</g>
</g>
<!-- Node1&#45;&gt;Node2 -->
<g id="edge1" class="edge">
<title>Node1&#45;&gt;Node2</title>
<path fill="none" stroke="midnightblue" d="M298.78,-193.94C209.41,-193.3 41.67,-186.19 4.25,-143 -1.57,-136.28 -1.11,-130.09 4.25,-123 44.44,-69.86 236.24,-34.71 337.43,-19.53"/>
<polygon fill="midnightblue" stroke="midnightblue" points="298.99,-197.44 309.01,-193.99 299.03,-190.44 298.99,-197.44"/>
</g>
<!-- Node3 -->
<g id="node3" class="node">
<title>Node3</title>
<g id="a_node3"><a xlink:href="Sprite_8cpp.html" target="_top" xlink:title="Implementation of Sprite.">
<polygon fill="white" stroke="black" points="13.75,-123.5 13.75,-142.5 124.75,-142.5 124.75,-123.5 13.75,-123.5"/>
<text text-anchor="middle" x="69.25" y="-130.5" font-family="Helvetica,sans-Serif" font-size="10.00">src/entities/Sprite.cpp</text>
</a>
</g>
</g>
<!-- Node1&#45;&gt;Node3 -->
<g id="edge2" class="edge">
<title>Node1&#45;&gt;Node3</title>
<path fill="none" stroke="midnightblue" d="M298.96,-181.79C243.44,-170.24 159.9,-152.86 110.35,-142.55"/>
<polygon fill="midnightblue" stroke="midnightblue" points="298.48,-185.26 308.98,-183.87 299.9,-178.41 298.48,-185.26"/>
</g>
<!-- Node4 -->
<g id="node4" class="node">
<title>Node4</title>
<g id="a_node4"><a xlink:href="Button_8cpp.html" target="_top" xlink:title="Implementation of Button.">
<polygon fill="white" stroke="black" points="142.75,-123.5 142.75,-142.5 267.75,-142.5 267.75,-123.5 142.75,-123.5"/>
<text text-anchor="middle" x="205.25" y="-130.5" font-family="Helvetica,sans-Serif" font-size="10.00">src/entities/ui/Button.cpp</text>
</a>
</g>
</g>
<!-- Node1&#45;&gt;Node4 -->
<g id="edge3" class="edge">
<title>Node1&#45;&gt;Node4</title>
<path fill="none" stroke="midnightblue" d="M310.27,-175.66C282.76,-164.75 248.79,-151.27 227.08,-142.66"/>
<polygon fill="midnightblue" stroke="midnightblue" points="309.12,-178.97 319.7,-179.4 311.7,-172.46 309.12,-178.97"/>
</g>
<!-- Node5 -->
<g id="node5" class="node">
<title>Node5</title>
<g id="a_node5"><a xlink:href="Checkbox_8cpp.html" target="_top" xlink:title="Implementation of UI Checkbox.">
<polygon fill="white" stroke="black" points="285.75,-123.5 285.75,-142.5 424.75,-142.5 424.75,-123.5 285.75,-123.5"/>
<text text-anchor="middle" x="355.25" y="-130.5" font-family="Helvetica,sans-Serif" font-size="10.00">src/entities/ui/Checkbox.cpp</text>
</a>
</g>
</g>
<!-- Node1&#45;&gt;Node5 -->
<g id="edge4" class="edge">
<title>Node1&#45;&gt;Node5</title>
<path fill="none" stroke="midnightblue" d="M355.25,-169.29C355.25,-159.86 355.25,-149.65 355.25,-142.66"/>
<polygon fill="midnightblue" stroke="midnightblue" points="351.75,-169.4 355.25,-179.4 358.75,-169.4 351.75,-169.4"/>
</g>
<!-- Node6 -->
<g id="node6" class="node">
<title>Node6</title>
<g id="a_node6"><a xlink:href="Inputbox_8cpp.html" target="_top" xlink:title="Implementation of UI Inputbox.">
<polygon fill="white" stroke="black" points="442.75,-123.5 442.75,-142.5 575.75,-142.5 575.75,-123.5 442.75,-123.5"/>
<text text-anchor="middle" x="509.25" y="-130.5" font-family="Helvetica,sans-Serif" font-size="10.00">src/entities/ui/Inputbox.cpp</text>
</a>
</g>
</g>
<!-- Node1&#45;&gt;Node6 -->
<g id="edge5" class="edge">
<title>Node1&#45;&gt;Node6</title>
<path fill="none" stroke="midnightblue" d="M401.43,-175.66C429.67,-164.75 464.55,-151.27 486.84,-142.66"/>
<polygon fill="midnightblue" stroke="midnightblue" points="399.81,-172.53 391.75,-179.4 402.34,-179.06 399.81,-172.53"/>
</g>
<!-- Node7 -->
<g id="node7" class="node">
<title>Node7</title>
<g id="a_node7"><a xlink:href="Primitives_8cpp.html" target="_top" xlink:title="Implementation of Primitives namespace helpers.">
<polygon fill="white" stroke="black" points="594.25,-123.5 594.25,-142.5 734.25,-142.5 734.25,-123.5 594.25,-123.5"/>
<text text-anchor="middle" x="664.25" y="-130.5" font-family="Helvetica,sans-Serif" font-size="10.00">src/primitives/Primitives.cpp</text>
</a>
</g>
</g>
<!-- Node1&#45;&gt;Node7 -->
<g id="edge6" class="edge">
<title>Node1&#45;&gt;Node7</title>
<path fill="none" stroke="midnightblue" d="M411.54,-182.66C471.37,-171.14 564.76,-153.16 619.68,-142.58"/>
<polygon fill="midnightblue" stroke="midnightblue" points="410.67,-179.26 401.51,-184.59 411.99,-186.14 410.67,-179.26"/>
</g>
<!-- Node8 -->
<g id="node8" class="node">
<title>Node8</title>
<g id="a_node8"><a xlink:href="Particle_8h.html" target="_top" xlink:title="Just little blips that make things look cool.">
<polygon fill="white" stroke="black" points="752.75,-123.5 752.75,-142.5 877.75,-142.5 877.75,-123.5 752.75,-123.5"/>
<text text-anchor="middle" x="815.25" y="-130.5" font-family="Helvetica,sans-Serif" font-size="10.00">include/entities/Particle.h</text>
</a>
</g>
</g>
<!-- Node1&#45;&gt;Node8 -->
<g id="edge7" class="edge">
<title>Node1&#45;&gt;Node8</title>
<path fill="none" stroke="midnightblue" d="M411.6,-186.21C498.02,-175.03 662.69,-153.73 752.69,-142.09"/>
<polygon fill="midnightblue" stroke="midnightblue" points="410.93,-182.77 401.46,-187.52 411.83,-189.71 410.93,-182.77"/>
</g>
<!-- Node9 -->
<g id="node9" class="node">
<title>Node9</title>
<g id="a_node9"><a xlink:href="Particle_8cpp.html" target="_top" xlink:title="Implementation of Particle.">
<polygon fill="white" stroke="black" points="618.75,-62 618.75,-81 737.75,-81 737.75,-62 618.75,-62"/>
<text text-anchor="middle" x="678.25" y="-69" font-family="Helvetica,sans-Serif" font-size="10.00">src/entities/Particle.cpp</text>
</a>
</g>
</g>
<!-- Node8&#45;&gt;Node9 -->
<g id="edge8" class="edge">
<title>Node8&#45;&gt;Node9</title>
<path fill="none" stroke="midnightblue" d="M786.42,-119.48C759.81,-107.92 721.02,-91.08 697.84,-81.01"/>
<polygon fill="midnightblue" stroke="midnightblue" points="785.06,-122.7 795.62,-123.48 787.84,-116.28 785.06,-122.7"/>
</g>
<!-- Node10 -->
<g id="node10" class="node">
<title>Node10</title>
<g id="a_node10"><a xlink:href="ParticleEmitter_8h.html" target="_top" xlink:title="A particle emitter. Can be fed a particle to emit and configured.">
<polygon fill="white" stroke="black" points="756.25,-56.5 756.25,-86.5 874.25,-86.5 874.25,-56.5 756.25,-56.5"/>
<text text-anchor="start" x="764.25" y="-74.5" font-family="Helvetica,sans-Serif" font-size="10.00">include/entities/Particle</text>
<text text-anchor="middle" x="815.25" y="-63.5" font-family="Helvetica,sans-Serif" font-size="10.00">Emitter.h</text>
</a>
</g>
</g>
<!-- Node8&#45;&gt;Node10 -->
<g id="edge9" class="edge">
<title>Node8&#45;&gt;Node10</title>
<path fill="none" stroke="midnightblue" d="M815.25,-113.23C815.25,-104.59 815.25,-94.5 815.25,-86.52"/>
<polygon fill="midnightblue" stroke="midnightblue" points="811.75,-113.48 815.25,-123.48 818.75,-113.48 811.75,-113.48"/>
</g>
<!-- Node10&#45;&gt;Node2 -->
<g id="edge10" class="edge">
<title>Node10&#45;&gt;Node2</title>
<path fill="none" stroke="midnightblue" d="M746.08,-55.88C646.89,-39.17 543.15,-26.54 474.97,-18.92"/>
<polygon fill="midnightblue" stroke="midnightblue" points="745.52,-59.34 755.97,-57.56 746.7,-52.43 745.52,-59.34"/>
</g>
</g>
</svg>
