<?xml version="1.0" encoding="UTF-8" standalone="no"?>
<!DOCTYPE svg PUBLIC "-//W3C//DTD SVG 1.1//EN"
 "http://www.w3.org/Graphics/SVG/1.1/DTD/svg11.dtd">
<!-- Generated by graphviz version 2.46.1 (20210215.1649)
 -->
<!-- Title: src/primitives/Primitives.cpp Pages: 1 -->
<svg width="1731pt" height="308pt"
 viewBox="0.00 0.00 1731.00 308.00" xmlns="http://www.w3.org/2000/svg" xmlns:xlink="http://www.w3.org/1999/xlink">
<g id="graph0" class="graph" transform="scale(1 1) rotate(0) translate(4 304)">
<title>src/primitives/Primitives.cpp</title>
<polygon fill="white" stroke="transparent" points="-4,4 -4,-304 1727,-304 1727,4 -4,4"/>
<!-- Node1 -->
<g id="node1" class="node">
<title>Node1</title>
<g id="a_node1"><a xlink:title="Implementation of Primitives namespace helpers.">
<polygon fill="#bfbfbf" stroke="black" points="46,-280.5 46,-299.5 186,-299.5 186,-280.5 46,-280.5"/>
<text text-anchor="middle" x="116" y="-287.5" font-family="Helvetica,sans-Serif" font-size="10.00">src/primitives/Primitives.cpp</text>
</a>
</g>
</g>
<!-- Node2 -->
<g id="node2" class="node">
<title>Node2</title>
<g id="a_node2"><a xlink:title=" ">
<polygon fill="white" stroke="#bfbfbf" points="0,-0.5 0,-19.5 138,-19.5 138,-0.5 0,-0.5"/>
<text text-anchor="middle" x="69" y="-7.5" font-family="Helvetica,sans-Serif" font-size="10.00">SDL2/SDL2_gfxPrimitives.h</text>
</a>
</g>
</g>
<!-- Node1&#45;&gt;Node2 -->
<g id="edge1" class="edge">
<title>Node1&#45;&gt;Node2</title>
<path fill="none" stroke="midnightblue" d="M96.81,-280.44C81.97,-272.88 61.98,-260.49 50,-244 32.31,-219.65 31,-209.1 31,-179 31,-179 31,-179 31,-121 31,-86.81 47.6,-49.76 58.86,-28.57"/>
<polygon fill="midnightblue" stroke="midnightblue" points="61.95,-30.22 63.72,-19.77 55.82,-26.83 61.95,-30.22"/>
</g>
<!-- Node3 -->
<g id="node3" class="node">
<title>Node3</title>
<g id="a_node3"><a xlink:href="Primitives_8h.html" target="_top" xlink:title="Wrapper for SDL_GFX primitive types. Allows drawing without knowing about SDL.">
<polygon fill="white" stroke="black" points="59.5,-224.5 59.5,-243.5 172.5,-243.5 172.5,-224.5 59.5,-224.5"/>
<text text-anchor="middle" x="116" y="-231.5" font-family="Helvetica,sans-Serif" font-size="10.00">primitives/Primitives.h</text>
</a>
</g>
</g>
<!-- Node1&#45;&gt;Node3 -->
<g id="edge2" class="edge">
<title>Node1&#45;&gt;Node3</title>
<path fill="none" stroke="midnightblue" d="M116,-280.08C116,-273.01 116,-262.86 116,-253.99"/>
<polygon fill="midnightblue" stroke="midnightblue" points="119.5,-253.75 116,-243.75 112.5,-253.75 119.5,-253.75"/>
</g>
<!-- Node5 -->
<g id="node5" class="node">
<title>Node5</title>
<g id="a_node5"><a xlink:href="Services_8h.html" target="_top" xlink:title="Implementation of core Services class.">
<polygon fill="white" stroke="black" points="850,-224.5 850,-243.5 952,-243.5 952,-224.5 850,-224.5"/>
<text text-anchor="middle" x="901" y="-231.5" font-family="Helvetica,sans-Serif" font-size="10.00">services/Services.h</text>
</a>
</g>
</g>
<!-- Node1&#45;&gt;Node5 -->
<g id="edge5" class="edge">
<title>Node1&#45;&gt;Node5</title>
<path fill="none" stroke="midnightblue" d="M186.01,-284.18C337.94,-273.73 695.75,-249.12 839.56,-239.23"/>
<polygon fill="midnightblue" stroke="midnightblue" points="839.81,-242.72 849.54,-238.54 839.33,-235.73 839.81,-242.72"/>
</g>
<!-- Node4 -->
<g id="node4" class="node">
<title>Node4</title>
<g id="a_node4"><a xlink:href="Color_8h.html" target="_top" xlink:title="Helpers for creating colors without accessing SDL api directly.">
<polygon fill="white" stroke="black" points="64,-56.5 64,-75.5 142,-75.5 142,-56.5 64,-56.5"/>
<text text-anchor="middle" x="103" y="-63.5" font-family="Helvetica,sans-Serif" font-size="10.00">../color/Color.h</text>
</a>
</g>
</g>
<!-- Node3&#45;&gt;Node4 -->
<g id="edge3" class="edge">
<title>Node3&#45;&gt;Node4</title>
<path fill="none" stroke="midnightblue" d="M115.31,-224.35C113.91,-206.9 110.67,-166.2 108,-132 106.79,-116.47 105.43,-98.84 104.44,-85.87"/>
<polygon fill="midnightblue" stroke="midnightblue" points="107.92,-85.54 103.67,-75.83 100.95,-86.07 107.92,-85.54"/>
</g>
<!-- Node4&#45;&gt;Node2 -->
<g id="edge4" class="edge">
<title>Node4&#45;&gt;Node2</title>
<path fill="none" stroke="midnightblue" d="M97.39,-56.08C92.63,-48.53 85.68,-37.49 79.85,-28.23"/>
<polygon fill="midnightblue" stroke="midnightblue" points="82.8,-26.35 74.51,-19.75 76.88,-30.08 82.8,-26.35"/>
</g>
<!-- Node6 -->
<g id="node6" class="node">
<title>Node6</title>
<g id="a_node6"><a xlink:title=" ">
<polygon fill="white" stroke="#bfbfbf" points="1433.5,-168.5 1433.5,-187.5 1484.5,-187.5 1484.5,-168.5 1433.5,-168.5"/>
<text text-anchor="middle" x="1459" y="-175.5" font-family="Helvetica,sans-Serif" font-size="10.00">memory</text>
</a>
</g>
</g>
<!-- Node5&#45;&gt;Node6 -->
<g id="edge6" class="edge">
<title>Node5&#45;&gt;Node6</title>
<path fill="none" stroke="midnightblue" d="M952.33,-231.54C1044.85,-228.26 1245.77,-218.23 1423.43,-188"/>
<polygon fill="midnightblue" stroke="midnightblue" points="1424.23,-191.41 1433.49,-186.26 1423.04,-184.51 1424.23,-191.41"/>
</g>
<!-- Node7 -->
<g id="node7" class="node">
<title>Node7</title>
<g id="a_node7"><a xlink:href="AssetService_8h.html" target="_top" xlink:title="Implementation of AssetService.">
<polygon fill="white" stroke="black" points="349.5,-168.5 349.5,-187.5 464.5,-187.5 464.5,-168.5 349.5,-168.5"/>
<text text-anchor="middle" x="407" y="-175.5" font-family="Helvetica,sans-Serif" font-size="10.00">assets/AssetService.h</text>
</a>
</g>
</g>
<!-- Node5&#45;&gt;Node7 -->
<g id="edge7" class="edge">
<title>Node5&#45;&gt;Node7</title>
<path fill="none" stroke="midnightblue" d="M849.68,-228.07C771.32,-220.43 616.9,-204.98 474.93,-188.08"/>
<polygon fill="midnightblue" stroke="midnightblue" points="475.07,-184.57 464.73,-186.86 474.24,-191.52 475.07,-184.57"/>
</g>
<!-- Node17 -->
<g id="node17" class="node">
<title>Node17</title>
<g id="a_node17"><a xlink:href="AudioService_8h.html" target="_top" xlink:title="Default audio service, can actually play audio.">
<polygon fill="white" stroke="black" points="483,-168.5 483,-187.5 591,-187.5 591,-168.5 483,-168.5"/>
<text text-anchor="middle" x="537" y="-175.5" font-family="Helvetica,sans-Serif" font-size="10.00">audio/AudioService.h</text>
</a>
</g>
</g>
<!-- Node5&#45;&gt;Node17 -->
<g id="edge24" class="edge">
<title>Node5&#45;&gt;Node17</title>
<path fill="none" stroke="midnightblue" d="M849.62,-225.38C784.43,-215.71 671.99,-199.03 601.21,-188.53"/>
<polygon fill="midnightblue" stroke="midnightblue" points="601.49,-185.03 591.08,-187.02 600.46,-191.95 601.49,-185.03"/>
</g>
<!-- Node18 -->
<g id="node18" class="node">
<title>Node18</title>
<g id="a_node18"><a xlink:href="ConfigService_8h.html" target="_top" xlink:title="Header for default Config Service.">
<polygon fill="white" stroke="black" points="920.5,-168.5 920.5,-187.5 1033.5,-187.5 1033.5,-168.5 920.5,-168.5"/>
<text text-anchor="middle" x="977" y="-175.5" font-family="Helvetica,sans-Serif" font-size="10.00">config/ConfigService.h</text>
</a>
</g>
</g>
<!-- Node5&#45;&gt;Node18 -->
<g id="edge28" class="edge">
<title>Node5&#45;&gt;Node18</title>
<path fill="none" stroke="midnightblue" d="M913.21,-224.32C924.78,-216.11 942.38,-203.6 956.16,-193.81"/>
<polygon fill="midnightblue" stroke="midnightblue" points="958.44,-196.48 964.57,-187.83 954.39,-190.77 958.44,-196.48"/>
</g>
<!-- Node20 -->
<g id="node20" class="node">
<title>Node20</title>
<g id="a_node20"><a xlink:href="DisplayService_8h.html" target="_top" xlink:title="Service that encapsulates SDL display related functionality.">
<polygon fill="white" stroke="black" points="609,-168.5 609,-187.5 731,-187.5 731,-168.5 609,-168.5"/>
<text text-anchor="middle" x="670" y="-175.5" font-family="Helvetica,sans-Serif" font-size="10.00">display/DisplayService.h</text>
</a>
</g>
</g>
<!-- Node5&#45;&gt;Node20 -->
<g id="edge32" class="edge">
<title>Node5&#45;&gt;Node20</title>
<path fill="none" stroke="midnightblue" d="M864.4,-224.44C824.27,-215.06 759.8,-199.99 716.22,-189.8"/>
<polygon fill="midnightblue" stroke="midnightblue" points="716.97,-186.38 706.43,-187.52 715.37,-193.2 716.97,-186.38"/>
</g>
<!-- Node23 -->
<g id="node23" class="node">
<title>Node23</title>
<g id="a_node23"><a xlink:href="EventQueue_8h.html" target="_top" xlink:title="Handles SDL_Events from main SDL_Queue. Can be hooked into by other services and notified when change...">
<polygon fill="white" stroke="black" points="1184,-168.5 1184,-187.5 1294,-187.5 1294,-168.5 1184,-168.5"/>
<text text-anchor="middle" x="1239" y="-175.5" font-family="Helvetica,sans-Serif" font-size="10.00">events/EventQueue.h</text>
</a>
</g>
</g>
<!-- Node5&#45;&gt;Node23 -->
<g id="edge39" class="edge">
<title>Node5&#45;&gt;Node23</title>
<path fill="none" stroke="midnightblue" d="M952.33,-224.8C1012.2,-215.23 1111.17,-199.42 1175.73,-189.11"/>
<polygon fill="midnightblue" stroke="midnightblue" points="1176.46,-192.54 1185.79,-187.5 1175.36,-185.62 1176.46,-192.54"/>
</g>
<!-- Node25 -->
<g id="node25" class="node">
<title>Node25</title>
<g id="a_node25"><a xlink:href="InputService_8h.html" target="_top" xlink:title="General Purpose input listener. Handles Mouse, Keyboard, Joystick.">
<polygon fill="white" stroke="black" points="1312.5,-168.5 1312.5,-187.5 1415.5,-187.5 1415.5,-168.5 1312.5,-168.5"/>
<text text-anchor="middle" x="1364" y="-175.5" font-family="Helvetica,sans-Serif" font-size="10.00">input/InputService.h</text>
</a>
</g>
</g>
<!-- Node5&#45;&gt;Node25 -->
<g id="edge43" class="edge">
<title>Node5&#45;&gt;Node25</title>
<path fill="none" stroke="midnightblue" d="M952.15,-227.85C1026.73,-220.22 1169.91,-205.09 1302.5,-188.02"/>
<polygon fill="midnightblue" stroke="midnightblue" points="1302.96,-191.49 1312.43,-186.74 1302.07,-184.55 1302.96,-191.49"/>
</g>
<!-- Node33 -->
<g id="node33" class="node">
<title>Node33</title>
<g id="a_node33"><a xlink:href="DebugLoggingService_8h.html" target="_top" xlink:title="Logging service that does the logging. Used for development.">
<polygon fill="white" stroke="black" points="749.5,-168.5 749.5,-187.5 902.5,-187.5 902.5,-168.5 749.5,-168.5"/>
<text text-anchor="middle" x="826" y="-175.5" font-family="Helvetica,sans-Serif" font-size="10.00">logging/DebugLoggingService.h</text>
</a>
</g>
</g>
<!-- Node5&#45;&gt;Node33 -->
<g id="edge56" class="edge">
<title>Node5&#45;&gt;Node33</title>
<path fill="none" stroke="midnightblue" d="M888.95,-224.32C877.54,-216.11 860.17,-203.6 846.57,-193.81"/>
<polygon fill="midnightblue" stroke="midnightblue" points="848.43,-190.84 838.27,-187.83 844.34,-196.52 848.43,-190.84"/>
</g>
<!-- Node35 -->
<g id="node35" class="node">
<title>Node35</title>
<g id="a_node35"><a xlink:href="SceneService_8h.html" target="_top" xlink:title="Service in charge of managing scenes.">
<polygon fill="white" stroke="black" points="1052,-168.5 1052,-187.5 1166,-187.5 1166,-168.5 1052,-168.5"/>
<text text-anchor="middle" x="1109" y="-175.5" font-family="Helvetica,sans-Serif" font-size="10.00">scene/SceneService.h</text>
</a>
</g>
</g>
<!-- Node5&#45;&gt;Node35 -->
<g id="edge60" class="edge">
<title>Node5&#45;&gt;Node35</title>
<path fill="none" stroke="midnightblue" d="M933.96,-224.44C969.79,-215.14 1027.16,-200.25 1066.39,-190.06"/>
<polygon fill="midnightblue" stroke="midnightblue" points="1067.4,-193.42 1076.2,-187.52 1065.64,-186.64 1067.4,-193.42"/>
</g>
<!-- Node8 -->
<g id="node8" class="node">
<title>Node8</title>
<g id="a_node8"><a xlink:title=" ">
<polygon fill="white" stroke="#bfbfbf" points="868.5,-112.5 868.5,-131.5 903.5,-131.5 903.5,-112.5 868.5,-112.5"/>
<text text-anchor="middle" x="886" y="-119.5" font-family="Helvetica,sans-Serif" font-size="10.00">map</text>
</a>
</g>
</g>
<!-- Node7&#45;&gt;Node8 -->
<g id="edge8" class="edge">
<title>Node7&#45;&gt;Node8</title>
<path fill="none" stroke="midnightblue" d="M464.73,-169.1C467.86,-168.71 470.97,-168.35 474,-168 641.5,-148.93 689.03,-166.7 858.44,-131.6"/>
<polygon fill="midnightblue" stroke="midnightblue" points="859.38,-134.98 868.44,-129.49 857.93,-128.13 859.38,-134.98"/>
</g>
<!-- Node9 -->
<g id="node9" class="node">
<title>Node9</title>
<g id="a_node9"><a xlink:title=" ">
<polygon fill="white" stroke="#bfbfbf" points="671.5,-56.5 671.5,-75.5 712.5,-75.5 712.5,-56.5 671.5,-56.5"/>
<text text-anchor="middle" x="692" y="-63.5" font-family="Helvetica,sans-Serif" font-size="10.00">string</text>
</a>
</g>
</g>
<!-- Node7&#45;&gt;Node9 -->
<g id="edge9" class="edge">
<title>Node7&#45;&gt;Node9</title>
<path fill="none" stroke="midnightblue" d="M401.62,-168.26C393.96,-154.56 382.27,-127.97 396,-112 413.16,-92.03 588.55,-75.49 660.97,-69.45"/>
<polygon fill="midnightblue" stroke="midnightblue" points="661.6,-72.91 671.28,-68.61 661.03,-65.94 661.6,-72.91"/>
</g>
<!-- Node10 -->
<g id="node10" class="node">
<title>Node10</title>
<g id="a_node10"><a xlink:href="Font_8h.html" target="_top" xlink:title="Easy interface to interact with SDL fonts.">
<polygon fill="white" stroke="black" points="135.5,-112.5 135.5,-131.5 226.5,-131.5 226.5,-112.5 135.5,-112.5"/>
<text text-anchor="middle" x="181" y="-119.5" font-family="Helvetica,sans-Serif" font-size="10.00">../../assets/Font.h</text>
</a>
</g>
</g>
<!-- Node7&#45;&gt;Node10 -->
<g id="edge10" class="edge">
<title>Node7&#45;&gt;Node10</title>
<path fill="none" stroke="midnightblue" d="M371.19,-168.44C332.01,-159.08 269.12,-144.06 226.48,-133.87"/>
<polygon fill="midnightblue" stroke="midnightblue" points="227.18,-130.44 216.64,-131.52 225.56,-137.24 227.18,-130.44"/>
</g>
<!-- Node12 -->
<g id="node12" class="node">
<title>Node12</title>
<g id="a_node12"><a xlink:href="Sound_8h.html" target="_top" xlink:title="Implementation of Sound.">
<polygon fill="white" stroke="black" points="405.5,-112.5 405.5,-131.5 504.5,-131.5 504.5,-112.5 405.5,-112.5"/>
<text text-anchor="middle" x="455" y="-119.5" font-family="Helvetica,sans-Serif" font-size="10.00">../../assets/Sound.h</text>
</a>
</g>
</g>
<!-- Node7&#45;&gt;Node12 -->
<g id="edge14" class="edge">
<title>Node7&#45;&gt;Node12</title>
<path fill="none" stroke="midnightblue" d="M414.93,-168.08C421.85,-160.3 432.07,-148.8 440.45,-139.37"/>
<polygon fill="midnightblue" stroke="midnightblue" points="443.19,-141.55 447.22,-131.75 437.96,-136.9 443.19,-141.55"/>
</g>
<!-- Node14 -->
<g id="node14" class="node">
<title>Node14</title>
<g id="a_node14"><a xlink:href="Stream_8h.html" target="_top" xlink:title="Wrapper for sdl stream including ability to store stream pointer. Use for single instance sounds like...">
<polygon fill="white" stroke="black" points="522.5,-112.5 522.5,-131.5 625.5,-131.5 625.5,-112.5 522.5,-112.5"/>
<text text-anchor="middle" x="574" y="-119.5" font-family="Helvetica,sans-Serif" font-size="10.00">../../assets/Stream.h</text>
</a>
</g>
</g>
<!-- Node7&#45;&gt;Node14 -->
<g id="edge17" class="edge">
<title>Node7&#45;&gt;Node14</title>
<path fill="none" stroke="midnightblue" d="M433.46,-168.44C461.68,-159.32 506.54,-144.81 537.97,-134.65"/>
<polygon fill="midnightblue" stroke="midnightblue" points="539.22,-137.92 547.66,-131.52 537.07,-131.26 539.22,-137.92"/>
</g>
<!-- Node15 -->
<g id="node15" class="node">
<title>Node15</title>
<g id="a_node15"><a xlink:href="Texture_8h.html" target="_top" xlink:title="Easy interface to interact with sdl bitmaps.">
<polygon fill="white" stroke="black" points="245,-112.5 245,-131.5 349,-131.5 349,-112.5 245,-112.5"/>
<text text-anchor="middle" x="297" y="-119.5" font-family="Helvetica,sans-Serif" font-size="10.00">../../assets/Texture.h</text>
</a>
</g>
</g>
<!-- Node7&#45;&gt;Node15 -->
<g id="edge20" class="edge">
<title>Node7&#45;&gt;Node15</title>
<path fill="none" stroke="midnightblue" d="M389.33,-168.32C371.61,-159.62 344.1,-146.12 323.71,-136.11"/>
<polygon fill="midnightblue" stroke="midnightblue" points="325.15,-132.92 314.63,-131.65 322.06,-139.2 325.15,-132.92"/>
</g>
<!-- Node10&#45;&gt;Node4 -->
<g id="edge13" class="edge">
<title>Node10&#45;&gt;Node4</title>
<path fill="none" stroke="midnightblue" d="M168.47,-112.32C156.41,-103.98 137.97,-91.21 123.73,-81.35"/>
<polygon fill="midnightblue" stroke="midnightblue" points="125.72,-78.47 115.5,-75.65 121.73,-84.22 125.72,-78.47"/>
</g>
<!-- Node10&#45;&gt;Node9 -->
<g id="edge12" class="edge">
<title>Node10&#45;&gt;Node9</title>
<path fill="none" stroke="midnightblue" d="M226.59,-113.31C229.77,-112.84 232.93,-112.4 236,-112 395.43,-91.11 587.37,-75.16 661.1,-69.36"/>
<polygon fill="midnightblue" stroke="midnightblue" points="661.8,-72.82 671.49,-68.55 661.25,-65.84 661.8,-72.82"/>
</g>
<!-- Node11 -->
<g id="node11" class="node">
<title>Node11</title>
<g id="a_node11"><a xlink:title=" ">
<polygon fill="white" stroke="#bfbfbf" points="160,-56.5 160,-75.5 246,-75.5 246,-56.5 160,-56.5"/>
<text text-anchor="middle" x="203" y="-63.5" font-family="Helvetica,sans-Serif" font-size="10.00">SDL2/SDL_ttf.h</text>
</a>
</g>
</g>
<!-- Node10&#45;&gt;Node11 -->
<g id="edge11" class="edge">
<title>Node10&#45;&gt;Node11</title>
<path fill="none" stroke="midnightblue" d="M184.63,-112.08C187.61,-104.77 191.93,-94.18 195.62,-85.1"/>
<polygon fill="midnightblue" stroke="midnightblue" points="198.9,-86.33 199.43,-75.75 192.42,-83.69 198.9,-86.33"/>
</g>
<!-- Node12&#45;&gt;Node9 -->
<g id="edge16" class="edge">
<title>Node12&#45;&gt;Node9</title>
<path fill="none" stroke="midnightblue" d="M492.55,-112.44C539.34,-101.78 618.37,-83.78 661.57,-73.93"/>
<polygon fill="midnightblue" stroke="midnightblue" points="662.51,-77.31 671.48,-71.67 660.95,-70.48 662.51,-77.31"/>
</g>
<!-- Node13 -->
<g id="node13" class="node">
<title>Node13</title>
<g id="a_node13"><a xlink:title=" ">
<polygon fill="white" stroke="#bfbfbf" points="464,-56.5 464,-75.5 564,-75.5 564,-56.5 464,-56.5"/>
<text text-anchor="middle" x="514" y="-63.5" font-family="Helvetica,sans-Serif" font-size="10.00">SDL2/SDL_mixer.h</text>
</a>
</g>
</g>
<!-- Node12&#45;&gt;Node13 -->
<g id="edge15" class="edge">
<title>Node12&#45;&gt;Node13</title>
<path fill="none" stroke="midnightblue" d="M464.48,-112.32C473.2,-104.34 486.34,-92.31 496.9,-82.65"/>
<polygon fill="midnightblue" stroke="midnightblue" points="499.33,-85.17 504.35,-75.83 494.61,-80 499.33,-85.17"/>
</g>
<!-- Node14&#45;&gt;Node9 -->
<g id="edge19" class="edge">
<title>Node14&#45;&gt;Node9</title>
<path fill="none" stroke="midnightblue" d="M592.7,-112.44C611.94,-103.64 642.15,-89.81 664.2,-79.72"/>
<polygon fill="midnightblue" stroke="midnightblue" points="665.75,-82.86 673.39,-75.52 662.84,-76.5 665.75,-82.86"/>
</g>
<!-- Node14&#45;&gt;Node13 -->
<g id="edge18" class="edge">
<title>Node14&#45;&gt;Node13</title>
<path fill="none" stroke="midnightblue" d="M564.36,-112.32C555.49,-104.34 542.13,-92.31 531.39,-82.65"/>
<polygon fill="midnightblue" stroke="midnightblue" points="533.59,-79.92 523.82,-75.83 528.91,-85.13 533.59,-79.92"/>
</g>
<!-- Node15&#45;&gt;Node4 -->
<g id="edge23" class="edge">
<title>Node15&#45;&gt;Node4</title>
<path fill="none" stroke="midnightblue" d="M266.26,-112.44C233.06,-103.2 180.01,-88.44 143.44,-78.26"/>
<polygon fill="midnightblue" stroke="midnightblue" points="144.17,-74.83 133.6,-75.52 142.29,-81.57 144.17,-74.83"/>
</g>
<!-- Node15&#45;&gt;Node9 -->
<g id="edge22" class="edge">
<title>Node15&#45;&gt;Node9</title>
<path fill="none" stroke="midnightblue" d="M349.05,-113.88C432.56,-102.47 593.95,-80.4 661.31,-71.2"/>
<polygon fill="midnightblue" stroke="midnightblue" points="661.85,-74.65 671.28,-69.83 660.9,-67.72 661.85,-74.65"/>
</g>
<!-- Node16 -->
<g id="node16" class="node">
<title>Node16</title>
<g id="a_node16"><a xlink:title=" ">
<polygon fill="white" stroke="#bfbfbf" points="1164.5,-56.5 1164.5,-75.5 1235.5,-75.5 1235.5,-56.5 1164.5,-56.5"/>
<text text-anchor="middle" x="1200" y="-63.5" font-family="Helvetica,sans-Serif" font-size="10.00">SDL2/SDL.h</text>
</a>
</g>
</g>
<!-- Node15&#45;&gt;Node16 -->
<g id="edge21" class="edge">
<title>Node15&#45;&gt;Node16</title>
<path fill="none" stroke="midnightblue" d="M349.12,-115.92C364.24,-114.54 380.77,-113.12 396,-112 684.23,-90.84 1031.24,-74.51 1154.14,-69.01"/>
<polygon fill="midnightblue" stroke="midnightblue" points="1154.47,-72.5 1164.31,-68.55 1154.16,-65.5 1154.47,-72.5"/>
</g>
<!-- Node17&#45;&gt;Node9 -->
<g id="edge25" class="edge">
<title>Node17&#45;&gt;Node9</title>
<path fill="none" stroke="midnightblue" d="M562.44,-168.47C582.96,-160.85 611.93,-148.37 634,-132 652.33,-118.4 669.21,-98.24 679.98,-83.98"/>
<polygon fill="midnightblue" stroke="midnightblue" points="683.03,-85.73 686.12,-75.6 677.39,-81.6 683.03,-85.73"/>
</g>
<!-- Node17&#45;&gt;Node12 -->
<g id="edge26" class="edge">
<title>Node17&#45;&gt;Node12</title>
<path fill="none" stroke="midnightblue" d="M523.83,-168.32C511.15,-159.98 491.77,-147.21 476.79,-137.35"/>
<polygon fill="midnightblue" stroke="midnightblue" points="478.42,-134.23 468.14,-131.65 474.57,-140.08 478.42,-134.23"/>
</g>
<!-- Node17&#45;&gt;Node14 -->
<g id="edge27" class="edge">
<title>Node17&#45;&gt;Node14</title>
<path fill="none" stroke="midnightblue" d="M543.11,-168.08C548.28,-160.53 555.85,-149.49 562.19,-140.23"/>
<polygon fill="midnightblue" stroke="midnightblue" points="565.24,-141.98 568,-131.75 559.46,-138.02 565.24,-141.98"/>
</g>
<!-- Node18&#45;&gt;Node8 -->
<g id="edge29" class="edge">
<title>Node18&#45;&gt;Node8</title>
<path fill="none" stroke="midnightblue" d="M962.38,-168.32C948.05,-159.82 925.99,-146.73 909.25,-136.8"/>
<polygon fill="midnightblue" stroke="midnightblue" points="910.97,-133.75 900.58,-131.65 907.4,-139.77 910.97,-133.75"/>
</g>
<!-- Node18&#45;&gt;Node9 -->
<g id="edge31" class="edge">
<title>Node18&#45;&gt;Node9</title>
<path fill="none" stroke="midnightblue" d="M971.07,-168.23C960.95,-153.99 938.89,-126.04 913,-112 851.16,-78.45 767.25,-69.83 722.72,-67.67"/>
<polygon fill="midnightblue" stroke="midnightblue" points="722.68,-64.16 712.54,-67.26 722.39,-71.16 722.68,-64.16"/>
</g>
<!-- Node19 -->
<g id="node19" class="node">
<title>Node19</title>
<g id="a_node19"><a xlink:title=" ">
<polygon fill="white" stroke="#bfbfbf" points="960,-112.5 960,-131.5 1012,-131.5 1012,-112.5 960,-112.5"/>
<text text-anchor="middle" x="986" y="-119.5" font-family="Helvetica,sans-Serif" font-size="10.00">sstream</text>
</a>
</g>
</g>
<!-- Node18&#45;&gt;Node19 -->
<g id="edge30" class="edge">
<title>Node18&#45;&gt;Node19</title>
<path fill="none" stroke="midnightblue" d="M978.49,-168.08C979.68,-160.93 981.39,-150.64 982.88,-141.69"/>
<polygon fill="midnightblue" stroke="midnightblue" points="986.35,-142.19 984.54,-131.75 979.45,-141.04 986.35,-142.19"/>
</g>
<!-- Node20&#45;&gt;Node4 -->
<g id="edge35" class="edge">
<title>Node20&#45;&gt;Node4</title>
<path fill="none" stroke="midnightblue" d="M608.94,-168.96C605.92,-168.62 602.93,-168.3 600,-168 547.46,-162.63 167.94,-164.1 126,-132 111.91,-121.22 106.43,-101.13 104.31,-86.13"/>
<polygon fill="midnightblue" stroke="midnightblue" points="107.76,-85.48 103.25,-75.89 100.79,-86.19 107.76,-85.48"/>
</g>
<!-- Node20&#45;&gt;Node9 -->
<g id="edge34" class="edge">
<title>Node20&#45;&gt;Node9</title>
<path fill="none" stroke="midnightblue" d="M671.73,-168.37C675.28,-150.62 683.47,-109.67 688.28,-85.6"/>
<polygon fill="midnightblue" stroke="midnightblue" points="691.75,-86.08 690.28,-75.59 684.89,-84.71 691.75,-86.08"/>
</g>
<!-- Node20&#45;&gt;Node16 -->
<g id="edge33" class="edge">
<title>Node20&#45;&gt;Node16</title>
<path fill="none" stroke="midnightblue" d="M731.17,-169.1C734.5,-168.72 737.79,-168.35 741,-168 830.17,-158.36 1063.04,-172.63 1143,-132 1163.83,-121.42 1180.41,-99.66 1190.2,-84.24"/>
<polygon fill="midnightblue" stroke="midnightblue" points="1193.23,-85.99 1195.4,-75.62 1187.24,-82.38 1193.23,-85.99"/>
</g>
<!-- Node21 -->
<g id="node21" class="node">
<title>Node21</title>
<g id="a_node21"><a xlink:href="Service_8h.html" target="_top" xlink:title="Service subscriber that can listen for events.">
<polygon fill="white" stroke="black" points="1068.5,-112.5 1068.5,-131.5 1133.5,-131.5 1133.5,-112.5 1068.5,-112.5"/>
<text text-anchor="middle" x="1101" y="-119.5" font-family="Helvetica,sans-Serif" font-size="10.00">../Service.h</text>
</a>
</g>
</g>
<!-- Node20&#45;&gt;Node21 -->
<g id="edge36" class="edge">
<title>Node20&#45;&gt;Node21</title>
<path fill="none" stroke="midnightblue" d="M731.19,-169.24C734.51,-168.82 737.79,-168.4 741,-168 855.49,-153.59 990.48,-136.76 1057.99,-128.35"/>
<polygon fill="midnightblue" stroke="midnightblue" points="1058.75,-131.78 1068.24,-127.08 1057.88,-124.84 1058.75,-131.78"/>
</g>
<!-- Node21&#45;&gt;Node9 -->
<g id="edge38" class="edge">
<title>Node21&#45;&gt;Node9</title>
<path fill="none" stroke="midnightblue" d="M1068.43,-114.48C1063.6,-113.59 1058.68,-112.74 1054,-112 931.88,-92.74 785.52,-76.69 722.89,-70.15"/>
<polygon fill="midnightblue" stroke="midnightblue" points="723.19,-66.66 712.88,-69.11 722.47,-73.62 723.19,-66.66"/>
</g>
<!-- Node22 -->
<g id="node22" class="node">
<title>Node22</title>
<g id="a_node22"><a xlink:title=" ">
<polygon fill="white" stroke="#bfbfbf" points="1268,-56.5 1268,-75.5 1374,-75.5 1374,-56.5 1268,-56.5"/>
<text text-anchor="middle" x="1321" y="-63.5" font-family="Helvetica,sans-Serif" font-size="10.00">SDL2/SDL_events.h</text>
</a>
</g>
</g>
<!-- Node21&#45;&gt;Node22 -->
<g id="edge37" class="edge">
<title>Node21&#45;&gt;Node22</title>
<path fill="none" stroke="midnightblue" d="M1133.94,-112.92C1171.78,-103.63 1234.07,-88.34 1276.28,-77.98"/>
<polygon fill="midnightblue" stroke="midnightblue" points="1277.14,-81.37 1286.02,-75.59 1275.47,-74.57 1277.14,-81.37"/>
</g>
<!-- Node23&#45;&gt;Node16 -->
<g id="edge40" class="edge">
<title>Node23&#45;&gt;Node16</title>
<path fill="none" stroke="midnightblue" d="M1251.7,-168.31C1268.09,-155.99 1293.13,-132.61 1281,-112 1272.08,-96.84 1256.01,-86.43 1240.52,-79.46"/>
<polygon fill="midnightblue" stroke="midnightblue" points="1241.6,-76.12 1231.02,-75.56 1238.94,-82.6 1241.6,-76.12"/>
</g>
<!-- Node23&#45;&gt;Node21 -->
<g id="edge42" class="edge">
<title>Node23&#45;&gt;Node21</title>
<path fill="none" stroke="midnightblue" d="M1217.13,-168.44C1194.22,-159.48 1158.02,-145.31 1132.13,-135.18"/>
<polygon fill="midnightblue" stroke="midnightblue" points="1133.35,-131.9 1122.76,-131.52 1130.8,-138.42 1133.35,-131.9"/>
</g>
<!-- Node24 -->
<g id="node24" class="node">
<title>Node24</title>
<g id="a_node24"><a xlink:title=" ">
<polygon fill="white" stroke="#bfbfbf" points="1228,-112.5 1228,-131.5 1272,-131.5 1272,-112.5 1228,-112.5"/>
<text text-anchor="middle" x="1250" y="-119.5" font-family="Helvetica,sans-Serif" font-size="10.00">vector</text>
</a>
</g>
</g>
<!-- Node23&#45;&gt;Node24 -->
<g id="edge41" class="edge">
<title>Node23&#45;&gt;Node24</title>
<path fill="none" stroke="midnightblue" d="M1240.82,-168.08C1242.27,-160.93 1244.37,-150.64 1246.19,-141.69"/>
<polygon fill="midnightblue" stroke="midnightblue" points="1249.65,-142.25 1248.22,-131.75 1242.79,-140.85 1249.65,-142.25"/>
</g>
<!-- Node25&#45;&gt;Node9 -->
<g id="edge46" class="edge">
<title>Node25&#45;&gt;Node9</title>
<path fill="none" stroke="midnightblue" d="M1337.32,-168.47C1287.25,-152.58 1180.88,-119.39 1143,-112 987.27,-81.6 797.05,-71.17 723.3,-68.11"/>
<polygon fill="midnightblue" stroke="midnightblue" points="723.01,-64.6 712.88,-67.7 722.73,-71.59 723.01,-64.6"/>
</g>
<!-- Node25&#45;&gt;Node21 -->
<g id="edge47" class="edge">
<title>Node25&#45;&gt;Node21</title>
<path fill="none" stroke="midnightblue" d="M1322.33,-168.44C1273.51,-158.42 1193.06,-141.9 1143.77,-131.78"/>
<polygon fill="midnightblue" stroke="midnightblue" points="1144.25,-128.31 1133.75,-129.73 1142.85,-135.16 1144.25,-128.31"/>
</g>
<!-- Node25&#45;&gt;Node22 -->
<g id="edge44" class="edge">
<title>Node25&#45;&gt;Node22</title>
<path fill="none" stroke="midnightblue" d="M1360.63,-168.37C1353.62,-150.46 1337.39,-108.92 1328.02,-84.95"/>
<polygon fill="midnightblue" stroke="midnightblue" points="1331.26,-83.63 1324.36,-75.59 1324.74,-86.18 1331.26,-83.63"/>
</g>
<!-- Node26 -->
<g id="node26" class="node">
<title>Node26</title>
<g id="a_node26"><a xlink:title=" ">
<polygon fill="white" stroke="#bfbfbf" points="1563,-112.5 1563,-131.5 1617,-131.5 1617,-112.5 1563,-112.5"/>
<text text-anchor="middle" x="1590" y="-119.5" font-family="Helvetica,sans-Serif" font-size="10.00">iostream</text>
</a>
</g>
</g>
<!-- Node25&#45;&gt;Node26 -->
<g id="edge45" class="edge">
<title>Node25&#45;&gt;Node26</title>
<path fill="none" stroke="midnightblue" d="M1400.81,-168.42C1437.09,-159.94 1494.36,-146.46 1553.07,-132.21"/>
<polygon fill="midnightblue" stroke="midnightblue" points="1553.99,-135.58 1562.88,-129.82 1552.34,-128.78 1553.99,-135.58"/>
</g>
<!-- Node27 -->
<g id="node27" class="node">
<title>Node27</title>
<g id="a_node27"><a xlink:href="JoystickState_8h.html" target="_top" xlink:title="Container for storing Joystick state.">
<polygon fill="white" stroke="black" points="1366.5,-112.5 1366.5,-131.5 1449.5,-131.5 1449.5,-112.5 1366.5,-112.5"/>
<text text-anchor="middle" x="1408" y="-119.5" font-family="Helvetica,sans-Serif" font-size="10.00">JoystickState.h</text>
</a>
</g>
</g>
<!-- Node25&#45;&gt;Node27 -->
<g id="edge48" class="edge">
<title>Node25&#45;&gt;Node27</title>
<path fill="none" stroke="midnightblue" d="M1371.27,-168.08C1377.54,-160.38 1386.79,-149.03 1394.43,-139.65"/>
<polygon fill="midnightblue" stroke="midnightblue" points="1397.27,-141.71 1400.87,-131.75 1391.84,-137.29 1397.27,-141.71"/>
</g>
<!-- Node29 -->
<g id="node29" class="node">
<title>Node29</title>
<g id="a_node29"><a xlink:href="KeyboardState_8h.html" target="_top" xlink:title="Container for storing Keyboard state.">
<polygon fill="white" stroke="black" points="1635,-112.5 1635,-131.5 1723,-131.5 1723,-112.5 1635,-112.5"/>
<text text-anchor="middle" x="1679" y="-119.5" font-family="Helvetica,sans-Serif" font-size="10.00">KeyboardState.h</text>
</a>
</g>
</g>
<!-- Node25&#45;&gt;Node29 -->
<g id="edge51" class="edge">
<title>Node25&#45;&gt;Node29</title>
<path fill="none" stroke="midnightblue" d="M1413.91,-168.44C1471.47,-158.58 1565.76,-142.41 1625,-132.26"/>
<polygon fill="midnightblue" stroke="midnightblue" points="1625.65,-135.7 1634.91,-130.56 1624.46,-128.8 1625.65,-135.7"/>
</g>
<!-- Node31 -->
<g id="node31" class="node">
<title>Node31</title>
<g id="a_node31"><a xlink:href="MouseState_8h.html" target="_top" xlink:title="Container for storing Mouse state.">
<polygon fill="white" stroke="black" points="1467.5,-112.5 1467.5,-131.5 1544.5,-131.5 1544.5,-112.5 1467.5,-112.5"/>
<text text-anchor="middle" x="1506" y="-119.5" font-family="Helvetica,sans-Serif" font-size="10.00">MouseState.h</text>
</a>
</g>
</g>
<!-- Node25&#45;&gt;Node31 -->
<g id="edge53" class="edge">
<title>Node25&#45;&gt;Node31</title>
<path fill="none" stroke="midnightblue" d="M1386.5,-168.44C1410.08,-159.48 1447.32,-145.31 1473.96,-135.18"/>
<polygon fill="midnightblue" stroke="midnightblue" points="1475.5,-138.34 1483.6,-131.52 1473.01,-131.8 1475.5,-138.34"/>
</g>
<!-- Node27&#45;&gt;Node22 -->
<g id="edge49" class="edge">
<title>Node27&#45;&gt;Node22</title>
<path fill="none" stroke="midnightblue" d="M1394.02,-112.32C1380.45,-103.9 1359.62,-90.97 1343.68,-81.07"/>
<polygon fill="midnightblue" stroke="midnightblue" points="1345.29,-77.95 1334.94,-75.65 1341.59,-83.9 1345.29,-77.95"/>
</g>
<!-- Node28 -->
<g id="node28" class="node">
<title>Node28</title>
<g id="a_node28"><a xlink:href="JoystickCodes_8h.html" target="_top" xlink:title="Defines for codes used for joystick.">
<polygon fill="white" stroke="black" points="1392,-56.5 1392,-75.5 1480,-75.5 1480,-56.5 1392,-56.5"/>
<text text-anchor="middle" x="1436" y="-63.5" font-family="Helvetica,sans-Serif" font-size="10.00">JoystickCodes.h</text>
</a>
</g>
</g>
<!-- Node27&#45;&gt;Node28 -->
<g id="edge50" class="edge">
<title>Node27&#45;&gt;Node28</title>
<path fill="none" stroke="midnightblue" d="M1412.62,-112.08C1416.46,-104.69 1422.02,-93.95 1426.76,-84.81"/>
<polygon fill="midnightblue" stroke="midnightblue" points="1429.97,-86.24 1431.46,-75.75 1423.75,-83.02 1429.97,-86.24"/>
</g>
<!-- Node30 -->
<g id="node30" class="node">
<title>Node30</title>
<g id="a_node30"><a xlink:href="KeyboardKeys_8h.html" target="_top" xlink:title="Defenitions of keys that can be used by input manager.">
<polygon fill="white" stroke="black" points="1636,-56.5 1636,-75.5 1722,-75.5 1722,-56.5 1636,-56.5"/>
<text text-anchor="middle" x="1679" y="-63.5" font-family="Helvetica,sans-Serif" font-size="10.00">KeyboardKeys.h</text>
</a>
</g>
</g>
<!-- Node29&#45;&gt;Node30 -->
<g id="edge52" class="edge">
<title>Node29&#45;&gt;Node30</title>
<path fill="none" stroke="midnightblue" d="M1679,-112.08C1679,-105.01 1679,-94.86 1679,-85.99"/>
<polygon fill="midnightblue" stroke="midnightblue" points="1682.5,-85.75 1679,-75.75 1675.5,-85.75 1682.5,-85.75"/>
</g>
<!-- Node31&#45;&gt;Node22 -->
<g id="edge54" class="edge">
<title>Node31&#45;&gt;Node22</title>
<path fill="none" stroke="midnightblue" d="M1476.69,-112.44C1445.16,-103.24 1394.87,-88.56 1360.01,-78.39"/>
<polygon fill="midnightblue" stroke="midnightblue" points="1360.76,-74.96 1350.18,-75.52 1358.8,-81.68 1360.76,-74.96"/>
</g>
<!-- Node32 -->
<g id="node32" class="node">
<title>Node32</title>
<g id="a_node32"><a xlink:title=" ">
<polygon fill="white" stroke="#bfbfbf" points="1498,-56.5 1498,-75.5 1604,-75.5 1604,-56.5 1498,-56.5"/>
<text text-anchor="middle" x="1551" y="-63.5" font-family="Helvetica,sans-Serif" font-size="10.00">SDL2/SDL_mouse.h</text>
</a>
</g>
</g>
<!-- Node31&#45;&gt;Node32 -->
<g id="edge55" class="edge">
<title>Node31&#45;&gt;Node32</title>
<path fill="none" stroke="midnightblue" d="M1513.43,-112.08C1519.85,-104.38 1529.31,-93.03 1537.12,-83.65"/>
<polygon fill="midnightblue" stroke="midnightblue" points="1539.99,-85.67 1543.71,-75.75 1534.62,-81.19 1539.99,-85.67"/>
</g>
<!-- Node33&#45;&gt;Node9 -->
<g id="edge57" class="edge">
<title>Node33&#45;&gt;Node9</title>
<path fill="none" stroke="midnightblue" d="M807.83,-168.49C791.52,-160.38 767.39,-147.18 749,-132 731.72,-117.74 715.21,-98 704.44,-84.03"/>
<polygon fill="midnightblue" stroke="midnightblue" points="707.06,-81.69 698.25,-75.8 701.47,-85.89 707.06,-81.69"/>
</g>
<!-- Node34 -->
<g id="node34" class="node">
<title>Node34</title>
<g id="a_node34"><a xlink:href="LoggingService_8h.html" target="_top" xlink:title="Default logging service. Does nothing. Use in production.">
<polygon fill="white" stroke="black" points="758,-112.5 758,-131.5 850,-131.5 850,-112.5 758,-112.5"/>
<text text-anchor="middle" x="804" y="-119.5" font-family="Helvetica,sans-Serif" font-size="10.00">LoggingService.h</text>
</a>
</g>
</g>
<!-- Node33&#45;&gt;Node34 -->
<g id="edge58" class="edge">
<title>Node33&#45;&gt;Node34</title>
<path fill="none" stroke="midnightblue" d="M822.37,-168.08C819.39,-160.77 815.07,-150.18 811.38,-141.1"/>
<polygon fill="midnightblue" stroke="midnightblue" points="814.58,-139.69 807.57,-131.75 808.1,-142.33 814.58,-139.69"/>
</g>
<!-- Node34&#45;&gt;Node9 -->
<g id="edge59" class="edge">
<title>Node34&#45;&gt;Node9</title>
<path fill="none" stroke="midnightblue" d="M786.01,-112.32C767.96,-103.62 739.95,-90.12 719.2,-80.11"/>
<polygon fill="midnightblue" stroke="midnightblue" points="720.48,-76.84 709.95,-75.65 717.44,-83.15 720.48,-76.84"/>
</g>
<!-- Node35&#45;&gt;Node9 -->
<g id="edge61" class="edge">
<title>Node35&#45;&gt;Node9</title>
<path fill="none" stroke="midnightblue" d="M1100.2,-168.06C1085.35,-153.59 1053.73,-125.3 1021,-112 917.68,-70 782.63,-65.78 722.81,-66.23"/>
<polygon fill="midnightblue" stroke="midnightblue" points="722.5,-62.73 712.54,-66.35 722.59,-69.73 722.5,-62.73"/>
</g>
<!-- Node35&#45;&gt;Node21 -->
<g id="edge63" class="edge">
<title>Node35&#45;&gt;Node21</title>
<path fill="none" stroke="midnightblue" d="M1107.68,-168.08C1106.62,-160.93 1105.09,-150.64 1103.77,-141.69"/>
<polygon fill="midnightblue" stroke="midnightblue" points="1107.22,-141.13 1102.3,-131.75 1100.3,-142.16 1107.22,-141.13"/>
</g>
<!-- Node35&#45;&gt;Node24 -->
<g id="edge62" class="edge">
<title>Node35&#45;&gt;Node24</title>
<path fill="none" stroke="midnightblue" d="M1131.34,-168.44C1154.75,-159.48 1191.74,-145.31 1218.19,-135.18"/>
<polygon fill="midnightblue" stroke="midnightblue" points="1219.68,-138.36 1227.76,-131.52 1217.17,-131.82 1219.68,-138.36"/>
</g>
</g>
</svg>
