<?xml version="1.0" encoding="UTF-8" standalone="no"?>
<!DOCTYPE svg PUBLIC "-//W3C//DTD SVG 1.1//EN"
 "http://www.w3.org/Graphics/SVG/1.1/DTD/svg11.dtd">
<!-- Generated by graphviz version 2.46.1 (20210215.1649)
 -->
<!-- Title: include/random/RandomGenerator.h Pages: 1 -->
<svg width="435pt" height="84pt"
 viewBox="0.00 0.00 435.00 84.00" xmlns="http://www.w3.org/2000/svg" xmlns:xlink="http://www.w3.org/1999/xlink">
<g id="graph0" class="graph" transform="scale(1 1) rotate(0) translate(4 80)">
<title>include/random/RandomGenerator.h</title>
<polygon fill="white" stroke="transparent" points="-4,4 -4,-80 431,-80 431,4 -4,4"/>
<!-- Node1 -->
<g id="node1" class="node">
<title>Node1</title>
<g id="a_node1"><a xlink:title="Static helper class that can create random numbers.">
<polygon fill="#bfbfbf" stroke="black" points="119.5,-56.5 119.5,-75.5 291.5,-75.5 291.5,-56.5 119.5,-56.5"/>
<text text-anchor="middle" x="205.5" y="-63.5" font-family="Helvetica,sans-Serif" font-size="10.00">include/random/RandomGenerator.h</text>
</a>
</g>
</g>
<!-- Node2 -->
<g id="node2" class="node">
<title>Node2</title>
<g id="a_node2"><a xlink:href="ParticleEmitter_8cpp.html" target="_top" xlink:title="Implementation of a particle emitter. and configured.">
<polygon fill="white" stroke="black" points="0,-0.5 0,-19.5 149,-19.5 149,-0.5 0,-0.5"/>
<text text-anchor="middle" x="74.5" y="-7.5" font-family="Helvetica,sans-Serif" font-size="10.00">src/entities/ParticleEmitter.cpp</text>
</a>
</g>
</g>
<!-- Node1&#45;&gt;Node2 -->
<g id="edge1" class="edge">
<title>Node1&#45;&gt;Node2</title>
<path fill="none" stroke="midnightblue" d="M175.18,-52.5C150.62,-42.38 116.68,-28.39 95.16,-19.52"/>
<polygon fill="midnightblue" stroke="midnightblue" points="174.16,-55.87 184.74,-56.44 176.83,-49.4 174.16,-55.87"/>
</g>
<!-- Node3 -->
<g id="node3" class="node">
<title>Node3</title>
<g id="a_node3"><a xlink:href="Game_8cpp.html" target="_top" xlink:title="Implementation of Game.">
<polygon fill="white" stroke="black" points="167,-0.5 167,-19.5 244,-19.5 244,-0.5 167,-0.5"/>
<text text-anchor="middle" x="205.5" y="-7.5" font-family="Helvetica,sans-Serif" font-size="10.00">src/Game.cpp</text>
</a>
</g>
</g>
<!-- Node1&#45;&gt;Node3 -->
<g id="edge2" class="edge">
<title>Node1&#45;&gt;Node3</title>
<path fill="none" stroke="midnightblue" d="M205.5,-45.8C205.5,-36.91 205.5,-26.78 205.5,-19.75"/>
<polygon fill="midnightblue" stroke="midnightblue" points="202,-46.08 205.5,-56.08 209,-46.08 202,-46.08"/>
</g>
<!-- Node4 -->
<g id="node4" class="node">
<title>Node4</title>
<g id="a_node4"><a xlink:href="RandomGenerator_8cpp.html" target="_top" xlink:title="Implementation of Random class methods.">
<polygon fill="white" stroke="black" points="262,-0.5 262,-19.5 427,-19.5 427,-0.5 262,-0.5"/>
<text text-anchor="middle" x="344.5" y="-7.5" font-family="Helvetica,sans-Serif" font-size="10.00">src/random/RandomGenerator.cpp</text>
</a>
</g>
</g>
<!-- Node1&#45;&gt;Node4 -->
<g id="edge3" class="edge">
<title>Node1&#45;&gt;Node4</title>
<path fill="none" stroke="midnightblue" d="M236.98,-52.77C263.09,-42.63 299.54,-28.47 322.58,-19.52"/>
<polygon fill="midnightblue" stroke="midnightblue" points="235.58,-49.56 227.52,-56.44 238.11,-56.08 235.58,-49.56"/>
</g>
</g>
</svg>
