<?xml version="1.0" encoding="UTF-8" standalone="no"?>
<!DOCTYPE svg PUBLIC "-//W3C//DTD SVG 1.1//EN"
 "http://www.w3.org/Graphics/SVG/1.1/DTD/svg11.dtd">
<!-- Generated by graphviz version 2.46.1 (20210215.1649)
 -->
<!-- Title: include/scene/Scene.h Pages: 1 -->
<svg width="1699pt" height="95pt"
 viewBox="0.00 0.00 1698.50 95.00" xmlns="http://www.w3.org/2000/svg" xmlns:xlink="http://www.w3.org/1999/xlink">
<g id="graph0" class="graph" transform="scale(1 1) rotate(0) translate(4 91)">
<title>include/scene/Scene.h</title>
<polygon fill="white" stroke="transparent" points="-4,4 -4,-91 1694.5,-91 1694.5,4 -4,4"/>
<!-- Node1 -->
<g id="node1" class="node">
<title>Node1</title>
<g id="a_node1"><a xlink:title="Parent scene class. Children can be added to scene manager.">
<polygon fill="#bfbfbf" stroke="black" points="820.5,-67.5 820.5,-86.5 935.5,-86.5 935.5,-67.5 820.5,-67.5"/>
<text text-anchor="middle" x="878" y="-74.5" font-family="Helvetica,sans-Serif" font-size="10.00">include/scene/Scene.h</text>
</a>
</g>
</g>
<!-- Node2 -->
<g id="node2" class="node">
<title>Node2</title>
<g id="a_node2"><a xlink:href="GameObject_8cpp_source.html" target="_top" xlink:title=" ">
<polygon fill="white" stroke="black" points="0,-6 0,-25 140,-25 140,-6 0,-6"/>
<text text-anchor="middle" x="70" y="-13" font-family="Helvetica,sans-Serif" font-size="10.00">src/entities/GameObject.cpp</text>
</a>
</g>
</g>
<!-- Node1&#45;&gt;Node2 -->
<g id="edge1" class="edge">
<title>Node1&#45;&gt;Node2</title>
<path fill="none" stroke="midnightblue" d="M810,-74.52C680.78,-71.11 391.03,-60.57 149,-31 136.68,-29.49 123.38,-27.28 111.27,-25.04"/>
<polygon fill="midnightblue" stroke="midnightblue" points="810.05,-78.02 820.14,-74.78 810.23,-71.03 810.05,-78.02"/>
</g>
<!-- Node3 -->
<g id="node3" class="node">
<title>Node3</title>
<g id="a_node3"><a xlink:href="Particle_8cpp.html" target="_top" xlink:title="Implementation of Particle.">
<polygon fill="white" stroke="black" points="158.5,-6 158.5,-25 277.5,-25 277.5,-6 158.5,-6"/>
<text text-anchor="middle" x="218" y="-13" font-family="Helvetica,sans-Serif" font-size="10.00">src/entities/Particle.cpp</text>
</a>
</g>
</g>
<!-- Node1&#45;&gt;Node3 -->
<g id="edge2" class="edge">
<title>Node1&#45;&gt;Node3</title>
<path fill="none" stroke="midnightblue" d="M810.16,-73.8C699.79,-69.57 474.72,-58.17 286,-31 275.37,-29.47 263.91,-27.25 253.48,-25.01"/>
<polygon fill="midnightblue" stroke="midnightblue" points="810.03,-77.3 820.16,-74.18 810.29,-70.31 810.03,-77.3"/>
</g>
<!-- Node4 -->
<g id="node4" class="node">
<title>Node4</title>
<g id="a_node4"><a xlink:href="ParticleEmitter_8cpp.html" target="_top" xlink:title="Implementation of a particle emitter. and configured.">
<polygon fill="white" stroke="black" points="295.5,-6 295.5,-25 444.5,-25 444.5,-6 295.5,-6"/>
<text text-anchor="middle" x="370" y="-13" font-family="Helvetica,sans-Serif" font-size="10.00">src/entities/ParticleEmitter.cpp</text>
</a>
</g>
</g>
<!-- Node1&#45;&gt;Node4 -->
<g id="edge3" class="edge">
<title>Node1&#45;&gt;Node4</title>
<path fill="none" stroke="midnightblue" d="M810.28,-70.25C726.26,-62.79 578.73,-48.62 453,-31 440.83,-29.29 427.71,-27.15 415.58,-25.03"/>
<polygon fill="midnightblue" stroke="midnightblue" points="810.18,-73.75 820.45,-71.15 810.8,-66.78 810.18,-73.75"/>
</g>
<!-- Node5 -->
<g id="node5" class="node">
<title>Node5</title>
<g id="a_node5"><a xlink:href="Sprite_8cpp.html" target="_top" xlink:title="Implementation of Sprite.">
<polygon fill="white" stroke="black" points="462.5,-6 462.5,-25 573.5,-25 573.5,-6 462.5,-6"/>
<text text-anchor="middle" x="518" y="-13" font-family="Helvetica,sans-Serif" font-size="10.00">src/entities/Sprite.cpp</text>
</a>
</g>
</g>
<!-- Node1&#45;&gt;Node5 -->
<g id="edge4" class="edge">
<title>Node1&#45;&gt;Node5</title>
<path fill="none" stroke="midnightblue" d="M810.37,-67.13C750.22,-58.9 659.97,-45.74 582,-31 572.71,-29.24 562.71,-27.1 553.45,-25.01"/>
<polygon fill="midnightblue" stroke="midnightblue" points="810.11,-70.63 820.49,-68.51 811.06,-63.69 810.11,-70.63"/>
</g>
<!-- Node6 -->
<g id="node6" class="node">
<title>Node6</title>
<g id="a_node6"><a xlink:href="Button_8cpp.html" target="_top" xlink:title="Implementation of Button.">
<polygon fill="white" stroke="black" points="591.5,-6 591.5,-25 716.5,-25 716.5,-6 591.5,-6"/>
<text text-anchor="middle" x="654" y="-13" font-family="Helvetica,sans-Serif" font-size="10.00">src/entities/ui/Button.cpp</text>
</a>
</g>
</g>
<!-- Node1&#45;&gt;Node6 -->
<g id="edge5" class="edge">
<title>Node1&#45;&gt;Node6</title>
<path fill="none" stroke="midnightblue" d="M836.2,-64.9C792.69,-53.34 725.51,-35.5 686.03,-25.01"/>
<polygon fill="midnightblue" stroke="midnightblue" points="835.34,-68.29 845.91,-67.48 837.14,-61.53 835.34,-68.29"/>
</g>
<!-- Node7 -->
<g id="node7" class="node">
<title>Node7</title>
<g id="a_node7"><a xlink:href="Checkbox_8cpp.html" target="_top" xlink:title="Implementation of UI Checkbox.">
<polygon fill="white" stroke="black" points="734.5,-6 734.5,-25 873.5,-25 873.5,-6 734.5,-6"/>
<text text-anchor="middle" x="804" y="-13" font-family="Helvetica,sans-Serif" font-size="10.00">src/entities/ui/Checkbox.cpp</text>
</a>
</g>
</g>
<!-- Node1&#45;&gt;Node7 -->
<g id="edge6" class="edge">
<title>Node1&#45;&gt;Node7</title>
<path fill="none" stroke="midnightblue" d="M859.31,-60.97C845.16,-49.59 826.22,-34.37 814.58,-25.01"/>
<polygon fill="midnightblue" stroke="midnightblue" points="857.41,-63.94 867.4,-67.48 861.8,-58.48 857.41,-63.94"/>
</g>
<!-- Node8 -->
<g id="node8" class="node">
<title>Node8</title>
<g id="a_node8"><a xlink:href="Image_8cpp.html" target="_top" xlink:title="Texturable ui element.">
<polygon fill="white" stroke="black" points="891.5,-6 891.5,-25 1014.5,-25 1014.5,-6 891.5,-6"/>
<text text-anchor="middle" x="953" y="-13" font-family="Helvetica,sans-Serif" font-size="10.00">src/entities/ui/Image.cpp</text>
</a>
</g>
</g>
<!-- Node1&#45;&gt;Node8 -->
<g id="edge7" class="edge">
<title>Node1&#45;&gt;Node8</title>
<path fill="none" stroke="midnightblue" d="M896.94,-60.97C911.29,-49.59 930.48,-34.37 942.27,-25.01"/>
<polygon fill="midnightblue" stroke="midnightblue" points="894.4,-58.52 888.75,-67.48 898.76,-64 894.4,-58.52"/>
</g>
<!-- Node9 -->
<g id="node9" class="node">
<title>Node9</title>
<g id="a_node9"><a xlink:href="Inputbox_8cpp.html" target="_top" xlink:title="Implementation of UI Inputbox.">
<polygon fill="white" stroke="black" points="1032.5,-6 1032.5,-25 1165.5,-25 1165.5,-6 1032.5,-6"/>
<text text-anchor="middle" x="1099" y="-13" font-family="Helvetica,sans-Serif" font-size="10.00">src/entities/ui/Inputbox.cpp</text>
</a>
</g>
</g>
<!-- Node1&#45;&gt;Node9 -->
<g id="edge8" class="edge">
<title>Node1&#45;&gt;Node9</title>
<path fill="none" stroke="midnightblue" d="M919.52,-64.82C962.45,-53.26 1028.53,-35.47 1067.39,-25.01"/>
<polygon fill="midnightblue" stroke="midnightblue" points="918.41,-61.5 909.66,-67.48 920.23,-68.25 918.41,-61.5"/>
</g>
<!-- Node10 -->
<g id="node10" class="node">
<title>Node10</title>
<g id="a_node10"><a xlink:href="UIElement_8cpp.html" target="_top" xlink:title="Implementation of UIElement.">
<polygon fill="white" stroke="black" points="1184,-6 1184,-25 1326,-25 1326,-6 1184,-6"/>
<text text-anchor="middle" x="1255" y="-13" font-family="Helvetica,sans-Serif" font-size="10.00">src/entities/ui/UIElement.cpp</text>
</a>
</g>
</g>
<!-- Node1&#45;&gt;Node10 -->
<g id="edge9" class="edge">
<title>Node1&#45;&gt;Node10</title>
<path fill="none" stroke="midnightblue" d="M945.72,-66.31C1005.97,-57.55 1096.46,-44.06 1175,-31 1186.14,-29.15 1198.13,-27.04 1209.35,-25.01"/>
<polygon fill="midnightblue" stroke="midnightblue" points="944.96,-62.88 935.57,-67.78 945.97,-69.81 944.96,-62.88"/>
</g>
<!-- Node11 -->
<g id="node11" class="node">
<title>Node11</title>
<g id="a_node11"><a xlink:href="Scene_8cpp.html" target="_top" xlink:title="Implementation of Scene class.">
<polygon fill="white" stroke="black" points="1344,-6 1344,-25 1452,-25 1452,-6 1344,-6"/>
<text text-anchor="middle" x="1398" y="-13" font-family="Helvetica,sans-Serif" font-size="10.00">src/scene/Scene.cpp</text>
</a>
</g>
</g>
<!-- Node1&#45;&gt;Node11 -->
<g id="edge10" class="edge">
<title>Node1&#45;&gt;Node11</title>
<path fill="none" stroke="midnightblue" d="M945.68,-72.05C1035.2,-66.22 1197.69,-53.47 1335,-31 1344.64,-29.42 1355,-27.24 1364.48,-25.05"/>
<polygon fill="midnightblue" stroke="midnightblue" points="945.42,-68.56 935.66,-72.7 945.87,-75.55 945.42,-68.56"/>
</g>
<!-- Node12 -->
<g id="node12" class="node">
<title>Node12</title>
<g id="a_node12"><a xlink:href="DisplayService_8cpp.html" target="_top" xlink:title="Implementation of DisplayService.">
<polygon fill="white" stroke="black" points="1470.5,-0.5 1470.5,-30.5 1573.5,-30.5 1573.5,-0.5 1470.5,-0.5"/>
<text text-anchor="start" x="1478.5" y="-18.5" font-family="Helvetica,sans-Serif" font-size="10.00">src/services/display</text>
<text text-anchor="middle" x="1522" y="-7.5" font-family="Helvetica,sans-Serif" font-size="10.00">/DisplayService.cpp</text>
</a>
</g>
</g>
<!-- Node1&#45;&gt;Node12 -->
<g id="edge11" class="edge">
<title>Node1&#45;&gt;Node12</title>
<path fill="none" stroke="midnightblue" d="M946.07,-74.19C1055.28,-70.52 1276.15,-59.92 1461,-31 1464.01,-30.53 1467.09,-29.99 1470.2,-29.4"/>
<polygon fill="midnightblue" stroke="midnightblue" points="945.74,-70.7 935.86,-74.53 945.97,-77.7 945.74,-70.7"/>
</g>
<!-- Node13 -->
<g id="node13" class="node">
<title>Node13</title>
<g id="a_node13"><a xlink:href="SceneService_8cpp.html" target="_top" xlink:title="Implementation of SceneService.">
<polygon fill="white" stroke="black" points="1591.5,-0.5 1591.5,-30.5 1690.5,-30.5 1690.5,-0.5 1591.5,-0.5"/>
<text text-anchor="start" x="1599.5" y="-18.5" font-family="Helvetica,sans-Serif" font-size="10.00">src/services/scene</text>
<text text-anchor="middle" x="1641" y="-7.5" font-family="Helvetica,sans-Serif" font-size="10.00">/SceneService.cpp</text>
</a>
</g>
</g>
<!-- Node1&#45;&gt;Node13 -->
<g id="edge12" class="edge">
<title>Node1&#45;&gt;Node13</title>
<path fill="none" stroke="midnightblue" d="M946.25,-75.74C1072.65,-74.35 1351.38,-67.04 1583,-31 1585.77,-30.57 1588.6,-30.07 1591.45,-29.52"/>
<polygon fill="midnightblue" stroke="midnightblue" points="945.92,-72.24 935.96,-75.84 945.99,-79.24 945.92,-72.24"/>
</g>
</g>
</svg>
