<?xml version="1.0" encoding="UTF-8" standalone="no"?>
<!DOCTYPE svg PUBLIC "-//W3C//DTD SVG 1.1//EN"
 "http://www.w3.org/Graphics/SVG/1.1/DTD/svg11.dtd">
<!-- Generated by graphviz version 2.46.1 (20210215.1649)
 -->
<!-- Title: include/services/scene/SceneService.h Pages: 1 -->
<svg width="2334pt" height="229pt"
 viewBox="0.00 0.00 2334.00 229.00" xmlns="http://www.w3.org/2000/svg" xmlns:xlink="http://www.w3.org/1999/xlink">
<g id="graph0" class="graph" transform="scale(1 1) rotate(0) translate(4 225)">
<title>include/services/scene/SceneService.h</title>
<polygon fill="white" stroke="transparent" points="-4,4 -4,-225 2330,-225 2330,4 -4,4"/>
<!-- Node1 -->
<g id="node1" class="node">
<title>Node1</title>
<g id="a_node1"><a xlink:title="Service in charge of managing scenes.">
<polygon fill="#bfbfbf" stroke="black" points="583.5,-190.5 583.5,-220.5 699.5,-220.5 699.5,-190.5 583.5,-190.5"/>
<text text-anchor="start" x="591.5" y="-208.5" font-family="Helvetica,sans-Serif" font-size="10.00">include/services/scene</text>
<text text-anchor="middle" x="641.5" y="-197.5" font-family="Helvetica,sans-Serif" font-size="10.00">/SceneService.h</text>
</a>
</g>
</g>
<!-- Node2 -->
<g id="node2" class="node">
<title>Node2</title>
<g id="a_node2"><a xlink:href="SceneService_8cpp.html" target="_top" xlink:title="Implementation of SceneService.">
<polygon fill="white" stroke="black" points="0,-0.5 0,-30.5 99,-30.5 99,-0.5 0,-0.5"/>
<text text-anchor="start" x="8" y="-18.5" font-family="Helvetica,sans-Serif" font-size="10.00">src/services/scene</text>
<text text-anchor="middle" x="49.5" y="-7.5" font-family="Helvetica,sans-Serif" font-size="10.00">/SceneService.cpp</text>
</a>
</g>
</g>
<!-- Node1&#45;&gt;Node2 -->
<g id="edge1" class="edge">
<title>Node1&#45;&gt;Node2</title>
<path fill="none" stroke="midnightblue" d="M587.25,-187.27C471.1,-150.39 200.27,-64.38 93.71,-30.54"/>
<polygon fill="midnightblue" stroke="midnightblue" points="586.41,-190.68 597,-190.37 588.53,-184.01 586.41,-190.68"/>
</g>
<!-- Node3 -->
<g id="node3" class="node">
<title>Node3</title>
<g id="a_node3"><a xlink:href="Services_8h.html" target="_top" xlink:title="Implementation of core Services class.">
<polygon fill="white" stroke="black" points="1196.5,-134.5 1196.5,-153.5 1332.5,-153.5 1332.5,-134.5 1196.5,-134.5"/>
<text text-anchor="middle" x="1264.5" y="-141.5" font-family="Helvetica,sans-Serif" font-size="10.00">include/services/Services.h</text>
</a>
</g>
</g>
<!-- Node1&#45;&gt;Node3 -->
<g id="edge2" class="edge">
<title>Node1&#45;&gt;Node3</title>
<path fill="none" stroke="midnightblue" d="M709.69,-197.99C829.43,-186.55 1076.13,-162.99 1196.05,-151.54"/>
<polygon fill="midnightblue" stroke="midnightblue" points="709.17,-194.52 699.55,-198.96 709.84,-201.49 709.17,-194.52"/>
</g>
<!-- Node3&#45;&gt;Node2 -->
<g id="edge19" class="edge">
<title>Node3&#45;&gt;Node2</title>
<path fill="none" stroke="midnightblue" d="M1186.27,-142.51C1052.09,-140.73 784.13,-132.78 697.5,-98 677.27,-89.88 679.78,-74.98 659.5,-67 545.1,-22.01 228.95,-49.98 107.5,-31 104.73,-30.57 101.9,-30.06 99.05,-29.51"/>
<polygon fill="midnightblue" stroke="midnightblue" points="1186.44,-146.01 1196.48,-142.64 1186.52,-139.01 1186.44,-146.01"/>
</g>
<!-- Node4 -->
<g id="node4" class="node">
<title>Node4</title>
<g id="a_node4"><a xlink:href="Font_8cpp.html" target="_top" xlink:title="Implementation of Font.">
<polygon fill="white" stroke="black" points="2223,-73 2223,-92 2326,-92 2326,-73 2223,-73"/>
<text text-anchor="middle" x="2274.5" y="-80" font-family="Helvetica,sans-Serif" font-size="10.00">src/assets/Font.cpp</text>
</a>
</g>
</g>
<!-- Node3&#45;&gt;Node4 -->
<g id="edge3" class="edge">
<title>Node3&#45;&gt;Node4</title>
<path fill="none" stroke="midnightblue" d="M1343.05,-143.71C1505.44,-144.21 1889.59,-140.32 2208.5,-98 2219.08,-96.6 2230.48,-94.36 2240.78,-92.06"/>
<polygon fill="midnightblue" stroke="midnightblue" points="1342.69,-140.21 1332.68,-143.68 1342.66,-147.21 1342.69,-140.21"/>
</g>
<!-- Node5 -->
<g id="node5" class="node">
<title>Node5</title>
<g id="a_node5"><a xlink:href="Texture_8cpp.html" target="_top" xlink:title="Implementation of Texture.">
<polygon fill="white" stroke="black" points="534.5,-73 534.5,-92 650.5,-92 650.5,-73 534.5,-73"/>
<text text-anchor="middle" x="592.5" y="-80" font-family="Helvetica,sans-Serif" font-size="10.00">src/assets/Texture.cpp</text>
</a>
</g>
</g>
<!-- Node3&#45;&gt;Node5 -->
<g id="edge4" class="edge">
<title>Node3&#45;&gt;Node5</title>
<path fill="none" stroke="midnightblue" d="M1186.17,-140.22C1071.29,-135.45 850.59,-123.62 664.5,-98 653.38,-96.47 641.4,-94.28 630.46,-92.06"/>
<polygon fill="midnightblue" stroke="midnightblue" points="1186.14,-143.72 1196.27,-140.64 1186.43,-136.73 1186.14,-143.72"/>
</g>
<!-- Node6 -->
<g id="node6" class="node">
<title>Node6</title>
<g id="a_node6"><a xlink:href="ParticleEmitter_8cpp.html" target="_top" xlink:title="Implementation of a particle emitter. and configured.">
<polygon fill="white" stroke="black" points="809,-6 809,-25 958,-25 958,-6 809,-6"/>
<text text-anchor="middle" x="883.5" y="-13" font-family="Helvetica,sans-Serif" font-size="10.00">src/entities/ParticleEmitter.cpp</text>
</a>
</g>
</g>
<!-- Node3&#45;&gt;Node6 -->
<g id="edge5" class="edge">
<title>Node3&#45;&gt;Node6</title>
<path fill="none" stroke="midnightblue" d="M1186.12,-140.33C1100.79,-136.07 971.07,-125.21 930.5,-98 904.05,-80.26 890.62,-42.26 885.73,-25.15"/>
<polygon fill="midnightblue" stroke="midnightblue" points="1186.14,-143.83 1196.29,-140.82 1186.47,-136.84 1186.14,-143.83"/>
</g>
<!-- Node7 -->
<g id="node7" class="node">
<title>Node7</title>
<g id="a_node7"><a xlink:href="Button_8cpp.html" target="_top" xlink:title="Implementation of Button.">
<polygon fill="white" stroke="black" points="976,-6 976,-25 1101,-25 1101,-6 976,-6"/>
<text text-anchor="middle" x="1038.5" y="-13" font-family="Helvetica,sans-Serif" font-size="10.00">src/entities/ui/Button.cpp</text>
</a>
</g>
</g>
<!-- Node3&#45;&gt;Node7 -->
<g id="edge6" class="edge">
<title>Node3&#45;&gt;Node7</title>
<path fill="none" stroke="midnightblue" d="M1186.22,-143.44C1100.71,-142.06 971.72,-133.86 940.5,-98 913.84,-67.38 975.75,-38.78 1012.96,-25.04"/>
<polygon fill="midnightblue" stroke="midnightblue" points="1186.38,-146.95 1196.42,-143.58 1186.47,-139.95 1186.38,-146.95"/>
</g>
<!-- Node8 -->
<g id="node8" class="node">
<title>Node8</title>
<g id="a_node8"><a xlink:href="Checkbox_8cpp.html" target="_top" xlink:title="Implementation of UI Checkbox.">
<polygon fill="white" stroke="black" points="1119,-6 1119,-25 1258,-25 1258,-6 1119,-6"/>
<text text-anchor="middle" x="1188.5" y="-13" font-family="Helvetica,sans-Serif" font-size="10.00">src/entities/ui/Checkbox.cpp</text>
</a>
</g>
</g>
<!-- Node3&#45;&gt;Node8 -->
<g id="edge7" class="edge">
<title>Node3&#45;&gt;Node8</title>
<path fill="none" stroke="midnightblue" d="M1186.21,-143.03C1103.33,-141.19 980.41,-132.5 950.5,-98 941.48,-87.59 941.83,-77.71 950.5,-67 953.58,-63.19 1077.16,-38.39 1144.99,-25.01"/>
<polygon fill="midnightblue" stroke="midnightblue" points="1186.3,-146.53 1196.36,-143.22 1186.43,-139.53 1186.3,-146.53"/>
</g>
<!-- Node9 -->
<g id="node9" class="node">
<title>Node9</title>
<g id="a_node9"><a xlink:href="Inputbox_8cpp.html" target="_top" xlink:title="Implementation of UI Inputbox.">
<polygon fill="white" stroke="black" points="1276,-6 1276,-25 1409,-25 1409,-6 1276,-6"/>
<text text-anchor="middle" x="1342.5" y="-13" font-family="Helvetica,sans-Serif" font-size="10.00">src/entities/ui/Inputbox.cpp</text>
</a>
</g>
</g>
<!-- Node3&#45;&gt;Node9 -->
<g id="edge8" class="edge">
<title>Node3&#45;&gt;Node9</title>
<path fill="none" stroke="midnightblue" d="M1186.04,-141.43C1112.16,-138.1 1009.1,-128.03 983.5,-98 974.56,-87.52 974.39,-77.34 983.5,-67 1025.4,-19.43 1203.89,-40.95 1266.5,-31 1277.51,-29.25 1289.37,-27.11 1300.37,-25.02"/>
<polygon fill="midnightblue" stroke="midnightblue" points="1186.13,-144.94 1196.26,-141.86 1186.42,-137.95 1186.13,-144.94"/>
</g>
<!-- Node10 -->
<g id="node10" class="node">
<title>Node10</title>
<g id="a_node10"><a xlink:href="MessageBox_8cpp.html" target="_top" xlink:title="Implementation of MessageBox.">
<polygon fill="white" stroke="black" points="992.5,-73 992.5,-92 1144.5,-92 1144.5,-73 992.5,-73"/>
<text text-anchor="middle" x="1068.5" y="-80" font-family="Helvetica,sans-Serif" font-size="10.00">src/entities/ui/MessageBox.cpp</text>
</a>
</g>
</g>
<!-- Node3&#45;&gt;Node10 -->
<g id="edge9" class="edge">
<title>Node3&#45;&gt;Node10</title>
<path fill="none" stroke="midnightblue" d="M1226.71,-131.53C1188.62,-119.96 1130.71,-102.38 1096.53,-92.01"/>
<polygon fill="midnightblue" stroke="midnightblue" points="1225.83,-134.92 1236.42,-134.48 1227.87,-128.22 1225.83,-134.92"/>
</g>
<!-- Node11 -->
<g id="node11" class="node">
<title>Node11</title>
<g id="a_node11"><a xlink:href="UIElement_8cpp.html" target="_top" xlink:title="Implementation of UIElement.">
<polygon fill="white" stroke="black" points="1688.5,-6 1688.5,-25 1830.5,-25 1830.5,-6 1688.5,-6"/>
<text text-anchor="middle" x="1759.5" y="-13" font-family="Helvetica,sans-Serif" font-size="10.00">src/entities/ui/UIElement.cpp</text>
</a>
</g>
</g>
<!-- Node3&#45;&gt;Node11 -->
<g id="edge10" class="edge">
<title>Node3&#45;&gt;Node11</title>
<path fill="none" stroke="midnightblue" d="M1342.97,-141.85C1552.38,-138.41 2110.36,-126.58 2137.5,-98 2146.99,-88.01 2146.57,-77.37 2137.5,-67 2117.63,-44.3 1934.47,-28.33 1830.59,-21.01"/>
<polygon fill="midnightblue" stroke="midnightblue" points="1342.61,-138.36 1332.67,-142.02 1342.73,-145.36 1342.61,-138.36"/>
</g>
<!-- Node12 -->
<g id="node12" class="node">
<title>Node12</title>
<g id="a_node12"><a xlink:href="Game_8cpp.html" target="_top" xlink:title="Implementation of Game.">
<polygon fill="white" stroke="black" points="1163,-73 1163,-92 1240,-92 1240,-73 1163,-73"/>
<text text-anchor="middle" x="1201.5" y="-80" font-family="Helvetica,sans-Serif" font-size="10.00">src/Game.cpp</text>
</a>
</g>
</g>
<!-- Node3&#45;&gt;Node12 -->
<g id="edge11" class="edge">
<title>Node3&#45;&gt;Node12</title>
<path fill="none" stroke="midnightblue" d="M1247.9,-127.32C1235.93,-116.02 1220.23,-101.19 1210.51,-92.01"/>
<polygon fill="midnightblue" stroke="midnightblue" points="1245.8,-130.15 1255.47,-134.48 1250.61,-125.06 1245.8,-130.15"/>
</g>
<!-- Node13 -->
<g id="node13" class="node">
<title>Node13</title>
<g id="a_node13"><a xlink:href="Primitives_8cpp.html" target="_top" xlink:title="Implementation of Primitives namespace helpers.">
<polygon fill="white" stroke="black" points="1258.5,-73 1258.5,-92 1398.5,-92 1398.5,-73 1258.5,-73"/>
<text text-anchor="middle" x="1328.5" y="-80" font-family="Helvetica,sans-Serif" font-size="10.00">src/primitives/Primitives.cpp</text>
</a>
</g>
</g>
<!-- Node3&#45;&gt;Node13 -->
<g id="edge12" class="edge">
<title>Node3&#45;&gt;Node13</title>
<path fill="none" stroke="midnightblue" d="M1281.01,-127.65C1293.21,-116.31 1309.37,-101.28 1319.35,-92.01"/>
<polygon fill="midnightblue" stroke="midnightblue" points="1278.61,-125.1 1273.67,-134.48 1283.38,-130.23 1278.61,-125.1"/>
</g>
<!-- Node14 -->
<g id="node14" class="node">
<title>Node14</title>
<g id="a_node14"><a xlink:href="AssetService_8cpp_source.html" target="_top" xlink:title=" ">
<polygon fill="white" stroke="black" points="1416.5,-67.5 1416.5,-97.5 1518.5,-97.5 1518.5,-67.5 1416.5,-67.5"/>
<text text-anchor="start" x="1424.5" y="-85.5" font-family="Helvetica,sans-Serif" font-size="10.00">src/services/assets</text>
<text text-anchor="middle" x="1467.5" y="-74.5" font-family="Helvetica,sans-Serif" font-size="10.00">/AssetService.cpp</text>
</a>
</g>
</g>
<!-- Node3&#45;&gt;Node14 -->
<g id="edge13" class="edge">
<title>Node3&#45;&gt;Node14</title>
<path fill="none" stroke="midnightblue" d="M1303.36,-131.61C1336.48,-121.9 1384.2,-107.92 1419.66,-97.52"/>
<polygon fill="midnightblue" stroke="midnightblue" points="1302.2,-128.3 1293.58,-134.48 1304.17,-135.02 1302.2,-128.3"/>
</g>
<!-- Node15 -->
<g id="node15" class="node">
<title>Node15</title>
<g id="a_node15"><a xlink:href="AudioService_8cpp.html" target="_top" xlink:title="Implementation of AudioService.">
<polygon fill="white" stroke="black" points="1536.5,-67.5 1536.5,-97.5 1632.5,-97.5 1632.5,-67.5 1536.5,-67.5"/>
<text text-anchor="start" x="1544.5" y="-85.5" font-family="Helvetica,sans-Serif" font-size="10.00">src/services/audio</text>
<text text-anchor="middle" x="1584.5" y="-74.5" font-family="Helvetica,sans-Serif" font-size="10.00">/AudioService.cpp</text>
</a>
</g>
</g>
<!-- Node3&#45;&gt;Node15 -->
<g id="edge14" class="edge">
<title>Node3&#45;&gt;Node15</title>
<path fill="none" stroke="midnightblue" d="M1332.22,-132.93C1385.51,-124.64 1461.52,-112.01 1527.5,-98 1530.4,-97.38 1533.37,-96.72 1536.36,-96.03"/>
<polygon fill="midnightblue" stroke="midnightblue" points="1331.56,-129.49 1322.21,-134.48 1332.63,-136.41 1331.56,-129.49"/>
</g>
<!-- Node16 -->
<g id="node16" class="node">
<title>Node16</title>
<g id="a_node16"><a xlink:href="ConfigService_8cpp.html" target="_top" xlink:title="Implementation of default Config Service.">
<polygon fill="white" stroke="black" points="1650.5,-67.5 1650.5,-97.5 1748.5,-97.5 1748.5,-67.5 1650.5,-67.5"/>
<text text-anchor="start" x="1658.5" y="-85.5" font-family="Helvetica,sans-Serif" font-size="10.00">src/services/config</text>
<text text-anchor="middle" x="1699.5" y="-74.5" font-family="Helvetica,sans-Serif" font-size="10.00">/ConfigService.cpp</text>
</a>
</g>
</g>
<!-- Node3&#45;&gt;Node16 -->
<g id="edge15" class="edge">
<title>Node3&#45;&gt;Node16</title>
<path fill="none" stroke="midnightblue" d="M1342.7,-136.57C1419.24,-129.59 1538.97,-116.86 1641.5,-98 1644.36,-97.47 1647.29,-96.89 1650.23,-96.27"/>
<polygon fill="midnightblue" stroke="midnightblue" points="1342.3,-133.09 1332.65,-137.47 1342.92,-140.06 1342.3,-133.09"/>
</g>
<!-- Node17 -->
<g id="node17" class="node">
<title>Node17</title>
<g id="a_node17"><a xlink:href="DisplayService_8cpp.html" target="_top" xlink:title="Implementation of DisplayService.">
<polygon fill="white" stroke="black" points="1979,-0.5 1979,-30.5 2082,-30.5 2082,-0.5 1979,-0.5"/>
<text text-anchor="start" x="1987" y="-18.5" font-family="Helvetica,sans-Serif" font-size="10.00">src/services/display</text>
<text text-anchor="middle" x="2030.5" y="-7.5" font-family="Helvetica,sans-Serif" font-size="10.00">/DisplayService.cpp</text>
</a>
</g>
</g>
<!-- Node3&#45;&gt;Node17 -->
<g id="edge16" class="edge">
<title>Node3&#45;&gt;Node17</title>
<path fill="none" stroke="midnightblue" d="M1342.68,-141.94C1554.71,-138.68 2126.74,-127.2 2154.5,-98 2182.81,-68.22 2127.71,-43.91 2082.14,-29.82"/>
<polygon fill="midnightblue" stroke="midnightblue" points="1342.5,-138.44 1332.55,-142.09 1342.6,-145.44 1342.5,-138.44"/>
</g>
<!-- Node18 -->
<g id="node18" class="node">
<title>Node18</title>
<g id="a_node18"><a xlink:href="EventQueue_8cpp.html" target="_top" xlink:title="Implementation of EventQueue.">
<polygon fill="white" stroke="black" points="1766.5,-67.5 1766.5,-97.5 1868.5,-97.5 1868.5,-67.5 1766.5,-67.5"/>
<text text-anchor="start" x="1774.5" y="-85.5" font-family="Helvetica,sans-Serif" font-size="10.00">src/services/events</text>
<text text-anchor="middle" x="1817.5" y="-74.5" font-family="Helvetica,sans-Serif" font-size="10.00">/EventQueue.cpp</text>
</a>
</g>
</g>
<!-- Node3&#45;&gt;Node18 -->
<g id="edge17" class="edge">
<title>Node3&#45;&gt;Node18</title>
<path fill="none" stroke="midnightblue" d="M1342.76,-139.39C1440.38,-134.08 1612.14,-122.07 1757.5,-98 1760.35,-97.53 1763.27,-96.99 1766.21,-96.42"/>
<polygon fill="midnightblue" stroke="midnightblue" points="1342.48,-135.9 1332.68,-139.93 1342.86,-142.89 1342.48,-135.9"/>
</g>
<!-- Node19 -->
<g id="node19" class="node">
<title>Node19</title>
<g id="a_node19"><a xlink:href="InputService_8cpp.html" target="_top" xlink:title="Implementation of InputService. Handles mouse, keyboard and joystick.">
<polygon fill="white" stroke="black" points="1886.5,-67.5 1886.5,-97.5 1980.5,-97.5 1980.5,-67.5 1886.5,-67.5"/>
<text text-anchor="start" x="1894.5" y="-85.5" font-family="Helvetica,sans-Serif" font-size="10.00">src/services/input</text>
<text text-anchor="middle" x="1933.5" y="-74.5" font-family="Helvetica,sans-Serif" font-size="10.00">/InputService.cpp</text>
</a>
</g>
</g>
<!-- Node3&#45;&gt;Node19 -->
<g id="edge18" class="edge">
<title>Node3&#45;&gt;Node19</title>
<path fill="none" stroke="midnightblue" d="M1342.84,-141.75C1459.92,-138.87 1687.14,-129.37 1877.5,-98 1880.37,-97.53 1883.31,-96.97 1886.27,-96.37"/>
<polygon fill="midnightblue" stroke="midnightblue" points="1342.46,-138.26 1332.55,-142 1342.63,-145.26 1342.46,-138.26"/>
</g>
<!-- Node20 -->
<g id="node20" class="node">
<title>Node20</title>
<g id="a_node20"><a xlink:href="Services_8cpp_source.html" target="_top" xlink:title=" ">
<polygon fill="white" stroke="black" points="1999,-73 1999,-92 2128,-92 2128,-73 1999,-73"/>
<text text-anchor="middle" x="2063.5" y="-80" font-family="Helvetica,sans-Serif" font-size="10.00">src/services/Services.cpp</text>
</a>
</g>
</g>
<!-- Node3&#45;&gt;Node20 -->
<g id="edge20" class="edge">
<title>Node3&#45;&gt;Node20</title>
<path fill="none" stroke="midnightblue" d="M1342.87,-141.51C1476.19,-138.22 1755.44,-128.06 1989.5,-98 2001.06,-96.52 2013.52,-94.31 2024.87,-92.07"/>
<polygon fill="midnightblue" stroke="midnightblue" points="1342.66,-138.01 1332.75,-141.75 1342.83,-145.01 1342.66,-138.01"/>
</g>
<!-- Node21 -->
<g id="node21" class="node">
<title>Node21</title>
<g id="a_node21"><a xlink:href="Scene_8h.html" target="_top" xlink:title="Parent scene class. Children can be added to scene manager.">
<polygon fill="white" stroke="black" points="707,-73 707,-92 822,-92 822,-73 707,-73"/>
<text text-anchor="middle" x="764.5" y="-80" font-family="Helvetica,sans-Serif" font-size="10.00">include/scene/Scene.h</text>
</a>
</g>
</g>
<!-- Node3&#45;&gt;Node21 -->
<g id="edge21" class="edge">
<title>Node3&#45;&gt;Node21</title>
<path fill="none" stroke="midnightblue" d="M1186.21,-136.99C1100.18,-129.87 958.04,-116.59 836.5,-98 825.79,-96.36 814.25,-94.21 803.62,-92.07"/>
<polygon fill="midnightblue" stroke="midnightblue" points="1186.17,-140.5 1196.42,-137.83 1186.74,-133.52 1186.17,-140.5"/>
</g>
<!-- Node21&#45;&gt;Node2 -->
<g id="edge33" class="edge">
<title>Node21&#45;&gt;Node2</title>
<path fill="none" stroke="midnightblue" d="M717.4,-71.05C709.13,-69.49 700.59,-68.06 692.5,-67 434.21,-33.21 364.94,-70.76 107.5,-31 104.73,-30.57 101.9,-30.07 99.05,-29.52"/>
<polygon fill="midnightblue" stroke="midnightblue" points="716.81,-74.5 727.29,-72.99 718.16,-67.63 716.81,-74.5"/>
</g>
<!-- Node21&#45;&gt;Node6 -->
<g id="edge24" class="edge">
<title>Node21&#45;&gt;Node6</title>
<path fill="none" stroke="midnightblue" d="M789.61,-67.79C813.19,-54.9 847.76,-36.02 867.71,-25.13"/>
<polygon fill="midnightblue" stroke="midnightblue" points="787.65,-64.87 780.55,-72.73 791,-71.01 787.65,-64.87"/>
</g>
<!-- Node21&#45;&gt;Node7 -->
<g id="edge26" class="edge">
<title>Node21&#45;&gt;Node7</title>
<path fill="none" stroke="midnightblue" d="M810.6,-70.56C864.62,-57.75 952.99,-36.78 1002.32,-25.08"/>
<polygon fill="midnightblue" stroke="midnightblue" points="809.52,-67.22 800.6,-72.94 811.14,-74.03 809.52,-67.22"/>
</g>
<!-- Node21&#45;&gt;Node8 -->
<g id="edge27" class="edge">
<title>Node21&#45;&gt;Node8</title>
<path fill="none" stroke="midnightblue" d="M832.25,-72.32C901.9,-62.71 1013.43,-46.84 1109.5,-31 1120.51,-29.18 1132.35,-27.09 1143.43,-25.06"/>
<polygon fill="midnightblue" stroke="midnightblue" points="831.71,-68.86 822.28,-73.69 832.67,-75.8 831.71,-68.86"/>
</g>
<!-- Node21&#45;&gt;Node9 -->
<g id="edge29" class="edge">
<title>Node21&#45;&gt;Node9</title>
<path fill="none" stroke="midnightblue" d="M832.52,-76.57C929.26,-69.13 1111.99,-53.47 1266.5,-31 1277.8,-29.36 1289.97,-27.21 1301.2,-25.07"/>
<polygon fill="midnightblue" stroke="midnightblue" points="832,-73.1 822.3,-77.35 832.53,-80.08 832,-73.1"/>
</g>
<!-- Node21&#45;&gt;Node11 -->
<g id="edge30" class="edge">
<title>Node21&#45;&gt;Node11</title>
<path fill="none" stroke="midnightblue" d="M832.26,-76.99C875.53,-74.12 932.81,-70.33 983.5,-67 1243.17,-49.95 1551.73,-29.95 1688.35,-21.1"/>
<polygon fill="midnightblue" stroke="midnightblue" points="831.88,-73.51 822.14,-77.67 832.35,-80.5 831.88,-73.51"/>
</g>
<!-- Node21&#45;&gt;Node17 -->
<g id="edge32" class="edge">
<title>Node21&#45;&gt;Node17</title>
<path fill="none" stroke="midnightblue" d="M832.24,-76.59C875.49,-73.56 932.78,-69.75 983.5,-67 1363.72,-46.42 1459.38,-53.42 1839.5,-31 1886.64,-28.22 1940.25,-24.06 1978.65,-20.91"/>
<polygon fill="midnightblue" stroke="midnightblue" points="831.84,-73.11 822.11,-77.31 832.34,-80.09 831.84,-73.11"/>
</g>
<!-- Node22 -->
<g id="node22" class="node">
<title>Node22</title>
<g id="a_node22"><a xlink:href="GameObject_8cpp_source.html" target="_top" xlink:title=" ">
<polygon fill="white" stroke="black" points="513.5,-6 513.5,-25 653.5,-25 653.5,-6 513.5,-6"/>
<text text-anchor="middle" x="583.5" y="-13" font-family="Helvetica,sans-Serif" font-size="10.00">src/entities/GameObject.cpp</text>
</a>
</g>
</g>
<!-- Node21&#45;&gt;Node22 -->
<g id="edge22" class="edge">
<title>Node21&#45;&gt;Node22</title>
<path fill="none" stroke="midnightblue" d="M730.91,-69.44C695,-56.54 638.98,-36.42 607.35,-25.06"/>
<polygon fill="midnightblue" stroke="midnightblue" points="729.87,-72.78 740.46,-72.87 732.24,-66.19 729.87,-72.78"/>
</g>
<!-- Node23 -->
<g id="node23" class="node">
<title>Node23</title>
<g id="a_node23"><a xlink:href="Particle_8cpp.html" target="_top" xlink:title="Implementation of Particle.">
<polygon fill="white" stroke="black" points="672,-6 672,-25 791,-25 791,-6 672,-6"/>
<text text-anchor="middle" x="731.5" y="-13" font-family="Helvetica,sans-Serif" font-size="10.00">src/entities/Particle.cpp</text>
</a>
</g>
</g>
<!-- Node21&#45;&gt;Node23 -->
<g id="edge23" class="edge">
<title>Node21&#45;&gt;Node23</title>
<path fill="none" stroke="midnightblue" d="M755.44,-63.66C749.08,-51.13 740.85,-34.91 735.88,-25.13"/>
<polygon fill="midnightblue" stroke="midnightblue" points="752.4,-65.4 760.05,-72.73 758.64,-62.23 752.4,-65.4"/>
</g>
<!-- Node24 -->
<g id="node24" class="node">
<title>Node24</title>
<g id="a_node24"><a xlink:href="Sprite_8cpp.html" target="_top" xlink:title="Implementation of Sprite.">
<polygon fill="white" stroke="black" points="117,-6 117,-25 228,-25 228,-6 117,-6"/>
<text text-anchor="middle" x="172.5" y="-13" font-family="Helvetica,sans-Serif" font-size="10.00">src/entities/Sprite.cpp</text>
</a>
</g>
</g>
<!-- Node21&#45;&gt;Node24 -->
<g id="edge25" class="edge">
<title>Node21&#45;&gt;Node24</title>
<path fill="none" stroke="midnightblue" d="M716.56,-71.01C708.56,-69.5 700.31,-68.09 692.5,-67 491.16,-38.88 437.49,-61.54 236.5,-31 226.48,-29.48 215.69,-27.26 205.87,-25.02"/>
<polygon fill="midnightblue" stroke="midnightblue" points="716.05,-74.48 726.53,-72.97 717.39,-67.61 716.05,-74.48"/>
</g>
<!-- Node25 -->
<g id="node25" class="node">
<title>Node25</title>
<g id="a_node25"><a xlink:href="Image_8cpp.html" target="_top" xlink:title="Texturable ui element.">
<polygon fill="white" stroke="black" points="246,-6 246,-25 369,-25 369,-6 246,-6"/>
<text text-anchor="middle" x="307.5" y="-13" font-family="Helvetica,sans-Serif" font-size="10.00">src/entities/ui/Image.cpp</text>
</a>
</g>
</g>
<!-- Node21&#45;&gt;Node25 -->
<g id="edge28" class="edge">
<title>Node21&#45;&gt;Node25</title>
<path fill="none" stroke="midnightblue" d="M715.45,-71.05C707.79,-69.58 699.94,-68.17 692.5,-67 553.75,-45.11 517.22,-53.07 378.5,-31 367.94,-29.32 356.56,-27.16 346.08,-25.02"/>
<polygon fill="midnightblue" stroke="midnightblue" points="714.89,-74.5 725.37,-72.99 716.23,-67.63 714.89,-74.5"/>
</g>
<!-- Node26 -->
<g id="node26" class="node">
<title>Node26</title>
<g id="a_node26"><a xlink:href="Scene_8cpp.html" target="_top" xlink:title="Implementation of Scene class.">
<polygon fill="white" stroke="black" points="387.5,-6 387.5,-25 495.5,-25 495.5,-6 387.5,-6"/>
<text text-anchor="middle" x="441.5" y="-13" font-family="Helvetica,sans-Serif" font-size="10.00">src/scene/Scene.cpp</text>
</a>
</g>
</g>
<!-- Node21&#45;&gt;Node26 -->
<g id="edge31" class="edge">
<title>Node21&#45;&gt;Node26</title>
<path fill="none" stroke="midnightblue" d="M712.76,-71.02C705.95,-69.66 699.06,-68.29 692.5,-67 609.02,-50.6 587.75,-48.54 504.5,-31 495.71,-29.15 486.27,-27.04 477.43,-25.01"/>
<polygon fill="midnightblue" stroke="midnightblue" points="712.14,-74.46 722.63,-73 713.52,-67.6 712.14,-74.46"/>
</g>
</g>
</svg>
