<?xml version="1.0" encoding="UTF-8" standalone="no"?>
<!DOCTYPE svg PUBLIC "-//W3C//DTD SVG 1.1//EN"
 "http://www.w3.org/Graphics/SVG/1.1/DTD/svg11.dtd">
<!-- Generated by graphviz version 2.46.1 (20210215.1649)
 -->
<!-- Title: include/scene/Scene.h Pages: 1 -->
<svg width="2050pt" height="308pt"
 viewBox="0.00 0.00 2049.50 308.00" xmlns="http://www.w3.org/2000/svg" xmlns:xlink="http://www.w3.org/1999/xlink">
<g id="graph0" class="graph" transform="scale(1 1) rotate(0) translate(4 304)">
<title>include/scene/Scene.h</title>
<polygon fill="white" stroke="transparent" points="-4,4 -4,-304 2045.5,-304 2045.5,4 -4,4"/>
<!-- Node1 -->
<g id="node1" class="node">
<title>Node1</title>
<g id="a_node1"><a xlink:title="Parent scene class. Children can be added to scene manager.">
<polygon fill="#bfbfbf" stroke="black" points="1568.5,-280.5 1568.5,-299.5 1683.5,-299.5 1683.5,-280.5 1568.5,-280.5"/>
<text text-anchor="middle" x="1626" y="-287.5" font-family="Helvetica,sans-Serif" font-size="10.00">include/scene/Scene.h</text>
</a>
</g>
</g>
<!-- Node2 -->
<g id="node2" class="node">
<title>Node2</title>
<g id="a_node2"><a xlink:title=" ">
<polygon fill="white" stroke="#bfbfbf" points="1358.5,-112.5 1358.5,-131.5 1393.5,-131.5 1393.5,-112.5 1358.5,-112.5"/>
<text text-anchor="middle" x="1376" y="-119.5" font-family="Helvetica,sans-Serif" font-size="10.00">map</text>
</a>
</g>
</g>
<!-- Node1&#45;&gt;Node2 -->
<g id="edge1" class="edge">
<title>Node1&#45;&gt;Node2</title>
<path fill="none" stroke="midnightblue" d="M1570.91,-280.5C1484.55,-265.91 1323.67,-233.27 1290,-188 1270.75,-162.12 1316.4,-141.62 1348.29,-130.99"/>
<polygon fill="midnightblue" stroke="midnightblue" points="1349.58,-134.26 1358.06,-127.9 1347.47,-127.58 1349.58,-134.26"/>
</g>
<!-- Node3 -->
<g id="node3" class="node">
<title>Node3</title>
<g id="a_node3"><a xlink:title=" ">
<polygon fill="white" stroke="#bfbfbf" points="1430.5,-168.5 1430.5,-187.5 1481.5,-187.5 1481.5,-168.5 1430.5,-168.5"/>
<text text-anchor="middle" x="1456" y="-175.5" font-family="Helvetica,sans-Serif" font-size="10.00">memory</text>
</a>
</g>
</g>
<!-- Node1&#45;&gt;Node3 -->
<g id="edge2" class="edge">
<title>Node1&#45;&gt;Node3</title>
<path fill="none" stroke="midnightblue" d="M1612.66,-280.37C1583.49,-261.49 1513.78,-216.38 1478,-193.24"/>
<polygon fill="midnightblue" stroke="midnightblue" points="1479.57,-190.09 1469.28,-187.59 1475.77,-195.96 1479.57,-190.09"/>
</g>
<!-- Node4 -->
<g id="node4" class="node">
<title>Node4</title>
<g id="a_node4"><a xlink:title=" ">
<polygon fill="white" stroke="#bfbfbf" points="1252.5,-56.5 1252.5,-75.5 1293.5,-75.5 1293.5,-56.5 1252.5,-56.5"/>
<text text-anchor="middle" x="1273" y="-63.5" font-family="Helvetica,sans-Serif" font-size="10.00">string</text>
</a>
</g>
</g>
<!-- Node1&#45;&gt;Node4 -->
<g id="edge3" class="edge">
<title>Node1&#45;&gt;Node4</title>
<path fill="none" stroke="midnightblue" d="M1683.73,-289.54C1766.52,-288.95 1912.69,-282.32 1946,-244 1959.07,-228.97 1951.22,-191.56 1933,-168 1855.03,-67.19 1424.08,-65.04 1304.04,-66.44"/>
<polygon fill="midnightblue" stroke="midnightblue" points="1303.68,-62.95 1293.73,-66.58 1303.78,-69.95 1303.68,-62.95"/>
</g>
<!-- Node5 -->
<g id="node5" class="node">
<title>Node5</title>
<g id="a_node5"><a xlink:title=" ">
<polygon fill="white" stroke="#bfbfbf" points="2002.5,-224.5 2002.5,-243.5 2041.5,-243.5 2041.5,-224.5 2002.5,-224.5"/>
<text text-anchor="middle" x="2022" y="-231.5" font-family="Helvetica,sans-Serif" font-size="10.00">utility</text>
</a>
</g>
</g>
<!-- Node1&#45;&gt;Node5 -->
<g id="edge4" class="edge">
<title>Node1&#45;&gt;Node5</title>
<path fill="none" stroke="midnightblue" d="M1683.75,-284.25C1755.51,-277.78 1881.52,-264.61 1988,-244 1989.46,-243.72 1990.95,-243.41 1992.45,-243.08"/>
<polygon fill="midnightblue" stroke="midnightblue" points="1993.43,-246.44 2002.33,-240.69 1991.79,-239.64 1993.43,-246.44"/>
</g>
<!-- Node6 -->
<g id="node6" class="node">
<title>Node6</title>
<g id="a_node6"><a xlink:title=" ">
<polygon fill="white" stroke="#bfbfbf" points="1482,-112.5 1482,-131.5 1526,-131.5 1526,-112.5 1482,-112.5"/>
<text text-anchor="middle" x="1504" y="-119.5" font-family="Helvetica,sans-Serif" font-size="10.00">vector</text>
</a>
</g>
</g>
<!-- Node1&#45;&gt;Node6 -->
<g id="edge5" class="edge">
<title>Node1&#45;&gt;Node6</title>
<path fill="none" stroke="midnightblue" d="M1629.37,-280.39C1637.11,-259.08 1653.65,-203.07 1629,-168 1608.21,-138.42 1566.02,-128.19 1536.42,-124.71"/>
<polygon fill="midnightblue" stroke="midnightblue" points="1536.45,-121.19 1526.15,-123.71 1535.77,-128.16 1536.45,-121.19"/>
</g>
<!-- Node7 -->
<g id="node7" class="node">
<title>Node7</title>
<g id="a_node7"><a xlink:href="Exceptions_8h.html" target="_top" xlink:title="Interally used exceptions. These can be handled properly in the main game class.">
<polygon fill="white" stroke="black" points="1818.5,-224.5 1818.5,-243.5 1937.5,-243.5 1937.5,-224.5 1818.5,-224.5"/>
<text text-anchor="middle" x="1878" y="-231.5" font-family="Helvetica,sans-Serif" font-size="10.00">../common/Exceptions.h</text>
</a>
</g>
</g>
<!-- Node1&#45;&gt;Node7 -->
<g id="edge6" class="edge">
<title>Node1&#45;&gt;Node7</title>
<path fill="none" stroke="midnightblue" d="M1665.93,-280.44C1709.89,-271.02 1780.63,-255.87 1828.18,-245.68"/>
<polygon fill="midnightblue" stroke="midnightblue" points="1829.21,-249.03 1838.26,-243.52 1827.75,-242.19 1829.21,-249.03"/>
</g>
<!-- Node9 -->
<g id="node9" class="node">
<title>Node9</title>
<g id="a_node9"><a xlink:href="GameObject_8h.html" target="_top" xlink:title="Implementation of GameObject class.">
<polygon fill="white" stroke="black" points="1499.5,-168.5 1499.5,-187.5 1620.5,-187.5 1620.5,-168.5 1499.5,-168.5"/>
<text text-anchor="middle" x="1560" y="-175.5" font-family="Helvetica,sans-Serif" font-size="10.00">../entities/GameObject.h</text>
</a>
</g>
</g>
<!-- Node1&#45;&gt;Node9 -->
<g id="edge9" class="edge">
<title>Node1&#45;&gt;Node9</title>
<path fill="none" stroke="midnightblue" d="M1620.82,-280.37C1609.98,-262.3 1584.71,-220.18 1570.38,-196.31"/>
<polygon fill="midnightblue" stroke="midnightblue" points="1573.3,-194.37 1565.15,-187.59 1567.3,-197.97 1573.3,-194.37"/>
</g>
<!-- Node11 -->
<g id="node11" class="node">
<title>Node11</title>
<g id="a_node11"><a xlink:href="Services_8h.html" target="_top" xlink:title="Implementation of core Services class.">
<polygon fill="white" stroke="black" points="1067,-224.5 1067,-243.5 1177,-243.5 1177,-224.5 1067,-224.5"/>
<text text-anchor="middle" x="1122" y="-231.5" font-family="Helvetica,sans-Serif" font-size="10.00">../services/Services.h</text>
</a>
</g>
</g>
<!-- Node1&#45;&gt;Node11 -->
<g id="edge13" class="edge">
<title>Node1&#45;&gt;Node11</title>
<path fill="none" stroke="midnightblue" d="M1568.18,-282.81C1473.66,-272.68 1286.66,-252.64 1187.42,-242.01"/>
<polygon fill="midnightblue" stroke="midnightblue" points="1187.54,-238.5 1177.22,-240.92 1186.79,-245.46 1187.54,-238.5"/>
</g>
<!-- Node7&#45;&gt;Node4 -->
<g id="edge8" class="edge">
<title>Node7&#45;&gt;Node4</title>
<path fill="none" stroke="midnightblue" d="M1889.44,-224.47C1905.12,-211.73 1929.85,-187.18 1916,-168 1869.68,-103.85 1824.43,-128.29 1747,-112 1582.39,-77.38 1379.98,-69.36 1303.87,-67.53"/>
<polygon fill="midnightblue" stroke="midnightblue" points="1303.65,-64.03 1293.57,-67.31 1303.49,-71.03 1303.65,-64.03"/>
</g>
<!-- Node8 -->
<g id="node8" class="node">
<title>Node8</title>
<g id="a_node8"><a xlink:title=" ">
<polygon fill="white" stroke="#bfbfbf" points="1848.5,-168.5 1848.5,-187.5 1907.5,-187.5 1907.5,-168.5 1848.5,-168.5"/>
<text text-anchor="middle" x="1878" y="-175.5" font-family="Helvetica,sans-Serif" font-size="10.00">stdexcept</text>
</a>
</g>
</g>
<!-- Node7&#45;&gt;Node8 -->
<g id="edge7" class="edge">
<title>Node7&#45;&gt;Node8</title>
<path fill="none" stroke="midnightblue" d="M1878,-224.08C1878,-217.01 1878,-206.86 1878,-197.99"/>
<polygon fill="midnightblue" stroke="midnightblue" points="1881.5,-197.75 1878,-187.75 1874.5,-197.75 1881.5,-197.75"/>
</g>
<!-- Node9&#45;&gt;Node4 -->
<g id="edge11" class="edge">
<title>Node9&#45;&gt;Node4</title>
<path fill="none" stroke="midnightblue" d="M1561.82,-168.49C1564.25,-154.64 1566.67,-127.23 1552,-112 1518.23,-76.94 1369.15,-69.19 1303.84,-67.48"/>
<polygon fill="midnightblue" stroke="midnightblue" points="1303.82,-63.98 1293.74,-67.25 1303.66,-70.98 1303.82,-63.98"/>
</g>
<!-- Node9&#45;&gt;Node6 -->
<g id="edge12" class="edge">
<title>Node9&#45;&gt;Node6</title>
<path fill="none" stroke="midnightblue" d="M1551,-168.32C1542.81,-160.42 1530.49,-148.55 1520.53,-138.94"/>
<polygon fill="midnightblue" stroke="midnightblue" points="1522.79,-136.26 1513.16,-131.83 1517.93,-141.29 1522.79,-136.26"/>
</g>
<!-- Node10 -->
<g id="node10" class="node">
<title>Node10</title>
<g id="a_node10"><a xlink:title=" ">
<polygon fill="white" stroke="#bfbfbf" points="588.5,-56.5 588.5,-75.5 659.5,-75.5 659.5,-56.5 588.5,-56.5"/>
<text text-anchor="middle" x="624" y="-63.5" font-family="Helvetica,sans-Serif" font-size="10.00">SDL2/SDL.h</text>
</a>
</g>
</g>
<!-- Node9&#45;&gt;Node10 -->
<g id="edge10" class="edge">
<title>Node9&#45;&gt;Node10</title>
<path fill="none" stroke="midnightblue" d="M1499.33,-168.89C1496.18,-168.56 1493.05,-168.26 1490,-168 1401.13,-160.31 769.48,-168.29 688,-132 665.26,-121.87 646.32,-99.68 635.09,-84.06"/>
<polygon fill="midnightblue" stroke="midnightblue" points="637.94,-82.02 629.39,-75.76 632.16,-85.98 637.94,-82.02"/>
</g>
<!-- Node11&#45;&gt;Node3 -->
<g id="edge14" class="edge">
<title>Node11&#45;&gt;Node3</title>
<path fill="none" stroke="midnightblue" d="M1177.13,-226.42C1235.23,-219.1 1329.58,-206.13 1420.53,-187.9"/>
<polygon fill="midnightblue" stroke="midnightblue" points="1421.35,-191.31 1430.46,-185.89 1419.96,-184.45 1421.35,-191.31"/>
</g>
<!-- Node12 -->
<g id="node12" class="node">
<title>Node12</title>
<g id="a_node12"><a xlink:href="AssetService_8h.html" target="_top" xlink:title="Implementation of AssetService.">
<polygon fill="white" stroke="black" points="869.5,-168.5 869.5,-187.5 984.5,-187.5 984.5,-168.5 869.5,-168.5"/>
<text text-anchor="middle" x="927" y="-175.5" font-family="Helvetica,sans-Serif" font-size="10.00">assets/AssetService.h</text>
</a>
</g>
</g>
<!-- Node11&#45;&gt;Node12 -->
<g id="edge15" class="edge">
<title>Node11&#45;&gt;Node12</title>
<path fill="none" stroke="midnightblue" d="M1091.1,-224.44C1057.73,-215.2 1004.41,-200.44 967.65,-190.26"/>
<polygon fill="midnightblue" stroke="midnightblue" points="968.33,-186.81 957.75,-187.52 966.46,-193.56 968.33,-186.81"/>
</g>
<!-- Node21 -->
<g id="node21" class="node">
<title>Node21</title>
<g id="a_node21"><a xlink:href="AudioService_8h.html" target="_top" xlink:title="Default audio service, can actually play audio.">
<polygon fill="white" stroke="black" points="1003,-168.5 1003,-187.5 1111,-187.5 1111,-168.5 1003,-168.5"/>
<text text-anchor="middle" x="1057" y="-175.5" font-family="Helvetica,sans-Serif" font-size="10.00">audio/AudioService.h</text>
</a>
</g>
</g>
<!-- Node11&#45;&gt;Node21 -->
<g id="edge33" class="edge">
<title>Node11&#45;&gt;Node21</title>
<path fill="none" stroke="midnightblue" d="M1111.56,-224.32C1101.85,-216.26 1087.18,-204.08 1075.5,-194.37"/>
<polygon fill="midnightblue" stroke="midnightblue" points="1077.56,-191.53 1067.63,-187.83 1073.09,-196.92 1077.56,-191.53"/>
</g>
<!-- Node22 -->
<g id="node22" class="node">
<title>Node22</title>
<g id="a_node22"><a xlink:href="ConfigService_8h.html" target="_top" xlink:title="Header for default Config Service.">
<polygon fill="white" stroke="black" points="1299.5,-168.5 1299.5,-187.5 1412.5,-187.5 1412.5,-168.5 1299.5,-168.5"/>
<text text-anchor="middle" x="1356" y="-175.5" font-family="Helvetica,sans-Serif" font-size="10.00">config/ConfigService.h</text>
</a>
</g>
</g>
<!-- Node11&#45;&gt;Node22 -->
<g id="edge37" class="edge">
<title>Node11&#45;&gt;Node22</title>
<path fill="none" stroke="midnightblue" d="M1159.08,-224.44C1199.73,-215.06 1265.03,-199.99 1309.18,-189.8"/>
<polygon fill="midnightblue" stroke="midnightblue" points="1310.14,-193.18 1319.1,-187.52 1308.56,-186.35 1310.14,-193.18"/>
</g>
<!-- Node24 -->
<g id="node24" class="node">
<title>Node24</title>
<g id="a_node24"><a xlink:href="DisplayService_8h.html" target="_top" xlink:title="Service that encapsulates SDL display related functionality.">
<polygon fill="white" stroke="black" points="605,-168.5 605,-187.5 727,-187.5 727,-168.5 605,-168.5"/>
<text text-anchor="middle" x="666" y="-175.5" font-family="Helvetica,sans-Serif" font-size="10.00">display/DisplayService.h</text>
</a>
</g>
</g>
<!-- Node11&#45;&gt;Node24 -->
<g id="edge41" class="edge">
<title>Node11&#45;&gt;Node24</title>
<path fill="none" stroke="midnightblue" d="M1067,-226.49C984.34,-216.7 828.11,-198.2 736.97,-187.4"/>
<polygon fill="midnightblue" stroke="midnightblue" points="737.35,-183.92 727.01,-186.22 736.53,-190.88 737.35,-183.92"/>
</g>
<!-- Node27 -->
<g id="node27" class="node">
<title>Node27</title>
<g id="a_node27"><a xlink:href="EventQueue_8h.html" target="_top" xlink:title="Handles SDL_Events from main SDL_Queue. Can be hooked into by other services and notified when change...">
<polygon fill="white" stroke="black" points="477,-168.5 477,-187.5 587,-187.5 587,-168.5 477,-168.5"/>
<text text-anchor="middle" x="532" y="-175.5" font-family="Helvetica,sans-Serif" font-size="10.00">events/EventQueue.h</text>
</a>
</g>
</g>
<!-- Node11&#45;&gt;Node27 -->
<g id="edge48" class="edge">
<title>Node11&#45;&gt;Node27</title>
<path fill="none" stroke="midnightblue" d="M1066.62,-229.26C972.42,-222.67 774.73,-207.91 597.18,-188.08"/>
<polygon fill="midnightblue" stroke="midnightblue" points="597.46,-184.59 587.13,-186.95 596.68,-191.54 597.46,-184.59"/>
</g>
<!-- Node28 -->
<g id="node28" class="node">
<title>Node28</title>
<g id="a_node28"><a xlink:href="InputService_8h.html" target="_top" xlink:title="General Purpose input listener. Handles Mouse, Keyboard, Joystick.">
<polygon fill="white" stroke="black" points="315.5,-168.5 315.5,-187.5 418.5,-187.5 418.5,-168.5 315.5,-168.5"/>
<text text-anchor="middle" x="367" y="-175.5" font-family="Helvetica,sans-Serif" font-size="10.00">input/InputService.h</text>
</a>
</g>
</g>
<!-- Node11&#45;&gt;Node28 -->
<g id="edge52" class="edge">
<title>Node11&#45;&gt;Node28</title>
<path fill="none" stroke="midnightblue" d="M1066.85,-229.58C954.25,-222.52 689.81,-205.51 468,-188 455.33,-187 441.77,-185.85 428.84,-184.71"/>
<polygon fill="midnightblue" stroke="midnightblue" points="428.89,-181.2 418.62,-183.8 428.28,-188.17 428.89,-181.2"/>
</g>
<!-- Node36 -->
<g id="node36" class="node">
<title>Node36</title>
<g id="a_node36"><a xlink:href="DebugLoggingService_8h.html" target="_top" xlink:title="Logging service that does the logging. Used for development.">
<polygon fill="white" stroke="black" points="1677.5,-168.5 1677.5,-187.5 1830.5,-187.5 1830.5,-168.5 1677.5,-168.5"/>
<text text-anchor="middle" x="1754" y="-175.5" font-family="Helvetica,sans-Serif" font-size="10.00">logging/DebugLoggingService.h</text>
</a>
</g>
</g>
<!-- Node11&#45;&gt;Node36 -->
<g id="edge65" class="edge">
<title>Node11&#45;&gt;Node36</title>
<path fill="none" stroke="midnightblue" d="M1177.26,-228.28C1287.47,-218.86 1535.37,-197.68 1667.4,-186.4"/>
<polygon fill="midnightblue" stroke="midnightblue" points="1667.81,-189.88 1677.48,-185.54 1667.21,-182.9 1667.81,-189.88"/>
</g>
<!-- Node38 -->
<g id="node38" class="node">
<title>Node38</title>
<g id="a_node38"><a xlink:href="SceneService_8h.html" target="_top" xlink:title="Service in charge of managing scenes.">
<polygon fill="white" stroke="black" points="1129,-168.5 1129,-187.5 1243,-187.5 1243,-168.5 1129,-168.5"/>
<text text-anchor="middle" x="1186" y="-175.5" font-family="Helvetica,sans-Serif" font-size="10.00">scene/SceneService.h</text>
</a>
</g>
</g>
<!-- Node11&#45;&gt;Node38 -->
<g id="edge69" class="edge">
<title>Node11&#45;&gt;Node38</title>
<path fill="none" stroke="midnightblue" d="M1132.28,-224.32C1141.84,-216.26 1156.28,-204.08 1167.78,-194.37"/>
<polygon fill="midnightblue" stroke="midnightblue" points="1170.14,-196.96 1175.53,-187.83 1165.63,-191.61 1170.14,-196.96"/>
</g>
<!-- Node12&#45;&gt;Node2 -->
<g id="edge16" class="edge">
<title>Node12&#45;&gt;Node2</title>
<path fill="none" stroke="midnightblue" d="M984.74,-169.18C987.87,-168.78 990.97,-168.38 994,-168 1126.5,-151.3 1285.11,-133.23 1348.17,-126.12"/>
<polygon fill="midnightblue" stroke="midnightblue" points="1348.93,-129.56 1358.47,-124.96 1348.14,-122.6 1348.93,-129.56"/>
</g>
<!-- Node12&#45;&gt;Node4 -->
<g id="edge17" class="edge">
<title>Node12&#45;&gt;Node4</title>
<path fill="none" stroke="midnightblue" d="M984.61,-169.19C1072.08,-157.24 1228.84,-135.44 1234,-132 1250.39,-121.07 1260.95,-100.71 1266.89,-85.67"/>
<polygon fill="midnightblue" stroke="midnightblue" points="1270.32,-86.47 1270.42,-75.88 1263.73,-84.1 1270.32,-86.47"/>
</g>
<!-- Node13 -->
<g id="node13" class="node">
<title>Node13</title>
<g id="a_node13"><a xlink:href="Font_8h.html" target="_top" xlink:title="Easy interface to interact with SDL fonts.">
<polygon fill="white" stroke="black" points="819.5,-112.5 819.5,-131.5 910.5,-131.5 910.5,-112.5 819.5,-112.5"/>
<text text-anchor="middle" x="865" y="-119.5" font-family="Helvetica,sans-Serif" font-size="10.00">../../assets/Font.h</text>
</a>
</g>
</g>
<!-- Node12&#45;&gt;Node13 -->
<g id="edge18" class="edge">
<title>Node12&#45;&gt;Node13</title>
<path fill="none" stroke="midnightblue" d="M917.04,-168.32C907.87,-160.34 894.06,-148.31 882.97,-138.65"/>
<polygon fill="midnightblue" stroke="midnightblue" points="884.98,-135.76 875.14,-131.83 880.38,-141.04 884.98,-135.76"/>
</g>
<!-- Node17 -->
<g id="node17" class="node">
<title>Node17</title>
<g id="a_node17"><a xlink:href="Sound_8h.html" target="_top" xlink:title="Implementation of Sound.">
<polygon fill="white" stroke="black" points="1126.5,-112.5 1126.5,-131.5 1225.5,-131.5 1225.5,-112.5 1126.5,-112.5"/>
<text text-anchor="middle" x="1176" y="-119.5" font-family="Helvetica,sans-Serif" font-size="10.00">../../assets/Sound.h</text>
</a>
</g>
</g>
<!-- Node12&#45;&gt;Node17 -->
<g id="edge23" class="edge">
<title>Node12&#45;&gt;Node17</title>
<path fill="none" stroke="midnightblue" d="M966.45,-168.44C1009.89,-159.02 1079.79,-143.87 1126.78,-133.68"/>
<polygon fill="midnightblue" stroke="midnightblue" points="1127.7,-137.06 1136.73,-131.52 1126.22,-130.22 1127.7,-137.06"/>
</g>
<!-- Node19 -->
<g id="node19" class="node">
<title>Node19</title>
<g id="a_node19"><a xlink:href="Stream_8h.html" target="_top" xlink:title="Wrapper for sdl stream including ability to store stream pointer. Use for single instance sounds like...">
<polygon fill="white" stroke="black" points="1005.5,-112.5 1005.5,-131.5 1108.5,-131.5 1108.5,-112.5 1005.5,-112.5"/>
<text text-anchor="middle" x="1057" y="-119.5" font-family="Helvetica,sans-Serif" font-size="10.00">../../assets/Stream.h</text>
</a>
</g>
</g>
<!-- Node12&#45;&gt;Node19 -->
<g id="edge26" class="edge">
<title>Node12&#45;&gt;Node19</title>
<path fill="none" stroke="midnightblue" d="M947.6,-168.44C968.99,-159.56 1002.68,-145.56 1027.02,-135.45"/>
<polygon fill="midnightblue" stroke="midnightblue" points="1028.61,-138.58 1036.5,-131.52 1025.92,-132.12 1028.61,-138.58"/>
</g>
<!-- Node20 -->
<g id="node20" class="node">
<title>Node20</title>
<g id="a_node20"><a xlink:href="Texture_8h.html" target="_top" xlink:title="Easy interface to interact with sdl bitmaps.">
<polygon fill="white" stroke="black" points="697,-112.5 697,-131.5 801,-131.5 801,-112.5 697,-112.5"/>
<text text-anchor="middle" x="749" y="-119.5" font-family="Helvetica,sans-Serif" font-size="10.00">../../assets/Texture.h</text>
</a>
</g>
</g>
<!-- Node12&#45;&gt;Node20 -->
<g id="edge29" class="edge">
<title>Node12&#45;&gt;Node20</title>
<path fill="none" stroke="midnightblue" d="M898.8,-168.44C868.59,-159.28 820.49,-144.69 786.97,-134.52"/>
<polygon fill="midnightblue" stroke="midnightblue" points="787.66,-131.07 777.07,-131.52 785.63,-137.77 787.66,-131.07"/>
</g>
<!-- Node13&#45;&gt;Node4 -->
<g id="edge20" class="edge">
<title>Node13&#45;&gt;Node4</title>
<path fill="none" stroke="midnightblue" d="M910.52,-114.07C915.41,-113.36 920.31,-112.66 925,-112 1041.96,-95.67 1181.34,-78.27 1242.12,-70.78"/>
<polygon fill="midnightblue" stroke="midnightblue" points="1242.69,-74.24 1252.19,-69.54 1241.84,-67.29 1242.69,-74.24"/>
</g>
<!-- Node14 -->
<g id="node14" class="node">
<title>Node14</title>
<g id="a_node14"><a xlink:title=" ">
<polygon fill="white" stroke="#bfbfbf" points="822,-56.5 822,-75.5 908,-75.5 908,-56.5 822,-56.5"/>
<text text-anchor="middle" x="865" y="-63.5" font-family="Helvetica,sans-Serif" font-size="10.00">SDL2/SDL_ttf.h</text>
</a>
</g>
</g>
<!-- Node13&#45;&gt;Node14 -->
<g id="edge19" class="edge">
<title>Node13&#45;&gt;Node14</title>
<path fill="none" stroke="midnightblue" d="M865,-112.08C865,-105.01 865,-94.86 865,-85.99"/>
<polygon fill="midnightblue" stroke="midnightblue" points="868.5,-85.75 865,-75.75 861.5,-85.75 868.5,-85.75"/>
</g>
<!-- Node15 -->
<g id="node15" class="node">
<title>Node15</title>
<g id="a_node15"><a xlink:href="Color_8h.html" target="_top" xlink:title="Helpers for creating colors without accessing SDL api directly.">
<polygon fill="white" stroke="black" points="710,-56.5 710,-75.5 788,-75.5 788,-56.5 710,-56.5"/>
<text text-anchor="middle" x="749" y="-63.5" font-family="Helvetica,sans-Serif" font-size="10.00">../color/Color.h</text>
</a>
</g>
</g>
<!-- Node13&#45;&gt;Node15 -->
<g id="edge21" class="edge">
<title>Node13&#45;&gt;Node15</title>
<path fill="none" stroke="midnightblue" d="M846.62,-112.44C827.78,-103.68 798.27,-89.94 776.62,-79.86"/>
<polygon fill="midnightblue" stroke="midnightblue" points="777.84,-76.56 767.29,-75.52 774.88,-82.91 777.84,-76.56"/>
</g>
<!-- Node16 -->
<g id="node16" class="node">
<title>Node16</title>
<g id="a_node16"><a xlink:title=" ">
<polygon fill="white" stroke="#bfbfbf" points="680,-0.5 680,-19.5 818,-19.5 818,-0.5 680,-0.5"/>
<text text-anchor="middle" x="749" y="-7.5" font-family="Helvetica,sans-Serif" font-size="10.00">SDL2/SDL2_gfxPrimitives.h</text>
</a>
</g>
</g>
<!-- Node15&#45;&gt;Node16 -->
<g id="edge22" class="edge">
<title>Node15&#45;&gt;Node16</title>
<path fill="none" stroke="midnightblue" d="M749,-56.08C749,-49.01 749,-38.86 749,-29.99"/>
<polygon fill="midnightblue" stroke="midnightblue" points="752.5,-29.75 749,-19.75 745.5,-29.75 752.5,-29.75"/>
</g>
<!-- Node17&#45;&gt;Node4 -->
<g id="edge25" class="edge">
<title>Node17&#45;&gt;Node4</title>
<path fill="none" stroke="midnightblue" d="M1191.58,-112.32C1207,-103.74 1230.81,-90.49 1248.71,-80.52"/>
<polygon fill="midnightblue" stroke="midnightblue" points="1250.42,-83.58 1257.45,-75.65 1247.01,-77.46 1250.42,-83.58"/>
</g>
<!-- Node18 -->
<g id="node18" class="node">
<title>Node18</title>
<g id="a_node18"><a xlink:title=" ">
<polygon fill="white" stroke="#bfbfbf" points="1066,-56.5 1066,-75.5 1166,-75.5 1166,-56.5 1066,-56.5"/>
<text text-anchor="middle" x="1116" y="-63.5" font-family="Helvetica,sans-Serif" font-size="10.00">SDL2/SDL_mixer.h</text>
</a>
</g>
</g>
<!-- Node17&#45;&gt;Node18 -->
<g id="edge24" class="edge">
<title>Node17&#45;&gt;Node18</title>
<path fill="none" stroke="midnightblue" d="M1166.36,-112.32C1157.49,-104.34 1144.13,-92.31 1133.39,-82.65"/>
<polygon fill="midnightblue" stroke="midnightblue" points="1135.59,-79.92 1125.82,-75.83 1130.91,-85.13 1135.59,-79.92"/>
</g>
<!-- Node19&#45;&gt;Node4 -->
<g id="edge28" class="edge">
<title>Node19&#45;&gt;Node4</title>
<path fill="none" stroke="midnightblue" d="M1091.23,-112.44C1132.83,-102.04 1202.42,-84.65 1242.34,-74.67"/>
<polygon fill="midnightblue" stroke="midnightblue" points="1243.44,-78 1252.29,-72.18 1241.74,-71.21 1243.44,-78"/>
</g>
<!-- Node19&#45;&gt;Node18 -->
<g id="edge27" class="edge">
<title>Node19&#45;&gt;Node18</title>
<path fill="none" stroke="midnightblue" d="M1066.48,-112.32C1075.2,-104.34 1088.34,-92.31 1098.9,-82.65"/>
<polygon fill="midnightblue" stroke="midnightblue" points="1101.33,-85.17 1106.35,-75.83 1096.61,-80 1101.33,-85.17"/>
</g>
<!-- Node20&#45;&gt;Node4 -->
<g id="edge31" class="edge">
<title>Node20&#45;&gt;Node4</title>
<path fill="none" stroke="midnightblue" d="M801.22,-113.12C804.19,-112.73 807.13,-112.35 810,-112 852.79,-106.77 1146.23,-78.96 1242.49,-69.88"/>
<polygon fill="midnightblue" stroke="midnightblue" points="1242.83,-73.36 1252.46,-68.94 1242.17,-66.39 1242.83,-73.36"/>
</g>
<!-- Node20&#45;&gt;Node10 -->
<g id="edge30" class="edge">
<title>Node20&#45;&gt;Node10</title>
<path fill="none" stroke="midnightblue" d="M729.19,-112.44C708.71,-103.6 676.52,-89.69 653.14,-79.59"/>
<polygon fill="midnightblue" stroke="midnightblue" points="654.28,-76.27 643.71,-75.52 651.51,-82.7 654.28,-76.27"/>
</g>
<!-- Node20&#45;&gt;Node15 -->
<g id="edge32" class="edge">
<title>Node20&#45;&gt;Node15</title>
<path fill="none" stroke="midnightblue" d="M749,-112.08C749,-105.01 749,-94.86 749,-85.99"/>
<polygon fill="midnightblue" stroke="midnightblue" points="752.5,-85.75 749,-75.75 745.5,-85.75 752.5,-85.75"/>
</g>
<!-- Node21&#45;&gt;Node4 -->
<g id="edge34" class="edge">
<title>Node21&#45;&gt;Node4</title>
<path fill="none" stroke="midnightblue" d="M1111.25,-168.86C1170.27,-159.47 1257.66,-143.82 1268,-132 1278.82,-119.63 1278.97,-100.39 1277.08,-86.04"/>
<polygon fill="midnightblue" stroke="midnightblue" points="1280.46,-85.06 1275.29,-75.81 1273.57,-86.27 1280.46,-85.06"/>
</g>
<!-- Node21&#45;&gt;Node17 -->
<g id="edge35" class="edge">
<title>Node21&#45;&gt;Node17</title>
<path fill="none" stroke="midnightblue" d="M1075.86,-168.44C1095.27,-159.64 1125.73,-145.81 1147.96,-135.72"/>
<polygon fill="midnightblue" stroke="midnightblue" points="1149.57,-138.84 1157.23,-131.52 1146.68,-132.46 1149.57,-138.84"/>
</g>
<!-- Node21&#45;&gt;Node19 -->
<g id="edge36" class="edge">
<title>Node21&#45;&gt;Node19</title>
<path fill="none" stroke="midnightblue" d="M1057,-168.08C1057,-161.01 1057,-150.86 1057,-141.99"/>
<polygon fill="midnightblue" stroke="midnightblue" points="1060.5,-141.75 1057,-131.75 1053.5,-141.75 1060.5,-141.75"/>
</g>
<!-- Node22&#45;&gt;Node2 -->
<g id="edge38" class="edge">
<title>Node22&#45;&gt;Node2</title>
<path fill="none" stroke="midnightblue" d="M1359.3,-168.08C1361.98,-160.85 1365.85,-150.41 1369.19,-141.4"/>
<polygon fill="midnightblue" stroke="midnightblue" points="1372.57,-142.34 1372.76,-131.75 1366,-139.91 1372.57,-142.34"/>
</g>
<!-- Node22&#45;&gt;Node4 -->
<g id="edge40" class="edge">
<title>Node22&#45;&gt;Node4</title>
<path fill="none" stroke="midnightblue" d="M1401.98,-168.47C1452.22,-158.68 1526.72,-142.61 1535,-132 1540.47,-124.99 1540.73,-118.8 1535,-112 1505.69,-77.22 1366.21,-69.32 1303.57,-67.53"/>
<polygon fill="midnightblue" stroke="midnightblue" points="1303.6,-64.03 1293.51,-67.27 1303.42,-71.02 1303.6,-64.03"/>
</g>
<!-- Node23 -->
<g id="node23" class="node">
<title>Node23</title>
<g id="a_node23"><a xlink:title=" ">
<polygon fill="white" stroke="#bfbfbf" points="1412,-112.5 1412,-131.5 1464,-131.5 1464,-112.5 1412,-112.5"/>
<text text-anchor="middle" x="1438" y="-119.5" font-family="Helvetica,sans-Serif" font-size="10.00">sstream</text>
</a>
</g>
</g>
<!-- Node22&#45;&gt;Node23 -->
<g id="edge39" class="edge">
<title>Node22&#45;&gt;Node23</title>
<path fill="none" stroke="midnightblue" d="M1369.17,-168.32C1381.85,-159.98 1401.23,-147.21 1416.21,-137.35"/>
<polygon fill="midnightblue" stroke="midnightblue" points="1418.43,-140.08 1424.86,-131.65 1414.58,-134.23 1418.43,-140.08"/>
</g>
<!-- Node24&#45;&gt;Node4 -->
<g id="edge43" class="edge">
<title>Node24&#45;&gt;Node4</title>
<path fill="none" stroke="midnightblue" d="M727.02,-172.41C785.89,-166.83 877.01,-155.13 953,-132 973.16,-125.86 975.85,-118.19 996,-112 1082.96,-85.27 1190.42,-73.59 1242.22,-69.23"/>
<polygon fill="midnightblue" stroke="midnightblue" points="1242.72,-72.7 1252.41,-68.41 1242.16,-65.73 1242.72,-72.7"/>
</g>
<!-- Node24&#45;&gt;Node10 -->
<g id="edge42" class="edge">
<title>Node24&#45;&gt;Node10</title>
<path fill="none" stroke="midnightblue" d="M651.34,-168.4C639.59,-160.58 623.97,-147.86 617,-132 610.52,-117.24 613.38,-98.85 617.22,-85.4"/>
<polygon fill="midnightblue" stroke="midnightblue" points="620.56,-86.43 620.34,-75.84 613.91,-84.26 620.56,-86.43"/>
</g>
<!-- Node24&#45;&gt;Node15 -->
<g id="edge44" class="edge">
<title>Node24&#45;&gt;Node15</title>
<path fill="none" stroke="midnightblue" d="M667.25,-168.24C669.49,-154.98 675.21,-129.51 688,-112 697.28,-99.3 711.19,-88.65 723.39,-80.9"/>
<polygon fill="midnightblue" stroke="midnightblue" points="725.51,-83.71 732.27,-75.56 721.9,-77.71 725.51,-83.71"/>
</g>
<!-- Node25 -->
<g id="node25" class="node">
<title>Node25</title>
<g id="a_node25"><a xlink:href="Service_8h.html" target="_top" xlink:title="Service subscriber that can listen for events.">
<polygon fill="white" stroke="black" points="499.5,-112.5 499.5,-131.5 564.5,-131.5 564.5,-112.5 499.5,-112.5"/>
<text text-anchor="middle" x="532" y="-119.5" font-family="Helvetica,sans-Serif" font-size="10.00">../Service.h</text>
</a>
</g>
</g>
<!-- Node24&#45;&gt;Node25 -->
<g id="edge45" class="edge">
<title>Node24&#45;&gt;Node25</title>
<path fill="none" stroke="midnightblue" d="M644.77,-168.44C622.62,-159.52 587.68,-145.44 562.56,-135.32"/>
<polygon fill="midnightblue" stroke="midnightblue" points="563.72,-132.01 553.13,-131.52 561.1,-138.5 563.72,-132.01"/>
</g>
<!-- Node25&#45;&gt;Node4 -->
<g id="edge47" class="edge">
<title>Node25&#45;&gt;Node4</title>
<path fill="none" stroke="midnightblue" d="M564.81,-118.96C659.48,-113 941.32,-94.9 1175,-76 1197.56,-74.17 1223.01,-71.83 1242.32,-69.99"/>
<polygon fill="midnightblue" stroke="midnightblue" points="1242.74,-73.47 1252.36,-69.03 1242.07,-66.5 1242.74,-73.47"/>
</g>
<!-- Node26 -->
<g id="node26" class="node">
<title>Node26</title>
<g id="a_node26"><a xlink:title=" ">
<polygon fill="white" stroke="#bfbfbf" points="106,-56.5 106,-75.5 212,-75.5 212,-56.5 106,-56.5"/>
<text text-anchor="middle" x="159" y="-63.5" font-family="Helvetica,sans-Serif" font-size="10.00">SDL2/SDL_events.h</text>
</a>
</g>
</g>
<!-- Node25&#45;&gt;Node26 -->
<g id="edge46" class="edge">
<title>Node25&#45;&gt;Node26</title>
<path fill="none" stroke="midnightblue" d="M499.31,-116.28C444.36,-108.33 329.72,-91.75 222.15,-76.17"/>
<polygon fill="midnightblue" stroke="midnightblue" points="222.5,-72.68 212.1,-74.71 221.49,-79.61 222.5,-72.68"/>
</g>
<!-- Node27&#45;&gt;Node6 -->
<g id="edge50" class="edge">
<title>Node27&#45;&gt;Node6</title>
<path fill="none" stroke="midnightblue" d="M587.12,-168.9C590.12,-168.57 593.09,-168.26 596,-168 981.19,-133.1 1086.2,-193.79 1471.76,-131.77"/>
<polygon fill="midnightblue" stroke="midnightblue" points="1472.49,-135.2 1481.8,-130.14 1471.36,-128.29 1472.49,-135.2"/>
</g>
<!-- Node27&#45;&gt;Node10 -->
<g id="edge49" class="edge">
<title>Node27&#45;&gt;Node10</title>
<path fill="none" stroke="midnightblue" d="M519.36,-168.41C502.38,-155.79 475.88,-131.63 490,-112 509.95,-84.25 547.85,-73.38 578.26,-69.23"/>
<polygon fill="midnightblue" stroke="midnightblue" points="578.73,-72.7 588.25,-68.07 577.92,-65.75 578.73,-72.7"/>
</g>
<!-- Node27&#45;&gt;Node25 -->
<g id="edge51" class="edge">
<title>Node27&#45;&gt;Node25</title>
<path fill="none" stroke="midnightblue" d="M532,-168.08C532,-161.01 532,-150.86 532,-141.99"/>
<polygon fill="midnightblue" stroke="midnightblue" points="535.5,-141.75 532,-131.75 528.5,-141.75 535.5,-141.75"/>
</g>
<!-- Node28&#45;&gt;Node4 -->
<g id="edge55" class="edge">
<title>Node28&#45;&gt;Node4</title>
<path fill="none" stroke="midnightblue" d="M418.63,-172.31C434.47,-170.89 451.95,-169.36 468,-168 668.37,-151.08 727.24,-192.52 919,-132 935.72,-126.72 936.45,-117.78 953,-112 1006.17,-93.45 1172.75,-76.32 1242.16,-69.79"/>
<polygon fill="midnightblue" stroke="midnightblue" points="1242.8,-73.25 1252.43,-68.83 1242.15,-66.28 1242.8,-73.25"/>
</g>
<!-- Node28&#45;&gt;Node25 -->
<g id="edge56" class="edge">
<title>Node28&#45;&gt;Node25</title>
<path fill="none" stroke="midnightblue" d="M393.14,-168.44C421.02,-159.32 465.35,-144.81 496.4,-134.65"/>
<polygon fill="midnightblue" stroke="midnightblue" points="497.56,-137.95 505.98,-131.52 495.38,-131.3 497.56,-137.95"/>
</g>
<!-- Node28&#45;&gt;Node26 -->
<g id="edge53" class="edge">
<title>Node28&#45;&gt;Node26</title>
<path fill="none" stroke="midnightblue" d="M315.45,-170.6C266.5,-163.52 197.56,-150.59 178,-132 165.49,-120.11 161.08,-100.49 159.59,-85.91"/>
<polygon fill="midnightblue" stroke="midnightblue" points="163.06,-85.3 158.93,-75.54 156.08,-85.75 163.06,-85.3"/>
</g>
<!-- Node29 -->
<g id="node29" class="node">
<title>Node29</title>
<g id="a_node29"><a xlink:title=" ">
<polygon fill="white" stroke="#bfbfbf" points="389,-112.5 389,-131.5 443,-131.5 443,-112.5 389,-112.5"/>
<text text-anchor="middle" x="416" y="-119.5" font-family="Helvetica,sans-Serif" font-size="10.00">iostream</text>
</a>
</g>
</g>
<!-- Node28&#45;&gt;Node29 -->
<g id="edge54" class="edge">
<title>Node28&#45;&gt;Node29</title>
<path fill="none" stroke="midnightblue" d="M375.09,-168.08C382.16,-160.3 392.59,-148.8 401.15,-139.37"/>
<polygon fill="midnightblue" stroke="midnightblue" points="403.93,-141.51 408.06,-131.75 398.75,-136.8 403.93,-141.51"/>
</g>
<!-- Node30 -->
<g id="node30" class="node">
<title>Node30</title>
<g id="a_node30"><a xlink:href="JoystickState_8h.html" target="_top" xlink:title="Container for storing Joystick state.">
<polygon fill="white" stroke="black" points="47.5,-112.5 47.5,-131.5 130.5,-131.5 130.5,-112.5 47.5,-112.5"/>
<text text-anchor="middle" x="89" y="-119.5" font-family="Helvetica,sans-Serif" font-size="10.00">JoystickState.h</text>
</a>
</g>
</g>
<!-- Node28&#45;&gt;Node30 -->
<g id="edge57" class="edge">
<title>Node28&#45;&gt;Node30</title>
<path fill="none" stroke="midnightblue" d="M322.95,-168.44C273.43,-158.82 193.12,-143.22 140.67,-133.04"/>
<polygon fill="midnightblue" stroke="midnightblue" points="141.06,-129.55 130.57,-131.08 139.72,-136.42 141.06,-129.55"/>
</g>
<!-- Node32 -->
<g id="node32" class="node">
<title>Node32</title>
<g id="a_node32"><a xlink:href="KeyboardState_8h.html" target="_top" xlink:title="Container for storing Keyboard state.">
<polygon fill="white" stroke="black" points="283,-112.5 283,-131.5 371,-131.5 371,-112.5 283,-112.5"/>
<text text-anchor="middle" x="327" y="-119.5" font-family="Helvetica,sans-Serif" font-size="10.00">KeyboardState.h</text>
</a>
</g>
</g>
<!-- Node28&#45;&gt;Node32 -->
<g id="edge60" class="edge">
<title>Node28&#45;&gt;Node32</title>
<path fill="none" stroke="midnightblue" d="M360.39,-168.08C354.74,-160.46 346.46,-149.26 339.55,-139.94"/>
<polygon fill="midnightblue" stroke="midnightblue" points="342.25,-137.7 333.48,-131.75 336.62,-141.87 342.25,-137.7"/>
</g>
<!-- Node34 -->
<g id="node34" class="node">
<title>Node34</title>
<g id="a_node34"><a xlink:href="MouseState_8h.html" target="_top" xlink:title="Container for storing Mouse state.">
<polygon fill="white" stroke="black" points="187.5,-112.5 187.5,-131.5 264.5,-131.5 264.5,-112.5 187.5,-112.5"/>
<text text-anchor="middle" x="226" y="-119.5" font-family="Helvetica,sans-Serif" font-size="10.00">MouseState.h</text>
</a>
</g>
</g>
<!-- Node28&#45;&gt;Node34 -->
<g id="edge62" class="edge">
<title>Node28&#45;&gt;Node34</title>
<path fill="none" stroke="midnightblue" d="M344.66,-168.44C321.25,-159.48 284.26,-145.31 257.81,-135.18"/>
<polygon fill="midnightblue" stroke="midnightblue" points="258.83,-131.82 248.24,-131.52 256.32,-138.36 258.83,-131.82"/>
</g>
<!-- Node30&#45;&gt;Node26 -->
<g id="edge58" class="edge">
<title>Node30&#45;&gt;Node26</title>
<path fill="none" stroke="midnightblue" d="M100.25,-112.32C110.8,-104.18 126.8,-91.84 139.44,-82.09"/>
<polygon fill="midnightblue" stroke="midnightblue" points="141.77,-84.71 147.55,-75.83 137.49,-79.17 141.77,-84.71"/>
</g>
<!-- Node31 -->
<g id="node31" class="node">
<title>Node31</title>
<g id="a_node31"><a xlink:href="JoystickCodes_8h.html" target="_top" xlink:title="Defines for codes used for joystick.">
<polygon fill="white" stroke="black" points="0,-56.5 0,-75.5 88,-75.5 88,-56.5 0,-56.5"/>
<text text-anchor="middle" x="44" y="-63.5" font-family="Helvetica,sans-Serif" font-size="10.00">JoystickCodes.h</text>
</a>
</g>
</g>
<!-- Node30&#45;&gt;Node31 -->
<g id="edge59" class="edge">
<title>Node30&#45;&gt;Node31</title>
<path fill="none" stroke="midnightblue" d="M81.57,-112.08C75.15,-104.38 65.69,-93.03 57.88,-83.65"/>
<polygon fill="midnightblue" stroke="midnightblue" points="60.38,-81.19 51.29,-75.75 55.01,-85.67 60.38,-81.19"/>
</g>
<!-- Node33 -->
<g id="node33" class="node">
<title>Node33</title>
<g id="a_node33"><a xlink:href="KeyboardKeys_8h.html" target="_top" xlink:title="Defenitions of keys that can be used by input manager.">
<polygon fill="white" stroke="black" points="354,-56.5 354,-75.5 440,-75.5 440,-56.5 354,-56.5"/>
<text text-anchor="middle" x="397" y="-63.5" font-family="Helvetica,sans-Serif" font-size="10.00">KeyboardKeys.h</text>
</a>
</g>
</g>
<!-- Node32&#45;&gt;Node33 -->
<g id="edge61" class="edge">
<title>Node32&#45;&gt;Node33</title>
<path fill="none" stroke="midnightblue" d="M338.25,-112.32C348.8,-104.18 364.8,-91.84 377.44,-82.09"/>
<polygon fill="midnightblue" stroke="midnightblue" points="379.77,-84.71 385.55,-75.83 375.49,-79.17 379.77,-84.71"/>
</g>
<!-- Node34&#45;&gt;Node26 -->
<g id="edge63" class="edge">
<title>Node34&#45;&gt;Node26</title>
<path fill="none" stroke="midnightblue" d="M215.24,-112.32C205.23,-104.26 190.11,-92.08 178.07,-82.37"/>
<polygon fill="midnightblue" stroke="midnightblue" points="179.94,-79.38 169.96,-75.83 175.55,-84.83 179.94,-79.38"/>
</g>
<!-- Node35 -->
<g id="node35" class="node">
<title>Node35</title>
<g id="a_node35"><a xlink:title=" ">
<polygon fill="white" stroke="#bfbfbf" points="230,-56.5 230,-75.5 336,-75.5 336,-56.5 230,-56.5"/>
<text text-anchor="middle" x="283" y="-63.5" font-family="Helvetica,sans-Serif" font-size="10.00">SDL2/SDL_mouse.h</text>
</a>
</g>
</g>
<!-- Node34&#45;&gt;Node35 -->
<g id="edge64" class="edge">
<title>Node34&#45;&gt;Node35</title>
<path fill="none" stroke="midnightblue" d="M235.16,-112.32C243.5,-104.42 256.03,-92.55 266.18,-82.94"/>
<polygon fill="midnightblue" stroke="midnightblue" points="268.82,-85.25 273.68,-75.83 264.01,-80.17 268.82,-85.25"/>
</g>
<!-- Node36&#45;&gt;Node4 -->
<g id="edge66" class="edge">
<title>Node36&#45;&gt;Node4</title>
<path fill="none" stroke="midnightblue" d="M1752.86,-168.1C1750.5,-153.67 1743.64,-125.45 1725,-112 1690.94,-87.42 1400.54,-72.59 1304.04,-68.3"/>
<polygon fill="midnightblue" stroke="midnightblue" points="1303.91,-64.79 1293.77,-67.85 1303.61,-71.78 1303.91,-64.79"/>
</g>
<!-- Node37 -->
<g id="node37" class="node">
<title>Node37</title>
<g id="a_node37"><a xlink:href="LoggingService_8h.html" target="_top" xlink:title="Default logging service. Does nothing. Use in production.">
<polygon fill="white" stroke="black" points="1624,-112.5 1624,-131.5 1716,-131.5 1716,-112.5 1624,-112.5"/>
<text text-anchor="middle" x="1670" y="-119.5" font-family="Helvetica,sans-Serif" font-size="10.00">LoggingService.h</text>
</a>
</g>
</g>
<!-- Node36&#45;&gt;Node37 -->
<g id="edge67" class="edge">
<title>Node36&#45;&gt;Node37</title>
<path fill="none" stroke="midnightblue" d="M1740.5,-168.32C1727.4,-159.9 1707.29,-146.97 1691.89,-137.07"/>
<polygon fill="midnightblue" stroke="midnightblue" points="1693.77,-134.12 1683.46,-131.65 1689.98,-140.01 1693.77,-134.12"/>
</g>
<!-- Node37&#45;&gt;Node4 -->
<g id="edge68" class="edge">
<title>Node37&#45;&gt;Node4</title>
<path fill="none" stroke="midnightblue" d="M1623.86,-114.48C1617.85,-113.64 1611.78,-112.8 1606,-112 1494.74,-96.66 1362.5,-78.94 1303.75,-71.1"/>
<polygon fill="midnightblue" stroke="midnightblue" points="1304.03,-67.61 1293.66,-69.75 1303.11,-74.54 1304.03,-67.61"/>
</g>
<!-- Node38&#45;&gt;Node4 -->
<g id="edge70" class="edge">
<title>Node38&#45;&gt;Node4</title>
<path fill="none" stroke="midnightblue" d="M1243.09,-169.91C1266.62,-163.85 1291.68,-152.67 1306,-132 1316.85,-116.35 1303.54,-96.64 1290.73,-83.05"/>
<polygon fill="midnightblue" stroke="midnightblue" points="1293,-80.38 1283.43,-75.83 1288.08,-85.35 1293,-80.38"/>
</g>
<!-- Node38&#45;&gt;Node6 -->
<g id="edge71" class="edge">
<title>Node38&#45;&gt;Node6</title>
<path fill="none" stroke="midnightblue" d="M1243.03,-170.23C1299.08,-163.09 1387.15,-150.56 1471.95,-132"/>
<polygon fill="midnightblue" stroke="midnightblue" points="1472.73,-135.41 1481.74,-129.83 1471.22,-128.58 1472.73,-135.41"/>
</g>
<!-- Node38&#45;&gt;Node25 -->
<g id="edge72" class="edge">
<title>Node38&#45;&gt;Node25</title>
<path fill="none" stroke="midnightblue" d="M1128.79,-168.99C1125.82,-168.64 1122.87,-168.31 1120,-168 1066.22,-162.28 700.6,-135.34 574.58,-126.11"/>
<polygon fill="midnightblue" stroke="midnightblue" points="574.77,-122.62 564.54,-125.38 574.26,-129.6 574.77,-122.62"/>
</g>
</g>
</svg>
