<?xml version="1.0" encoding="UTF-8" standalone="no"?>
<!DOCTYPE svg PUBLIC "-//W3C//DTD SVG 1.1//EN"
 "http://www.w3.org/Graphics/SVG/1.1/DTD/svg11.dtd">
<!-- Generated by graphviz version 2.46.1 (20210215.1649)
 -->
<!-- Title: include/services/scene/SceneService.h Pages: 1 -->
<svg width="192pt" height="151pt"
 viewBox="0.00 0.00 192.00 151.00" xmlns="http://www.w3.org/2000/svg" xmlns:xlink="http://www.w3.org/1999/xlink">
<g id="graph0" class="graph" transform="scale(1 1) rotate(0) translate(4 147)">
<title>include/services/scene/SceneService.h</title>
<polygon fill="white" stroke="transparent" points="-4,4 -4,-147 188,-147 188,4 -4,4"/>
<!-- Node1 -->
<g id="node1" class="node">
<title>Node1</title>
<g id="a_node1"><a xlink:title="Service in charge of managing scenes.">
<polygon fill="#bfbfbf" stroke="black" points="0,-112.5 0,-142.5 116,-142.5 116,-112.5 0,-112.5"/>
<text text-anchor="start" x="8" y="-130.5" font-family="Helvetica,sans-Serif" font-size="10.00">include/services/scene</text>
<text text-anchor="middle" x="58" y="-119.5" font-family="Helvetica,sans-Serif" font-size="10.00">/SceneService.h</text>
</a>
</g>
</g>
<!-- Node2 -->
<g id="node2" class="node">
<title>Node2</title>
<g id="a_node2"><a xlink:title=" ">
<polygon fill="white" stroke="#bfbfbf" points="3.5,-0.5 3.5,-19.5 44.5,-19.5 44.5,-0.5 3.5,-0.5"/>
<text text-anchor="middle" x="24" y="-7.5" font-family="Helvetica,sans-Serif" font-size="10.00">string</text>
</a>
</g>
</g>
<!-- Node1&#45;&gt;Node2 -->
<g id="edge1" class="edge">
<title>Node1&#45;&gt;Node2</title>
<path fill="none" stroke="midnightblue" d="M46.66,-112.43C39.6,-102.79 31.11,-89.37 27,-76 22.38,-60.97 21.9,-43.06 22.42,-29.85"/>
<polygon fill="midnightblue" stroke="midnightblue" points="25.92,-29.84 23.06,-19.65 18.94,-29.41 25.92,-29.84"/>
</g>
<!-- Node3 -->
<g id="node3" class="node">
<title>Node3</title>
<g id="a_node3"><a xlink:title=" ">
<polygon fill="white" stroke="#bfbfbf" points="36,-56.5 36,-75.5 80,-75.5 80,-56.5 36,-56.5"/>
<text text-anchor="middle" x="58" y="-63.5" font-family="Helvetica,sans-Serif" font-size="10.00">vector</text>
</a>
</g>
</g>
<!-- Node1&#45;&gt;Node3 -->
<g id="edge2" class="edge">
<title>Node1&#45;&gt;Node3</title>
<path fill="none" stroke="midnightblue" d="M58,-112.4C58,-104.47 58,-94.46 58,-85.86"/>
<polygon fill="midnightblue" stroke="midnightblue" points="61.5,-85.66 58,-75.66 54.5,-85.66 61.5,-85.66"/>
</g>
<!-- Node4 -->
<g id="node4" class="node">
<title>Node4</title>
<g id="a_node4"><a xlink:href="Service_8h.html" target="_top" xlink:title="Service subscriber that can listen for events.">
<polygon fill="white" stroke="black" points="98.5,-56.5 98.5,-75.5 163.5,-75.5 163.5,-56.5 98.5,-56.5"/>
<text text-anchor="middle" x="131" y="-63.5" font-family="Helvetica,sans-Serif" font-size="10.00">../Service.h</text>
</a>
</g>
</g>
<!-- Node1&#45;&gt;Node4 -->
<g id="edge3" class="edge">
<title>Node1&#45;&gt;Node4</title>
<path fill="none" stroke="midnightblue" d="M75.3,-112.4C86.45,-103.31 100.95,-91.49 112.36,-82.19"/>
<polygon fill="midnightblue" stroke="midnightblue" points="114.84,-84.69 120.38,-75.66 110.42,-79.26 114.84,-84.69"/>
</g>
<!-- Node4&#45;&gt;Node2 -->
<g id="edge5" class="edge">
<title>Node4&#45;&gt;Node2</title>
<path fill="none" stroke="midnightblue" d="M113.81,-56.32C96.65,-47.66 70.05,-34.24 50.25,-24.25"/>
<polygon fill="midnightblue" stroke="midnightblue" points="51.65,-21.04 41.15,-19.65 48.5,-27.28 51.65,-21.04"/>
</g>
<!-- Node5 -->
<g id="node5" class="node">
<title>Node5</title>
<g id="a_node5"><a xlink:title=" ">
<polygon fill="white" stroke="#bfbfbf" points="78,-0.5 78,-19.5 184,-19.5 184,-0.5 78,-0.5"/>
<text text-anchor="middle" x="131" y="-7.5" font-family="Helvetica,sans-Serif" font-size="10.00">SDL2/SDL_events.h</text>
</a>
</g>
</g>
<!-- Node4&#45;&gt;Node5 -->
<g id="edge4" class="edge">
<title>Node4&#45;&gt;Node5</title>
<path fill="none" stroke="midnightblue" d="M131,-56.08C131,-49.01 131,-38.86 131,-29.99"/>
<polygon fill="midnightblue" stroke="midnightblue" points="134.5,-29.75 131,-19.75 127.5,-29.75 134.5,-29.75"/>
</g>
</g>
</svg>
