<?xml version="1.0" encoding="UTF-8" standalone="no"?>
<!DOCTYPE svg PUBLIC "-//W3C//DTD SVG 1.1//EN"
 "http://www.w3.org/Graphics/SVG/1.1/DTD/svg11.dtd">
<!-- Generated by graphviz version 2.46.1 (20210215.1649)
 -->
<!-- Title: src/services/scene/SceneService.cpp Pages: 1 -->
<svg width="1834pt" height="375pt"
 viewBox="0.00 0.00 1833.50 375.00" xmlns="http://www.w3.org/2000/svg" xmlns:xlink="http://www.w3.org/1999/xlink">
<g id="graph0" class="graph" transform="scale(1 1) rotate(0) translate(4 371)">
<title>src/services/scene/SceneService.cpp</title>
<polygon fill="white" stroke="transparent" points="-4,4 -4,-371 1829.5,-371 1829.5,4 -4,4"/>
<!-- Node1 -->
<g id="node1" class="node">
<title>Node1</title>
<g id="a_node1"><a xlink:title="Implementation of SceneService.">
<polygon fill="#bfbfbf" stroke="black" points="1200,-336.5 1200,-366.5 1299,-366.5 1299,-336.5 1200,-336.5"/>
<text text-anchor="start" x="1208" y="-354.5" font-family="Helvetica,sans-Serif" font-size="10.00">src/services/scene</text>
<text text-anchor="middle" x="1249.5" y="-343.5" font-family="Helvetica,sans-Serif" font-size="10.00">/SceneService.cpp</text>
</a>
</g>
</g>
<!-- Node2 -->
<g id="node2" class="node">
<title>Node2</title>
<g id="a_node2"><a xlink:href="SceneService_8h.html" target="_top" xlink:title="Service in charge of managing scenes.">
<polygon fill="white" stroke="black" points="1346.5,-168.5 1346.5,-187.5 1500.5,-187.5 1500.5,-168.5 1346.5,-168.5"/>
<text text-anchor="middle" x="1423.5" y="-175.5" font-family="Helvetica,sans-Serif" font-size="10.00">services/scene/SceneService.h</text>
</a>
</g>
</g>
<!-- Node1&#45;&gt;Node2 -->
<g id="edge1" class="edge">
<title>Node1&#45;&gt;Node2</title>
<path fill="none" stroke="midnightblue" d="M1263.74,-336.47C1295.9,-304.77 1373.97,-227.82 1407.62,-194.65"/>
<polygon fill="midnightblue" stroke="midnightblue" points="1410.15,-197.07 1414.82,-187.56 1405.24,-192.09 1410.15,-197.07"/>
</g>
<!-- Node7 -->
<g id="node7" class="node">
<title>Node7</title>
<g id="a_node7"><a xlink:title=" ">
<polygon fill="white" stroke="#bfbfbf" points="1622.5,-280.5 1622.5,-299.5 1678.5,-299.5 1678.5,-280.5 1622.5,-280.5"/>
<text text-anchor="middle" x="1650.5" y="-287.5" font-family="Helvetica,sans-Serif" font-size="10.00">algorithm</text>
</a>
</g>
</g>
<!-- Node1&#45;&gt;Node7 -->
<g id="edge7" class="edge">
<title>Node1&#45;&gt;Node7</title>
<path fill="none" stroke="midnightblue" d="M1299.04,-344.67C1368.45,-336.24 1498.5,-319.5 1608.5,-300 1609.74,-299.78 1611,-299.55 1612.27,-299.31"/>
<polygon fill="midnightblue" stroke="midnightblue" points="1612.95,-302.74 1622.09,-297.38 1611.6,-295.88 1612.95,-302.74"/>
</g>
<!-- Node8 -->
<g id="node8" class="node">
<title>Node8</title>
<g id="a_node8"><a xlink:href="Exceptions_8h.html" target="_top" xlink:title="Interally used exceptions. These can be handled properly in the main game class.">
<polygon fill="white" stroke="black" points="1193.5,-224.5 1193.5,-243.5 1305.5,-243.5 1305.5,-224.5 1193.5,-224.5"/>
<text text-anchor="middle" x="1249.5" y="-231.5" font-family="Helvetica,sans-Serif" font-size="10.00">common/Exceptions.h</text>
</a>
</g>
</g>
<!-- Node1&#45;&gt;Node8 -->
<g id="edge8" class="edge">
<title>Node1&#45;&gt;Node8</title>
<path fill="none" stroke="midnightblue" d="M1249.5,-336.34C1249.5,-315.62 1249.5,-277.02 1249.5,-253.9"/>
<polygon fill="midnightblue" stroke="midnightblue" points="1253,-253.67 1249.5,-243.67 1246,-253.67 1253,-253.67"/>
</g>
<!-- Node10 -->
<g id="node10" class="node">
<title>Node10</title>
<g id="a_node10"><a xlink:href="Scene_8h.html" target="_top" xlink:title="Parent scene class. Children can be added to scene manager.">
<polygon fill="white" stroke="black" points="1067,-280.5 1067,-299.5 1148,-299.5 1148,-280.5 1067,-280.5"/>
<text text-anchor="middle" x="1107.5" y="-287.5" font-family="Helvetica,sans-Serif" font-size="10.00">scene/Scene.h</text>
</a>
</g>
</g>
<!-- Node1&#45;&gt;Node10 -->
<g id="edge11" class="edge">
<title>Node1&#45;&gt;Node10</title>
<path fill="none" stroke="midnightblue" d="M1215.85,-336.4C1192.02,-326.42 1160.35,-313.15 1137.41,-303.53"/>
<polygon fill="midnightblue" stroke="midnightblue" points="1138.74,-300.29 1128.16,-299.66 1136.03,-306.75 1138.74,-300.29"/>
</g>
<!-- Node16 -->
<g id="node16" class="node">
<title>Node16</title>
<g id="a_node16"><a xlink:href="Services_8h.html" target="_top" xlink:title="Implementation of core Services class.">
<polygon fill="white" stroke="black" points="804.5,-224.5 804.5,-243.5 914.5,-243.5 914.5,-224.5 804.5,-224.5"/>
<text text-anchor="middle" x="859.5" y="-231.5" font-family="Helvetica,sans-Serif" font-size="10.00">../services/Services.h</text>
</a>
</g>
</g>
<!-- Node1&#45;&gt;Node16 -->
<g id="edge77" class="edge">
<title>Node1&#45;&gt;Node16</title>
<path fill="none" stroke="midnightblue" d="M1199.95,-338.34C1161.04,-328.58 1105.6,-314.21 1057.5,-300 999.57,-282.89 932.98,-260.45 893.67,-246.91"/>
<polygon fill="midnightblue" stroke="midnightblue" points="894.64,-243.54 884.05,-243.58 892.35,-250.16 894.64,-243.54"/>
</g>
<!-- Node3 -->
<g id="node3" class="node">
<title>Node3</title>
<g id="a_node3"><a xlink:title=" ">
<polygon fill="white" stroke="#bfbfbf" points="773,-56.5 773,-75.5 814,-75.5 814,-56.5 773,-56.5"/>
<text text-anchor="middle" x="793.5" y="-63.5" font-family="Helvetica,sans-Serif" font-size="10.00">string</text>
</a>
</g>
</g>
<!-- Node2&#45;&gt;Node3 -->
<g id="edge2" class="edge">
<title>Node2&#45;&gt;Node3</title>
<path fill="none" stroke="midnightblue" d="M1375.58,-168.46C1305.37,-155.97 1170.39,-132.01 1055.5,-112 971.84,-97.43 873.09,-80.56 824.16,-72.22"/>
<polygon fill="midnightblue" stroke="midnightblue" points="824.67,-68.75 814.22,-70.53 823.49,-75.65 824.67,-68.75"/>
</g>
<!-- Node4 -->
<g id="node4" class="node">
<title>Node4</title>
<g id="a_node4"><a xlink:title=" ">
<polygon fill="white" stroke="#bfbfbf" points="1282.5,-112.5 1282.5,-131.5 1326.5,-131.5 1326.5,-112.5 1282.5,-112.5"/>
<text text-anchor="middle" x="1304.5" y="-119.5" font-family="Helvetica,sans-Serif" font-size="10.00">vector</text>
</a>
</g>
</g>
<!-- Node2&#45;&gt;Node4 -->
<g id="edge3" class="edge">
<title>Node2&#45;&gt;Node4</title>
<path fill="none" stroke="midnightblue" d="M1404.64,-168.44C1385.23,-159.64 1354.77,-145.81 1332.54,-135.72"/>
<polygon fill="midnightblue" stroke="midnightblue" points="1333.82,-132.46 1323.27,-131.52 1330.93,-138.84 1333.82,-132.46"/>
</g>
<!-- Node5 -->
<g id="node5" class="node">
<title>Node5</title>
<g id="a_node5"><a xlink:href="Service_8h.html" target="_top" xlink:title="Service subscriber that can listen for events.">
<polygon fill="white" stroke="black" points="1199,-112.5 1199,-131.5 1264,-131.5 1264,-112.5 1199,-112.5"/>
<text text-anchor="middle" x="1231.5" y="-119.5" font-family="Helvetica,sans-Serif" font-size="10.00">../Service.h</text>
</a>
</g>
</g>
<!-- Node2&#45;&gt;Node5 -->
<g id="edge4" class="edge">
<title>Node2&#45;&gt;Node5</title>
<path fill="none" stroke="midnightblue" d="M1393.08,-168.44C1360.22,-159.2 1307.72,-144.44 1271.53,-134.26"/>
<polygon fill="midnightblue" stroke="midnightblue" points="1272.35,-130.85 1261.78,-131.52 1270.46,-137.59 1272.35,-130.85"/>
</g>
<!-- Node5&#45;&gt;Node3 -->
<g id="edge6" class="edge">
<title>Node5&#45;&gt;Node3</title>
<path fill="none" stroke="midnightblue" d="M1198.94,-116.99C1117.33,-106.92 904.87,-80.73 824.72,-70.85"/>
<polygon fill="midnightblue" stroke="midnightblue" points="824.67,-67.32 814.32,-69.57 823.81,-74.26 824.67,-67.32"/>
</g>
<!-- Node6 -->
<g id="node6" class="node">
<title>Node6</title>
<g id="a_node6"><a xlink:title=" ">
<polygon fill="white" stroke="#bfbfbf" points="1613.5,-56.5 1613.5,-75.5 1719.5,-75.5 1719.5,-56.5 1613.5,-56.5"/>
<text text-anchor="middle" x="1666.5" y="-63.5" font-family="Helvetica,sans-Serif" font-size="10.00">SDL2/SDL_events.h</text>
</a>
</g>
</g>
<!-- Node5&#45;&gt;Node6 -->
<g id="edge5" class="edge">
<title>Node5&#45;&gt;Node6</title>
<path fill="none" stroke="midnightblue" d="M1264.45,-113.6C1267.51,-113.02 1270.56,-112.47 1273.5,-112 1416.31,-88.99 1455.93,-94.37 1603.1,-76.13"/>
<polygon fill="midnightblue" stroke="midnightblue" points="1603.93,-79.55 1613.42,-74.83 1603.06,-72.61 1603.93,-79.55"/>
</g>
<!-- Node8&#45;&gt;Node3 -->
<g id="edge10" class="edge">
<title>Node8&#45;&gt;Node3</title>
<path fill="none" stroke="midnightblue" d="M1195.65,-224.5C1124.58,-213.11 1007.48,-193.66 999.5,-188 967.85,-165.55 987.1,-135.88 956.5,-112 917.59,-81.64 859.49,-71.75 824.19,-68.53"/>
<polygon fill="midnightblue" stroke="midnightblue" points="824.25,-65.03 814.01,-67.74 823.7,-72.01 824.25,-65.03"/>
</g>
<!-- Node9 -->
<g id="node9" class="node">
<title>Node9</title>
<g id="a_node9"><a xlink:title=" ">
<polygon fill="white" stroke="#bfbfbf" points="1640,-168.5 1640,-187.5 1699,-187.5 1699,-168.5 1640,-168.5"/>
<text text-anchor="middle" x="1669.5" y="-175.5" font-family="Helvetica,sans-Serif" font-size="10.00">stdexcept</text>
</a>
</g>
</g>
<!-- Node8&#45;&gt;Node9 -->
<g id="edge9" class="edge">
<title>Node8&#45;&gt;Node9</title>
<path fill="none" stroke="midnightblue" d="M1305.79,-228.42C1378.51,-222.04 1509.19,-209.04 1629.57,-188.18"/>
<polygon fill="midnightblue" stroke="midnightblue" points="1630.45,-191.58 1639.7,-186.4 1629.24,-184.68 1630.45,-191.58"/>
</g>
<!-- Node10&#45;&gt;Node3 -->
<g id="edge14" class="edge">
<title>Node10&#45;&gt;Node3</title>
<path fill="none" stroke="midnightblue" d="M1095.88,-280.47C1073,-263.55 1020.78,-224.22 979.5,-188 943.12,-156.08 941.89,-138.67 901.5,-112 877.25,-95.98 846.37,-83.81 823.84,-76.19"/>
<polygon fill="midnightblue" stroke="midnightblue" points="824.73,-72.8 814.14,-73.02 822.55,-79.45 824.73,-72.8"/>
</g>
<!-- Node10&#45;&gt;Node4 -->
<g id="edge16" class="edge">
<title>Node10&#45;&gt;Node4</title>
<path fill="none" stroke="midnightblue" d="M1148.24,-288.66C1271.44,-286.7 1636.07,-273.62 1708.5,-188 1742.46,-147.86 1831.71,-186.5 1373.5,-132 1361.47,-130.57 1348.27,-128.88 1336.67,-127.35"/>
<polygon fill="midnightblue" stroke="midnightblue" points="1336.92,-123.85 1326.55,-126 1336,-130.79 1336.92,-123.85"/>
</g>
<!-- Node10&#45;&gt;Node8 -->
<g id="edge17" class="edge">
<title>Node10&#45;&gt;Node8</title>
<path fill="none" stroke="midnightblue" d="M1130,-280.44C1153.58,-271.48 1190.82,-257.31 1217.46,-247.18"/>
<polygon fill="midnightblue" stroke="midnightblue" points="1219,-250.34 1227.1,-243.52 1216.51,-243.8 1219,-250.34"/>
</g>
<!-- Node11 -->
<g id="node11" class="node">
<title>Node11</title>
<g id="a_node11"><a xlink:title=" ">
<polygon fill="white" stroke="#bfbfbf" points="0,-112.5 0,-131.5 35,-131.5 35,-112.5 0,-112.5"/>
<text text-anchor="middle" x="17.5" y="-119.5" font-family="Helvetica,sans-Serif" font-size="10.00">map</text>
</a>
</g>
</g>
<!-- Node10&#45;&gt;Node11 -->
<g id="edge12" class="edge">
<title>Node10&#45;&gt;Node11</title>
<path fill="none" stroke="midnightblue" d="M1066.97,-286.78C907.08,-277.71 320.26,-241.41 142.5,-188 103.62,-176.32 62.61,-152.46 38.58,-137.13"/>
<polygon fill="midnightblue" stroke="midnightblue" points="40.24,-134.04 29.95,-131.52 36.43,-139.9 40.24,-134.04"/>
</g>
<!-- Node12 -->
<g id="node12" class="node">
<title>Node12</title>
<g id="a_node12"><a xlink:title=" ">
<polygon fill="white" stroke="#bfbfbf" points="1277,-168.5 1277,-187.5 1328,-187.5 1328,-168.5 1277,-168.5"/>
<text text-anchor="middle" x="1302.5" y="-175.5" font-family="Helvetica,sans-Serif" font-size="10.00">memory</text>
</a>
</g>
</g>
<!-- Node10&#45;&gt;Node12 -->
<g id="edge13" class="edge">
<title>Node10&#45;&gt;Node12</title>
<path fill="none" stroke="midnightblue" d="M1107.6,-280.48C1108.25,-266.6 1111.61,-239.16 1127.5,-224 1127.5,-224 1215.83,-201.29 1266.98,-188.13"/>
<polygon fill="midnightblue" stroke="midnightblue" points="1267.86,-191.52 1276.68,-185.64 1266.12,-184.74 1267.86,-191.52"/>
</g>
<!-- Node13 -->
<g id="node13" class="node">
<title>Node13</title>
<g id="a_node13"><a xlink:title=" ">
<polygon fill="white" stroke="#bfbfbf" points="1136,-224.5 1136,-243.5 1175,-243.5 1175,-224.5 1136,-224.5"/>
<text text-anchor="middle" x="1155.5" y="-231.5" font-family="Helvetica,sans-Serif" font-size="10.00">utility</text>
</a>
</g>
</g>
<!-- Node10&#45;&gt;Node13 -->
<g id="edge15" class="edge">
<title>Node10&#45;&gt;Node13</title>
<path fill="none" stroke="midnightblue" d="M1115.43,-280.08C1122.35,-272.3 1132.57,-260.8 1140.95,-251.37"/>
<polygon fill="midnightblue" stroke="midnightblue" points="1143.69,-253.55 1147.72,-243.75 1138.46,-248.9 1143.69,-253.55"/>
</g>
<!-- Node14 -->
<g id="node14" class="node">
<title>Node14</title>
<g id="a_node14"><a xlink:href="GameObject_8h.html" target="_top" xlink:title="Implementation of GameObject class.">
<polygon fill="white" stroke="black" points="1009,-168.5 1009,-187.5 1130,-187.5 1130,-168.5 1009,-168.5"/>
<text text-anchor="middle" x="1069.5" y="-175.5" font-family="Helvetica,sans-Serif" font-size="10.00">../entities/GameObject.h</text>
</a>
</g>
</g>
<!-- Node10&#45;&gt;Node14 -->
<g id="edge18" class="edge">
<title>Node10&#45;&gt;Node14</title>
<path fill="none" stroke="midnightblue" d="M1104.52,-280.37C1098.36,-262.54 1084.11,-221.3 1075.81,-197.27"/>
<polygon fill="midnightblue" stroke="midnightblue" points="1079.04,-195.9 1072.47,-187.59 1072.43,-198.19 1079.04,-195.9"/>
</g>
<!-- Node10&#45;&gt;Node16 -->
<g id="edge22" class="edge">
<title>Node10&#45;&gt;Node16</title>
<path fill="none" stroke="midnightblue" d="M1068.2,-280.44C1024.94,-271.02 955.33,-255.87 908.53,-245.68"/>
<polygon fill="midnightblue" stroke="midnightblue" points="909.13,-242.22 898.61,-243.52 907.64,-249.06 909.13,-242.22"/>
</g>
<!-- Node14&#45;&gt;Node3 -->
<g id="edge20" class="edge">
<title>Node14&#45;&gt;Node3</title>
<path fill="none" stroke="midnightblue" d="M1067.12,-168.22C1062.78,-153.98 1052.16,-126.03 1032.5,-112 999.48,-88.44 881.42,-74.9 824.55,-69.61"/>
<polygon fill="midnightblue" stroke="midnightblue" points="824.63,-66.1 814.36,-68.69 824,-73.07 824.63,-66.1"/>
</g>
<!-- Node14&#45;&gt;Node4 -->
<g id="edge21" class="edge">
<title>Node14&#45;&gt;Node4</title>
<path fill="none" stroke="midnightblue" d="M1111.89,-168.49C1151.18,-160.42 1211.47,-147.56 1272.41,-132.16"/>
<polygon fill="midnightblue" stroke="midnightblue" points="1273.37,-135.53 1282.2,-129.66 1271.64,-128.74 1273.37,-135.53"/>
</g>
<!-- Node15 -->
<g id="node15" class="node">
<title>Node15</title>
<g id="a_node15"><a xlink:title=" ">
<polygon fill="white" stroke="#bfbfbf" points="1002,-56.5 1002,-75.5 1073,-75.5 1073,-56.5 1002,-56.5"/>
<text text-anchor="middle" x="1037.5" y="-63.5" font-family="Helvetica,sans-Serif" font-size="10.00">SDL2/SDL.h</text>
</a>
</g>
</g>
<!-- Node14&#45;&gt;Node15 -->
<g id="edge19" class="edge">
<title>Node14&#45;&gt;Node15</title>
<path fill="none" stroke="midnightblue" d="M1071.38,-168.32C1073.76,-155.6 1076.82,-131.31 1070.5,-112 1067.01,-101.34 1059.93,-91.12 1053.21,-83.12"/>
<polygon fill="midnightblue" stroke="midnightblue" points="1055.8,-80.76 1046.52,-75.66 1050.6,-85.44 1055.8,-80.76"/>
</g>
<!-- Node16&#45;&gt;Node2 -->
<g id="edge76" class="edge">
<title>Node16&#45;&gt;Node2</title>
<path fill="none" stroke="midnightblue" d="M914.72,-227.99C1001.91,-220.04 1177.09,-203.89 1336.18,-188.12"/>
<polygon fill="midnightblue" stroke="midnightblue" points="1336.54,-191.6 1346.15,-187.13 1335.85,-184.64 1336.54,-191.6"/>
</g>
<!-- Node16&#45;&gt;Node12 -->
<g id="edge23" class="edge">
<title>Node16&#45;&gt;Node12</title>
<path fill="none" stroke="midnightblue" d="M914.63,-229.41C991.45,-223.86 1135.14,-211.49 1267.09,-187.81"/>
<polygon fill="midnightblue" stroke="midnightblue" points="1267.77,-191.24 1276.98,-186.01 1266.51,-184.36 1267.77,-191.24"/>
</g>
<!-- Node17 -->
<g id="node17" class="node">
<title>Node17</title>
<g id="a_node17"><a xlink:href="AssetService_8h.html" target="_top" xlink:title="Implementation of AssetService.">
<polygon fill="white" stroke="black" points="361,-168.5 361,-187.5 476,-187.5 476,-168.5 361,-168.5"/>
<text text-anchor="middle" x="418.5" y="-175.5" font-family="Helvetica,sans-Serif" font-size="10.00">assets/AssetService.h</text>
</a>
</g>
</g>
<!-- Node16&#45;&gt;Node17 -->
<g id="edge24" class="edge">
<title>Node16&#45;&gt;Node17</title>
<path fill="none" stroke="midnightblue" d="M804.34,-226.6C733.35,-218.32 605.92,-203.27 486.3,-188.09"/>
<polygon fill="midnightblue" stroke="midnightblue" points="486.6,-184.6 476.24,-186.81 485.72,-191.54 486.6,-184.6"/>
</g>
<!-- Node26 -->
<g id="node26" class="node">
<title>Node26</title>
<g id="a_node26"><a xlink:href="AudioService_8h.html" target="_top" xlink:title="Default audio service, can actually play audio.">
<polygon fill="white" stroke="black" points="494.5,-168.5 494.5,-187.5 602.5,-187.5 602.5,-168.5 494.5,-168.5"/>
<text text-anchor="middle" x="548.5" y="-175.5" font-family="Helvetica,sans-Serif" font-size="10.00">audio/AudioService.h</text>
</a>
</g>
</g>
<!-- Node16&#45;&gt;Node26 -->
<g id="edge42" class="edge">
<title>Node16&#45;&gt;Node26</title>
<path fill="none" stroke="midnightblue" d="M810.22,-224.44C755.17,-214.89 666.1,-199.42 607.42,-189.23"/>
<polygon fill="midnightblue" stroke="midnightblue" points="608,-185.78 597.55,-187.52 606.8,-192.68 608,-185.78"/>
</g>
<!-- Node27 -->
<g id="node27" class="node">
<title>Node27</title>
<g id="a_node27"><a xlink:href="ConfigService_8h.html" target="_top" xlink:title="Header for default Config Service.">
<polygon fill="white" stroke="black" points="152,-168.5 152,-187.5 265,-187.5 265,-168.5 152,-168.5"/>
<text text-anchor="middle" x="208.5" y="-175.5" font-family="Helvetica,sans-Serif" font-size="10.00">config/ConfigService.h</text>
</a>
</g>
</g>
<!-- Node16&#45;&gt;Node27 -->
<g id="edge46" class="edge">
<title>Node16&#45;&gt;Node27</title>
<path fill="none" stroke="midnightblue" d="M804.28,-228.42C685.16,-218.54 404.45,-195.25 275.46,-184.55"/>
<polygon fill="midnightblue" stroke="midnightblue" points="275.57,-181.05 265.32,-183.71 274.99,-188.03 275.57,-181.05"/>
</g>
<!-- Node29 -->
<g id="node29" class="node">
<title>Node29</title>
<g id="a_node29"><a xlink:href="DisplayService_8h.html" target="_top" xlink:title="Service that encapsulates SDL display related functionality.">
<polygon fill="white" stroke="black" points="792.5,-168.5 792.5,-187.5 914.5,-187.5 914.5,-168.5 792.5,-168.5"/>
<text text-anchor="middle" x="853.5" y="-175.5" font-family="Helvetica,sans-Serif" font-size="10.00">display/DisplayService.h</text>
</a>
</g>
</g>
<!-- Node16&#45;&gt;Node29 -->
<g id="edge50" class="edge">
<title>Node16&#45;&gt;Node29</title>
<path fill="none" stroke="midnightblue" d="M858.51,-224.08C857.71,-216.93 856.57,-206.64 855.58,-197.69"/>
<polygon fill="midnightblue" stroke="midnightblue" points="859.06,-197.3 854.47,-187.75 852.1,-198.08 859.06,-197.3"/>
</g>
<!-- Node30 -->
<g id="node30" class="node">
<title>Node30</title>
<g id="a_node30"><a xlink:href="EventQueue_8h.html" target="_top" xlink:title="Handles SDL_Events from main SDL_Queue. Can be hooked into by other services and notified when change...">
<polygon fill="white" stroke="black" points="1148.5,-168.5 1148.5,-187.5 1258.5,-187.5 1258.5,-168.5 1148.5,-168.5"/>
<text text-anchor="middle" x="1203.5" y="-175.5" font-family="Helvetica,sans-Serif" font-size="10.00">events/EventQueue.h</text>
</a>
</g>
</g>
<!-- Node16&#45;&gt;Node30 -->
<g id="edge55" class="edge">
<title>Node16&#45;&gt;Node30</title>
<path fill="none" stroke="midnightblue" d="M914.01,-224.44C975.15,-214.85 1074.24,-199.29 1139.14,-189.1"/>
<polygon fill="midnightblue" stroke="midnightblue" points="1139.91,-192.52 1149.25,-187.52 1138.83,-185.61 1139.91,-192.52"/>
</g>
<!-- Node31 -->
<g id="node31" class="node">
<title>Node31</title>
<g id="a_node31"><a xlink:href="InputService_8h.html" target="_top" xlink:title="General Purpose input listener. Handles Mouse, Keyboard, Joystick.">
<polygon fill="white" stroke="black" points="1519,-168.5 1519,-187.5 1622,-187.5 1622,-168.5 1519,-168.5"/>
<text text-anchor="middle" x="1570.5" y="-175.5" font-family="Helvetica,sans-Serif" font-size="10.00">input/InputService.h</text>
</a>
</g>
</g>
<!-- Node16&#45;&gt;Node31 -->
<g id="edge59" class="edge">
<title>Node16&#45;&gt;Node31</title>
<path fill="none" stroke="midnightblue" d="M914.84,-230.61C1025.53,-225.53 1282.26,-212.16 1508.87,-187.98"/>
<polygon fill="midnightblue" stroke="midnightblue" points="1509.38,-191.44 1518.95,-186.89 1508.63,-184.48 1509.38,-191.44"/>
</g>
<!-- Node39 -->
<g id="node39" class="node">
<title>Node39</title>
<g id="a_node39"><a xlink:href="DebugLoggingService_8h.html" target="_top" xlink:title="Logging service that does the logging. Used for development.">
<polygon fill="white" stroke="black" points="621,-168.5 621,-187.5 774,-187.5 774,-168.5 621,-168.5"/>
<text text-anchor="middle" x="697.5" y="-175.5" font-family="Helvetica,sans-Serif" font-size="10.00">logging/DebugLoggingService.h</text>
</a>
</g>
</g>
<!-- Node16&#45;&gt;Node39 -->
<g id="edge72" class="edge">
<title>Node16&#45;&gt;Node39</title>
<path fill="none" stroke="midnightblue" d="M833.83,-224.44C806.58,-215.36 763.32,-200.94 732.85,-190.78"/>
<polygon fill="midnightblue" stroke="midnightblue" points="733.64,-187.36 723.05,-187.52 731.43,-194 733.64,-187.36"/>
</g>
<!-- Node17&#45;&gt;Node3 -->
<g id="edge26" class="edge">
<title>Node17&#45;&gt;Node3</title>
<path fill="none" stroke="midnightblue" d="M436.23,-168.5C465.2,-154.89 524.74,-128.13 577.5,-112 642.34,-92.18 720.77,-78.25 763.01,-71.55"/>
<polygon fill="midnightblue" stroke="midnightblue" points="763.6,-75 772.94,-70 762.52,-68.08 763.6,-75"/>
</g>
<!-- Node17&#45;&gt;Node11 -->
<g id="edge25" class="edge">
<title>Node17&#45;&gt;Node11</title>
<path fill="none" stroke="midnightblue" d="M360.86,-173.69C288.91,-168.75 162.07,-157.42 44.93,-131.63"/>
<polygon fill="midnightblue" stroke="midnightblue" points="45.6,-128.2 35.07,-129.43 44.07,-135.03 45.6,-128.2"/>
</g>
<!-- Node18 -->
<g id="node18" class="node">
<title>Node18</title>
<g id="a_node18"><a xlink:href="Font_8h.html" target="_top" xlink:title="Easy interface to interact with SDL fonts.">
<polygon fill="white" stroke="black" points="124,-112.5 124,-131.5 215,-131.5 215,-112.5 124,-112.5"/>
<text text-anchor="middle" x="169.5" y="-119.5" font-family="Helvetica,sans-Serif" font-size="10.00">../../assets/Font.h</text>
</a>
</g>
</g>
<!-- Node17&#45;&gt;Node18 -->
<g id="edge27" class="edge">
<title>Node17&#45;&gt;Node18</title>
<path fill="none" stroke="midnightblue" d="M379.05,-168.44C335.61,-159.02 265.71,-143.87 218.72,-133.68"/>
<polygon fill="midnightblue" stroke="midnightblue" points="219.28,-130.22 208.77,-131.52 217.8,-137.06 219.28,-130.22"/>
</g>
<!-- Node22 -->
<g id="node22" class="node">
<title>Node22</title>
<g id="a_node22"><a xlink:href="Sound_8h.html" target="_top" xlink:title="Implementation of Sound.">
<polygon fill="white" stroke="black" points="393,-112.5 393,-131.5 492,-131.5 492,-112.5 393,-112.5"/>
<text text-anchor="middle" x="442.5" y="-119.5" font-family="Helvetica,sans-Serif" font-size="10.00">../../assets/Sound.h</text>
</a>
</g>
</g>
<!-- Node17&#45;&gt;Node22 -->
<g id="edge32" class="edge">
<title>Node17&#45;&gt;Node22</title>
<path fill="none" stroke="midnightblue" d="M422.46,-168.08C425.71,-160.77 430.42,-150.18 434.45,-141.1"/>
<polygon fill="midnightblue" stroke="midnightblue" points="437.75,-142.31 438.61,-131.75 431.35,-139.47 437.75,-142.31"/>
</g>
<!-- Node24 -->
<g id="node24" class="node">
<title>Node24</title>
<g id="a_node24"><a xlink:href="Stream_8h.html" target="_top" xlink:title="Wrapper for sdl stream including ability to store stream pointer. Use for single instance sounds like...">
<polygon fill="white" stroke="black" points="272,-112.5 272,-131.5 375,-131.5 375,-112.5 272,-112.5"/>
<text text-anchor="middle" x="323.5" y="-119.5" font-family="Helvetica,sans-Serif" font-size="10.00">../../assets/Stream.h</text>
</a>
</g>
</g>
<!-- Node17&#45;&gt;Node24 -->
<g id="edge35" class="edge">
<title>Node17&#45;&gt;Node24</title>
<path fill="none" stroke="midnightblue" d="M403.24,-168.32C388.28,-159.82 365.25,-146.73 347.77,-136.8"/>
<polygon fill="midnightblue" stroke="midnightblue" points="349.15,-133.55 338.73,-131.65 345.69,-139.64 349.15,-133.55"/>
</g>
<!-- Node25 -->
<g id="node25" class="node">
<title>Node25</title>
<g id="a_node25"><a xlink:href="Texture_8h.html" target="_top" xlink:title="Easy interface to interact with sdl bitmaps.">
<polygon fill="white" stroke="black" points="586.5,-112.5 586.5,-131.5 690.5,-131.5 690.5,-112.5 586.5,-112.5"/>
<text text-anchor="middle" x="638.5" y="-119.5" font-family="Helvetica,sans-Serif" font-size="10.00">../../assets/Texture.h</text>
</a>
</g>
</g>
<!-- Node17&#45;&gt;Node25 -->
<g id="edge38" class="edge">
<title>Node17&#45;&gt;Node25</title>
<path fill="none" stroke="midnightblue" d="M453.36,-168.44C491.42,-159.1 552.46,-144.12 593.96,-133.93"/>
<polygon fill="midnightblue" stroke="midnightblue" points="594.93,-137.3 603.8,-131.52 593.26,-130.5 594.93,-137.3"/>
</g>
<!-- Node18&#45;&gt;Node3 -->
<g id="edge29" class="edge">
<title>Node18&#45;&gt;Node3</title>
<path fill="none" stroke="midnightblue" d="M215.32,-113.79C220.1,-113.14 224.9,-112.53 229.5,-112 432.37,-88.72 677.68,-73.57 762.72,-68.7"/>
<polygon fill="midnightblue" stroke="midnightblue" points="763.18,-72.18 772.96,-68.12 762.78,-65.2 763.18,-72.18"/>
</g>
<!-- Node19 -->
<g id="node19" class="node">
<title>Node19</title>
<g id="a_node19"><a xlink:title=" ">
<polygon fill="white" stroke="#bfbfbf" points="126.5,-56.5 126.5,-75.5 212.5,-75.5 212.5,-56.5 126.5,-56.5"/>
<text text-anchor="middle" x="169.5" y="-63.5" font-family="Helvetica,sans-Serif" font-size="10.00">SDL2/SDL_ttf.h</text>
</a>
</g>
</g>
<!-- Node18&#45;&gt;Node19 -->
<g id="edge28" class="edge">
<title>Node18&#45;&gt;Node19</title>
<path fill="none" stroke="midnightblue" d="M169.5,-112.08C169.5,-105.01 169.5,-94.86 169.5,-85.99"/>
<polygon fill="midnightblue" stroke="midnightblue" points="173,-85.75 169.5,-75.75 166,-85.75 173,-85.75"/>
</g>
<!-- Node20 -->
<g id="node20" class="node">
<title>Node20</title>
<g id="a_node20"><a xlink:href="Color_8h.html" target="_top" xlink:title="Helpers for creating colors without accessing SDL api directly.">
<polygon fill="white" stroke="black" points="481.5,-56.5 481.5,-75.5 559.5,-75.5 559.5,-56.5 481.5,-56.5"/>
<text text-anchor="middle" x="520.5" y="-63.5" font-family="Helvetica,sans-Serif" font-size="10.00">../color/Color.h</text>
</a>
</g>
</g>
<!-- Node18&#45;&gt;Node20 -->
<g id="edge30" class="edge">
<title>Node18&#45;&gt;Node20</title>
<path fill="none" stroke="midnightblue" d="M215.03,-114C281.1,-103.83 403.1,-85.06 471.22,-74.58"/>
<polygon fill="midnightblue" stroke="midnightblue" points="471.92,-78.02 481.27,-73.04 470.85,-71.1 471.92,-78.02"/>
</g>
<!-- Node21 -->
<g id="node21" class="node">
<title>Node21</title>
<g id="a_node21"><a xlink:title=" ">
<polygon fill="white" stroke="#bfbfbf" points="451.5,-0.5 451.5,-19.5 589.5,-19.5 589.5,-0.5 451.5,-0.5"/>
<text text-anchor="middle" x="520.5" y="-7.5" font-family="Helvetica,sans-Serif" font-size="10.00">SDL2/SDL2_gfxPrimitives.h</text>
</a>
</g>
</g>
<!-- Node20&#45;&gt;Node21 -->
<g id="edge31" class="edge">
<title>Node20&#45;&gt;Node21</title>
<path fill="none" stroke="midnightblue" d="M520.5,-56.08C520.5,-49.01 520.5,-38.86 520.5,-29.99"/>
<polygon fill="midnightblue" stroke="midnightblue" points="524,-29.75 520.5,-19.75 517,-29.75 524,-29.75"/>
</g>
<!-- Node22&#45;&gt;Node3 -->
<g id="edge34" class="edge">
<title>Node22&#45;&gt;Node3</title>
<path fill="none" stroke="midnightblue" d="M492.05,-113.38C565.67,-102.05 701.8,-81.11 762.68,-71.74"/>
<polygon fill="midnightblue" stroke="midnightblue" points="763.45,-75.16 772.8,-70.18 762.38,-68.25 763.45,-75.16"/>
</g>
<!-- Node23 -->
<g id="node23" class="node">
<title>Node23</title>
<g id="a_node23"><a xlink:title=" ">
<polygon fill="white" stroke="#bfbfbf" points="318.5,-56.5 318.5,-75.5 418.5,-75.5 418.5,-56.5 318.5,-56.5"/>
<text text-anchor="middle" x="368.5" y="-63.5" font-family="Helvetica,sans-Serif" font-size="10.00">SDL2/SDL_mixer.h</text>
</a>
</g>
</g>
<!-- Node22&#45;&gt;Node23 -->
<g id="edge33" class="edge">
<title>Node22&#45;&gt;Node23</title>
<path fill="none" stroke="midnightblue" d="M430.61,-112.32C419.35,-104.11 402.21,-91.6 388.79,-81.81"/>
<polygon fill="midnightblue" stroke="midnightblue" points="390.75,-78.9 380.61,-75.83 386.62,-84.56 390.75,-78.9"/>
</g>
<!-- Node24&#45;&gt;Node3 -->
<g id="edge37" class="edge">
<title>Node24&#45;&gt;Node3</title>
<path fill="none" stroke="midnightblue" d="M375.19,-113.11C378,-112.73 380.78,-112.35 383.5,-112 525.05,-93.62 694.75,-76.58 762.94,-69.94"/>
<polygon fill="midnightblue" stroke="midnightblue" points="763.37,-73.41 772.99,-68.96 762.7,-66.44 763.37,-73.41"/>
</g>
<!-- Node24&#45;&gt;Node23 -->
<g id="edge36" class="edge">
<title>Node24&#45;&gt;Node23</title>
<path fill="none" stroke="midnightblue" d="M330.93,-112.08C337.35,-104.38 346.81,-93.03 354.62,-83.65"/>
<polygon fill="midnightblue" stroke="midnightblue" points="357.49,-85.67 361.21,-75.75 352.12,-81.19 357.49,-85.67"/>
</g>
<!-- Node25&#45;&gt;Node3 -->
<g id="edge40" class="edge">
<title>Node25&#45;&gt;Node3</title>
<path fill="none" stroke="midnightblue" d="M663.06,-112.44C690.09,-103.03 733.58,-87.87 762.83,-77.68"/>
<polygon fill="midnightblue" stroke="midnightblue" points="764.24,-80.9 772.53,-74.3 761.94,-74.29 764.24,-80.9"/>
</g>
<!-- Node25&#45;&gt;Node15 -->
<g id="edge39" class="edge">
<title>Node25&#45;&gt;Node15</title>
<path fill="none" stroke="midnightblue" d="M690.66,-113.94C769.34,-103.29 917.11,-83.29 991.8,-73.18"/>
<polygon fill="midnightblue" stroke="midnightblue" points="992.4,-76.64 1001.84,-71.83 991.46,-69.7 992.4,-76.64"/>
</g>
<!-- Node25&#45;&gt;Node20 -->
<g id="edge41" class="edge">
<title>Node25&#45;&gt;Node20</title>
<path fill="none" stroke="midnightblue" d="M619.8,-112.44C600.56,-103.64 570.35,-89.81 548.3,-79.72"/>
<polygon fill="midnightblue" stroke="midnightblue" points="549.66,-76.5 539.11,-75.52 546.75,-82.86 549.66,-76.5"/>
</g>
<!-- Node26&#45;&gt;Node3 -->
<g id="edge43" class="edge">
<title>Node26&#45;&gt;Node3</title>
<path fill="none" stroke="midnightblue" d="M589.52,-168.48C620.65,-161.15 663.98,-149.04 699.5,-132 714.66,-124.73 750.95,-98.59 773.75,-81.76"/>
<polygon fill="midnightblue" stroke="midnightblue" points="776.09,-84.38 782.03,-75.61 771.92,-78.76 776.09,-84.38"/>
</g>
<!-- Node26&#45;&gt;Node22 -->
<g id="edge44" class="edge">
<title>Node26&#45;&gt;Node22</title>
<path fill="none" stroke="midnightblue" d="M531.47,-168.32C514.47,-159.66 488.12,-146.24 468.51,-136.25"/>
<polygon fill="midnightblue" stroke="midnightblue" points="469.99,-133.08 459.49,-131.65 466.81,-139.31 469.99,-133.08"/>
</g>
<!-- Node26&#45;&gt;Node24 -->
<g id="edge45" class="edge">
<title>Node26&#45;&gt;Node24</title>
<path fill="none" stroke="midnightblue" d="M512.85,-168.44C473.84,-159.08 411.23,-144.06 368.78,-133.87"/>
<polygon fill="midnightblue" stroke="midnightblue" points="369.53,-130.45 358.99,-131.52 367.89,-137.25 369.53,-130.45"/>
</g>
<!-- Node27&#45;&gt;Node3 -->
<g id="edge49" class="edge">
<title>Node27&#45;&gt;Node3</title>
<path fill="none" stroke="midnightblue" d="M212.73,-168.38C220.39,-153.83 238.05,-124.76 262.5,-112 306.9,-88.82 656.18,-72.66 762.74,-68.22"/>
<polygon fill="midnightblue" stroke="midnightblue" points="762.99,-71.72 772.84,-67.81 762.7,-64.72 762.99,-71.72"/>
</g>
<!-- Node27&#45;&gt;Node11 -->
<g id="edge47" class="edge">
<title>Node27&#45;&gt;Node11</title>
<path fill="none" stroke="midnightblue" d="M175.37,-168.47C144.15,-160.31 95.86,-147.37 45.03,-132.04"/>
<polygon fill="midnightblue" stroke="midnightblue" points="45.76,-128.6 35.18,-129.04 43.73,-135.3 45.76,-128.6"/>
</g>
<!-- Node28 -->
<g id="node28" class="node">
<title>Node28</title>
<g id="a_node28"><a xlink:title=" ">
<polygon fill="white" stroke="#bfbfbf" points="53.5,-112.5 53.5,-131.5 105.5,-131.5 105.5,-112.5 53.5,-112.5"/>
<text text-anchor="middle" x="79.5" y="-119.5" font-family="Helvetica,sans-Serif" font-size="10.00">sstream</text>
</a>
</g>
</g>
<!-- Node27&#45;&gt;Node28 -->
<g id="edge48" class="edge">
<title>Node27&#45;&gt;Node28</title>
<path fill="none" stroke="midnightblue" d="M188.06,-168.44C166.83,-159.56 133.4,-145.56 109.25,-135.45"/>
<polygon fill="midnightblue" stroke="midnightblue" points="110.42,-132.15 99.84,-131.52 107.72,-138.61 110.42,-132.15"/>
</g>
<!-- Node29&#45;&gt;Node3 -->
<g id="edge52" class="edge">
<title>Node29&#45;&gt;Node3</title>
<path fill="none" stroke="midnightblue" d="M863.46,-168.29C876.8,-155.54 897.49,-131.21 885.5,-112 872.15,-90.61 845.36,-79.11 824.12,-73.11"/>
<polygon fill="midnightblue" stroke="midnightblue" points="824.78,-69.66 814.22,-70.58 823.05,-76.44 824.78,-69.66"/>
</g>
<!-- Node29&#45;&gt;Node5 -->
<g id="edge54" class="edge">
<title>Node29&#45;&gt;Node5</title>
<path fill="none" stroke="midnightblue" d="M913.4,-168.44C990.07,-157.49 1121.03,-138.78 1188.51,-129.14"/>
<polygon fill="midnightblue" stroke="midnightblue" points="1189.37,-132.55 1198.78,-127.67 1188.38,-125.62 1189.37,-132.55"/>
</g>
<!-- Node29&#45;&gt;Node15 -->
<g id="edge51" class="edge">
<title>Node29&#45;&gt;Node15</title>
<path fill="none" stroke="midnightblue" d="M867.94,-168.37C899.65,-149.41 975.61,-104 1014.18,-80.94"/>
<polygon fill="midnightblue" stroke="midnightblue" points="1016.34,-83.73 1023.13,-75.59 1012.75,-77.72 1016.34,-83.73"/>
</g>
<!-- Node29&#45;&gt;Node20 -->
<g id="edge53" class="edge">
<title>Node29&#45;&gt;Node20</title>
<path fill="none" stroke="midnightblue" d="M792.37,-169.26C716.84,-159.35 595.97,-142.24 577.5,-132 557.28,-120.79 540.76,-99.54 530.8,-84.39"/>
<polygon fill="midnightblue" stroke="midnightblue" points="533.75,-82.5 525.48,-75.89 527.82,-86.22 533.75,-82.5"/>
</g>
<!-- Node30&#45;&gt;Node4 -->
<g id="edge57" class="edge">
<title>Node30&#45;&gt;Node4</title>
<path fill="none" stroke="midnightblue" d="M1219.73,-168.32C1235.85,-159.7 1260.8,-146.36 1279.46,-136.39"/>
<polygon fill="midnightblue" stroke="midnightblue" points="1281.14,-139.46 1288.31,-131.65 1277.84,-133.28 1281.14,-139.46"/>
</g>
<!-- Node30&#45;&gt;Node5 -->
<g id="edge58" class="edge">
<title>Node30&#45;&gt;Node5</title>
<path fill="none" stroke="midnightblue" d="M1208.12,-168.08C1211.96,-160.69 1217.52,-149.95 1222.26,-140.81"/>
<polygon fill="midnightblue" stroke="midnightblue" points="1225.47,-142.24 1226.96,-131.75 1219.25,-139.02 1225.47,-142.24"/>
</g>
<!-- Node30&#45;&gt;Node15 -->
<g id="edge56" class="edge">
<title>Node30&#45;&gt;Node15</title>
<path fill="none" stroke="midnightblue" d="M1190.47,-168.37C1161.99,-149.49 1093.92,-104.38 1058.98,-81.24"/>
<polygon fill="midnightblue" stroke="midnightblue" points="1060.73,-78.2 1050.47,-75.59 1056.87,-84.03 1060.73,-78.2"/>
</g>
<!-- Node31&#45;&gt;Node3 -->
<g id="edge62" class="edge">
<title>Node31&#45;&gt;Node3</title>
<path fill="none" stroke="midnightblue" d="M1518.83,-168.99C1478.46,-161.83 1421.37,-149.72 1373.5,-132 1355.6,-125.37 1353.82,-117.34 1335.5,-112 1286.37,-97.68 931.72,-75.34 824.27,-68.83"/>
<polygon fill="midnightblue" stroke="midnightblue" points="824.29,-65.33 814.1,-68.22 823.87,-72.32 824.29,-65.33"/>
</g>
<!-- Node31&#45;&gt;Node5 -->
<g id="edge63" class="edge">
<title>Node31&#45;&gt;Node5</title>
<path fill="none" stroke="midnightblue" d="M1518.84,-169.35C1446.5,-158.61 1319.6,-139.67 1273.99,-131.93"/>
<polygon fill="midnightblue" stroke="midnightblue" points="1274.48,-128.46 1264.02,-130.17 1273.26,-135.35 1274.48,-128.46"/>
</g>
<!-- Node31&#45;&gt;Node6 -->
<g id="edge60" class="edge">
<title>Node31&#45;&gt;Node6</title>
<path fill="none" stroke="midnightblue" d="M1594.66,-168.48C1611.75,-161.28 1633.96,-149.33 1647.5,-132 1657.89,-118.69 1662.61,-99.86 1664.74,-85.89"/>
<polygon fill="midnightblue" stroke="midnightblue" points="1668.22,-86.28 1665.96,-75.93 1661.27,-85.43 1668.22,-86.28"/>
</g>
<!-- Node32 -->
<g id="node32" class="node">
<title>Node32</title>
<g id="a_node32"><a xlink:title=" ">
<polygon fill="white" stroke="#bfbfbf" points="1382.5,-112.5 1382.5,-131.5 1436.5,-131.5 1436.5,-112.5 1382.5,-112.5"/>
<text text-anchor="middle" x="1409.5" y="-119.5" font-family="Helvetica,sans-Serif" font-size="10.00">iostream</text>
</a>
</g>
</g>
<!-- Node31&#45;&gt;Node32 -->
<g id="edge61" class="edge">
<title>Node31&#45;&gt;Node32</title>
<path fill="none" stroke="midnightblue" d="M1544.99,-168.44C1517.9,-159.36 1474.91,-144.94 1444.63,-134.78"/>
<polygon fill="midnightblue" stroke="midnightblue" points="1445.49,-131.38 1434.89,-131.52 1443.26,-138.01 1445.49,-131.38"/>
</g>
<!-- Node33 -->
<g id="node33" class="node">
<title>Node33</title>
<g id="a_node33"><a xlink:href="JoystickState_8h.html" target="_top" xlink:title="Container for storing Joystick state.">
<polygon fill="white" stroke="black" points="1695,-112.5 1695,-131.5 1778,-131.5 1778,-112.5 1695,-112.5"/>
<text text-anchor="middle" x="1736.5" y="-119.5" font-family="Helvetica,sans-Serif" font-size="10.00">JoystickState.h</text>
</a>
</g>
</g>
<!-- Node31&#45;&gt;Node33 -->
<g id="edge64" class="edge">
<title>Node31&#45;&gt;Node33</title>
<path fill="none" stroke="midnightblue" d="M1596.8,-168.44C1624.85,-159.32 1669.44,-144.81 1700.68,-134.65"/>
<polygon fill="midnightblue" stroke="midnightblue" points="1701.89,-137.94 1710.32,-131.52 1699.73,-131.28 1701.89,-137.94"/>
</g>
<!-- Node35 -->
<g id="node35" class="node">
<title>Node35</title>
<g id="a_node35"><a xlink:href="KeyboardState_8h.html" target="_top" xlink:title="Container for storing Keyboard state.">
<polygon fill="white" stroke="black" points="1454.5,-112.5 1454.5,-131.5 1542.5,-131.5 1542.5,-112.5 1454.5,-112.5"/>
<text text-anchor="middle" x="1498.5" y="-119.5" font-family="Helvetica,sans-Serif" font-size="10.00">KeyboardState.h</text>
</a>
</g>
</g>
<!-- Node31&#45;&gt;Node35 -->
<g id="edge67" class="edge">
<title>Node31&#45;&gt;Node35</title>
<path fill="none" stroke="midnightblue" d="M1558.93,-168.32C1548.08,-160.18 1531.62,-147.84 1518.62,-138.09"/>
<polygon fill="midnightblue" stroke="midnightblue" points="1520.38,-135.03 1510.28,-131.83 1516.18,-140.63 1520.38,-135.03"/>
</g>
<!-- Node37 -->
<g id="node37" class="node">
<title>Node37</title>
<g id="a_node37"><a xlink:href="MouseState_8h.html" target="_top" xlink:title="Container for storing Mouse state.">
<polygon fill="white" stroke="black" points="1561,-112.5 1561,-131.5 1638,-131.5 1638,-112.5 1561,-112.5"/>
<text text-anchor="middle" x="1599.5" y="-119.5" font-family="Helvetica,sans-Serif" font-size="10.00">MouseState.h</text>
</a>
</g>
</g>
<!-- Node31&#45;&gt;Node37 -->
<g id="edge69" class="edge">
<title>Node31&#45;&gt;Node37</title>
<path fill="none" stroke="midnightblue" d="M1575.29,-168.08C1579.26,-160.69 1585.03,-149.95 1589.93,-140.81"/>
<polygon fill="midnightblue" stroke="midnightblue" points="1593.15,-142.22 1594.8,-131.75 1586.99,-138.91 1593.15,-142.22"/>
</g>
<!-- Node33&#45;&gt;Node6 -->
<g id="edge65" class="edge">
<title>Node33&#45;&gt;Node6</title>
<path fill="none" stroke="midnightblue" d="M1725.25,-112.32C1714.7,-104.18 1698.7,-91.84 1686.06,-82.09"/>
<polygon fill="midnightblue" stroke="midnightblue" points="1688.01,-79.17 1677.95,-75.83 1683.73,-84.71 1688.01,-79.17"/>
</g>
<!-- Node34 -->
<g id="node34" class="node">
<title>Node34</title>
<g id="a_node34"><a xlink:href="JoystickCodes_8h.html" target="_top" xlink:title="Defines for codes used for joystick.">
<polygon fill="white" stroke="black" points="1737.5,-56.5 1737.5,-75.5 1825.5,-75.5 1825.5,-56.5 1737.5,-56.5"/>
<text text-anchor="middle" x="1781.5" y="-63.5" font-family="Helvetica,sans-Serif" font-size="10.00">JoystickCodes.h</text>
</a>
</g>
</g>
<!-- Node33&#45;&gt;Node34 -->
<g id="edge66" class="edge">
<title>Node33&#45;&gt;Node34</title>
<path fill="none" stroke="midnightblue" d="M1743.93,-112.08C1750.35,-104.38 1759.81,-93.03 1767.62,-83.65"/>
<polygon fill="midnightblue" stroke="midnightblue" points="1770.49,-85.67 1774.21,-75.75 1765.12,-81.19 1770.49,-85.67"/>
</g>
<!-- Node36 -->
<g id="node36" class="node">
<title>Node36</title>
<g id="a_node36"><a xlink:href="KeyboardKeys_8h.html" target="_top" xlink:title="Defenitions of keys that can be used by input manager.">
<polygon fill="white" stroke="black" points="1385.5,-56.5 1385.5,-75.5 1471.5,-75.5 1471.5,-56.5 1385.5,-56.5"/>
<text text-anchor="middle" x="1428.5" y="-63.5" font-family="Helvetica,sans-Serif" font-size="10.00">KeyboardKeys.h</text>
</a>
</g>
</g>
<!-- Node35&#45;&gt;Node36 -->
<g id="edge68" class="edge">
<title>Node35&#45;&gt;Node36</title>
<path fill="none" stroke="midnightblue" d="M1487.25,-112.32C1476.7,-104.18 1460.7,-91.84 1448.06,-82.09"/>
<polygon fill="midnightblue" stroke="midnightblue" points="1450.01,-79.17 1439.95,-75.83 1445.73,-84.71 1450.01,-79.17"/>
</g>
<!-- Node37&#45;&gt;Node6 -->
<g id="edge70" class="edge">
<title>Node37&#45;&gt;Node6</title>
<path fill="none" stroke="midnightblue" d="M1610.26,-112.32C1620.27,-104.26 1635.39,-92.08 1647.43,-82.37"/>
<polygon fill="midnightblue" stroke="midnightblue" points="1649.95,-84.83 1655.54,-75.83 1645.56,-79.38 1649.95,-84.83"/>
</g>
<!-- Node38 -->
<g id="node38" class="node">
<title>Node38</title>
<g id="a_node38"><a xlink:title=" ">
<polygon fill="white" stroke="#bfbfbf" points="1489.5,-56.5 1489.5,-75.5 1595.5,-75.5 1595.5,-56.5 1489.5,-56.5"/>
<text text-anchor="middle" x="1542.5" y="-63.5" font-family="Helvetica,sans-Serif" font-size="10.00">SDL2/SDL_mouse.h</text>
</a>
</g>
</g>
<!-- Node37&#45;&gt;Node38 -->
<g id="edge71" class="edge">
<title>Node37&#45;&gt;Node38</title>
<path fill="none" stroke="midnightblue" d="M1590.34,-112.32C1582,-104.42 1569.47,-92.55 1559.32,-82.94"/>
<polygon fill="midnightblue" stroke="midnightblue" points="1561.49,-80.17 1551.82,-75.83 1556.68,-85.25 1561.49,-80.17"/>
</g>
<!-- Node39&#45;&gt;Node3 -->
<g id="edge73" class="edge">
<title>Node39&#45;&gt;Node3</title>
<path fill="none" stroke="midnightblue" d="M705.03,-168.37C721.02,-150.05 758.55,-107.05 779.22,-83.36"/>
<polygon fill="midnightblue" stroke="midnightblue" points="782.06,-85.43 786,-75.59 776.79,-80.82 782.06,-85.43"/>
</g>
<!-- Node40 -->
<g id="node40" class="node">
<title>Node40</title>
<g id="a_node40"><a xlink:href="LoggingService_8h.html" target="_top" xlink:title="Default logging service. Does nothing. Use in production.">
<polygon fill="white" stroke="black" points="784.5,-112.5 784.5,-131.5 876.5,-131.5 876.5,-112.5 784.5,-112.5"/>
<text text-anchor="middle" x="830.5" y="-119.5" font-family="Helvetica,sans-Serif" font-size="10.00">LoggingService.h</text>
</a>
</g>
</g>
<!-- Node39&#45;&gt;Node40 -->
<g id="edge74" class="edge">
<title>Node39&#45;&gt;Node40</title>
<path fill="none" stroke="midnightblue" d="M718.57,-168.44C740.56,-159.52 775.23,-145.44 800.16,-135.32"/>
<polygon fill="midnightblue" stroke="midnightblue" points="801.58,-138.52 809.52,-131.52 798.94,-132.04 801.58,-138.52"/>
</g>
<!-- Node40&#45;&gt;Node3 -->
<g id="edge75" class="edge">
<title>Node40&#45;&gt;Node3</title>
<path fill="none" stroke="midnightblue" d="M824.39,-112.08C819.22,-104.53 811.65,-93.49 805.31,-84.23"/>
<polygon fill="midnightblue" stroke="midnightblue" points="808.04,-82.02 799.5,-75.75 802.26,-85.98 808.04,-82.02"/>
</g>
</g>
</svg>
