<?xml version="1.0" encoding="UTF-8" standalone="no"?>
<!DOCTYPE svg PUBLIC "-//W3C//DTD SVG 1.1//EN"
 "http://www.w3.org/Graphics/SVG/1.1/DTD/svg11.dtd">
<!-- Generated by graphviz version 2.46.1 (20210215.1649)
 -->
<!-- Title: src/scene/Scene.cpp Pages: 1 -->
<svg width="1864pt" height="364pt"
 viewBox="0.00 0.00 1863.50 364.00" xmlns="http://www.w3.org/2000/svg" xmlns:xlink="http://www.w3.org/1999/xlink">
<g id="graph0" class="graph" transform="scale(1 1) rotate(0) translate(4 360)">
<title>src/scene/Scene.cpp</title>
<polygon fill="white" stroke="transparent" points="-4,4 -4,-360 1859.5,-360 1859.5,4 -4,4"/>
<!-- Node1 -->
<g id="node1" class="node">
<title>Node1</title>
<g id="a_node1"><a xlink:title="Implementation of Scene class.">
<polygon fill="#bfbfbf" stroke="black" points="1085,-336.5 1085,-355.5 1193,-355.5 1193,-336.5 1085,-336.5"/>
<text text-anchor="middle" x="1139" y="-343.5" font-family="Helvetica,sans-Serif" font-size="10.00">src/scene/Scene.cpp</text>
</a>
</g>
</g>
<!-- Node2 -->
<g id="node2" class="node">
<title>Node2</title>
<g id="a_node2"><a xlink:href="Scene_8h.html" target="_top" xlink:title="Parent scene class. Children can be added to scene manager.">
<polygon fill="white" stroke="black" points="1064.5,-280.5 1064.5,-299.5 1145.5,-299.5 1145.5,-280.5 1064.5,-280.5"/>
<text text-anchor="middle" x="1105" y="-287.5" font-family="Helvetica,sans-Serif" font-size="10.00">scene/Scene.h</text>
</a>
</g>
</g>
<!-- Node1&#45;&gt;Node2 -->
<g id="edge1" class="edge">
<title>Node1&#45;&gt;Node2</title>
<path fill="none" stroke="midnightblue" d="M1133.39,-336.08C1128.63,-328.53 1121.68,-317.49 1115.85,-308.23"/>
<polygon fill="midnightblue" stroke="midnightblue" points="1118.8,-306.35 1110.51,-299.75 1112.88,-310.08 1118.8,-306.35"/>
</g>
<!-- Node8 -->
<g id="node8" class="node">
<title>Node8</title>
<g id="a_node8"><a xlink:href="Exceptions_8h.html" target="_top" xlink:title="Interally used exceptions. These can be handled properly in the main game class.">
<polygon fill="white" stroke="black" points="1318.5,-224.5 1318.5,-243.5 1437.5,-243.5 1437.5,-224.5 1318.5,-224.5"/>
<text text-anchor="middle" x="1378" y="-231.5" font-family="Helvetica,sans-Serif" font-size="10.00">../common/Exceptions.h</text>
</a>
</g>
</g>
<!-- Node1&#45;&gt;Node8 -->
<g id="edge75" class="edge">
<title>Node1&#45;&gt;Node8</title>
<path fill="none" stroke="midnightblue" d="M1143.71,-336.32C1151.84,-322.22 1169.85,-294.45 1193,-280 1213.7,-267.08 1272.07,-254.09 1317.77,-245.41"/>
<polygon fill="midnightblue" stroke="midnightblue" points="1318.42,-248.85 1327.61,-243.57 1317.13,-241.97 1318.42,-248.85"/>
</g>
<!-- Node10 -->
<g id="node10" class="node">
<title>Node10</title>
<g id="a_node10"><a xlink:href="GameObject_8h.html" target="_top" xlink:title="Implementation of GameObject class.">
<polygon fill="white" stroke="black" points="291.5,-168.5 291.5,-187.5 412.5,-187.5 412.5,-168.5 291.5,-168.5"/>
<text text-anchor="middle" x="352" y="-175.5" font-family="Helvetica,sans-Serif" font-size="10.00">../entities/GameObject.h</text>
</a>
</g>
</g>
<!-- Node1&#45;&gt;Node10 -->
<g id="edge76" class="edge">
<title>Node1&#45;&gt;Node10</title>
<path fill="none" stroke="midnightblue" d="M1084.89,-343.75C932.65,-339.31 504.3,-320.18 390,-244 373.72,-233.15 363.49,-212.77 357.8,-197.71"/>
<polygon fill="midnightblue" stroke="midnightblue" points="360.99,-196.22 354.43,-187.9 354.36,-198.49 360.99,-196.22"/>
</g>
<!-- Node40 -->
<g id="node40" class="node">
<title>Node40</title>
<g id="a_node40"><a xlink:title=" ">
<polygon fill="white" stroke="#bfbfbf" points="1202,-280.5 1202,-299.5 1258,-299.5 1258,-280.5 1202,-280.5"/>
<text text-anchor="middle" x="1230" y="-287.5" font-family="Helvetica,sans-Serif" font-size="10.00">algorithm</text>
</a>
</g>
</g>
<!-- Node1&#45;&gt;Node40 -->
<g id="edge74" class="edge">
<title>Node1&#45;&gt;Node40</title>
<path fill="none" stroke="midnightblue" d="M1153.62,-336.32C1167.95,-327.82 1190.01,-314.73 1206.75,-304.8"/>
<polygon fill="midnightblue" stroke="midnightblue" points="1208.6,-307.77 1215.42,-299.65 1205.03,-301.75 1208.6,-307.77"/>
</g>
<!-- Node3 -->
<g id="node3" class="node">
<title>Node3</title>
<g id="a_node3"><a xlink:title=" ">
<polygon fill="white" stroke="#bfbfbf" points="1197.5,-112.5 1197.5,-131.5 1232.5,-131.5 1232.5,-112.5 1197.5,-112.5"/>
<text text-anchor="middle" x="1215" y="-119.5" font-family="Helvetica,sans-Serif" font-size="10.00">map</text>
</a>
</g>
</g>
<!-- Node2&#45;&gt;Node3 -->
<g id="edge2" class="edge">
<title>Node2&#45;&gt;Node3</title>
<path fill="none" stroke="midnightblue" d="M1145.59,-280.68C1192.2,-270.71 1263.27,-254.11 1271,-244 1279.28,-233.18 1281.82,-199.26 1266,-168 1259.75,-155.65 1248.54,-145.18 1238.21,-137.45"/>
<polygon fill="midnightblue" stroke="midnightblue" points="1240.08,-134.49 1229.88,-131.63 1236.07,-140.23 1240.08,-134.49"/>
</g>
<!-- Node4 -->
<g id="node4" class="node">
<title>Node4</title>
<g id="a_node4"><a xlink:title=" ">
<polygon fill="white" stroke="#bfbfbf" points="469.5,-168.5 469.5,-187.5 520.5,-187.5 520.5,-168.5 469.5,-168.5"/>
<text text-anchor="middle" x="495" y="-175.5" font-family="Helvetica,sans-Serif" font-size="10.00">memory</text>
</a>
</g>
</g>
<!-- Node2&#45;&gt;Node4 -->
<g id="edge3" class="edge">
<title>Node2&#45;&gt;Node4</title>
<path fill="none" stroke="midnightblue" d="M1064.36,-282.97C971.51,-268.97 736.62,-232.2 530.36,-187.93"/>
<polygon fill="midnightblue" stroke="midnightblue" points="531.07,-184.5 520.56,-185.82 529.6,-191.35 531.07,-184.5"/>
</g>
<!-- Node5 -->
<g id="node5" class="node">
<title>Node5</title>
<g id="a_node5"><a xlink:title=" ">
<polygon fill="white" stroke="#bfbfbf" points="1094.5,-56.5 1094.5,-75.5 1135.5,-75.5 1135.5,-56.5 1094.5,-56.5"/>
<text text-anchor="middle" x="1115" y="-63.5" font-family="Helvetica,sans-Serif" font-size="10.00">string</text>
</a>
</g>
</g>
<!-- Node2&#45;&gt;Node5 -->
<g id="edge4" class="edge">
<title>Node2&#45;&gt;Node5</title>
<path fill="none" stroke="midnightblue" d="M1124.78,-280.42C1154.7,-266.2 1210.4,-234.61 1233,-188 1236.88,-180 1236.81,-176.03 1233,-168 1222.18,-145.17 1208.27,-148.34 1189,-132 1169.37,-115.36 1147.25,-95.83 1132.35,-82.55"/>
<polygon fill="midnightblue" stroke="midnightblue" points="1134.28,-79.57 1124.49,-75.52 1129.61,-84.79 1134.28,-79.57"/>
</g>
<!-- Node6 -->
<g id="node6" class="node">
<title>Node6</title>
<g id="a_node6"><a xlink:title=" ">
<polygon fill="white" stroke="#bfbfbf" points="1222.5,-224.5 1222.5,-243.5 1261.5,-243.5 1261.5,-224.5 1222.5,-224.5"/>
<text text-anchor="middle" x="1242" y="-231.5" font-family="Helvetica,sans-Serif" font-size="10.00">utility</text>
</a>
</g>
</g>
<!-- Node2&#45;&gt;Node6 -->
<g id="edge5" class="edge">
<title>Node2&#45;&gt;Node6</title>
<path fill="none" stroke="midnightblue" d="M1126.71,-280.44C1149.89,-271.31 1186.76,-256.77 1212.55,-246.61"/>
<polygon fill="midnightblue" stroke="midnightblue" points="1214.15,-249.74 1222.17,-242.82 1211.59,-243.23 1214.15,-249.74"/>
</g>
<!-- Node7 -->
<g id="node7" class="node">
<title>Node7</title>
<g id="a_node7"><a xlink:title=" ">
<polygon fill="white" stroke="#bfbfbf" points="571,-112.5 571,-131.5 615,-131.5 615,-112.5 571,-112.5"/>
<text text-anchor="middle" x="593" y="-119.5" font-family="Helvetica,sans-Serif" font-size="10.00">vector</text>
</a>
</g>
</g>
<!-- Node2&#45;&gt;Node7 -->
<g id="edge6" class="edge">
<title>Node2&#45;&gt;Node7</title>
<path fill="none" stroke="midnightblue" d="M1064.35,-289.36C934.97,-289.54 536.72,-282.32 461,-188 455.44,-181.07 455.83,-175.23 461,-168 467.02,-159.59 523.85,-142.35 560.95,-131.82"/>
<polygon fill="midnightblue" stroke="midnightblue" points="562.16,-135.11 570.84,-129.04 560.26,-128.38 562.16,-135.11"/>
</g>
<!-- Node2&#45;&gt;Node8 -->
<g id="edge7" class="edge">
<title>Node2&#45;&gt;Node8</title>
<path fill="none" stroke="midnightblue" d="M1145.58,-280.97C1193.2,-271.55 1272.32,-255.9 1324.82,-245.52"/>
<polygon fill="midnightblue" stroke="midnightblue" points="1325.82,-248.89 1334.95,-243.52 1324.46,-242.02 1325.82,-248.89"/>
</g>
<!-- Node2&#45;&gt;Node10 -->
<g id="edge10" class="edge">
<title>Node2&#45;&gt;Node10</title>
<path fill="none" stroke="midnightblue" d="M1064.35,-287.81C927.07,-283.57 485.85,-268.2 427,-244 401.72,-233.6 378.97,-211.14 365.33,-195.55"/>
<polygon fill="midnightblue" stroke="midnightblue" points="367.84,-193.1 358.72,-187.71 362.49,-197.62 367.84,-193.1"/>
</g>
<!-- Node12 -->
<g id="node12" class="node">
<title>Node12</title>
<g id="a_node12"><a xlink:href="Services_8h.html" target="_top" xlink:title="Implementation of core Services class.">
<polygon fill="white" stroke="black" points="883,-224.5 883,-243.5 993,-243.5 993,-224.5 883,-224.5"/>
<text text-anchor="middle" x="938" y="-231.5" font-family="Helvetica,sans-Serif" font-size="10.00">../services/Services.h</text>
</a>
</g>
</g>
<!-- Node2&#45;&gt;Node12 -->
<g id="edge14" class="edge">
<title>Node2&#45;&gt;Node12</title>
<path fill="none" stroke="midnightblue" d="M1078.54,-280.44C1050.32,-271.32 1005.46,-256.81 974.03,-246.65"/>
<polygon fill="midnightblue" stroke="midnightblue" points="974.93,-243.26 964.34,-243.52 972.78,-249.92 974.93,-243.26"/>
</g>
<!-- Node8&#45;&gt;Node5 -->
<g id="edge9" class="edge">
<title>Node8&#45;&gt;Node5</title>
<path fill="none" stroke="midnightblue" d="M1370.6,-224.43C1351.43,-202.73 1297.77,-144.96 1242,-112 1211.42,-93.93 1172.44,-81.46 1145.78,-74.31"/>
<polygon fill="midnightblue" stroke="midnightblue" points="1146.42,-70.86 1135.86,-71.74 1144.66,-77.64 1146.42,-70.86"/>
</g>
<!-- Node9 -->
<g id="node9" class="node">
<title>Node9</title>
<g id="a_node9"><a xlink:title=" ">
<polygon fill="white" stroke="#bfbfbf" points="1619.5,-168.5 1619.5,-187.5 1678.5,-187.5 1678.5,-168.5 1619.5,-168.5"/>
<text text-anchor="middle" x="1649" y="-175.5" font-family="Helvetica,sans-Serif" font-size="10.00">stdexcept</text>
</a>
</g>
</g>
<!-- Node8&#45;&gt;Node9 -->
<g id="edge8" class="edge">
<title>Node8&#45;&gt;Node9</title>
<path fill="none" stroke="midnightblue" d="M1424.76,-224.43C1469.57,-216.11 1539.37,-202.85 1609.34,-188.08"/>
<polygon fill="midnightblue" stroke="midnightblue" points="1610.16,-191.49 1619.21,-185.99 1608.7,-184.64 1610.16,-191.49"/>
</g>
<!-- Node10&#45;&gt;Node5 -->
<g id="edge12" class="edge">
<title>Node10&#45;&gt;Node5</title>
<path fill="none" stroke="midnightblue" d="M385.79,-168.46C418.18,-160.04 468.31,-146.37 511,-132 534.07,-124.23 538.28,-117.49 562,-112 756.86,-66.9 999.44,-65.36 1084.12,-66.38"/>
<polygon fill="midnightblue" stroke="midnightblue" points="1084.28,-69.88 1094.33,-66.53 1084.38,-62.89 1084.28,-69.88"/>
</g>
<!-- Node10&#45;&gt;Node7 -->
<g id="edge13" class="edge">
<title>Node10&#45;&gt;Node7</title>
<path fill="none" stroke="midnightblue" d="M391.33,-168.46C432.26,-159.53 498.17,-145.03 555,-132 556.93,-131.56 558.92,-131.1 560.92,-130.63"/>
<polygon fill="midnightblue" stroke="midnightblue" points="561.97,-133.98 570.91,-128.29 560.37,-127.17 561.97,-133.98"/>
</g>
<!-- Node11 -->
<g id="node11" class="node">
<title>Node11</title>
<g id="a_node11"><a xlink:title=" ">
<polygon fill="white" stroke="#bfbfbf" points="684.5,-56.5 684.5,-75.5 755.5,-75.5 755.5,-56.5 684.5,-56.5"/>
<text text-anchor="middle" x="720" y="-63.5" font-family="Helvetica,sans-Serif" font-size="10.00">SDL2/SDL.h</text>
</a>
</g>
</g>
<!-- Node10&#45;&gt;Node11 -->
<g id="edge11" class="edge">
<title>Node10&#45;&gt;Node11</title>
<path fill="none" stroke="midnightblue" d="M372.45,-168.44C404.83,-155.11 470.05,-129.14 527,-112 576.86,-96.99 635.21,-84.01 674.59,-75.89"/>
<polygon fill="midnightblue" stroke="midnightblue" points="675.33,-79.31 684.43,-73.89 673.93,-72.45 675.33,-79.31"/>
</g>
<!-- Node12&#45;&gt;Node4 -->
<g id="edge15" class="edge">
<title>Node12&#45;&gt;Node4</title>
<path fill="none" stroke="midnightblue" d="M882.87,-229.41C806.05,-223.86 662.36,-211.49 530.41,-187.81"/>
<polygon fill="midnightblue" stroke="midnightblue" points="530.99,-184.36 520.52,-186.01 529.73,-191.24 530.99,-184.36"/>
</g>
<!-- Node13 -->
<g id="node13" class="node">
<title>Node13</title>
<g id="a_node13"><a xlink:href="AssetService_8h.html" target="_top" xlink:title="Implementation of AssetService.">
<polygon fill="white" stroke="black" points="1359.5,-168.5 1359.5,-187.5 1474.5,-187.5 1474.5,-168.5 1359.5,-168.5"/>
<text text-anchor="middle" x="1417" y="-175.5" font-family="Helvetica,sans-Serif" font-size="10.00">assets/AssetService.h</text>
</a>
</g>
</g>
<!-- Node12&#45;&gt;Node13 -->
<g id="edge16" class="edge">
<title>Node12&#45;&gt;Node13</title>
<path fill="none" stroke="midnightblue" d="M993.42,-226.75C1081.69,-216.8 1253.97,-197.38 1349.37,-186.62"/>
<polygon fill="midnightblue" stroke="midnightblue" points="1349.94,-190.08 1359.48,-185.48 1349.15,-183.13 1349.94,-190.08"/>
</g>
<!-- Node22 -->
<g id="node22" class="node">
<title>Node22</title>
<g id="a_node22"><a xlink:href="AudioService_8h.html" target="_top" xlink:title="Default audio service, can actually play audio.">
<polygon fill="white" stroke="black" points="1493,-168.5 1493,-187.5 1601,-187.5 1601,-168.5 1493,-168.5"/>
<text text-anchor="middle" x="1547" y="-175.5" font-family="Helvetica,sans-Serif" font-size="10.00">audio/AudioService.h</text>
</a>
</g>
</g>
<!-- Node12&#45;&gt;Node22 -->
<g id="edge34" class="edge">
<title>Node12&#45;&gt;Node22</title>
<path fill="none" stroke="midnightblue" d="M993.13,-229.55C1089.99,-223.25 1297.23,-208.69 1482.53,-188.11"/>
<polygon fill="midnightblue" stroke="midnightblue" points="1483.18,-191.55 1492.73,-186.96 1482.4,-184.6 1483.18,-191.55"/>
</g>
<!-- Node23 -->
<g id="node23" class="node">
<title>Node23</title>
<g id="a_node23"><a xlink:href="ConfigService_8h.html" target="_top" xlink:title="Header for default Config Service.">
<polygon fill="white" stroke="black" points="1110.5,-168.5 1110.5,-187.5 1223.5,-187.5 1223.5,-168.5 1110.5,-168.5"/>
<text text-anchor="middle" x="1167" y="-175.5" font-family="Helvetica,sans-Serif" font-size="10.00">config/ConfigService.h</text>
</a>
</g>
</g>
<!-- Node12&#45;&gt;Node23 -->
<g id="edge38" class="edge">
<title>Node12&#45;&gt;Node23</title>
<path fill="none" stroke="midnightblue" d="M974.29,-224.44C1013.98,-215.08 1077.71,-200.06 1120.91,-189.87"/>
<polygon fill="midnightblue" stroke="midnightblue" points="1121.95,-193.22 1130.88,-187.52 1120.35,-186.41 1121.95,-193.22"/>
</g>
<!-- Node25 -->
<g id="node25" class="node">
<title>Node25</title>
<g id="a_node25"><a xlink:href="DisplayService_8h.html" target="_top" xlink:title="Service that encapsulates SDL display related functionality.">
<polygon fill="white" stroke="black" points="799,-168.5 799,-187.5 921,-187.5 921,-168.5 799,-168.5"/>
<text text-anchor="middle" x="860" y="-175.5" font-family="Helvetica,sans-Serif" font-size="10.00">display/DisplayService.h</text>
</a>
</g>
</g>
<!-- Node12&#45;&gt;Node25 -->
<g id="edge42" class="edge">
<title>Node12&#45;&gt;Node25</title>
<path fill="none" stroke="midnightblue" d="M925.47,-224.32C913.41,-215.98 894.97,-203.21 880.73,-193.35"/>
<polygon fill="midnightblue" stroke="midnightblue" points="882.72,-190.47 872.5,-187.65 878.73,-196.22 882.72,-190.47"/>
</g>
<!-- Node28 -->
<g id="node28" class="node">
<title>Node28</title>
<g id="a_node28"><a xlink:href="EventQueue_8h.html" target="_top" xlink:title="Handles SDL_Events from main SDL_Queue. Can be hooked into by other services and notified when change...">
<polygon fill="white" stroke="black" points="539,-168.5 539,-187.5 649,-187.5 649,-168.5 539,-168.5"/>
<text text-anchor="middle" x="594" y="-175.5" font-family="Helvetica,sans-Serif" font-size="10.00">events/EventQueue.h</text>
</a>
</g>
</g>
<!-- Node12&#45;&gt;Node28 -->
<g id="edge49" class="edge">
<title>Node12&#45;&gt;Node28</title>
<path fill="none" stroke="midnightblue" d="M883.49,-224.44C822.35,-214.85 723.26,-199.29 658.36,-189.1"/>
<polygon fill="midnightblue" stroke="midnightblue" points="658.67,-185.61 648.25,-187.52 657.59,-192.52 658.67,-185.61"/>
</g>
<!-- Node29 -->
<g id="node29" class="node">
<title>Node29</title>
<g id="a_node29"><a xlink:href="InputService_8h.html" target="_top" xlink:title="General Purpose input listener. Handles Mouse, Keyboard, Joystick.">
<polygon fill="white" stroke="black" points="170.5,-168.5 170.5,-187.5 273.5,-187.5 273.5,-168.5 170.5,-168.5"/>
<text text-anchor="middle" x="222" y="-175.5" font-family="Helvetica,sans-Serif" font-size="10.00">input/InputService.h</text>
</a>
</g>
</g>
<!-- Node12&#45;&gt;Node29 -->
<g id="edge53" class="edge">
<title>Node12&#45;&gt;Node29</title>
<path fill="none" stroke="midnightblue" d="M882.67,-230.66C771.36,-225.62 512.29,-212.32 283.72,-187.99"/>
<polygon fill="midnightblue" stroke="midnightblue" points="283.87,-184.48 273.55,-186.89 283.12,-191.44 283.87,-184.48"/>
</g>
<!-- Node37 -->
<g id="node37" class="node">
<title>Node37</title>
<g id="a_node37"><a xlink:href="DebugLoggingService_8h.html" target="_top" xlink:title="Logging service that does the logging. Used for development.">
<polygon fill="white" stroke="black" points="939.5,-168.5 939.5,-187.5 1092.5,-187.5 1092.5,-168.5 939.5,-168.5"/>
<text text-anchor="middle" x="1016" y="-175.5" font-family="Helvetica,sans-Serif" font-size="10.00">logging/DebugLoggingService.h</text>
</a>
</g>
</g>
<!-- Node12&#45;&gt;Node37 -->
<g id="edge66" class="edge">
<title>Node12&#45;&gt;Node37</title>
<path fill="none" stroke="midnightblue" d="M950.53,-224.32C962.59,-215.98 981.03,-203.21 995.27,-193.35"/>
<polygon fill="midnightblue" stroke="midnightblue" points="997.27,-196.22 1003.5,-187.65 993.28,-190.47 997.27,-196.22"/>
</g>
<!-- Node39 -->
<g id="node39" class="node">
<title>Node39</title>
<g id="a_node39"><a xlink:href="SceneService_8h.html" target="_top" xlink:title="Service in charge of managing scenes.">
<polygon fill="white" stroke="black" points="667,-168.5 667,-187.5 781,-187.5 781,-168.5 667,-168.5"/>
<text text-anchor="middle" x="724" y="-175.5" font-family="Helvetica,sans-Serif" font-size="10.00">scene/SceneService.h</text>
</a>
</g>
</g>
<!-- Node12&#45;&gt;Node39 -->
<g id="edge70" class="edge">
<title>Node12&#45;&gt;Node39</title>
<path fill="none" stroke="midnightblue" d="M904.09,-224.44C867.15,-215.12 807.95,-200.18 767.58,-190"/>
<polygon fill="midnightblue" stroke="midnightblue" points="768.3,-186.57 757.75,-187.52 766.59,-193.36 768.3,-186.57"/>
</g>
<!-- Node13&#45;&gt;Node3 -->
<g id="edge17" class="edge">
<title>Node13&#45;&gt;Node3</title>
<path fill="none" stroke="midnightblue" d="M1384.99,-168.44C1345.81,-157.97 1280.08,-140.4 1242.88,-130.45"/>
<polygon fill="midnightblue" stroke="midnightblue" points="1243.32,-126.95 1232.75,-127.75 1241.51,-133.71 1243.32,-126.95"/>
</g>
<!-- Node13&#45;&gt;Node5 -->
<g id="edge18" class="edge">
<title>Node13&#45;&gt;Node5</title>
<path fill="none" stroke="midnightblue" d="M1417.78,-168.37C1418.54,-154.34 1417.76,-126.68 1402,-112 1365.29,-77.81 1212.34,-69.59 1145.96,-67.62"/>
<polygon fill="midnightblue" stroke="midnightblue" points="1145.81,-64.11 1135.72,-67.34 1145.62,-71.11 1145.81,-64.11"/>
</g>
<!-- Node14 -->
<g id="node14" class="node">
<title>Node14</title>
<g id="a_node14"><a xlink:href="Font_8h.html" target="_top" xlink:title="Easy interface to interact with SDL fonts.">
<polygon fill="white" stroke="black" points="1643.5,-112.5 1643.5,-131.5 1734.5,-131.5 1734.5,-112.5 1643.5,-112.5"/>
<text text-anchor="middle" x="1689" y="-119.5" font-family="Helvetica,sans-Serif" font-size="10.00">../../assets/Font.h</text>
</a>
</g>
</g>
<!-- Node13&#45;&gt;Node14 -->
<g id="edge19" class="edge">
<title>Node13&#45;&gt;Node14</title>
<path fill="none" stroke="midnightblue" d="M1460.1,-168.44C1507.85,-158.96 1584.86,-143.67 1636.19,-133.48"/>
<polygon fill="midnightblue" stroke="midnightblue" points="1636.98,-136.9 1646.1,-131.52 1635.61,-130.03 1636.98,-136.9"/>
</g>
<!-- Node18 -->
<g id="node18" class="node">
<title>Node18</title>
<g id="a_node18"><a xlink:href="Sound_8h.html" target="_top" xlink:title="Implementation of Sound.">
<polygon fill="white" stroke="black" points="1487.5,-112.5 1487.5,-131.5 1586.5,-131.5 1586.5,-112.5 1487.5,-112.5"/>
<text text-anchor="middle" x="1537" y="-119.5" font-family="Helvetica,sans-Serif" font-size="10.00">../../assets/Sound.h</text>
</a>
</g>
</g>
<!-- Node13&#45;&gt;Node18 -->
<g id="edge24" class="edge">
<title>Node13&#45;&gt;Node18</title>
<path fill="none" stroke="midnightblue" d="M1436.01,-168.44C1455.59,-159.64 1486.31,-145.81 1508.73,-135.72"/>
<polygon fill="midnightblue" stroke="midnightblue" points="1510.39,-138.81 1518.07,-131.52 1507.52,-132.43 1510.39,-138.81"/>
</g>
<!-- Node20 -->
<g id="node20" class="node">
<title>Node20</title>
<g id="a_node20"><a xlink:href="Stream_8h.html" target="_top" xlink:title="Wrapper for sdl stream including ability to store stream pointer. Use for single instance sounds like...">
<polygon fill="white" stroke="black" points="1752.5,-112.5 1752.5,-131.5 1855.5,-131.5 1855.5,-112.5 1752.5,-112.5"/>
<text text-anchor="middle" x="1804" y="-119.5" font-family="Helvetica,sans-Serif" font-size="10.00">../../assets/Stream.h</text>
</a>
</g>
</g>
<!-- Node13&#45;&gt;Node20 -->
<g id="edge27" class="edge">
<title>Node13&#45;&gt;Node20</title>
<path fill="none" stroke="midnightblue" d="M1474.51,-169.17C1549.79,-158.91 1678.78,-141.28 1742.31,-132.23"/>
<polygon fill="midnightblue" stroke="midnightblue" points="1742.89,-135.68 1752.3,-130.8 1741.9,-128.75 1742.89,-135.68"/>
</g>
<!-- Node21 -->
<g id="node21" class="node">
<title>Node21</title>
<g id="a_node21"><a xlink:href="Texture_8h.html" target="_top" xlink:title="Easy interface to interact with sdl bitmaps.">
<polygon fill="white" stroke="black" points="1289,-112.5 1289,-131.5 1393,-131.5 1393,-112.5 1289,-112.5"/>
<text text-anchor="middle" x="1341" y="-119.5" font-family="Helvetica,sans-Serif" font-size="10.00">../../assets/Texture.h</text>
</a>
</g>
</g>
<!-- Node13&#45;&gt;Node21 -->
<g id="edge30" class="edge">
<title>Node13&#45;&gt;Node21</title>
<path fill="none" stroke="midnightblue" d="M1404.79,-168.32C1393.22,-160.11 1375.62,-147.6 1361.84,-137.81"/>
<polygon fill="midnightblue" stroke="midnightblue" points="1363.61,-134.77 1353.43,-131.83 1359.56,-140.48 1363.61,-134.77"/>
</g>
<!-- Node14&#45;&gt;Node5 -->
<g id="edge21" class="edge">
<title>Node14&#45;&gt;Node5</title>
<path fill="none" stroke="midnightblue" d="M1643.18,-113.83C1638.4,-113.17 1633.6,-112.55 1629,-112 1446.34,-90.33 1226.01,-74.47 1145.96,-69.04"/>
<polygon fill="midnightblue" stroke="midnightblue" points="1145.83,-65.53 1135.61,-68.35 1145.36,-72.51 1145.83,-65.53"/>
</g>
<!-- Node15 -->
<g id="node15" class="node">
<title>Node15</title>
<g id="a_node15"><a xlink:title=" ">
<polygon fill="white" stroke="#bfbfbf" points="1646,-56.5 1646,-75.5 1732,-75.5 1732,-56.5 1646,-56.5"/>
<text text-anchor="middle" x="1689" y="-63.5" font-family="Helvetica,sans-Serif" font-size="10.00">SDL2/SDL_ttf.h</text>
</a>
</g>
</g>
<!-- Node14&#45;&gt;Node15 -->
<g id="edge20" class="edge">
<title>Node14&#45;&gt;Node15</title>
<path fill="none" stroke="midnightblue" d="M1689,-112.08C1689,-105.01 1689,-94.86 1689,-85.99"/>
<polygon fill="midnightblue" stroke="midnightblue" points="1692.5,-85.75 1689,-75.75 1685.5,-85.75 1692.5,-85.75"/>
</g>
<!-- Node16 -->
<g id="node16" class="node">
<title>Node16</title>
<g id="a_node16"><a xlink:href="Color_8h.html" target="_top" xlink:title="Helpers for creating colors without accessing SDL api directly.">
<polygon fill="white" stroke="black" points="1420,-56.5 1420,-75.5 1498,-75.5 1498,-56.5 1420,-56.5"/>
<text text-anchor="middle" x="1459" y="-63.5" font-family="Helvetica,sans-Serif" font-size="10.00">../color/Color.h</text>
</a>
</g>
</g>
<!-- Node14&#45;&gt;Node16 -->
<g id="edge22" class="edge">
<title>Node14&#45;&gt;Node16</title>
<path fill="none" stroke="midnightblue" d="M1652.56,-112.44C1612.6,-103.06 1548.41,-87.99 1505.02,-77.8"/>
<polygon fill="midnightblue" stroke="midnightblue" points="1505.81,-74.39 1495.27,-75.52 1504.21,-81.21 1505.81,-74.39"/>
</g>
<!-- Node17 -->
<g id="node17" class="node">
<title>Node17</title>
<g id="a_node17"><a xlink:title=" ">
<polygon fill="white" stroke="#bfbfbf" points="1390,-0.5 1390,-19.5 1528,-19.5 1528,-0.5 1390,-0.5"/>
<text text-anchor="middle" x="1459" y="-7.5" font-family="Helvetica,sans-Serif" font-size="10.00">SDL2/SDL2_gfxPrimitives.h</text>
</a>
</g>
</g>
<!-- Node16&#45;&gt;Node17 -->
<g id="edge23" class="edge">
<title>Node16&#45;&gt;Node17</title>
<path fill="none" stroke="midnightblue" d="M1459,-56.08C1459,-49.01 1459,-38.86 1459,-29.99"/>
<polygon fill="midnightblue" stroke="midnightblue" points="1462.5,-29.75 1459,-19.75 1455.5,-29.75 1462.5,-29.75"/>
</g>
<!-- Node18&#45;&gt;Node5 -->
<g id="edge26" class="edge">
<title>Node18&#45;&gt;Node5</title>
<path fill="none" stroke="midnightblue" d="M1487.35,-114.65C1399.27,-103.38 1218.16,-80.2 1145.83,-70.95"/>
<polygon fill="midnightblue" stroke="midnightblue" points="1145.94,-67.43 1135.58,-69.63 1145.05,-74.37 1145.94,-67.43"/>
</g>
<!-- Node19 -->
<g id="node19" class="node">
<title>Node19</title>
<g id="a_node19"><a xlink:title=" ">
<polygon fill="white" stroke="#bfbfbf" points="1752,-56.5 1752,-75.5 1852,-75.5 1852,-56.5 1752,-56.5"/>
<text text-anchor="middle" x="1802" y="-63.5" font-family="Helvetica,sans-Serif" font-size="10.00">SDL2/SDL_mixer.h</text>
</a>
</g>
</g>
<!-- Node18&#45;&gt;Node19 -->
<g id="edge25" class="edge">
<title>Node18&#45;&gt;Node19</title>
<path fill="none" stroke="midnightblue" d="M1578.99,-112.44C1625.41,-102.98 1700.23,-87.74 1750.24,-77.55"/>
<polygon fill="midnightblue" stroke="midnightblue" points="1751.11,-80.94 1760.21,-75.52 1749.71,-74.08 1751.11,-80.94"/>
</g>
<!-- Node20&#45;&gt;Node5 -->
<g id="edge29" class="edge">
<title>Node20&#45;&gt;Node5</title>
<path fill="none" stroke="midnightblue" d="M1752.32,-112.99C1749.51,-112.63 1746.72,-112.3 1744,-112 1515,-86.67 1237.44,-72.58 1145.91,-68.36"/>
<polygon fill="midnightblue" stroke="midnightblue" points="1145.83,-64.85 1135.69,-67.9 1145.52,-71.85 1145.83,-64.85"/>
</g>
<!-- Node20&#45;&gt;Node19 -->
<g id="edge28" class="edge">
<title>Node20&#45;&gt;Node19</title>
<path fill="none" stroke="midnightblue" d="M1803.67,-112.08C1803.41,-105.01 1803.03,-94.86 1802.7,-85.99"/>
<polygon fill="midnightblue" stroke="midnightblue" points="1806.19,-85.61 1802.32,-75.75 1799.2,-85.87 1806.19,-85.61"/>
</g>
<!-- Node21&#45;&gt;Node5 -->
<g id="edge32" class="edge">
<title>Node21&#45;&gt;Node5</title>
<path fill="none" stroke="midnightblue" d="M1305.19,-112.44C1261.13,-101.92 1187.08,-84.22 1145.57,-74.3"/>
<polygon fill="midnightblue" stroke="midnightblue" points="1146.3,-70.88 1135.76,-71.96 1144.67,-77.69 1146.3,-70.88"/>
</g>
<!-- Node21&#45;&gt;Node11 -->
<g id="edge31" class="edge">
<title>Node21&#45;&gt;Node11</title>
<path fill="none" stroke="midnightblue" d="M1288.85,-116.21C1273.74,-114.84 1257.21,-113.35 1242,-112 1066.16,-96.43 856.94,-78.61 766,-70.89"/>
<polygon fill="midnightblue" stroke="midnightblue" points="766.02,-67.38 755.76,-70.03 765.43,-74.36 766.02,-67.38"/>
</g>
<!-- Node21&#45;&gt;Node16 -->
<g id="edge33" class="edge">
<title>Node21&#45;&gt;Node16</title>
<path fill="none" stroke="midnightblue" d="M1359.7,-112.44C1378.94,-103.64 1409.15,-89.81 1431.2,-79.72"/>
<polygon fill="midnightblue" stroke="midnightblue" points="1432.75,-82.86 1440.39,-75.52 1429.84,-76.5 1432.75,-82.86"/>
</g>
<!-- Node22&#45;&gt;Node5 -->
<g id="edge35" class="edge">
<title>Node22&#45;&gt;Node5</title>
<path fill="none" stroke="midnightblue" d="M1561.59,-168.4C1581.6,-155.57 1613.22,-130.91 1596,-112 1565.66,-78.68 1247.25,-69.59 1145.84,-67.53"/>
<polygon fill="midnightblue" stroke="midnightblue" points="1145.71,-64.03 1135.64,-67.33 1145.57,-71.03 1145.71,-64.03"/>
</g>
<!-- Node22&#45;&gt;Node18 -->
<g id="edge36" class="edge">
<title>Node22&#45;&gt;Node18</title>
<path fill="none" stroke="midnightblue" d="M1545.35,-168.08C1544.02,-160.93 1542.12,-150.64 1540.46,-141.69"/>
<polygon fill="midnightblue" stroke="midnightblue" points="1543.88,-140.95 1538.62,-131.75 1537,-142.22 1543.88,-140.95"/>
</g>
<!-- Node22&#45;&gt;Node20 -->
<g id="edge37" class="edge">
<title>Node22&#45;&gt;Node20</title>
<path fill="none" stroke="midnightblue" d="M1587.72,-168.44C1632.65,-159 1705,-143.8 1753.5,-133.61"/>
<polygon fill="midnightblue" stroke="midnightblue" points="1754.4,-137 1763.47,-131.52 1752.96,-130.15 1754.4,-137"/>
</g>
<!-- Node23&#45;&gt;Node3 -->
<g id="edge39" class="edge">
<title>Node23&#45;&gt;Node3</title>
<path fill="none" stroke="midnightblue" d="M1174.93,-168.08C1181.85,-160.3 1192.07,-148.8 1200.45,-139.37"/>
<polygon fill="midnightblue" stroke="midnightblue" points="1203.19,-141.55 1207.22,-131.75 1197.96,-136.9 1203.19,-141.55"/>
</g>
<!-- Node23&#45;&gt;Node5 -->
<g id="edge41" class="edge">
<title>Node23&#45;&gt;Node5</title>
<path fill="none" stroke="midnightblue" d="M1131.99,-168.45C1113.07,-161.84 1091.32,-150.59 1080,-132 1069.97,-115.53 1083.83,-95.96 1096.95,-82.63"/>
<polygon fill="midnightblue" stroke="midnightblue" points="1099.55,-84.99 1104.41,-75.57 1094.74,-79.91 1099.55,-84.99"/>
</g>
<!-- Node24 -->
<g id="node24" class="node">
<title>Node24</title>
<g id="a_node24"><a xlink:title=" ">
<polygon fill="white" stroke="#bfbfbf" points="1089,-112.5 1089,-131.5 1141,-131.5 1141,-112.5 1089,-112.5"/>
<text text-anchor="middle" x="1115" y="-119.5" font-family="Helvetica,sans-Serif" font-size="10.00">sstream</text>
</a>
</g>
</g>
<!-- Node23&#45;&gt;Node24 -->
<g id="edge40" class="edge">
<title>Node23&#45;&gt;Node24</title>
<path fill="none" stroke="midnightblue" d="M1158.41,-168.08C1150.84,-160.22 1139.62,-148.57 1130.49,-139.08"/>
<polygon fill="midnightblue" stroke="midnightblue" points="1132.88,-136.53 1123.43,-131.75 1127.84,-141.38 1132.88,-136.53"/>
</g>
<!-- Node25&#45;&gt;Node5 -->
<g id="edge44" class="edge">
<title>Node25&#45;&gt;Node5</title>
<path fill="none" stroke="midnightblue" d="M861.99,-168.27C865.7,-154.1 875.07,-126.24 894,-112 923.64,-89.71 1030.44,-75.76 1083.97,-70.02"/>
<polygon fill="midnightblue" stroke="midnightblue" points="1084.65,-73.47 1094.23,-68.95 1083.92,-66.51 1084.65,-73.47"/>
</g>
<!-- Node25&#45;&gt;Node11 -->
<g id="edge43" class="edge">
<title>Node25&#45;&gt;Node11</title>
<path fill="none" stroke="midnightblue" d="M849.01,-168.37C825.19,-149.65 768.56,-105.15 738.88,-81.83"/>
<polygon fill="midnightblue" stroke="midnightblue" points="740.96,-79.02 730.93,-75.59 736.64,-84.52 740.96,-79.02"/>
</g>
<!-- Node25&#45;&gt;Node16 -->
<g id="edge45" class="edge">
<title>Node25&#45;&gt;Node16</title>
<path fill="none" stroke="midnightblue" d="M921.17,-169.05C924.49,-168.68 927.79,-168.33 931,-168 1035.44,-157.4 1308.11,-178.94 1402,-132 1422.9,-121.55 1439.46,-99.77 1449.23,-84.31"/>
<polygon fill="midnightblue" stroke="midnightblue" points="1452.28,-86.03 1454.41,-75.65 1446.27,-82.43 1452.28,-86.03"/>
</g>
<!-- Node26 -->
<g id="node26" class="node">
<title>Node26</title>
<g id="a_node26"><a xlink:href="Service_8h.html" target="_top" xlink:title="Service subscriber that can listen for events.">
<polygon fill="white" stroke="black" points="685.5,-112.5 685.5,-131.5 750.5,-131.5 750.5,-112.5 685.5,-112.5"/>
<text text-anchor="middle" x="718" y="-119.5" font-family="Helvetica,sans-Serif" font-size="10.00">../Service.h</text>
</a>
</g>
</g>
<!-- Node25&#45;&gt;Node26 -->
<g id="edge46" class="edge">
<title>Node25&#45;&gt;Node26</title>
<path fill="none" stroke="midnightblue" d="M837.5,-168.44C813.92,-159.48 776.68,-145.31 750.04,-135.18"/>
<polygon fill="midnightblue" stroke="midnightblue" points="750.99,-131.8 740.4,-131.52 748.5,-138.34 750.99,-131.8"/>
</g>
<!-- Node26&#45;&gt;Node5 -->
<g id="edge48" class="edge">
<title>Node26&#45;&gt;Node5</title>
<path fill="none" stroke="midnightblue" d="M750.83,-116.54C826.26,-106.28 1011.08,-81.14 1084.35,-71.17"/>
<polygon fill="midnightblue" stroke="midnightblue" points="1084.89,-74.63 1094.33,-69.81 1083.95,-67.69 1084.89,-74.63"/>
</g>
<!-- Node27 -->
<g id="node27" class="node">
<title>Node27</title>
<g id="a_node27"><a xlink:title=" ">
<polygon fill="white" stroke="#bfbfbf" points="228,-56.5 228,-75.5 334,-75.5 334,-56.5 228,-56.5"/>
<text text-anchor="middle" x="281" y="-63.5" font-family="Helvetica,sans-Serif" font-size="10.00">SDL2/SDL_events.h</text>
</a>
</g>
</g>
<!-- Node26&#45;&gt;Node27 -->
<g id="edge47" class="edge">
<title>Node26&#45;&gt;Node27</title>
<path fill="none" stroke="midnightblue" d="M685.36,-117.36C621.8,-110.21 476.74,-93.6 344.03,-76.11"/>
<polygon fill="midnightblue" stroke="midnightblue" points="344.46,-72.64 334.09,-74.79 343.54,-79.58 344.46,-72.64"/>
</g>
<!-- Node28&#45;&gt;Node7 -->
<g id="edge51" class="edge">
<title>Node28&#45;&gt;Node7</title>
<path fill="none" stroke="midnightblue" d="M593.83,-168.08C593.7,-161.01 593.52,-150.86 593.35,-141.99"/>
<polygon fill="midnightblue" stroke="midnightblue" points="596.85,-141.68 593.16,-131.75 589.85,-141.81 596.85,-141.68"/>
</g>
<!-- Node28&#45;&gt;Node11 -->
<g id="edge50" class="edge">
<title>Node28&#45;&gt;Node11</title>
<path fill="none" stroke="midnightblue" d="M603.89,-168.37C625.14,-149.81 675.43,-105.91 702.32,-82.44"/>
<polygon fill="midnightblue" stroke="midnightblue" points="704.93,-84.8 710.16,-75.59 700.32,-79.53 704.93,-84.8"/>
</g>
<!-- Node28&#45;&gt;Node26 -->
<g id="edge52" class="edge">
<title>Node28&#45;&gt;Node26</title>
<path fill="none" stroke="midnightblue" d="M613.65,-168.44C633.96,-159.6 665.9,-145.69 689.1,-135.59"/>
<polygon fill="midnightblue" stroke="midnightblue" points="690.67,-138.72 698.44,-131.52 687.88,-132.3 690.67,-138.72"/>
</g>
<!-- Node29&#45;&gt;Node5 -->
<g id="edge56" class="edge">
<title>Node29&#45;&gt;Node5</title>
<path fill="none" stroke="midnightblue" d="M259.16,-168.45C334.96,-151.02 500.81,-112.93 507,-112 726.55,-79.03 994.49,-69.88 1084.14,-67.65"/>
<polygon fill="midnightblue" stroke="midnightblue" points="1084.49,-71.14 1094.41,-67.4 1084.33,-64.14 1084.49,-71.14"/>
</g>
<!-- Node29&#45;&gt;Node26 -->
<g id="edge57" class="edge">
<title>Node29&#45;&gt;Node26</title>
<path fill="none" stroke="midnightblue" d="M273.56,-169.23C276.75,-168.8 279.92,-168.39 283,-168 358.33,-158.55 581.47,-136.4 675.48,-127.16"/>
<polygon fill="midnightblue" stroke="midnightblue" points="675.88,-130.64 685.49,-126.18 675.2,-123.67 675.88,-130.64"/>
</g>
<!-- Node29&#45;&gt;Node27 -->
<g id="edge54" class="edge">
<title>Node29&#45;&gt;Node27</title>
<path fill="none" stroke="midnightblue" d="M223.71,-168.15C226.47,-155.22 232.64,-130.66 243,-112 248.88,-101.41 257.46,-90.98 264.98,-82.83"/>
<polygon fill="midnightblue" stroke="midnightblue" points="267.6,-85.16 272.01,-75.52 262.55,-80.31 267.6,-85.16"/>
</g>
<!-- Node30 -->
<g id="node30" class="node">
<title>Node30</title>
<g id="a_node30"><a xlink:title=" ">
<polygon fill="white" stroke="#bfbfbf" points="354,-112.5 354,-131.5 408,-131.5 408,-112.5 354,-112.5"/>
<text text-anchor="middle" x="381" y="-119.5" font-family="Helvetica,sans-Serif" font-size="10.00">iostream</text>
</a>
</g>
</g>
<!-- Node29&#45;&gt;Node30 -->
<g id="edge55" class="edge">
<title>Node29&#45;&gt;Node30</title>
<path fill="none" stroke="midnightblue" d="M247.19,-168.44C273.94,-159.36 316.4,-144.94 346.31,-134.78"/>
<polygon fill="midnightblue" stroke="midnightblue" points="347.58,-138.05 355.92,-131.52 345.33,-131.42 347.58,-138.05"/>
</g>
<!-- Node31 -->
<g id="node31" class="node">
<title>Node31</title>
<g id="a_node31"><a xlink:href="JoystickState_8h.html" target="_top" xlink:title="Container for storing Joystick state.">
<polygon fill="white" stroke="black" points="252.5,-112.5 252.5,-131.5 335.5,-131.5 335.5,-112.5 252.5,-112.5"/>
<text text-anchor="middle" x="294" y="-119.5" font-family="Helvetica,sans-Serif" font-size="10.00">JoystickState.h</text>
</a>
</g>
</g>
<!-- Node29&#45;&gt;Node31 -->
<g id="edge58" class="edge">
<title>Node29&#45;&gt;Node31</title>
<path fill="none" stroke="midnightblue" d="M233.57,-168.32C244.42,-160.18 260.88,-147.84 273.88,-138.09"/>
<polygon fill="midnightblue" stroke="midnightblue" points="276.32,-140.63 282.22,-131.83 272.12,-135.03 276.32,-140.63"/>
</g>
<!-- Node33 -->
<g id="node33" class="node">
<title>Node33</title>
<g id="a_node33"><a xlink:href="KeyboardState_8h.html" target="_top" xlink:title="Container for storing Keyboard state.">
<polygon fill="white" stroke="black" points="6,-112.5 6,-131.5 94,-131.5 94,-112.5 6,-112.5"/>
<text text-anchor="middle" x="50" y="-119.5" font-family="Helvetica,sans-Serif" font-size="10.00">KeyboardState.h</text>
</a>
</g>
</g>
<!-- Node29&#45;&gt;Node33 -->
<g id="edge61" class="edge">
<title>Node29&#45;&gt;Node33</title>
<path fill="none" stroke="midnightblue" d="M194.75,-168.44C165.56,-159.28 119.08,-144.69 86.69,-134.52"/>
<polygon fill="midnightblue" stroke="midnightblue" points="87.72,-131.17 77.13,-131.52 85.62,-137.85 87.72,-131.17"/>
</g>
<!-- Node35 -->
<g id="node35" class="node">
<title>Node35</title>
<g id="a_node35"><a xlink:href="MouseState_8h.html" target="_top" xlink:title="Container for storing Mouse state.">
<polygon fill="white" stroke="black" points="118.5,-112.5 118.5,-131.5 195.5,-131.5 195.5,-112.5 118.5,-112.5"/>
<text text-anchor="middle" x="157" y="-119.5" font-family="Helvetica,sans-Serif" font-size="10.00">MouseState.h</text>
</a>
</g>
</g>
<!-- Node29&#45;&gt;Node35 -->
<g id="edge63" class="edge">
<title>Node29&#45;&gt;Node35</title>
<path fill="none" stroke="midnightblue" d="M211.56,-168.32C201.85,-160.26 187.18,-148.08 175.5,-138.37"/>
<polygon fill="midnightblue" stroke="midnightblue" points="177.56,-135.53 167.63,-131.83 173.09,-140.92 177.56,-135.53"/>
</g>
<!-- Node31&#45;&gt;Node27 -->
<g id="edge59" class="edge">
<title>Node31&#45;&gt;Node27</title>
<path fill="none" stroke="midnightblue" d="M291.85,-112.08C290.13,-104.93 287.65,-94.64 285.5,-85.69"/>
<polygon fill="midnightblue" stroke="midnightblue" points="288.85,-84.65 283.11,-75.75 282.04,-86.29 288.85,-84.65"/>
</g>
<!-- Node32 -->
<g id="node32" class="node">
<title>Node32</title>
<g id="a_node32"><a xlink:href="JoystickCodes_8h.html" target="_top" xlink:title="Defines for codes used for joystick.">
<polygon fill="white" stroke="black" points="352,-56.5 352,-75.5 440,-75.5 440,-56.5 352,-56.5"/>
<text text-anchor="middle" x="396" y="-63.5" font-family="Helvetica,sans-Serif" font-size="10.00">JoystickCodes.h</text>
</a>
</g>
</g>
<!-- Node31&#45;&gt;Node32 -->
<g id="edge60" class="edge">
<title>Node31&#45;&gt;Node32</title>
<path fill="none" stroke="midnightblue" d="M310.39,-112.32C326.67,-103.7 351.87,-90.36 370.72,-80.39"/>
<polygon fill="midnightblue" stroke="midnightblue" points="372.45,-83.43 379.65,-75.65 369.18,-77.24 372.45,-83.43"/>
</g>
<!-- Node34 -->
<g id="node34" class="node">
<title>Node34</title>
<g id="a_node34"><a xlink:href="KeyboardKeys_8h.html" target="_top" xlink:title="Defenitions of keys that can be used by input manager.">
<polygon fill="white" stroke="black" points="0,-56.5 0,-75.5 86,-75.5 86,-56.5 0,-56.5"/>
<text text-anchor="middle" x="43" y="-63.5" font-family="Helvetica,sans-Serif" font-size="10.00">KeyboardKeys.h</text>
</a>
</g>
</g>
<!-- Node33&#45;&gt;Node34 -->
<g id="edge62" class="edge">
<title>Node33&#45;&gt;Node34</title>
<path fill="none" stroke="midnightblue" d="M48.84,-112.08C47.92,-104.93 46.58,-94.64 45.42,-85.69"/>
<polygon fill="midnightblue" stroke="midnightblue" points="48.89,-85.22 44.13,-75.75 41.95,-86.12 48.89,-85.22"/>
</g>
<!-- Node35&#45;&gt;Node27 -->
<g id="edge64" class="edge">
<title>Node35&#45;&gt;Node27</title>
<path fill="none" stroke="midnightblue" d="M176.65,-112.44C196.96,-103.6 228.9,-89.69 252.1,-79.59"/>
<polygon fill="midnightblue" stroke="midnightblue" points="253.67,-82.72 261.44,-75.52 250.88,-76.3 253.67,-82.72"/>
</g>
<!-- Node36 -->
<g id="node36" class="node">
<title>Node36</title>
<g id="a_node36"><a xlink:title=" ">
<polygon fill="white" stroke="#bfbfbf" points="104,-56.5 104,-75.5 210,-75.5 210,-56.5 104,-56.5"/>
<text text-anchor="middle" x="157" y="-63.5" font-family="Helvetica,sans-Serif" font-size="10.00">SDL2/SDL_mouse.h</text>
</a>
</g>
</g>
<!-- Node35&#45;&gt;Node36 -->
<g id="edge65" class="edge">
<title>Node35&#45;&gt;Node36</title>
<path fill="none" stroke="midnightblue" d="M157,-112.08C157,-105.01 157,-94.86 157,-85.99"/>
<polygon fill="midnightblue" stroke="midnightblue" points="160.5,-85.75 157,-75.75 153.5,-85.75 160.5,-85.75"/>
</g>
<!-- Node37&#45;&gt;Node5 -->
<g id="edge67" class="edge">
<title>Node37&#45;&gt;Node5</title>
<path fill="none" stroke="midnightblue" d="M1023.11,-168.46C1033.62,-155.92 1053.98,-131.86 1072,-112 1080.91,-102.18 1091.17,-91.43 1099.43,-82.9"/>
<polygon fill="midnightblue" stroke="midnightblue" points="1102.16,-85.11 1106.62,-75.5 1097.14,-80.23 1102.16,-85.11"/>
</g>
<!-- Node38 -->
<g id="node38" class="node">
<title>Node38</title>
<g id="a_node38"><a xlink:href="LoggingService_8h.html" target="_top" xlink:title="Default logging service. Does nothing. Use in production.">
<polygon fill="white" stroke="black" points="903,-112.5 903,-131.5 995,-131.5 995,-112.5 903,-112.5"/>
<text text-anchor="middle" x="949" y="-119.5" font-family="Helvetica,sans-Serif" font-size="10.00">LoggingService.h</text>
</a>
</g>
</g>
<!-- Node37&#45;&gt;Node38 -->
<g id="edge68" class="edge">
<title>Node37&#45;&gt;Node38</title>
<path fill="none" stroke="midnightblue" d="M1005.24,-168.32C995.23,-160.26 980.11,-148.08 968.07,-138.37"/>
<polygon fill="midnightblue" stroke="midnightblue" points="969.94,-135.38 959.96,-131.83 965.55,-140.83 969.94,-135.38"/>
</g>
<!-- Node38&#45;&gt;Node5 -->
<g id="edge69" class="edge">
<title>Node38&#45;&gt;Node5</title>
<path fill="none" stroke="midnightblue" d="M975.3,-112.44C1005,-102.78 1053.25,-87.09 1084.55,-76.9"/>
<polygon fill="midnightblue" stroke="midnightblue" points="1085.65,-80.23 1094.08,-73.81 1083.48,-73.57 1085.65,-80.23"/>
</g>
<!-- Node39&#45;&gt;Node5 -->
<g id="edge71" class="edge">
<title>Node39&#45;&gt;Node5</title>
<path fill="none" stroke="midnightblue" d="M740.51,-168.31C767.5,-154.44 823.08,-127.31 873,-112 947.1,-89.27 1037.67,-76.16 1084.19,-70.45"/>
<polygon fill="midnightblue" stroke="midnightblue" points="1084.71,-73.91 1094.22,-69.25 1083.88,-66.96 1084.71,-73.91"/>
</g>
<!-- Node39&#45;&gt;Node7 -->
<g id="edge72" class="edge">
<title>Node39&#45;&gt;Node7</title>
<path fill="none" stroke="midnightblue" d="M703.24,-168.44C681.68,-159.56 647.74,-145.56 623.21,-135.45"/>
<polygon fill="midnightblue" stroke="midnightblue" points="624.24,-132.09 613.66,-131.52 621.57,-138.56 624.24,-132.09"/>
</g>
<!-- Node39&#45;&gt;Node26 -->
<g id="edge73" class="edge">
<title>Node39&#45;&gt;Node26</title>
<path fill="none" stroke="midnightblue" d="M723.01,-168.08C722.21,-160.93 721.07,-150.64 720.08,-141.69"/>
<polygon fill="midnightblue" stroke="midnightblue" points="723.56,-141.3 718.97,-131.75 716.6,-142.08 723.56,-141.3"/>
</g>
</g>
</svg>
