<?xml version="1.0" encoding="UTF-8" standalone="no"?>
<!DOCTYPE svg PUBLIC "-//W3C//DTD SVG 1.1//EN"
 "http://www.w3.org/Graphics/SVG/1.1/DTD/svg11.dtd">
<!-- Generated by graphviz version 2.46.1 (20210215.1649)
 -->
<!-- Title: include/services/Services.h Pages: 1 -->
<svg width="1633pt" height="252pt"
 viewBox="0.00 0.00 1632.50 252.00" xmlns="http://www.w3.org/2000/svg" xmlns:xlink="http://www.w3.org/1999/xlink">
<g id="graph0" class="graph" transform="scale(1 1) rotate(0) translate(4 248)">
<title>include/services/Services.h</title>
<polygon fill="white" stroke="transparent" points="-4,4 -4,-248 1628.5,-248 1628.5,4 -4,4"/>
<!-- Node1 -->
<g id="node1" class="node">
<title>Node1</title>
<g id="a_node1"><a xlink:title="Implementation of core Services class.">
<polygon fill="#bfbfbf" stroke="black" points="680.5,-224.5 680.5,-243.5 816.5,-243.5 816.5,-224.5 680.5,-224.5"/>
<text text-anchor="middle" x="748.5" y="-231.5" font-family="Helvetica,sans-Serif" font-size="10.00">include/services/Services.h</text>
</a>
</g>
</g>
<!-- Node2 -->
<g id="node2" class="node">
<title>Node2</title>
<g id="a_node2"><a xlink:title=" ">
<polygon fill="white" stroke="#bfbfbf" points="177,-168.5 177,-187.5 228,-187.5 228,-168.5 177,-168.5"/>
<text text-anchor="middle" x="202.5" y="-175.5" font-family="Helvetica,sans-Serif" font-size="10.00">memory</text>
</a>
</g>
</g>
<!-- Node1&#45;&gt;Node2 -->
<g id="edge1" class="edge">
<title>Node1&#45;&gt;Node2</title>
<path fill="none" stroke="midnightblue" d="M680.27,-230.55C583.87,-226.29 402.27,-215.39 238.29,-187.83"/>
<polygon fill="midnightblue" stroke="midnightblue" points="238.46,-184.31 228.01,-186.07 237.28,-191.21 238.46,-184.31"/>
</g>
<!-- Node3 -->
<g id="node3" class="node">
<title>Node3</title>
<g id="a_node3"><a xlink:href="AssetService_8h.html" target="_top" xlink:title="Implementation of AssetService.">
<polygon fill="white" stroke="black" points="373,-168.5 373,-187.5 488,-187.5 488,-168.5 373,-168.5"/>
<text text-anchor="middle" x="430.5" y="-175.5" font-family="Helvetica,sans-Serif" font-size="10.00">assets/AssetService.h</text>
</a>
</g>
</g>
<!-- Node1&#45;&gt;Node3 -->
<g id="edge2" class="edge">
<title>Node1&#45;&gt;Node3</title>
<path fill="none" stroke="midnightblue" d="M698.11,-224.44C641.82,-214.89 550.75,-199.42 490.74,-189.23"/>
<polygon fill="midnightblue" stroke="midnightblue" points="491.1,-185.74 480.65,-187.52 489.93,-192.64 491.1,-185.74"/>
</g>
<!-- Node15 -->
<g id="node15" class="node">
<title>Node15</title>
<g id="a_node15"><a xlink:href="AudioService_8h.html" target="_top" xlink:title="Default audio service, can actually play audio.">
<polygon fill="white" stroke="black" points="246.5,-168.5 246.5,-187.5 354.5,-187.5 354.5,-168.5 246.5,-168.5"/>
<text text-anchor="middle" x="300.5" y="-175.5" font-family="Helvetica,sans-Serif" font-size="10.00">audio/AudioService.h</text>
</a>
</g>
</g>
<!-- Node1&#45;&gt;Node15 -->
<g id="edge20" class="edge">
<title>Node1&#45;&gt;Node15</title>
<path fill="none" stroke="midnightblue" d="M680.28,-225.56C605.45,-217.28 481.54,-203.21 364.96,-188.16"/>
<polygon fill="midnightblue" stroke="midnightblue" points="365.15,-184.66 354.78,-186.84 364.25,-191.6 365.15,-184.66"/>
</g>
<!-- Node16 -->
<g id="node16" class="node">
<title>Node16</title>
<g id="a_node16"><a xlink:href="ConfigService_8h.html" target="_top" xlink:title="Header for default Config Service.">
<polygon fill="white" stroke="black" points="541,-168.5 541,-187.5 654,-187.5 654,-168.5 541,-168.5"/>
<text text-anchor="middle" x="597.5" y="-175.5" font-family="Helvetica,sans-Serif" font-size="10.00">config/ConfigService.h</text>
</a>
</g>
</g>
<!-- Node1&#45;&gt;Node16 -->
<g id="edge24" class="edge">
<title>Node1&#45;&gt;Node16</title>
<path fill="none" stroke="midnightblue" d="M724.57,-224.44C699.28,-215.4 659.2,-201.06 630.82,-190.92"/>
<polygon fill="midnightblue" stroke="midnightblue" points="631.91,-187.59 621.31,-187.52 629.55,-194.18 631.91,-187.59"/>
</g>
<!-- Node18 -->
<g id="node18" class="node">
<title>Node18</title>
<g id="a_node18"><a xlink:href="DisplayService_8h.html" target="_top" xlink:title="Service that encapsulates SDL display related functionality.">
<polygon fill="white" stroke="black" points="843.5,-168.5 843.5,-187.5 965.5,-187.5 965.5,-168.5 843.5,-168.5"/>
<text text-anchor="middle" x="904.5" y="-175.5" font-family="Helvetica,sans-Serif" font-size="10.00">display/DisplayService.h</text>
</a>
</g>
</g>
<!-- Node1&#45;&gt;Node18 -->
<g id="edge28" class="edge">
<title>Node1&#45;&gt;Node18</title>
<path fill="none" stroke="midnightblue" d="M773.22,-224.44C799.35,-215.4 840.76,-201.06 870.08,-190.92"/>
<polygon fill="midnightblue" stroke="midnightblue" points="871.59,-194.1 879.9,-187.52 869.3,-187.48 871.59,-194.1"/>
</g>
<!-- Node21 -->
<g id="node21" class="node">
<title>Node21</title>
<g id="a_node21"><a xlink:href="EventQueue_8h.html" target="_top" xlink:title="Handles SDL_Events from main SDL_Queue. Can be hooked into by other services and notified when change...">
<polygon fill="white" stroke="black" points="1115.5,-168.5 1115.5,-187.5 1225.5,-187.5 1225.5,-168.5 1115.5,-168.5"/>
<text text-anchor="middle" x="1170.5" y="-175.5" font-family="Helvetica,sans-Serif" font-size="10.00">events/EventQueue.h</text>
</a>
</g>
</g>
<!-- Node1&#45;&gt;Node21 -->
<g id="edge35" class="edge">
<title>Node1&#45;&gt;Node21</title>
<path fill="none" stroke="midnightblue" d="M816.5,-224.75C886.36,-216.21 998.55,-202.31 1105.36,-188.14"/>
<polygon fill="midnightblue" stroke="midnightblue" points="1105.9,-191.6 1115.35,-186.81 1104.97,-184.66 1105.9,-191.6"/>
</g>
<!-- Node23 -->
<g id="node23" class="node">
<title>Node23</title>
<g id="a_node23"><a xlink:href="InputService_8h.html" target="_top" xlink:title="General Purpose input listener. Handles Mouse, Keyboard, Joystick.">
<polygon fill="white" stroke="black" points="1251,-168.5 1251,-187.5 1354,-187.5 1354,-168.5 1251,-168.5"/>
<text text-anchor="middle" x="1302.5" y="-175.5" font-family="Helvetica,sans-Serif" font-size="10.00">input/InputService.h</text>
</a>
</g>
</g>
<!-- Node1&#45;&gt;Node23 -->
<g id="edge39" class="edge">
<title>Node1&#45;&gt;Node23</title>
<path fill="none" stroke="midnightblue" d="M816.6,-227.54C910.68,-219.81 1085.67,-204.73 1234.5,-188 1236.58,-187.77 1238.7,-187.52 1240.83,-187.27"/>
<polygon fill="midnightblue" stroke="midnightblue" points="1241.41,-190.72 1250.92,-186.04 1240.57,-183.78 1241.41,-190.72"/>
</g>
<!-- Node31 -->
<g id="node31" class="node">
<title>Node31</title>
<g id="a_node31"><a xlink:href="DebugLoggingService_8h.html" target="_top" xlink:title="Logging service that does the logging. Used for development.">
<polygon fill="white" stroke="black" points="672,-168.5 672,-187.5 825,-187.5 825,-168.5 672,-168.5"/>
<text text-anchor="middle" x="748.5" y="-175.5" font-family="Helvetica,sans-Serif" font-size="10.00">logging/DebugLoggingService.h</text>
</a>
</g>
</g>
<!-- Node1&#45;&gt;Node31 -->
<g id="edge52" class="edge">
<title>Node1&#45;&gt;Node31</title>
<path fill="none" stroke="midnightblue" d="M748.5,-224.08C748.5,-217.01 748.5,-206.86 748.5,-197.99"/>
<polygon fill="midnightblue" stroke="midnightblue" points="752,-197.75 748.5,-187.75 745,-197.75 752,-197.75"/>
</g>
<!-- Node33 -->
<g id="node33" class="node">
<title>Node33</title>
<g id="a_node33"><a xlink:href="SceneService_8h.html" target="_top" xlink:title="Service in charge of managing scenes.">
<polygon fill="white" stroke="black" points="983.5,-168.5 983.5,-187.5 1097.5,-187.5 1097.5,-168.5 983.5,-168.5"/>
<text text-anchor="middle" x="1040.5" y="-175.5" font-family="Helvetica,sans-Serif" font-size="10.00">scene/SceneService.h</text>
</a>
</g>
</g>
<!-- Node1&#45;&gt;Node33 -->
<g id="edge56" class="edge">
<title>Node1&#45;&gt;Node33</title>
<path fill="none" stroke="midnightblue" d="M794.77,-224.44C846.24,-214.92 929.39,-199.55 984.5,-189.36"/>
<polygon fill="midnightblue" stroke="midnightblue" points="985.25,-192.78 994.45,-187.52 983.98,-185.89 985.25,-192.78"/>
</g>
<!-- Node4 -->
<g id="node4" class="node">
<title>Node4</title>
<g id="a_node4"><a xlink:title=" ">
<polygon fill="white" stroke="#bfbfbf" points="546,-112.5 546,-131.5 581,-131.5 581,-112.5 546,-112.5"/>
<text text-anchor="middle" x="563.5" y="-119.5" font-family="Helvetica,sans-Serif" font-size="10.00">map</text>
</a>
</g>
</g>
<!-- Node3&#45;&gt;Node4 -->
<g id="edge3" class="edge">
<title>Node3&#45;&gt;Node4</title>
<path fill="none" stroke="midnightblue" d="M451.57,-168.44C474.59,-159.1 511.53,-144.1 536.62,-133.92"/>
<polygon fill="midnightblue" stroke="midnightblue" points="537.97,-137.14 545.92,-130.14 535.34,-130.66 537.97,-137.14"/>
</g>
<!-- Node5 -->
<g id="node5" class="node">
<title>Node5</title>
<g id="a_node5"><a xlink:title=" ">
<polygon fill="white" stroke="#bfbfbf" points="697,-56.5 697,-75.5 738,-75.5 738,-56.5 697,-56.5"/>
<text text-anchor="middle" x="717.5" y="-63.5" font-family="Helvetica,sans-Serif" font-size="10.00">string</text>
</a>
</g>
</g>
<!-- Node3&#45;&gt;Node5 -->
<g id="edge4" class="edge">
<title>Node3&#45;&gt;Node5</title>
<path fill="none" stroke="midnightblue" d="M424.1,-168.31C414.91,-154.69 400.53,-128.19 414.5,-112 432.17,-91.51 613.2,-75.16 686.72,-69.32"/>
<polygon fill="midnightblue" stroke="midnightblue" points="687.06,-72.8 696.75,-68.53 686.51,-65.82 687.06,-72.8"/>
</g>
<!-- Node6 -->
<g id="node6" class="node">
<title>Node6</title>
<g id="a_node6"><a xlink:href="Font_8h.html" target="_top" xlink:title="Easy interface to interact with SDL fonts.">
<polygon fill="white" stroke="black" points="238,-112.5 238,-131.5 329,-131.5 329,-112.5 238,-112.5"/>
<text text-anchor="middle" x="283.5" y="-119.5" font-family="Helvetica,sans-Serif" font-size="10.00">../../assets/Font.h</text>
</a>
</g>
</g>
<!-- Node3&#45;&gt;Node6 -->
<g id="edge5" class="edge">
<title>Node3&#45;&gt;Node6</title>
<path fill="none" stroke="midnightblue" d="M407.21,-168.44C382.69,-159.44 343.9,-145.19 316.3,-135.05"/>
<polygon fill="midnightblue" stroke="midnightblue" points="317.28,-131.68 306.68,-131.52 314.86,-138.25 317.28,-131.68"/>
</g>
<!-- Node10 -->
<g id="node10" class="node">
<title>Node10</title>
<g id="a_node10"><a xlink:href="Sound_8h.html" target="_top" xlink:title="Implementation of Sound.">
<polygon fill="white" stroke="black" points="121,-112.5 121,-131.5 220,-131.5 220,-112.5 121,-112.5"/>
<text text-anchor="middle" x="170.5" y="-119.5" font-family="Helvetica,sans-Serif" font-size="10.00">../../assets/Sound.h</text>
</a>
</g>
</g>
<!-- Node3&#45;&gt;Node10 -->
<g id="edge10" class="edge">
<title>Node3&#45;&gt;Node10</title>
<path fill="none" stroke="midnightblue" d="M389.3,-168.44C343.85,-159 270.66,-143.8 221.59,-133.61"/>
<polygon fill="midnightblue" stroke="midnightblue" points="222.01,-130.12 211.51,-131.52 220.58,-136.98 222.01,-130.12"/>
</g>
<!-- Node12 -->
<g id="node12" class="node">
<title>Node12</title>
<g id="a_node12"><a xlink:href="Stream_8h.html" target="_top" xlink:title="Wrapper for sdl stream including ability to store stream pointer. Use for single instance sounds like...">
<polygon fill="white" stroke="black" points="0,-112.5 0,-131.5 103,-131.5 103,-112.5 0,-112.5"/>
<text text-anchor="middle" x="51.5" y="-119.5" font-family="Helvetica,sans-Serif" font-size="10.00">../../assets/Stream.h</text>
</a>
</g>
</g>
<!-- Node3&#45;&gt;Node12 -->
<g id="edge13" class="edge">
<title>Node3&#45;&gt;Node12</title>
<path fill="none" stroke="midnightblue" d="M372.85,-169.02C311.07,-160.44 209.82,-146.27 113.15,-132.23"/>
<polygon fill="midnightblue" stroke="midnightblue" points="113.61,-128.76 103.21,-130.79 112.6,-135.69 113.61,-128.76"/>
</g>
<!-- Node13 -->
<g id="node13" class="node">
<title>Node13</title>
<g id="a_node13"><a xlink:href="Texture_8h.html" target="_top" xlink:title="Easy interface to interact with sdl bitmaps.">
<polygon fill="white" stroke="black" points="423.5,-112.5 423.5,-131.5 527.5,-131.5 527.5,-112.5 423.5,-112.5"/>
<text text-anchor="middle" x="475.5" y="-119.5" font-family="Helvetica,sans-Serif" font-size="10.00">../../assets/Texture.h</text>
</a>
</g>
</g>
<!-- Node3&#45;&gt;Node13 -->
<g id="edge16" class="edge">
<title>Node3&#45;&gt;Node13</title>
<path fill="none" stroke="midnightblue" d="M437.93,-168.08C444.35,-160.38 453.81,-149.03 461.62,-139.65"/>
<polygon fill="midnightblue" stroke="midnightblue" points="464.49,-141.67 468.21,-131.75 459.12,-137.19 464.49,-141.67"/>
</g>
<!-- Node6&#45;&gt;Node5 -->
<g id="edge7" class="edge">
<title>Node6&#45;&gt;Node5</title>
<path fill="none" stroke="midnightblue" d="M329.02,-114.03C333.9,-113.32 338.8,-112.63 343.5,-112 470.63,-94.82 622.51,-77.55 686.58,-70.41"/>
<polygon fill="midnightblue" stroke="midnightblue" points="687.24,-73.86 696.8,-69.28 686.47,-66.9 687.24,-73.86"/>
</g>
<!-- Node7 -->
<g id="node7" class="node">
<title>Node7</title>
<g id="a_node7"><a xlink:title=" ">
<polygon fill="white" stroke="#bfbfbf" points="240.5,-56.5 240.5,-75.5 326.5,-75.5 326.5,-56.5 240.5,-56.5"/>
<text text-anchor="middle" x="283.5" y="-63.5" font-family="Helvetica,sans-Serif" font-size="10.00">SDL2/SDL_ttf.h</text>
</a>
</g>
</g>
<!-- Node6&#45;&gt;Node7 -->
<g id="edge6" class="edge">
<title>Node6&#45;&gt;Node7</title>
<path fill="none" stroke="midnightblue" d="M283.5,-112.08C283.5,-105.01 283.5,-94.86 283.5,-85.99"/>
<polygon fill="midnightblue" stroke="midnightblue" points="287,-85.75 283.5,-75.75 280,-85.75 287,-85.75"/>
</g>
<!-- Node8 -->
<g id="node8" class="node">
<title>Node8</title>
<g id="a_node8"><a xlink:href="Color_8h.html" target="_top" xlink:title="Helpers for creating colors without accessing SDL api directly.">
<polygon fill="white" stroke="black" points="436.5,-56.5 436.5,-75.5 514.5,-75.5 514.5,-56.5 436.5,-56.5"/>
<text text-anchor="middle" x="475.5" y="-63.5" font-family="Helvetica,sans-Serif" font-size="10.00">../color/Color.h</text>
</a>
</g>
</g>
<!-- Node6&#45;&gt;Node8 -->
<g id="edge8" class="edge">
<title>Node6&#45;&gt;Node8</title>
<path fill="none" stroke="midnightblue" d="M313.92,-112.44C346.78,-103.2 399.28,-88.44 435.47,-78.26"/>
<polygon fill="midnightblue" stroke="midnightblue" points="436.54,-81.59 445.22,-75.52 434.65,-74.85 436.54,-81.59"/>
</g>
<!-- Node9 -->
<g id="node9" class="node">
<title>Node9</title>
<g id="a_node9"><a xlink:title=" ">
<polygon fill="white" stroke="#bfbfbf" points="406.5,-0.5 406.5,-19.5 544.5,-19.5 544.5,-0.5 406.5,-0.5"/>
<text text-anchor="middle" x="475.5" y="-7.5" font-family="Helvetica,sans-Serif" font-size="10.00">SDL2/SDL2_gfxPrimitives.h</text>
</a>
</g>
</g>
<!-- Node8&#45;&gt;Node9 -->
<g id="edge9" class="edge">
<title>Node8&#45;&gt;Node9</title>
<path fill="none" stroke="midnightblue" d="M475.5,-56.08C475.5,-49.01 475.5,-38.86 475.5,-29.99"/>
<polygon fill="midnightblue" stroke="midnightblue" points="479,-29.75 475.5,-19.75 472,-29.75 479,-29.75"/>
</g>
<!-- Node10&#45;&gt;Node5 -->
<g id="edge12" class="edge">
<title>Node10&#45;&gt;Node5</title>
<path fill="none" stroke="midnightblue" d="M220.15,-113.09C222.97,-112.7 225.77,-112.34 228.5,-112 401.44,-90.65 609.93,-74.71 686.97,-69.15"/>
<polygon fill="midnightblue" stroke="midnightblue" points="687.23,-72.64 696.95,-68.43 686.73,-65.65 687.23,-72.64"/>
</g>
<!-- Node11 -->
<g id="node11" class="node">
<title>Node11</title>
<g id="a_node11"><a xlink:title=" ">
<polygon fill="white" stroke="#bfbfbf" points="61.5,-56.5 61.5,-75.5 161.5,-75.5 161.5,-56.5 61.5,-56.5"/>
<text text-anchor="middle" x="111.5" y="-63.5" font-family="Helvetica,sans-Serif" font-size="10.00">SDL2/SDL_mixer.h</text>
</a>
</g>
</g>
<!-- Node10&#45;&gt;Node11 -->
<g id="edge11" class="edge">
<title>Node10&#45;&gt;Node11</title>
<path fill="none" stroke="midnightblue" d="M161.02,-112.32C152.3,-104.34 139.16,-92.31 128.6,-82.65"/>
<polygon fill="midnightblue" stroke="midnightblue" points="130.89,-80 121.15,-75.83 126.17,-85.17 130.89,-80"/>
</g>
<!-- Node12&#45;&gt;Node5 -->
<g id="edge15" class="edge">
<title>Node12&#45;&gt;Node5</title>
<path fill="none" stroke="midnightblue" d="M103.18,-113C105.99,-112.64 108.78,-112.3 111.5,-112 331.16,-87.4 597.17,-72.93 686.54,-68.48"/>
<polygon fill="midnightblue" stroke="midnightblue" points="686.97,-71.96 696.78,-67.98 686.62,-64.97 686.97,-71.96"/>
</g>
<!-- Node12&#45;&gt;Node11 -->
<g id="edge14" class="edge">
<title>Node12&#45;&gt;Node11</title>
<path fill="none" stroke="midnightblue" d="M61.14,-112.32C70.01,-104.34 83.37,-92.31 94.11,-82.65"/>
<polygon fill="midnightblue" stroke="midnightblue" points="96.59,-85.13 101.68,-75.83 91.91,-79.92 96.59,-85.13"/>
</g>
<!-- Node13&#45;&gt;Node5 -->
<g id="edge18" class="edge">
<title>Node13&#45;&gt;Node5</title>
<path fill="none" stroke="midnightblue" d="M513.85,-112.44C561.84,-101.73 643.08,-83.61 687.04,-73.8"/>
<polygon fill="midnightblue" stroke="midnightblue" points="687.87,-77.2 696.86,-71.6 686.34,-70.37 687.87,-77.2"/>
</g>
<!-- Node13&#45;&gt;Node8 -->
<g id="edge19" class="edge">
<title>Node13&#45;&gt;Node8</title>
<path fill="none" stroke="midnightblue" d="M475.5,-112.08C475.5,-105.01 475.5,-94.86 475.5,-85.99"/>
<polygon fill="midnightblue" stroke="midnightblue" points="479,-85.75 475.5,-75.75 472,-85.75 479,-85.75"/>
</g>
<!-- Node14 -->
<g id="node14" class="node">
<title>Node14</title>
<g id="a_node14"><a xlink:title=" ">
<polygon fill="white" stroke="#bfbfbf" points="944,-56.5 944,-75.5 1015,-75.5 1015,-56.5 944,-56.5"/>
<text text-anchor="middle" x="979.5" y="-63.5" font-family="Helvetica,sans-Serif" font-size="10.00">SDL2/SDL.h</text>
</a>
</g>
</g>
<!-- Node13&#45;&gt;Node14 -->
<g id="edge17" class="edge">
<title>Node13&#45;&gt;Node14</title>
<path fill="none" stroke="midnightblue" d="M527.72,-113.14C530.69,-112.74 533.63,-112.36 536.5,-112 681.13,-93.99 853.01,-78.1 933.55,-70.98"/>
<polygon fill="midnightblue" stroke="midnightblue" points="934.18,-74.44 943.84,-70.07 933.57,-67.46 934.18,-74.44"/>
</g>
<!-- Node15&#45;&gt;Node5 -->
<g id="edge21" class="edge">
<title>Node15&#45;&gt;Node5</title>
<path fill="none" stroke="midnightblue" d="M311.06,-168.37C329.16,-154.07 367.82,-125.7 405.5,-112 503.83,-76.24 629.3,-68.8 686.53,-67.32"/>
<polygon fill="midnightblue" stroke="midnightblue" points="686.8,-70.81 696.72,-67.1 686.65,-63.81 686.8,-70.81"/>
</g>
<!-- Node15&#45;&gt;Node10 -->
<g id="edge22" class="edge">
<title>Node15&#45;&gt;Node10</title>
<path fill="none" stroke="midnightblue" d="M279.9,-168.44C258.51,-159.56 224.82,-145.56 200.48,-135.45"/>
<polygon fill="midnightblue" stroke="midnightblue" points="201.58,-132.12 191,-131.52 198.89,-138.58 201.58,-132.12"/>
</g>
<!-- Node15&#45;&gt;Node12 -->
<g id="edge23" class="edge">
<title>Node15&#45;&gt;Node12</title>
<path fill="none" stroke="midnightblue" d="M261.05,-168.44C217.61,-159.02 147.71,-143.87 100.72,-133.68"/>
<polygon fill="midnightblue" stroke="midnightblue" points="101.28,-130.22 90.77,-131.52 99.8,-137.06 101.28,-130.22"/>
</g>
<!-- Node16&#45;&gt;Node4 -->
<g id="edge25" class="edge">
<title>Node16&#45;&gt;Node4</title>
<path fill="none" stroke="midnightblue" d="M591.89,-168.08C587.13,-160.53 580.18,-149.49 574.35,-140.23"/>
<polygon fill="midnightblue" stroke="midnightblue" points="577.3,-138.35 569.01,-131.75 571.38,-142.08 577.3,-138.35"/>
</g>
<!-- Node16&#45;&gt;Node5 -->
<g id="edge27" class="edge">
<title>Node16&#45;&gt;Node5</title>
<path fill="none" stroke="midnightblue" d="M611.46,-168.37C624.7,-159.88 644.85,-146.16 660.5,-132 677.11,-116.96 693.74,-97.36 704.71,-83.63"/>
<polygon fill="midnightblue" stroke="midnightblue" points="707.62,-85.59 711.04,-75.56 702.11,-81.26 707.62,-85.59"/>
</g>
<!-- Node17 -->
<g id="node17" class="node">
<title>Node17</title>
<g id="a_node17"><a xlink:title=" ">
<polygon fill="white" stroke="#bfbfbf" points="599.5,-112.5 599.5,-131.5 651.5,-131.5 651.5,-112.5 599.5,-112.5"/>
<text text-anchor="middle" x="625.5" y="-119.5" font-family="Helvetica,sans-Serif" font-size="10.00">sstream</text>
</a>
</g>
</g>
<!-- Node16&#45;&gt;Node17 -->
<g id="edge26" class="edge">
<title>Node16&#45;&gt;Node17</title>
<path fill="none" stroke="midnightblue" d="M602.12,-168.08C605.96,-160.69 611.52,-149.95 616.26,-140.81"/>
<polygon fill="midnightblue" stroke="midnightblue" points="619.47,-142.24 620.96,-131.75 613.25,-139.02 619.47,-142.24"/>
</g>
<!-- Node18&#45;&gt;Node5 -->
<g id="edge30" class="edge">
<title>Node18&#45;&gt;Node5</title>
<path fill="none" stroke="midnightblue" d="M901.26,-168.47C895.56,-154.57 882.41,-127.1 862.5,-112 828.54,-86.24 779.62,-75.07 748.2,-70.33"/>
<polygon fill="midnightblue" stroke="midnightblue" points="748.64,-66.86 738.26,-68.96 747.69,-73.79 748.64,-66.86"/>
</g>
<!-- Node18&#45;&gt;Node8 -->
<g id="edge31" class="edge">
<title>Node18&#45;&gt;Node8</title>
<path fill="none" stroke="midnightblue" d="M872.6,-168.46C811.27,-152.05 681.16,-117.26 660.5,-112 613.36,-99.99 559.28,-86.92 521.82,-77.97"/>
<polygon fill="midnightblue" stroke="midnightblue" points="522.25,-74.48 511.72,-75.56 520.63,-81.29 522.25,-74.48"/>
</g>
<!-- Node18&#45;&gt;Node14 -->
<g id="edge29" class="edge">
<title>Node18&#45;&gt;Node14</title>
<path fill="none" stroke="midnightblue" d="M910.39,-168.37C922.76,-150.22 951.68,-107.8 967.92,-83.99"/>
<polygon fill="midnightblue" stroke="midnightblue" points="970.9,-85.83 973.64,-75.59 965.12,-81.88 970.9,-85.83"/>
</g>
<!-- Node19 -->
<g id="node19" class="node">
<title>Node19</title>
<g id="a_node19"><a xlink:href="Service_8h.html" target="_top" xlink:title="Service subscriber that can listen for events.">
<polygon fill="white" stroke="black" points="1008,-112.5 1008,-131.5 1073,-131.5 1073,-112.5 1008,-112.5"/>
<text text-anchor="middle" x="1040.5" y="-119.5" font-family="Helvetica,sans-Serif" font-size="10.00">../Service.h</text>
</a>
</g>
</g>
<!-- Node18&#45;&gt;Node19 -->
<g id="edge32" class="edge">
<title>Node18&#45;&gt;Node19</title>
<path fill="none" stroke="midnightblue" d="M926.05,-168.44C948.53,-159.52 983.99,-145.44 1009.48,-135.32"/>
<polygon fill="midnightblue" stroke="midnightblue" points="1011.05,-138.46 1019.05,-131.52 1008.47,-131.95 1011.05,-138.46"/>
</g>
<!-- Node19&#45;&gt;Node5 -->
<g id="edge34" class="edge">
<title>Node19&#45;&gt;Node5</title>
<path fill="none" stroke="midnightblue" d="M1007.75,-115.53C945.11,-105.05 809.15,-82.32 748.17,-72.13"/>
<polygon fill="midnightblue" stroke="midnightblue" points="748.47,-68.63 738.03,-70.43 747.32,-75.53 748.47,-68.63"/>
</g>
<!-- Node20 -->
<g id="node20" class="node">
<title>Node20</title>
<g id="a_node20"><a xlink:title=" ">
<polygon fill="white" stroke="#bfbfbf" points="1162.5,-56.5 1162.5,-75.5 1268.5,-75.5 1268.5,-56.5 1162.5,-56.5"/>
<text text-anchor="middle" x="1215.5" y="-63.5" font-family="Helvetica,sans-Serif" font-size="10.00">SDL2/SDL_events.h</text>
</a>
</g>
</g>
<!-- Node19&#45;&gt;Node20 -->
<g id="edge33" class="edge">
<title>Node19&#45;&gt;Node20</title>
<path fill="none" stroke="midnightblue" d="M1068.23,-112.44C1097.93,-103.28 1145.22,-88.69 1178.17,-78.52"/>
<polygon fill="midnightblue" stroke="midnightblue" points="1179.38,-81.81 1187.9,-75.52 1177.31,-75.12 1179.38,-81.81"/>
</g>
<!-- Node21&#45;&gt;Node14 -->
<g id="edge36" class="edge">
<title>Node21&#45;&gt;Node14</title>
<path fill="none" stroke="midnightblue" d="M1169.52,-168.45C1167.45,-154.54 1161.37,-127.05 1144.5,-112 1111.73,-82.77 1061.75,-72.3 1025.38,-68.66"/>
<polygon fill="midnightblue" stroke="midnightblue" points="1025.31,-65.14 1015.04,-67.77 1024.71,-72.11 1025.31,-65.14"/>
</g>
<!-- Node21&#45;&gt;Node19 -->
<g id="edge38" class="edge">
<title>Node21&#45;&gt;Node19</title>
<path fill="none" stroke="midnightblue" d="M1149.9,-168.44C1128.51,-159.56 1094.82,-145.56 1070.48,-135.45"/>
<polygon fill="midnightblue" stroke="midnightblue" points="1071.58,-132.12 1061,-131.52 1068.89,-138.58 1071.58,-132.12"/>
</g>
<!-- Node22 -->
<g id="node22" class="node">
<title>Node22</title>
<g id="a_node22"><a xlink:title=" ">
<polygon fill="white" stroke="#bfbfbf" points="1091.5,-112.5 1091.5,-131.5 1135.5,-131.5 1135.5,-112.5 1091.5,-112.5"/>
<text text-anchor="middle" x="1113.5" y="-119.5" font-family="Helvetica,sans-Serif" font-size="10.00">vector</text>
</a>
</g>
</g>
<!-- Node21&#45;&gt;Node22 -->
<g id="edge37" class="edge">
<title>Node21&#45;&gt;Node22</title>
<path fill="none" stroke="midnightblue" d="M1161.34,-168.32C1153,-160.42 1140.47,-148.55 1130.32,-138.94"/>
<polygon fill="midnightblue" stroke="midnightblue" points="1132.49,-136.17 1122.82,-131.83 1127.68,-141.25 1132.49,-136.17"/>
</g>
<!-- Node23&#45;&gt;Node5 -->
<g id="edge42" class="edge">
<title>Node23&#45;&gt;Node5</title>
<path fill="none" stroke="midnightblue" d="M1285.97,-168.34C1257.79,-154.01 1198.27,-125.6 1144.5,-112 999.46,-75.33 819.39,-68.5 748.37,-67.26"/>
<polygon fill="midnightblue" stroke="midnightblue" points="748.36,-63.76 738.31,-67.11 748.25,-70.76 748.36,-63.76"/>
</g>
<!-- Node23&#45;&gt;Node19 -->
<g id="edge43" class="edge">
<title>Node23&#45;&gt;Node19</title>
<path fill="none" stroke="midnightblue" d="M1260.3,-168.49C1218.07,-159.95 1150.98,-146.3 1083.07,-132.1"/>
<polygon fill="midnightblue" stroke="midnightblue" points="1083.56,-128.63 1073.05,-130.01 1082.12,-135.48 1083.56,-128.63"/>
</g>
<!-- Node23&#45;&gt;Node20 -->
<g id="edge40" class="edge">
<title>Node23&#45;&gt;Node20</title>
<path fill="none" stroke="midnightblue" d="M1293.47,-168.44C1284.44,-159.67 1270.36,-145.46 1259.5,-132 1247.11,-116.64 1234.65,-97.85 1226.17,-84.43"/>
<polygon fill="midnightblue" stroke="midnightblue" points="1229.02,-82.38 1220.76,-75.74 1223.07,-86.08 1229.02,-82.38"/>
</g>
<!-- Node24 -->
<g id="node24" class="node">
<title>Node24</title>
<g id="a_node24"><a xlink:title=" ">
<polygon fill="white" stroke="#bfbfbf" points="1464.5,-112.5 1464.5,-131.5 1518.5,-131.5 1518.5,-112.5 1464.5,-112.5"/>
<text text-anchor="middle" x="1491.5" y="-119.5" font-family="Helvetica,sans-Serif" font-size="10.00">iostream</text>
</a>
</g>
</g>
<!-- Node23&#45;&gt;Node24 -->
<g id="edge41" class="edge">
<title>Node23&#45;&gt;Node24</title>
<path fill="none" stroke="midnightblue" d="M1332.45,-168.44C1365.51,-159 1418.77,-143.78 1454.44,-133.59"/>
<polygon fill="midnightblue" stroke="midnightblue" points="1455.79,-136.84 1464.45,-130.73 1453.87,-130.11 1455.79,-136.84"/>
</g>
<!-- Node25 -->
<g id="node25" class="node">
<title>Node25</title>
<g id="a_node25"><a xlink:href="JoystickState_8h.html" target="_top" xlink:title="Container for storing Joystick state.">
<polygon fill="white" stroke="black" points="1268,-112.5 1268,-131.5 1351,-131.5 1351,-112.5 1268,-112.5"/>
<text text-anchor="middle" x="1309.5" y="-119.5" font-family="Helvetica,sans-Serif" font-size="10.00">JoystickState.h</text>
</a>
</g>
</g>
<!-- Node23&#45;&gt;Node25 -->
<g id="edge44" class="edge">
<title>Node23&#45;&gt;Node25</title>
<path fill="none" stroke="midnightblue" d="M1303.66,-168.08C1304.58,-160.93 1305.92,-150.64 1307.08,-141.69"/>
<polygon fill="midnightblue" stroke="midnightblue" points="1310.55,-142.12 1308.37,-131.75 1303.61,-141.22 1310.55,-142.12"/>
</g>
<!-- Node27 -->
<g id="node27" class="node">
<title>Node27</title>
<g id="a_node27"><a xlink:href="KeyboardState_8h.html" target="_top" xlink:title="Container for storing Keyboard state.">
<polygon fill="white" stroke="black" points="1536.5,-112.5 1536.5,-131.5 1624.5,-131.5 1624.5,-112.5 1536.5,-112.5"/>
<text text-anchor="middle" x="1580.5" y="-119.5" font-family="Helvetica,sans-Serif" font-size="10.00">KeyboardState.h</text>
</a>
</g>
</g>
<!-- Node23&#45;&gt;Node27 -->
<g id="edge47" class="edge">
<title>Node23&#45;&gt;Node27</title>
<path fill="none" stroke="midnightblue" d="M1346.55,-168.44C1395.35,-158.96 1474.06,-143.67 1526.53,-133.48"/>
<polygon fill="midnightblue" stroke="midnightblue" points="1527.51,-136.86 1536.66,-131.52 1526.17,-129.99 1527.51,-136.86"/>
</g>
<!-- Node29 -->
<g id="node29" class="node">
<title>Node29</title>
<g id="a_node29"><a xlink:href="MouseState_8h.html" target="_top" xlink:title="Container for storing Mouse state.">
<polygon fill="white" stroke="black" points="1369,-112.5 1369,-131.5 1446,-131.5 1446,-112.5 1369,-112.5"/>
<text text-anchor="middle" x="1407.5" y="-119.5" font-family="Helvetica,sans-Serif" font-size="10.00">MouseState.h</text>
</a>
</g>
</g>
<!-- Node23&#45;&gt;Node29 -->
<g id="edge49" class="edge">
<title>Node23&#45;&gt;Node29</title>
<path fill="none" stroke="midnightblue" d="M1319.37,-168.32C1336.21,-159.66 1362.31,-146.24 1381.74,-136.25"/>
<polygon fill="midnightblue" stroke="midnightblue" points="1383.38,-139.34 1390.67,-131.65 1380.18,-133.12 1383.38,-139.34"/>
</g>
<!-- Node25&#45;&gt;Node20 -->
<g id="edge45" class="edge">
<title>Node25&#45;&gt;Node20</title>
<path fill="none" stroke="midnightblue" d="M1294.4,-112.32C1279.6,-103.82 1256.81,-90.73 1239.52,-80.8"/>
<polygon fill="midnightblue" stroke="midnightblue" points="1240.98,-77.6 1230.57,-75.65 1237.49,-83.67 1240.98,-77.6"/>
</g>
<!-- Node26 -->
<g id="node26" class="node">
<title>Node26</title>
<g id="a_node26"><a xlink:href="JoystickCodes_8h.html" target="_top" xlink:title="Defines for codes used for joystick.">
<polygon fill="white" stroke="black" points="1286.5,-56.5 1286.5,-75.5 1374.5,-75.5 1374.5,-56.5 1286.5,-56.5"/>
<text text-anchor="middle" x="1330.5" y="-63.5" font-family="Helvetica,sans-Serif" font-size="10.00">JoystickCodes.h</text>
</a>
</g>
</g>
<!-- Node25&#45;&gt;Node26 -->
<g id="edge46" class="edge">
<title>Node25&#45;&gt;Node26</title>
<path fill="none" stroke="midnightblue" d="M1312.97,-112.08C1315.81,-104.77 1319.93,-94.18 1323.46,-85.1"/>
<polygon fill="midnightblue" stroke="midnightblue" points="1326.73,-86.34 1327.1,-75.75 1320.21,-83.8 1326.73,-86.34"/>
</g>
<!-- Node28 -->
<g id="node28" class="node">
<title>Node28</title>
<g id="a_node28"><a xlink:href="KeyboardKeys_8h.html" target="_top" xlink:title="Defenitions of keys that can be used by input manager.">
<polygon fill="white" stroke="black" points="1537.5,-56.5 1537.5,-75.5 1623.5,-75.5 1623.5,-56.5 1537.5,-56.5"/>
<text text-anchor="middle" x="1580.5" y="-63.5" font-family="Helvetica,sans-Serif" font-size="10.00">KeyboardKeys.h</text>
</a>
</g>
</g>
<!-- Node27&#45;&gt;Node28 -->
<g id="edge48" class="edge">
<title>Node27&#45;&gt;Node28</title>
<path fill="none" stroke="midnightblue" d="M1580.5,-112.08C1580.5,-105.01 1580.5,-94.86 1580.5,-85.99"/>
<polygon fill="midnightblue" stroke="midnightblue" points="1584,-85.75 1580.5,-75.75 1577,-85.75 1584,-85.75"/>
</g>
<!-- Node29&#45;&gt;Node20 -->
<g id="edge50" class="edge">
<title>Node29&#45;&gt;Node20</title>
<path fill="none" stroke="midnightblue" d="M1377.08,-112.44C1344.22,-103.2 1291.72,-88.44 1255.53,-78.26"/>
<polygon fill="midnightblue" stroke="midnightblue" points="1256.35,-74.85 1245.78,-75.52 1254.46,-81.59 1256.35,-74.85"/>
</g>
<!-- Node30 -->
<g id="node30" class="node">
<title>Node30</title>
<g id="a_node30"><a xlink:title=" ">
<polygon fill="white" stroke="#bfbfbf" points="1392.5,-56.5 1392.5,-75.5 1498.5,-75.5 1498.5,-56.5 1392.5,-56.5"/>
<text text-anchor="middle" x="1445.5" y="-63.5" font-family="Helvetica,sans-Serif" font-size="10.00">SDL2/SDL_mouse.h</text>
</a>
</g>
</g>
<!-- Node29&#45;&gt;Node30 -->
<g id="edge51" class="edge">
<title>Node29&#45;&gt;Node30</title>
<path fill="none" stroke="midnightblue" d="M1413.77,-112.08C1419.14,-104.46 1427.02,-93.26 1433.58,-83.94"/>
<polygon fill="midnightblue" stroke="midnightblue" points="1436.45,-85.94 1439.34,-75.75 1430.72,-81.91 1436.45,-85.94"/>
</g>
<!-- Node31&#45;&gt;Node5 -->
<g id="edge53" class="edge">
<title>Node31&#45;&gt;Node5</title>
<path fill="none" stroke="midnightblue" d="M784.89,-168.43C820.22,-158.3 865.89,-139.3 846.5,-112 824.38,-80.86 779.06,-71.09 748.46,-68.13"/>
<polygon fill="midnightblue" stroke="midnightblue" points="748.56,-64.63 738.32,-67.34 748.02,-71.6 748.56,-64.63"/>
</g>
<!-- Node32 -->
<g id="node32" class="node">
<title>Node32</title>
<g id="a_node32"><a xlink:href="LoggingService_8h.html" target="_top" xlink:title="Default logging service. Does nothing. Use in production.">
<polygon fill="white" stroke="black" points="745.5,-112.5 745.5,-131.5 837.5,-131.5 837.5,-112.5 745.5,-112.5"/>
<text text-anchor="middle" x="791.5" y="-119.5" font-family="Helvetica,sans-Serif" font-size="10.00">LoggingService.h</text>
</a>
</g>
</g>
<!-- Node31&#45;&gt;Node32 -->
<g id="edge54" class="edge">
<title>Node31&#45;&gt;Node32</title>
<path fill="none" stroke="midnightblue" d="M755.6,-168.08C761.74,-160.38 770.77,-149.03 778.24,-139.65"/>
<polygon fill="midnightblue" stroke="midnightblue" points="781.04,-141.75 784.53,-131.75 775.56,-137.39 781.04,-141.75"/>
</g>
<!-- Node32&#45;&gt;Node5 -->
<g id="edge55" class="edge">
<title>Node32&#45;&gt;Node5</title>
<path fill="none" stroke="midnightblue" d="M779.61,-112.32C768.35,-104.11 751.21,-91.6 737.79,-81.81"/>
<polygon fill="midnightblue" stroke="midnightblue" points="739.75,-78.9 729.61,-75.83 735.62,-84.56 739.75,-78.9"/>
</g>
<!-- Node33&#45;&gt;Node5 -->
<g id="edge57" class="edge">
<title>Node33&#45;&gt;Node5</title>
<path fill="none" stroke="midnightblue" d="M1022.2,-168.37C993.52,-155.07 936.03,-129.27 885.5,-112 838.25,-95.85 781.93,-81.78 747.98,-73.85"/>
<polygon fill="midnightblue" stroke="midnightblue" points="748.73,-70.43 738.2,-71.59 747.15,-77.25 748.73,-70.43"/>
</g>
<!-- Node33&#45;&gt;Node19 -->
<g id="edge59" class="edge">
<title>Node33&#45;&gt;Node19</title>
<path fill="none" stroke="midnightblue" d="M1040.5,-168.08C1040.5,-161.01 1040.5,-150.86 1040.5,-141.99"/>
<polygon fill="midnightblue" stroke="midnightblue" points="1044,-141.75 1040.5,-131.75 1037,-141.75 1044,-141.75"/>
</g>
<!-- Node33&#45;&gt;Node22 -->
<g id="edge58" class="edge">
<title>Node33&#45;&gt;Node22</title>
<path fill="none" stroke="midnightblue" d="M1052.23,-168.32C1063.34,-160.11 1080.24,-147.6 1093.48,-137.81"/>
<polygon fill="midnightblue" stroke="midnightblue" points="1095.6,-140.59 1101.56,-131.83 1091.44,-134.97 1095.6,-140.59"/>
</g>
</g>
</svg>
