<?xml version="1.0" encoding="UTF-8" standalone="no"?>
<!DOCTYPE svg PUBLIC "-//W3C//DTD SVG 1.1//EN"
 "http://www.w3.org/Graphics/SVG/1.1/DTD/svg11.dtd">
<!-- Generated by graphviz version 2.46.1 (20210215.1649)
 -->
<!-- Title: include/services/Service.h Pages: 1 -->
<svg width="1915pt" height="285pt"
 viewBox="0.00 0.00 1914.50 285.00" xmlns="http://www.w3.org/2000/svg" xmlns:xlink="http://www.w3.org/1999/xlink">
<g id="graph0" class="graph" transform="scale(1 1) rotate(0) translate(4 281)">
<title>include/services/Service.h</title>
<polygon fill="white" stroke="transparent" points="-4,4 -4,-281 1910.5,-281 1910.5,4 -4,4"/>
<!-- Node1 -->
<g id="node1" class="node">
<title>Node1</title>
<g id="a_node1"><a xlink:title="Service subscriber that can listen for events.">
<polygon fill="#bfbfbf" stroke="black" points="820,-257.5 820,-276.5 951,-276.5 951,-257.5 820,-257.5"/>
<text text-anchor="middle" x="885.5" y="-264.5" font-family="Helvetica,sans-Serif" font-size="10.00">include/services/Service.h</text>
</a>
</g>
</g>
<!-- Node2 -->
<g id="node2" class="node">
<title>Node2</title>
<g id="a_node2"><a xlink:href="Game_8h.html" target="_top" xlink:title="The main entry point of a AFK program.">
<polygon fill="white" stroke="black" points="93.5,-134.5 93.5,-153.5 177.5,-153.5 177.5,-134.5 93.5,-134.5"/>
<text text-anchor="middle" x="135.5" y="-141.5" font-family="Helvetica,sans-Serif" font-size="10.00">include/Game.h</text>
</a>
</g>
</g>
<!-- Node1&#45;&gt;Node2 -->
<g id="edge1" class="edge">
<title>Node1&#45;&gt;Node2</title>
<path fill="none" stroke="midnightblue" d="M862.72,-252C849.07,-243.4 831.51,-231.97 816.5,-221 798.9,-208.14 798.79,-197.96 778.5,-190 660.13,-143.59 334.08,-165.89 207.5,-154 197.84,-153.09 187.48,-151.92 177.71,-150.72"/>
<polygon fill="midnightblue" stroke="midnightblue" points="861.13,-255.13 871.46,-257.46 864.83,-249.19 861.13,-255.13"/>
</g>
<!-- Node4 -->
<g id="node4" class="node">
<title>Node4</title>
<g id="a_node4"><a xlink:href="DisplayService_8h.html" target="_top" xlink:title="Service that encapsulates SDL display related functionality.">
<polygon fill="white" stroke="black" points="825.5,-190.5 825.5,-220.5 945.5,-220.5 945.5,-190.5 825.5,-190.5"/>
<text text-anchor="start" x="833.5" y="-208.5" font-family="Helvetica,sans-Serif" font-size="10.00">include/services/display</text>
<text text-anchor="middle" x="885.5" y="-197.5" font-family="Helvetica,sans-Serif" font-size="10.00">/DisplayService.h</text>
</a>
</g>
</g>
<!-- Node1&#45;&gt;Node4 -->
<g id="edge3" class="edge">
<title>Node1&#45;&gt;Node4</title>
<path fill="none" stroke="midnightblue" d="M885.5,-247.23C885.5,-238.59 885.5,-228.5 885.5,-220.52"/>
<polygon fill="midnightblue" stroke="midnightblue" points="882,-247.48 885.5,-257.48 889,-247.48 882,-247.48"/>
</g>
<!-- Node29 -->
<g id="node29" class="node">
<title>Node29</title>
<g id="a_node29"><a xlink:href="EventQueue_8h.html" target="_top" xlink:title="Handles SDL_Events from main SDL_Queue. Can be hooked into by other services and notified when change...">
<polygon fill="white" stroke="black" points="964,-190.5 964,-220.5 1083,-220.5 1083,-190.5 964,-190.5"/>
<text text-anchor="start" x="972" y="-208.5" font-family="Helvetica,sans-Serif" font-size="10.00">include/services/events</text>
<text text-anchor="middle" x="1023.5" y="-197.5" font-family="Helvetica,sans-Serif" font-size="10.00">/EventQueue.h</text>
</a>
</g>
</g>
<!-- Node1&#45;&gt;Node29 -->
<g id="edge37" class="edge">
<title>Node1&#45;&gt;Node29</title>
<path fill="none" stroke="midnightblue" d="M914.58,-253.46C936.94,-243.82 967.81,-230.51 990.98,-220.52"/>
<polygon fill="midnightblue" stroke="midnightblue" points="913.07,-250.3 905.27,-257.48 915.84,-256.73 913.07,-250.3"/>
</g>
<!-- Node30 -->
<g id="node30" class="node">
<title>Node30</title>
<g id="a_node30"><a xlink:href="InputService_8h.html" target="_top" xlink:title="General Purpose input listener. Handles Mouse, Keyboard, Joystick.">
<polygon fill="white" stroke="black" points="1101,-190.5 1101,-220.5 1212,-220.5 1212,-190.5 1101,-190.5"/>
<text text-anchor="start" x="1109" y="-208.5" font-family="Helvetica,sans-Serif" font-size="10.00">include/services/input</text>
<text text-anchor="middle" x="1156.5" y="-197.5" font-family="Helvetica,sans-Serif" font-size="10.00">/InputService.h</text>
</a>
</g>
</g>
<!-- Node1&#45;&gt;Node30 -->
<g id="edge40" class="edge">
<title>Node1&#45;&gt;Node30</title>
<path fill="none" stroke="midnightblue" d="M935.16,-255.33C977.11,-246.29 1038.77,-232.93 1092.5,-221 1095.17,-220.41 1097.9,-219.8 1100.66,-219.18"/>
<polygon fill="midnightblue" stroke="midnightblue" points="934.24,-251.95 925.21,-257.48 935.72,-258.79 934.24,-251.95"/>
</g>
<!-- Node31 -->
<g id="node31" class="node">
<title>Node31</title>
<g id="a_node31"><a xlink:href="SceneService_8h.html" target="_top" xlink:title="Service in charge of managing scenes.">
<polygon fill="white" stroke="black" points="653.5,-190.5 653.5,-220.5 769.5,-220.5 769.5,-190.5 653.5,-190.5"/>
<text text-anchor="start" x="661.5" y="-208.5" font-family="Helvetica,sans-Serif" font-size="10.00">include/services/scene</text>
<text text-anchor="middle" x="711.5" y="-197.5" font-family="Helvetica,sans-Serif" font-size="10.00">/SceneService.h</text>
</a>
</g>
</g>
<!-- Node1&#45;&gt;Node31 -->
<g id="edge43" class="edge">
<title>Node1&#45;&gt;Node31</title>
<path fill="none" stroke="midnightblue" d="M851.08,-254.23C822.75,-244.54 782.51,-230.78 752.51,-220.52"/>
<polygon fill="midnightblue" stroke="midnightblue" points="849.98,-257.55 860.57,-257.48 852.24,-250.93 849.98,-257.55"/>
</g>
<!-- Node3 -->
<g id="node3" class="node">
<title>Node3</title>
<g id="a_node3"><a xlink:href="Game_8cpp.html" target="_top" xlink:title="Implementation of Game.">
<polygon fill="white" stroke="black" points="78,-73 78,-92 155,-92 155,-73 78,-73"/>
<text text-anchor="middle" x="116.5" y="-80" font-family="Helvetica,sans-Serif" font-size="10.00">src/Game.cpp</text>
</a>
</g>
</g>
<!-- Node2&#45;&gt;Node3 -->
<g id="edge2" class="edge">
<title>Node2&#45;&gt;Node3</title>
<path fill="none" stroke="midnightblue" d="M129.64,-124.66C126.17,-113.77 121.92,-100.49 119.22,-92.01"/>
<polygon fill="midnightblue" stroke="midnightblue" points="126.4,-126.01 132.78,-134.48 133.07,-123.88 126.4,-126.01"/>
</g>
<!-- Node5 -->
<g id="node5" class="node">
<title>Node5</title>
<g id="a_node5"><a xlink:href="DisplayService_8cpp.html" target="_top" xlink:title="Implementation of DisplayService.">
<polygon fill="white" stroke="black" points="117,-0.5 117,-30.5 220,-30.5 220,-0.5 117,-0.5"/>
<text text-anchor="start" x="125" y="-18.5" font-family="Helvetica,sans-Serif" font-size="10.00">src/services/display</text>
<text text-anchor="middle" x="168.5" y="-7.5" font-family="Helvetica,sans-Serif" font-size="10.00">/DisplayService.cpp</text>
</a>
</g>
</g>
<!-- Node4&#45;&gt;Node5 -->
<g id="edge4" class="edge">
<title>Node4&#45;&gt;Node5</title>
<path fill="none" stroke="midnightblue" d="M815.34,-190.69C814.05,-190.46 812.77,-190.23 811.5,-190 556.26,-144.62 460.41,-226.94 235.5,-98 207.53,-81.97 186.35,-49.46 175.85,-30.71"/>
<polygon fill="midnightblue" stroke="midnightblue" points="814.89,-194.16 825.36,-192.53 816.16,-187.28 814.89,-194.16"/>
</g>
<!-- Node6 -->
<g id="node6" class="node">
<title>Node6</title>
<g id="a_node6"><a xlink:href="Services_8h.html" target="_top" xlink:title="Implementation of core Services class.">
<polygon fill="white" stroke="black" points="955.5,-134.5 955.5,-153.5 1091.5,-153.5 1091.5,-134.5 955.5,-134.5"/>
<text text-anchor="middle" x="1023.5" y="-141.5" font-family="Helvetica,sans-Serif" font-size="10.00">include/services/Services.h</text>
</a>
</g>
</g>
<!-- Node4&#45;&gt;Node6 -->
<g id="edge5" class="edge">
<title>Node4&#45;&gt;Node6</title>
<path fill="none" stroke="midnightblue" d="M927.55,-186.37C952.74,-175.51 983.61,-162.2 1003.42,-153.66"/>
<polygon fill="midnightblue" stroke="midnightblue" points="926,-183.23 918.2,-190.4 928.77,-189.65 926,-183.23"/>
</g>
<!-- Node6&#45;&gt;Node3 -->
<g id="edge14" class="edge">
<title>Node6&#45;&gt;Node3</title>
<path fill="none" stroke="midnightblue" d="M945.45,-141.03C763.92,-136.09 317.58,-121.87 169.5,-98 160.84,-96.6 151.55,-94.34 143.22,-92.01"/>
<polygon fill="midnightblue" stroke="midnightblue" points="945.36,-144.53 955.45,-141.3 945.55,-137.53 945.36,-144.53"/>
</g>
<!-- Node6&#45;&gt;Node5 -->
<g id="edge19" class="edge">
<title>Node6&#45;&gt;Node5</title>
<path fill="none" stroke="midnightblue" d="M945.11,-142.95C783.34,-142.06 417.76,-135.79 299.5,-98 254.08,-83.49 208.49,-49.75 184.92,-30.55"/>
<polygon fill="midnightblue" stroke="midnightblue" points="945.45,-146.45 955.46,-143 945.48,-139.45 945.45,-146.45"/>
</g>
<!-- Node7 -->
<g id="node7" class="node">
<title>Node7</title>
<g id="a_node7"><a xlink:href="Font_8cpp.html" target="_top" xlink:title="Implementation of Font.">
<polygon fill="white" stroke="black" points="459,-73 459,-92 562,-92 562,-73 459,-73"/>
<text text-anchor="middle" x="510.5" y="-80" font-family="Helvetica,sans-Serif" font-size="10.00">src/assets/Font.cpp</text>
</a>
</g>
</g>
<!-- Node6&#45;&gt;Node7 -->
<g id="edge6" class="edge">
<title>Node6&#45;&gt;Node7</title>
<path fill="none" stroke="midnightblue" d="M945.18,-138.4C854.71,-132.35 701.61,-119.84 571.5,-98 562.16,-96.43 552.12,-94.26 542.94,-92.06"/>
<polygon fill="midnightblue" stroke="midnightblue" points="945.14,-141.91 955.35,-139.07 945.61,-134.92 945.14,-141.91"/>
</g>
<!-- Node8 -->
<g id="node8" class="node">
<title>Node8</title>
<g id="a_node8"><a xlink:href="Texture_8cpp.html" target="_top" xlink:title="Implementation of Texture.">
<polygon fill="white" stroke="black" points="580.5,-73 580.5,-92 696.5,-92 696.5,-73 580.5,-73"/>
<text text-anchor="middle" x="638.5" y="-80" font-family="Helvetica,sans-Serif" font-size="10.00">src/assets/Texture.cpp</text>
</a>
</g>
</g>
<!-- Node6&#45;&gt;Node8 -->
<g id="edge7" class="edge">
<title>Node6&#45;&gt;Node8</title>
<path fill="none" stroke="midnightblue" d="M945.25,-133.53C880.73,-125.34 786.91,-112.55 705.5,-98 695.78,-96.26 685.31,-94.13 675.62,-92.03"/>
<polygon fill="midnightblue" stroke="midnightblue" points="944.99,-137.03 955.35,-134.81 945.86,-130.08 944.99,-137.03"/>
</g>
<!-- Node9 -->
<g id="node9" class="node">
<title>Node9</title>
<g id="a_node9"><a xlink:href="ParticleEmitter_8cpp.html" target="_top" xlink:title="Implementation of a particle emitter. and configured.">
<polygon fill="white" stroke="black" points="1111,-6 1111,-25 1260,-25 1260,-6 1111,-6"/>
<text text-anchor="middle" x="1185.5" y="-13" font-family="Helvetica,sans-Serif" font-size="10.00">src/entities/ParticleEmitter.cpp</text>
</a>
</g>
</g>
<!-- Node6&#45;&gt;Node9 -->
<g id="edge8" class="edge">
<title>Node6&#45;&gt;Node9</title>
<path fill="none" stroke="midnightblue" d="M1101.88,-141.75C1237.23,-138.78 1503.11,-129.01 1531.5,-98 1656.16,38.19 1953.54,-131.13 1279.5,-31 1266.76,-29.11 1253.06,-27.02 1240.16,-25.04"/>
<polygon fill="midnightblue" stroke="midnightblue" points="1101.5,-138.26 1091.57,-141.97 1101.65,-145.26 1101.5,-138.26"/>
</g>
<!-- Node10 -->
<g id="node10" class="node">
<title>Node10</title>
<g id="a_node10"><a xlink:href="Button_8cpp.html" target="_top" xlink:title="Implementation of Button.">
<polygon fill="white" stroke="black" points="1288,-6 1288,-25 1413,-25 1413,-6 1288,-6"/>
<text text-anchor="middle" x="1350.5" y="-13" font-family="Helvetica,sans-Serif" font-size="10.00">src/entities/ui/Button.cpp</text>
</a>
</g>
</g>
<!-- Node6&#45;&gt;Node10 -->
<g id="edge9" class="edge">
<title>Node6&#45;&gt;Node10</title>
<path fill="none" stroke="midnightblue" d="M1101.97,-142.18C1243.81,-139.86 1531.05,-131.1 1561.5,-98 1570.83,-87.86 1570.03,-77.82 1561.5,-67 1556.19,-60.27 1451.79,-37.59 1391.87,-25.03"/>
<polygon fill="midnightblue" stroke="midnightblue" points="1101.55,-138.68 1091.6,-142.34 1101.65,-145.68 1101.55,-138.68"/>
</g>
<!-- Node11 -->
<g id="node11" class="node">
<title>Node11</title>
<g id="a_node11"><a xlink:href="Checkbox_8cpp.html" target="_top" xlink:title="Implementation of UI Checkbox.">
<polygon fill="white" stroke="black" points="1436,-6 1436,-25 1575,-25 1575,-6 1436,-6"/>
<text text-anchor="middle" x="1505.5" y="-13" font-family="Helvetica,sans-Serif" font-size="10.00">src/entities/ui/Checkbox.cpp</text>
</a>
</g>
</g>
<!-- Node6&#45;&gt;Node11 -->
<g id="edge10" class="edge">
<title>Node6&#45;&gt;Node11</title>
<path fill="none" stroke="midnightblue" d="M1101.79,-142.4C1247.13,-140.46 1546.86,-132.31 1578.5,-98 1602.71,-71.75 1551.99,-40.1 1523.34,-25.14"/>
<polygon fill="midnightblue" stroke="midnightblue" points="1101.55,-138.9 1091.59,-142.53 1101.64,-145.9 1101.55,-138.9"/>
</g>
<!-- Node12 -->
<g id="node12" class="node">
<title>Node12</title>
<g id="a_node12"><a xlink:href="Inputbox_8cpp.html" target="_top" xlink:title="Implementation of UI Inputbox.">
<polygon fill="white" stroke="black" points="1595,-6 1595,-25 1728,-25 1728,-6 1595,-6"/>
<text text-anchor="middle" x="1661.5" y="-13" font-family="Helvetica,sans-Serif" font-size="10.00">src/entities/ui/Inputbox.cpp</text>
</a>
</g>
</g>
<!-- Node6&#45;&gt;Node12 -->
<g id="edge11" class="edge">
<title>Node6&#45;&gt;Node12</title>
<path fill="none" stroke="midnightblue" d="M1101.83,-140.26C1248.32,-134.64 1552.89,-120.42 1595.5,-98 1627.08,-81.38 1648.99,-42.44 1657.53,-25.09"/>
<polygon fill="midnightblue" stroke="midnightblue" points="1101.42,-136.78 1091.56,-140.65 1101.68,-143.77 1101.42,-136.78"/>
</g>
<!-- Node13 -->
<g id="node13" class="node">
<title>Node13</title>
<g id="a_node13"><a xlink:href="MessageBox_8cpp.html" target="_top" xlink:title="Implementation of MessageBox.">
<polygon fill="white" stroke="black" points="714.5,-73 714.5,-92 866.5,-92 866.5,-73 714.5,-73"/>
<text text-anchor="middle" x="790.5" y="-80" font-family="Helvetica,sans-Serif" font-size="10.00">src/entities/ui/MessageBox.cpp</text>
</a>
</g>
</g>
<!-- Node6&#45;&gt;Node13 -->
<g id="edge12" class="edge">
<title>Node6&#45;&gt;Node13</title>
<path fill="none" stroke="midnightblue" d="M980.3,-131.97C935.06,-120.41 864.97,-102.52 823.82,-92.01"/>
<polygon fill="midnightblue" stroke="midnightblue" points="979.56,-135.39 990.12,-134.48 981.29,-128.61 979.56,-135.39"/>
</g>
<!-- Node14 -->
<g id="node14" class="node">
<title>Node14</title>
<g id="a_node14"><a xlink:href="UIElement_8cpp.html" target="_top" xlink:title="Implementation of UIElement.">
<polygon fill="white" stroke="black" points="238.5,-6 238.5,-25 380.5,-25 380.5,-6 238.5,-6"/>
<text text-anchor="middle" x="309.5" y="-13" font-family="Helvetica,sans-Serif" font-size="10.00">src/entities/ui/UIElement.cpp</text>
</a>
</g>
</g>
<!-- Node6&#45;&gt;Node14 -->
<g id="edge13" class="edge">
<title>Node6&#45;&gt;Node14</title>
<path fill="none" stroke="midnightblue" d="M945.09,-143.65C770.31,-144.3 360.63,-141.16 316.5,-98 296.8,-78.74 302.94,-41.86 307.07,-25.14"/>
<polygon fill="midnightblue" stroke="midnightblue" points="945.27,-147.15 955.25,-143.6 945.24,-140.15 945.27,-147.15"/>
</g>
<!-- Node15 -->
<g id="node15" class="node">
<title>Node15</title>
<g id="a_node15"><a xlink:href="Primitives_8cpp.html" target="_top" xlink:title="Implementation of Primitives namespace helpers.">
<polygon fill="white" stroke="black" points="884.5,-73 884.5,-92 1024.5,-92 1024.5,-73 884.5,-73"/>
<text text-anchor="middle" x="954.5" y="-80" font-family="Helvetica,sans-Serif" font-size="10.00">src/primitives/Primitives.cpp</text>
</a>
</g>
</g>
<!-- Node6&#45;&gt;Node15 -->
<g id="edge15" class="edge">
<title>Node6&#45;&gt;Node15</title>
<path fill="none" stroke="midnightblue" d="M1005.7,-127.65C992.54,-116.31 975.12,-101.28 964.37,-92.01"/>
<polygon fill="midnightblue" stroke="midnightblue" points="1003.76,-130.6 1013.61,-134.48 1008.33,-125.29 1003.76,-130.6"/>
</g>
<!-- Node16 -->
<g id="node16" class="node">
<title>Node16</title>
<g id="a_node16"><a xlink:href="AssetService_8cpp_source.html" target="_top" xlink:title=" ">
<polygon fill="white" stroke="black" points="1042.5,-67.5 1042.5,-97.5 1144.5,-97.5 1144.5,-67.5 1042.5,-67.5"/>
<text text-anchor="start" x="1050.5" y="-85.5" font-family="Helvetica,sans-Serif" font-size="10.00">src/services/assets</text>
<text text-anchor="middle" x="1093.5" y="-74.5" font-family="Helvetica,sans-Serif" font-size="10.00">/AssetService.cpp</text>
</a>
</g>
</g>
<!-- Node6&#45;&gt;Node16 -->
<g id="edge16" class="edge">
<title>Node6&#45;&gt;Node16</title>
<path fill="none" stroke="midnightblue" d="M1041.24,-127.92C1052.23,-118.58 1066.25,-106.66 1077,-97.52"/>
<polygon fill="midnightblue" stroke="midnightblue" points="1038.88,-125.33 1033.53,-134.48 1043.42,-130.67 1038.88,-125.33"/>
</g>
<!-- Node17 -->
<g id="node17" class="node">
<title>Node17</title>
<g id="a_node17"><a xlink:href="AudioService_8cpp.html" target="_top" xlink:title="Implementation of AudioService.">
<polygon fill="white" stroke="black" points="1162.5,-67.5 1162.5,-97.5 1258.5,-97.5 1258.5,-67.5 1162.5,-67.5"/>
<text text-anchor="start" x="1170.5" y="-85.5" font-family="Helvetica,sans-Serif" font-size="10.00">src/services/audio</text>
<text text-anchor="middle" x="1210.5" y="-74.5" font-family="Helvetica,sans-Serif" font-size="10.00">/AudioService.cpp</text>
</a>
</g>
</g>
<!-- Node6&#45;&gt;Node17 -->
<g id="edge17" class="edge">
<title>Node6&#45;&gt;Node17</title>
<path fill="none" stroke="midnightblue" d="M1060.09,-131.36C1090.56,-121.66 1134.05,-107.83 1166.43,-97.52"/>
<polygon fill="midnightblue" stroke="midnightblue" points="1058.76,-128.11 1050.29,-134.48 1060.88,-134.78 1058.76,-128.11"/>
</g>
<!-- Node18 -->
<g id="node18" class="node">
<title>Node18</title>
<g id="a_node18"><a xlink:href="ConfigService_8cpp.html" target="_top" xlink:title="Implementation of default Config Service.">
<polygon fill="white" stroke="black" points="1276.5,-67.5 1276.5,-97.5 1374.5,-97.5 1374.5,-67.5 1276.5,-67.5"/>
<text text-anchor="start" x="1284.5" y="-85.5" font-family="Helvetica,sans-Serif" font-size="10.00">src/services/config</text>
<text text-anchor="middle" x="1325.5" y="-74.5" font-family="Helvetica,sans-Serif" font-size="10.00">/ConfigService.cpp</text>
</a>
</g>
</g>
<!-- Node6&#45;&gt;Node18 -->
<g id="edge18" class="edge">
<title>Node6&#45;&gt;Node18</title>
<path fill="none" stroke="midnightblue" d="M1085,-132.76C1134.47,-124.25 1205.67,-111.42 1267.5,-98 1270.34,-97.38 1273.25,-96.73 1276.19,-96.05"/>
<polygon fill="midnightblue" stroke="midnightblue" points="1084.36,-129.31 1075.1,-134.45 1085.54,-136.21 1084.36,-129.31"/>
</g>
<!-- Node19 -->
<g id="node19" class="node">
<title>Node19</title>
<g id="a_node19"><a xlink:href="EventQueue_8cpp.html" target="_top" xlink:title="Implementation of EventQueue.">
<polygon fill="white" stroke="black" points="1692.5,-67.5 1692.5,-97.5 1794.5,-97.5 1794.5,-67.5 1692.5,-67.5"/>
<text text-anchor="start" x="1700.5" y="-85.5" font-family="Helvetica,sans-Serif" font-size="10.00">src/services/events</text>
<text text-anchor="middle" x="1743.5" y="-74.5" font-family="Helvetica,sans-Serif" font-size="10.00">/EventQueue.cpp</text>
</a>
</g>
</g>
<!-- Node6&#45;&gt;Node19 -->
<g id="edge20" class="edge">
<title>Node6&#45;&gt;Node19</title>
<path fill="none" stroke="midnightblue" d="M1101.85,-141.43C1225.14,-138.11 1471.68,-128 1678.5,-98 1682.96,-97.35 1687.57,-96.57 1692.19,-95.7"/>
<polygon fill="midnightblue" stroke="midnightblue" points="1101.65,-137.94 1091.75,-141.7 1101.84,-144.93 1101.65,-137.94"/>
</g>
<!-- Node20 -->
<g id="node20" class="node">
<title>Node20</title>
<g id="a_node20"><a xlink:href="InputService_8cpp.html" target="_top" xlink:title="Implementation of InputService. Handles mouse, keyboard and joystick.">
<polygon fill="white" stroke="black" points="1812.5,-67.5 1812.5,-97.5 1906.5,-97.5 1906.5,-67.5 1812.5,-67.5"/>
<text text-anchor="start" x="1820.5" y="-85.5" font-family="Helvetica,sans-Serif" font-size="10.00">src/services/input</text>
<text text-anchor="middle" x="1859.5" y="-74.5" font-family="Helvetica,sans-Serif" font-size="10.00">/InputService.cpp</text>
</a>
</g>
</g>
<!-- Node6&#45;&gt;Node20 -->
<g id="edge21" class="edge">
<title>Node6&#45;&gt;Node20</title>
<path fill="none" stroke="midnightblue" d="M1101.81,-143.53C1242.97,-143.36 1549.06,-137.89 1803.5,-98 1806.38,-97.55 1809.32,-97.01 1812.28,-96.42"/>
<polygon fill="midnightblue" stroke="midnightblue" points="1101.53,-140.03 1091.53,-143.53 1101.53,-147.03 1101.53,-140.03"/>
</g>
<!-- Node21 -->
<g id="node21" class="node">
<title>Node21</title>
<g id="a_node21"><a xlink:href="SceneService_8cpp.html" target="_top" xlink:title="Implementation of SceneService.">
<polygon fill="white" stroke="black" points="0,-0.5 0,-30.5 99,-30.5 99,-0.5 0,-0.5"/>
<text text-anchor="start" x="8" y="-18.5" font-family="Helvetica,sans-Serif" font-size="10.00">src/services/scene</text>
<text text-anchor="middle" x="49.5" y="-7.5" font-family="Helvetica,sans-Serif" font-size="10.00">/SceneService.cpp</text>
</a>
</g>
</g>
<!-- Node6&#45;&gt;Node21 -->
<g id="edge22" class="edge">
<title>Node6&#45;&gt;Node21</title>
<path fill="none" stroke="midnightblue" d="M945.16,-142.05C773.42,-139.39 368.54,-129.85 235.5,-98 231.48,-97.04 133.57,-53.77 81.46,-30.68"/>
<polygon fill="midnightblue" stroke="midnightblue" points="945.34,-145.55 955.39,-142.2 945.44,-138.55 945.34,-145.55"/>
</g>
<!-- Node22 -->
<g id="node22" class="node">
<title>Node22</title>
<g id="a_node22"><a xlink:href="Services_8cpp_source.html" target="_top" xlink:title=" ">
<polygon fill="white" stroke="black" points="1393,-73 1393,-92 1522,-92 1522,-73 1393,-73"/>
<text text-anchor="middle" x="1457.5" y="-80" font-family="Helvetica,sans-Serif" font-size="10.00">src/services/Services.cpp</text>
</a>
</g>
</g>
<!-- Node6&#45;&gt;Node22 -->
<g id="edge23" class="edge">
<title>Node6&#45;&gt;Node22</title>
<path fill="none" stroke="midnightblue" d="M1101.76,-134.8C1174.83,-126.76 1286.83,-113.49 1383.5,-98 1394.23,-96.28 1405.78,-94.15 1416.49,-92.06"/>
<polygon fill="midnightblue" stroke="midnightblue" points="1101.27,-131.33 1091.71,-135.9 1102.03,-138.29 1101.27,-131.33"/>
</g>
<!-- Node23 -->
<g id="node23" class="node">
<title>Node23</title>
<g id="a_node23"><a xlink:href="Scene_8h.html" target="_top" xlink:title="Parent scene class. Children can be added to scene manager.">
<polygon fill="white" stroke="black" points="326,-73 326,-92 441,-92 441,-73 326,-73"/>
<text text-anchor="middle" x="383.5" y="-80" font-family="Helvetica,sans-Serif" font-size="10.00">include/scene/Scene.h</text>
</a>
</g>
</g>
<!-- Node6&#45;&gt;Node23 -->
<g id="edge24" class="edge">
<title>Node6&#45;&gt;Node23</title>
<path fill="none" stroke="midnightblue" d="M945.02,-140.28C834.13,-135.66 625.45,-124.1 449.5,-98 439.17,-96.47 428.05,-94.25 417.93,-92.01"/>
<polygon fill="midnightblue" stroke="midnightblue" points="944.99,-143.78 955.12,-140.69 945.27,-136.79 944.99,-143.78"/>
</g>
<!-- Node23&#45;&gt;Node5 -->
<g id="edge35" class="edge">
<title>Node23&#45;&gt;Node5</title>
<path fill="none" stroke="midnightblue" d="M345.19,-69.92C308.73,-58.9 253.82,-42.29 214.9,-30.53"/>
<polygon fill="midnightblue" stroke="midnightblue" points="344.36,-73.32 354.95,-72.87 346.39,-66.62 344.36,-73.32"/>
</g>
<!-- Node23&#45;&gt;Node9 -->
<g id="edge27" class="edge">
<title>Node23&#45;&gt;Node9</title>
<path fill="none" stroke="midnightblue" d="M427.39,-70.84C434.74,-69.35 442.31,-67.99 449.5,-67 728.22,-28.69 801.5,-58.45 1081.5,-31 1097.47,-29.43 1114.74,-27.23 1130.55,-25.02"/>
<polygon fill="midnightblue" stroke="midnightblue" points="426.62,-67.42 417.57,-72.93 428.08,-74.27 426.62,-67.42"/>
</g>
<!-- Node23&#45;&gt;Node10 -->
<g id="edge29" class="edge">
<title>Node23&#45;&gt;Node10</title>
<path fill="none" stroke="midnightblue" d="M426.89,-70.85C434.39,-69.33 442.14,-67.96 449.5,-67 811.21,-19.69 906.93,-71.23 1269.5,-31 1282.42,-29.57 1296.39,-27.32 1309.03,-25.02"/>
<polygon fill="midnightblue" stroke="midnightblue" points="425.93,-67.48 416.88,-73 427.39,-74.33 425.93,-67.48"/>
</g>
<!-- Node23&#45;&gt;Node11 -->
<g id="edge30" class="edge">
<title>Node23&#45;&gt;Node11</title>
<path fill="none" stroke="midnightblue" d="M426.89,-70.81C434.39,-69.3 442.14,-67.94 449.5,-67 878.78,-12.35 992.14,-76.34 1422.5,-31 1435.74,-29.61 1450.05,-27.37 1463.01,-25.07"/>
<polygon fill="midnightblue" stroke="midnightblue" points="425.92,-67.44 416.87,-72.95 427.38,-74.28 425.92,-67.44"/>
</g>
<!-- Node23&#45;&gt;Node12 -->
<g id="edge32" class="edge">
<title>Node23&#45;&gt;Node12</title>
<path fill="none" stroke="midnightblue" d="M426.38,-70.88C434.04,-69.33 441.97,-67.94 449.5,-67 950.32,-4.59 1082.79,-85.86 1584.5,-31 1596.94,-29.64 1610.38,-27.38 1622.5,-25.05"/>
<polygon fill="midnightblue" stroke="midnightblue" points="425.57,-67.47 416.53,-72.99 427.04,-74.32 425.57,-67.47"/>
</g>
<!-- Node23&#45;&gt;Node14 -->
<g id="edge33" class="edge">
<title>Node23&#45;&gt;Node14</title>
<path fill="none" stroke="midnightblue" d="M365.69,-65.86C351.14,-53.08 331.12,-35.49 319.32,-25.13"/>
<polygon fill="midnightblue" stroke="midnightblue" points="363.7,-68.76 373.52,-72.73 368.32,-63.5 363.7,-68.76"/>
</g>
<!-- Node23&#45;&gt;Node21 -->
<g id="edge36" class="edge">
<title>Node23&#45;&gt;Node21</title>
<path fill="none" stroke="midnightblue" d="M321.29,-71.29C265.2,-61.8 180.56,-46.8 107.5,-31 104.76,-30.41 101.95,-29.78 99.13,-29.13"/>
<polygon fill="midnightblue" stroke="midnightblue" points="320.97,-74.78 331.42,-72.99 322.14,-67.88 320.97,-74.78"/>
</g>
<!-- Node24 -->
<g id="node24" class="node">
<title>Node24</title>
<g id="a_node24"><a xlink:href="GameObject_8cpp_source.html" target="_top" xlink:title=" ">
<polygon fill="white" stroke="black" points="398.5,-6 398.5,-25 538.5,-25 538.5,-6 398.5,-6"/>
<text text-anchor="middle" x="468.5" y="-13" font-family="Helvetica,sans-Serif" font-size="10.00">src/entities/GameObject.cpp</text>
</a>
</g>
</g>
<!-- Node23&#45;&gt;Node24 -->
<g id="edge25" class="edge">
<title>Node23&#45;&gt;Node24</title>
<path fill="none" stroke="midnightblue" d="M403.03,-66.57C419.8,-53.74 443.41,-35.69 457.22,-25.13"/>
<polygon fill="midnightblue" stroke="midnightblue" points="400.78,-63.88 394.96,-72.73 405.03,-69.44 400.78,-63.88"/>
</g>
<!-- Node25 -->
<g id="node25" class="node">
<title>Node25</title>
<g id="a_node25"><a xlink:href="Particle_8cpp.html" target="_top" xlink:title="Implementation of Particle.">
<polygon fill="white" stroke="black" points="557,-6 557,-25 676,-25 676,-6 557,-6"/>
<text text-anchor="middle" x="616.5" y="-13" font-family="Helvetica,sans-Serif" font-size="10.00">src/entities/Particle.cpp</text>
</a>
</g>
</g>
<!-- Node23&#45;&gt;Node25 -->
<g id="edge26" class="edge">
<title>Node23&#45;&gt;Node25</title>
<path fill="none" stroke="midnightblue" d="M424.11,-70.17C470.18,-57.32 544.3,-36.64 585.8,-25.06"/>
<polygon fill="midnightblue" stroke="midnightblue" points="423.13,-66.81 414.44,-72.87 425.01,-73.55 423.13,-66.81"/>
</g>
<!-- Node26 -->
<g id="node26" class="node">
<title>Node26</title>
<g id="a_node26"><a xlink:href="Sprite_8cpp.html" target="_top" xlink:title="Implementation of Sprite.">
<polygon fill="white" stroke="black" points="694,-6 694,-25 805,-25 805,-6 694,-6"/>
<text text-anchor="middle" x="749.5" y="-13" font-family="Helvetica,sans-Serif" font-size="10.00">src/entities/Sprite.cpp</text>
</a>
</g>
</g>
<!-- Node23&#45;&gt;Node26 -->
<g id="edge28" class="edge">
<title>Node23&#45;&gt;Node26</title>
<path fill="none" stroke="midnightblue" d="M430.36,-70.82C436.78,-69.47 443.29,-68.16 449.5,-67 553.38,-47.65 580.65,-50.51 684.5,-31 693.82,-29.25 703.84,-27.13 713.15,-25.06"/>
<polygon fill="midnightblue" stroke="midnightblue" points="429.46,-67.43 420.42,-72.95 430.93,-74.27 429.46,-67.43"/>
</g>
<!-- Node27 -->
<g id="node27" class="node">
<title>Node27</title>
<g id="a_node27"><a xlink:href="Image_8cpp.html" target="_top" xlink:title="Texturable ui element.">
<polygon fill="white" stroke="black" points="823,-6 823,-25 946,-25 946,-6 823,-6"/>
<text text-anchor="middle" x="884.5" y="-13" font-family="Helvetica,sans-Serif" font-size="10.00">src/entities/ui/Image.cpp</text>
</a>
</g>
</g>
<!-- Node23&#45;&gt;Node27 -->
<g id="edge31" class="edge">
<title>Node23&#45;&gt;Node27</title>
<path fill="none" stroke="midnightblue" d="M428.65,-70.84C435.61,-69.42 442.73,-68.08 449.5,-67 610.06,-41.51 652.76,-55.3 813.5,-31 824.2,-29.38 835.72,-27.22 846.31,-25.05"/>
<polygon fill="midnightblue" stroke="midnightblue" points="427.68,-67.47 418.63,-72.98 429.14,-74.32 427.68,-67.47"/>
</g>
<!-- Node28 -->
<g id="node28" class="node">
<title>Node28</title>
<g id="a_node28"><a xlink:href="Scene_8cpp.html" target="_top" xlink:title="Implementation of Scene class.">
<polygon fill="white" stroke="black" points="964.5,-6 964.5,-25 1072.5,-25 1072.5,-6 964.5,-6"/>
<text text-anchor="middle" x="1018.5" y="-13" font-family="Helvetica,sans-Serif" font-size="10.00">src/scene/Scene.cpp</text>
</a>
</g>
</g>
<!-- Node23&#45;&gt;Node28 -->
<g id="edge34" class="edge">
<title>Node23&#45;&gt;Node28</title>
<path fill="none" stroke="midnightblue" d="M428.14,-70.77C435.26,-69.33 442.56,-68 449.5,-67 672.19,-34.77 731.91,-63.95 954.5,-31 964.53,-29.52 975.32,-27.31 985.13,-25.07"/>
<polygon fill="midnightblue" stroke="midnightblue" points="426.98,-67.44 417.92,-72.95 428.43,-74.29 426.98,-67.44"/>
</g>
<!-- Node29&#45;&gt;Node6 -->
<g id="edge39" class="edge">
<title>Node29&#45;&gt;Node6</title>
<path fill="none" stroke="midnightblue" d="M1023.5,-180.29C1023.5,-170.86 1023.5,-160.65 1023.5,-153.66"/>
<polygon fill="midnightblue" stroke="midnightblue" points="1020,-180.4 1023.5,-190.4 1027,-180.4 1020,-180.4"/>
</g>
<!-- Node29&#45;&gt;Node19 -->
<g id="edge38" class="edge">
<title>Node29&#45;&gt;Node19</title>
<path fill="none" stroke="midnightblue" d="M1093.17,-189.92C1322.65,-147.27 1583.82,-107.3 1692.3,-91.07"/>
<polygon fill="midnightblue" stroke="midnightblue" points="1092.5,-186.49 1083.31,-191.76 1093.78,-193.37 1092.5,-186.49"/>
</g>
<!-- Node30&#45;&gt;Node6 -->
<g id="edge42" class="edge">
<title>Node30&#45;&gt;Node6</title>
<path fill="none" stroke="midnightblue" d="M1115.66,-186.23C1091.44,-175.39 1061.86,-162.16 1042.85,-153.66"/>
<polygon fill="midnightblue" stroke="midnightblue" points="1114.42,-189.51 1124.98,-190.4 1117.28,-183.12 1114.42,-189.51"/>
</g>
<!-- Node30&#45;&gt;Node20 -->
<g id="edge41" class="edge">
<title>Node30&#45;&gt;Node20</title>
<path fill="none" stroke="midnightblue" d="M1222.5,-195.82C1339.99,-179.88 1592.86,-143.39 1803.5,-98 1806.35,-97.39 1809.27,-96.73 1812.21,-96.04"/>
<polygon fill="midnightblue" stroke="midnightblue" points="1221.68,-192.4 1212.24,-197.21 1222.62,-199.34 1221.68,-192.4"/>
</g>
<!-- Node31&#45;&gt;Node6 -->
<g id="edge45" class="edge">
<title>Node31&#45;&gt;Node6</title>
<path fill="none" stroke="midnightblue" d="M779.65,-191.5C840.05,-179.99 926.51,-163.5 978.6,-153.56"/>
<polygon fill="midnightblue" stroke="midnightblue" points="778.99,-188.07 769.82,-193.38 780.3,-194.94 778.99,-188.07"/>
</g>
<!-- Node31&#45;&gt;Node21 -->
<g id="edge44" class="edge">
<title>Node31&#45;&gt;Node21</title>
<path fill="none" stroke="midnightblue" d="M643.01,-203.33C489.29,-200.08 126.95,-188.78 84.5,-154 47.15,-123.4 46.48,-59.06 48.21,-30.58"/>
<polygon fill="midnightblue" stroke="midnightblue" points="643.19,-206.83 653.26,-203.54 643.34,-199.83 643.19,-206.83"/>
</g>
</g>
</svg>
