<?xml version="1.0" encoding="UTF-8" standalone="no"?>
<!DOCTYPE svg PUBLIC "-//W3C//DTD SVG 1.1//EN"
 "http://www.w3.org/Graphics/SVG/1.1/DTD/svg11.dtd">
<!-- Generated by graphviz version 2.46.1 (20210215.1649)
 -->
<!-- Title: include/services/Services.h Pages: 1 -->
<svg width="2071pt" height="162pt"
 viewBox="0.00 0.00 2071.00 162.00" xmlns="http://www.w3.org/2000/svg" xmlns:xlink="http://www.w3.org/1999/xlink">
<g id="graph0" class="graph" transform="scale(1 1) rotate(0) translate(4 158)">
<title>include/services/Services.h</title>
<polygon fill="white" stroke="transparent" points="-4,4 -4,-158 2067,-158 2067,4 -4,4"/>
<!-- Node1 -->
<g id="node1" class="node">
<title>Node1</title>
<g id="a_node1"><a xlink:title="Implementation of core Services class.">
<polygon fill="#bfbfbf" stroke="black" points="831.5,-134.5 831.5,-153.5 967.5,-153.5 967.5,-134.5 831.5,-134.5"/>
<text text-anchor="middle" x="899.5" y="-141.5" font-family="Helvetica,sans-Serif" font-size="10.00">include/services/Services.h</text>
</a>
</g>
</g>
<!-- Node2 -->
<g id="node2" class="node">
<title>Node2</title>
<g id="a_node2"><a xlink:href="Font_8cpp.html" target="_top" xlink:title="Implementation of Font.">
<polygon fill="white" stroke="black" points="272,-73 272,-92 375,-92 375,-73 272,-73"/>
<text text-anchor="middle" x="323.5" y="-80" font-family="Helvetica,sans-Serif" font-size="10.00">src/assets/Font.cpp</text>
</a>
</g>
</g>
<!-- Node1&#45;&gt;Node2 -->
<g id="edge1" class="edge">
<title>Node1&#45;&gt;Node2</title>
<path fill="none" stroke="midnightblue" d="M821.06,-139.72C719.71,-134.66 538.04,-122.82 384.5,-98 375.04,-96.47 364.88,-94.28 355.61,-92.06"/>
<polygon fill="midnightblue" stroke="midnightblue" points="821.05,-143.22 831.21,-140.21 821.39,-136.23 821.05,-143.22"/>
</g>
<!-- Node3 -->
<g id="node3" class="node">
<title>Node3</title>
<g id="a_node3"><a xlink:href="Texture_8cpp.html" target="_top" xlink:title="Implementation of Texture.">
<polygon fill="white" stroke="black" points="393.5,-73 393.5,-92 509.5,-92 509.5,-73 393.5,-73"/>
<text text-anchor="middle" x="451.5" y="-80" font-family="Helvetica,sans-Serif" font-size="10.00">src/assets/Texture.cpp</text>
</a>
</g>
</g>
<!-- Node1&#45;&gt;Node3 -->
<g id="edge2" class="edge">
<title>Node1&#45;&gt;Node3</title>
<path fill="none" stroke="midnightblue" d="M821.35,-135.48C745.12,-127.71 626.01,-114.43 523.5,-98 512.92,-96.3 501.54,-94.16 491.01,-92.05"/>
<polygon fill="midnightblue" stroke="midnightblue" points="821.05,-138.97 831.35,-136.49 821.75,-132 821.05,-138.97"/>
</g>
<!-- Node4 -->
<g id="node4" class="node">
<title>Node4</title>
<g id="a_node4"><a xlink:href="ParticleEmitter_8cpp.html" target="_top" xlink:title="Implementation of a particle emitter. and configured.">
<polygon fill="white" stroke="black" points="0,-6 0,-25 149,-25 149,-6 0,-6"/>
<text text-anchor="middle" x="74.5" y="-13" font-family="Helvetica,sans-Serif" font-size="10.00">src/entities/ParticleEmitter.cpp</text>
</a>
</g>
</g>
<!-- Node1&#45;&gt;Node4 -->
<g id="edge3" class="edge">
<title>Node1&#45;&gt;Node4</title>
<path fill="none" stroke="midnightblue" d="M820.96,-138.46C733.33,-132.42 597.79,-119.87 551.5,-98 533.31,-89.4 536.82,-75.33 518.5,-67 371.72,-0.26 317.25,-52.89 157.5,-31 145.18,-29.31 131.89,-27.15 119.64,-25.01"/>
<polygon fill="midnightblue" stroke="midnightblue" points="820.92,-141.97 831.13,-139.15 821.39,-134.98 820.92,-141.97"/>
</g>
<!-- Node5 -->
<g id="node5" class="node">
<title>Node5</title>
<g id="a_node5"><a xlink:href="Button_8cpp.html" target="_top" xlink:title="Implementation of Button.">
<polygon fill="white" stroke="black" points="167,-6 167,-25 292,-25 292,-6 167,-6"/>
<text text-anchor="middle" x="229.5" y="-13" font-family="Helvetica,sans-Serif" font-size="10.00">src/entities/ui/Button.cpp</text>
</a>
</g>
</g>
<!-- Node1&#45;&gt;Node5 -->
<g id="edge4" class="edge">
<title>Node1&#45;&gt;Node5</title>
<path fill="none" stroke="midnightblue" d="M821.21,-143.08C756.56,-140.51 663.69,-130.62 589.5,-98 569.55,-89.23 571.46,-75.76 551.5,-67 448.3,-21.73 411.54,-50.28 300.5,-31 290.34,-29.23 279.4,-27.11 269.23,-25.04"/>
<polygon fill="midnightblue" stroke="midnightblue" points="821.23,-146.58 831.34,-143.43 821.47,-139.59 821.23,-146.58"/>
</g>
<!-- Node6 -->
<g id="node6" class="node">
<title>Node6</title>
<g id="a_node6"><a xlink:href="Checkbox_8cpp.html" target="_top" xlink:title="Implementation of UI Checkbox.">
<polygon fill="white" stroke="black" points="310,-6 310,-25 449,-25 449,-6 310,-6"/>
<text text-anchor="middle" x="379.5" y="-13" font-family="Helvetica,sans-Serif" font-size="10.00">src/entities/ui/Checkbox.cpp</text>
</a>
</g>
</g>
<!-- Node1&#45;&gt;Node6 -->
<g id="edge5" class="edge">
<title>Node1&#45;&gt;Node6</title>
<path fill="none" stroke="midnightblue" d="M821.23,-139.5C766.29,-134.76 692.12,-123.71 631.5,-98 610.14,-88.94 610.53,-76.8 589.5,-67 560.44,-53.46 476.5,-35.48 423.97,-25.03"/>
<polygon fill="midnightblue" stroke="midnightblue" points="821.01,-142.99 831.26,-140.31 821.57,-136.01 821.01,-142.99"/>
</g>
<!-- Node7 -->
<g id="node7" class="node">
<title>Node7</title>
<g id="a_node7"><a xlink:href="Inputbox_8cpp.html" target="_top" xlink:title="Implementation of UI Inputbox.">
<polygon fill="white" stroke="black" points="467,-6 467,-25 600,-25 600,-6 467,-6"/>
<text text-anchor="middle" x="533.5" y="-13" font-family="Helvetica,sans-Serif" font-size="10.00">src/entities/ui/Inputbox.cpp</text>
</a>
</g>
</g>
<!-- Node1&#45;&gt;Node7 -->
<g id="edge6" class="edge">
<title>Node1&#45;&gt;Node7</title>
<path fill="none" stroke="midnightblue" d="M841.29,-132.51C803,-124.82 752.08,-113.1 708.5,-98 647.38,-76.82 578.95,-41.25 548.97,-25.03"/>
<polygon fill="midnightblue" stroke="midnightblue" points="840.75,-135.97 851.24,-134.47 842.11,-129.1 840.75,-135.97"/>
</g>
<!-- Node8 -->
<g id="node8" class="node">
<title>Node8</title>
<g id="a_node8"><a xlink:href="MessageBox_8cpp.html" target="_top" xlink:title="Implementation of MessageBox.">
<polygon fill="white" stroke="black" points="927.5,-73 927.5,-92 1079.5,-92 1079.5,-73 927.5,-73"/>
<text text-anchor="middle" x="1003.5" y="-80" font-family="Helvetica,sans-Serif" font-size="10.00">src/entities/ui/MessageBox.cpp</text>
</a>
</g>
</g>
<!-- Node1&#45;&gt;Node8 -->
<g id="edge7" class="edge">
<title>Node1&#45;&gt;Node8</title>
<path fill="none" stroke="midnightblue" d="M923.27,-129.4C943.38,-117.9 971.57,-101.77 988.63,-92.01"/>
<polygon fill="midnightblue" stroke="midnightblue" points="921.34,-126.47 914.4,-134.48 924.82,-132.55 921.34,-126.47"/>
</g>
<!-- Node9 -->
<g id="node9" class="node">
<title>Node9</title>
<g id="a_node9"><a xlink:href="UIElement_8cpp.html" target="_top" xlink:title="Implementation of UIElement.">
<polygon fill="white" stroke="black" points="618.5,-6 618.5,-25 760.5,-25 760.5,-6 618.5,-6"/>
<text text-anchor="middle" x="689.5" y="-13" font-family="Helvetica,sans-Serif" font-size="10.00">src/entities/ui/UIElement.cpp</text>
</a>
</g>
</g>
<!-- Node1&#45;&gt;Node9 -->
<g id="edge8" class="edge">
<title>Node1&#45;&gt;Node9</title>
<path fill="none" stroke="midnightblue" d="M821.26,-133.75C792.69,-127.33 761.53,-116.44 737.5,-98 712.23,-78.6 697.69,-41.8 692.14,-25.11"/>
<polygon fill="midnightblue" stroke="midnightblue" points="820.74,-137.22 831.24,-135.85 822.17,-130.37 820.74,-137.22"/>
</g>
<!-- Node10 -->
<g id="node10" class="node">
<title>Node10</title>
<g id="a_node10"><a xlink:href="Game_8cpp.html" target="_top" xlink:title="Implementation of Game.">
<polygon fill="white" stroke="black" points="1098,-73 1098,-92 1175,-92 1175,-73 1098,-73"/>
<text text-anchor="middle" x="1136.5" y="-80" font-family="Helvetica,sans-Serif" font-size="10.00">src/Game.cpp</text>
</a>
</g>
</g>
<!-- Node1&#45;&gt;Node10 -->
<g id="edge9" class="edge">
<title>Node1&#45;&gt;Node10</title>
<path fill="none" stroke="midnightblue" d="M948.26,-132.23C986.54,-123.57 1041.12,-110.79 1088.5,-98 1095.22,-96.19 1102.43,-94.09 1109.17,-92.06"/>
<polygon fill="midnightblue" stroke="midnightblue" points="947.39,-128.84 938.4,-134.45 948.93,-135.67 947.39,-128.84"/>
</g>
<!-- Node11 -->
<g id="node11" class="node">
<title>Node11</title>
<g id="a_node11"><a xlink:href="Primitives_8cpp.html" target="_top" xlink:title="Implementation of Primitives namespace helpers.">
<polygon fill="white" stroke="black" points="1193.5,-73 1193.5,-92 1333.5,-92 1333.5,-73 1193.5,-73"/>
<text text-anchor="middle" x="1263.5" y="-80" font-family="Helvetica,sans-Serif" font-size="10.00">src/primitives/Primitives.cpp</text>
</a>
</g>
</g>
<!-- Node1&#45;&gt;Node11 -->
<g id="edge10" class="edge">
<title>Node1&#45;&gt;Node11</title>
<path fill="none" stroke="midnightblue" d="M966.18,-132.95C1023.98,-124.13 1109.85,-110.74 1184.5,-98 1195.36,-96.15 1207.04,-94.06 1218,-92.05"/>
<polygon fill="midnightblue" stroke="midnightblue" points="965.43,-129.53 956.08,-134.49 966.49,-136.45 965.43,-129.53"/>
</g>
<!-- Node12 -->
<g id="node12" class="node">
<title>Node12</title>
<g id="a_node12"><a xlink:href="AssetService_8cpp_source.html" target="_top" xlink:title=" ">
<polygon fill="white" stroke="black" points="1351.5,-67.5 1351.5,-97.5 1453.5,-97.5 1453.5,-67.5 1351.5,-67.5"/>
<text text-anchor="start" x="1359.5" y="-85.5" font-family="Helvetica,sans-Serif" font-size="10.00">src/services/assets</text>
<text text-anchor="middle" x="1402.5" y="-74.5" font-family="Helvetica,sans-Serif" font-size="10.00">/AssetService.cpp</text>
</a>
</g>
</g>
<!-- Node1&#45;&gt;Node12 -->
<g id="edge11" class="edge">
<title>Node1&#45;&gt;Node12</title>
<path fill="none" stroke="midnightblue" d="M977.81,-138.27C1066.68,-132.16 1215.75,-119.65 1342.5,-98 1345.35,-97.51 1348.27,-96.97 1351.21,-96.38"/>
<polygon fill="midnightblue" stroke="midnightblue" points="977.55,-134.78 967.81,-138.95 978.03,-141.77 977.55,-134.78"/>
</g>
<!-- Node13 -->
<g id="node13" class="node">
<title>Node13</title>
<g id="a_node13"><a xlink:href="AudioService_8cpp.html" target="_top" xlink:title="Implementation of AudioService.">
<polygon fill="white" stroke="black" points="1471.5,-67.5 1471.5,-97.5 1567.5,-97.5 1567.5,-67.5 1471.5,-67.5"/>
<text text-anchor="start" x="1479.5" y="-85.5" font-family="Helvetica,sans-Serif" font-size="10.00">src/services/audio</text>
<text text-anchor="middle" x="1519.5" y="-74.5" font-family="Helvetica,sans-Serif" font-size="10.00">/AudioService.cpp</text>
</a>
</g>
</g>
<!-- Node1&#45;&gt;Node13 -->
<g id="edge12" class="edge">
<title>Node1&#45;&gt;Node13</title>
<path fill="none" stroke="midnightblue" d="M977.82,-140.92C1087.04,-137.08 1291.01,-126.45 1462.5,-98 1465.42,-97.52 1468.41,-96.95 1471.42,-96.34"/>
<polygon fill="midnightblue" stroke="midnightblue" points="977.42,-137.43 967.55,-141.27 977.66,-144.43 977.42,-137.43"/>
</g>
<!-- Node14 -->
<g id="node14" class="node">
<title>Node14</title>
<g id="a_node14"><a xlink:href="ConfigService_8cpp.html" target="_top" xlink:title="Implementation of default Config Service.">
<polygon fill="white" stroke="black" points="1585.5,-67.5 1585.5,-97.5 1683.5,-97.5 1683.5,-67.5 1585.5,-67.5"/>
<text text-anchor="start" x="1593.5" y="-85.5" font-family="Helvetica,sans-Serif" font-size="10.00">src/services/config</text>
<text text-anchor="middle" x="1634.5" y="-74.5" font-family="Helvetica,sans-Serif" font-size="10.00">/ConfigService.cpp</text>
</a>
</g>
</g>
<!-- Node1&#45;&gt;Node14 -->
<g id="edge13" class="edge">
<title>Node1&#45;&gt;Node14</title>
<path fill="none" stroke="midnightblue" d="M978.06,-142.32C1104.75,-140.2 1361.73,-131.71 1576.5,-98 1579.37,-97.55 1582.31,-97.02 1585.26,-96.45"/>
<polygon fill="midnightblue" stroke="midnightblue" points="977.63,-138.82 967.69,-142.48 977.74,-145.82 977.63,-138.82"/>
</g>
<!-- Node15 -->
<g id="node15" class="node">
<title>Node15</title>
<g id="a_node15"><a xlink:href="DisplayService_8cpp.html" target="_top" xlink:title="Implementation of DisplayService.">
<polygon fill="white" stroke="black" points="779,-0.5 779,-30.5 882,-30.5 882,-0.5 779,-0.5"/>
<text text-anchor="start" x="787" y="-18.5" font-family="Helvetica,sans-Serif" font-size="10.00">src/services/display</text>
<text text-anchor="middle" x="830.5" y="-7.5" font-family="Helvetica,sans-Serif" font-size="10.00">/DisplayService.cpp</text>
</a>
</g>
</g>
<!-- Node1&#45;&gt;Node15 -->
<g id="edge14" class="edge">
<title>Node1&#45;&gt;Node15</title>
<path fill="none" stroke="midnightblue" d="M821,-138.61C793.28,-132.8 764.73,-121.08 747.5,-98 739.26,-86.96 740.75,-79.01 747.5,-67 756.84,-50.38 774.11,-38.6 790.48,-30.62"/>
<polygon fill="midnightblue" stroke="midnightblue" points="820.69,-142.11 831.16,-140.49 821.96,-135.23 820.69,-142.11"/>
</g>
<!-- Node16 -->
<g id="node16" class="node">
<title>Node16</title>
<g id="a_node16"><a xlink:href="EventQueue_8cpp.html" target="_top" xlink:title="Implementation of EventQueue.">
<polygon fill="white" stroke="black" points="1701.5,-67.5 1701.5,-97.5 1803.5,-97.5 1803.5,-67.5 1701.5,-67.5"/>
<text text-anchor="start" x="1709.5" y="-85.5" font-family="Helvetica,sans-Serif" font-size="10.00">src/services/events</text>
<text text-anchor="middle" x="1752.5" y="-74.5" font-family="Helvetica,sans-Serif" font-size="10.00">/EventQueue.cpp</text>
</a>
</g>
</g>
<!-- Node1&#45;&gt;Node16 -->
<g id="edge15" class="edge">
<title>Node1&#45;&gt;Node16</title>
<path fill="none" stroke="midnightblue" d="M977.95,-143.22C1120.86,-142.59 1432.83,-136.42 1692.5,-98 1695.36,-97.58 1698.29,-97.08 1701.23,-96.53"/>
<polygon fill="midnightblue" stroke="midnightblue" points="977.53,-139.72 967.54,-143.26 977.56,-146.72 977.53,-139.72"/>
</g>
<!-- Node17 -->
<g id="node17" class="node">
<title>Node17</title>
<g id="a_node17"><a xlink:href="InputService_8cpp.html" target="_top" xlink:title="Implementation of InputService. Handles mouse, keyboard and joystick.">
<polygon fill="white" stroke="black" points="1821.5,-67.5 1821.5,-97.5 1915.5,-97.5 1915.5,-67.5 1821.5,-67.5"/>
<text text-anchor="start" x="1829.5" y="-85.5" font-family="Helvetica,sans-Serif" font-size="10.00">src/services/input</text>
<text text-anchor="middle" x="1868.5" y="-74.5" font-family="Helvetica,sans-Serif" font-size="10.00">/InputService.cpp</text>
</a>
</g>
</g>
<!-- Node1&#45;&gt;Node17 -->
<g id="edge16" class="edge">
<title>Node1&#45;&gt;Node17</title>
<path fill="none" stroke="midnightblue" d="M977.75,-141.2C1168.33,-136.47 1652.57,-122.38 1812.5,-98 1815.38,-97.56 1818.32,-97.04 1821.28,-96.45"/>
<polygon fill="midnightblue" stroke="midnightblue" points="977.45,-137.7 967.54,-141.45 977.62,-144.7 977.45,-137.7"/>
</g>
<!-- Node18 -->
<g id="node18" class="node">
<title>Node18</title>
<g id="a_node18"><a xlink:href="SceneService_8cpp.html" target="_top" xlink:title="Implementation of SceneService.">
<polygon fill="white" stroke="black" points="1592,-0.5 1592,-30.5 1691,-30.5 1691,-0.5 1592,-0.5"/>
<text text-anchor="start" x="1600" y="-18.5" font-family="Helvetica,sans-Serif" font-size="10.00">src/services/scene</text>
<text text-anchor="middle" x="1641.5" y="-7.5" font-family="Helvetica,sans-Serif" font-size="10.00">/SceneService.cpp</text>
</a>
</g>
</g>
<!-- Node1&#45;&gt;Node18 -->
<g id="edge17" class="edge">
<title>Node1&#45;&gt;Node18</title>
<path fill="none" stroke="midnightblue" d="M898.43,-124.21C898.56,-106.5 901.9,-80.7 918.5,-67 975.48,-19.97 1509.42,-41.86 1582.5,-31 1585.53,-30.55 1588.62,-30.02 1591.74,-29.42"/>
<polygon fill="midnightblue" stroke="midnightblue" points="894.94,-124.33 898.69,-134.24 901.93,-124.15 894.94,-124.33"/>
</g>
<!-- Node19 -->
<g id="node19" class="node">
<title>Node19</title>
<g id="a_node19"><a xlink:href="Services_8cpp_source.html" target="_top" xlink:title=" ">
<polygon fill="white" stroke="black" points="1934,-73 1934,-92 2063,-92 2063,-73 1934,-73"/>
<text text-anchor="middle" x="1998.5" y="-80" font-family="Helvetica,sans-Serif" font-size="10.00">src/services/Services.cpp</text>
</a>
</g>
</g>
<!-- Node1&#45;&gt;Node19 -->
<g id="edge18" class="edge">
<title>Node1&#45;&gt;Node19</title>
<path fill="none" stroke="midnightblue" d="M977.77,-143.54C1149.71,-143.87 1573.08,-139.91 1924.5,-98 1936.33,-96.59 1949.1,-94.35 1960.65,-92.05"/>
<polygon fill="midnightblue" stroke="midnightblue" points="977.56,-140.04 967.55,-143.52 977.54,-147.04 977.56,-140.04"/>
</g>
<!-- Node20 -->
<g id="node20" class="node">
<title>Node20</title>
<g id="a_node20"><a xlink:href="Scene_8h.html" target="_top" xlink:title="Parent scene class. Children can be added to scene manager.">
<polygon fill="white" stroke="black" points="756,-73 756,-92 871,-92 871,-73 756,-73"/>
<text text-anchor="middle" x="813.5" y="-80" font-family="Helvetica,sans-Serif" font-size="10.00">include/scene/Scene.h</text>
</a>
</g>
</g>
<!-- Node1&#45;&gt;Node20 -->
<g id="edge19" class="edge">
<title>Node1&#45;&gt;Node20</title>
<path fill="none" stroke="midnightblue" d="M878.7,-128.61C862.16,-117.17 839.58,-101.55 825.8,-92.01"/>
<polygon fill="midnightblue" stroke="midnightblue" points="876.96,-131.66 887.18,-134.48 880.95,-125.91 876.96,-131.66"/>
</g>
<!-- Node20&#45;&gt;Node4 -->
<g id="edge22" class="edge">
<title>Node20&#45;&gt;Node4</title>
<path fill="none" stroke="midnightblue" d="M745.81,-77.12C601.98,-67.68 269.91,-45.11 157.5,-31 144.87,-29.41 131.24,-27.23 118.75,-25.04"/>
<polygon fill="midnightblue" stroke="midnightblue" points="745.63,-80.61 755.84,-77.78 746.09,-73.63 745.63,-80.61"/>
</g>
<!-- Node20&#45;&gt;Node5 -->
<g id="edge24" class="edge">
<title>Node20&#45;&gt;Node5</title>
<path fill="none" stroke="midnightblue" d="M745.84,-77.08C647.44,-70.14 459.25,-54.96 300.5,-31 289.8,-29.39 278.28,-27.22 267.69,-25.05"/>
<polygon fill="midnightblue" stroke="midnightblue" points="745.72,-80.58 755.94,-77.78 746.21,-73.59 745.72,-80.58"/>
</g>
<!-- Node20&#45;&gt;Node6 -->
<g id="edge25" class="edge">
<title>Node20&#45;&gt;Node6</title>
<path fill="none" stroke="midnightblue" d="M745.48,-72.73C673.74,-63.28 557.46,-47.37 457.5,-31 446.49,-29.2 434.64,-27.08 423.58,-25.04"/>
<polygon fill="midnightblue" stroke="midnightblue" points="745.36,-76.25 755.73,-74.08 746.27,-69.31 745.36,-76.25"/>
</g>
<!-- Node20&#45;&gt;Node7 -->
<g id="edge27" class="edge">
<title>Node20&#45;&gt;Node7</title>
<path fill="none" stroke="midnightblue" d="M766.74,-70.64C711.57,-57.84 620.99,-36.81 570.47,-25.08"/>
<polygon fill="midnightblue" stroke="midnightblue" points="766.07,-74.08 776.61,-72.94 767.66,-67.26 766.07,-74.08"/>
</g>
<!-- Node20&#45;&gt;Node9 -->
<g id="edge28" class="edge">
<title>Node20&#45;&gt;Node9</title>
<path fill="none" stroke="midnightblue" d="M787.94,-68.1C763.39,-55.23 727.01,-36.16 706.03,-25.17"/>
<polygon fill="midnightblue" stroke="midnightblue" points="786.55,-71.33 797.03,-72.87 789.8,-65.13 786.55,-71.33"/>
</g>
<!-- Node20&#45;&gt;Node15 -->
<g id="edge30" class="edge">
<title>Node20&#45;&gt;Node15</title>
<path fill="none" stroke="midnightblue" d="M818.41,-62.74C821.09,-52.49 824.35,-40 826.82,-30.59"/>
<polygon fill="midnightblue" stroke="midnightblue" points="814.94,-62.17 815.79,-72.73 821.71,-63.94 814.94,-62.17"/>
</g>
<!-- Node20&#45;&gt;Node18 -->
<g id="edge31" class="edge">
<title>Node20&#45;&gt;Node18</title>
<path fill="none" stroke="midnightblue" d="M860.32,-71.04C868.67,-69.47 877.32,-68.03 885.5,-67 1193.26,-28.28 1275.62,-76.22 1582.5,-31 1585.53,-30.55 1588.62,-30.02 1591.74,-29.43"/>
<polygon fill="midnightblue" stroke="midnightblue" points="859.46,-67.64 850.33,-73 860.81,-74.5 859.46,-67.64"/>
</g>
<!-- Node21 -->
<g id="node21" class="node">
<title>Node21</title>
<g id="a_node21"><a xlink:href="GameObject_8cpp_source.html" target="_top" xlink:title=" ">
<polygon fill="white" stroke="black" points="1433.5,-6 1433.5,-25 1573.5,-25 1573.5,-6 1433.5,-6"/>
<text text-anchor="middle" x="1503.5" y="-13" font-family="Helvetica,sans-Serif" font-size="10.00">src/entities/GameObject.cpp</text>
</a>
</g>
</g>
<!-- Node20&#45;&gt;Node21 -->
<g id="edge20" class="edge">
<title>Node20&#45;&gt;Node21</title>
<path fill="none" stroke="midnightblue" d="M861.15,-70.98C869.25,-69.46 877.59,-68.06 885.5,-67 1123.48,-35.23 1186.26,-60.72 1424.5,-31 1436.68,-29.48 1449.82,-27.29 1461.82,-25.08"/>
<polygon fill="midnightblue" stroke="midnightblue" points="860.22,-67.6 851.08,-72.96 861.57,-74.47 860.22,-67.6"/>
</g>
<!-- Node22 -->
<g id="node22" class="node">
<title>Node22</title>
<g id="a_node22"><a xlink:href="Particle_8cpp.html" target="_top" xlink:title="Implementation of Particle.">
<polygon fill="white" stroke="black" points="900,-6 900,-25 1019,-25 1019,-6 900,-6"/>
<text text-anchor="middle" x="959.5" y="-13" font-family="Helvetica,sans-Serif" font-size="10.00">src/entities/Particle.cpp</text>
</a>
</g>
</g>
<!-- Node20&#45;&gt;Node22 -->
<g id="edge21" class="edge">
<title>Node20&#45;&gt;Node22</title>
<path fill="none" stroke="midnightblue" d="M842.07,-68.78C870.98,-55.91 914.9,-36.35 940.03,-25.17"/>
<polygon fill="midnightblue" stroke="midnightblue" points="840.6,-65.6 832.89,-72.87 843.45,-72 840.6,-65.6"/>
</g>
<!-- Node23 -->
<g id="node23" class="node">
<title>Node23</title>
<g id="a_node23"><a xlink:href="Sprite_8cpp.html" target="_top" xlink:title="Implementation of Sprite.">
<polygon fill="white" stroke="black" points="1037,-6 1037,-25 1148,-25 1148,-6 1037,-6"/>
<text text-anchor="middle" x="1092.5" y="-13" font-family="Helvetica,sans-Serif" font-size="10.00">src/entities/Sprite.cpp</text>
</a>
</g>
</g>
<!-- Node20&#45;&gt;Node23 -->
<g id="edge23" class="edge">
<title>Node20&#45;&gt;Node23</title>
<path fill="none" stroke="midnightblue" d="M860.1,-70.64C915.07,-57.84 1005.33,-36.81 1055.66,-25.08"/>
<polygon fill="midnightblue" stroke="midnightblue" points="859.21,-67.26 850.26,-72.94 860.79,-74.08 859.21,-67.26"/>
</g>
<!-- Node24 -->
<g id="node24" class="node">
<title>Node24</title>
<g id="a_node24"><a xlink:href="Image_8cpp.html" target="_top" xlink:title="Texturable ui element.">
<polygon fill="white" stroke="black" points="1166,-6 1166,-25 1289,-25 1289,-6 1166,-6"/>
<text text-anchor="middle" x="1227.5" y="-13" font-family="Helvetica,sans-Serif" font-size="10.00">src/entities/ui/Image.cpp</text>
</a>
</g>
</g>
<!-- Node20&#45;&gt;Node24 -->
<g id="edge26" class="edge">
<title>Node20&#45;&gt;Node24</title>
<path fill="none" stroke="midnightblue" d="M863.36,-71.01C870.77,-69.58 878.32,-68.2 885.5,-67 1005.78,-46.95 1037.27,-51.38 1157.5,-31 1167.66,-29.28 1178.58,-27.15 1188.72,-25.06"/>
<polygon fill="midnightblue" stroke="midnightblue" points="862.54,-67.6 853.4,-72.97 863.89,-74.47 862.54,-67.6"/>
</g>
<!-- Node25 -->
<g id="node25" class="node">
<title>Node25</title>
<g id="a_node25"><a xlink:href="Scene_8cpp.html" target="_top" xlink:title="Implementation of Scene class.">
<polygon fill="white" stroke="black" points="1307.5,-6 1307.5,-25 1415.5,-25 1415.5,-6 1307.5,-6"/>
<text text-anchor="middle" x="1361.5" y="-13" font-family="Helvetica,sans-Serif" font-size="10.00">src/scene/Scene.cpp</text>
</a>
</g>
</g>
<!-- Node20&#45;&gt;Node25 -->
<g id="edge29" class="edge">
<title>Node20&#45;&gt;Node25</title>
<path fill="none" stroke="midnightblue" d="M861.72,-71.02C869.64,-69.52 877.78,-68.11 885.5,-67 1067.88,-40.77 1116.5,-59.73 1298.5,-31 1308.26,-29.46 1318.75,-27.27 1328.32,-25.05"/>
<polygon fill="midnightblue" stroke="midnightblue" points="860.99,-67.59 851.85,-72.95 862.34,-74.46 860.99,-67.59"/>
</g>
</g>
</svg>
