<?xml version="1.0" encoding="UTF-8" standalone="no"?>
<!DOCTYPE svg PUBLIC "-//W3C//DTD SVG 1.1//EN"
 "http://www.w3.org/Graphics/SVG/1.1/DTD/svg11.dtd">
<!-- Generated by graphviz version 2.46.1 (20210215.1649)
 -->
<!-- Title: include/assets/Sound.h Pages: 1 -->
<svg width="2076pt" height="285pt"
 viewBox="0.00 0.00 2075.50 285.00" xmlns="http://www.w3.org/2000/svg" xmlns:xlink="http://www.w3.org/1999/xlink">
<g id="graph0" class="graph" transform="scale(1 1) rotate(0) translate(4 281)">
<title>include/assets/Sound.h</title>
<polygon fill="white" stroke="transparent" points="-4,4 -4,-281 2071.5,-281 2071.5,4 -4,4"/>
<!-- Node1 -->
<g id="node1" class="node">
<title>Node1</title>
<g id="a_node1"><a xlink:title="Implementation of Sound.">
<polygon fill="#bfbfbf" stroke="black" points="921.5,-257.5 921.5,-276.5 1039.5,-276.5 1039.5,-257.5 921.5,-257.5"/>
<text text-anchor="middle" x="980.5" y="-264.5" font-family="Helvetica,sans-Serif" font-size="10.00">include/assets/Sound.h</text>
</a>
</g>
</g>
<!-- Node2 -->
<g id="node2" class="node">
<title>Node2</title>
<g id="a_node2"><a xlink:href="Sound_8cpp_source.html" target="_top" xlink:title=" ">
<polygon fill="white" stroke="black" points="792,-196 792,-215 903,-215 903,-196 792,-196"/>
<text text-anchor="middle" x="847.5" y="-203" font-family="Helvetica,sans-Serif" font-size="10.00">src/assets/Sound.cpp</text>
</a>
</g>
</g>
<!-- Node1&#45;&gt;Node2 -->
<g id="edge1" class="edge">
<title>Node1&#45;&gt;Node2</title>
<path fill="none" stroke="midnightblue" d="M952.17,-253.33C926.35,-241.78 888.92,-225.03 866.52,-215.01"/>
<polygon fill="midnightblue" stroke="midnightblue" points="950.89,-256.59 961.44,-257.48 953.75,-250.2 950.89,-256.59"/>
</g>
<!-- Node3 -->
<g id="node3" class="node">
<title>Node3</title>
<g id="a_node3"><a xlink:href="AssetService_8h.html" target="_top" xlink:title="Implementation of AssetService.">
<polygon fill="white" stroke="black" points="921,-190.5 921,-220.5 1040,-220.5 1040,-190.5 921,-190.5"/>
<text text-anchor="start" x="929" y="-208.5" font-family="Helvetica,sans-Serif" font-size="10.00">include/services/assets</text>
<text text-anchor="middle" x="980.5" y="-197.5" font-family="Helvetica,sans-Serif" font-size="10.00">/AssetService.h</text>
</a>
</g>
</g>
<!-- Node1&#45;&gt;Node3 -->
<g id="edge2" class="edge">
<title>Node1&#45;&gt;Node3</title>
<path fill="none" stroke="midnightblue" d="M980.5,-247.23C980.5,-238.59 980.5,-228.5 980.5,-220.52"/>
<polygon fill="midnightblue" stroke="midnightblue" points="977,-247.48 980.5,-257.48 984,-247.48 977,-247.48"/>
</g>
<!-- Node29 -->
<g id="node29" class="node">
<title>Node29</title>
<g id="a_node29"><a xlink:href="AudioService_8h.html" target="_top" xlink:title="Default audio service, can actually play audio.">
<polygon fill="white" stroke="black" points="1058,-190.5 1058,-220.5 1171,-220.5 1171,-190.5 1058,-190.5"/>
<text text-anchor="start" x="1066" y="-208.5" font-family="Helvetica,sans-Serif" font-size="10.00">include/services/audio</text>
<text text-anchor="middle" x="1114.5" y="-197.5" font-family="Helvetica,sans-Serif" font-size="10.00">/AudioService.h</text>
</a>
</g>
</g>
<!-- Node1&#45;&gt;Node29 -->
<g id="edge36" class="edge">
<title>Node1&#45;&gt;Node29</title>
<path fill="none" stroke="midnightblue" d="M1009.03,-253.33C1030.71,-243.7 1060.52,-230.47 1082.92,-220.52"/>
<polygon fill="midnightblue" stroke="midnightblue" points="1007.42,-250.22 999.7,-257.48 1010.26,-256.62 1007.42,-250.22"/>
</g>
<!-- Node4 -->
<g id="node4" class="node">
<title>Node4</title>
<g id="a_node4"><a xlink:href="AssetService_8cpp_source.html" target="_top" xlink:title=" ">
<polygon fill="white" stroke="black" points="276.5,-67.5 276.5,-97.5 378.5,-97.5 378.5,-67.5 276.5,-67.5"/>
<text text-anchor="start" x="284.5" y="-85.5" font-family="Helvetica,sans-Serif" font-size="10.00">src/services/assets</text>
<text text-anchor="middle" x="327.5" y="-74.5" font-family="Helvetica,sans-Serif" font-size="10.00">/AssetService.cpp</text>
</a>
</g>
</g>
<!-- Node3&#45;&gt;Node4 -->
<g id="edge3" class="edge">
<title>Node3&#45;&gt;Node4</title>
<path fill="none" stroke="midnightblue" d="M910.63,-189.87C679.8,-145.41 618.96,-143.31 392.5,-98 387.97,-97.09 383.26,-96.11 378.55,-95.11"/>
<polygon fill="midnightblue" stroke="midnightblue" points="910.2,-193.35 920.68,-191.81 911.53,-186.48 910.2,-193.35"/>
</g>
<!-- Node5 -->
<g id="node5" class="node">
<title>Node5</title>
<g id="a_node5"><a xlink:href="Services_8h.html" target="_top" xlink:title="Implementation of core Services class.">
<polygon fill="white" stroke="black" points="988.5,-134.5 988.5,-153.5 1124.5,-153.5 1124.5,-134.5 988.5,-134.5"/>
<text text-anchor="middle" x="1056.5" y="-141.5" font-family="Helvetica,sans-Serif" font-size="10.00">include/services/Services.h</text>
</a>
</g>
</g>
<!-- Node3&#45;&gt;Node5 -->
<g id="edge4" class="edge">
<title>Node3&#45;&gt;Node5</title>
<path fill="none" stroke="midnightblue" d="M1006.44,-184.19C1019.75,-173.77 1035.25,-161.63 1045.44,-153.66"/>
<polygon fill="midnightblue" stroke="midnightblue" points="1004.23,-181.48 998.51,-190.4 1008.54,-186.99 1004.23,-181.48"/>
</g>
<!-- Node5&#45;&gt;Node4 -->
<g id="edge15" class="edge">
<title>Node5&#45;&gt;Node4</title>
<path fill="none" stroke="midnightblue" d="M978.06,-141.53C853.42,-138.34 602.72,-128.39 392.5,-98 388.04,-97.35 383.43,-96.57 378.81,-95.7"/>
<polygon fill="midnightblue" stroke="midnightblue" points="978.19,-145.04 988.27,-141.79 978.36,-138.04 978.19,-145.04"/>
</g>
<!-- Node6 -->
<g id="node6" class="node">
<title>Node6</title>
<g id="a_node6"><a xlink:href="Font_8cpp.html" target="_top" xlink:title="Implementation of Font.">
<polygon fill="white" stroke="black" points="1640,-73 1640,-92 1743,-92 1743,-73 1640,-73"/>
<text text-anchor="middle" x="1691.5" y="-80" font-family="Helvetica,sans-Serif" font-size="10.00">src/assets/Font.cpp</text>
</a>
</g>
</g>
<!-- Node5&#45;&gt;Node6 -->
<g id="edge5" class="edge">
<title>Node5&#45;&gt;Node6</title>
<path fill="none" stroke="midnightblue" d="M1134.75,-135.93C1142.44,-135.26 1150.12,-134.61 1157.5,-134 1368.06,-116.62 1422.81,-130.92 1631.5,-98 1640.92,-96.51 1651.04,-94.31 1660.24,-92.06"/>
<polygon fill="midnightblue" stroke="midnightblue" points="1134.33,-132.45 1124.67,-136.8 1134.94,-139.42 1134.33,-132.45"/>
</g>
<!-- Node7 -->
<g id="node7" class="node">
<title>Node7</title>
<g id="a_node7"><a xlink:href="Texture_8cpp.html" target="_top" xlink:title="Implementation of Texture.">
<polygon fill="white" stroke="black" points="1761.5,-73 1761.5,-92 1877.5,-92 1877.5,-73 1761.5,-73"/>
<text text-anchor="middle" x="1819.5" y="-80" font-family="Helvetica,sans-Serif" font-size="10.00">src/assets/Texture.cpp</text>
</a>
</g>
</g>
<!-- Node5&#45;&gt;Node7 -->
<g id="edge6" class="edge">
<title>Node5&#45;&gt;Node7</title>
<path fill="none" stroke="midnightblue" d="M1134.74,-135.81C1142.43,-135.17 1150.12,-134.55 1157.5,-134 1421.69,-114.24 1490.05,-134.12 1752.5,-98 1763.11,-96.54 1774.54,-94.31 1784.91,-92.04"/>
<polygon fill="midnightblue" stroke="midnightblue" points="1134.33,-132.33 1124.66,-136.66 1134.92,-139.3 1134.33,-132.33"/>
</g>
<!-- Node8 -->
<g id="node8" class="node">
<title>Node8</title>
<g id="a_node8"><a xlink:href="ParticleEmitter_8cpp.html" target="_top" xlink:title="Implementation of a particle emitter. and configured.">
<polygon fill="white" stroke="black" points="1478,-6 1478,-25 1627,-25 1627,-6 1478,-6"/>
<text text-anchor="middle" x="1552.5" y="-13" font-family="Helvetica,sans-Serif" font-size="10.00">src/entities/ParticleEmitter.cpp</text>
</a>
</g>
</g>
<!-- Node5&#45;&gt;Node8 -->
<g id="edge7" class="edge">
<title>Node5&#45;&gt;Node8</title>
<path fill="none" stroke="midnightblue" d="M1134.74,-135.72C1142.43,-135.1 1150.11,-134.51 1157.5,-134 1197.95,-131.2 1858.54,-127.37 1886.5,-98 1896,-88.02 1895.48,-77.45 1886.5,-67 1853.75,-28.93 1715.36,-19.2 1627.31,-16.92"/>
<polygon fill="midnightblue" stroke="midnightblue" points="1134.33,-132.24 1124.65,-136.56 1134.91,-139.22 1134.33,-132.24"/>
</g>
<!-- Node9 -->
<g id="node9" class="node">
<title>Node9</title>
<g id="a_node9"><a xlink:href="Button_8cpp.html" target="_top" xlink:title="Implementation of Button.">
<polygon fill="white" stroke="black" points="1802,-6 1802,-25 1927,-25 1927,-6 1802,-6"/>
<text text-anchor="middle" x="1864.5" y="-13" font-family="Helvetica,sans-Serif" font-size="10.00">src/entities/ui/Button.cpp</text>
</a>
</g>
</g>
<!-- Node5&#45;&gt;Node9 -->
<g id="edge8" class="edge">
<title>Node5&#45;&gt;Node9</title>
<path fill="none" stroke="midnightblue" d="M1134.74,-135.71C1142.42,-135.09 1150.11,-134.51 1157.5,-134 1198.9,-131.16 1874.88,-128.04 1903.5,-98 1924.28,-76.2 1891.95,-41.25 1874.49,-25.15"/>
<polygon fill="midnightblue" stroke="midnightblue" points="1134.33,-132.23 1124.65,-136.55 1134.91,-139.21 1134.33,-132.23"/>
</g>
<!-- Node10 -->
<g id="node10" class="node">
<title>Node10</title>
<g id="a_node10"><a xlink:href="Checkbox_8cpp.html" target="_top" xlink:title="Implementation of UI Checkbox.">
<polygon fill="white" stroke="black" points="0,-6 0,-25 139,-25 139,-6 0,-6"/>
<text text-anchor="middle" x="69.5" y="-13" font-family="Helvetica,sans-Serif" font-size="10.00">src/entities/ui/Checkbox.cpp</text>
</a>
</g>
</g>
<!-- Node5&#45;&gt;Node10 -->
<g id="edge9" class="edge">
<title>Node5&#45;&gt;Node10</title>
<path fill="none" stroke="midnightblue" d="M978.21,-140.4C819.45,-134.69 470.4,-119.83 420.5,-98 402.06,-89.93 405.61,-75.78 387.5,-67 290.45,-19.94 253.87,-48.86 147.5,-31 136.63,-29.18 124.94,-27.08 114,-25.05"/>
<polygon fill="midnightblue" stroke="midnightblue" points="978.27,-143.9 988.39,-140.76 978.52,-136.9 978.27,-143.9"/>
</g>
<!-- Node11 -->
<g id="node11" class="node">
<title>Node11</title>
<g id="a_node11"><a xlink:href="Inputbox_8cpp.html" target="_top" xlink:title="Implementation of UI Inputbox.">
<polygon fill="white" stroke="black" points="157,-6 157,-25 290,-25 290,-6 157,-6"/>
<text text-anchor="middle" x="223.5" y="-13" font-family="Helvetica,sans-Serif" font-size="10.00">src/entities/ui/Inputbox.cpp</text>
</a>
</g>
</g>
<!-- Node5&#45;&gt;Node11 -->
<g id="edge10" class="edge">
<title>Node5&#45;&gt;Node11</title>
<path fill="none" stroke="midnightblue" d="M978.22,-142.9C838.19,-141.76 550.83,-134.85 458.5,-98 438.26,-89.92 439.96,-76.82 420.5,-67 393.55,-53.39 314.71,-35.43 265.32,-25"/>
<polygon fill="midnightblue" stroke="midnightblue" points="978.42,-146.4 988.45,-142.97 978.47,-139.4 978.42,-146.4"/>
</g>
<!-- Node12 -->
<g id="node12" class="node">
<title>Node12</title>
<g id="a_node12"><a xlink:href="MessageBox_8cpp.html" target="_top" xlink:title="Implementation of MessageBox.">
<polygon fill="white" stroke="black" points="720.5,-73 720.5,-92 872.5,-92 872.5,-73 720.5,-73"/>
<text text-anchor="middle" x="796.5" y="-80" font-family="Helvetica,sans-Serif" font-size="10.00">src/entities/ui/MessageBox.cpp</text>
</a>
</g>
</g>
<!-- Node5&#45;&gt;Node12 -->
<g id="edge11" class="edge">
<title>Node5&#45;&gt;Node12</title>
<path fill="none" stroke="midnightblue" d="M1009.25,-132.19C958.8,-120.64 879.89,-102.58 833.68,-92.01"/>
<polygon fill="midnightblue" stroke="midnightblue" points="1008.72,-135.66 1019.25,-134.48 1010.28,-128.83 1008.72,-135.66"/>
</g>
<!-- Node13 -->
<g id="node13" class="node">
<title>Node13</title>
<g id="a_node13"><a xlink:href="UIElement_8cpp.html" target="_top" xlink:title="Implementation of UIElement.">
<polygon fill="white" stroke="black" points="308.5,-6 308.5,-25 450.5,-25 450.5,-6 308.5,-6"/>
<text text-anchor="middle" x="379.5" y="-13" font-family="Helvetica,sans-Serif" font-size="10.00">src/entities/ui/UIElement.cpp</text>
</a>
</g>
</g>
<!-- Node5&#45;&gt;Node13 -->
<g id="edge12" class="edge">
<title>Node5&#45;&gt;Node13</title>
<path fill="none" stroke="midnightblue" d="M977.89,-140.7C849.79,-136.24 601.91,-124.43 518.5,-98 491.83,-89.55 421.99,-44.56 392.72,-25.28"/>
<polygon fill="midnightblue" stroke="midnightblue" points="977.92,-144.21 988.03,-141.05 978.16,-137.21 977.92,-144.21"/>
</g>
<!-- Node14 -->
<g id="node14" class="node">
<title>Node14</title>
<g id="a_node14"><a xlink:href="Game_8cpp.html" target="_top" xlink:title="Implementation of Game.">
<polygon fill="white" stroke="black" points="891,-73 891,-92 968,-92 968,-73 891,-73"/>
<text text-anchor="middle" x="929.5" y="-80" font-family="Helvetica,sans-Serif" font-size="10.00">src/Game.cpp</text>
</a>
</g>
</g>
<!-- Node5&#45;&gt;Node14 -->
<g id="edge13" class="edge">
<title>Node5&#45;&gt;Node14</title>
<path fill="none" stroke="midnightblue" d="M1029.12,-130.17C1004.48,-118.63 968.96,-101.99 947.66,-92.01"/>
<polygon fill="midnightblue" stroke="midnightblue" points="1027.76,-133.4 1038.3,-134.48 1030.73,-127.06 1027.76,-133.4"/>
</g>
<!-- Node15 -->
<g id="node15" class="node">
<title>Node15</title>
<g id="a_node15"><a xlink:href="Primitives_8cpp.html" target="_top" xlink:title="Implementation of Primitives namespace helpers.">
<polygon fill="white" stroke="black" points="986.5,-73 986.5,-92 1126.5,-92 1126.5,-73 986.5,-73"/>
<text text-anchor="middle" x="1056.5" y="-80" font-family="Helvetica,sans-Serif" font-size="10.00">src/primitives/Primitives.cpp</text>
</a>
</g>
</g>
<!-- Node5&#45;&gt;Node15 -->
<g id="edge14" class="edge">
<title>Node5&#45;&gt;Node15</title>
<path fill="none" stroke="midnightblue" d="M1056.5,-124.32C1056.5,-113.5 1056.5,-100.4 1056.5,-92.01"/>
<polygon fill="midnightblue" stroke="midnightblue" points="1053,-124.48 1056.5,-134.48 1060,-124.48 1053,-124.48"/>
</g>
<!-- Node16 -->
<g id="node16" class="node">
<title>Node16</title>
<g id="a_node16"><a xlink:href="AudioService_8cpp.html" target="_top" xlink:title="Implementation of AudioService.">
<polygon fill="white" stroke="black" points="1971.5,-67.5 1971.5,-97.5 2067.5,-97.5 2067.5,-67.5 1971.5,-67.5"/>
<text text-anchor="start" x="1979.5" y="-85.5" font-family="Helvetica,sans-Serif" font-size="10.00">src/services/audio</text>
<text text-anchor="middle" x="2019.5" y="-74.5" font-family="Helvetica,sans-Serif" font-size="10.00">/AudioService.cpp</text>
</a>
</g>
</g>
<!-- Node5&#45;&gt;Node16 -->
<g id="edge16" class="edge">
<title>Node5&#45;&gt;Node16</title>
<path fill="none" stroke="midnightblue" d="M1134.73,-135.69C1142.42,-135.07 1150.11,-134.5 1157.5,-134 1512.62,-110.2 1604.94,-146.73 1957.5,-98 1961.99,-97.38 1966.63,-96.59 1971.26,-95.69"/>
<polygon fill="midnightblue" stroke="midnightblue" points="1134.33,-132.21 1124.65,-136.52 1134.9,-139.18 1134.33,-132.21"/>
</g>
<!-- Node17 -->
<g id="node17" class="node">
<title>Node17</title>
<g id="a_node17"><a xlink:href="ConfigService_8cpp.html" target="_top" xlink:title="Implementation of default Config Service.">
<polygon fill="white" stroke="black" points="1144.5,-67.5 1144.5,-97.5 1242.5,-97.5 1242.5,-67.5 1144.5,-67.5"/>
<text text-anchor="start" x="1152.5" y="-85.5" font-family="Helvetica,sans-Serif" font-size="10.00">src/services/config</text>
<text text-anchor="middle" x="1193.5" y="-74.5" font-family="Helvetica,sans-Serif" font-size="10.00">/ConfigService.cpp</text>
</a>
</g>
</g>
<!-- Node5&#45;&gt;Node17 -->
<g id="edge17" class="edge">
<title>Node5&#45;&gt;Node17</title>
<path fill="none" stroke="midnightblue" d="M1085.37,-130.46C1107.56,-120.82 1138.21,-107.51 1161.21,-97.52"/>
<polygon fill="midnightblue" stroke="midnightblue" points="1083.91,-127.28 1076.13,-134.48 1086.7,-133.7 1083.91,-127.28"/>
</g>
<!-- Node18 -->
<g id="node18" class="node">
<title>Node18</title>
<g id="a_node18"><a xlink:href="DisplayService_8cpp.html" target="_top" xlink:title="Implementation of DisplayService.">
<polygon fill="white" stroke="black" points="469,-0.5 469,-30.5 572,-30.5 572,-0.5 469,-0.5"/>
<text text-anchor="start" x="477" y="-18.5" font-family="Helvetica,sans-Serif" font-size="10.00">src/services/display</text>
<text text-anchor="middle" x="520.5" y="-7.5" font-family="Helvetica,sans-Serif" font-size="10.00">/DisplayService.cpp</text>
</a>
</g>
</g>
<!-- Node5&#45;&gt;Node18 -->
<g id="edge18" class="edge">
<title>Node5&#45;&gt;Node18</title>
<path fill="none" stroke="midnightblue" d="M977.94,-141.17C841.44,-137.26 571.86,-126.06 539.5,-98 520.29,-81.34 518.46,-49.38 519.23,-30.81"/>
<polygon fill="midnightblue" stroke="midnightblue" points="978.24,-144.68 988.33,-141.46 978.44,-137.68 978.24,-144.68"/>
</g>
<!-- Node19 -->
<g id="node19" class="node">
<title>Node19</title>
<g id="a_node19"><a xlink:href="EventQueue_8cpp.html" target="_top" xlink:title="Implementation of EventQueue.">
<polygon fill="white" stroke="black" points="1260.5,-67.5 1260.5,-97.5 1362.5,-97.5 1362.5,-67.5 1260.5,-67.5"/>
<text text-anchor="start" x="1268.5" y="-85.5" font-family="Helvetica,sans-Serif" font-size="10.00">src/services/events</text>
<text text-anchor="middle" x="1311.5" y="-74.5" font-family="Helvetica,sans-Serif" font-size="10.00">/EventQueue.cpp</text>
</a>
</g>
</g>
<!-- Node5&#45;&gt;Node19 -->
<g id="edge19" class="edge">
<title>Node5&#45;&gt;Node19</title>
<path fill="none" stroke="midnightblue" d="M1103.79,-132.23C1143.3,-123.2 1201.11,-109.9 1251.5,-98 1254.42,-97.31 1257.42,-96.6 1260.45,-95.88"/>
<polygon fill="midnightblue" stroke="midnightblue" points="1102.88,-128.85 1093.91,-134.49 1104.44,-135.67 1102.88,-128.85"/>
</g>
<!-- Node20 -->
<g id="node20" class="node">
<title>Node20</title>
<g id="a_node20"><a xlink:href="InputService_8cpp.html" target="_top" xlink:title="Implementation of InputService. Handles mouse, keyboard and joystick.">
<polygon fill="white" stroke="black" points="1380.5,-67.5 1380.5,-97.5 1474.5,-97.5 1474.5,-67.5 1380.5,-67.5"/>
<text text-anchor="start" x="1388.5" y="-85.5" font-family="Helvetica,sans-Serif" font-size="10.00">src/services/input</text>
<text text-anchor="middle" x="1427.5" y="-74.5" font-family="Helvetica,sans-Serif" font-size="10.00">/InputService.cpp</text>
</a>
</g>
</g>
<!-- Node5&#45;&gt;Node20 -->
<g id="edge20" class="edge">
<title>Node5&#45;&gt;Node20</title>
<path fill="none" stroke="midnightblue" d="M1134.79,-134.28C1198.78,-126.56 1291.42,-114.04 1371.5,-98 1374.36,-97.43 1377.28,-96.8 1380.23,-96.14"/>
<polygon fill="midnightblue" stroke="midnightblue" points="1134.29,-130.81 1124.77,-135.47 1135.12,-137.76 1134.29,-130.81"/>
</g>
<!-- Node21 -->
<g id="node21" class="node">
<title>Node21</title>
<g id="a_node21"><a xlink:href="SceneService_8cpp.html" target="_top" xlink:title="Implementation of SceneService.">
<polygon fill="white" stroke="black" points="1282,-0.5 1282,-30.5 1381,-30.5 1381,-0.5 1282,-0.5"/>
<text text-anchor="start" x="1290" y="-18.5" font-family="Helvetica,sans-Serif" font-size="10.00">src/services/scene</text>
<text text-anchor="middle" x="1331.5" y="-7.5" font-family="Helvetica,sans-Serif" font-size="10.00">/SceneService.cpp</text>
</a>
</g>
</g>
<!-- Node5&#45;&gt;Node21 -->
<g id="edge21" class="edge">
<title>Node5&#45;&gt;Node21</title>
<path fill="none" stroke="midnightblue" d="M978.47,-138.19C882.14,-131.45 728.85,-117.75 711.5,-98 702.41,-87.65 702.07,-77.05 711.5,-67 754.31,-21.36 1211.67,-40.63 1273.5,-31 1276.27,-30.57 1279.1,-30.07 1281.95,-29.52"/>
<polygon fill="midnightblue" stroke="midnightblue" points="978.26,-141.69 988.47,-138.88 978.74,-134.7 978.26,-141.69"/>
</g>
<!-- Node22 -->
<g id="node22" class="node">
<title>Node22</title>
<g id="a_node22"><a xlink:href="Services_8cpp_source.html" target="_top" xlink:title=" ">
<polygon fill="white" stroke="black" points="1493,-73 1493,-92 1622,-92 1622,-73 1493,-73"/>
<text text-anchor="middle" x="1557.5" y="-80" font-family="Helvetica,sans-Serif" font-size="10.00">src/services/Services.cpp</text>
</a>
</g>
</g>
<!-- Node5&#45;&gt;Node22 -->
<g id="edge22" class="edge">
<title>Node5&#45;&gt;Node22</title>
<path fill="none" stroke="midnightblue" d="M1135,-135.57C1239.39,-125.54 1418.31,-107.8 1483.5,-98 1494.5,-96.35 1506.36,-94.19 1517.29,-92.05"/>
<polygon fill="midnightblue" stroke="midnightblue" points="1134.45,-132.1 1124.83,-136.54 1135.12,-139.07 1134.45,-132.1"/>
</g>
<!-- Node23 -->
<g id="node23" class="node">
<title>Node23</title>
<g id="a_node23"><a xlink:href="Scene_8h.html" target="_top" xlink:title="Parent scene class. Children can be added to scene manager.">
<polygon fill="white" stroke="black" points="549,-73 549,-92 664,-92 664,-73 549,-73"/>
<text text-anchor="middle" x="606.5" y="-80" font-family="Helvetica,sans-Serif" font-size="10.00">include/scene/Scene.h</text>
</a>
</g>
</g>
<!-- Node5&#45;&gt;Node23 -->
<g id="edge23" class="edge">
<title>Node5&#45;&gt;Node23</title>
<path fill="none" stroke="midnightblue" d="M978.28,-135.54C901.66,-127.79 781.71,-114.51 678.5,-98 667.92,-96.31 656.54,-94.17 646.01,-92.05"/>
<polygon fill="midnightblue" stroke="midnightblue" points="978.03,-139.03 988.33,-136.55 978.73,-132.07 978.03,-139.03"/>
</g>
<!-- Node23&#45;&gt;Node8 -->
<g id="edge26" class="edge">
<title>Node23&#45;&gt;Node8</title>
<path fill="none" stroke="midnightblue" d="M671.64,-71.64C684.81,-69.89 698.58,-68.23 711.5,-67 1012.34,-38.3 1089.06,-52.47 1390.5,-31 1419.09,-28.96 1450.47,-26.26 1477.94,-23.74"/>
<polygon fill="midnightblue" stroke="midnightblue" points="671.15,-68.17 661.71,-72.99 672.09,-75.11 671.15,-68.17"/>
</g>
<!-- Node23&#45;&gt;Node9 -->
<g id="edge28" class="edge">
<title>Node23&#45;&gt;Node9</title>
<path fill="none" stroke="midnightblue" d="M670.73,-71.61C684.18,-69.83 698.28,-68.17 711.5,-67 1121.33,-30.82 1225.62,-52.06 1636.5,-31 1692.35,-28.14 1755.85,-24.03 1801.62,-20.92"/>
<polygon fill="midnightblue" stroke="midnightblue" points="670.05,-68.17 660.61,-72.99 670.99,-75.11 670.05,-68.17"/>
</g>
<!-- Node23&#45;&gt;Node10 -->
<g id="edge29" class="edge">
<title>Node23&#45;&gt;Node10</title>
<path fill="none" stroke="midnightblue" d="M538.67,-75.62C448.93,-67.49 285.91,-51.45 147.5,-31 136.05,-29.31 123.72,-27.17 112.32,-25.05"/>
<polygon fill="midnightblue" stroke="midnightblue" points="538.44,-79.12 548.72,-76.53 539.07,-72.15 538.44,-79.12"/>
</g>
<!-- Node23&#45;&gt;Node11 -->
<g id="edge31" class="edge">
<title>Node23&#45;&gt;Node11</title>
<path fill="none" stroke="midnightblue" d="M542.03,-71.38C479.85,-61.51 383.13,-45.85 299.5,-31 289.05,-29.14 277.81,-27.05 267.27,-25.05"/>
<polygon fill="midnightblue" stroke="midnightblue" points="541.66,-74.87 552.08,-72.98 542.75,-67.96 541.66,-74.87"/>
</g>
<!-- Node23&#45;&gt;Node13 -->
<g id="edge32" class="edge">
<title>Node23&#45;&gt;Node13</title>
<path fill="none" stroke="midnightblue" d="M566.66,-70.09C521.75,-57.23 449.76,-36.62 409.41,-25.06"/>
<polygon fill="midnightblue" stroke="midnightblue" points="565.78,-73.48 576.36,-72.87 567.71,-66.75 565.78,-73.48"/>
</g>
<!-- Node23&#45;&gt;Node18 -->
<g id="edge34" class="edge">
<title>Node23&#45;&gt;Node18</title>
<path fill="none" stroke="midnightblue" d="M586.71,-66.54C572.4,-55.73 553.18,-41.2 539.14,-30.59"/>
<polygon fill="midnightblue" stroke="midnightblue" points="584.81,-69.5 594.9,-72.73 589.03,-63.91 584.81,-69.5"/>
</g>
<!-- Node23&#45;&gt;Node21 -->
<g id="edge35" class="edge">
<title>Node23&#45;&gt;Node21</title>
<path fill="none" stroke="midnightblue" d="M653.6,-71.04C661.87,-69.49 670.41,-68.05 678.5,-67 941.21,-32.77 1011.65,-71.3 1273.5,-31 1276.27,-30.57 1279.1,-30.08 1281.95,-29.53"/>
<polygon fill="midnightblue" stroke="midnightblue" points="652.84,-67.63 643.71,-72.99 654.19,-74.49 652.84,-67.63"/>
</g>
<!-- Node24 -->
<g id="node24" class="node">
<title>Node24</title>
<g id="a_node24"><a xlink:href="GameObject_8cpp_source.html" target="_top" xlink:title=" ">
<polygon fill="white" stroke="black" points="986.5,-6 986.5,-25 1126.5,-25 1126.5,-6 986.5,-6"/>
<text text-anchor="middle" x="1056.5" y="-13" font-family="Helvetica,sans-Serif" font-size="10.00">src/entities/GameObject.cpp</text>
</a>
</g>
</g>
<!-- Node23&#45;&gt;Node24 -->
<g id="edge24" class="edge">
<title>Node23&#45;&gt;Node24</title>
<path fill="none" stroke="midnightblue" d="M655.82,-71.03C663.4,-69.58 671.15,-68.18 678.5,-67 810.65,-45.77 845.17,-51.09 977.5,-31 988.94,-29.26 1001.27,-27.13 1012.71,-25.04"/>
<polygon fill="midnightblue" stroke="midnightblue" points="655.15,-67.6 646.01,-72.96 656.5,-74.47 655.15,-67.6"/>
</g>
<!-- Node25 -->
<g id="node25" class="node">
<title>Node25</title>
<g id="a_node25"><a xlink:href="Particle_8cpp.html" target="_top" xlink:title="Implementation of Particle.">
<polygon fill="white" stroke="black" points="1145,-6 1145,-25 1264,-25 1264,-6 1145,-6"/>
<text text-anchor="middle" x="1204.5" y="-13" font-family="Helvetica,sans-Serif" font-size="10.00">src/entities/Particle.cpp</text>
</a>
</g>
</g>
<!-- Node23&#45;&gt;Node25 -->
<g id="edge25" class="edge">
<title>Node23&#45;&gt;Node25</title>
<path fill="none" stroke="midnightblue" d="M654.44,-71.01C662.44,-69.5 670.69,-68.09 678.5,-67 880.28,-38.84 933.84,-60.01 1135.5,-31 1146.16,-29.47 1157.65,-27.27 1168.13,-25.06"/>
<polygon fill="midnightblue" stroke="midnightblue" points="653.61,-67.61 644.47,-72.97 654.95,-74.48 653.61,-67.61"/>
</g>
<!-- Node26 -->
<g id="node26" class="node">
<title>Node26</title>
<g id="a_node26"><a xlink:href="Sprite_8cpp.html" target="_top" xlink:title="Implementation of Sprite.">
<polygon fill="white" stroke="black" points="590,-6 590,-25 701,-25 701,-6 590,-6"/>
<text text-anchor="middle" x="645.5" y="-13" font-family="Helvetica,sans-Serif" font-size="10.00">src/entities/Sprite.cpp</text>
</a>
</g>
</g>
<!-- Node23&#45;&gt;Node26 -->
<g id="edge27" class="edge">
<title>Node23&#45;&gt;Node26</title>
<path fill="none" stroke="midnightblue" d="M616.98,-64.03C624.53,-51.45 634.4,-35.01 640.32,-25.13"/>
<polygon fill="midnightblue" stroke="midnightblue" points="613.9,-62.36 611.76,-72.73 619.91,-65.96 613.9,-62.36"/>
</g>
<!-- Node27 -->
<g id="node27" class="node">
<title>Node27</title>
<g id="a_node27"><a xlink:href="Image_8cpp.html" target="_top" xlink:title="Texturable ui element.">
<polygon fill="white" stroke="black" points="719,-6 719,-25 842,-25 842,-6 719,-6"/>
<text text-anchor="middle" x="780.5" y="-13" font-family="Helvetica,sans-Serif" font-size="10.00">src/entities/ui/Image.cpp</text>
</a>
</g>
</g>
<!-- Node23&#45;&gt;Node27 -->
<g id="edge30" class="edge">
<title>Node23&#45;&gt;Node27</title>
<path fill="none" stroke="midnightblue" d="M639.24,-69.27C673.77,-56.37 727.29,-36.38 757.58,-25.06"/>
<polygon fill="midnightblue" stroke="midnightblue" points="637.75,-66.09 629.61,-72.87 640.2,-72.65 637.75,-66.09"/>
</g>
<!-- Node28 -->
<g id="node28" class="node">
<title>Node28</title>
<g id="a_node28"><a xlink:href="Scene_8cpp.html" target="_top" xlink:title="Implementation of Scene class.">
<polygon fill="white" stroke="black" points="860.5,-6 860.5,-25 968.5,-25 968.5,-6 860.5,-6"/>
<text text-anchor="middle" x="914.5" y="-13" font-family="Helvetica,sans-Serif" font-size="10.00">src/scene/Scene.cpp</text>
</a>
</g>
</g>
<!-- Node23&#45;&gt;Node28 -->
<g id="edge33" class="edge">
<title>Node23&#45;&gt;Node28</title>
<path fill="none" stroke="midnightblue" d="M658.69,-70.99C708.14,-60.97 784.45,-45.32 850.5,-31 859.18,-29.12 868.52,-27.04 877.3,-25.05"/>
<polygon fill="midnightblue" stroke="midnightblue" points="657.97,-67.57 648.87,-72.98 659.36,-74.43 657.97,-67.57"/>
</g>
<!-- Node29&#45;&gt;Node5 -->
<g id="edge38" class="edge">
<title>Node29&#45;&gt;Node5</title>
<path fill="none" stroke="midnightblue" d="M1093.54,-183C1083.66,-172.86 1072.42,-161.33 1064.94,-153.66"/>
<polygon fill="midnightblue" stroke="midnightblue" points="1091.27,-185.68 1100.75,-190.4 1096.28,-180.8 1091.27,-185.68"/>
</g>
<!-- Node29&#45;&gt;Node16 -->
<g id="edge37" class="edge">
<title>Node29&#45;&gt;Node16</title>
<path fill="none" stroke="midnightblue" d="M1181.22,-196.01C1319.29,-178.36 1646.37,-136.18 1920.5,-98 1937.1,-95.69 1955.26,-93.06 1971.43,-90.68"/>
<polygon fill="midnightblue" stroke="midnightblue" points="1180.69,-192.55 1171.21,-197.28 1181.58,-199.49 1180.69,-192.55"/>
</g>
</g>
</svg>
