<?xml version="1.0" encoding="UTF-8" standalone="no"?>
<!DOCTYPE svg PUBLIC "-//W3C//DTD SVG 1.1//EN"
 "http://www.w3.org/Graphics/SVG/1.1/DTD/svg11.dtd">
<!-- Generated by graphviz version 2.46.1 (20210215.1649)
 -->
<!-- Title: include/entities/Sprite.h Pages: 1 -->
<svg width="343pt" height="207pt"
 viewBox="0.00 0.00 343.00 207.00" xmlns="http://www.w3.org/2000/svg" xmlns:xlink="http://www.w3.org/1999/xlink">
<g id="graph0" class="graph" transform="scale(1 1) rotate(0) translate(4 203)">
<title>include/entities/Sprite.h</title>
<polygon fill="white" stroke="transparent" points="-4,4 -4,-203 339,-203 339,4 -4,4"/>
<!-- Node1 -->
<g id="node1" class="node">
<title>Node1</title>
<g id="a_node1"><a xlink:title="Simple textured GameObject.">
<polygon fill="#bfbfbf" stroke="black" points="64.5,-179.5 64.5,-198.5 182.5,-198.5 182.5,-179.5 64.5,-179.5"/>
<text text-anchor="middle" x="123.5" y="-186.5" font-family="Helvetica,sans-Serif" font-size="10.00">include/entities/Sprite.h</text>
</a>
</g>
</g>
<!-- Node2 -->
<g id="node2" class="node">
<title>Node2</title>
<g id="a_node2"><a xlink:href="Sprite_8cpp.html" target="_top" xlink:title="Implementation of Sprite.">
<polygon fill="white" stroke="black" points="0,-123.5 0,-142.5 111,-142.5 111,-123.5 0,-123.5"/>
<text text-anchor="middle" x="55.5" y="-130.5" font-family="Helvetica,sans-Serif" font-size="10.00">src/entities/Sprite.cpp</text>
</a>
</g>
</g>
<!-- Node1&#45;&gt;Node2 -->
<g id="edge1" class="edge">
<title>Node1&#45;&gt;Node2</title>
<path fill="none" stroke="midnightblue" d="M104.74,-173.1C92.5,-163.38 76.94,-151.03 66.62,-142.83"/>
<polygon fill="midnightblue" stroke="midnightblue" points="102.57,-175.85 112.57,-179.32 106.92,-170.36 102.57,-175.85"/>
</g>
<!-- Node3 -->
<g id="node3" class="node">
<title>Node3</title>
<g id="a_node3"><a xlink:href="Particle_8h.html" target="_top" xlink:title="Just little blips that make things look cool.">
<polygon fill="white" stroke="black" points="129,-123.5 129,-142.5 254,-142.5 254,-123.5 129,-123.5"/>
<text text-anchor="middle" x="191.5" y="-130.5" font-family="Helvetica,sans-Serif" font-size="10.00">include/entities/Particle.h</text>
</a>
</g>
</g>
<!-- Node1&#45;&gt;Node3 -->
<g id="edge2" class="edge">
<title>Node1&#45;&gt;Node3</title>
<path fill="none" stroke="midnightblue" d="M142.26,-173.1C154.5,-163.38 170.06,-151.03 180.38,-142.83"/>
<polygon fill="midnightblue" stroke="midnightblue" points="140.08,-170.36 134.43,-179.32 144.43,-175.85 140.08,-170.36"/>
</g>
<!-- Node4 -->
<g id="node4" class="node">
<title>Node4</title>
<g id="a_node4"><a xlink:href="Particle_8cpp.html" target="_top" xlink:title="Implementation of Particle.">
<polygon fill="white" stroke="black" points="64,-62 64,-81 183,-81 183,-62 64,-62"/>
<text text-anchor="middle" x="123.5" y="-69" font-family="Helvetica,sans-Serif" font-size="10.00">src/entities/Particle.cpp</text>
</a>
</g>
</g>
<!-- Node3&#45;&gt;Node4 -->
<g id="edge3" class="edge">
<title>Node3&#45;&gt;Node4</title>
<path fill="none" stroke="midnightblue" d="M173.96,-116.65C160.99,-105.31 143.82,-90.28 133.22,-81.01"/>
<polygon fill="midnightblue" stroke="midnightblue" points="171.93,-119.52 181.76,-123.48 176.54,-114.26 171.93,-119.52"/>
</g>
<!-- Node5 -->
<g id="node5" class="node">
<title>Node5</title>
<g id="a_node5"><a xlink:href="ParticleEmitter_8h.html" target="_top" xlink:title="A particle emitter. Can be fed a particle to emit and configured.">
<polygon fill="white" stroke="black" points="201.5,-56.5 201.5,-86.5 319.5,-86.5 319.5,-56.5 201.5,-56.5"/>
<text text-anchor="start" x="209.5" y="-74.5" font-family="Helvetica,sans-Serif" font-size="10.00">include/entities/Particle</text>
<text text-anchor="middle" x="260.5" y="-63.5" font-family="Helvetica,sans-Serif" font-size="10.00">Emitter.h</text>
</a>
</g>
</g>
<!-- Node3&#45;&gt;Node5 -->
<g id="edge4" class="edge">
<title>Node3&#45;&gt;Node5</title>
<path fill="none" stroke="midnightblue" d="M208.99,-116.92C219.82,-107.58 233.64,-95.66 244.24,-86.52"/>
<polygon fill="midnightblue" stroke="midnightblue" points="206.67,-114.29 201.39,-123.48 211.24,-119.6 206.67,-114.29"/>
</g>
<!-- Node6 -->
<g id="node6" class="node">
<title>Node6</title>
<g id="a_node6"><a xlink:href="ParticleEmitter_8cpp.html" target="_top" xlink:title="Implementation of a particle emitter. and configured.">
<polygon fill="white" stroke="black" points="186,-0.5 186,-19.5 335,-19.5 335,-0.5 186,-0.5"/>
<text text-anchor="middle" x="260.5" y="-7.5" font-family="Helvetica,sans-Serif" font-size="10.00">src/entities/ParticleEmitter.cpp</text>
</a>
</g>
</g>
<!-- Node5&#45;&gt;Node6 -->
<g id="edge5" class="edge">
<title>Node5&#45;&gt;Node6</title>
<path fill="none" stroke="midnightblue" d="M260.5,-46.29C260.5,-36.86 260.5,-26.65 260.5,-19.66"/>
<polygon fill="midnightblue" stroke="midnightblue" points="257,-46.4 260.5,-56.4 264,-46.4 257,-46.4"/>
</g>
</g>
</svg>
