<?xml version="1.0" encoding="UTF-8" standalone="no"?>
<!DOCTYPE svg PUBLIC "-//W3C//DTD SVG 1.1//EN"
 "http://www.w3.org/Graphics/SVG/1.1/DTD/svg11.dtd">
<!-- Generated by graphviz version 2.46.1 (20210215.1649)
 -->
<!-- Title: include/entities/Sprite.h Pages: 1 -->
<svg width="327pt" height="196pt"
 viewBox="0.00 0.00 327.00 196.00" xmlns="http://www.w3.org/2000/svg" xmlns:xlink="http://www.w3.org/1999/xlink">
<g id="graph0" class="graph" transform="scale(1 1) rotate(0) translate(4 192)">
<title>include/entities/Sprite.h</title>
<polygon fill="white" stroke="transparent" points="-4,4 -4,-192 323,-192 323,4 -4,4"/>
<!-- Node1 -->
<g id="node1" class="node">
<title>Node1</title>
<g id="a_node1"><a xlink:title="Simple textured GameObject.">
<polygon fill="#bfbfbf" stroke="black" points="107,-168.5 107,-187.5 225,-187.5 225,-168.5 107,-168.5"/>
<text text-anchor="middle" x="166" y="-175.5" font-family="Helvetica,sans-Serif" font-size="10.00">include/entities/Sprite.h</text>
</a>
</g>
</g>
<!-- Node2 -->
<g id="node2" class="node">
<title>Node2</title>
<g id="a_node2"><a xlink:title=" ">
<polygon fill="white" stroke="#bfbfbf" points="151.5,-56.5 151.5,-75.5 192.5,-75.5 192.5,-56.5 151.5,-56.5"/>
<text text-anchor="middle" x="172" y="-63.5" font-family="Helvetica,sans-Serif" font-size="10.00">string</text>
</a>
</g>
</g>
<!-- Node1&#45;&gt;Node2 -->
<g id="edge1" class="edge">
<title>Node1&#45;&gt;Node2</title>
<path fill="none" stroke="midnightblue" d="M166.47,-168.37C167.44,-150.62 169.67,-109.67 170.99,-85.6"/>
<polygon fill="midnightblue" stroke="midnightblue" points="174.48,-85.77 171.53,-75.59 167.49,-85.39 174.48,-85.77"/>
</g>
<!-- Node3 -->
<g id="node3" class="node">
<title>Node3</title>
<g id="a_node3"><a xlink:href="Texture_8h.html" target="_top" xlink:title="Easy interface to interact with sdl bitmaps.">
<polygon fill="white" stroke="black" points="194,-112.5 194,-131.5 290,-131.5 290,-112.5 194,-112.5"/>
<text text-anchor="middle" x="242" y="-119.5" font-family="Helvetica,sans-Serif" font-size="10.00">../assets/Texture.h</text>
</a>
</g>
</g>
<!-- Node1&#45;&gt;Node3 -->
<g id="edge2" class="edge">
<title>Node1&#45;&gt;Node3</title>
<path fill="none" stroke="midnightblue" d="M178.21,-168.32C189.78,-160.11 207.38,-147.6 221.16,-137.81"/>
<polygon fill="midnightblue" stroke="midnightblue" points="223.44,-140.48 229.57,-131.83 219.39,-134.77 223.44,-140.48"/>
</g>
<!-- Node7 -->
<g id="node7" class="node">
<title>Node7</title>
<g id="a_node7"><a xlink:href="GameObject_8h.html" target="_top" xlink:title="Implementation of GameObject class.">
<polygon fill="white" stroke="black" points="58.5,-112.5 58.5,-131.5 137.5,-131.5 137.5,-112.5 58.5,-112.5"/>
<text text-anchor="middle" x="98" y="-119.5" font-family="Helvetica,sans-Serif" font-size="10.00">GameObject.h</text>
</a>
</g>
</g>
<!-- Node1&#45;&gt;Node7 -->
<g id="edge7" class="edge">
<title>Node1&#45;&gt;Node7</title>
<path fill="none" stroke="midnightblue" d="M155.07,-168.32C144.83,-160.18 129.28,-147.84 117,-138.09"/>
<polygon fill="midnightblue" stroke="midnightblue" points="119.13,-135.31 109.12,-131.83 114.78,-140.79 119.13,-135.31"/>
</g>
<!-- Node3&#45;&gt;Node2 -->
<g id="edge4" class="edge">
<title>Node3&#45;&gt;Node2</title>
<path fill="none" stroke="midnightblue" d="M230.75,-112.32C220.2,-104.18 204.2,-91.84 191.56,-82.09"/>
<polygon fill="midnightblue" stroke="midnightblue" points="193.51,-79.17 183.45,-75.83 189.23,-84.71 193.51,-79.17"/>
</g>
<!-- Node4 -->
<g id="node4" class="node">
<title>Node4</title>
<g id="a_node4"><a xlink:title=" ">
<polygon fill="white" stroke="#bfbfbf" points="62.5,-56.5 62.5,-75.5 133.5,-75.5 133.5,-56.5 62.5,-56.5"/>
<text text-anchor="middle" x="98" y="-63.5" font-family="Helvetica,sans-Serif" font-size="10.00">SDL2/SDL.h</text>
</a>
</g>
</g>
<!-- Node3&#45;&gt;Node4 -->
<g id="edge3" class="edge">
<title>Node3&#45;&gt;Node4</title>
<path fill="none" stroke="midnightblue" d="M219.18,-112.44C195.17,-103.44 157.17,-89.19 130.13,-79.05"/>
<polygon fill="midnightblue" stroke="midnightblue" points="131.3,-75.75 120.71,-75.52 128.84,-82.3 131.3,-75.75"/>
</g>
<!-- Node5 -->
<g id="node5" class="node">
<title>Node5</title>
<g id="a_node5"><a xlink:href="Color_8h.html" target="_top" xlink:title="Helpers for creating colors without accessing SDL api directly.">
<polygon fill="white" stroke="black" points="211,-56.5 211,-75.5 289,-75.5 289,-56.5 211,-56.5"/>
<text text-anchor="middle" x="250" y="-63.5" font-family="Helvetica,sans-Serif" font-size="10.00">../color/Color.h</text>
</a>
</g>
</g>
<!-- Node3&#45;&gt;Node5 -->
<g id="edge5" class="edge">
<title>Node3&#45;&gt;Node5</title>
<path fill="none" stroke="midnightblue" d="M243.32,-112.08C244.38,-104.93 245.91,-94.64 247.23,-85.69"/>
<polygon fill="midnightblue" stroke="midnightblue" points="250.7,-86.16 248.7,-75.75 243.78,-85.13 250.7,-86.16"/>
</g>
<!-- Node6 -->
<g id="node6" class="node">
<title>Node6</title>
<g id="a_node6"><a xlink:title=" ">
<polygon fill="white" stroke="#bfbfbf" points="181,-0.5 181,-19.5 319,-19.5 319,-0.5 181,-0.5"/>
<text text-anchor="middle" x="250" y="-7.5" font-family="Helvetica,sans-Serif" font-size="10.00">SDL2/SDL2_gfxPrimitives.h</text>
</a>
</g>
</g>
<!-- Node5&#45;&gt;Node6 -->
<g id="edge6" class="edge">
<title>Node5&#45;&gt;Node6</title>
<path fill="none" stroke="midnightblue" d="M250,-56.08C250,-49.01 250,-38.86 250,-29.99"/>
<polygon fill="midnightblue" stroke="midnightblue" points="253.5,-29.75 250,-19.75 246.5,-29.75 253.5,-29.75"/>
</g>
<!-- Node7&#45;&gt;Node2 -->
<g id="edge9" class="edge">
<title>Node7&#45;&gt;Node2</title>
<path fill="none" stroke="midnightblue" d="M109.89,-112.32C121.15,-104.11 138.29,-91.6 151.71,-81.81"/>
<polygon fill="midnightblue" stroke="midnightblue" points="153.88,-84.56 159.89,-75.83 149.75,-78.9 153.88,-84.56"/>
</g>
<!-- Node7&#45;&gt;Node4 -->
<g id="edge8" class="edge">
<title>Node7&#45;&gt;Node4</title>
<path fill="none" stroke="midnightblue" d="M98,-112.08C98,-105.01 98,-94.86 98,-85.99"/>
<polygon fill="midnightblue" stroke="midnightblue" points="101.5,-85.75 98,-75.75 94.5,-85.75 101.5,-85.75"/>
</g>
<!-- Node8 -->
<g id="node8" class="node">
<title>Node8</title>
<g id="a_node8"><a xlink:title=" ">
<polygon fill="white" stroke="#bfbfbf" points="0,-56.5 0,-75.5 44,-75.5 44,-56.5 0,-56.5"/>
<text text-anchor="middle" x="22" y="-63.5" font-family="Helvetica,sans-Serif" font-size="10.00">vector</text>
</a>
</g>
</g>
<!-- Node7&#45;&gt;Node8 -->
<g id="edge10" class="edge">
<title>Node7&#45;&gt;Node8</title>
<path fill="none" stroke="midnightblue" d="M85.79,-112.32C74.22,-104.11 56.62,-91.6 42.84,-81.81"/>
<polygon fill="midnightblue" stroke="midnightblue" points="44.61,-78.77 34.43,-75.83 40.56,-84.48 44.61,-78.77"/>
</g>
</g>
</svg>
