<?xml version="1.0" encoding="UTF-8" standalone="no"?>
<!DOCTYPE svg PUBLIC "-//W3C//DTD SVG 1.1//EN"
 "http://www.w3.org/Graphics/SVG/1.1/DTD/svg11.dtd">
<!-- Generated by graphviz version 2.46.1 (20210215.1649)
 -->
<!-- Title: src/entities/Sprite.cpp Pages: 1 -->
<svg width="2044pt" height="364pt"
 viewBox="0.00 0.00 2044.00 364.00" xmlns="http://www.w3.org/2000/svg" xmlns:xlink="http://www.w3.org/1999/xlink">
<g id="graph0" class="graph" transform="scale(1 1) rotate(0) translate(4 360)">
<title>src/entities/Sprite.cpp</title>
<polygon fill="white" stroke="transparent" points="-4,4 -4,-360 2040,-360 2040,4 -4,4"/>
<!-- Node1 -->
<g id="node1" class="node">
<title>Node1</title>
<g id="a_node1"><a xlink:title="Implementation of Sprite.">
<polygon fill="#bfbfbf" stroke="black" points="593.5,-336.5 593.5,-355.5 704.5,-355.5 704.5,-336.5 593.5,-336.5"/>
<text text-anchor="middle" x="649" y="-343.5" font-family="Helvetica,sans-Serif" font-size="10.00">src/entities/Sprite.cpp</text>
</a>
</g>
</g>
<!-- Node2 -->
<g id="node2" class="node">
<title>Node2</title>
<g id="a_node2"><a xlink:href="Sprite_8h.html" target="_top" xlink:title="Simple textured GameObject.">
<polygon fill="white" stroke="black" points="1428,-224.5 1428,-243.5 1512,-243.5 1512,-224.5 1428,-224.5"/>
<text text-anchor="middle" x="1470" y="-231.5" font-family="Helvetica,sans-Serif" font-size="10.00">entities/Sprite.h</text>
</a>
</g>
</g>
<!-- Node1&#45;&gt;Node2 -->
<g id="edge1" class="edge">
<title>Node1&#45;&gt;Node2</title>
<path fill="none" stroke="midnightblue" d="M704.79,-337.53C855.81,-317.29 1271.12,-261.65 1417.83,-241.99"/>
<polygon fill="midnightblue" stroke="midnightblue" points="1418.47,-245.43 1427.92,-240.64 1417.54,-238.5 1418.47,-245.43"/>
</g>
<!-- Node6 -->
<g id="node6" class="node">
<title>Node6</title>
<g id="a_node6"><a xlink:href="Color_8h.html" target="_top" xlink:title="Helpers for creating colors without accessing SDL api directly.">
<polygon fill="white" stroke="black" points="148,-56.5 148,-75.5 226,-75.5 226,-56.5 148,-56.5"/>
<text text-anchor="middle" x="187" y="-63.5" font-family="Helvetica,sans-Serif" font-size="10.00">../color/Color.h</text>
</a>
</g>
</g>
<!-- Node1&#45;&gt;Node6 -->
<g id="edge12" class="edge">
<title>Node1&#45;&gt;Node6</title>
<path fill="none" stroke="midnightblue" d="M593.39,-341.41C436.2,-330.54 0,-294.96 0,-235 0,-235 0,-235 0,-177 0,-113 82.39,-85.5 137.79,-74.24"/>
<polygon fill="midnightblue" stroke="midnightblue" points="138.64,-77.64 147.8,-72.32 137.32,-70.77 138.64,-77.64"/>
</g>
<!-- Node10 -->
<g id="node10" class="node">
<title>Node10</title>
<g id="a_node10"><a xlink:href="Primitives_8h.html" target="_top" xlink:title="Wrapper for SDL_GFX primitive types. Allows drawing without knowing about SDL.">
<polygon fill="white" stroke="black" points="216.5,-280.5 216.5,-299.5 329.5,-299.5 329.5,-280.5 216.5,-280.5"/>
<text text-anchor="middle" x="273" y="-287.5" font-family="Helvetica,sans-Serif" font-size="10.00">primitives/Primitives.h</text>
</a>
</g>
</g>
<!-- Node1&#45;&gt;Node10 -->
<g id="edge13" class="edge">
<title>Node1&#45;&gt;Node10</title>
<path fill="none" stroke="midnightblue" d="M593.12,-336.97C525.65,-327.28 412.29,-311 340.14,-300.64"/>
<polygon fill="midnightblue" stroke="midnightblue" points="340.2,-297.12 329.81,-299.16 339.21,-304.04 340.2,-297.12"/>
</g>
<!-- Node11 -->
<g id="node11" class="node">
<title>Node11</title>
<g id="a_node11"><a xlink:href="Scene_8h.html" target="_top" xlink:title="Parent scene class. Children can be added to scene manager.">
<polygon fill="white" stroke="black" points="838.5,-280.5 838.5,-299.5 919.5,-299.5 919.5,-280.5 838.5,-280.5"/>
<text text-anchor="middle" x="879" y="-287.5" font-family="Helvetica,sans-Serif" font-size="10.00">scene/Scene.h</text>
</a>
</g>
</g>
<!-- Node1&#45;&gt;Node11 -->
<g id="edge15" class="edge">
<title>Node1&#45;&gt;Node11</title>
<path fill="none" stroke="midnightblue" d="M685.44,-336.44C725.4,-327.06 789.59,-311.99 832.98,-301.8"/>
<polygon fill="midnightblue" stroke="midnightblue" points="833.79,-305.21 842.73,-299.52 832.19,-298.39 833.79,-305.21"/>
</g>
<!-- Node3 -->
<g id="node3" class="node">
<title>Node3</title>
<g id="a_node3"><a xlink:title=" ">
<polygon fill="white" stroke="#bfbfbf" points="869.5,-56.5 869.5,-75.5 910.5,-75.5 910.5,-56.5 869.5,-56.5"/>
<text text-anchor="middle" x="890" y="-63.5" font-family="Helvetica,sans-Serif" font-size="10.00">string</text>
</a>
</g>
</g>
<!-- Node2&#45;&gt;Node3 -->
<g id="edge2" class="edge">
<title>Node2&#45;&gt;Node3</title>
<path fill="none" stroke="midnightblue" d="M1475.57,-224.19C1483.22,-210.88 1494.74,-185.34 1483,-168 1445.43,-112.51 1408.1,-127.91 1343,-112 1262.39,-92.29 1009.22,-74.64 920.83,-68.93"/>
<polygon fill="midnightblue" stroke="midnightblue" points="920.85,-65.42 910.65,-68.28 920.4,-72.41 920.85,-65.42"/>
</g>
<!-- Node4 -->
<g id="node4" class="node">
<title>Node4</title>
<g id="a_node4"><a xlink:href="Texture_8h.html" target="_top" xlink:title="Easy interface to interact with sdl bitmaps.">
<polygon fill="white" stroke="black" points="692,-112.5 692,-131.5 788,-131.5 788,-112.5 692,-112.5"/>
<text text-anchor="middle" x="740" y="-119.5" font-family="Helvetica,sans-Serif" font-size="10.00">../assets/Texture.h</text>
</a>
</g>
</g>
<!-- Node2&#45;&gt;Node4 -->
<g id="edge3" class="edge">
<title>Node2&#45;&gt;Node4</title>
<path fill="none" stroke="midnightblue" d="M1427.75,-232.24C1265.03,-229.13 686.6,-216.12 660,-188 640.58,-167.47 675.56,-147.54 705.21,-135.27"/>
<polygon fill="midnightblue" stroke="midnightblue" points="706.56,-138.5 714.58,-131.57 703.99,-131.99 706.56,-138.5"/>
</g>
<!-- Node8 -->
<g id="node8" class="node">
<title>Node8</title>
<g id="a_node8"><a xlink:href="GameObject_8h.html" target="_top" xlink:title="Implementation of GameObject class.">
<polygon fill="white" stroke="black" points="1394.5,-168.5 1394.5,-187.5 1473.5,-187.5 1473.5,-168.5 1394.5,-168.5"/>
<text text-anchor="middle" x="1434" y="-175.5" font-family="Helvetica,sans-Serif" font-size="10.00">GameObject.h</text>
</a>
</g>
</g>
<!-- Node2&#45;&gt;Node8 -->
<g id="edge8" class="edge">
<title>Node2&#45;&gt;Node8</title>
<path fill="none" stroke="midnightblue" d="M1464.06,-224.08C1459.02,-216.53 1451.66,-205.49 1445.49,-196.23"/>
<polygon fill="midnightblue" stroke="midnightblue" points="1448.29,-194.13 1439.83,-187.75 1442.47,-198.01 1448.29,-194.13"/>
</g>
<!-- Node4&#45;&gt;Node3 -->
<g id="edge5" class="edge">
<title>Node4&#45;&gt;Node3</title>
<path fill="none" stroke="midnightblue" d="M763.77,-112.44C789.67,-103.12 831.18,-88.18 859.47,-77.99"/>
<polygon fill="midnightblue" stroke="midnightblue" points="861.02,-81.15 869.24,-74.47 858.65,-74.57 861.02,-81.15"/>
</g>
<!-- Node5 -->
<g id="node5" class="node">
<title>Node5</title>
<g id="a_node5"><a xlink:title=" ">
<polygon fill="white" stroke="#bfbfbf" points="1067.5,-56.5 1067.5,-75.5 1138.5,-75.5 1138.5,-56.5 1067.5,-56.5"/>
<text text-anchor="middle" x="1103" y="-63.5" font-family="Helvetica,sans-Serif" font-size="10.00">SDL2/SDL.h</text>
</a>
</g>
</g>
<!-- Node4&#45;&gt;Node5 -->
<g id="edge4" class="edge">
<title>Node4&#45;&gt;Node5</title>
<path fill="none" stroke="midnightblue" d="M788.2,-113.83C858.55,-103.36 988.45,-84.04 1057.33,-73.79"/>
<polygon fill="midnightblue" stroke="midnightblue" points="1058.07,-77.22 1067.44,-72.29 1057.04,-70.3 1058.07,-77.22"/>
</g>
<!-- Node4&#45;&gt;Node6 -->
<g id="edge6" class="edge">
<title>Node4&#45;&gt;Node6</title>
<path fill="none" stroke="midnightblue" d="M691.68,-116.36C676.72,-114.94 660.18,-113.39 645,-112 466.12,-95.67 417.95,-100.69 236.4,-76.07"/>
<polygon fill="midnightblue" stroke="midnightblue" points="236.62,-72.57 226.24,-74.68 235.68,-79.5 236.62,-72.57"/>
</g>
<!-- Node7 -->
<g id="node7" class="node">
<title>Node7</title>
<g id="a_node7"><a xlink:title=" ">
<polygon fill="white" stroke="#bfbfbf" points="118,-0.5 118,-19.5 256,-19.5 256,-0.5 118,-0.5"/>
<text text-anchor="middle" x="187" y="-7.5" font-family="Helvetica,sans-Serif" font-size="10.00">SDL2/SDL2_gfxPrimitives.h</text>
</a>
</g>
</g>
<!-- Node6&#45;&gt;Node7 -->
<g id="edge7" class="edge">
<title>Node6&#45;&gt;Node7</title>
<path fill="none" stroke="midnightblue" d="M187,-56.08C187,-49.01 187,-38.86 187,-29.99"/>
<polygon fill="midnightblue" stroke="midnightblue" points="190.5,-29.75 187,-19.75 183.5,-29.75 190.5,-29.75"/>
</g>
<!-- Node8&#45;&gt;Node3 -->
<g id="edge10" class="edge">
<title>Node8&#45;&gt;Node3</title>
<path fill="none" stroke="midnightblue" d="M1420.85,-168.27C1398.38,-153.84 1350.68,-125.27 1306,-112 1233.54,-90.47 1003.94,-74.2 920.6,-68.87"/>
<polygon fill="midnightblue" stroke="midnightblue" points="920.71,-65.37 910.51,-68.24 920.27,-72.36 920.71,-65.37"/>
</g>
<!-- Node8&#45;&gt;Node5 -->
<g id="edge9" class="edge">
<title>Node8&#45;&gt;Node5</title>
<path fill="none" stroke="midnightblue" d="M1429.28,-168.12C1421.12,-153.72 1402.93,-125.54 1379,-112 1340.42,-90.16 1216.43,-76.58 1148.52,-70.59"/>
<polygon fill="midnightblue" stroke="midnightblue" points="1148.78,-67.1 1138.52,-69.73 1148.18,-74.07 1148.78,-67.1"/>
</g>
<!-- Node9 -->
<g id="node9" class="node">
<title>Node9</title>
<g id="a_node9"><a xlink:title=" ">
<polygon fill="white" stroke="#bfbfbf" points="1253,-112.5 1253,-131.5 1297,-131.5 1297,-112.5 1253,-112.5"/>
<text text-anchor="middle" x="1275" y="-119.5" font-family="Helvetica,sans-Serif" font-size="10.00">vector</text>
</a>
</g>
</g>
<!-- Node8&#45;&gt;Node9 -->
<g id="edge11" class="edge">
<title>Node8&#45;&gt;Node9</title>
<path fill="none" stroke="midnightblue" d="M1408.81,-168.44C1381.11,-159.04 1336.58,-143.91 1306.58,-133.72"/>
<polygon fill="midnightblue" stroke="midnightblue" points="1307.6,-130.37 1297,-130.47 1305.35,-137 1307.6,-130.37"/>
</g>
<!-- Node10&#45;&gt;Node6 -->
<g id="edge14" class="edge">
<title>Node10&#45;&gt;Node6</title>
<path fill="none" stroke="midnightblue" d="M248.77,-280.36C201.12,-261.86 96.44,-213.34 57,-132 39.48,-95.87 93.96,-79.55 137.7,-72.36"/>
<polygon fill="midnightblue" stroke="midnightblue" points="138.33,-75.81 147.69,-70.84 137.28,-68.89 138.33,-75.81"/>
</g>
<!-- Node11&#45;&gt;Node3 -->
<g id="edge18" class="edge">
<title>Node11&#45;&gt;Node3</title>
<path fill="none" stroke="midnightblue" d="M919.51,-289.29C1054.07,-289.81 1480,-287.98 1521,-244 1573.86,-187.3 1480.66,-136.15 1407,-112 1360.8,-96.85 1024.93,-75.26 920.74,-68.85"/>
<polygon fill="midnightblue" stroke="midnightblue" points="920.76,-65.35 910.57,-68.23 920.34,-72.34 920.76,-65.35"/>
</g>
<!-- Node11&#45;&gt;Node8 -->
<g id="edge24" class="edge">
<title>Node11&#45;&gt;Node8</title>
<path fill="none" stroke="midnightblue" d="M919.73,-289.11C1023.71,-288.8 1296.39,-284.07 1376,-244 1397.03,-233.41 1413.93,-211.66 1423.95,-196.24"/>
<polygon fill="midnightblue" stroke="midnightblue" points="1427,-197.96 1429.27,-187.62 1421.04,-194.29 1427,-197.96"/>
</g>
<!-- Node11&#45;&gt;Node9 -->
<g id="edge20" class="edge">
<title>Node11&#45;&gt;Node9</title>
<path fill="none" stroke="midnightblue" d="M919.72,-283.17C1028.57,-267.18 1319.88,-221.59 1347,-188 1363.58,-167.46 1332.86,-147.7 1306.55,-135.47"/>
<polygon fill="midnightblue" stroke="midnightblue" points="1307.71,-132.16 1297.15,-131.32 1304.89,-138.56 1307.71,-132.16"/>
</g>
<!-- Node12 -->
<g id="node12" class="node">
<title>Node12</title>
<g id="a_node12"><a xlink:title=" ">
<polygon fill="white" stroke="#bfbfbf" points="66.5,-112.5 66.5,-131.5 101.5,-131.5 101.5,-112.5 66.5,-112.5"/>
<text text-anchor="middle" x="84" y="-119.5" font-family="Helvetica,sans-Serif" font-size="10.00">map</text>
</a>
</g>
</g>
<!-- Node11&#45;&gt;Node12 -->
<g id="edge16" class="edge">
<title>Node11&#45;&gt;Node12</title>
<path fill="none" stroke="midnightblue" d="M838.06,-286.59C704.37,-278.21 282.17,-247.53 161,-188 136.36,-175.89 112.99,-154.2 98.6,-139.23"/>
<polygon fill="midnightblue" stroke="midnightblue" points="100.95,-136.63 91.57,-131.7 95.84,-141.4 100.95,-136.63"/>
</g>
<!-- Node13 -->
<g id="node13" class="node">
<title>Node13</title>
<g id="a_node13"><a xlink:title=" ">
<polygon fill="white" stroke="#bfbfbf" points="170.5,-168.5 170.5,-187.5 221.5,-187.5 221.5,-168.5 170.5,-168.5"/>
<text text-anchor="middle" x="196" y="-175.5" font-family="Helvetica,sans-Serif" font-size="10.00">memory</text>
</a>
</g>
</g>
<!-- Node11&#45;&gt;Node13 -->
<g id="edge17" class="edge">
<title>Node11&#45;&gt;Node13</title>
<path fill="none" stroke="midnightblue" d="M838.48,-284.19C737.42,-271.87 466.06,-236.84 231.63,-188.18"/>
<polygon fill="midnightblue" stroke="midnightblue" points="232.06,-184.69 221.55,-186.07 230.62,-191.54 232.06,-184.69"/>
</g>
<!-- Node14 -->
<g id="node14" class="node">
<title>Node14</title>
<g id="a_node14"><a xlink:title=" ">
<polygon fill="white" stroke="#bfbfbf" points="859.5,-224.5 859.5,-243.5 898.5,-243.5 898.5,-224.5 859.5,-224.5"/>
<text text-anchor="middle" x="879" y="-231.5" font-family="Helvetica,sans-Serif" font-size="10.00">utility</text>
</a>
</g>
</g>
<!-- Node11&#45;&gt;Node14 -->
<g id="edge19" class="edge">
<title>Node11&#45;&gt;Node14</title>
<path fill="none" stroke="midnightblue" d="M879,-280.08C879,-273.01 879,-262.86 879,-253.99"/>
<polygon fill="midnightblue" stroke="midnightblue" points="882.5,-253.75 879,-243.75 875.5,-253.75 882.5,-253.75"/>
</g>
<!-- Node15 -->
<g id="node15" class="node">
<title>Node15</title>
<g id="a_node15"><a xlink:href="Exceptions_8h.html" target="_top" xlink:title="Interally used exceptions. These can be handled properly in the main game class.">
<polygon fill="white" stroke="black" points="930.5,-224.5 930.5,-243.5 1049.5,-243.5 1049.5,-224.5 930.5,-224.5"/>
<text text-anchor="middle" x="990" y="-231.5" font-family="Helvetica,sans-Serif" font-size="10.00">../common/Exceptions.h</text>
</a>
</g>
</g>
<!-- Node11&#45;&gt;Node15 -->
<g id="edge21" class="edge">
<title>Node11&#45;&gt;Node15</title>
<path fill="none" stroke="midnightblue" d="M896.83,-280.32C914.72,-271.62 942.48,-258.12 963.05,-248.11"/>
<polygon fill="midnightblue" stroke="midnightblue" points="964.75,-251.18 972.21,-243.65 961.69,-244.88 964.75,-251.18"/>
</g>
<!-- Node17 -->
<g id="node17" class="node">
<title>Node17</title>
<g id="a_node17"><a xlink:href="Services_8h.html" target="_top" xlink:title="Implementation of core Services class.">
<polygon fill="white" stroke="black" points="704,-224.5 704,-243.5 814,-243.5 814,-224.5 704,-224.5"/>
<text text-anchor="middle" x="759" y="-231.5" font-family="Helvetica,sans-Serif" font-size="10.00">../services/Services.h</text>
</a>
</g>
</g>
<!-- Node11&#45;&gt;Node17 -->
<g id="edge25" class="edge">
<title>Node11&#45;&gt;Node17</title>
<path fill="none" stroke="midnightblue" d="M859.99,-280.44C840.41,-271.64 809.69,-257.81 787.27,-247.72"/>
<polygon fill="midnightblue" stroke="midnightblue" points="788.48,-244.43 777.93,-243.52 785.61,-250.81 788.48,-244.43"/>
</g>
<!-- Node15&#45;&gt;Node3 -->
<g id="edge23" class="edge">
<title>Node15&#45;&gt;Node3</title>
<path fill="none" stroke="midnightblue" d="M989.97,-224.49C989.49,-203.42 985.7,-147.9 960,-112 949.86,-97.83 933.74,-87.03 919.53,-79.56"/>
<polygon fill="midnightblue" stroke="midnightblue" points="921.06,-76.41 910.54,-75.13 917.96,-82.69 921.06,-76.41"/>
</g>
<!-- Node16 -->
<g id="node16" class="node">
<title>Node16</title>
<g id="a_node16"><a xlink:title=" ">
<polygon fill="white" stroke="#bfbfbf" points="1278.5,-168.5 1278.5,-187.5 1337.5,-187.5 1337.5,-168.5 1278.5,-168.5"/>
<text text-anchor="middle" x="1308" y="-175.5" font-family="Helvetica,sans-Serif" font-size="10.00">stdexcept</text>
</a>
</g>
</g>
<!-- Node15&#45;&gt;Node16 -->
<g id="edge22" class="edge">
<title>Node15&#45;&gt;Node16</title>
<path fill="none" stroke="midnightblue" d="M1049.53,-224.58C1103.94,-216.61 1186.86,-203.8 1268.31,-188.02"/>
<polygon fill="midnightblue" stroke="midnightblue" points="1269.09,-191.44 1278.23,-186.09 1267.75,-184.57 1269.09,-191.44"/>
</g>
<!-- Node17&#45;&gt;Node13 -->
<g id="edge26" class="edge">
<title>Node17&#45;&gt;Node13</title>
<path fill="none" stroke="midnightblue" d="M703.77,-231.46C608.88,-228.13 408.79,-218.09 231.54,-187.99"/>
<polygon fill="midnightblue" stroke="midnightblue" points="231.96,-184.51 221.51,-186.26 230.77,-191.41 231.96,-184.51"/>
</g>
<!-- Node18 -->
<g id="node18" class="node">
<title>Node18</title>
<g id="a_node18"><a xlink:href="AssetService_8h.html" target="_top" xlink:title="Implementation of AssetService.">
<polygon fill="white" stroke="black" points="370.5,-168.5 370.5,-187.5 485.5,-187.5 485.5,-168.5 370.5,-168.5"/>
<text text-anchor="middle" x="428" y="-175.5" font-family="Helvetica,sans-Serif" font-size="10.00">assets/AssetService.h</text>
</a>
</g>
</g>
<!-- Node17&#45;&gt;Node18 -->
<g id="edge27" class="edge">
<title>Node17&#45;&gt;Node18</title>
<path fill="none" stroke="midnightblue" d="M706.55,-224.44C647.84,-214.87 552.77,-199.36 490.32,-189.17"/>
<polygon fill="midnightblue" stroke="midnightblue" points="490.64,-185.67 480.2,-187.52 489.51,-192.58 490.64,-185.67"/>
</g>
<!-- Node24 -->
<g id="node24" class="node">
<title>Node24</title>
<g id="a_node24"><a xlink:href="AudioService_8h.html" target="_top" xlink:title="Default audio service, can actually play audio.">
<polygon fill="white" stroke="black" points="504,-168.5 504,-187.5 612,-187.5 612,-168.5 504,-168.5"/>
<text text-anchor="middle" x="558" y="-175.5" font-family="Helvetica,sans-Serif" font-size="10.00">audio/AudioService.h</text>
</a>
</g>
</g>
<!-- Node17&#45;&gt;Node24 -->
<g id="edge41" class="edge">
<title>Node17&#45;&gt;Node24</title>
<path fill="none" stroke="midnightblue" d="M727.15,-224.44C692.6,-215.16 637.32,-200.31 599.42,-190.13"/>
<polygon fill="midnightblue" stroke="midnightblue" points="600.27,-186.73 589.7,-187.52 598.45,-193.49 600.27,-186.73"/>
</g>
<!-- Node25 -->
<g id="node25" class="node">
<title>Node25</title>
<g id="a_node25"><a xlink:href="ConfigService_8h.html" target="_top" xlink:title="Header for default Config Service.">
<polygon fill="white" stroke="black" points="239.5,-168.5 239.5,-187.5 352.5,-187.5 352.5,-168.5 239.5,-168.5"/>
<text text-anchor="middle" x="296" y="-175.5" font-family="Helvetica,sans-Serif" font-size="10.00">config/ConfigService.h</text>
</a>
</g>
</g>
<!-- Node17&#45;&gt;Node25 -->
<g id="edge45" class="edge">
<title>Node17&#45;&gt;Node25</title>
<path fill="none" stroke="midnightblue" d="M703.72,-227.13C628.92,-219.11 491.06,-204 362.54,-188.04"/>
<polygon fill="midnightblue" stroke="midnightblue" points="362.87,-184.56 352.51,-186.79 362.01,-191.5 362.87,-184.56"/>
</g>
<!-- Node27 -->
<g id="node27" class="node">
<title>Node27</title>
<g id="a_node27"><a xlink:href="DisplayService_8h.html" target="_top" xlink:title="Service that encapsulates SDL display related functionality.">
<polygon fill="white" stroke="black" points="840,-168.5 840,-187.5 962,-187.5 962,-168.5 840,-168.5"/>
<text text-anchor="middle" x="901" y="-175.5" font-family="Helvetica,sans-Serif" font-size="10.00">display/DisplayService.h</text>
</a>
</g>
</g>
<!-- Node17&#45;&gt;Node27 -->
<g id="edge49" class="edge">
<title>Node17&#45;&gt;Node27</title>
<path fill="none" stroke="midnightblue" d="M781.5,-224.44C805.08,-215.48 842.32,-201.31 868.96,-191.18"/>
<polygon fill="midnightblue" stroke="midnightblue" points="870.5,-194.34 878.6,-187.52 868.01,-187.8 870.5,-194.34"/>
</g>
<!-- Node30 -->
<g id="node30" class="node">
<title>Node30</title>
<g id="a_node30"><a xlink:href="EventQueue_8h.html" target="_top" xlink:title="Handles SDL_Events from main SDL_Queue. Can be hooked into by other services and notified when change...">
<polygon fill="white" stroke="black" points="1150,-168.5 1150,-187.5 1260,-187.5 1260,-168.5 1150,-168.5"/>
<text text-anchor="middle" x="1205" y="-175.5" font-family="Helvetica,sans-Serif" font-size="10.00">events/EventQueue.h</text>
</a>
</g>
</g>
<!-- Node17&#45;&gt;Node30 -->
<g id="edge56" class="edge">
<title>Node17&#45;&gt;Node30</title>
<path fill="none" stroke="midnightblue" d="M814.08,-226.9C886.34,-218.82 1017.36,-203.86 1139.57,-188.16"/>
<polygon fill="midnightblue" stroke="midnightblue" points="1140.38,-191.59 1149.85,-186.84 1139.49,-184.64 1140.38,-191.59"/>
</g>
<!-- Node31 -->
<g id="node31" class="node">
<title>Node31</title>
<g id="a_node31"><a xlink:href="InputService_8h.html" target="_top" xlink:title="General Purpose input listener. Handles Mouse, Keyboard, Joystick.">
<polygon fill="white" stroke="black" points="1598.5,-168.5 1598.5,-187.5 1701.5,-187.5 1701.5,-168.5 1598.5,-168.5"/>
<text text-anchor="middle" x="1650" y="-175.5" font-family="Helvetica,sans-Serif" font-size="10.00">input/InputService.h</text>
</a>
</g>
</g>
<!-- Node17&#45;&gt;Node31 -->
<g id="edge60" class="edge">
<title>Node17&#45;&gt;Node31</title>
<path fill="none" stroke="midnightblue" d="M814.43,-227.2C826.48,-226.05 839.16,-224.91 851,-224 923.62,-218.41 1413.38,-191.78 1588.17,-182.33"/>
<polygon fill="midnightblue" stroke="midnightblue" points="1588.44,-185.83 1598.23,-181.79 1588.06,-178.84 1588.44,-185.83"/>
</g>
<!-- Node39 -->
<g id="node39" class="node">
<title>Node39</title>
<g id="a_node39"><a xlink:href="DebugLoggingService_8h.html" target="_top" xlink:title="Logging service that does the logging. Used for development.">
<polygon fill="white" stroke="black" points="668.5,-168.5 668.5,-187.5 821.5,-187.5 821.5,-168.5 668.5,-168.5"/>
<text text-anchor="middle" x="745" y="-175.5" font-family="Helvetica,sans-Serif" font-size="10.00">logging/DebugLoggingService.h</text>
</a>
</g>
</g>
<!-- Node17&#45;&gt;Node39 -->
<g id="edge73" class="edge">
<title>Node17&#45;&gt;Node39</title>
<path fill="none" stroke="midnightblue" d="M756.69,-224.08C754.83,-216.93 752.16,-206.64 749.85,-197.69"/>
<polygon fill="midnightblue" stroke="midnightblue" points="753.17,-196.55 747.27,-187.75 746.39,-198.31 753.17,-196.55"/>
</g>
<!-- Node41 -->
<g id="node41" class="node">
<title>Node41</title>
<g id="a_node41"><a xlink:href="SceneService_8h.html" target="_top" xlink:title="Service in charge of managing scenes.">
<polygon fill="white" stroke="black" points="1018,-168.5 1018,-187.5 1132,-187.5 1132,-168.5 1018,-168.5"/>
<text text-anchor="middle" x="1075" y="-175.5" font-family="Helvetica,sans-Serif" font-size="10.00">scene/SceneService.h</text>
</a>
</g>
</g>
<!-- Node17&#45;&gt;Node41 -->
<g id="edge77" class="edge">
<title>Node17&#45;&gt;Node41</title>
<path fill="none" stroke="midnightblue" d="M809.07,-224.44C865.01,-214.89 955.51,-199.42 1015.14,-189.23"/>
<polygon fill="midnightblue" stroke="midnightblue" points="1015.9,-192.65 1025.16,-187.52 1014.72,-185.75 1015.9,-192.65"/>
</g>
<!-- Node18&#45;&gt;Node3 -->
<g id="edge29" class="edge">
<title>Node18&#45;&gt;Node3</title>
<path fill="none" stroke="midnightblue" d="M439.78,-168.37C461.92,-152.32 509.23,-118.85 528,-112 644.69,-69.4 795.09,-65.66 859.03,-66.24"/>
<polygon fill="midnightblue" stroke="midnightblue" points="859.19,-69.75 869.24,-66.38 859.28,-62.75 859.19,-69.75"/>
</g>
<!-- Node18&#45;&gt;Node4 -->
<g id="edge40" class="edge">
<title>Node18&#45;&gt;Node4</title>
<path fill="none" stroke="midnightblue" d="M477.44,-168.44C532.99,-158.83 623.07,-143.24 681.93,-133.05"/>
<polygon fill="midnightblue" stroke="midnightblue" points="682.56,-136.49 691.82,-131.34 681.37,-129.6 682.56,-136.49"/>
</g>
<!-- Node18&#45;&gt;Node12 -->
<g id="edge28" class="edge">
<title>Node18&#45;&gt;Node12</title>
<path fill="none" stroke="midnightblue" d="M370.19,-169.07C290.61,-158.12 153.2,-139.06 111.45,-131.4"/>
<polygon fill="midnightblue" stroke="midnightblue" points="112.09,-127.96 101.59,-129.37 110.68,-134.81 112.09,-127.96"/>
</g>
<!-- Node19 -->
<g id="node19" class="node">
<title>Node19</title>
<g id="a_node19"><a xlink:href="Font_8h.html" target="_top" xlink:title="Easy interface to interact with SDL fonts.">
<polygon fill="white" stroke="black" points="228.5,-112.5 228.5,-131.5 319.5,-131.5 319.5,-112.5 228.5,-112.5"/>
<text text-anchor="middle" x="274" y="-119.5" font-family="Helvetica,sans-Serif" font-size="10.00">../../assets/Font.h</text>
</a>
</g>
</g>
<!-- Node18&#45;&gt;Node19 -->
<g id="edge30" class="edge">
<title>Node18&#45;&gt;Node19</title>
<path fill="none" stroke="midnightblue" d="M403.6,-168.44C377.8,-159.4 336.92,-145.06 307.98,-134.92"/>
<polygon fill="midnightblue" stroke="midnightblue" points="308.88,-131.52 298.29,-131.52 306.57,-138.13 308.88,-131.52"/>
</g>
<!-- Node21 -->
<g id="node21" class="node">
<title>Node21</title>
<g id="a_node21"><a xlink:href="Sound_8h.html" target="_top" xlink:title="Implementation of Sound.">
<polygon fill="white" stroke="black" points="536.5,-112.5 536.5,-131.5 635.5,-131.5 635.5,-112.5 536.5,-112.5"/>
<text text-anchor="middle" x="586" y="-119.5" font-family="Helvetica,sans-Serif" font-size="10.00">../../assets/Sound.h</text>
</a>
</g>
</g>
<!-- Node18&#45;&gt;Node21 -->
<g id="edge34" class="edge">
<title>Node18&#45;&gt;Node21</title>
<path fill="none" stroke="midnightblue" d="M453.04,-168.44C479.62,-159.36 521.81,-144.94 551.52,-134.78"/>
<polygon fill="midnightblue" stroke="midnightblue" points="552.75,-138.06 561.08,-131.52 550.49,-131.44 552.75,-138.06"/>
</g>
<!-- Node23 -->
<g id="node23" class="node">
<title>Node23</title>
<g id="a_node23"><a xlink:href="Stream_8h.html" target="_top" xlink:title="Wrapper for sdl stream including ability to store stream pointer. Use for single instance sounds like...">
<polygon fill="white" stroke="black" points="376.5,-112.5 376.5,-131.5 479.5,-131.5 479.5,-112.5 376.5,-112.5"/>
<text text-anchor="middle" x="428" y="-119.5" font-family="Helvetica,sans-Serif" font-size="10.00">../../assets/Stream.h</text>
</a>
</g>
</g>
<!-- Node18&#45;&gt;Node23 -->
<g id="edge37" class="edge">
<title>Node18&#45;&gt;Node23</title>
<path fill="none" stroke="midnightblue" d="M428,-168.08C428,-161.01 428,-150.86 428,-141.99"/>
<polygon fill="midnightblue" stroke="midnightblue" points="431.5,-141.75 428,-131.75 424.5,-141.75 431.5,-141.75"/>
</g>
<!-- Node19&#45;&gt;Node3 -->
<g id="edge32" class="edge">
<title>Node19&#45;&gt;Node3</title>
<path fill="none" stroke="midnightblue" d="M319.82,-113.8C324.6,-113.15 329.4,-112.53 334,-112 533.54,-88.99 774.71,-73.73 859.08,-68.76"/>
<polygon fill="midnightblue" stroke="midnightblue" points="859.47,-72.24 869.25,-68.17 859.06,-65.26 859.47,-72.24"/>
</g>
<!-- Node19&#45;&gt;Node6 -->
<g id="edge33" class="edge">
<title>Node19&#45;&gt;Node6</title>
<path fill="none" stroke="midnightblue" d="M260.02,-112.32C246.45,-103.9 225.62,-90.97 209.68,-81.07"/>
<polygon fill="midnightblue" stroke="midnightblue" points="211.29,-77.95 200.94,-75.65 207.59,-83.9 211.29,-77.95"/>
</g>
<!-- Node20 -->
<g id="node20" class="node">
<title>Node20</title>
<g id="a_node20"><a xlink:title=" ">
<polygon fill="white" stroke="#bfbfbf" points="244,-56.5 244,-75.5 330,-75.5 330,-56.5 244,-56.5"/>
<text text-anchor="middle" x="287" y="-63.5" font-family="Helvetica,sans-Serif" font-size="10.00">SDL2/SDL_ttf.h</text>
</a>
</g>
</g>
<!-- Node19&#45;&gt;Node20 -->
<g id="edge31" class="edge">
<title>Node19&#45;&gt;Node20</title>
<path fill="none" stroke="midnightblue" d="M276.15,-112.08C277.87,-104.93 280.35,-94.64 282.5,-85.69"/>
<polygon fill="midnightblue" stroke="midnightblue" points="285.96,-86.29 284.89,-75.75 279.15,-84.65 285.96,-86.29"/>
</g>
<!-- Node21&#45;&gt;Node3 -->
<g id="edge36" class="edge">
<title>Node21&#45;&gt;Node3</title>
<path fill="none" stroke="midnightblue" d="M634.17,-112.44C697.29,-101.23 806.18,-81.89 859.2,-72.47"/>
<polygon fill="midnightblue" stroke="midnightblue" points="860.09,-75.87 869.33,-70.67 858.87,-68.98 860.09,-75.87"/>
</g>
<!-- Node22 -->
<g id="node22" class="node">
<title>Node22</title>
<g id="a_node22"><a xlink:title=" ">
<polygon fill="white" stroke="#bfbfbf" points="457,-56.5 457,-75.5 557,-75.5 557,-56.5 457,-56.5"/>
<text text-anchor="middle" x="507" y="-63.5" font-family="Helvetica,sans-Serif" font-size="10.00">SDL2/SDL_mixer.h</text>
</a>
</g>
</g>
<!-- Node21&#45;&gt;Node22 -->
<g id="edge35" class="edge">
<title>Node21&#45;&gt;Node22</title>
<path fill="none" stroke="midnightblue" d="M573.31,-112.32C561.1,-103.98 542.42,-91.21 528,-81.35"/>
<polygon fill="midnightblue" stroke="midnightblue" points="529.89,-78.41 519.66,-75.65 525.94,-84.19 529.89,-78.41"/>
</g>
<!-- Node23&#45;&gt;Node3 -->
<g id="edge39" class="edge">
<title>Node23&#45;&gt;Node3</title>
<path fill="none" stroke="midnightblue" d="M479.51,-113.86C484.4,-113.22 489.3,-112.59 494,-112 629.93,-95.01 792.45,-77.39 859.14,-70.27"/>
<polygon fill="midnightblue" stroke="midnightblue" points="859.79,-73.72 869.37,-69.18 859.05,-66.76 859.79,-73.72"/>
</g>
<!-- Node23&#45;&gt;Node22 -->
<g id="edge38" class="edge">
<title>Node23&#45;&gt;Node22</title>
<path fill="none" stroke="midnightblue" d="M440.69,-112.32C452.9,-103.98 471.58,-91.21 486,-81.35"/>
<polygon fill="midnightblue" stroke="midnightblue" points="488.06,-84.19 494.34,-75.65 484.11,-78.41 488.06,-84.19"/>
</g>
<!-- Node24&#45;&gt;Node3 -->
<g id="edge42" class="edge">
<title>Node24&#45;&gt;Node3</title>
<path fill="none" stroke="midnightblue" d="M574.7,-168.41C592.22,-159.38 620.58,-144.74 645,-132 661.92,-123.17 665.07,-118.53 683,-112 743.56,-89.94 818.21,-77 859.28,-71.02"/>
<polygon fill="midnightblue" stroke="midnightblue" points="859.8,-74.49 869.21,-69.62 858.82,-67.55 859.8,-74.49"/>
</g>
<!-- Node24&#45;&gt;Node21 -->
<g id="edge43" class="edge">
<title>Node24&#45;&gt;Node21</title>
<path fill="none" stroke="midnightblue" d="M562.62,-168.08C566.46,-160.69 572.02,-149.95 576.76,-140.81"/>
<polygon fill="midnightblue" stroke="midnightblue" points="579.97,-142.24 581.46,-131.75 573.75,-139.02 579.97,-142.24"/>
</g>
<!-- Node24&#45;&gt;Node23 -->
<g id="edge44" class="edge">
<title>Node24&#45;&gt;Node23</title>
<path fill="none" stroke="midnightblue" d="M537.4,-168.44C516.01,-159.56 482.32,-145.56 457.98,-135.45"/>
<polygon fill="midnightblue" stroke="midnightblue" points="459.08,-132.12 448.5,-131.52 456.39,-138.58 459.08,-132.12"/>
</g>
<!-- Node25&#45;&gt;Node3 -->
<g id="edge48" class="edge">
<title>Node25&#45;&gt;Node3</title>
<path fill="none" stroke="midnightblue" d="M302.4,-168.35C313.75,-153.76 338.97,-124.62 368,-112 457.15,-73.24 761.31,-67.83 859.31,-67.1"/>
<polygon fill="midnightblue" stroke="midnightblue" points="859.46,-70.6 869.44,-67.04 859.41,-63.6 859.46,-70.6"/>
</g>
<!-- Node25&#45;&gt;Node12 -->
<g id="edge46" class="edge">
<title>Node25&#45;&gt;Node12</title>
<path fill="none" stroke="midnightblue" d="M256.77,-168.45C221.21,-160.49 167.18,-147.83 111.36,-131.91"/>
<polygon fill="midnightblue" stroke="midnightblue" points="112.23,-128.52 101.65,-129.12 110.29,-135.25 112.23,-128.52"/>
</g>
<!-- Node26 -->
<g id="node26" class="node">
<title>Node26</title>
<g id="a_node26"><a xlink:title=" ">
<polygon fill="white" stroke="#bfbfbf" points="120,-112.5 120,-131.5 172,-131.5 172,-112.5 120,-112.5"/>
<text text-anchor="middle" x="146" y="-119.5" font-family="Helvetica,sans-Serif" font-size="10.00">sstream</text>
</a>
</g>
</g>
<!-- Node25&#45;&gt;Node26 -->
<g id="edge47" class="edge">
<title>Node25&#45;&gt;Node26</title>
<path fill="none" stroke="midnightblue" d="M272.23,-168.44C247.11,-159.4 207.29,-145.06 179.1,-134.92"/>
<polygon fill="midnightblue" stroke="midnightblue" points="180.25,-131.61 169.66,-131.52 177.88,-138.2 180.25,-131.61"/>
</g>
<!-- Node27&#45;&gt;Node3 -->
<g id="edge51" class="edge">
<title>Node27&#45;&gt;Node3</title>
<path fill="none" stroke="midnightblue" d="M913.94,-168.48C930.34,-156.53 955.33,-133.8 945,-112 938.87,-99.07 927.01,-88.62 915.86,-81.05"/>
<polygon fill="midnightblue" stroke="midnightblue" points="917.53,-77.97 907.2,-75.61 913.81,-83.9 917.53,-77.97"/>
</g>
<!-- Node27&#45;&gt;Node5 -->
<g id="edge50" class="edge">
<title>Node27&#45;&gt;Node5</title>
<path fill="none" stroke="midnightblue" d="M916.85,-168.37C951.88,-149.29 1036.12,-103.42 1078.2,-80.51"/>
<polygon fill="midnightblue" stroke="midnightblue" points="1080.11,-83.45 1087.22,-75.59 1076.77,-77.3 1080.11,-83.45"/>
</g>
<!-- Node27&#45;&gt;Node6 -->
<g id="edge52" class="edge">
<title>Node27&#45;&gt;Node6</title>
<path fill="none" stroke="midnightblue" d="M839.94,-168.9C836.92,-168.58 833.93,-168.27 831,-168 763.18,-161.65 275.75,-169.67 219,-132 203.15,-121.48 194.86,-100.69 190.72,-85.45"/>
<polygon fill="midnightblue" stroke="midnightblue" points="194.1,-84.49 188.4,-75.55 187.28,-86.09 194.1,-84.49"/>
</g>
<!-- Node28 -->
<g id="node28" class="node">
<title>Node28</title>
<g id="a_node28"><a xlink:href="Service_8h.html" target="_top" xlink:title="Service subscriber that can listen for events.">
<polygon fill="white" stroke="black" points="1107.5,-112.5 1107.5,-131.5 1172.5,-131.5 1172.5,-112.5 1107.5,-112.5"/>
<text text-anchor="middle" x="1140" y="-119.5" font-family="Helvetica,sans-Serif" font-size="10.00">../Service.h</text>
</a>
</g>
</g>
<!-- Node27&#45;&gt;Node28 -->
<g id="edge53" class="edge">
<title>Node27&#45;&gt;Node28</title>
<path fill="none" stroke="midnightblue" d="M938.87,-168.44C982.07,-158.68 1052.52,-142.77 1097.54,-132.59"/>
<polygon fill="midnightblue" stroke="midnightblue" points="1098.32,-136.01 1107.3,-130.39 1096.77,-129.18 1098.32,-136.01"/>
</g>
<!-- Node28&#45;&gt;Node3 -->
<g id="edge55" class="edge">
<title>Node28&#45;&gt;Node3</title>
<path fill="none" stroke="midnightblue" d="M1107.32,-113.94C1058.71,-103.44 968.04,-83.86 920.64,-73.62"/>
<polygon fill="midnightblue" stroke="midnightblue" points="921.18,-70.15 910.67,-71.46 919.7,-77 921.18,-70.15"/>
</g>
<!-- Node29 -->
<g id="node29" class="node">
<title>Node29</title>
<g id="a_node29"><a xlink:title=" ">
<polygon fill="white" stroke="#bfbfbf" points="1700,-56.5 1700,-75.5 1806,-75.5 1806,-56.5 1700,-56.5"/>
<text text-anchor="middle" x="1753" y="-63.5" font-family="Helvetica,sans-Serif" font-size="10.00">SDL2/SDL_events.h</text>
</a>
</g>
</g>
<!-- Node28&#45;&gt;Node29 -->
<g id="edge54" class="edge">
<title>Node28&#45;&gt;Node29</title>
<path fill="none" stroke="midnightblue" d="M1172.78,-118.11C1193.26,-116.32 1220.16,-113.99 1244,-112 1439.32,-95.68 1491.23,-98.24 1689.75,-76.07"/>
<polygon fill="midnightblue" stroke="midnightblue" points="1690.38,-79.53 1699.93,-74.93 1689.6,-72.57 1690.38,-79.53"/>
</g>
<!-- Node30&#45;&gt;Node5 -->
<g id="edge57" class="edge">
<title>Node30&#45;&gt;Node5</title>
<path fill="none" stroke="midnightblue" d="M1203.92,-168.48C1201.83,-155.08 1196.13,-128.89 1182,-112 1170.09,-97.76 1152.45,-87.11 1136.86,-79.75"/>
<polygon fill="midnightblue" stroke="midnightblue" points="1138.05,-76.45 1127.49,-75.6 1135.21,-82.85 1138.05,-76.45"/>
</g>
<!-- Node30&#45;&gt;Node9 -->
<g id="edge58" class="edge">
<title>Node30&#45;&gt;Node9</title>
<path fill="none" stroke="midnightblue" d="M1216.25,-168.32C1226.8,-160.18 1242.8,-147.84 1255.44,-138.09"/>
<polygon fill="midnightblue" stroke="midnightblue" points="1257.77,-140.71 1263.55,-131.83 1253.49,-135.17 1257.77,-140.71"/>
</g>
<!-- Node30&#45;&gt;Node28 -->
<g id="edge59" class="edge">
<title>Node30&#45;&gt;Node28</title>
<path fill="none" stroke="midnightblue" d="M1194.56,-168.32C1184.85,-160.26 1170.18,-148.08 1158.5,-138.37"/>
<polygon fill="midnightblue" stroke="midnightblue" points="1160.56,-135.53 1150.63,-131.83 1156.09,-140.92 1160.56,-135.53"/>
</g>
<!-- Node31&#45;&gt;Node3 -->
<g id="edge63" class="edge">
<title>Node31&#45;&gt;Node3</title>
<path fill="none" stroke="midnightblue" d="M1632.3,-168.5C1595.98,-151.07 1516.14,-112.83 1513,-112 1484.08,-104.38 1042.42,-76.48 920.8,-68.91"/>
<polygon fill="midnightblue" stroke="midnightblue" points="920.88,-65.41 910.68,-68.28 920.44,-72.39 920.88,-65.41"/>
</g>
<!-- Node31&#45;&gt;Node28 -->
<g id="edge64" class="edge">
<title>Node31&#45;&gt;Node28</title>
<path fill="none" stroke="midnightblue" d="M1598.29,-171.53C1497.46,-160.85 1276.31,-137.43 1182.94,-127.55"/>
<polygon fill="midnightblue" stroke="midnightblue" points="1183.05,-124.04 1172.73,-126.47 1182.31,-131 1183.05,-124.04"/>
</g>
<!-- Node31&#45;&gt;Node29 -->
<g id="edge61" class="edge">
<title>Node31&#45;&gt;Node29</title>
<path fill="none" stroke="midnightblue" d="M1677.92,-168.43C1696.33,-161.42 1719.61,-149.73 1734,-132 1744.76,-118.75 1749.42,-99.62 1751.45,-85.54"/>
<polygon fill="midnightblue" stroke="midnightblue" points="1754.93,-85.87 1752.57,-75.55 1747.98,-85.09 1754.93,-85.87"/>
</g>
<!-- Node32 -->
<g id="node32" class="node">
<title>Node32</title>
<g id="a_node32"><a xlink:title=" ">
<polygon fill="white" stroke="#bfbfbf" points="1565,-112.5 1565,-131.5 1619,-131.5 1619,-112.5 1565,-112.5"/>
<text text-anchor="middle" x="1592" y="-119.5" font-family="Helvetica,sans-Serif" font-size="10.00">iostream</text>
</a>
</g>
</g>
<!-- Node31&#45;&gt;Node32 -->
<g id="edge62" class="edge">
<title>Node31&#45;&gt;Node32</title>
<path fill="none" stroke="midnightblue" d="M1640.68,-168.32C1632.11,-160.34 1619.19,-148.31 1608.81,-138.65"/>
<polygon fill="midnightblue" stroke="midnightblue" points="1611.19,-136.09 1601.49,-131.83 1606.42,-141.21 1611.19,-136.09"/>
</g>
<!-- Node33 -->
<g id="node33" class="node">
<title>Node33</title>
<g id="a_node33"><a xlink:href="JoystickState_8h.html" target="_top" xlink:title="Container for storing Joystick state.">
<polygon fill="white" stroke="black" points="1876.5,-112.5 1876.5,-131.5 1959.5,-131.5 1959.5,-112.5 1876.5,-112.5"/>
<text text-anchor="middle" x="1918" y="-119.5" font-family="Helvetica,sans-Serif" font-size="10.00">JoystickState.h</text>
</a>
</g>
</g>
<!-- Node31&#45;&gt;Node33 -->
<g id="edge65" class="edge">
<title>Node31&#45;&gt;Node33</title>
<path fill="none" stroke="midnightblue" d="M1692.47,-168.44C1739.55,-158.96 1815.52,-143.65 1866.1,-133.46"/>
<polygon fill="midnightblue" stroke="midnightblue" points="1867.06,-136.83 1876.17,-131.43 1865.68,-129.97 1867.06,-136.83"/>
</g>
<!-- Node35 -->
<g id="node35" class="node">
<title>Node35</title>
<g id="a_node35"><a xlink:href="KeyboardState_8h.html" target="_top" xlink:title="Container for storing Keyboard state.">
<polygon fill="white" stroke="black" points="1637,-112.5 1637,-131.5 1725,-131.5 1725,-112.5 1637,-112.5"/>
<text text-anchor="middle" x="1681" y="-119.5" font-family="Helvetica,sans-Serif" font-size="10.00">KeyboardState.h</text>
</a>
</g>
</g>
<!-- Node31&#45;&gt;Node35 -->
<g id="edge68" class="edge">
<title>Node31&#45;&gt;Node35</title>
<path fill="none" stroke="midnightblue" d="M1655.12,-168.08C1659.41,-160.61 1665.66,-149.72 1670.94,-140.52"/>
<polygon fill="midnightblue" stroke="midnightblue" points="1674.03,-142.17 1675.98,-131.75 1667.96,-138.68 1674.03,-142.17"/>
</g>
<!-- Node37 -->
<g id="node37" class="node">
<title>Node37</title>
<g id="a_node37"><a xlink:href="MouseState_8h.html" target="_top" xlink:title="Container for storing Mouse state.">
<polygon fill="white" stroke="black" points="1781.5,-112.5 1781.5,-131.5 1858.5,-131.5 1858.5,-112.5 1781.5,-112.5"/>
<text text-anchor="middle" x="1820" y="-119.5" font-family="Helvetica,sans-Serif" font-size="10.00">MouseState.h</text>
</a>
</g>
</g>
<!-- Node31&#45;&gt;Node37 -->
<g id="edge70" class="edge">
<title>Node31&#45;&gt;Node37</title>
<path fill="none" stroke="midnightblue" d="M1676.94,-168.44C1705.66,-159.32 1751.33,-144.81 1783.32,-134.65"/>
<polygon fill="midnightblue" stroke="midnightblue" points="1784.72,-137.88 1793.19,-131.52 1782.6,-131.21 1784.72,-137.88"/>
</g>
<!-- Node33&#45;&gt;Node29 -->
<g id="edge66" class="edge">
<title>Node33&#45;&gt;Node29</title>
<path fill="none" stroke="midnightblue" d="M1891.86,-112.44C1863.98,-103.32 1819.65,-88.81 1788.6,-78.65"/>
<polygon fill="midnightblue" stroke="midnightblue" points="1789.62,-75.3 1779.02,-75.52 1787.44,-81.95 1789.62,-75.3"/>
</g>
<!-- Node34 -->
<g id="node34" class="node">
<title>Node34</title>
<g id="a_node34"><a xlink:href="JoystickCodes_8h.html" target="_top" xlink:title="Defines for codes used for joystick.">
<polygon fill="white" stroke="black" points="1948,-56.5 1948,-75.5 2036,-75.5 2036,-56.5 1948,-56.5"/>
<text text-anchor="middle" x="1992" y="-63.5" font-family="Helvetica,sans-Serif" font-size="10.00">JoystickCodes.h</text>
</a>
</g>
</g>
<!-- Node33&#45;&gt;Node34 -->
<g id="edge67" class="edge">
<title>Node33&#45;&gt;Node34</title>
<path fill="none" stroke="midnightblue" d="M1929.89,-112.32C1941.15,-104.11 1958.29,-91.6 1971.71,-81.81"/>
<polygon fill="midnightblue" stroke="midnightblue" points="1973.88,-84.56 1979.89,-75.83 1969.75,-78.9 1973.88,-84.56"/>
</g>
<!-- Node36 -->
<g id="node36" class="node">
<title>Node36</title>
<g id="a_node36"><a xlink:href="KeyboardKeys_8h.html" target="_top" xlink:title="Defenitions of keys that can be used by input manager.">
<polygon fill="white" stroke="black" points="1596,-56.5 1596,-75.5 1682,-75.5 1682,-56.5 1596,-56.5"/>
<text text-anchor="middle" x="1639" y="-63.5" font-family="Helvetica,sans-Serif" font-size="10.00">KeyboardKeys.h</text>
</a>
</g>
</g>
<!-- Node35&#45;&gt;Node36 -->
<g id="edge69" class="edge">
<title>Node35&#45;&gt;Node36</title>
<path fill="none" stroke="midnightblue" d="M1674.06,-112.08C1668.07,-104.38 1659.25,-93.03 1651.95,-83.65"/>
<polygon fill="midnightblue" stroke="midnightblue" points="1654.71,-81.5 1645.81,-75.75 1649.18,-85.79 1654.71,-81.5"/>
</g>
<!-- Node37&#45;&gt;Node29 -->
<g id="edge71" class="edge">
<title>Node37&#45;&gt;Node29</title>
<path fill="none" stroke="midnightblue" d="M1809.24,-112.32C1799.23,-104.26 1784.11,-92.08 1772.07,-82.37"/>
<polygon fill="midnightblue" stroke="midnightblue" points="1773.94,-79.38 1763.96,-75.83 1769.55,-84.83 1773.94,-79.38"/>
</g>
<!-- Node38 -->
<g id="node38" class="node">
<title>Node38</title>
<g id="a_node38"><a xlink:title=" ">
<polygon fill="white" stroke="#bfbfbf" points="1824,-56.5 1824,-75.5 1930,-75.5 1930,-56.5 1824,-56.5"/>
<text text-anchor="middle" x="1877" y="-63.5" font-family="Helvetica,sans-Serif" font-size="10.00">SDL2/SDL_mouse.h</text>
</a>
</g>
</g>
<!-- Node37&#45;&gt;Node38 -->
<g id="edge72" class="edge">
<title>Node37&#45;&gt;Node38</title>
<path fill="none" stroke="midnightblue" d="M1829.16,-112.32C1837.5,-104.42 1850.03,-92.55 1860.18,-82.94"/>
<polygon fill="midnightblue" stroke="midnightblue" points="1862.82,-85.25 1867.68,-75.83 1858.01,-80.17 1862.82,-85.25"/>
</g>
<!-- Node39&#45;&gt;Node3 -->
<g id="edge74" class="edge">
<title>Node39&#45;&gt;Node3</title>
<path fill="none" stroke="midnightblue" d="M756.38,-168.37C781.05,-149.65 839.71,-105.15 870.45,-81.83"/>
<polygon fill="midnightblue" stroke="midnightblue" points="872.82,-84.42 878.67,-75.59 868.59,-78.85 872.82,-84.42"/>
</g>
<!-- Node40 -->
<g id="node40" class="node">
<title>Node40</title>
<g id="a_node40"><a xlink:href="LoggingService_8h.html" target="_top" xlink:title="Default logging service. Does nothing. Use in production.">
<polygon fill="white" stroke="black" points="844,-112.5 844,-131.5 936,-131.5 936,-112.5 844,-112.5"/>
<text text-anchor="middle" x="890" y="-119.5" font-family="Helvetica,sans-Serif" font-size="10.00">LoggingService.h</text>
</a>
</g>
</g>
<!-- Node39&#45;&gt;Node40 -->
<g id="edge75" class="edge">
<title>Node39&#45;&gt;Node40</title>
<path fill="none" stroke="midnightblue" d="M767.98,-168.44C792.16,-159.44 830.42,-145.19 857.65,-135.05"/>
<polygon fill="midnightblue" stroke="midnightblue" points="858.98,-138.29 867.13,-131.52 856.54,-131.73 858.98,-138.29"/>
</g>
<!-- Node40&#45;&gt;Node3 -->
<g id="edge76" class="edge">
<title>Node40&#45;&gt;Node3</title>
<path fill="none" stroke="midnightblue" d="M890,-112.08C890,-105.01 890,-94.86 890,-85.99"/>
<polygon fill="midnightblue" stroke="midnightblue" points="893.5,-85.75 890,-75.75 886.5,-85.75 893.5,-85.75"/>
</g>
<!-- Node41&#45;&gt;Node3 -->
<g id="edge78" class="edge">
<title>Node41&#45;&gt;Node3</title>
<path fill="none" stroke="midnightblue" d="M1074.72,-168.5C1073.8,-154.65 1069.94,-127.24 1054,-112 1017.68,-77.27 957.17,-68.83 920.68,-67.07"/>
<polygon fill="midnightblue" stroke="midnightblue" points="920.74,-63.57 910.62,-66.73 920.5,-70.57 920.74,-63.57"/>
</g>
<!-- Node41&#45;&gt;Node9 -->
<g id="edge79" class="edge">
<title>Node41&#45;&gt;Node9</title>
<path fill="none" stroke="midnightblue" d="M1106.69,-168.44C1143.94,-158.39 1205.42,-141.79 1242.86,-131.68"/>
<polygon fill="midnightblue" stroke="midnightblue" points="1244,-134.99 1252.75,-129.01 1242.18,-128.24 1244,-134.99"/>
</g>
<!-- Node41&#45;&gt;Node28 -->
<g id="edge80" class="edge">
<title>Node41&#45;&gt;Node28</title>
<path fill="none" stroke="midnightblue" d="M1085.44,-168.32C1095.15,-160.26 1109.82,-148.08 1121.5,-138.37"/>
<polygon fill="midnightblue" stroke="midnightblue" points="1123.91,-140.92 1129.37,-131.83 1119.44,-135.53 1123.91,-140.92"/>
</g>
</g>
</svg>
