<?xml version="1.0" encoding="UTF-8" standalone="no"?>
<!DOCTYPE svg PUBLIC "-//W3C//DTD SVG 1.1//EN"
 "http://www.w3.org/Graphics/SVG/1.1/DTD/svg11.dtd">
<!-- Generated by graphviz version 2.46.1 (20210215.1649)
 -->
<!-- Title: src/common/str.cpp Pages: 1 -->
<svg width="200pt" height="196pt"
 viewBox="0.00 0.00 199.50 196.00" xmlns="http://www.w3.org/2000/svg" xmlns:xlink="http://www.w3.org/1999/xlink">
<g id="graph0" class="graph" transform="scale(1 1) rotate(0) translate(4 192)">
<title>src/common/str.cpp</title>
<polygon fill="white" stroke="transparent" points="-4,4 -4,-192 195.5,-192 195.5,4 -4,4"/>
<!-- Node1 -->
<g id="node1" class="node">
<title>Node1</title>
<g id="a_node1"><a xlink:title="Implementation of string function helpers.">
<polygon fill="#bfbfbf" stroke="black" points="70,-168.5 70,-187.5 173,-187.5 173,-168.5 70,-168.5"/>
<text text-anchor="middle" x="121.5" y="-175.5" font-family="Helvetica,sans-Serif" font-size="10.00">src/common/str.cpp</text>
</a>
</g>
</g>
<!-- Node2 -->
<g id="node2" class="node">
<title>Node2</title>
<g id="a_node2"><a xlink:href="str_8h.html" target="_top" xlink:title="Helpers which can manipulate or get data from strings.">
<polygon fill="white" stroke="black" points="41.5,-112.5 41.5,-131.5 117.5,-131.5 117.5,-112.5 41.5,-112.5"/>
<text text-anchor="middle" x="79.5" y="-119.5" font-family="Helvetica,sans-Serif" font-size="10.00">common/str.h</text>
</a>
</g>
</g>
<!-- Node1&#45;&gt;Node2 -->
<g id="edge1" class="edge">
<title>Node1&#45;&gt;Node2</title>
<path fill="none" stroke="midnightblue" d="M114.56,-168.08C108.57,-160.38 99.75,-149.03 92.45,-139.65"/>
<polygon fill="midnightblue" stroke="midnightblue" points="95.21,-137.5 86.31,-131.75 89.68,-141.79 95.21,-137.5"/>
</g>
<!-- Node7 -->
<g id="node7" class="node">
<title>Node7</title>
<g id="a_node7"><a xlink:title=" ">
<polygon fill="white" stroke="#bfbfbf" points="135.5,-112.5 135.5,-131.5 191.5,-131.5 191.5,-112.5 135.5,-112.5"/>
<text text-anchor="middle" x="163.5" y="-119.5" font-family="Helvetica,sans-Serif" font-size="10.00">algorithm</text>
</a>
</g>
</g>
<!-- Node1&#45;&gt;Node7 -->
<g id="edge7" class="edge">
<title>Node1&#45;&gt;Node7</title>
<path fill="none" stroke="midnightblue" d="M128.44,-168.08C134.43,-160.38 143.25,-149.03 150.55,-139.65"/>
<polygon fill="midnightblue" stroke="midnightblue" points="153.32,-141.79 156.69,-131.75 147.79,-137.5 153.32,-141.79"/>
</g>
<!-- Node3 -->
<g id="node3" class="node">
<title>Node3</title>
<g id="a_node3"><a xlink:title=" ">
<polygon fill="white" stroke="#bfbfbf" points="0,-56.5 0,-75.5 51,-75.5 51,-56.5 0,-56.5"/>
<text text-anchor="middle" x="25.5" y="-63.5" font-family="Helvetica,sans-Serif" font-size="10.00">memory</text>
</a>
</g>
</g>
<!-- Node2&#45;&gt;Node3 -->
<g id="edge2" class="edge">
<title>Node2&#45;&gt;Node3</title>
<path fill="none" stroke="midnightblue" d="M70.58,-112.08C62.72,-104.22 51.07,-92.57 41.58,-83.08"/>
<polygon fill="midnightblue" stroke="midnightblue" points="43.8,-80.35 34.25,-75.75 38.85,-85.3 43.8,-80.35"/>
</g>
<!-- Node4 -->
<g id="node4" class="node">
<title>Node4</title>
<g id="a_node4"><a xlink:title=" ">
<polygon fill="white" stroke="#bfbfbf" points="59,-0.5 59,-19.5 100,-19.5 100,-0.5 59,-0.5"/>
<text text-anchor="middle" x="79.5" y="-7.5" font-family="Helvetica,sans-Serif" font-size="10.00">string</text>
</a>
</g>
</g>
<!-- Node2&#45;&gt;Node4 -->
<g id="edge3" class="edge">
<title>Node2&#45;&gt;Node4</title>
<path fill="none" stroke="midnightblue" d="M79.5,-112.37C79.5,-94.62 79.5,-53.67 79.5,-29.6"/>
<polygon fill="midnightblue" stroke="midnightblue" points="83,-29.59 79.5,-19.59 76,-29.59 83,-29.59"/>
</g>
<!-- Node5 -->
<g id="node5" class="node">
<title>Node5</title>
<g id="a_node5"><a xlink:href="Exceptions_8h.html" target="_top" xlink:title="Interally used exceptions. These can be handled properly in the main game class.">
<polygon fill="white" stroke="black" points="108,-56.5 108,-75.5 179,-75.5 179,-56.5 108,-56.5"/>
<text text-anchor="middle" x="143.5" y="-63.5" font-family="Helvetica,sans-Serif" font-size="10.00">Exceptions.h</text>
</a>
</g>
</g>
<!-- Node2&#45;&gt;Node5 -->
<g id="edge4" class="edge">
<title>Node2&#45;&gt;Node5</title>
<path fill="none" stroke="midnightblue" d="M89.78,-112.32C99.34,-104.26 113.78,-92.08 125.28,-82.37"/>
<polygon fill="midnightblue" stroke="midnightblue" points="127.64,-84.96 133.03,-75.83 123.13,-79.61 127.64,-84.96"/>
</g>
<!-- Node5&#45;&gt;Node4 -->
<g id="edge6" class="edge">
<title>Node5&#45;&gt;Node4</title>
<path fill="none" stroke="midnightblue" d="M133.22,-56.32C123.66,-48.26 109.22,-36.08 97.72,-26.37"/>
<polygon fill="midnightblue" stroke="midnightblue" points="99.87,-23.61 89.97,-19.83 95.36,-28.96 99.87,-23.61"/>
</g>
<!-- Node6 -->
<g id="node6" class="node">
<title>Node6</title>
<g id="a_node6"><a xlink:title=" ">
<polygon fill="white" stroke="#bfbfbf" points="118,-0.5 118,-19.5 177,-19.5 177,-0.5 118,-0.5"/>
<text text-anchor="middle" x="147.5" y="-7.5" font-family="Helvetica,sans-Serif" font-size="10.00">stdexcept</text>
</a>
</g>
</g>
<!-- Node5&#45;&gt;Node6 -->
<g id="edge5" class="edge">
<title>Node5&#45;&gt;Node6</title>
<path fill="none" stroke="midnightblue" d="M144.16,-56.08C144.68,-49.01 145.44,-38.86 146.09,-29.99"/>
<polygon fill="midnightblue" stroke="midnightblue" points="149.6,-29.98 146.85,-19.75 142.62,-29.47 149.6,-29.98"/>
</g>
</g>
</svg>
