<?xml version="1.0" encoding="UTF-8" standalone="no"?>
<!DOCTYPE svg PUBLIC "-//W3C//DTD SVG 1.1//EN"
 "http://www.w3.org/Graphics/SVG/1.1/DTD/svg11.dtd">
<!-- Generated by graphviz version 2.46.1 (20210215.1649)
 -->
<!-- Title: src/assets/Stream.cpp Pages: 1 -->
<svg width="251pt" height="140pt"
 viewBox="0.00 0.00 251.00 140.00" xmlns="http://www.w3.org/2000/svg" xmlns:xlink="http://www.w3.org/1999/xlink">
<g id="graph0" class="graph" transform="scale(1 1) rotate(0) translate(4 136)">
<title>src/assets/Stream.cpp</title>
<polygon fill="white" stroke="transparent" points="-4,4 -4,-136 247,-136 247,4 -4,4"/>
<!-- Node1 -->
<g id="node1" class="node">
<title>Node1</title>
<g id="a_node1"><a xlink:title="Implementation of Stream.">
<polygon fill="#bfbfbf" stroke="black" points="70.5,-112.5 70.5,-131.5 185.5,-131.5 185.5,-112.5 70.5,-112.5"/>
<text text-anchor="middle" x="128" y="-119.5" font-family="Helvetica,sans-Serif" font-size="10.00">src/assets/Stream.cpp</text>
</a>
</g>
</g>
<!-- Node2 -->
<g id="node2" class="node">
<title>Node2</title>
<g id="a_node2"><a xlink:href="Stream_8h.html" target="_top" xlink:title="Wrapper for sdl stream including ability to store stream pointer. Use for single instance sounds like...">
<polygon fill="white" stroke="black" points="25,-56.5 25,-75.5 113,-75.5 113,-56.5 25,-56.5"/>
<text text-anchor="middle" x="69" y="-63.5" font-family="Helvetica,sans-Serif" font-size="10.00">assets/Stream.h</text>
</a>
</g>
</g>
<!-- Node1&#45;&gt;Node2 -->
<g id="edge1" class="edge">
<title>Node1&#45;&gt;Node2</title>
<path fill="none" stroke="midnightblue" d="M118.52,-112.32C109.8,-104.34 96.66,-92.31 86.1,-82.65"/>
<polygon fill="midnightblue" stroke="midnightblue" points="88.39,-80 78.65,-75.83 83.67,-85.17 88.39,-80"/>
</g>
<!-- Node5 -->
<g id="node5" class="node">
<title>Node5</title>
<g id="a_node5"><a xlink:href="Exceptions_8h.html" target="_top" xlink:title="Interally used exceptions. These can be handled properly in the main game class.">
<polygon fill="white" stroke="black" points="131,-56.5 131,-75.5 243,-75.5 243,-56.5 131,-56.5"/>
<text text-anchor="middle" x="187" y="-63.5" font-family="Helvetica,sans-Serif" font-size="10.00">common/Exceptions.h</text>
</a>
</g>
</g>
<!-- Node1&#45;&gt;Node5 -->
<g id="edge4" class="edge">
<title>Node1&#45;&gt;Node5</title>
<path fill="none" stroke="midnightblue" d="M137.48,-112.32C146.2,-104.34 159.34,-92.31 169.9,-82.65"/>
<polygon fill="midnightblue" stroke="midnightblue" points="172.33,-85.17 177.35,-75.83 167.61,-80 172.33,-85.17"/>
</g>
<!-- Node3 -->
<g id="node3" class="node">
<title>Node3</title>
<g id="a_node3"><a xlink:title=" ">
<polygon fill="white" stroke="#bfbfbf" points="0,-0.5 0,-19.5 100,-19.5 100,-0.5 0,-0.5"/>
<text text-anchor="middle" x="50" y="-7.5" font-family="Helvetica,sans-Serif" font-size="10.00">SDL2/SDL_mixer.h</text>
</a>
</g>
</g>
<!-- Node2&#45;&gt;Node3 -->
<g id="edge2" class="edge">
<title>Node2&#45;&gt;Node3</title>
<path fill="none" stroke="midnightblue" d="M65.86,-56.08C63.32,-48.85 59.64,-38.41 56.47,-29.4"/>
<polygon fill="midnightblue" stroke="midnightblue" points="59.7,-28.02 53.08,-19.75 53.1,-30.35 59.7,-28.02"/>
</g>
<!-- Node4 -->
<g id="node4" class="node">
<title>Node4</title>
<g id="a_node4"><a xlink:title=" ">
<polygon fill="white" stroke="#bfbfbf" points="118.5,-0.5 118.5,-19.5 159.5,-19.5 159.5,-0.5 118.5,-0.5"/>
<text text-anchor="middle" x="139" y="-7.5" font-family="Helvetica,sans-Serif" font-size="10.00">string</text>
</a>
</g>
</g>
<!-- Node2&#45;&gt;Node4 -->
<g id="edge3" class="edge">
<title>Node2&#45;&gt;Node4</title>
<path fill="none" stroke="midnightblue" d="M80.25,-56.32C90.8,-48.18 106.8,-35.84 119.44,-26.09"/>
<polygon fill="midnightblue" stroke="midnightblue" points="121.77,-28.71 127.55,-19.83 117.49,-23.17 121.77,-28.71"/>
</g>
<!-- Node5&#45;&gt;Node4 -->
<g id="edge6" class="edge">
<title>Node5&#45;&gt;Node4</title>
<path fill="none" stroke="midnightblue" d="M179.07,-56.08C172.15,-48.3 161.93,-36.8 153.55,-27.37"/>
<polygon fill="midnightblue" stroke="midnightblue" points="156.04,-24.9 146.78,-19.75 150.81,-29.55 156.04,-24.9"/>
</g>
<!-- Node6 -->
<g id="node6" class="node">
<title>Node6</title>
<g id="a_node6"><a xlink:title=" ">
<polygon fill="white" stroke="#bfbfbf" points="177.5,-0.5 177.5,-19.5 236.5,-19.5 236.5,-0.5 177.5,-0.5"/>
<text text-anchor="middle" x="207" y="-7.5" font-family="Helvetica,sans-Serif" font-size="10.00">stdexcept</text>
</a>
</g>
</g>
<!-- Node5&#45;&gt;Node6 -->
<g id="edge5" class="edge">
<title>Node5&#45;&gt;Node6</title>
<path fill="none" stroke="midnightblue" d="M190.3,-56.08C192.98,-48.85 196.85,-38.41 200.19,-29.4"/>
<polygon fill="midnightblue" stroke="midnightblue" points="203.57,-30.34 203.76,-19.75 197,-27.91 203.57,-30.34"/>
</g>
</g>
</svg>
