<?xml version="1.0" encoding="UTF-8" standalone="no"?>
<!DOCTYPE svg PUBLIC "-//W3C//DTD SVG 1.1//EN"
 "http://www.w3.org/Graphics/SVG/1.1/DTD/svg11.dtd">
<!-- Generated by graphviz version 2.46.1 (20210215.1649)
 -->
<!-- Title: src/assets/Texture.cpp Pages: 1 -->
<svg width="1727pt" height="308pt"
 viewBox="0.00 0.00 1727.00 308.00" xmlns="http://www.w3.org/2000/svg" xmlns:xlink="http://www.w3.org/1999/xlink">
<g id="graph0" class="graph" transform="scale(1 1) rotate(0) translate(4 304)">
<title>src/assets/Texture.cpp</title>
<polygon fill="white" stroke="transparent" points="-4,4 -4,-304 1723,-304 1723,4 -4,4"/>
<!-- Node1 -->
<g id="node1" class="node">
<title>Node1</title>
<g id="a_node1"><a xlink:title="Implementation of Texture.">
<polygon fill="#bfbfbf" stroke="black" points="758,-280.5 758,-299.5 874,-299.5 874,-280.5 758,-280.5"/>
<text text-anchor="middle" x="816" y="-287.5" font-family="Helvetica,sans-Serif" font-size="10.00">src/assets/Texture.cpp</text>
</a>
</g>
</g>
<!-- Node2 -->
<g id="node2" class="node">
<title>Node2</title>
<g id="a_node2"><a xlink:href="Texture_8h.html" target="_top" xlink:title="Easy interface to interact with sdl bitmaps.">
<polygon fill="white" stroke="black" points="867.5,-112.5 867.5,-131.5 956.5,-131.5 956.5,-112.5 867.5,-112.5"/>
<text text-anchor="middle" x="912" y="-119.5" font-family="Helvetica,sans-Serif" font-size="10.00">assets/Texture.h</text>
</a>
</g>
</g>
<!-- Node1&#45;&gt;Node2 -->
<g id="edge1" class="edge">
<title>Node1&#45;&gt;Node2</title>
<path fill="none" stroke="midnightblue" d="M796.7,-280.48C782.57,-273.08 764.44,-260.89 756,-244 740.89,-213.79 735.69,-194.99 756,-168 762.68,-159.12 820.34,-144.1 863.63,-133.88"/>
<polygon fill="midnightblue" stroke="midnightblue" points="864.51,-137.27 873.45,-131.58 862.92,-130.45 864.51,-137.27"/>
</g>
<!-- Node5 -->
<g id="node5" class="node">
<title>Node5</title>
<g id="a_node5"><a xlink:href="Color_8h.html" target="_top" xlink:title="Helpers for creating colors without accessing SDL api directly.">
<polygon fill="white" stroke="black" points="882,-56.5 882,-75.5 960,-75.5 960,-56.5 882,-56.5"/>
<text text-anchor="middle" x="921" y="-63.5" font-family="Helvetica,sans-Serif" font-size="10.00">../color/Color.h</text>
</a>
</g>
</g>
<!-- Node1&#45;&gt;Node5 -->
<g id="edge7" class="edge">
<title>Node1&#45;&gt;Node5</title>
<path fill="none" stroke="midnightblue" d="M874.33,-283.34C976.93,-272.05 1182.93,-242.96 1226,-188 1248.45,-159.35 1208.31,-125.04 1188,-112 1183.43,-109.07 1046.31,-86.92 970.4,-74.82"/>
<polygon fill="midnightblue" stroke="midnightblue" points="970.54,-71.3 960.12,-73.19 969.44,-78.22 970.54,-71.3"/>
</g>
<!-- Node7 -->
<g id="node7" class="node">
<title>Node7</title>
<g id="a_node7"><a xlink:title=" ">
<polygon fill="white" stroke="#bfbfbf" points="1273.5,-224.5 1273.5,-243.5 1376.5,-243.5 1376.5,-224.5 1273.5,-224.5"/>
<text text-anchor="middle" x="1325" y="-231.5" font-family="Helvetica,sans-Serif" font-size="10.00">SDL2/SDL_image.h</text>
</a>
</g>
</g>
<!-- Node1&#45;&gt;Node7 -->
<g id="edge6" class="edge">
<title>Node1&#45;&gt;Node7</title>
<path fill="none" stroke="midnightblue" d="M874.12,-283.74C958.85,-275.92 1121.21,-260.39 1259,-244 1260.47,-243.83 1261.96,-243.64 1263.46,-243.46"/>
<polygon fill="midnightblue" stroke="midnightblue" points="1264.02,-246.92 1273.5,-242.2 1263.14,-239.97 1264.02,-246.92"/>
</g>
<!-- Node8 -->
<g id="node8" class="node">
<title>Node8</title>
<g id="a_node8"><a xlink:href="Exceptions_8h.html" target="_top" xlink:title="Interally used exceptions. These can be handled properly in the main game class.">
<polygon fill="white" stroke="black" points="0,-224.5 0,-243.5 112,-243.5 112,-224.5 0,-224.5"/>
<text text-anchor="middle" x="56" y="-231.5" font-family="Helvetica,sans-Serif" font-size="10.00">common/Exceptions.h</text>
</a>
</g>
</g>
<!-- Node1&#45;&gt;Node8 -->
<g id="edge8" class="edge">
<title>Node1&#45;&gt;Node8</title>
<path fill="none" stroke="midnightblue" d="M757.94,-284.87C619.18,-275.02 268.96,-250.13 122.25,-239.71"/>
<polygon fill="midnightblue" stroke="midnightblue" points="122.27,-236.2 112.05,-238.98 121.78,-243.18 122.27,-236.2"/>
</g>
<!-- Node10 -->
<g id="node10" class="node">
<title>Node10</title>
<g id="a_node10"><a xlink:href="Services_8h.html" target="_top" xlink:title="Implementation of core Services class.">
<polygon fill="white" stroke="black" points="765,-224.5 765,-243.5 867,-243.5 867,-224.5 765,-224.5"/>
<text text-anchor="middle" x="816" y="-231.5" font-family="Helvetica,sans-Serif" font-size="10.00">services/Services.h</text>
</a>
</g>
</g>
<!-- Node1&#45;&gt;Node10 -->
<g id="edge11" class="edge">
<title>Node1&#45;&gt;Node10</title>
<path fill="none" stroke="midnightblue" d="M816,-280.08C816,-273.01 816,-262.86 816,-253.99"/>
<polygon fill="midnightblue" stroke="midnightblue" points="819.5,-253.75 816,-243.75 812.5,-253.75 819.5,-253.75"/>
</g>
<!-- Node3 -->
<g id="node3" class="node">
<title>Node3</title>
<g id="a_node3"><a xlink:title=" ">
<polygon fill="white" stroke="#bfbfbf" points="987.5,-56.5 987.5,-75.5 1058.5,-75.5 1058.5,-56.5 987.5,-56.5"/>
<text text-anchor="middle" x="1023" y="-63.5" font-family="Helvetica,sans-Serif" font-size="10.00">SDL2/SDL.h</text>
</a>
</g>
</g>
<!-- Node2&#45;&gt;Node3 -->
<g id="edge2" class="edge">
<title>Node2&#45;&gt;Node3</title>
<path fill="none" stroke="midnightblue" d="M929.83,-112.32C947.72,-103.62 975.48,-90.12 996.05,-80.11"/>
<polygon fill="midnightblue" stroke="midnightblue" points="997.75,-83.18 1005.21,-75.65 994.69,-76.88 997.75,-83.18"/>
</g>
<!-- Node4 -->
<g id="node4" class="node">
<title>Node4</title>
<g id="a_node4"><a xlink:title=" ">
<polygon fill="white" stroke="#bfbfbf" points="593.5,-56.5 593.5,-75.5 634.5,-75.5 634.5,-56.5 593.5,-56.5"/>
<text text-anchor="middle" x="614" y="-63.5" font-family="Helvetica,sans-Serif" font-size="10.00">string</text>
</a>
</g>
</g>
<!-- Node2&#45;&gt;Node4 -->
<g id="edge3" class="edge">
<title>Node2&#45;&gt;Node4</title>
<path fill="none" stroke="midnightblue" d="M867.39,-112.92C806.17,-101.82 697.71,-82.17 644.78,-72.58"/>
<polygon fill="midnightblue" stroke="midnightblue" points="645.13,-69.08 634.67,-70.74 643.88,-75.97 645.13,-69.08"/>
</g>
<!-- Node2&#45;&gt;Node5 -->
<g id="edge4" class="edge">
<title>Node2&#45;&gt;Node5</title>
<path fill="none" stroke="midnightblue" d="M913.49,-112.08C914.68,-104.93 916.39,-94.64 917.88,-85.69"/>
<polygon fill="midnightblue" stroke="midnightblue" points="921.35,-86.19 919.54,-75.75 914.45,-85.04 921.35,-86.19"/>
</g>
<!-- Node6 -->
<g id="node6" class="node">
<title>Node6</title>
<g id="a_node6"><a xlink:title=" ">
<polygon fill="white" stroke="#bfbfbf" points="852,-0.5 852,-19.5 990,-19.5 990,-0.5 852,-0.5"/>
<text text-anchor="middle" x="921" y="-7.5" font-family="Helvetica,sans-Serif" font-size="10.00">SDL2/SDL2_gfxPrimitives.h</text>
</a>
</g>
</g>
<!-- Node5&#45;&gt;Node6 -->
<g id="edge5" class="edge">
<title>Node5&#45;&gt;Node6</title>
<path fill="none" stroke="midnightblue" d="M921,-56.08C921,-49.01 921,-38.86 921,-29.99"/>
<polygon fill="midnightblue" stroke="midnightblue" points="924.5,-29.75 921,-19.75 917.5,-29.75 924.5,-29.75"/>
</g>
<!-- Node8&#45;&gt;Node4 -->
<g id="edge10" class="edge">
<title>Node8&#45;&gt;Node4</title>
<path fill="none" stroke="midnightblue" d="M45.01,-224.37C35.55,-216.17 22.56,-202.92 17,-188 4.25,-153.82 17.23,-131.6 48,-112 145.89,-49.66 453.97,-91.41 569,-76 573.66,-75.38 578.56,-74.56 583.34,-73.68"/>
<polygon fill="midnightblue" stroke="midnightblue" points="584.35,-77.05 593.48,-71.68 583,-70.18 584.35,-77.05"/>
</g>
<!-- Node9 -->
<g id="node9" class="node">
<title>Node9</title>
<g id="a_node9"><a xlink:title=" ">
<polygon fill="white" stroke="#bfbfbf" points="26.5,-168.5 26.5,-187.5 85.5,-187.5 85.5,-168.5 26.5,-168.5"/>
<text text-anchor="middle" x="56" y="-175.5" font-family="Helvetica,sans-Serif" font-size="10.00">stdexcept</text>
</a>
</g>
</g>
<!-- Node8&#45;&gt;Node9 -->
<g id="edge9" class="edge">
<title>Node8&#45;&gt;Node9</title>
<path fill="none" stroke="midnightblue" d="M56,-224.08C56,-217.01 56,-206.86 56,-197.99"/>
<polygon fill="midnightblue" stroke="midnightblue" points="59.5,-197.75 56,-187.75 52.5,-197.75 59.5,-197.75"/>
</g>
<!-- Node11 -->
<g id="node11" class="node">
<title>Node11</title>
<g id="a_node11"><a xlink:title=" ">
<polygon fill="white" stroke="#bfbfbf" points="765.5,-168.5 765.5,-187.5 816.5,-187.5 816.5,-168.5 765.5,-168.5"/>
<text text-anchor="middle" x="791" y="-175.5" font-family="Helvetica,sans-Serif" font-size="10.00">memory</text>
</a>
</g>
</g>
<!-- Node10&#45;&gt;Node11 -->
<g id="edge12" class="edge">
<title>Node10&#45;&gt;Node11</title>
<path fill="none" stroke="midnightblue" d="M811.87,-224.08C808.49,-216.77 803.58,-206.18 799.38,-197.1"/>
<polygon fill="midnightblue" stroke="midnightblue" points="802.43,-195.36 795.05,-187.75 796.08,-198.3 802.43,-195.36"/>
</g>
<!-- Node12 -->
<g id="node12" class="node">
<title>Node12</title>
<g id="a_node12"><a xlink:href="AssetService_8h.html" target="_top" xlink:title="Implementation of AssetService.">
<polygon fill="white" stroke="black" points="593.5,-168.5 593.5,-187.5 708.5,-187.5 708.5,-168.5 593.5,-168.5"/>
<text text-anchor="middle" x="651" y="-175.5" font-family="Helvetica,sans-Serif" font-size="10.00">assets/AssetService.h</text>
</a>
</g>
</g>
<!-- Node10&#45;&gt;Node12 -->
<g id="edge13" class="edge">
<title>Node10&#45;&gt;Node12</title>
<path fill="none" stroke="midnightblue" d="M789.86,-224.44C761.98,-215.32 717.65,-200.81 686.6,-190.65"/>
<polygon fill="midnightblue" stroke="midnightblue" points="687.62,-187.3 677.02,-187.52 685.44,-193.95 687.62,-187.3"/>
</g>
<!-- Node19 -->
<g id="node19" class="node">
<title>Node19</title>
<g id="a_node19"><a xlink:href="AudioService_8h.html" target="_top" xlink:title="Default audio service, can actually play audio.">
<polygon fill="white" stroke="black" points="437,-168.5 437,-187.5 545,-187.5 545,-168.5 437,-168.5"/>
<text text-anchor="middle" x="491" y="-175.5" font-family="Helvetica,sans-Serif" font-size="10.00">audio/AudioService.h</text>
</a>
</g>
</g>
<!-- Node10&#45;&gt;Node19 -->
<g id="edge27" class="edge">
<title>Node10&#45;&gt;Node19</title>
<path fill="none" stroke="midnightblue" d="M764.86,-224.5C707.29,-214.94 613.78,-199.4 552.33,-189.19"/>
<polygon fill="midnightblue" stroke="midnightblue" points="552.82,-185.72 542.38,-187.54 551.67,-192.63 552.82,-185.72"/>
</g>
<!-- Node20 -->
<g id="node20" class="node">
<title>Node20</title>
<g id="a_node20"><a xlink:href="ConfigService_8h.html" target="_top" xlink:title="Header for default Config Service.">
<polygon fill="white" stroke="black" points="274.5,-168.5 274.5,-187.5 387.5,-187.5 387.5,-168.5 274.5,-168.5"/>
<text text-anchor="middle" x="331" y="-175.5" font-family="Helvetica,sans-Serif" font-size="10.00">config/ConfigService.h</text>
</a>
</g>
</g>
<!-- Node10&#45;&gt;Node20 -->
<g id="edge31" class="edge">
<title>Node10&#45;&gt;Node20</title>
<path fill="none" stroke="midnightblue" d="M764.56,-227.27C676.26,-217.44 495.93,-197.36 397.96,-186.46"/>
<polygon fill="midnightblue" stroke="midnightblue" points="398.2,-182.96 387.88,-185.33 397.43,-189.92 398.2,-182.96"/>
</g>
<!-- Node22 -->
<g id="node22" class="node">
<title>Node22</title>
<g id="a_node22"><a xlink:href="DisplayService_8h.html" target="_top" xlink:title="Service that encapsulates SDL display related functionality.">
<polygon fill="white" stroke="black" points="835,-168.5 835,-187.5 957,-187.5 957,-168.5 835,-168.5"/>
<text text-anchor="middle" x="896" y="-175.5" font-family="Helvetica,sans-Serif" font-size="10.00">display/DisplayService.h</text>
</a>
</g>
</g>
<!-- Node10&#45;&gt;Node22 -->
<g id="edge35" class="edge">
<title>Node10&#45;&gt;Node22</title>
<path fill="none" stroke="midnightblue" d="M828.85,-224.32C841.22,-215.98 860.13,-203.21 874.74,-193.35"/>
<polygon fill="midnightblue" stroke="midnightblue" points="876.85,-196.15 883.18,-187.65 872.93,-190.35 876.85,-196.15"/>
</g>
<!-- Node25 -->
<g id="node25" class="node">
<title>Node25</title>
<g id="a_node25"><a xlink:href="EventQueue_8h.html" target="_top" xlink:title="Handles SDL_Events from main SDL_Queue. Can be hooked into by other services and notified when change...">
<polygon fill="white" stroke="black" points="1107,-168.5 1107,-187.5 1217,-187.5 1217,-168.5 1107,-168.5"/>
<text text-anchor="middle" x="1162" y="-175.5" font-family="Helvetica,sans-Serif" font-size="10.00">events/EventQueue.h</text>
</a>
</g>
</g>
<!-- Node10&#45;&gt;Node25 -->
<g id="edge42" class="edge">
<title>Node10&#45;&gt;Node25</title>
<path fill="none" stroke="midnightblue" d="M867.05,-225.03C928.2,-215.49 1030.71,-199.49 1097.34,-189.09"/>
<polygon fill="midnightblue" stroke="midnightblue" points="1097.97,-192.54 1107.31,-187.54 1096.89,-185.62 1097.97,-192.54"/>
</g>
<!-- Node27 -->
<g id="node27" class="node">
<title>Node27</title>
<g id="a_node27"><a xlink:href="InputService_8h.html" target="_top" xlink:title="General Purpose input listener. Handles Mouse, Keyboard, Joystick.">
<polygon fill="white" stroke="black" points="1329.5,-168.5 1329.5,-187.5 1432.5,-187.5 1432.5,-168.5 1329.5,-168.5"/>
<text text-anchor="middle" x="1381" y="-175.5" font-family="Helvetica,sans-Serif" font-size="10.00">input/InputService.h</text>
</a>
</g>
</g>
<!-- Node10&#45;&gt;Node27 -->
<g id="edge46" class="edge">
<title>Node10&#45;&gt;Node27</title>
<path fill="none" stroke="midnightblue" d="M867.14,-228.11C971.05,-218.18 1206.56,-195.67 1319,-184.93"/>
<polygon fill="midnightblue" stroke="midnightblue" points="1319.54,-188.39 1329.16,-183.95 1318.88,-181.42 1319.54,-188.39"/>
</g>
<!-- Node35 -->
<g id="node35" class="node">
<title>Node35</title>
<g id="a_node35"><a xlink:href="DebugLoggingService_8h.html" target="_top" xlink:title="Logging service that does the logging. Used for development.">
<polygon fill="white" stroke="black" points="103.5,-168.5 103.5,-187.5 256.5,-187.5 256.5,-168.5 103.5,-168.5"/>
<text text-anchor="middle" x="180" y="-175.5" font-family="Helvetica,sans-Serif" font-size="10.00">logging/DebugLoggingService.h</text>
</a>
</g>
</g>
<!-- Node10&#45;&gt;Node35 -->
<g id="edge59" class="edge">
<title>Node10&#45;&gt;Node35</title>
<path fill="none" stroke="midnightblue" d="M764.69,-229.22C668.96,-222.09 456.36,-205.81 267.04,-188.17"/>
<polygon fill="midnightblue" stroke="midnightblue" points="267.19,-184.67 256.9,-187.23 266.53,-191.64 267.19,-184.67"/>
</g>
<!-- Node37 -->
<g id="node37" class="node">
<title>Node37</title>
<g id="a_node37"><a xlink:href="SceneService_8h.html" target="_top" xlink:title="Service in charge of managing scenes.">
<polygon fill="white" stroke="black" points="975,-168.5 975,-187.5 1089,-187.5 1089,-168.5 975,-168.5"/>
<text text-anchor="middle" x="1032" y="-175.5" font-family="Helvetica,sans-Serif" font-size="10.00">scene/SceneService.h</text>
</a>
</g>
</g>
<!-- Node10&#45;&gt;Node37 -->
<g id="edge63" class="edge">
<title>Node10&#45;&gt;Node37</title>
<path fill="none" stroke="midnightblue" d="M850.23,-224.44C887.51,-215.12 947.27,-200.18 988.01,-190"/>
<polygon fill="midnightblue" stroke="midnightblue" points="989.08,-193.34 997.93,-187.52 987.38,-186.55 989.08,-193.34"/>
</g>
<!-- Node12&#45;&gt;Node2 -->
<g id="edge26" class="edge">
<title>Node12&#45;&gt;Node2</title>
<path fill="none" stroke="midnightblue" d="M692.36,-168.44C738.08,-158.98 811.76,-143.74 861.02,-133.55"/>
<polygon fill="midnightblue" stroke="midnightblue" points="861.75,-136.97 870.84,-131.52 860.34,-130.12 861.75,-136.97"/>
</g>
<!-- Node12&#45;&gt;Node4 -->
<g id="edge15" class="edge">
<title>Node12&#45;&gt;Node4</title>
<path fill="none" stroke="midnightblue" d="M649.23,-168.45C646.53,-155.9 640.94,-131.81 634,-112 630.82,-102.92 626.57,-93.13 622.81,-85.01"/>
<polygon fill="midnightblue" stroke="midnightblue" points="625.88,-83.32 618.42,-75.79 619.56,-86.33 625.88,-83.32"/>
</g>
<!-- Node13 -->
<g id="node13" class="node">
<title>Node13</title>
<g id="a_node13"><a xlink:title=" ">
<polygon fill="white" stroke="#bfbfbf" points="313.5,-112.5 313.5,-131.5 348.5,-131.5 348.5,-112.5 313.5,-112.5"/>
<text text-anchor="middle" x="331" y="-119.5" font-family="Helvetica,sans-Serif" font-size="10.00">map</text>
</a>
</g>
</g>
<!-- Node12&#45;&gt;Node13 -->
<g id="edge14" class="edge">
<title>Node12&#45;&gt;Node13</title>
<path fill="none" stroke="midnightblue" d="M600.3,-168.44C532.04,-156.93 412.94,-136.83 358.99,-127.72"/>
<polygon fill="midnightblue" stroke="midnightblue" points="359.25,-124.22 348.8,-126 358.08,-131.12 359.25,-124.22"/>
</g>
<!-- Node14 -->
<g id="node14" class="node">
<title>Node14</title>
<g id="a_node14"><a xlink:href="Font_8h.html" target="_top" xlink:title="Easy interface to interact with SDL fonts.">
<polygon fill="white" stroke="black" points="758.5,-112.5 758.5,-131.5 849.5,-131.5 849.5,-112.5 758.5,-112.5"/>
<text text-anchor="middle" x="804" y="-119.5" font-family="Helvetica,sans-Serif" font-size="10.00">../../assets/Font.h</text>
</a>
</g>
</g>
<!-- Node12&#45;&gt;Node14 -->
<g id="edge16" class="edge">
<title>Node12&#45;&gt;Node14</title>
<path fill="none" stroke="midnightblue" d="M675.24,-168.44C700.87,-159.4 741.49,-145.06 770.24,-134.92"/>
<polygon fill="midnightblue" stroke="midnightblue" points="771.61,-138.15 779.87,-131.52 769.28,-131.54 771.61,-138.15"/>
</g>
<!-- Node16 -->
<g id="node16" class="node">
<title>Node16</title>
<g id="a_node16"><a xlink:href="Sound_8h.html" target="_top" xlink:title="Implementation of Sound.">
<polygon fill="white" stroke="black" points="405.5,-112.5 405.5,-131.5 504.5,-131.5 504.5,-112.5 405.5,-112.5"/>
<text text-anchor="middle" x="455" y="-119.5" font-family="Helvetica,sans-Serif" font-size="10.00">../../assets/Sound.h</text>
</a>
</g>
</g>
<!-- Node12&#45;&gt;Node16 -->
<g id="edge20" class="edge">
<title>Node12&#45;&gt;Node16</title>
<path fill="none" stroke="midnightblue" d="M619.94,-168.44C586.4,-159.2 532.8,-144.44 495.86,-134.26"/>
<polygon fill="midnightblue" stroke="midnightblue" points="496.48,-130.8 485.91,-131.52 494.62,-137.55 496.48,-130.8"/>
</g>
<!-- Node18 -->
<g id="node18" class="node">
<title>Node18</title>
<g id="a_node18"><a xlink:href="Stream_8h.html" target="_top" xlink:title="Wrapper for sdl stream including ability to store stream pointer. Use for single instance sounds like...">
<polygon fill="white" stroke="black" points="522.5,-112.5 522.5,-131.5 625.5,-131.5 625.5,-112.5 522.5,-112.5"/>
<text text-anchor="middle" x="574" y="-119.5" font-family="Helvetica,sans-Serif" font-size="10.00">../../assets/Stream.h</text>
</a>
</g>
</g>
<!-- Node12&#45;&gt;Node18 -->
<g id="edge23" class="edge">
<title>Node12&#45;&gt;Node18</title>
<path fill="none" stroke="midnightblue" d="M638.63,-168.32C626.84,-160.06 608.87,-147.45 594.86,-137.63"/>
<polygon fill="midnightblue" stroke="midnightblue" points="596.54,-134.53 586.34,-131.65 592.52,-140.26 596.54,-134.53"/>
</g>
<!-- Node14&#45;&gt;Node4 -->
<g id="edge18" class="edge">
<title>Node14&#45;&gt;Node4</title>
<path fill="none" stroke="midnightblue" d="M773.89,-112.44C738.47,-102.37 679.97,-85.75 644.41,-75.64"/>
<polygon fill="midnightblue" stroke="midnightblue" points="645.17,-72.22 634.6,-72.85 643.26,-78.95 645.17,-72.22"/>
</g>
<!-- Node14&#45;&gt;Node5 -->
<g id="edge19" class="edge">
<title>Node14&#45;&gt;Node5</title>
<path fill="none" stroke="midnightblue" d="M822.54,-112.44C841.62,-103.64 871.57,-89.81 893.44,-79.72"/>
<polygon fill="midnightblue" stroke="midnightblue" points="894.93,-82.88 902.55,-75.52 892,-76.53 894.93,-82.88"/>
</g>
<!-- Node15 -->
<g id="node15" class="node">
<title>Node15</title>
<g id="a_node15"><a xlink:title=" ">
<polygon fill="white" stroke="#bfbfbf" points="761,-56.5 761,-75.5 847,-75.5 847,-56.5 761,-56.5"/>
<text text-anchor="middle" x="804" y="-63.5" font-family="Helvetica,sans-Serif" font-size="10.00">SDL2/SDL_ttf.h</text>
</a>
</g>
</g>
<!-- Node14&#45;&gt;Node15 -->
<g id="edge17" class="edge">
<title>Node14&#45;&gt;Node15</title>
<path fill="none" stroke="midnightblue" d="M804,-112.08C804,-105.01 804,-94.86 804,-85.99"/>
<polygon fill="midnightblue" stroke="midnightblue" points="807.5,-85.75 804,-75.75 800.5,-85.75 807.5,-85.75"/>
</g>
<!-- Node16&#45;&gt;Node4 -->
<g id="edge22" class="edge">
<title>Node16&#45;&gt;Node4</title>
<path fill="none" stroke="midnightblue" d="M480.19,-112.44C508.36,-102.88 553.94,-87.4 583.94,-77.21"/>
<polygon fill="midnightblue" stroke="midnightblue" points="585.13,-80.5 593.47,-73.97 582.88,-73.87 585.13,-80.5"/>
</g>
<!-- Node17 -->
<g id="node17" class="node">
<title>Node17</title>
<g id="a_node17"><a xlink:title=" ">
<polygon fill="white" stroke="#bfbfbf" points="460,-56.5 460,-75.5 560,-75.5 560,-56.5 460,-56.5"/>
<text text-anchor="middle" x="510" y="-63.5" font-family="Helvetica,sans-Serif" font-size="10.00">SDL2/SDL_mixer.h</text>
</a>
</g>
</g>
<!-- Node16&#45;&gt;Node17 -->
<g id="edge21" class="edge">
<title>Node16&#45;&gt;Node17</title>
<path fill="none" stroke="midnightblue" d="M464.08,-112.08C472.17,-104.14 484.2,-92.34 493.91,-82.8"/>
<polygon fill="midnightblue" stroke="midnightblue" points="496.4,-85.25 501.09,-75.75 491.5,-80.26 496.4,-85.25"/>
</g>
<!-- Node18&#45;&gt;Node4 -->
<g id="edge25" class="edge">
<title>Node18&#45;&gt;Node4</title>
<path fill="none" stroke="midnightblue" d="M580.61,-112.08C586.26,-104.46 594.54,-93.26 601.45,-83.94"/>
<polygon fill="midnightblue" stroke="midnightblue" points="604.38,-85.87 607.52,-75.75 598.75,-81.7 604.38,-85.87"/>
</g>
<!-- Node18&#45;&gt;Node17 -->
<g id="edge24" class="edge">
<title>Node18&#45;&gt;Node17</title>
<path fill="none" stroke="midnightblue" d="M563.72,-112.32C554.16,-104.26 539.72,-92.08 528.22,-82.37"/>
<polygon fill="midnightblue" stroke="midnightblue" points="530.37,-79.61 520.47,-75.83 525.86,-84.96 530.37,-79.61"/>
</g>
<!-- Node19&#45;&gt;Node4 -->
<g id="edge28" class="edge">
<title>Node19&#45;&gt;Node4</title>
<path fill="none" stroke="midnightblue" d="M457.52,-168.47C422.33,-157.89 374.8,-138.03 396,-112 396.74,-111.09 523.2,-85.38 583.15,-73.24"/>
<polygon fill="midnightblue" stroke="midnightblue" points="584.08,-76.62 593.18,-71.21 582.69,-69.76 584.08,-76.62"/>
</g>
<!-- Node19&#45;&gt;Node16 -->
<g id="edge29" class="edge">
<title>Node19&#45;&gt;Node16</title>
<path fill="none" stroke="midnightblue" d="M485.06,-168.08C480.02,-160.53 472.66,-149.49 466.49,-140.23"/>
<polygon fill="midnightblue" stroke="midnightblue" points="469.29,-138.13 460.83,-131.75 463.47,-142.01 469.29,-138.13"/>
</g>
<!-- Node19&#45;&gt;Node18 -->
<g id="edge30" class="edge">
<title>Node19&#45;&gt;Node18</title>
<path fill="none" stroke="midnightblue" d="M504.34,-168.32C517.16,-159.98 536.78,-147.21 551.94,-137.35"/>
<polygon fill="midnightblue" stroke="midnightblue" points="554.22,-140.04 560.7,-131.65 550.41,-134.17 554.22,-140.04"/>
</g>
<!-- Node20&#45;&gt;Node4 -->
<g id="edge34" class="edge">
<title>Node20&#45;&gt;Node4</title>
<path fill="none" stroke="midnightblue" d="M297.07,-168.41C260.71,-157.65 211.11,-137.49 234,-112 284.03,-56.3 494.99,-87.35 569,-76 573.64,-75.29 578.54,-74.43 583.32,-73.52"/>
<polygon fill="midnightblue" stroke="midnightblue" points="584.33,-76.89 593.46,-71.51 582.97,-70.02 584.33,-76.89"/>
</g>
<!-- Node20&#45;&gt;Node13 -->
<g id="edge32" class="edge">
<title>Node20&#45;&gt;Node13</title>
<path fill="none" stroke="midnightblue" d="M331,-168.08C331,-161.01 331,-150.86 331,-141.99"/>
<polygon fill="midnightblue" stroke="midnightblue" points="334.5,-141.75 331,-131.75 327.5,-141.75 334.5,-141.75"/>
</g>
<!-- Node21 -->
<g id="node21" class="node">
<title>Node21</title>
<g id="a_node21"><a xlink:title=" ">
<polygon fill="white" stroke="#bfbfbf" points="243,-112.5 243,-131.5 295,-131.5 295,-112.5 243,-112.5"/>
<text text-anchor="middle" x="269" y="-119.5" font-family="Helvetica,sans-Serif" font-size="10.00">sstream</text>
</a>
</g>
</g>
<!-- Node20&#45;&gt;Node21 -->
<g id="edge33" class="edge">
<title>Node20&#45;&gt;Node21</title>
<path fill="none" stroke="midnightblue" d="M321.04,-168.32C311.87,-160.34 298.06,-148.31 286.97,-138.65"/>
<polygon fill="midnightblue" stroke="midnightblue" points="288.98,-135.76 279.14,-131.83 284.38,-141.04 288.98,-135.76"/>
</g>
<!-- Node22&#45;&gt;Node3 -->
<g id="edge36" class="edge">
<title>Node22&#45;&gt;Node3</title>
<path fill="none" stroke="midnightblue" d="M919.27,-168.49C937.57,-160.96 962.91,-148.59 981,-132 995.66,-118.56 1007.41,-98.92 1014.72,-84.75"/>
<polygon fill="midnightblue" stroke="midnightblue" points="1017.96,-86.09 1019.23,-75.57 1011.68,-83 1017.96,-86.09"/>
</g>
<!-- Node22&#45;&gt;Node4 -->
<g id="edge37" class="edge">
<title>Node22&#45;&gt;Node4</title>
<path fill="none" stroke="midnightblue" d="M843.35,-168.48C806.66,-161.44 757.13,-149.69 716,-132 685.05,-118.69 652.84,-96.54 633.09,-81.85"/>
<polygon fill="midnightblue" stroke="midnightblue" points="635.04,-78.93 624.95,-75.68 630.81,-84.51 635.04,-78.93"/>
</g>
<!-- Node22&#45;&gt;Node5 -->
<g id="edge38" class="edge">
<title>Node22&#45;&gt;Node5</title>
<path fill="none" stroke="midnightblue" d="M920.47,-168.44C936.57,-161.38 956.38,-149.63 966,-132 975.91,-113.84 958.55,-94.53 942.6,-81.72"/>
<polygon fill="midnightblue" stroke="midnightblue" points="944.63,-78.87 934.54,-75.66 940.42,-84.47 944.63,-78.87"/>
</g>
<!-- Node23 -->
<g id="node23" class="node">
<title>Node23</title>
<g id="a_node23"><a xlink:href="Service_8h.html" target="_top" xlink:title="Service subscriber that can listen for events.">
<polygon fill="white" stroke="black" points="1113.5,-112.5 1113.5,-131.5 1178.5,-131.5 1178.5,-112.5 1113.5,-112.5"/>
<text text-anchor="middle" x="1146" y="-119.5" font-family="Helvetica,sans-Serif" font-size="10.00">../Service.h</text>
</a>
</g>
</g>
<!-- Node22&#45;&gt;Node23 -->
<g id="edge39" class="edge">
<title>Node22&#45;&gt;Node23</title>
<path fill="none" stroke="midnightblue" d="M935.61,-168.44C981.41,-158.55 1056.48,-142.34 1103.48,-132.19"/>
<polygon fill="midnightblue" stroke="midnightblue" points="1104.31,-135.59 1113.34,-130.05 1102.83,-128.74 1104.31,-135.59"/>
</g>
<!-- Node23&#45;&gt;Node4 -->
<g id="edge41" class="edge">
<title>Node23&#45;&gt;Node4</title>
<path fill="none" stroke="midnightblue" d="M1113.05,-113.55C1110,-112.98 1106.95,-112.45 1104,-112 1014.54,-98.36 737.55,-76.48 644.7,-69.34"/>
<polygon fill="midnightblue" stroke="midnightblue" points="644.8,-65.83 634.56,-68.56 644.26,-72.81 644.8,-65.83"/>
</g>
<!-- Node24 -->
<g id="node24" class="node">
<title>Node24</title>
<g id="a_node24"><a xlink:title=" ">
<polygon fill="white" stroke="#bfbfbf" points="1385,-56.5 1385,-75.5 1491,-75.5 1491,-56.5 1385,-56.5"/>
<text text-anchor="middle" x="1438" y="-63.5" font-family="Helvetica,sans-Serif" font-size="10.00">SDL2/SDL_events.h</text>
</a>
</g>
</g>
<!-- Node23&#45;&gt;Node24 -->
<g id="edge40" class="edge">
<title>Node23&#45;&gt;Node24</title>
<path fill="none" stroke="midnightblue" d="M1178.65,-114.96C1227.81,-105.87 1321.52,-88.54 1381.81,-77.39"/>
<polygon fill="midnightblue" stroke="midnightblue" points="1382.73,-80.78 1391.93,-75.52 1381.46,-73.9 1382.73,-80.78"/>
</g>
<!-- Node25&#45;&gt;Node3 -->
<g id="edge43" class="edge">
<title>Node25&#45;&gt;Node3</title>
<path fill="none" stroke="midnightblue" d="M1170.63,-168.25C1182.62,-155.02 1201.43,-129.58 1188,-112 1173.57,-93.1 1112.61,-80.24 1068.99,-73.25"/>
<polygon fill="midnightblue" stroke="midnightblue" points="1069.29,-69.76 1058.87,-71.69 1068.22,-76.68 1069.29,-69.76"/>
</g>
<!-- Node25&#45;&gt;Node23 -->
<g id="edge45" class="edge">
<title>Node25&#45;&gt;Node23</title>
<path fill="none" stroke="midnightblue" d="M1159.36,-168.08C1157.21,-160.85 1154.12,-150.41 1151.45,-141.4"/>
<polygon fill="midnightblue" stroke="midnightblue" points="1154.79,-140.34 1148.59,-131.75 1148.08,-142.33 1154.79,-140.34"/>
</g>
<!-- Node26 -->
<g id="node26" class="node">
<title>Node26</title>
<g id="a_node26"><a xlink:title=" ">
<polygon fill="white" stroke="#bfbfbf" points="1051,-112.5 1051,-131.5 1095,-131.5 1095,-112.5 1051,-112.5"/>
<text text-anchor="middle" x="1073" y="-119.5" font-family="Helvetica,sans-Serif" font-size="10.00">vector</text>
</a>
</g>
</g>
<!-- Node25&#45;&gt;Node26 -->
<g id="edge44" class="edge">
<title>Node25&#45;&gt;Node26</title>
<path fill="none" stroke="midnightblue" d="M1147.7,-168.32C1133.82,-159.9 1112.51,-146.97 1096.2,-137.07"/>
<polygon fill="midnightblue" stroke="midnightblue" points="1097.63,-133.85 1087.26,-131.65 1094,-139.83 1097.63,-133.85"/>
</g>
<!-- Node27&#45;&gt;Node4 -->
<g id="edge49" class="edge">
<title>Node27&#45;&gt;Node4</title>
<path fill="none" stroke="midnightblue" d="M1361.17,-168.49C1326.68,-154.12 1253.12,-125.31 1188,-112 1134.69,-101.11 756.78,-76.19 645.04,-68.98"/>
<polygon fill="midnightblue" stroke="midnightblue" points="644.99,-65.47 634.79,-68.32 644.54,-72.46 644.99,-65.47"/>
</g>
<!-- Node27&#45;&gt;Node23 -->
<g id="edge50" class="edge">
<title>Node27&#45;&gt;Node23</title>
<path fill="none" stroke="midnightblue" d="M1343.76,-168.44C1301.5,-158.73 1232.7,-142.92 1188.4,-132.74"/>
<polygon fill="midnightblue" stroke="midnightblue" points="1189.05,-129.3 1178.52,-130.47 1187.48,-136.12 1189.05,-129.3"/>
</g>
<!-- Node27&#45;&gt;Node24 -->
<g id="edge47" class="edge">
<title>Node27&#45;&gt;Node24</title>
<path fill="none" stroke="midnightblue" d="M1422.05,-168.38C1441.96,-161.92 1464.09,-150.81 1476,-132 1486.62,-115.22 1471.26,-95.48 1457.01,-82.19"/>
<polygon fill="midnightblue" stroke="midnightblue" points="1459.22,-79.47 1449.39,-75.53 1454.62,-84.74 1459.22,-79.47"/>
</g>
<!-- Node28 -->
<g id="node28" class="node">
<title>Node28</title>
<g id="a_node28"><a xlink:title=" ">
<polygon fill="white" stroke="#bfbfbf" points="1311,-112.5 1311,-131.5 1365,-131.5 1365,-112.5 1311,-112.5"/>
<text text-anchor="middle" x="1338" y="-119.5" font-family="Helvetica,sans-Serif" font-size="10.00">iostream</text>
</a>
</g>
</g>
<!-- Node27&#45;&gt;Node28 -->
<g id="edge48" class="edge">
<title>Node27&#45;&gt;Node28</title>
<path fill="none" stroke="midnightblue" d="M1373.9,-168.08C1367.76,-160.38 1358.73,-149.03 1351.26,-139.65"/>
<polygon fill="midnightblue" stroke="midnightblue" points="1353.94,-137.39 1344.97,-131.75 1348.46,-141.75 1353.94,-137.39"/>
</g>
<!-- Node29 -->
<g id="node29" class="node">
<title>Node29</title>
<g id="a_node29"><a xlink:href="JoystickState_8h.html" target="_top" xlink:title="Container for storing Joystick state.">
<polygon fill="white" stroke="black" points="1383.5,-112.5 1383.5,-131.5 1466.5,-131.5 1466.5,-112.5 1383.5,-112.5"/>
<text text-anchor="middle" x="1425" y="-119.5" font-family="Helvetica,sans-Serif" font-size="10.00">JoystickState.h</text>
</a>
</g>
</g>
<!-- Node27&#45;&gt;Node29 -->
<g id="edge51" class="edge">
<title>Node27&#45;&gt;Node29</title>
<path fill="none" stroke="midnightblue" d="M1388.27,-168.08C1394.54,-160.38 1403.79,-149.03 1411.43,-139.65"/>
<polygon fill="midnightblue" stroke="midnightblue" points="1414.27,-141.71 1417.87,-131.75 1408.84,-137.29 1414.27,-141.71"/>
</g>
<!-- Node31 -->
<g id="node31" class="node">
<title>Node31</title>
<g id="a_node31"><a xlink:href="KeyboardState_8h.html" target="_top" xlink:title="Container for storing Keyboard state.">
<polygon fill="white" stroke="black" points="1626,-112.5 1626,-131.5 1714,-131.5 1714,-112.5 1626,-112.5"/>
<text text-anchor="middle" x="1670" y="-119.5" font-family="Helvetica,sans-Serif" font-size="10.00">KeyboardState.h</text>
</a>
</g>
</g>
<!-- Node27&#45;&gt;Node31 -->
<g id="edge54" class="edge">
<title>Node27&#45;&gt;Node31</title>
<path fill="none" stroke="midnightblue" d="M1426.79,-168.44C1478.19,-158.84 1561.49,-143.28 1616.01,-133.09"/>
<polygon fill="midnightblue" stroke="midnightblue" points="1616.66,-136.53 1625.84,-131.25 1615.37,-129.65 1616.66,-136.53"/>
</g>
<!-- Node33 -->
<g id="node33" class="node">
<title>Node33</title>
<g id="a_node33"><a xlink:href="MouseState_8h.html" target="_top" xlink:title="Container for storing Mouse state.">
<polygon fill="white" stroke="black" points="1523.5,-112.5 1523.5,-131.5 1600.5,-131.5 1600.5,-112.5 1523.5,-112.5"/>
<text text-anchor="middle" x="1562" y="-119.5" font-family="Helvetica,sans-Serif" font-size="10.00">MouseState.h</text>
</a>
</g>
</g>
<!-- Node27&#45;&gt;Node33 -->
<g id="edge56" class="edge">
<title>Node27&#45;&gt;Node33</title>
<path fill="none" stroke="midnightblue" d="M1409.68,-168.44C1440.53,-159.24 1489.73,-144.56 1523.83,-134.39"/>
<polygon fill="midnightblue" stroke="midnightblue" points="1524.87,-137.73 1533.45,-131.52 1522.87,-131.02 1524.87,-137.73"/>
</g>
<!-- Node29&#45;&gt;Node24 -->
<g id="edge52" class="edge">
<title>Node29&#45;&gt;Node24</title>
<path fill="none" stroke="midnightblue" d="M1427.15,-112.08C1428.87,-104.93 1431.35,-94.64 1433.5,-85.69"/>
<polygon fill="midnightblue" stroke="midnightblue" points="1436.96,-86.29 1435.89,-75.75 1430.15,-84.65 1436.96,-86.29"/>
</g>
<!-- Node30 -->
<g id="node30" class="node">
<title>Node30</title>
<g id="a_node30"><a xlink:href="JoystickCodes_8h.html" target="_top" xlink:title="Defines for codes used for joystick.">
<polygon fill="white" stroke="black" points="1279,-56.5 1279,-75.5 1367,-75.5 1367,-56.5 1279,-56.5"/>
<text text-anchor="middle" x="1323" y="-63.5" font-family="Helvetica,sans-Serif" font-size="10.00">JoystickCodes.h</text>
</a>
</g>
</g>
<!-- Node29&#45;&gt;Node30 -->
<g id="edge53" class="edge">
<title>Node29&#45;&gt;Node30</title>
<path fill="none" stroke="midnightblue" d="M1408.61,-112.32C1392.33,-103.7 1367.13,-90.36 1348.28,-80.39"/>
<polygon fill="midnightblue" stroke="midnightblue" points="1349.82,-77.24 1339.35,-75.65 1346.55,-83.43 1349.82,-77.24"/>
</g>
<!-- Node32 -->
<g id="node32" class="node">
<title>Node32</title>
<g id="a_node32"><a xlink:href="KeyboardKeys_8h.html" target="_top" xlink:title="Defenitions of keys that can be used by input manager.">
<polygon fill="white" stroke="black" points="1633,-56.5 1633,-75.5 1719,-75.5 1719,-56.5 1633,-56.5"/>
<text text-anchor="middle" x="1676" y="-63.5" font-family="Helvetica,sans-Serif" font-size="10.00">KeyboardKeys.h</text>
</a>
</g>
</g>
<!-- Node31&#45;&gt;Node32 -->
<g id="edge55" class="edge">
<title>Node31&#45;&gt;Node32</title>
<path fill="none" stroke="midnightblue" d="M1670.99,-112.08C1671.79,-104.93 1672.93,-94.64 1673.92,-85.69"/>
<polygon fill="midnightblue" stroke="midnightblue" points="1677.4,-86.08 1675.03,-75.75 1670.44,-85.3 1677.4,-86.08"/>
</g>
<!-- Node33&#45;&gt;Node24 -->
<g id="edge57" class="edge">
<title>Node33&#45;&gt;Node24</title>
<path fill="none" stroke="midnightblue" d="M1542.35,-112.44C1522.04,-103.6 1490.1,-89.69 1466.9,-79.59"/>
<polygon fill="midnightblue" stroke="midnightblue" points="1468.12,-76.3 1457.56,-75.52 1465.33,-82.72 1468.12,-76.3"/>
</g>
<!-- Node34 -->
<g id="node34" class="node">
<title>Node34</title>
<g id="a_node34"><a xlink:title=" ">
<polygon fill="white" stroke="#bfbfbf" points="1509,-56.5 1509,-75.5 1615,-75.5 1615,-56.5 1509,-56.5"/>
<text text-anchor="middle" x="1562" y="-63.5" font-family="Helvetica,sans-Serif" font-size="10.00">SDL2/SDL_mouse.h</text>
</a>
</g>
</g>
<!-- Node33&#45;&gt;Node34 -->
<g id="edge58" class="edge">
<title>Node33&#45;&gt;Node34</title>
<path fill="none" stroke="midnightblue" d="M1562,-112.08C1562,-105.01 1562,-94.86 1562,-85.99"/>
<polygon fill="midnightblue" stroke="midnightblue" points="1565.5,-85.75 1562,-75.75 1558.5,-85.75 1565.5,-85.75"/>
</g>
<!-- Node35&#45;&gt;Node4 -->
<g id="edge60" class="edge">
<title>Node35&#45;&gt;Node4</title>
<path fill="none" stroke="midnightblue" d="M183.14,-168.46C188.94,-154.04 202.8,-125.15 225,-112 291.13,-72.83 493.01,-87.55 569,-76 573.64,-75.29 578.54,-74.44 583.32,-73.53"/>
<polygon fill="midnightblue" stroke="midnightblue" points="584.33,-76.9 593.46,-71.53 582.97,-70.03 584.33,-76.9"/>
</g>
<!-- Node36 -->
<g id="node36" class="node">
<title>Node36</title>
<g id="a_node36"><a xlink:href="LoggingService_8h.html" target="_top" xlink:title="Default logging service. Does nothing. Use in production.">
<polygon fill="white" stroke="black" points="57,-112.5 57,-131.5 149,-131.5 149,-112.5 57,-112.5"/>
<text text-anchor="middle" x="103" y="-119.5" font-family="Helvetica,sans-Serif" font-size="10.00">LoggingService.h</text>
</a>
</g>
</g>
<!-- Node35&#45;&gt;Node36 -->
<g id="edge61" class="edge">
<title>Node35&#45;&gt;Node36</title>
<path fill="none" stroke="midnightblue" d="M167.63,-168.32C155.84,-160.06 137.87,-147.45 123.86,-137.63"/>
<polygon fill="midnightblue" stroke="midnightblue" points="125.54,-134.53 115.34,-131.65 121.52,-140.26 125.54,-134.53"/>
</g>
<!-- Node36&#45;&gt;Node4 -->
<g id="edge62" class="edge">
<title>Node36&#45;&gt;Node4</title>
<path fill="none" stroke="midnightblue" d="M149.15,-113.79C153.82,-113.15 158.5,-112.54 163,-112 342.88,-90.55 389.69,-101.8 569,-76 573.65,-75.33 578.55,-74.49 583.33,-73.6"/>
<polygon fill="midnightblue" stroke="midnightblue" points="584.34,-76.97 593.47,-71.6 582.98,-70.1 584.34,-76.97"/>
</g>
<!-- Node37&#45;&gt;Node4 -->
<g id="edge64" class="edge">
<title>Node37&#45;&gt;Node4</title>
<path fill="none" stroke="midnightblue" d="M974.72,-168.91C898.26,-157.96 769.98,-138.98 749,-132 730.89,-125.98 728.11,-120.46 711,-112 688.08,-100.66 661.75,-88.5 642.31,-79.68"/>
<polygon fill="midnightblue" stroke="midnightblue" points="643.65,-76.44 633.09,-75.52 640.76,-82.82 643.65,-76.44"/>
</g>
<!-- Node37&#45;&gt;Node23 -->
<g id="edge66" class="edge">
<title>Node37&#45;&gt;Node23</title>
<path fill="none" stroke="midnightblue" d="M1050.06,-168.44C1068.57,-159.68 1097.58,-145.94 1118.86,-135.86"/>
<polygon fill="midnightblue" stroke="midnightblue" points="1120.48,-138.96 1128.02,-131.52 1117.49,-132.63 1120.48,-138.96"/>
</g>
<!-- Node37&#45;&gt;Node26 -->
<g id="edge65" class="edge">
<title>Node37&#45;&gt;Node26</title>
<path fill="none" stroke="midnightblue" d="M1038.77,-168.08C1044.56,-160.46 1053.06,-149.26 1060.14,-139.94"/>
<polygon fill="midnightblue" stroke="midnightblue" points="1063.1,-141.83 1066.36,-131.75 1057.52,-137.6 1063.1,-141.83"/>
</g>
</g>
</svg>
