<?xml version="1.0" encoding="UTF-8" standalone="no"?>
<!DOCTYPE svg PUBLIC "-//W3C//DTD SVG 1.1//EN"
 "http://www.w3.org/Graphics/SVG/1.1/DTD/svg11.dtd">
<!-- Generated by graphviz version 2.46.1 (20210215.1649)
 -->
<!-- Title: include/assets/Texture.h Pages: 1 -->
<svg width="2206pt" height="296pt"
 viewBox="0.00 0.00 2206.11 296.00" xmlns="http://www.w3.org/2000/svg" xmlns:xlink="http://www.w3.org/1999/xlink">
<g id="graph0" class="graph" transform="scale(1 1) rotate(0) translate(4 292)">
<title>include/assets/Texture.h</title>
<polygon fill="white" stroke="transparent" points="-4,4 -4,-292 2202.11,-292 2202.11,4 -4,4"/>
<!-- Node1 -->
<g id="node1" class="node">
<title>Node1</title>
<g id="a_node1"><a xlink:title="Easy interface to interact with sdl bitmaps.">
<polygon fill="#bfbfbf" stroke="black" points="387.5,-268.5 387.5,-287.5 509.5,-287.5 509.5,-268.5 387.5,-268.5"/>
<text text-anchor="middle" x="448.5" y="-275.5" font-family="Helvetica,sans-Serif" font-size="10.00">include/assets/Texture.h</text>
</a>
</g>
</g>
<!-- Node2 -->
<g id="node2" class="node">
<title>Node2</title>
<g id="a_node2"><a xlink:href="Texture_8cpp.html" target="_top" xlink:title="Implementation of Texture.">
<polygon fill="white" stroke="black" points="390.5,-73 390.5,-92 506.5,-92 506.5,-73 390.5,-73"/>
<text text-anchor="middle" x="448.5" y="-80" font-family="Helvetica,sans-Serif" font-size="10.00">src/assets/Texture.cpp</text>
</a>
</g>
</g>
<!-- Node1&#45;&gt;Node2 -->
<g id="edge1" class="edge">
<title>Node1&#45;&gt;Node2</title>
<path fill="none" stroke="midnightblue" d="M448.5,-258.29C448.5,-217.53 448.5,-122.01 448.5,-92.41"/>
<polygon fill="midnightblue" stroke="midnightblue" points="445,-258.44 448.5,-268.44 452,-258.44 445,-258.44"/>
</g>
<!-- Node3 -->
<g id="node3" class="node">
<title>Node3</title>
<g id="a_node3"><a xlink:href="Sprite_8h.html" target="_top" xlink:title="Simple textured GameObject.">
<polygon fill="white" stroke="black" points="156.5,-207 156.5,-226 274.5,-226 274.5,-207 156.5,-207"/>
<text text-anchor="middle" x="215.5" y="-214" font-family="Helvetica,sans-Serif" font-size="10.00">include/entities/Sprite.h</text>
</a>
</g>
</g>
<!-- Node1&#45;&gt;Node3 -->
<g id="edge2" class="edge">
<title>Node1&#45;&gt;Node3</title>
<path fill="none" stroke="midnightblue" d="M405.3,-265.97C360.06,-254.41 289.97,-236.52 248.82,-226.01"/>
<polygon fill="midnightblue" stroke="midnightblue" points="404.56,-269.39 415.12,-268.48 406.29,-262.61 404.56,-269.39"/>
</g>
<!-- Node9 -->
<g id="node9" class="node">
<title>Node9</title>
<g id="a_node9"><a xlink:href="Button_8h.html" target="_top" xlink:title="A ui elemenent that accepts a click callback.">
<polygon fill="white" stroke="black" points="1804.5,-201.5 1804.5,-231.5 1896.5,-231.5 1896.5,-201.5 1804.5,-201.5"/>
<text text-anchor="start" x="1812.5" y="-219.5" font-family="Helvetica,sans-Serif" font-size="10.00">include/entities/ui</text>
<text text-anchor="middle" x="1850.5" y="-208.5" font-family="Helvetica,sans-Serif" font-size="10.00">/Button.h</text>
</a>
</g>
</g>
<!-- Node1&#45;&gt;Node9 -->
<g id="edge8" class="edge">
<title>Node1&#45;&gt;Node9</title>
<path fill="none" stroke="midnightblue" d="M519.67,-273.98C769.02,-263.4 1599.06,-228.17 1804.3,-219.46"/>
<polygon fill="midnightblue" stroke="midnightblue" points="519.49,-270.48 509.64,-274.41 519.78,-277.48 519.49,-270.48"/>
</g>
<!-- Node11 -->
<g id="node11" class="node">
<title>Node11</title>
<g id="a_node11"><a xlink:href="Image_8h.html" target="_top" xlink:title="UI Image.">
<polygon fill="white" stroke="black" points="322.5,-134.5 322.5,-164.5 414.5,-164.5 414.5,-134.5 322.5,-134.5"/>
<text text-anchor="start" x="330.5" y="-152.5" font-family="Helvetica,sans-Serif" font-size="10.00">include/entities/ui</text>
<text text-anchor="middle" x="368.5" y="-141.5" font-family="Helvetica,sans-Serif" font-size="10.00">/Image.h</text>
</a>
</g>
</g>
<!-- Node1&#45;&gt;Node11 -->
<g id="edge10" class="edge">
<title>Node1&#45;&gt;Node11</title>
<path fill="none" stroke="midnightblue" d="M437.62,-259.8C421.72,-234.66 392.42,-188.33 377.6,-164.89"/>
<polygon fill="midnightblue" stroke="midnightblue" points="434.7,-261.72 443,-268.31 440.61,-257.98 434.7,-261.72"/>
</g>
<!-- Node13 -->
<g id="node13" class="node">
<title>Node13</title>
<g id="a_node13"><a xlink:href="AssetService_8h.html" target="_top" xlink:title="Implementation of AssetService.">
<polygon fill="white" stroke="black" points="1307,-201.5 1307,-231.5 1426,-231.5 1426,-201.5 1307,-201.5"/>
<text text-anchor="start" x="1315" y="-219.5" font-family="Helvetica,sans-Serif" font-size="10.00">include/services/assets</text>
<text text-anchor="middle" x="1366.5" y="-208.5" font-family="Helvetica,sans-Serif" font-size="10.00">/AssetService.h</text>
</a>
</g>
</g>
<!-- Node1&#45;&gt;Node13 -->
<g id="edge12" class="edge">
<title>Node1&#45;&gt;Node13</title>
<path fill="none" stroke="midnightblue" d="M519.95,-272.37C695.32,-261 1144.51,-231.89 1306.84,-221.37"/>
<polygon fill="midnightblue" stroke="midnightblue" points="519.55,-268.89 509.8,-273.03 520.01,-275.87 519.55,-268.89"/>
</g>
<!-- Node4 -->
<g id="node4" class="node">
<title>Node4</title>
<g id="a_node4"><a xlink:href="Sprite_8cpp.html" target="_top" xlink:title="Implementation of Sprite.">
<polygon fill="white" stroke="black" points="0,-6 0,-25 111,-25 111,-6 0,-6"/>
<text text-anchor="middle" x="55.5" y="-13" font-family="Helvetica,sans-Serif" font-size="10.00">src/entities/Sprite.cpp</text>
</a>
</g>
</g>
<!-- Node3&#45;&gt;Node4 -->
<g id="edge3" class="edge">
<title>Node3&#45;&gt;Node4</title>
<path fill="none" stroke="midnightblue" d="M190.71,-201.77C175.82,-192.69 157.16,-179.75 143.5,-165 100.94,-119.05 69.22,-49.15 59.01,-25.03"/>
<polygon fill="midnightblue" stroke="midnightblue" points="189.04,-204.85 199.43,-206.92 192.59,-198.82 189.04,-204.85"/>
</g>
<!-- Node5 -->
<g id="node5" class="node">
<title>Node5</title>
<g id="a_node5"><a xlink:href="Particle_8h.html" target="_top" xlink:title="Just little blips that make things look cool.">
<polygon fill="white" stroke="black" points="153,-140 153,-159 278,-159 278,-140 153,-140"/>
<text text-anchor="middle" x="215.5" y="-147" font-family="Helvetica,sans-Serif" font-size="10.00">include/entities/Particle.h</text>
</a>
</g>
</g>
<!-- Node3&#45;&gt;Node5 -->
<g id="edge4" class="edge">
<title>Node3&#45;&gt;Node5</title>
<path fill="none" stroke="midnightblue" d="M215.5,-196.54C215.5,-184.17 215.5,-168.62 215.5,-159.13"/>
<polygon fill="midnightblue" stroke="midnightblue" points="212,-196.73 215.5,-206.73 219,-196.73 212,-196.73"/>
</g>
<!-- Node6 -->
<g id="node6" class="node">
<title>Node6</title>
<g id="a_node6"><a xlink:href="Particle_8cpp.html" target="_top" xlink:title="Implementation of Particle.">
<polygon fill="white" stroke="black" points="129,-6 129,-25 248,-25 248,-6 129,-6"/>
<text text-anchor="middle" x="188.5" y="-13" font-family="Helvetica,sans-Serif" font-size="10.00">src/entities/Particle.cpp</text>
</a>
</g>
</g>
<!-- Node5&#45;&gt;Node6 -->
<g id="edge5" class="edge">
<title>Node5&#45;&gt;Node6</title>
<path fill="none" stroke="midnightblue" d="M211.67,-129.78C205.73,-100.75 194.54,-46.04 190.24,-25.02"/>
<polygon fill="midnightblue" stroke="midnightblue" points="208.3,-130.74 213.73,-139.84 215.15,-129.34 208.3,-130.74"/>
</g>
<!-- Node7 -->
<g id="node7" class="node">
<title>Node7</title>
<g id="a_node7"><a xlink:href="ParticleEmitter_8h.html" target="_top" xlink:title="A particle emitter. Can be fed a particle to emit and configured.">
<polygon fill="white" stroke="black" points="216.5,-67.5 216.5,-97.5 334.5,-97.5 334.5,-67.5 216.5,-67.5"/>
<text text-anchor="start" x="224.5" y="-85.5" font-family="Helvetica,sans-Serif" font-size="10.00">include/entities/Particle</text>
<text text-anchor="middle" x="275.5" y="-74.5" font-family="Helvetica,sans-Serif" font-size="10.00">Emitter.h</text>
</a>
</g>
</g>
<!-- Node5&#45;&gt;Node7 -->
<g id="edge6" class="edge">
<title>Node5&#45;&gt;Node7</title>
<path fill="none" stroke="midnightblue" d="M230.45,-132.3C240.3,-121.63 253.07,-107.8 262.49,-97.59"/>
<polygon fill="midnightblue" stroke="midnightblue" points="227.8,-130.01 223.59,-139.73 232.95,-134.76 227.8,-130.01"/>
</g>
<!-- Node8 -->
<g id="node8" class="node">
<title>Node8</title>
<g id="a_node8"><a xlink:href="ParticleEmitter_8cpp.html" target="_top" xlink:title="Implementation of a particle emitter. and configured.">
<polygon fill="white" stroke="black" points="266,-6 266,-25 415,-25 415,-6 266,-6"/>
<text text-anchor="middle" x="340.5" y="-13" font-family="Helvetica,sans-Serif" font-size="10.00">src/entities/ParticleEmitter.cpp</text>
</a>
</g>
</g>
<!-- Node7&#45;&gt;Node8 -->
<g id="edge7" class="edge">
<title>Node7&#45;&gt;Node8</title>
<path fill="none" stroke="midnightblue" d="M297,-60C308.87,-48.13 322.95,-34.05 331.81,-25.19"/>
<polygon fill="midnightblue" stroke="midnightblue" points="294.2,-57.85 289.6,-67.4 299.15,-62.8 294.2,-57.85"/>
</g>
<!-- Node10 -->
<g id="node10" class="node">
<title>Node10</title>
<g id="a_node10"><a xlink:href="Button_8cpp.html" target="_top" xlink:title="Implementation of Button.">
<polygon fill="white" stroke="black" points="1990,-6 1990,-25 2115,-25 2115,-6 1990,-6"/>
<text text-anchor="middle" x="2052.5" y="-13" font-family="Helvetica,sans-Serif" font-size="10.00">src/entities/ui/Button.cpp</text>
</a>
</g>
</g>
<!-- Node9&#45;&gt;Node10 -->
<g id="edge9" class="edge">
<title>Node9&#45;&gt;Node10</title>
<path fill="none" stroke="midnightblue" d="M1906.88,-214.77C1985.69,-210.34 2126.43,-189.24 2191.5,-98 2218.95,-59.51 2149.58,-36.32 2099.26,-25"/>
<polygon fill="midnightblue" stroke="midnightblue" points="1906.46,-211.29 1896.65,-215.27 1906.81,-218.28 1906.46,-211.29"/>
</g>
<!-- Node12 -->
<g id="node12" class="node">
<title>Node12</title>
<g id="a_node12"><a xlink:href="Image_8cpp.html" target="_top" xlink:title="Texturable ui element.">
<polygon fill="white" stroke="black" points="433,-6 433,-25 556,-25 556,-6 433,-6"/>
<text text-anchor="middle" x="494.5" y="-13" font-family="Helvetica,sans-Serif" font-size="10.00">src/entities/ui/Image.cpp</text>
</a>
</g>
</g>
<!-- Node11&#45;&gt;Node12 -->
<g id="edge11" class="edge">
<title>Node11&#45;&gt;Node12</title>
<path fill="none" stroke="midnightblue" d="M366.57,-124.17C366.45,-106.6 369.08,-83.19 381.5,-67 398.5,-44.84 427.38,-32.16 451.68,-25.05"/>
<polygon fill="midnightblue" stroke="midnightblue" points="363.08,-124.38 366.94,-134.25 370.07,-124.13 363.08,-124.38"/>
</g>
<!-- Node14 -->
<g id="node14" class="node">
<title>Node14</title>
<g id="a_node14"><a xlink:href="AssetService_8cpp_source.html" target="_top" xlink:title=" ">
<polygon fill="white" stroke="black" points="2080.5,-67.5 2080.5,-97.5 2182.5,-97.5 2182.5,-67.5 2080.5,-67.5"/>
<text text-anchor="start" x="2088.5" y="-85.5" font-family="Helvetica,sans-Serif" font-size="10.00">src/services/assets</text>
<text text-anchor="middle" x="2131.5" y="-74.5" font-family="Helvetica,sans-Serif" font-size="10.00">/AssetService.cpp</text>
</a>
</g>
</g>
<!-- Node13&#45;&gt;Node14 -->
<g id="edge13" class="edge">
<title>Node13&#45;&gt;Node14</title>
<path fill="none" stroke="midnightblue" d="M1436.37,-203.44C1588.56,-177.18 1947.04,-115.33 2080.37,-92.32"/>
<polygon fill="midnightblue" stroke="midnightblue" points="1435.47,-200.05 1426.21,-205.2 1436.66,-206.95 1435.47,-200.05"/>
</g>
<!-- Node15 -->
<g id="node15" class="node">
<title>Node15</title>
<g id="a_node15"><a xlink:href="Services_8h.html" target="_top" xlink:title="Implementation of core Services class.">
<polygon fill="white" stroke="black" points="1298.5,-140 1298.5,-159 1434.5,-159 1434.5,-140 1298.5,-140"/>
<text text-anchor="middle" x="1366.5" y="-147" font-family="Helvetica,sans-Serif" font-size="10.00">include/services/Services.h</text>
</a>
</g>
</g>
<!-- Node13&#45;&gt;Node15 -->
<g id="edge14" class="edge">
<title>Node13&#45;&gt;Node15</title>
<path fill="none" stroke="midnightblue" d="M1366.5,-191.25C1366.5,-180.02 1366.5,-167.38 1366.5,-159.19"/>
<polygon fill="midnightblue" stroke="midnightblue" points="1363,-191.4 1366.5,-201.4 1370,-191.4 1363,-191.4"/>
</g>
<!-- Node15&#45;&gt;Node2 -->
<g id="edge16" class="edge">
<title>Node15&#45;&gt;Node2</title>
<path fill="none" stroke="midnightblue" d="M1288.47,-147.46C1138.89,-144.68 801.67,-134.52 520.5,-98 509.12,-96.52 496.84,-94.29 485.71,-92.02"/>
<polygon fill="midnightblue" stroke="midnightblue" points="1288.42,-150.96 1298.48,-147.64 1288.55,-143.96 1288.42,-150.96"/>
</g>
<!-- Node15&#45;&gt;Node8 -->
<g id="edge17" class="edge">
<title>Node15&#45;&gt;Node8</title>
<path fill="none" stroke="midnightblue" d="M1288.07,-147.17C1116.67,-143.65 713.47,-131.93 581.5,-98 550.11,-89.93 545.83,-78.42 515.5,-67 468.3,-49.23 411.98,-34 376.23,-25.04"/>
<polygon fill="midnightblue" stroke="midnightblue" points="1288.21,-150.67 1298.28,-147.37 1288.35,-143.67 1288.21,-150.67"/>
</g>
<!-- Node15&#45;&gt;Node10 -->
<g id="edge18" class="edge">
<title>Node15&#45;&gt;Node10</title>
<path fill="none" stroke="midnightblue" d="M1444.66,-145.77C1601.72,-139.76 1944.7,-123.84 1991.5,-98 2021.83,-81.26 2041.47,-42.38 2049.02,-25.07"/>
<polygon fill="midnightblue" stroke="midnightblue" points="1444.45,-142.27 1434.59,-146.15 1444.71,-149.27 1444.45,-142.27"/>
</g>
<!-- Node15&#45;&gt;Node14 -->
<g id="edge25" class="edge">
<title>Node15&#45;&gt;Node14</title>
<path fill="none" stroke="midnightblue" d="M1445.18,-146.6C1575.16,-142.62 1842.61,-130.87 2066.5,-98 2070.96,-97.35 2075.57,-96.55 2080.18,-95.68"/>
<polygon fill="midnightblue" stroke="midnightblue" points="1444.82,-143.11 1434.93,-146.91 1445.03,-150.11 1444.82,-143.11"/>
</g>
<!-- Node16 -->
<g id="node16" class="node">
<title>Node16</title>
<g id="a_node16"><a xlink:href="Font_8cpp.html" target="_top" xlink:title="Implementation of Font.">
<polygon fill="white" stroke="black" points="773,-73 773,-92 876,-92 876,-73 773,-73"/>
<text text-anchor="middle" x="824.5" y="-80" font-family="Helvetica,sans-Serif" font-size="10.00">src/assets/Font.cpp</text>
</a>
</g>
</g>
<!-- Node15&#45;&gt;Node16 -->
<g id="edge15" class="edge">
<title>Node15&#45;&gt;Node16</title>
<path fill="none" stroke="midnightblue" d="M1288.26,-143.4C1192.73,-136.45 1026.45,-122.05 885.5,-98 876.16,-96.41 866.13,-94.22 856.95,-92.03"/>
<polygon fill="midnightblue" stroke="midnightblue" points="1288.19,-146.9 1298.42,-144.13 1288.69,-139.92 1288.19,-146.9"/>
</g>
<!-- Node17 -->
<g id="node17" class="node">
<title>Node17</title>
<g id="a_node17"><a xlink:href="Checkbox_8cpp.html" target="_top" xlink:title="Implementation of UI Checkbox.">
<polygon fill="white" stroke="black" points="574,-6 574,-25 713,-25 713,-6 574,-6"/>
<text text-anchor="middle" x="643.5" y="-13" font-family="Helvetica,sans-Serif" font-size="10.00">src/entities/ui/Checkbox.cpp</text>
</a>
</g>
</g>
<!-- Node15&#45;&gt;Node17 -->
<g id="edge19" class="edge">
<title>Node15&#45;&gt;Node17</title>
<path fill="none" stroke="midnightblue" d="M1288.14,-146.25C1095.95,-140.36 615.08,-123.16 591.5,-98 569.58,-74.61 609.32,-40.75 630.91,-25.07"/>
<polygon fill="midnightblue" stroke="midnightblue" points="1288.07,-149.75 1298.17,-146.56 1288.29,-142.76 1288.07,-149.75"/>
</g>
<!-- Node18 -->
<g id="node18" class="node">
<title>Node18</title>
<g id="a_node18"><a xlink:href="Inputbox_8cpp.html" target="_top" xlink:title="Implementation of UI Inputbox.">
<polygon fill="white" stroke="black" points="1016,-6 1016,-25 1149,-25 1149,-6 1016,-6"/>
<text text-anchor="middle" x="1082.5" y="-13" font-family="Helvetica,sans-Serif" font-size="10.00">src/entities/ui/Inputbox.cpp</text>
</a>
</g>
</g>
<!-- Node15&#45;&gt;Node18 -->
<g id="edge20" class="edge">
<title>Node15&#45;&gt;Node18</title>
<path fill="none" stroke="midnightblue" d="M1287.81,-147.71C1132.46,-145.34 798.3,-135.84 763.5,-98 703.25,-32.5 697.9,-83.27 1006.5,-31 1017.23,-29.18 1028.78,-27.06 1039.55,-25.02"/>
<polygon fill="midnightblue" stroke="midnightblue" points="1288.18,-151.22 1298.23,-147.87 1288.28,-144.22 1288.18,-151.22"/>
</g>
<!-- Node19 -->
<g id="node19" class="node">
<title>Node19</title>
<g id="a_node19"><a xlink:href="MessageBox_8cpp.html" target="_top" xlink:title="Implementation of MessageBox.">
<polygon fill="white" stroke="black" points="894.5,-73 894.5,-92 1046.5,-92 1046.5,-73 894.5,-73"/>
<text text-anchor="middle" x="970.5" y="-80" font-family="Helvetica,sans-Serif" font-size="10.00">src/entities/ui/MessageBox.cpp</text>
</a>
</g>
</g>
<!-- Node15&#45;&gt;Node19 -->
<g id="edge21" class="edge">
<title>Node15&#45;&gt;Node19</title>
<path fill="none" stroke="midnightblue" d="M1302.94,-138.33C1240.07,-128.24 1141.11,-112.25 1055.5,-98 1043.98,-96.08 1031.59,-93.99 1019.93,-92"/>
<polygon fill="midnightblue" stroke="midnightblue" points="1302.67,-141.83 1313.1,-139.96 1303.78,-134.92 1302.67,-141.83"/>
</g>
<!-- Node20 -->
<g id="node20" class="node">
<title>Node20</title>
<g id="a_node20"><a xlink:href="UIElement_8cpp.html" target="_top" xlink:title="Implementation of UIElement.">
<polygon fill="white" stroke="black" points="1327.5,-6 1327.5,-25 1469.5,-25 1469.5,-6 1327.5,-6"/>
<text text-anchor="middle" x="1398.5" y="-13" font-family="Helvetica,sans-Serif" font-size="10.00">src/entities/ui/UIElement.cpp</text>
</a>
</g>
</g>
<!-- Node15&#45;&gt;Node20 -->
<g id="edge22" class="edge">
<title>Node15&#45;&gt;Node20</title>
<path fill="none" stroke="midnightblue" d="M1430.56,-138.02C1474.11,-129.44 1526.13,-115.82 1539.5,-98 1568.17,-59.77 1497.54,-36.5 1446.22,-25.09"/>
<polygon fill="midnightblue" stroke="midnightblue" points="1429.73,-134.62 1420.56,-139.94 1431.04,-141.49 1429.73,-134.62"/>
</g>
<!-- Node21 -->
<g id="node21" class="node">
<title>Node21</title>
<g id="a_node21"><a xlink:href="Game_8cpp.html" target="_top" xlink:title="Implementation of Game.">
<polygon fill="white" stroke="black" points="1065,-73 1065,-92 1142,-92 1142,-73 1065,-73"/>
<text text-anchor="middle" x="1103.5" y="-80" font-family="Helvetica,sans-Serif" font-size="10.00">src/Game.cpp</text>
</a>
</g>
</g>
<!-- Node15&#45;&gt;Node21 -->
<g id="edge23" class="edge">
<title>Node15&#45;&gt;Node21</title>
<path fill="none" stroke="midnightblue" d="M1316.88,-137.77C1273.16,-128.1 1207.85,-113.11 1151.5,-98 1144.69,-96.17 1137.38,-94.05 1130.58,-92"/>
<polygon fill="midnightblue" stroke="midnightblue" points="1316.17,-141.2 1326.69,-139.93 1317.67,-134.36 1316.17,-141.2"/>
</g>
<!-- Node22 -->
<g id="node22" class="node">
<title>Node22</title>
<g id="a_node22"><a xlink:href="Primitives_8cpp.html" target="_top" xlink:title="Implementation of Primitives namespace helpers.">
<polygon fill="white" stroke="black" points="1160.5,-73 1160.5,-92 1300.5,-92 1300.5,-73 1160.5,-73"/>
<text text-anchor="middle" x="1230.5" y="-80" font-family="Helvetica,sans-Serif" font-size="10.00">src/primitives/Primitives.cpp</text>
</a>
</g>
</g>
<!-- Node15&#45;&gt;Node22 -->
<g id="edge24" class="edge">
<title>Node15&#45;&gt;Node22</title>
<path fill="none" stroke="midnightblue" d="M1339.18,-135.44C1312.24,-122.57 1271.84,-103.26 1248.63,-92.17"/>
<polygon fill="midnightblue" stroke="midnightblue" points="1337.91,-138.71 1348.44,-139.87 1340.93,-132.4 1337.91,-138.71"/>
</g>
<!-- Node23 -->
<g id="node23" class="node">
<title>Node23</title>
<g id="a_node23"><a xlink:href="AudioService_8cpp.html" target="_top" xlink:title="Implementation of AudioService.">
<polygon fill="white" stroke="black" points="1318.5,-67.5 1318.5,-97.5 1414.5,-97.5 1414.5,-67.5 1318.5,-67.5"/>
<text text-anchor="start" x="1326.5" y="-85.5" font-family="Helvetica,sans-Serif" font-size="10.00">src/services/audio</text>
<text text-anchor="middle" x="1366.5" y="-74.5" font-family="Helvetica,sans-Serif" font-size="10.00">/AudioService.cpp</text>
</a>
</g>
</g>
<!-- Node15&#45;&gt;Node23 -->
<g id="edge26" class="edge">
<title>Node15&#45;&gt;Node23</title>
<path fill="none" stroke="midnightblue" d="M1366.5,-129.41C1366.5,-119.22 1366.5,-106.9 1366.5,-97.59"/>
<polygon fill="midnightblue" stroke="midnightblue" points="1363,-129.73 1366.5,-139.73 1370,-129.73 1363,-129.73"/>
</g>
<!-- Node24 -->
<g id="node24" class="node">
<title>Node24</title>
<g id="a_node24"><a xlink:href="ConfigService_8cpp.html" target="_top" xlink:title="Implementation of default Config Service.">
<polygon fill="white" stroke="black" points="1432.5,-67.5 1432.5,-97.5 1530.5,-97.5 1530.5,-67.5 1432.5,-67.5"/>
<text text-anchor="start" x="1440.5" y="-85.5" font-family="Helvetica,sans-Serif" font-size="10.00">src/services/config</text>
<text text-anchor="middle" x="1481.5" y="-74.5" font-family="Helvetica,sans-Serif" font-size="10.00">/ConfigService.cpp</text>
</a>
</g>
</g>
<!-- Node15&#45;&gt;Node24 -->
<g id="edge27" class="edge">
<title>Node15&#45;&gt;Node24</title>
<path fill="none" stroke="midnightblue" d="M1390.82,-134.75C1410.15,-123.83 1437.09,-108.6 1456.57,-97.59"/>
<polygon fill="midnightblue" stroke="midnightblue" points="1388.99,-131.77 1382.01,-139.73 1392.44,-137.86 1388.99,-131.77"/>
</g>
<!-- Node25 -->
<g id="node25" class="node">
<title>Node25</title>
<g id="a_node25"><a xlink:href="DisplayService_8cpp.html" target="_top" xlink:title="Implementation of DisplayService.">
<polygon fill="white" stroke="black" points="1554,-0.5 1554,-30.5 1657,-30.5 1657,-0.5 1554,-0.5"/>
<text text-anchor="start" x="1562" y="-18.5" font-family="Helvetica,sans-Serif" font-size="10.00">src/services/display</text>
<text text-anchor="middle" x="1605.5" y="-7.5" font-family="Helvetica,sans-Serif" font-size="10.00">/DisplayService.cpp</text>
</a>
</g>
</g>
<!-- Node15&#45;&gt;Node25 -->
<g id="edge28" class="edge">
<title>Node15&#45;&gt;Node25</title>
<path fill="none" stroke="midnightblue" d="M1444.77,-147.57C1597.53,-144.95 1923.5,-135.03 1957.5,-98 1966.82,-87.85 1966.52,-77.41 1957.5,-67 1938.12,-44.64 1750.29,-27.44 1657.22,-20.22"/>
<polygon fill="midnightblue" stroke="midnightblue" points="1444.46,-144.08 1434.52,-147.74 1444.58,-151.08 1444.46,-144.08"/>
</g>
<!-- Node26 -->
<g id="node26" class="node">
<title>Node26</title>
<g id="a_node26"><a xlink:href="EventQueue_8cpp.html" target="_top" xlink:title="Implementation of EventQueue.">
<polygon fill="white" stroke="black" points="1586.5,-67.5 1586.5,-97.5 1688.5,-97.5 1688.5,-67.5 1586.5,-67.5"/>
<text text-anchor="start" x="1594.5" y="-85.5" font-family="Helvetica,sans-Serif" font-size="10.00">src/services/events</text>
<text text-anchor="middle" x="1637.5" y="-74.5" font-family="Helvetica,sans-Serif" font-size="10.00">/EventQueue.cpp</text>
</a>
</g>
</g>
<!-- Node15&#45;&gt;Node26 -->
<g id="edge29" class="edge">
<title>Node15&#45;&gt;Node26</title>
<path fill="none" stroke="midnightblue" d="M1412.06,-137.57C1460.28,-126.01 1536.23,-107.79 1586.44,-95.75"/>
<polygon fill="midnightblue" stroke="midnightblue" points="1411.12,-134.2 1402.21,-139.94 1412.75,-141.01 1411.12,-134.2"/>
</g>
<!-- Node27 -->
<g id="node27" class="node">
<title>Node27</title>
<g id="a_node27"><a xlink:href="InputService_8cpp.html" target="_top" xlink:title="Implementation of InputService. Handles mouse, keyboard and joystick.">
<polygon fill="white" stroke="black" points="1706.5,-67.5 1706.5,-97.5 1800.5,-97.5 1800.5,-67.5 1706.5,-67.5"/>
<text text-anchor="start" x="1714.5" y="-85.5" font-family="Helvetica,sans-Serif" font-size="10.00">src/services/input</text>
<text text-anchor="middle" x="1753.5" y="-74.5" font-family="Helvetica,sans-Serif" font-size="10.00">/InputService.cpp</text>
</a>
</g>
</g>
<!-- Node15&#45;&gt;Node27 -->
<g id="edge30" class="edge">
<title>Node15&#45;&gt;Node27</title>
<path fill="none" stroke="midnightblue" d="M1444.8,-138.84C1512.12,-130 1611.65,-115.62 1697.5,-98 1700.35,-97.41 1703.28,-96.78 1706.22,-96.1"/>
<polygon fill="midnightblue" stroke="midnightblue" points="1444.15,-135.4 1434.69,-140.16 1445.06,-142.34 1444.15,-135.4"/>
</g>
<!-- Node28 -->
<g id="node28" class="node">
<title>Node28</title>
<g id="a_node28"><a xlink:href="SceneService_8cpp.html" target="_top" xlink:title="Implementation of SceneService.">
<polygon fill="white" stroke="black" points="1807,-0.5 1807,-30.5 1906,-30.5 1906,-0.5 1807,-0.5"/>
<text text-anchor="start" x="1815" y="-18.5" font-family="Helvetica,sans-Serif" font-size="10.00">src/services/scene</text>
<text text-anchor="middle" x="1856.5" y="-7.5" font-family="Helvetica,sans-Serif" font-size="10.00">/SceneService.cpp</text>
</a>
</g>
</g>
<!-- Node15&#45;&gt;Node28 -->
<g id="edge31" class="edge">
<title>Node15&#45;&gt;Node28</title>
<path fill="none" stroke="midnightblue" d="M1444.97,-144.78C1605.27,-136.81 1956.81,-117.22 1974.5,-98 2001.31,-68.87 1949.3,-44.49 1906.03,-30.19"/>
<polygon fill="midnightblue" stroke="midnightblue" points="1444.51,-141.3 1434.69,-145.29 1444.85,-148.29 1444.51,-141.3"/>
</g>
<!-- Node29 -->
<g id="node29" class="node">
<title>Node29</title>
<g id="a_node29"><a xlink:href="Services_8cpp_source.html" target="_top" xlink:title=" ">
<polygon fill="white" stroke="black" points="1819,-73 1819,-92 1948,-92 1948,-73 1819,-73"/>
<text text-anchor="middle" x="1883.5" y="-80" font-family="Helvetica,sans-Serif" font-size="10.00">src/services/Services.cpp</text>
</a>
</g>
</g>
<!-- Node15&#45;&gt;Node29 -->
<g id="edge32" class="edge">
<title>Node15&#45;&gt;Node29</title>
<path fill="none" stroke="midnightblue" d="M1444.63,-141.5C1533.34,-133.11 1682.25,-117.69 1809.5,-98 1820.37,-96.32 1832.07,-94.18 1842.89,-92.06"/>
<polygon fill="midnightblue" stroke="midnightblue" points="1444.28,-138.02 1434.65,-142.44 1444.93,-144.99 1444.28,-138.02"/>
</g>
<!-- Node30 -->
<g id="node30" class="node">
<title>Node30</title>
<g id="a_node30"><a xlink:href="Scene_8h.html" target="_top" xlink:title="Parent scene class. Children can be added to scene manager.">
<polygon fill="white" stroke="black" points="601,-73 601,-92 716,-92 716,-73 601,-73"/>
<text text-anchor="middle" x="658.5" y="-80" font-family="Helvetica,sans-Serif" font-size="10.00">include/scene/Scene.h</text>
</a>
</g>
</g>
<!-- Node15&#45;&gt;Node30 -->
<g id="edge33" class="edge">
<title>Node15&#45;&gt;Node30</title>
<path fill="none" stroke="midnightblue" d="M1288.22,-145.3C1167.87,-139.7 930.36,-125.96 730.5,-98 719.39,-96.45 707.41,-94.25 696.47,-92.03"/>
<polygon fill="midnightblue" stroke="midnightblue" points="1288.29,-148.81 1298.44,-145.77 1288.61,-141.81 1288.29,-148.81"/>
</g>
<!-- Node30&#45;&gt;Node4 -->
<g id="edge37" class="edge">
<title>Node30&#45;&gt;Node4</title>
<path fill="none" stroke="midnightblue" d="M590.77,-74.49C566.98,-72.06 540.06,-69.36 515.5,-67 339.59,-50.09 294.06,-58.59 119.5,-31 109.6,-29.44 98.94,-27.23 89.22,-25.02"/>
<polygon fill="midnightblue" stroke="midnightblue" points="590.46,-77.97 600.76,-75.51 591.17,-71.01 590.46,-77.97"/>
</g>
<!-- Node30&#45;&gt;Node6 -->
<g id="edge35" class="edge">
<title>Node30&#45;&gt;Node6</title>
<path fill="none" stroke="midnightblue" d="M590.73,-74.77C510.61,-66.4 373.39,-50.77 256.5,-31 246.5,-29.31 235.74,-27.17 225.8,-25.05"/>
<polygon fill="midnightblue" stroke="midnightblue" points="590.38,-78.25 600.69,-75.8 591.11,-71.29 590.38,-78.25"/>
</g>
<!-- Node30&#45;&gt;Node8 -->
<g id="edge36" class="edge">
<title>Node30&#45;&gt;Node8</title>
<path fill="none" stroke="midnightblue" d="M606.54,-70.88C543.91,-58.08 439.91,-36.82 382.24,-25.03"/>
<polygon fill="midnightblue" stroke="midnightblue" points="606.1,-74.36 616.6,-72.94 607.5,-67.5 606.1,-74.36"/>
</g>
<!-- Node30&#45;&gt;Node10 -->
<g id="edge38" class="edge">
<title>Node30&#45;&gt;Node10</title>
<path fill="none" stroke="midnightblue" d="M722.28,-71.59C735.86,-69.79 750.13,-68.13 763.5,-67 1273.93,-23.9 1404.45,-65.98 1915.5,-31 1939.84,-29.33 1966.53,-26.69 1989.84,-24.12"/>
<polygon fill="midnightblue" stroke="midnightblue" points="721.5,-68.17 712.06,-72.99 722.45,-75.1 721.5,-68.17"/>
</g>
<!-- Node30&#45;&gt;Node12 -->
<g id="edge40" class="edge">
<title>Node30&#45;&gt;Node12</title>
<path fill="none" stroke="midnightblue" d="M627.22,-69.1C594.66,-56.2 544.53,-36.33 516.11,-25.06"/>
<polygon fill="midnightblue" stroke="midnightblue" points="626.14,-72.44 636.72,-72.87 628.72,-65.93 626.14,-72.44"/>
</g>
<!-- Node30&#45;&gt;Node17 -->
<g id="edge39" class="edge">
<title>Node30&#45;&gt;Node17</title>
<path fill="none" stroke="midnightblue" d="M654.21,-62.91C651.34,-50.49 647.7,-34.72 645.49,-25.13"/>
<polygon fill="midnightblue" stroke="midnightblue" points="650.82,-63.78 656.48,-72.73 657.64,-62.2 650.82,-63.78"/>
</g>
<!-- Node30&#45;&gt;Node18 -->
<g id="edge41" class="edge">
<title>Node30&#45;&gt;Node18</title>
<path fill="none" stroke="midnightblue" d="M708.36,-71C715.77,-69.57 723.32,-68.19 730.5,-67 852.54,-46.78 884.36,-50.6 1006.5,-31 1017.38,-29.25 1029.08,-27.14 1039.97,-25.07"/>
<polygon fill="midnightblue" stroke="midnightblue" points="707.53,-67.59 698.4,-72.95 708.89,-74.46 707.53,-67.59"/>
</g>
<!-- Node30&#45;&gt;Node20 -->
<g id="edge42" class="edge">
<title>Node30&#45;&gt;Node20</title>
<path fill="none" stroke="midnightblue" d="M725.61,-71.64C738.18,-69.96 751.23,-68.33 763.5,-67 967.72,-44.8 1209.89,-28.23 1327.43,-20.81"/>
<polygon fill="midnightblue" stroke="midnightblue" points="725.08,-68.18 715.65,-73 726.03,-75.12 725.08,-68.18"/>
</g>
<!-- Node30&#45;&gt;Node25 -->
<g id="edge44" class="edge">
<title>Node30&#45;&gt;Node25</title>
<path fill="none" stroke="midnightblue" d="M723.41,-71.64C736.65,-69.88 750.51,-68.22 763.5,-67 1080.28,-37.21 1161.39,-57.06 1478.5,-31 1503.38,-28.96 1530.92,-25.91 1553.98,-23.13"/>
<polygon fill="midnightblue" stroke="midnightblue" points="722.87,-68.18 713.43,-73 723.82,-75.12 722.87,-68.18"/>
</g>
<!-- Node30&#45;&gt;Node28 -->
<g id="edge45" class="edge">
<title>Node30&#45;&gt;Node28</title>
<path fill="none" stroke="midnightblue" d="M722.96,-71.59C736.33,-69.82 750.35,-68.17 763.5,-67 1163.58,-31.49 1265.52,-54.29 1666.5,-31 1714.22,-28.23 1768.61,-23.97 1806.93,-20.78"/>
<polygon fill="midnightblue" stroke="midnightblue" points="722.32,-68.15 712.88,-72.96 723.26,-75.08 722.32,-68.15"/>
</g>
<!-- Node31 -->
<g id="node31" class="node">
<title>Node31</title>
<g id="a_node31"><a xlink:href="GameObject_8cpp_source.html" target="_top" xlink:title=" ">
<polygon fill="white" stroke="black" points="857.5,-6 857.5,-25 997.5,-25 997.5,-6 857.5,-6"/>
<text text-anchor="middle" x="927.5" y="-13" font-family="Helvetica,sans-Serif" font-size="10.00">src/entities/GameObject.cpp</text>
</a>
</g>
</g>
<!-- Node30&#45;&gt;Node31 -->
<g id="edge34" class="edge">
<title>Node30&#45;&gt;Node31</title>
<path fill="none" stroke="midnightblue" d="M703.76,-70.56C756.79,-57.75 843.55,-36.78 891.98,-25.08"/>
<polygon fill="midnightblue" stroke="midnightblue" points="702.84,-67.18 693.94,-72.94 704.49,-73.99 702.84,-67.18"/>
</g>
<!-- Node32 -->
<g id="node32" class="node">
<title>Node32</title>
<g id="a_node32"><a xlink:href="Scene_8cpp.html" target="_top" xlink:title="Implementation of Scene class.">
<polygon fill="white" stroke="black" points="731.5,-6 731.5,-25 839.5,-25 839.5,-6 731.5,-6"/>
<text text-anchor="middle" x="785.5" y="-13" font-family="Helvetica,sans-Serif" font-size="10.00">src/scene/Scene.cpp</text>
</a>
</g>
</g>
<!-- Node30&#45;&gt;Node32 -->
<g id="edge43" class="edge">
<title>Node30&#45;&gt;Node32</title>
<path fill="none" stroke="midnightblue" d="M684.34,-68.27C709.5,-55.4 746.99,-36.21 768.57,-25.17"/>
<polygon fill="midnightblue" stroke="midnightblue" points="682.67,-65.2 675.36,-72.87 685.86,-71.43 682.67,-65.2"/>
</g>
</g>
</svg>
