<?xml version="1.0" encoding="UTF-8" standalone="no"?>
<!DOCTYPE svg PUBLIC "-//W3C//DTD SVG 1.1//EN"
 "http://www.w3.org/Graphics/SVG/1.1/DTD/svg11.dtd">
<!-- Generated by graphviz version 2.46.1 (20210215.1649)
 -->
<!-- Title: include/entities/ui/UIElement.h Pages: 1 -->
<svg width="785pt" height="162pt"
 viewBox="0.00 0.00 785.00 162.00" xmlns="http://www.w3.org/2000/svg" xmlns:xlink="http://www.w3.org/1999/xlink">
<g id="graph0" class="graph" transform="scale(1 1) rotate(0) translate(4 158)">
<title>include/entities/ui/UIElement.h</title>
<polygon fill="white" stroke="transparent" points="-4,4 -4,-158 781,-158 781,4 -4,4"/>
<!-- Node1 -->
<g id="node1" class="node">
<title>Node1</title>
<g id="a_node1"><a xlink:title="Parent class of many other UIElement subclasses. Handles most things that all UIElements may need.">
<polygon fill="#bfbfbf" stroke="black" points="325,-123.5 325,-153.5 417,-153.5 417,-123.5 325,-123.5"/>
<text text-anchor="start" x="333" y="-141.5" font-family="Helvetica,sans-Serif" font-size="10.00">include/entities/ui</text>
<text text-anchor="middle" x="371" y="-130.5" font-family="Helvetica,sans-Serif" font-size="10.00">/UIElement.h</text>
</a>
</g>
</g>
<!-- Node2 -->
<g id="node2" class="node">
<title>Node2</title>
<g id="a_node2"><a xlink:href="UIElement_8cpp.html" target="_top" xlink:title="Implementation of UIElement.">
<polygon fill="white" stroke="black" points="0,-62 0,-81 142,-81 142,-62 0,-62"/>
<text text-anchor="middle" x="71" y="-69" font-family="Helvetica,sans-Serif" font-size="10.00">src/entities/ui/UIElement.cpp</text>
</a>
</g>
</g>
<!-- Node1&#45;&gt;Node2 -->
<g id="edge1" class="edge">
<title>Node1&#45;&gt;Node2</title>
<path fill="none" stroke="midnightblue" d="M314.8,-125.32C255.28,-112.43 162.85,-92.4 110.56,-81.07"/>
<polygon fill="midnightblue" stroke="midnightblue" points="314.27,-128.79 324.78,-127.49 315.75,-121.95 314.27,-128.79"/>
</g>
<!-- Node3 -->
<g id="node3" class="node">
<title>Node3</title>
<g id="a_node3"><a xlink:href="Button_8h.html" target="_top" xlink:title="A ui elemenent that accepts a click callback.">
<polygon fill="white" stroke="black" points="160,-56.5 160,-86.5 252,-86.5 252,-56.5 160,-56.5"/>
<text text-anchor="start" x="168" y="-74.5" font-family="Helvetica,sans-Serif" font-size="10.00">include/entities/ui</text>
<text text-anchor="middle" x="206" y="-63.5" font-family="Helvetica,sans-Serif" font-size="10.00">/Button.h</text>
</a>
</g>
</g>
<!-- Node1&#45;&gt;Node3 -->
<g id="edge2" class="edge">
<title>Node1&#45;&gt;Node3</title>
<path fill="none" stroke="midnightblue" d="M325.77,-119.68C299.31,-109.26 266.37,-96.28 241.73,-86.58"/>
<polygon fill="midnightblue" stroke="midnightblue" points="324.61,-122.99 335.2,-123.4 327.18,-116.47 324.61,-122.99"/>
</g>
<!-- Node5 -->
<g id="node5" class="node">
<title>Node5</title>
<g id="a_node5"><a xlink:href="Checkbox_8h.html" target="_top" xlink:title="UI Checkbox.">
<polygon fill="white" stroke="black" points="270,-56.5 270,-86.5 362,-86.5 362,-56.5 270,-56.5"/>
<text text-anchor="start" x="278" y="-74.5" font-family="Helvetica,sans-Serif" font-size="10.00">include/entities/ui</text>
<text text-anchor="middle" x="316" y="-63.5" font-family="Helvetica,sans-Serif" font-size="10.00">/Checkbox.h</text>
</a>
</g>
</g>
<!-- Node1&#45;&gt;Node5 -->
<g id="edge4" class="edge">
<title>Node1&#45;&gt;Node5</title>
<path fill="none" stroke="midnightblue" d="M352.58,-115.74C344.45,-106.12 335.11,-95.09 327.91,-86.58"/>
<polygon fill="midnightblue" stroke="midnightblue" points="349.93,-118.02 359.07,-123.4 355.28,-113.5 349.93,-118.02"/>
</g>
<!-- Node7 -->
<g id="node7" class="node">
<title>Node7</title>
<g id="a_node7"><a xlink:href="Image_8h.html" target="_top" xlink:title="UI Image.">
<polygon fill="white" stroke="black" points="380,-56.5 380,-86.5 472,-86.5 472,-56.5 380,-56.5"/>
<text text-anchor="start" x="388" y="-74.5" font-family="Helvetica,sans-Serif" font-size="10.00">include/entities/ui</text>
<text text-anchor="middle" x="426" y="-63.5" font-family="Helvetica,sans-Serif" font-size="10.00">/Image.h</text>
</a>
</g>
</g>
<!-- Node1&#45;&gt;Node7 -->
<g id="edge6" class="edge">
<title>Node1&#45;&gt;Node7</title>
<path fill="none" stroke="midnightblue" d="M389.42,-115.74C397.55,-106.12 406.89,-95.09 414.09,-86.58"/>
<polygon fill="midnightblue" stroke="midnightblue" points="386.72,-113.5 382.93,-123.4 392.07,-118.02 386.72,-113.5"/>
</g>
<!-- Node9 -->
<g id="node9" class="node">
<title>Node9</title>
<g id="a_node9"><a xlink:href="Inputbox_8h.html" target="_top" xlink:title="UI Inputbox.">
<polygon fill="white" stroke="black" points="508,-56.5 508,-86.5 600,-86.5 600,-56.5 508,-56.5"/>
<text text-anchor="start" x="516" y="-74.5" font-family="Helvetica,sans-Serif" font-size="10.00">include/entities/ui</text>
<text text-anchor="middle" x="554" y="-63.5" font-family="Helvetica,sans-Serif" font-size="10.00">/Inputbox.h</text>
</a>
</g>
</g>
<!-- Node1&#45;&gt;Node9 -->
<g id="edge8" class="edge">
<title>Node1&#45;&gt;Node9</title>
<path fill="none" stroke="midnightblue" d="M420.4,-119.96C449.87,-109.48 486.81,-96.37 514.37,-86.58"/>
<polygon fill="midnightblue" stroke="midnightblue" points="418.96,-116.75 410.71,-123.4 421.3,-123.35 418.96,-116.75"/>
</g>
<!-- Node11 -->
<g id="node11" class="node">
<title>Node11</title>
<g id="a_node11"><a xlink:href="Label_8h.html" target="_top" xlink:title="UI Label that simply displays text.">
<polygon fill="white" stroke="black" points="654,-56.5 654,-86.5 746,-86.5 746,-56.5 654,-56.5"/>
<text text-anchor="start" x="662" y="-74.5" font-family="Helvetica,sans-Serif" font-size="10.00">include/entities/ui</text>
<text text-anchor="middle" x="700" y="-63.5" font-family="Helvetica,sans-Serif" font-size="10.00">/Label.h</text>
</a>
</g>
</g>
<!-- Node1&#45;&gt;Node11 -->
<g id="edge10" class="edge">
<title>Node1&#45;&gt;Node11</title>
<path fill="none" stroke="midnightblue" d="M427.01,-126.43C490.98,-113.8 594.47,-93.35 653.95,-81.6"/>
<polygon fill="midnightblue" stroke="midnightblue" points="426.22,-123.02 417.09,-128.39 427.58,-129.89 426.22,-123.02"/>
</g>
<!-- Node4 -->
<g id="node4" class="node">
<title>Node4</title>
<g id="a_node4"><a xlink:href="Button_8cpp.html" target="_top" xlink:title="Implementation of Button.">
<polygon fill="white" stroke="black" points="64.5,-0.5 64.5,-19.5 189.5,-19.5 189.5,-0.5 64.5,-0.5"/>
<text text-anchor="middle" x="127" y="-7.5" font-family="Helvetica,sans-Serif" font-size="10.00">src/entities/ui/Button.cpp</text>
</a>
</g>
</g>
<!-- Node3&#45;&gt;Node4 -->
<g id="edge3" class="edge">
<title>Node3&#45;&gt;Node4</title>
<path fill="none" stroke="midnightblue" d="M179.03,-50.19C165.2,-39.77 149.08,-27.63 138.5,-19.66"/>
<polygon fill="midnightblue" stroke="midnightblue" points="177.18,-53.18 187.28,-56.4 181.4,-47.59 177.18,-53.18"/>
</g>
<!-- Node6 -->
<g id="node6" class="node">
<title>Node6</title>
<g id="a_node6"><a xlink:href="Checkbox_8cpp.html" target="_top" xlink:title="Implementation of UI Checkbox.">
<polygon fill="white" stroke="black" points="207.5,-0.5 207.5,-19.5 346.5,-19.5 346.5,-0.5 207.5,-0.5"/>
<text text-anchor="middle" x="277" y="-7.5" font-family="Helvetica,sans-Serif" font-size="10.00">src/entities/ui/Checkbox.cpp</text>
</a>
</g>
</g>
<!-- Node5&#45;&gt;Node6 -->
<g id="edge5" class="edge">
<title>Node5&#45;&gt;Node6</title>
<path fill="none" stroke="midnightblue" d="M301.12,-47.8C294.67,-37.96 287.51,-27.03 282.67,-19.66"/>
<polygon fill="midnightblue" stroke="midnightblue" points="298.35,-49.95 306.76,-56.4 304.2,-46.12 298.35,-49.95"/>
</g>
<!-- Node8 -->
<g id="node8" class="node">
<title>Node8</title>
<g id="a_node8"><a xlink:href="Image_8cpp.html" target="_top" xlink:title="Texturable ui element.">
<polygon fill="white" stroke="black" points="364.5,-0.5 364.5,-19.5 487.5,-19.5 487.5,-0.5 364.5,-0.5"/>
<text text-anchor="middle" x="426" y="-7.5" font-family="Helvetica,sans-Serif" font-size="10.00">src/entities/ui/Image.cpp</text>
</a>
</g>
</g>
<!-- Node7&#45;&gt;Node8 -->
<g id="edge7" class="edge">
<title>Node7&#45;&gt;Node8</title>
<path fill="none" stroke="midnightblue" d="M426,-46.29C426,-36.86 426,-26.65 426,-19.66"/>
<polygon fill="midnightblue" stroke="midnightblue" points="422.5,-46.4 426,-56.4 429.5,-46.4 422.5,-46.4"/>
</g>
<!-- Node10 -->
<g id="node10" class="node">
<title>Node10</title>
<g id="a_node10"><a xlink:href="Inputbox_8cpp.html" target="_top" xlink:title="Implementation of UI Inputbox.">
<polygon fill="white" stroke="black" points="505.5,-0.5 505.5,-19.5 638.5,-19.5 638.5,-0.5 505.5,-0.5"/>
<text text-anchor="middle" x="572" y="-7.5" font-family="Helvetica,sans-Serif" font-size="10.00">src/entities/ui/Inputbox.cpp</text>
</a>
</g>
</g>
<!-- Node9&#45;&gt;Node10 -->
<g id="edge9" class="edge">
<title>Node9&#45;&gt;Node10</title>
<path fill="none" stroke="midnightblue" d="M561.23,-46.59C564.11,-37.08 567.24,-26.73 569.38,-19.66"/>
<polygon fill="midnightblue" stroke="midnightblue" points="557.81,-45.81 558.27,-56.4 564.51,-47.84 557.81,-45.81"/>
</g>
<!-- Node12 -->
<g id="node12" class="node">
<title>Node12</title>
<g id="a_node12"><a xlink:href="Label_8cpp.html" target="_top" xlink:title="Implementation of Label class.">
<polygon fill="white" stroke="black" points="657,-0.5 657,-19.5 777,-19.5 777,-0.5 657,-0.5"/>
<text text-anchor="middle" x="717" y="-7.5" font-family="Helvetica,sans-Serif" font-size="10.00">src/entities/ui/Label.cpp</text>
</a>
</g>
</g>
<!-- Node11&#45;&gt;Node12 -->
<g id="edge11" class="edge">
<title>Node11&#45;&gt;Node12</title>
<path fill="none" stroke="midnightblue" d="M706.83,-46.59C709.55,-37.08 712.51,-26.73 714.53,-19.66"/>
<polygon fill="midnightblue" stroke="midnightblue" points="703.41,-45.82 704.03,-56.4 710.14,-47.75 703.41,-45.82"/>
</g>
</g>
</svg>
