<?xml version="1.0" encoding="UTF-8" standalone="no"?>
<!DOCTYPE svg PUBLIC "-//W3C//DTD SVG 1.1//EN"
 "http://www.w3.org/Graphics/SVG/1.1/DTD/svg11.dtd">
<!-- Generated by graphviz version 2.46.1 (20210215.1649)
 -->
<!-- Title: src/entities/ui/UIElement.cpp Pages: 1 -->
<svg width="1996pt" height="364pt"
 viewBox="0.00 0.00 1995.74 364.00" xmlns="http://www.w3.org/2000/svg" xmlns:xlink="http://www.w3.org/1999/xlink">
<g id="graph0" class="graph" transform="scale(1 1) rotate(0) translate(4 360)">
<title>src/entities/ui/UIElement.cpp</title>
<polygon fill="white" stroke="transparent" points="-4,4 -4,-360 1991.74,-360 1991.74,4 -4,4"/>
<!-- Node1 -->
<g id="node1" class="node">
<title>Node1</title>
<g id="a_node1"><a xlink:title="Implementation of UIElement.">
<polygon fill="#bfbfbf" stroke="black" points="460.74,-336.5 460.74,-355.5 602.74,-355.5 602.74,-336.5 460.74,-336.5"/>
<text text-anchor="middle" x="531.74" y="-343.5" font-family="Helvetica,sans-Serif" font-size="10.00">src/entities/ui/UIElement.cpp</text>
</a>
</g>
</g>
<!-- Node2 -->
<g id="node2" class="node">
<title>Node2</title>
<g id="a_node2"><a xlink:href="UIElement_8h.html" target="_top" xlink:title="Parent class of many other UIElement subclasses. Handles most things that all UIElements may need.">
<polygon fill="white" stroke="black" points="64.24,-224.5 64.24,-243.5 179.24,-243.5 179.24,-224.5 64.24,-224.5"/>
<text text-anchor="middle" x="121.74" y="-231.5" font-family="Helvetica,sans-Serif" font-size="10.00">entities/ui/UIElement.h</text>
</a>
</g>
</g>
<!-- Node1&#45;&gt;Node2 -->
<g id="edge1" class="edge">
<title>Node1&#45;&gt;Node2</title>
<path fill="none" stroke="midnightblue" d="M499.9,-336.46C426.49,-316.76 245.31,-268.15 163.28,-246.15"/>
<polygon fill="midnightblue" stroke="midnightblue" points="164.11,-242.75 153.55,-243.53 162.3,-249.51 164.11,-242.75"/>
</g>
<!-- Node4 -->
<g id="node4" class="node">
<title>Node4</title>
<g id="a_node4"><a xlink:title=" ">
<polygon fill="white" stroke="#bfbfbf" points="774.24,-56.5 774.24,-75.5 815.24,-75.5 815.24,-56.5 774.24,-56.5"/>
<text text-anchor="middle" x="794.74" y="-63.5" font-family="Helvetica,sans-Serif" font-size="10.00">string</text>
</a>
</g>
</g>
<!-- Node1&#45;&gt;Node4 -->
<g id="edge13" class="edge">
<title>Node1&#45;&gt;Node4</title>
<path fill="none" stroke="midnightblue" d="M549.85,-336.3C579.65,-320.57 635.74,-284.41 635.74,-235 635.74,-235 635.74,-235 635.74,-177 635.74,-115.21 717.95,-85.41 764.14,-73.54"/>
<polygon fill="midnightblue" stroke="midnightblue" points="765.06,-76.91 773.95,-71.15 763.4,-70.11 765.06,-76.91"/>
</g>
<!-- Node12 -->
<g id="node12" class="node">
<title>Node12</title>
<g id="a_node12"><a xlink:href="Scene_8h.html" target="_top" xlink:title="Parent scene class. Children can be added to scene manager.">
<polygon fill="white" stroke="black" points="388.24,-280.5 388.24,-299.5 469.24,-299.5 469.24,-280.5 388.24,-280.5"/>
<text text-anchor="middle" x="428.74" y="-287.5" font-family="Helvetica,sans-Serif" font-size="10.00">scene/Scene.h</text>
</a>
</g>
</g>
<!-- Node1&#45;&gt;Node12 -->
<g id="edge14" class="edge">
<title>Node1&#45;&gt;Node12</title>
<path fill="none" stroke="midnightblue" d="M515.19,-336.32C498.74,-327.7 473.3,-314.36 454.27,-304.39"/>
<polygon fill="midnightblue" stroke="midnightblue" points="455.73,-301.2 445.24,-299.65 452.47,-307.4 455.73,-301.2"/>
</g>
<!-- Node18 -->
<g id="node18" class="node">
<title>Node18</title>
<g id="a_node18"><a xlink:href="Services_8h.html" target="_top" xlink:title="Implementation of core Services class.">
<polygon fill="white" stroke="black" points="805.74,-224.5 805.74,-243.5 915.74,-243.5 915.74,-224.5 805.74,-224.5"/>
<text text-anchor="middle" x="860.74" y="-231.5" font-family="Helvetica,sans-Serif" font-size="10.00">../services/Services.h</text>
</a>
</g>
</g>
<!-- Node1&#45;&gt;Node18 -->
<g id="edge80" class="edge">
<title>Node1&#45;&gt;Node18</title>
<path fill="none" stroke="midnightblue" d="M557.28,-336.46C615.58,-316.97 758.57,-269.16 825.33,-246.84"/>
<polygon fill="midnightblue" stroke="midnightblue" points="826.61,-250.1 834.98,-243.61 824.39,-243.46 826.61,-250.1"/>
</g>
<!-- Node3 -->
<g id="node3" class="node">
<title>Node3</title>
<g id="a_node3"><a xlink:title=" ">
<polygon fill="white" stroke="#bfbfbf" points="16.24,-168.5 16.24,-187.5 75.24,-187.5 75.24,-168.5 16.24,-168.5"/>
<text text-anchor="middle" x="45.74" y="-175.5" font-family="Helvetica,sans-Serif" font-size="10.00">functional</text>
</a>
</g>
</g>
<!-- Node2&#45;&gt;Node3 -->
<g id="edge2" class="edge">
<title>Node2&#45;&gt;Node3</title>
<path fill="none" stroke="midnightblue" d="M109.53,-224.32C97.96,-216.11 80.36,-203.6 66.58,-193.81"/>
<polygon fill="midnightblue" stroke="midnightblue" points="68.35,-190.77 58.17,-187.83 64.29,-196.48 68.35,-190.77"/>
</g>
<!-- Node2&#45;&gt;Node4 -->
<g id="edge3" class="edge">
<title>Node2&#45;&gt;Node4</title>
<path fill="none" stroke="midnightblue" d="M137.06,-224.32C162.66,-210.23 216.12,-182.47 264.74,-168 366.01,-137.85 399.76,-166.19 499.74,-132 517.05,-126.08 518.48,-118.1 535.74,-112 615.12,-83.96 714.58,-72.96 763.96,-69.01"/>
<polygon fill="midnightblue" stroke="midnightblue" points="764.29,-72.49 774,-68.25 763.76,-65.51 764.29,-72.49"/>
</g>
<!-- Node5 -->
<g id="node5" class="node">
<title>Node5</title>
<g id="a_node5"><a xlink:href="Font_8h.html" target="_top" xlink:title="Easy interface to interact with SDL fonts.">
<polygon fill="white" stroke="black" points="364.24,-112.5 364.24,-131.5 455.24,-131.5 455.24,-112.5 364.24,-112.5"/>
<text text-anchor="middle" x="409.74" y="-119.5" font-family="Helvetica,sans-Serif" font-size="10.00">../../assets/Font.h</text>
</a>
</g>
</g>
<!-- Node2&#45;&gt;Node5 -->
<g id="edge4" class="edge">
<title>Node2&#45;&gt;Node5</title>
<path fill="none" stroke="midnightblue" d="M77.32,-224.49C35.17,-214.52 -18.3,-195.76 6.74,-168 56.87,-112.41 261.66,-140.03 353.99,-131.79"/>
<polygon fill="midnightblue" stroke="midnightblue" points="354.59,-135.25 364.15,-130.67 353.83,-128.29 354.59,-135.25"/>
</g>
<!-- Node9 -->
<g id="node9" class="node">
<title>Node9</title>
<g id="a_node9"><a xlink:href="GameObject_8h.html" target="_top" xlink:title="Implementation of GameObject class.">
<polygon fill="white" stroke="black" points="93.74,-168.5 93.74,-187.5 179.74,-187.5 179.74,-168.5 93.74,-168.5"/>
<text text-anchor="middle" x="136.74" y="-175.5" font-family="Helvetica,sans-Serif" font-size="10.00">../GameObject.h</text>
</a>
</g>
</g>
<!-- Node2&#45;&gt;Node9 -->
<g id="edge9" class="edge">
<title>Node2&#45;&gt;Node9</title>
<path fill="none" stroke="midnightblue" d="M124.21,-224.08C126.22,-216.85 129.12,-206.41 131.63,-197.4"/>
<polygon fill="midnightblue" stroke="midnightblue" points="135,-198.32 134.3,-187.75 128.26,-196.45 135,-198.32"/>
</g>
<!-- Node5&#45;&gt;Node4 -->
<g id="edge6" class="edge">
<title>Node5&#45;&gt;Node4</title>
<path fill="none" stroke="midnightblue" d="M455.26,-114.12C460.15,-113.39 465.04,-112.68 469.74,-112 577.78,-96.42 706.2,-78.95 763.93,-71.15"/>
<polygon fill="midnightblue" stroke="midnightblue" points="764.75,-74.57 774.19,-69.76 763.81,-67.63 764.75,-74.57"/>
</g>
<!-- Node6 -->
<g id="node6" class="node">
<title>Node6</title>
<g id="a_node6"><a xlink:title=" ">
<polygon fill="white" stroke="#bfbfbf" points="366.74,-56.5 366.74,-75.5 452.74,-75.5 452.74,-56.5 366.74,-56.5"/>
<text text-anchor="middle" x="409.74" y="-63.5" font-family="Helvetica,sans-Serif" font-size="10.00">SDL2/SDL_ttf.h</text>
</a>
</g>
</g>
<!-- Node5&#45;&gt;Node6 -->
<g id="edge5" class="edge">
<title>Node5&#45;&gt;Node6</title>
<path fill="none" stroke="midnightblue" d="M409.74,-112.08C409.74,-105.01 409.74,-94.86 409.74,-85.99"/>
<polygon fill="midnightblue" stroke="midnightblue" points="413.24,-85.75 409.74,-75.75 406.24,-85.75 413.24,-85.75"/>
</g>
<!-- Node7 -->
<g id="node7" class="node">
<title>Node7</title>
<g id="a_node7"><a xlink:href="Color_8h.html" target="_top" xlink:title="Helpers for creating colors without accessing SDL api directly.">
<polygon fill="white" stroke="black" points="254.74,-56.5 254.74,-75.5 332.74,-75.5 332.74,-56.5 254.74,-56.5"/>
<text text-anchor="middle" x="293.74" y="-63.5" font-family="Helvetica,sans-Serif" font-size="10.00">../color/Color.h</text>
</a>
</g>
</g>
<!-- Node5&#45;&gt;Node7 -->
<g id="edge7" class="edge">
<title>Node5&#45;&gt;Node7</title>
<path fill="none" stroke="midnightblue" d="M391.36,-112.44C372.52,-103.68 343,-89.94 321.36,-79.86"/>
<polygon fill="midnightblue" stroke="midnightblue" points="322.57,-76.56 312.03,-75.52 319.62,-82.91 322.57,-76.56"/>
</g>
<!-- Node8 -->
<g id="node8" class="node">
<title>Node8</title>
<g id="a_node8"><a xlink:title=" ">
<polygon fill="white" stroke="#bfbfbf" points="224.74,-0.5 224.74,-19.5 362.74,-19.5 362.74,-0.5 224.74,-0.5"/>
<text text-anchor="middle" x="293.74" y="-7.5" font-family="Helvetica,sans-Serif" font-size="10.00">SDL2/SDL2_gfxPrimitives.h</text>
</a>
</g>
</g>
<!-- Node7&#45;&gt;Node8 -->
<g id="edge8" class="edge">
<title>Node7&#45;&gt;Node8</title>
<path fill="none" stroke="midnightblue" d="M293.74,-56.08C293.74,-49.01 293.74,-38.86 293.74,-29.99"/>
<polygon fill="midnightblue" stroke="midnightblue" points="297.24,-29.75 293.74,-19.75 290.24,-29.75 297.24,-29.75"/>
</g>
<!-- Node9&#45;&gt;Node4 -->
<g id="edge11" class="edge">
<title>Node9&#45;&gt;Node4</title>
<path fill="none" stroke="midnightblue" d="M179.98,-170.06C184.62,-169.35 189.27,-168.65 193.74,-168 313.97,-150.52 348.09,-166.01 464.74,-132 484.97,-126.1 487.57,-118.14 507.74,-112 598.47,-84.39 710.76,-73.06 763.98,-68.99"/>
<polygon fill="midnightblue" stroke="midnightblue" points="764.4,-72.47 774.12,-68.25 763.89,-65.49 764.4,-72.47"/>
</g>
<!-- Node10 -->
<g id="node10" class="node">
<title>Node10</title>
<g id="a_node10"><a xlink:title=" ">
<polygon fill="white" stroke="#bfbfbf" points="121.24,-56.5 121.24,-75.5 192.24,-75.5 192.24,-56.5 121.24,-56.5"/>
<text text-anchor="middle" x="156.74" y="-63.5" font-family="Helvetica,sans-Serif" font-size="10.00">SDL2/SDL.h</text>
</a>
</g>
</g>
<!-- Node9&#45;&gt;Node10 -->
<g id="edge10" class="edge">
<title>Node9&#45;&gt;Node10</title>
<path fill="none" stroke="midnightblue" d="M109.87,-168.48C80.68,-157.71 40.27,-137.47 56.74,-112 68.91,-93.18 91.03,-82.15 111.38,-75.73"/>
<polygon fill="midnightblue" stroke="midnightblue" points="112.53,-79.04 121.18,-72.93 110.6,-72.31 112.53,-79.04"/>
</g>
<!-- Node11 -->
<g id="node11" class="node">
<title>Node11</title>
<g id="a_node11"><a xlink:title=" ">
<polygon fill="white" stroke="#bfbfbf" points="65.74,-112.5 65.74,-131.5 109.74,-131.5 109.74,-112.5 65.74,-112.5"/>
<text text-anchor="middle" x="87.74" y="-119.5" font-family="Helvetica,sans-Serif" font-size="10.00">vector</text>
</a>
</g>
</g>
<!-- Node9&#45;&gt;Node11 -->
<g id="edge12" class="edge">
<title>Node9&#45;&gt;Node11</title>
<path fill="none" stroke="midnightblue" d="M128.64,-168.08C121.58,-160.3 111.15,-148.8 102.59,-139.37"/>
<polygon fill="midnightblue" stroke="midnightblue" points="104.99,-136.8 95.68,-131.75 99.8,-141.51 104.99,-136.8"/>
</g>
<!-- Node12&#45;&gt;Node4 -->
<g id="edge17" class="edge">
<title>Node12&#45;&gt;Node4</title>
<path fill="none" stroke="midnightblue" d="M452.52,-280.5C468.46,-273.41 488.2,-261.61 497.74,-244 513.94,-214.09 469.92,-196.34 488.74,-168 489.29,-167.17 620.79,-112.32 621.74,-112 670.75,-95.4 729.31,-81.33 764.19,-73.54"/>
<polygon fill="midnightblue" stroke="midnightblue" points="765.2,-76.9 774.21,-71.33 763.7,-70.07 765.2,-76.9"/>
</g>
<!-- Node12&#45;&gt;Node9 -->
<g id="edge23" class="edge">
<title>Node12&#45;&gt;Node9</title>
<path fill="none" stroke="midnightblue" d="M388.1,-284.25C347.26,-278.45 283.16,-266.49 231.74,-244 202.47,-231.2 172.71,-209.04 154.49,-194.2"/>
<polygon fill="midnightblue" stroke="midnightblue" points="156.45,-191.28 146.52,-187.58 151.97,-196.67 156.45,-191.28"/>
</g>
<!-- Node12&#45;&gt;Node11 -->
<g id="edge19" class="edge">
<title>Node12&#45;&gt;Node11</title>
<path fill="none" stroke="midnightblue" d="M394.29,-280.49C366.53,-272.92 326.96,-260.49 294.74,-244 243.13,-217.59 239.03,-196.83 188.74,-168 166.41,-155.2 139.77,-143.46 119.45,-135.19"/>
<polygon fill="midnightblue" stroke="midnightblue" points="120.62,-131.89 110.04,-131.42 118.02,-138.39 120.62,-131.89"/>
</g>
<!-- Node13 -->
<g id="node13" class="node">
<title>Node13</title>
<g id="a_node13"><a xlink:title=" ">
<polygon fill="white" stroke="#bfbfbf" points="1040.24,-112.5 1040.24,-131.5 1075.24,-131.5 1075.24,-112.5 1040.24,-112.5"/>
<text text-anchor="middle" x="1057.74" y="-119.5" font-family="Helvetica,sans-Serif" font-size="10.00">map</text>
</a>
</g>
</g>
<!-- Node12&#45;&gt;Node13 -->
<g id="edge15" class="edge">
<title>Node12&#45;&gt;Node13</title>
<path fill="none" stroke="midnightblue" d="M469.24,-287.08C625.41,-279.25 1182.26,-247.31 1231.74,-188 1263.34,-150.11 1228.03,-176.45 1085.05,-133.18"/>
<polygon fill="midnightblue" stroke="midnightblue" points="1086.07,-129.83 1075.48,-130.22 1084,-136.52 1086.07,-129.83"/>
</g>
<!-- Node14 -->
<g id="node14" class="node">
<title>Node14</title>
<g id="a_node14"><a xlink:title=" ">
<polygon fill="white" stroke="#bfbfbf" points="390.24,-168.5 390.24,-187.5 441.24,-187.5 441.24,-168.5 390.24,-168.5"/>
<text text-anchor="middle" x="415.74" y="-175.5" font-family="Helvetica,sans-Serif" font-size="10.00">memory</text>
</a>
</g>
</g>
<!-- Node12&#45;&gt;Node14 -->
<g id="edge16" class="edge">
<title>Node12&#45;&gt;Node14</title>
<path fill="none" stroke="midnightblue" d="M387.94,-286.31C358.94,-282.01 321.87,-271.15 302.74,-244 280.26,-212.11 339.3,-193.69 380.26,-185.07"/>
<polygon fill="midnightblue" stroke="midnightblue" points="381.1,-188.47 390.22,-183.08 379.73,-181.6 381.1,-188.47"/>
</g>
<!-- Node15 -->
<g id="node15" class="node">
<title>Node15</title>
<g id="a_node15"><a xlink:title=" ">
<polygon fill="white" stroke="#bfbfbf" points="312.24,-224.5 312.24,-243.5 351.24,-243.5 351.24,-224.5 312.24,-224.5"/>
<text text-anchor="middle" x="331.74" y="-231.5" font-family="Helvetica,sans-Serif" font-size="10.00">utility</text>
</a>
</g>
</g>
<!-- Node12&#45;&gt;Node15 -->
<g id="edge18" class="edge">
<title>Node12&#45;&gt;Node15</title>
<path fill="none" stroke="midnightblue" d="M413.15,-280.32C397.74,-271.74 373.92,-258.49 356.03,-248.52"/>
<polygon fill="midnightblue" stroke="midnightblue" points="357.72,-245.46 347.28,-243.65 354.32,-251.58 357.72,-245.46"/>
</g>
<!-- Node16 -->
<g id="node16" class="node">
<title>Node16</title>
<g id="a_node16"><a xlink:href="Exceptions_8h.html" target="_top" xlink:title="Interally used exceptions. These can be handled properly in the main game class.">
<polygon fill="white" stroke="black" points="369.24,-224.5 369.24,-243.5 488.24,-243.5 488.24,-224.5 369.24,-224.5"/>
<text text-anchor="middle" x="428.74" y="-231.5" font-family="Helvetica,sans-Serif" font-size="10.00">../common/Exceptions.h</text>
</a>
</g>
</g>
<!-- Node12&#45;&gt;Node16 -->
<g id="edge20" class="edge">
<title>Node12&#45;&gt;Node16</title>
<path fill="none" stroke="midnightblue" d="M428.74,-280.08C428.74,-273.01 428.74,-262.86 428.74,-253.99"/>
<polygon fill="midnightblue" stroke="midnightblue" points="432.24,-253.75 428.74,-243.75 425.24,-253.75 432.24,-253.75"/>
</g>
<!-- Node12&#45;&gt;Node18 -->
<g id="edge24" class="edge">
<title>Node12&#45;&gt;Node18</title>
<path fill="none" stroke="midnightblue" d="M469.38,-283.92C544.31,-274.55 704.82,-254.49 795.28,-243.18"/>
<polygon fill="midnightblue" stroke="midnightblue" points="795.93,-246.63 805.41,-241.92 795.06,-239.68 795.93,-246.63"/>
</g>
<!-- Node16&#45;&gt;Node4 -->
<g id="edge22" class="edge">
<title>Node16&#45;&gt;Node4</title>
<path fill="none" stroke="midnightblue" d="M414.65,-224.41C395.72,-211.8 366.16,-187.64 381.74,-168 425.42,-112.93 468.84,-153.59 535.74,-132 557.73,-124.9 561.67,-118.88 583.74,-112 646.56,-92.4 722.54,-78.5 764.03,-71.72"/>
<polygon fill="midnightblue" stroke="midnightblue" points="764.73,-75.15 774.04,-70.11 763.61,-68.24 764.73,-75.15"/>
</g>
<!-- Node17 -->
<g id="node17" class="node">
<title>Node17</title>
<g id="a_node17"><a xlink:title=" ">
<polygon fill="white" stroke="#bfbfbf" points="274.24,-168.5 274.24,-187.5 333.24,-187.5 333.24,-168.5 274.24,-168.5"/>
<text text-anchor="middle" x="303.74" y="-175.5" font-family="Helvetica,sans-Serif" font-size="10.00">stdexcept</text>
</a>
</g>
</g>
<!-- Node16&#45;&gt;Node17 -->
<g id="edge21" class="edge">
<title>Node16&#45;&gt;Node17</title>
<path fill="none" stroke="midnightblue" d="M408.93,-224.44C388.45,-215.6 356.25,-201.69 332.87,-191.59"/>
<polygon fill="midnightblue" stroke="midnightblue" points="334.02,-188.27 323.45,-187.52 331.24,-194.7 334.02,-188.27"/>
</g>
<!-- Node18&#45;&gt;Node14 -->
<g id="edge25" class="edge">
<title>Node18&#45;&gt;Node14</title>
<path fill="none" stroke="midnightblue" d="M805.58,-226.37C732.95,-217.63 601.26,-201.74 488.74,-188 476.58,-186.52 463.29,-184.88 451.41,-183.42"/>
<polygon fill="midnightblue" stroke="midnightblue" points="451.76,-179.93 441.41,-182.18 450.91,-186.88 451.76,-179.93"/>
</g>
<!-- Node19 -->
<g id="node19" class="node">
<title>Node19</title>
<g id="a_node19"><a xlink:href="AssetService_8h.html" target="_top" xlink:title="Implementation of AssetService.">
<polygon fill="white" stroke="black" points="1107.24,-168.5 1107.24,-187.5 1222.24,-187.5 1222.24,-168.5 1107.24,-168.5"/>
<text text-anchor="middle" x="1164.74" y="-175.5" font-family="Helvetica,sans-Serif" font-size="10.00">assets/AssetService.h</text>
</a>
</g>
</g>
<!-- Node18&#45;&gt;Node19 -->
<g id="edge26" class="edge">
<title>Node18&#45;&gt;Node19</title>
<path fill="none" stroke="midnightblue" d="M908.91,-224.44C962.6,-214.9 1049.42,-199.48 1106.79,-189.29"/>
<polygon fill="midnightblue" stroke="midnightblue" points="1107.56,-192.71 1116.79,-187.52 1106.33,-185.82 1107.56,-192.71"/>
</g>
<!-- Node24 -->
<g id="node24" class="node">
<title>Node24</title>
<g id="a_node24"><a xlink:href="AudioService_8h.html" target="_top" xlink:title="Default audio service, can actually play audio.">
<polygon fill="white" stroke="black" points="1410.74,-168.5 1410.74,-187.5 1518.74,-187.5 1518.74,-168.5 1410.74,-168.5"/>
<text text-anchor="middle" x="1464.74" y="-175.5" font-family="Helvetica,sans-Serif" font-size="10.00">audio/AudioService.h</text>
</a>
</g>
</g>
<!-- Node18&#45;&gt;Node24 -->
<g id="edge40" class="edge">
<title>Node18&#45;&gt;Node24</title>
<path fill="none" stroke="midnightblue" d="M915.75,-229.5C1011.88,-223.15 1216.92,-208.55 1400.36,-188.09"/>
<polygon fill="midnightblue" stroke="midnightblue" points="1400.92,-191.55 1410.47,-186.96 1400.14,-184.6 1400.92,-191.55"/>
</g>
<!-- Node25 -->
<g id="node25" class="node">
<title>Node25</title>
<g id="a_node25"><a xlink:href="ConfigService_8h.html" target="_top" xlink:title="Header for default Config Service.">
<polygon fill="white" stroke="black" points="1279.24,-168.5 1279.24,-187.5 1392.24,-187.5 1392.24,-168.5 1279.24,-168.5"/>
<text text-anchor="middle" x="1335.74" y="-175.5" font-family="Helvetica,sans-Serif" font-size="10.00">config/ConfigService.h</text>
</a>
</g>
</g>
<!-- Node18&#45;&gt;Node25 -->
<g id="edge44" class="edge">
<title>Node18&#45;&gt;Node25</title>
<path fill="none" stroke="midnightblue" d="M916.15,-226.7C1003.99,-216.71 1174.87,-197.29 1269.2,-186.56"/>
<polygon fill="midnightblue" stroke="midnightblue" points="1269.66,-190.03 1279.2,-185.43 1268.87,-183.08 1269.66,-190.03"/>
</g>
<!-- Node27 -->
<g id="node27" class="node">
<title>Node27</title>
<g id="a_node27"><a xlink:href="DisplayService_8h.html" target="_top" xlink:title="Service that encapsulates SDL display related functionality.">
<polygon fill="white" stroke="black" points="663.74,-168.5 663.74,-187.5 785.74,-187.5 785.74,-168.5 663.74,-168.5"/>
<text text-anchor="middle" x="724.74" y="-175.5" font-family="Helvetica,sans-Serif" font-size="10.00">display/DisplayService.h</text>
</a>
</g>
</g>
<!-- Node18&#45;&gt;Node27 -->
<g id="edge48" class="edge">
<title>Node18&#45;&gt;Node27</title>
<path fill="none" stroke="midnightblue" d="M839.19,-224.44C816.7,-215.52 781.25,-201.44 755.76,-191.32"/>
<polygon fill="midnightblue" stroke="midnightblue" points="756.77,-187.95 746.18,-187.52 754.19,-194.46 756.77,-187.95"/>
</g>
<!-- Node30 -->
<g id="node30" class="node">
<title>Node30</title>
<g id="a_node30"><a xlink:href="EventQueue_8h.html" target="_top" xlink:title="Handles SDL_Events from main SDL_Queue. Can be hooked into by other services and notified when change...">
<polygon fill="white" stroke="black" points="497.74,-168.5 497.74,-187.5 607.74,-187.5 607.74,-168.5 497.74,-168.5"/>
<text text-anchor="middle" x="552.74" y="-175.5" font-family="Helvetica,sans-Serif" font-size="10.00">events/EventQueue.h</text>
</a>
</g>
</g>
<!-- Node18&#45;&gt;Node30 -->
<g id="edge55" class="edge">
<title>Node18&#45;&gt;Node30</title>
<path fill="none" stroke="midnightblue" d="M811.93,-224.44C757.53,-214.9 669.57,-199.48 611.44,-189.29"/>
<polygon fill="midnightblue" stroke="midnightblue" points="611.77,-185.8 601.31,-187.52 610.56,-192.69 611.77,-185.8"/>
</g>
<!-- Node31 -->
<g id="node31" class="node">
<title>Node31</title>
<g id="a_node31"><a xlink:href="InputService_8h.html" target="_top" xlink:title="General Purpose input listener. Handles Mouse, Keyboard, Joystick.">
<polygon fill="white" stroke="black" points="1566.24,-168.5 1566.24,-187.5 1669.24,-187.5 1669.24,-168.5 1566.24,-168.5"/>
<text text-anchor="middle" x="1617.74" y="-175.5" font-family="Helvetica,sans-Serif" font-size="10.00">input/InputService.h</text>
</a>
</g>
</g>
<!-- Node18&#45;&gt;Node31 -->
<g id="edge59" class="edge">
<title>Node18&#45;&gt;Node31</title>
<path fill="none" stroke="midnightblue" d="M916.12,-229.87C1030.49,-223.27 1301.05,-206.98 1527.74,-188 1536.81,-187.24 1546.4,-186.36 1555.8,-185.46"/>
<polygon fill="midnightblue" stroke="midnightblue" points="1556.27,-188.93 1565.89,-184.47 1555.59,-181.96 1556.27,-188.93"/>
</g>
<!-- Node39 -->
<g id="node39" class="node">
<title>Node39</title>
<g id="a_node39"><a xlink:href="DebugLoggingService_8h.html" target="_top" xlink:title="Logging service that does the logging. Used for development.">
<polygon fill="white" stroke="black" points="936.24,-168.5 936.24,-187.5 1089.24,-187.5 1089.24,-168.5 936.24,-168.5"/>
<text text-anchor="middle" x="1012.74" y="-175.5" font-family="Helvetica,sans-Serif" font-size="10.00">logging/DebugLoggingService.h</text>
</a>
</g>
</g>
<!-- Node18&#45;&gt;Node39 -->
<g id="edge72" class="edge">
<title>Node18&#45;&gt;Node39</title>
<path fill="none" stroke="midnightblue" d="M884.82,-224.44C910.28,-215.4 950.63,-201.06 979.19,-190.92"/>
<polygon fill="midnightblue" stroke="midnightblue" points="980.51,-194.16 988.76,-187.52 978.17,-187.57 980.51,-194.16"/>
</g>
<!-- Node41 -->
<g id="node41" class="node">
<title>Node41</title>
<g id="a_node41"><a xlink:href="SceneService_8h.html" target="_top" xlink:title="Service in charge of managing scenes.">
<polygon fill="white" stroke="black" points="803.74,-168.5 803.74,-187.5 917.74,-187.5 917.74,-168.5 803.74,-168.5"/>
<text text-anchor="middle" x="860.74" y="-175.5" font-family="Helvetica,sans-Serif" font-size="10.00">scene/SceneService.h</text>
</a>
</g>
</g>
<!-- Node18&#45;&gt;Node41 -->
<g id="edge76" class="edge">
<title>Node18&#45;&gt;Node41</title>
<path fill="none" stroke="midnightblue" d="M860.74,-224.08C860.74,-217.01 860.74,-206.86 860.74,-197.99"/>
<polygon fill="midnightblue" stroke="midnightblue" points="864.24,-197.75 860.74,-187.75 857.24,-197.75 864.24,-197.75"/>
</g>
<!-- Node19&#45;&gt;Node4 -->
<g id="edge28" class="edge">
<title>Node19&#45;&gt;Node4</title>
<path fill="none" stroke="midnightblue" d="M1135.48,-168.46C1108.22,-160.19 1066.65,-146.76 1031.74,-132 1013.79,-124.41 1011.04,-118.66 992.74,-112 935.38,-91.15 865.04,-77.92 825.52,-71.54"/>
<polygon fill="midnightblue" stroke="midnightblue" points="825.88,-68.05 815.46,-69.96 824.79,-74.97 825.88,-68.05"/>
</g>
<!-- Node19&#45;&gt;Node5 -->
<g id="edge29" class="edge">
<title>Node19&#45;&gt;Node5</title>
<path fill="none" stroke="midnightblue" d="M1107.17,-168.91C1104.32,-168.58 1101.5,-168.28 1098.74,-168 864,-144.36 582.97,-130.47 465.56,-125.31"/>
<polygon fill="midnightblue" stroke="midnightblue" points="465.52,-121.81 455.38,-124.87 465.22,-128.8 465.52,-121.81"/>
</g>
<!-- Node19&#45;&gt;Node13 -->
<g id="edge27" class="edge">
<title>Node19&#45;&gt;Node13</title>
<path fill="none" stroke="midnightblue" d="M1147.54,-168.32C1130.38,-159.66 1103.79,-146.24 1083.99,-136.25"/>
<polygon fill="midnightblue" stroke="midnightblue" points="1085.39,-133.04 1074.88,-131.65 1082.24,-139.28 1085.39,-133.04"/>
</g>
<!-- Node20 -->
<g id="node20" class="node">
<title>Node20</title>
<g id="a_node20"><a xlink:href="Sound_8h.html" target="_top" xlink:title="Implementation of Sound.">
<polygon fill="white" stroke="black" points="1253.24,-112.5 1253.24,-131.5 1352.24,-131.5 1352.24,-112.5 1253.24,-112.5"/>
<text text-anchor="middle" x="1302.74" y="-119.5" font-family="Helvetica,sans-Serif" font-size="10.00">../../assets/Sound.h</text>
</a>
</g>
</g>
<!-- Node19&#45;&gt;Node20 -->
<g id="edge30" class="edge">
<title>Node19&#45;&gt;Node20</title>
<path fill="none" stroke="midnightblue" d="M1186.6,-168.44C1209.52,-159.48 1245.71,-145.31 1271.6,-135.18"/>
<polygon fill="midnightblue" stroke="midnightblue" points="1272.93,-138.42 1280.97,-131.52 1270.38,-131.9 1272.93,-138.42"/>
</g>
<!-- Node22 -->
<g id="node22" class="node">
<title>Node22</title>
<g id="a_node22"><a xlink:href="Stream_8h.html" target="_top" xlink:title="Wrapper for sdl stream including ability to store stream pointer. Use for single instance sounds like...">
<polygon fill="white" stroke="black" points="1132.24,-112.5 1132.24,-131.5 1235.24,-131.5 1235.24,-112.5 1132.24,-112.5"/>
<text text-anchor="middle" x="1183.74" y="-119.5" font-family="Helvetica,sans-Serif" font-size="10.00">../../assets/Stream.h</text>
</a>
</g>
</g>
<!-- Node19&#45;&gt;Node22 -->
<g id="edge33" class="edge">
<title>Node19&#45;&gt;Node22</title>
<path fill="none" stroke="midnightblue" d="M1167.87,-168.08C1170.42,-160.85 1174.09,-150.41 1177.26,-141.4"/>
<polygon fill="midnightblue" stroke="midnightblue" points="1180.64,-142.35 1180.66,-131.75 1174.04,-140.02 1180.64,-142.35"/>
</g>
<!-- Node23 -->
<g id="node23" class="node">
<title>Node23</title>
<g id="a_node23"><a xlink:href="Texture_8h.html" target="_top" xlink:title="Easy interface to interact with sdl bitmaps.">
<polygon fill="white" stroke="black" points="241.74,-112.5 241.74,-131.5 345.74,-131.5 345.74,-112.5 241.74,-112.5"/>
<text text-anchor="middle" x="293.74" y="-119.5" font-family="Helvetica,sans-Serif" font-size="10.00">../../assets/Texture.h</text>
</a>
</g>
</g>
<!-- Node19&#45;&gt;Node23 -->
<g id="edge36" class="edge">
<title>Node19&#45;&gt;Node23</title>
<path fill="none" stroke="midnightblue" d="M1107.18,-168.85C1104.33,-168.54 1101.5,-168.25 1098.74,-168 772.46,-137.92 685.99,-163.66 356.26,-132.05"/>
<polygon fill="midnightblue" stroke="midnightblue" points="356.23,-128.53 345.94,-131.05 355.55,-135.49 356.23,-128.53"/>
</g>
<!-- Node20&#45;&gt;Node4 -->
<g id="edge32" class="edge">
<title>Node20&#45;&gt;Node4</title>
<path fill="none" stroke="midnightblue" d="M1253.09,-113.11C1250.26,-112.72 1247.47,-112.35 1244.74,-112 1087.68,-91.98 898.84,-75.58 825.74,-69.52"/>
<polygon fill="midnightblue" stroke="midnightblue" points="825.67,-66 815.41,-68.67 825.09,-72.98 825.67,-66"/>
</g>
<!-- Node21 -->
<g id="node21" class="node">
<title>Node21</title>
<g id="a_node21"><a xlink:title=" ">
<polygon fill="white" stroke="#bfbfbf" points="1192.74,-56.5 1192.74,-75.5 1292.74,-75.5 1292.74,-56.5 1192.74,-56.5"/>
<text text-anchor="middle" x="1242.74" y="-63.5" font-family="Helvetica,sans-Serif" font-size="10.00">SDL2/SDL_mixer.h</text>
</a>
</g>
</g>
<!-- Node20&#45;&gt;Node21 -->
<g id="edge31" class="edge">
<title>Node20&#45;&gt;Node21</title>
<path fill="none" stroke="midnightblue" d="M1293.1,-112.32C1284.23,-104.34 1270.86,-92.31 1260.13,-82.65"/>
<polygon fill="midnightblue" stroke="midnightblue" points="1262.33,-79.92 1252.55,-75.83 1257.64,-85.13 1262.33,-79.92"/>
</g>
<!-- Node22&#45;&gt;Node4 -->
<g id="edge35" class="edge">
<title>Node22&#45;&gt;Node4</title>
<path fill="none" stroke="midnightblue" d="M1132.08,-113.83C1050.05,-102.44 892.48,-80.57 825.78,-71.31"/>
<polygon fill="midnightblue" stroke="midnightblue" points="825.9,-67.79 815.51,-69.88 824.94,-74.73 825.9,-67.79"/>
</g>
<!-- Node22&#45;&gt;Node21 -->
<g id="edge34" class="edge">
<title>Node22&#45;&gt;Node21</title>
<path fill="none" stroke="midnightblue" d="M1193.22,-112.32C1201.94,-104.34 1215.08,-92.31 1225.63,-82.65"/>
<polygon fill="midnightblue" stroke="midnightblue" points="1228.07,-85.17 1233.08,-75.83 1223.34,-80 1228.07,-85.17"/>
</g>
<!-- Node23&#45;&gt;Node4 -->
<g id="edge38" class="edge">
<title>Node23&#45;&gt;Node4</title>
<path fill="none" stroke="midnightblue" d="M345.96,-113.14C348.93,-112.74 351.87,-112.36 354.74,-112 508.02,-92.86 692.11,-76.01 763.93,-69.67"/>
<polygon fill="midnightblue" stroke="midnightblue" points="764.43,-73.14 774.08,-68.78 763.81,-66.17 764.43,-73.14"/>
</g>
<!-- Node23&#45;&gt;Node7 -->
<g id="edge39" class="edge">
<title>Node23&#45;&gt;Node7</title>
<path fill="none" stroke="midnightblue" d="M293.74,-112.08C293.74,-105.01 293.74,-94.86 293.74,-85.99"/>
<polygon fill="midnightblue" stroke="midnightblue" points="297.24,-85.75 293.74,-75.75 290.24,-85.75 297.24,-85.75"/>
</g>
<!-- Node23&#45;&gt;Node10 -->
<g id="edge37" class="edge">
<title>Node23&#45;&gt;Node10</title>
<path fill="none" stroke="midnightblue" d="M272.03,-112.44C249.38,-103.52 213.66,-89.44 187.98,-79.32"/>
<polygon fill="midnightblue" stroke="midnightblue" points="188.93,-75.93 178.34,-75.52 186.36,-82.44 188.93,-75.93"/>
</g>
<!-- Node24&#45;&gt;Node4 -->
<g id="edge41" class="edge">
<title>Node24&#45;&gt;Node4</title>
<path fill="none" stroke="midnightblue" d="M1463.18,-168.46C1460.07,-154.04 1451.56,-125.15 1431.74,-112 1380.84,-78.24 945.62,-69.26 825.39,-67.41"/>
<polygon fill="midnightblue" stroke="midnightblue" points="825.44,-63.91 815.39,-67.26 825.34,-70.91 825.44,-63.91"/>
</g>
<!-- Node24&#45;&gt;Node20 -->
<g id="edge42" class="edge">
<title>Node24&#45;&gt;Node20</title>
<path fill="none" stroke="midnightblue" d="M1439.07,-168.44C1411.81,-159.36 1368.55,-144.94 1338.09,-134.78"/>
<polygon fill="midnightblue" stroke="midnightblue" points="1338.88,-131.36 1328.29,-131.52 1336.67,-138 1338.88,-131.36"/>
</g>
<!-- Node24&#45;&gt;Node22 -->
<g id="edge43" class="edge">
<title>Node24&#45;&gt;Node22</title>
<path fill="none" stroke="midnightblue" d="M1420.21,-168.44C1370.78,-158.94 1290.99,-143.61 1237.96,-133.42"/>
<polygon fill="midnightblue" stroke="midnightblue" points="1238.53,-129.97 1228.05,-131.52 1237.21,-136.84 1238.53,-129.97"/>
</g>
<!-- Node25&#45;&gt;Node4 -->
<g id="edge47" class="edge">
<title>Node25&#45;&gt;Node4</title>
<path fill="none" stroke="midnightblue" d="M1278.82,-169.12C1235.48,-162.12 1174.79,-150.15 1123.74,-132 1105.38,-125.48 1103.26,-118.01 1084.74,-112 993.38,-82.34 879.32,-71.96 825.53,-68.55"/>
<polygon fill="midnightblue" stroke="midnightblue" points="825.48,-65.04 815.29,-67.94 825.07,-72.03 825.48,-65.04"/>
</g>
<!-- Node25&#45;&gt;Node13 -->
<g id="edge45" class="edge">
<title>Node25&#45;&gt;Node13</title>
<path fill="none" stroke="midnightblue" d="M1280.72,-168.44C1230.67,-160.3 1154.87,-147.08 1089.74,-132 1088.26,-131.66 1086.75,-131.29 1085.23,-130.91"/>
<polygon fill="midnightblue" stroke="midnightblue" points="1085.83,-127.45 1075.27,-128.25 1084.02,-134.21 1085.83,-127.45"/>
</g>
<!-- Node26 -->
<g id="node26" class="node">
<title>Node26</title>
<g id="a_node26"><a xlink:title=" ">
<polygon fill="white" stroke="#bfbfbf" points="1370.74,-112.5 1370.74,-131.5 1422.74,-131.5 1422.74,-112.5 1370.74,-112.5"/>
<text text-anchor="middle" x="1396.74" y="-119.5" font-family="Helvetica,sans-Serif" font-size="10.00">sstream</text>
</a>
</g>
</g>
<!-- Node25&#45;&gt;Node26 -->
<g id="edge46" class="edge">
<title>Node25&#45;&gt;Node26</title>
<path fill="none" stroke="midnightblue" d="M1345.54,-168.32C1354.55,-160.34 1368.14,-148.31 1379.05,-138.65"/>
<polygon fill="midnightblue" stroke="midnightblue" points="1381.59,-141.08 1386.76,-131.83 1376.95,-135.84 1381.59,-141.08"/>
</g>
<!-- Node27&#45;&gt;Node4 -->
<g id="edge50" class="edge">
<title>Node27&#45;&gt;Node4</title>
<path fill="none" stroke="midnightblue" d="M722.05,-168.36C718.52,-155.26 713.84,-130 723.74,-112 732.45,-96.16 749.35,-85.12 764.48,-77.93"/>
<polygon fill="midnightblue" stroke="midnightblue" points="766.29,-80.96 774.06,-73.76 763.5,-74.54 766.29,-80.96"/>
</g>
<!-- Node27&#45;&gt;Node7 -->
<g id="edge51" class="edge">
<title>Node27&#45;&gt;Node7</title>
<path fill="none" stroke="midnightblue" d="M663.68,-171.68C532.32,-160.2 234.54,-133.97 232.74,-132 216.25,-113.94 243.36,-93.41 266.53,-80.34"/>
<polygon fill="midnightblue" stroke="midnightblue" points="268.28,-83.37 275.43,-75.55 264.97,-77.2 268.28,-83.37"/>
</g>
<!-- Node27&#45;&gt;Node10 -->
<g id="edge49" class="edge">
<title>Node27&#45;&gt;Node10</title>
<path fill="none" stroke="midnightblue" d="M663.52,-171.77C530.94,-160.4 228.69,-134.27 223.74,-132 200.58,-121.38 180.61,-99.31 168.63,-83.84"/>
<polygon fill="midnightblue" stroke="midnightblue" points="171.31,-81.58 162.54,-75.63 165.69,-85.75 171.31,-81.58"/>
</g>
<!-- Node28 -->
<g id="node28" class="node">
<title>Node28</title>
<g id="a_node28"><a xlink:href="Service_8h.html" target="_top" xlink:title="Service subscriber that can listen for events.">
<polygon fill="white" stroke="black" points="732.24,-112.5 732.24,-131.5 797.24,-131.5 797.24,-112.5 732.24,-112.5"/>
<text text-anchor="middle" x="764.74" y="-119.5" font-family="Helvetica,sans-Serif" font-size="10.00">../Service.h</text>
</a>
</g>
</g>
<!-- Node27&#45;&gt;Node28 -->
<g id="edge52" class="edge">
<title>Node27&#45;&gt;Node28</title>
<path fill="none" stroke="midnightblue" d="M731.34,-168.08C736.99,-160.46 745.28,-149.26 752.19,-139.94"/>
<polygon fill="midnightblue" stroke="midnightblue" points="755.11,-141.87 758.25,-131.75 749.49,-137.7 755.11,-141.87"/>
</g>
<!-- Node28&#45;&gt;Node4 -->
<g id="edge54" class="edge">
<title>Node28&#45;&gt;Node4</title>
<path fill="none" stroke="midnightblue" d="M769.69,-112.08C773.84,-104.61 779.89,-93.72 785,-84.52"/>
<polygon fill="midnightblue" stroke="midnightblue" points="788.08,-86.19 789.87,-75.75 781.96,-82.79 788.08,-86.19"/>
</g>
<!-- Node29 -->
<g id="node29" class="node">
<title>Node29</title>
<g id="a_node29"><a xlink:title=" ">
<polygon fill="white" stroke="#bfbfbf" points="1651.74,-56.5 1651.74,-75.5 1757.74,-75.5 1757.74,-56.5 1651.74,-56.5"/>
<text text-anchor="middle" x="1704.74" y="-63.5" font-family="Helvetica,sans-Serif" font-size="10.00">SDL2/SDL_events.h</text>
</a>
</g>
</g>
<!-- Node28&#45;&gt;Node29 -->
<g id="edge53" class="edge">
<title>Node28&#45;&gt;Node29</title>
<path fill="none" stroke="midnightblue" d="M797.27,-118.27C820.96,-116.34 853.82,-113.79 882.74,-112 1216.95,-91.34 1304.43,-107.99 1641.63,-76.01"/>
<polygon fill="midnightblue" stroke="midnightblue" points="1642.06,-79.48 1651.68,-75.05 1641.39,-72.51 1642.06,-79.48"/>
</g>
<!-- Node30&#45;&gt;Node10 -->
<g id="edge56" class="edge">
<title>Node30&#45;&gt;Node10</title>
<path fill="none" stroke="midnightblue" d="M497.7,-171.57C391.35,-160.97 167.51,-138 161.74,-132 150.1,-119.92 150.26,-100.04 152.46,-85.44"/>
<polygon fill="midnightblue" stroke="midnightblue" points="155.92,-86 154.38,-75.52 149.04,-84.67 155.92,-86"/>
</g>
<!-- Node30&#45;&gt;Node11 -->
<g id="edge57" class="edge">
<title>Node30&#45;&gt;Node11</title>
<path fill="none" stroke="midnightblue" d="M497.43,-172.17C398.31,-163.36 194.16,-144.43 123.74,-132 122.49,-131.78 121.22,-131.54 119.94,-131.28"/>
<polygon fill="midnightblue" stroke="midnightblue" points="120.62,-127.85 110.1,-129.11 119.11,-134.69 120.62,-127.85"/>
</g>
<!-- Node30&#45;&gt;Node28 -->
<g id="edge58" class="edge">
<title>Node30&#45;&gt;Node28</title>
<path fill="none" stroke="midnightblue" d="M586.33,-168.44C623.14,-159.07 682.26,-144.01 722.27,-133.82"/>
<polygon fill="midnightblue" stroke="midnightblue" points="723.17,-137.2 732,-131.34 721.44,-130.42 723.17,-137.2"/>
</g>
<!-- Node31&#45;&gt;Node4 -->
<g id="edge62" class="edge">
<title>Node31&#45;&gt;Node4</title>
<path fill="none" stroke="midnightblue" d="M1596.79,-168.5C1554.24,-151.26 1461.09,-113.67 1453.74,-112 1331.71,-84.36 938.91,-71.14 825.6,-67.85"/>
<polygon fill="midnightblue" stroke="midnightblue" points="825.62,-64.34 815.52,-67.56 825.42,-71.34 825.62,-64.34"/>
</g>
<!-- Node31&#45;&gt;Node28 -->
<g id="edge63" class="edge">
<title>Node31&#45;&gt;Node28</title>
<path fill="none" stroke="midnightblue" d="M1565.9,-171.42C1553.41,-170.19 1540.1,-168.96 1527.74,-168 1241.49,-145.71 1169.22,-150.92 882.74,-132 857.78,-130.35 829.88,-128.24 807.48,-126.47"/>
<polygon fill="midnightblue" stroke="midnightblue" points="807.52,-122.96 797.28,-125.66 806.97,-129.94 807.52,-122.96"/>
</g>
<!-- Node31&#45;&gt;Node29 -->
<g id="edge60" class="edge">
<title>Node31&#45;&gt;Node29</title>
<path fill="none" stroke="midnightblue" d="M1637.82,-168.43C1653.08,-160.93 1673.47,-148.64 1685.74,-132 1695.66,-118.54 1700.42,-99.98 1702.69,-86.14"/>
<polygon fill="midnightblue" stroke="midnightblue" points="1706.21,-86.21 1704.07,-75.84 1699.27,-85.28 1706.21,-86.21"/>
</g>
<!-- Node32 -->
<g id="node32" class="node">
<title>Node32</title>
<g id="a_node32"><a xlink:title=" ">
<polygon fill="white" stroke="#bfbfbf" points="1516.74,-112.5 1516.74,-131.5 1570.74,-131.5 1570.74,-112.5 1516.74,-112.5"/>
<text text-anchor="middle" x="1543.74" y="-119.5" font-family="Helvetica,sans-Serif" font-size="10.00">iostream</text>
</a>
</g>
</g>
<!-- Node31&#45;&gt;Node32 -->
<g id="edge61" class="edge">
<title>Node31&#45;&gt;Node32</title>
<path fill="none" stroke="midnightblue" d="M1605.85,-168.32C1594.59,-160.11 1577.45,-147.6 1564.03,-137.81"/>
<polygon fill="midnightblue" stroke="midnightblue" points="1565.98,-134.9 1555.84,-131.83 1561.86,-140.56 1565.98,-134.9"/>
</g>
<!-- Node33 -->
<g id="node33" class="node">
<title>Node33</title>
<g id="a_node33"><a xlink:href="JoystickState_8h.html" target="_top" xlink:title="Container for storing Joystick state.">
<polygon fill="white" stroke="black" points="1828.24,-112.5 1828.24,-131.5 1911.24,-131.5 1911.24,-112.5 1828.24,-112.5"/>
<text text-anchor="middle" x="1869.74" y="-119.5" font-family="Helvetica,sans-Serif" font-size="10.00">JoystickState.h</text>
</a>
</g>
</g>
<!-- Node31&#45;&gt;Node33 -->
<g id="edge64" class="edge">
<title>Node31&#45;&gt;Node33</title>
<path fill="none" stroke="midnightblue" d="M1657.67,-168.44C1701.63,-159.02 1772.36,-143.87 1819.92,-133.68"/>
<polygon fill="midnightblue" stroke="midnightblue" points="1820.95,-137.03 1829.99,-131.52 1819.48,-130.19 1820.95,-137.03"/>
</g>
<!-- Node35 -->
<g id="node35" class="node">
<title>Node35</title>
<g id="a_node35"><a xlink:href="KeyboardState_8h.html" target="_top" xlink:title="Container for storing Keyboard state.">
<polygon fill="white" stroke="black" points="1588.74,-112.5 1588.74,-131.5 1676.74,-131.5 1676.74,-112.5 1588.74,-112.5"/>
<text text-anchor="middle" x="1632.74" y="-119.5" font-family="Helvetica,sans-Serif" font-size="10.00">KeyboardState.h</text>
</a>
</g>
</g>
<!-- Node31&#45;&gt;Node35 -->
<g id="edge67" class="edge">
<title>Node31&#45;&gt;Node35</title>
<path fill="none" stroke="midnightblue" d="M1620.21,-168.08C1622.22,-160.85 1625.12,-150.41 1627.63,-141.4"/>
<polygon fill="midnightblue" stroke="midnightblue" points="1631,-142.32 1630.3,-131.75 1624.26,-140.45 1631,-142.32"/>
</g>
<!-- Node37 -->
<g id="node37" class="node">
<title>Node37</title>
<g id="a_node37"><a xlink:href="MouseState_8h.html" target="_top" xlink:title="Container for storing Mouse state.">
<polygon fill="white" stroke="black" points="1733.24,-112.5 1733.24,-131.5 1810.24,-131.5 1810.24,-112.5 1733.24,-112.5"/>
<text text-anchor="middle" x="1771.74" y="-119.5" font-family="Helvetica,sans-Serif" font-size="10.00">MouseState.h</text>
</a>
</g>
</g>
<!-- Node31&#45;&gt;Node37 -->
<g id="edge69" class="edge">
<title>Node31&#45;&gt;Node37</title>
<path fill="none" stroke="midnightblue" d="M1642.14,-168.44C1667.93,-159.4 1708.81,-145.06 1737.75,-134.92"/>
<polygon fill="midnightblue" stroke="midnightblue" points="1739.17,-138.13 1747.45,-131.52 1736.85,-131.52 1739.17,-138.13"/>
</g>
<!-- Node33&#45;&gt;Node29 -->
<g id="edge65" class="edge">
<title>Node33&#45;&gt;Node29</title>
<path fill="none" stroke="midnightblue" d="M1843.59,-112.44C1815.71,-103.32 1771.39,-88.81 1740.34,-78.65"/>
<polygon fill="midnightblue" stroke="midnightblue" points="1741.35,-75.3 1730.76,-75.52 1739.17,-81.95 1741.35,-75.3"/>
</g>
<!-- Node34 -->
<g id="node34" class="node">
<title>Node34</title>
<g id="a_node34"><a xlink:href="JoystickCodes_8h.html" target="_top" xlink:title="Defines for codes used for joystick.">
<polygon fill="white" stroke="black" points="1899.74,-56.5 1899.74,-75.5 1987.74,-75.5 1987.74,-56.5 1899.74,-56.5"/>
<text text-anchor="middle" x="1943.74" y="-63.5" font-family="Helvetica,sans-Serif" font-size="10.00">JoystickCodes.h</text>
</a>
</g>
</g>
<!-- Node33&#45;&gt;Node34 -->
<g id="edge66" class="edge">
<title>Node33&#45;&gt;Node34</title>
<path fill="none" stroke="midnightblue" d="M1881.63,-112.32C1892.89,-104.11 1910.02,-91.6 1923.44,-81.81"/>
<polygon fill="midnightblue" stroke="midnightblue" points="1925.62,-84.56 1931.63,-75.83 1921.49,-78.9 1925.62,-84.56"/>
</g>
<!-- Node36 -->
<g id="node36" class="node">
<title>Node36</title>
<g id="a_node36"><a xlink:href="KeyboardKeys_8h.html" target="_top" xlink:title="Defenitions of keys that can be used by input manager.">
<polygon fill="white" stroke="black" points="1547.74,-56.5 1547.74,-75.5 1633.74,-75.5 1633.74,-56.5 1547.74,-56.5"/>
<text text-anchor="middle" x="1590.74" y="-63.5" font-family="Helvetica,sans-Serif" font-size="10.00">KeyboardKeys.h</text>
</a>
</g>
</g>
<!-- Node35&#45;&gt;Node36 -->
<g id="edge68" class="edge">
<title>Node35&#45;&gt;Node36</title>
<path fill="none" stroke="midnightblue" d="M1625.8,-112.08C1619.81,-104.38 1610.98,-93.03 1603.69,-83.65"/>
<polygon fill="midnightblue" stroke="midnightblue" points="1606.44,-81.5 1597.54,-75.75 1600.92,-85.79 1606.44,-81.5"/>
</g>
<!-- Node37&#45;&gt;Node29 -->
<g id="edge70" class="edge">
<title>Node37&#45;&gt;Node29</title>
<path fill="none" stroke="midnightblue" d="M1760.97,-112.32C1750.97,-104.26 1735.85,-92.08 1723.81,-82.37"/>
<polygon fill="midnightblue" stroke="midnightblue" points="1725.68,-79.38 1715.7,-75.83 1721.29,-84.83 1725.68,-79.38"/>
</g>
<!-- Node38 -->
<g id="node38" class="node">
<title>Node38</title>
<g id="a_node38"><a xlink:title=" ">
<polygon fill="white" stroke="#bfbfbf" points="1775.74,-56.5 1775.74,-75.5 1881.74,-75.5 1881.74,-56.5 1775.74,-56.5"/>
<text text-anchor="middle" x="1828.74" y="-63.5" font-family="Helvetica,sans-Serif" font-size="10.00">SDL2/SDL_mouse.h</text>
</a>
</g>
</g>
<!-- Node37&#45;&gt;Node38 -->
<g id="edge71" class="edge">
<title>Node37&#45;&gt;Node38</title>
<path fill="none" stroke="midnightblue" d="M1780.89,-112.32C1789.24,-104.42 1801.77,-92.55 1811.91,-82.94"/>
<polygon fill="midnightblue" stroke="midnightblue" points="1814.56,-85.25 1819.41,-75.83 1809.74,-80.17 1814.56,-85.25"/>
</g>
<!-- Node39&#45;&gt;Node4 -->
<g id="edge73" class="edge">
<title>Node39&#45;&gt;Node4</title>
<path fill="none" stroke="midnightblue" d="M979.27,-168.45C952.31,-160.85 913.91,-148.41 882.74,-132 856.4,-118.13 829.34,-96.89 812.3,-82.5"/>
<polygon fill="midnightblue" stroke="midnightblue" points="814.23,-79.54 804.37,-75.67 809.66,-84.84 814.23,-79.54"/>
</g>
<!-- Node40 -->
<g id="node40" class="node">
<title>Node40</title>
<g id="a_node40"><a xlink:href="LoggingService_8h.html" target="_top" xlink:title="Default logging service. Does nothing. Use in production.">
<polygon fill="white" stroke="black" points="891.74,-112.5 891.74,-131.5 983.74,-131.5 983.74,-112.5 891.74,-112.5"/>
<text text-anchor="middle" x="937.74" y="-119.5" font-family="Helvetica,sans-Serif" font-size="10.00">LoggingService.h</text>
</a>
</g>
</g>
<!-- Node39&#45;&gt;Node40 -->
<g id="edge74" class="edge">
<title>Node39&#45;&gt;Node40</title>
<path fill="none" stroke="midnightblue" d="M1000.69,-168.32C989.27,-160.11 971.9,-147.6 958.3,-137.81"/>
<polygon fill="midnightblue" stroke="midnightblue" points="960.17,-134.84 950.01,-131.83 956.08,-140.52 960.17,-134.84"/>
</g>
<!-- Node40&#45;&gt;Node4 -->
<g id="edge75" class="edge">
<title>Node40&#45;&gt;Node4</title>
<path fill="none" stroke="midnightblue" d="M915.08,-112.44C890.78,-103.27 852.05,-88.64 825.12,-78.47"/>
<polygon fill="midnightblue" stroke="midnightblue" points="826.02,-75.07 815.43,-74.82 823.55,-81.62 826.02,-75.07"/>
</g>
<!-- Node41&#45;&gt;Node4 -->
<g id="edge77" class="edge">
<title>Node41&#45;&gt;Node4</title>
<path fill="none" stroke="midnightblue" d="M855.56,-168.37C844.71,-150.3 819.44,-108.18 805.12,-84.31"/>
<polygon fill="midnightblue" stroke="midnightblue" points="808.04,-82.37 799.89,-75.59 802.03,-85.97 808.04,-82.37"/>
</g>
<!-- Node41&#45;&gt;Node11 -->
<g id="edge78" class="edge">
<title>Node41&#45;&gt;Node11</title>
<path fill="none" stroke="midnightblue" d="M803.53,-168.94C800.56,-168.6 797.61,-168.29 794.74,-168 777.72,-166.3 256.33,-133.57 120.06,-125.03"/>
<polygon fill="midnightblue" stroke="midnightblue" points="120.05,-121.52 109.85,-124.39 119.61,-128.5 120.05,-121.52"/>
</g>
<!-- Node41&#45;&gt;Node28 -->
<g id="edge79" class="edge">
<title>Node41&#45;&gt;Node28</title>
<path fill="none" stroke="midnightblue" d="M845.31,-168.32C830.2,-159.82 806.92,-146.73 789.26,-136.8"/>
<polygon fill="midnightblue" stroke="midnightblue" points="790.55,-133.51 780.12,-131.65 787.12,-139.61 790.55,-133.51"/>
</g>
</g>
</svg>
